<svg width="62" height="61" viewBox="0 0 62 61" fill="none" xmlns="http://www.w3.org/2000/svg">
<g filter="url(#filter0_dd_22_983)">
<rect x="8" y="2" width="46" height="46" rx="11.5" fill="#238AF1"/>
</g>
<path fill-rule="evenodd" clip-rule="evenodd" d="M19.1725 13.8298H28.9899L28.0544 14.5938L25.8371 15.1881C25.2704 15.3398 24.8849 15.644 24.763 16.2465L23.3503 16.6248C22.9889 16.7221 22.7441 16.9323 22.5464 17.2405C22.0373 17.3807 21.6537 17.4532 21.3593 17.9621C21.1891 18.2569 21.1309 18.6162 21.2247 18.9684L21.7127 20.7927C21.8075 21.1461 22.0375 21.4295 22.3323 21.5997C22.6271 21.7702 22.9861 21.8281 23.3387 21.7345L23.7213 21.6323C24.023 21.8044 24.391 21.853 24.7262 21.7635L26.1403 21.3843C26.3215 21.5901 26.5625 21.7378 26.8289 21.8025L27.1813 23.119C27.8531 25.6282 31.6336 24.5527 30.9777 22.103L30.7695 21.3257L36.2984 22.2268C37.2531 22.3831 38.0259 21.5024 37.8014 20.5878L37.3893 19.0464L37.7145 19.2341C39.2344 20.1108 40.5617 17.8127 39.0424 16.9328L38.556 16.6499C39.8515 16.0248 39.2531 14.0861 37.8788 14.1414L38.059 13.829H41.717C42.3611 13.829 42.888 14.3559 42.888 15.0001V29.4929C42.888 30.137 42.3612 30.6639 41.717 30.6639H34.5391L33.6061 35.0794H42.6709C42.7902 35.0794 42.8875 35.1767 42.8875 35.2955V37.975C42.8875 38.0939 42.7902 38.1911 42.6709 38.1911H18.2169C18.098 38.1911 18.0003 38.0939 18.0003 37.975V35.2955C18.0003 35.1767 18.0978 35.0794 18.2169 35.0794H27.2817L26.3491 30.6639H19.1712C18.5267 30.6639 18 30.137 18 29.4929V15.0001C18 14.356 18.5269 13.829 19.1712 13.829L19.1725 13.8298ZM25.9467 16.0526L28.4535 15.3809L33.6672 11.1203C33.9262 10.8872 34.3421 11.0091 34.4322 11.3464L36.964 20.7946C37.0438 21.1208 36.7738 21.4321 36.4371 21.3764L29.7691 20.29L29.6094 20.3329L30.1434 22.3268C30.3046 22.9284 29.9383 23.5067 29.3456 23.6655C28.7697 23.8197 28.17 23.4732 28.0155 22.8972L27.4811 20.9029L27.2616 20.9617C27.0122 21.0285 26.7556 20.8808 26.6888 20.631L26.6171 20.3636L24.5025 20.9303C24.2831 20.9891 24.0529 20.8819 23.9572 20.6759L23.1189 20.9009C22.8694 20.9677 22.613 20.8195 22.5465 20.5699L22.0588 18.7501C21.9918 18.5003 22.1397 18.2441 22.3896 18.1773L23.2279 17.9524C23.2071 17.7264 23.3532 17.5186 23.5728 17.4598L25.687 16.8931L25.6153 16.6257C25.5485 16.3763 25.697 16.1197 25.9462 16.0529L25.9467 16.0526ZM26.3749 19.4596L25.9297 17.7969L24.267 18.2424L24.7126 19.9052L26.3751 19.4596H26.3749ZM38.611 17.6784C39.1444 17.9862 38.677 18.7967 38.1434 18.4888L36.7573 17.6888C36.2243 17.3809 36.6919 16.5701 37.2253 16.878L38.611 17.6784ZM36.6165 14.6071C36.3091 15.14 35.4982 14.6729 35.8063 14.1391L36.6063 12.7529C36.9142 12.22 37.7246 12.6876 37.4165 13.2206L36.6165 14.6071ZM36.4958 16.3409C35.9009 16.5004 35.6594 15.5965 36.2539 15.4373L37.7998 15.0228C38.3373 14.8786 38.7407 15.7319 38.0427 15.9256L36.4958 16.3407L36.4958 16.3409ZM29.1683 16.0026L30.0766 19.394L35.8728 20.3384L33.7153 12.2871L29.1682 16.003L29.1683 16.0026ZM28.3032 16.3897L26.6404 16.8352L27.4713 19.937L29.1344 19.491L28.3032 16.3895V16.3897Z" fill="white"/>
<defs>
<filter id="filter0_dd_22_983" x="0.8125" y="0.5625" width="60.375" height="60.375" filterUnits="userSpaceOnUse" color-interpolation-filters="sRGB">
<feFlood flood-opacity="0" result="BackgroundImageFix"/>
<feColorMatrix in="SourceAlpha" type="matrix" values="0 0 0 0 0 0 0 0 0 0 0 0 0 0 0 0 0 0 127 0" result="hardAlpha"/>
<feMorphology radius="1.4375" operator="erode" in="SourceAlpha" result="effect1_dropShadow_22_983"/>
<feOffset dy="2.875"/>
<feGaussianBlur stdDeviation="2.875"/>
<feColorMatrix type="matrix" values="0 0 0 0 0 0 0 0 0 0 0 0 0 0 0 0 0 0 0.07 0"/>
<feBlend mode="normal" in2="BackgroundImageFix" result="effect1_dropShadow_22_983"/>
<feColorMatrix in="SourceAlpha" type="matrix" values="0 0 0 0 0 0 0 0 0 0 0 0 0 0 0 0 0 0 127 0" result="hardAlpha"/>
<feMorphology radius="1.4375" operator="erode" in="SourceAlpha" result="effect2_dropShadow_22_983"/>
<feOffset dy="5.75"/>
<feGaussianBlur stdDeviation="4.3125"/>
<feColorMatrix type="matrix" values="0 0 0 0 0 0 0 0 0 0 0 0 0 0 0 0 0 0 0.12 0"/>
<feBlend mode="normal" in2="effect1_dropShadow_22_983" result="effect2_dropShadow_22_983"/>
<feBlend mode="normal" in="SourceGraphic" in2="effect2_dropShadow_22_983" result="shape"/>
</filter>
</defs>
</svg>
