<svg width="27" height="16" viewBox="0 0 27 16" fill="none" xmlns="http://www.w3.org/2000/svg">
<path d="M16.5001 8C16.5001 9.65691 15.157 11 13.5001 11C11.8432 11 10.5001 9.65691 10.5001 8C10.5001 6.34309 11.8432 5 13.5001 5C15.157 5 16.5001 6.34309 16.5001 8Z" fill="black"/>
<path d="M13.5 0C5.9 0 0 3.5 0 8C0 12.5 5.9 16 13.5 16C21.1 16 27 12.5 27 8C27 3.5 21.1 0 13.5 0ZM13.5 13C10.7 13 8.5 10.8 8.5 8C8.5 5.2 10.7 3 13.5 3C16.3 3 18.5 5.2 18.5 8C18.5 10.8 16.3 13 13.5 13Z" fill="black"/>
</svg>
