<svg width="1" height="21" viewBox="0 0 24 18" fill="none" xmlns="http://www.w3.org/2000/svg">
<path d="M22.4643 0.355302C22.3654 0.345108 22.2657 0.345108 22.1667 0.355302H1.84487C1.71462 0.357309 1.58524 0.376838 1.46021 0.413364L11.9477 10.8574L22.4643 0.355302Z" fill="black"/>
<path d="M23.5385 1.36328L12.9712 11.8871C12.6992 12.1575 12.3313 12.3092 11.9478 12.3092C11.5643 12.3092 11.1964 12.1575 10.9245 11.8871L0.451439 1.44312C0.419243 1.56145 0.402172 1.68338 0.400635 1.80601V16.3216C0.400635 16.7066 0.553567 17.0758 0.825787 17.348C1.09801 17.6203 1.46722 17.7732 1.8522 17.7732H22.1741C22.559 17.7732 22.9283 17.6203 23.2005 17.348C23.4727 17.0758 23.6256 16.7066 23.6256 16.3216V1.80601C23.6198 1.65479 23.5905 1.50541 23.5385 1.36328ZM2.84652 16.3216H1.83768V15.2838L7.11411 10.0509L8.13746 11.0742L2.84652 16.3216ZM22.1595 16.3216H21.1435L15.8525 11.0742L16.8759 10.0509L22.1523 15.2838L22.1595 16.3216Z" fill="black"/>
</svg>
