<svg width="16" height="14" viewBox="-1 -2 19 18" fill="none" xmlns="http://www.w3.org/2000/svg">
<path d="M18.5347 13.6307L11.4835 1.4171C10.3929 -0.472367 8.60789 -0.472367 7.51728 1.4171L0.465445 13.6307C-0.625169 15.5201 0.267209 17.0659 2.44886 17.0659H16.5513C18.7329 17.0659 19.6257 15.5201 18.5347 13.6307ZM8.44449 5.26085C8.44449 4.67775 8.91696 4.20528 9.50006 4.20528C10.0832 4.20528 10.5556 4.67775 10.5556 5.26085V9.98642C10.5556 10.5697 10.0832 11.042 9.50006 11.042C8.91696 11.042 8.44449 10.5697 8.44449 9.98642V5.26085ZM9.50006 14.8665C8.7962 14.8665 8.22303 14.2936 8.22303 13.5895C8.22303 12.8854 8.7962 12.3125 9.50006 12.3125C10.2043 12.3125 10.7771 12.8854 10.7771 13.5895C10.7771 14.2936 10.2043 14.8665 9.50006 14.8665Z" fill="#DD1B22"/>
</svg>
