<svg width="27" height="27" viewBox="0 0 23 23" fill="none" xmlns="http://www.w3.org/2000/svg">
<path d="M19.6694 12.1425L22.8104 11.3378L22.4083 9.96515L19.3427 10.7461C18.6894 8.56883 17.3074 6.72284 15.5233 5.58685L15.9003 4.23786C16.8048 4.16686 17.5587 3.55153 17.7848 2.7232C17.9356 2.20254 17.8602 1.63454 17.5587 1.16121C17.2571 0.687884 16.8048 0.356553 16.2269 0.214554C15.6741 0.0725552 15.071 0.143555 14.5685 0.427553C14.0659 0.711551 13.7141 1.13755 13.5634 1.68188C13.3372 2.51021 13.6639 3.38587 14.4177 3.88286L14.1162 4.92419C12.3824 4.26153 10.4224 4.26153 8.68859 4.92419L8.38706 3.88286C9.11577 3.38587 9.46755 2.51021 9.2414 1.68188C9.09064 1.16121 8.73885 0.711551 8.23629 0.427553C7.73374 0.143555 7.1558 0.0725552 6.57787 0.214554C6.02506 0.356553 5.54763 0.687884 5.2461 1.16121C4.94456 1.63454 4.86918 2.17887 5.01995 2.7232C5.17071 3.24387 5.5225 3.69353 6.02506 3.97753C6.30146 4.11953 6.60299 4.21419 6.90453 4.23786L7.28144 5.58685C5.47225 6.72284 4.09022 8.5925 3.4369 10.7698L0.421575 9.96515L0.0195312 11.3378L3.21075 12.1425C3.13537 12.6395 3.08511 13.1601 3.08511 13.6571H0.0446589V15.0771H3.21075C3.28613 15.5978 3.38665 16.1184 3.53741 16.6154L0.446703 17.3964L0.848746 18.7691L4.06509 17.9408C5.49737 20.9937 8.36193 22.9344 11.4526 22.9344C14.5434 22.9344 17.4079 20.9937 18.8402 17.9408L22.0063 18.7454L22.4083 17.3728L19.3679 16.5918C19.5186 16.0948 19.6443 15.5741 19.6945 15.0535H22.8104V13.6335H19.795C19.795 13.1601 19.7448 12.6395 19.6694 12.1425ZM5.29635 13.5388C5.29635 12.4028 6.27633 11.4798 7.48246 11.4798C8.68859 11.4798 9.66858 12.4028 9.66858 13.5388C9.66858 14.6748 8.68859 15.5978 7.48246 15.5978C6.27633 15.5978 5.29635 14.6748 5.29635 13.5388ZM8.41219 19.4081C7.53272 19.4081 6.80401 18.7218 6.80401 17.8934C6.80401 17.0651 7.53272 16.3788 8.41219 16.3788C9.29166 16.3788 10.0204 17.0651 10.0204 17.8934C10.0204 18.7218 9.29166 19.4081 8.41219 19.4081ZM14.4428 19.4081C13.5634 19.4081 12.8347 18.7218 12.8347 17.8934C12.8347 17.0651 13.5634 16.3788 14.4428 16.3788C15.3223 16.3788 16.051 17.0651 16.051 17.8934C16.0761 18.7218 15.3474 19.4081 14.4428 19.4081ZM15.3726 15.6214C14.1664 15.6214 13.1865 14.6985 13.1865 13.5625C13.1865 12.4265 14.1664 11.5035 15.3726 11.5035C16.5787 11.5035 17.5587 12.4265 17.5587 13.5625C17.5587 14.6748 16.5787 15.6214 15.3726 15.6214Z" fill="#676767" fill-opacity="0.4"/>
</svg>
