<svg width="27" height="27" viewBox="0 0 23 23" fill="none" xmlns="http://www.w3.org/2000/svg">
<path d="M22.4966 9.6956L20.7213 9.50408C20.0496 9.43226 19.4978 9.00134 19.2339 8.35496C19.2339 8.35496 19.2339 8.35496 19.2339 8.33102C18.97 7.70858 19.042 6.99038 19.4738 6.4637L20.6013 5.07519C20.7693 4.85973 20.7453 4.54851 20.5534 4.35699L18.7301 2.53755C18.5382 2.34603 18.2263 2.32209 18.0104 2.48967L16.6189 3.63879C16.0912 4.06971 15.3714 4.14153 14.7477 3.87819C14.7477 3.87819 14.7477 3.87819 14.7237 3.87819C14.1 3.61485 13.6681 3.06423 13.5722 2.39391L13.3802 0.622354C13.3563 0.335074 13.1164 0.143555 12.8525 0.143555H10.2855C10.0216 0.143555 9.78169 0.335074 9.7577 0.622354L9.56578 2.36997C9.49381 3.04029 9.03799 3.59091 8.41424 3.85425H8.39025C7.7665 4.11759 7.04679 4.04577 6.519 3.61485L5.15155 2.51361C4.93564 2.34603 4.62376 2.36997 4.43184 2.56149L2.60857 4.38093C2.41665 4.57245 2.39266 4.88367 2.56059 5.09913L3.66415 6.4637C4.09598 6.99038 4.16795 7.70858 3.90405 8.33102V8.35496C3.64016 8.9774 3.08838 9.43226 2.41665 9.50408L0.665354 9.6956C0.40146 9.71954 0.185547 9.95894 0.185547 10.2223V12.8078C0.185547 13.0711 0.40146 13.3105 0.665354 13.3345L2.44064 13.526C3.11237 13.5978 3.66415 14.0527 3.92804 14.6751C3.92804 14.6751 3.92804 14.6751 3.92804 14.699C4.19194 15.3215 4.11997 16.0397 3.68814 16.5664L2.56059 17.9549C2.39266 18.1703 2.41665 18.4816 2.60857 18.6731L4.43184 20.4925C4.62376 20.684 4.93564 20.708 5.15155 20.5404L6.54299 19.4392C7.07078 19.0082 7.79049 18.9364 8.41424 19.1998H8.43823C9.06198 19.4631 9.49381 20.0137 9.56578 20.684L9.7577 22.4556C9.78169 22.7189 10.0216 22.9344 10.2855 22.9344H12.8764C13.1643 22.9344 13.3802 22.7429 13.4042 22.4556L13.5962 20.684C13.6441 20.2292 13.8601 19.8461 14.1719 19.5828L11.8928 17.1649C11.7969 17.1888 11.7009 17.1888 11.581 17.1888C8.46222 17.1409 5.94323 14.6272 5.94323 11.515C5.94323 8.40284 8.46222 5.88914 11.581 5.88914C14.6997 5.88914 17.2187 8.40284 17.2187 11.515C17.2187 11.6108 17.2187 11.7066 17.1947 11.8263L19.6177 14.1005C19.9056 13.7893 20.2895 13.5739 20.7213 13.526L22.4966 13.3345C22.7605 13.3105 22.9764 13.0711 22.9764 12.8078V10.2223C22.9764 9.95894 22.7845 9.71954 22.4966 9.6956Z" fill="#676767" fill-opacity="0.4"/>
<path d="M14.9401 12.3761C15.18 11.4664 15.0361 10.4849 14.5083 9.67089C13.6926 8.40207 12.2772 7.8754 10.9817 8.11479C10.6698 8.16267 10.5499 8.56965 10.7658 8.80905L11.6055 9.64695C12.1332 10.1736 12.1332 11.0355 11.6055 11.5861C11.0777 12.1128 10.214 12.1128 9.66224 11.5861L8.82257 10.7482C8.58267 10.5088 8.19882 10.6285 8.12685 10.9636C7.93493 12.0409 8.2708 13.1661 9.08647 14.004C9.97411 14.8898 11.2456 15.1771 12.3731 14.8898L17.627 20.3721C17.9389 20.7072 18.4907 20.7312 18.8026 20.396L20.4819 18.7202C20.8178 18.385 20.7938 17.8584 20.4579 17.5471L14.9401 12.3761Z" fill="#676767" fill-opacity="0.4"/>
</svg>
