<svg width="30" height="30" viewBox="0 0 30 30" fill="none" xmlns="http://www.w3.org/2000/svg">
<path d="M28.4779 12.2179L26.2119 11.973C25.3545 11.8811 24.6502 11.3299 24.3134 10.5031C24.3134 10.5031 24.3134 10.5031 24.3134 10.4725C23.9766 9.67636 24.0684 8.75772 24.6196 8.08405L26.0588 6.30801C26.2732 6.03242 26.2425 5.63434 25.9976 5.38937L23.6703 3.06214C23.4254 2.81717 23.0273 2.78655 22.7517 3.0009L20.9757 4.47073C20.302 5.02191 19.3834 5.11377 18.5872 4.77694C18.5872 4.77694 18.5872 4.77694 18.5566 4.77694C17.7604 4.4401 17.2092 3.73581 17.0867 2.87841L16.8418 0.612428C16.8112 0.244971 16.5049 0 16.1681 0H12.8916C12.5548 0 12.2486 0.244971 12.2179 0.612428L11.973 2.84779C11.8811 3.70519 11.2993 4.40948 10.5031 4.74632H10.4725C9.67636 5.08315 8.75772 4.99129 8.08405 4.4401L6.33863 3.03152C6.06304 2.81717 5.66496 2.84779 5.41999 3.09276L3.09276 5.41999C2.84779 5.66496 2.81717 6.06304 3.03152 6.33863L4.4401 8.08405C4.99129 8.75772 5.08315 9.67636 4.74632 10.4725V10.5031C4.40948 11.2993 3.70519 11.8811 2.84779 11.973L0.612428 12.2179C0.275593 12.2486 0 12.5548 0 12.8916V16.1987C0 16.5356 0.275593 16.8418 0.612428 16.8724L2.87841 17.1174C3.73581 17.2092 4.4401 17.791 4.77694 18.5872C4.77694 18.5872 4.77694 18.5872 4.77694 18.6178C5.11377 19.414 5.02191 20.3326 4.47073 21.0063L3.03152 22.7823C2.81717 23.0579 2.84779 23.456 3.09276 23.701L5.41999 26.0282C5.66496 26.2732 6.06304 26.3038 6.33863 26.0894L8.11467 24.6809C8.78834 24.1297 9.70699 24.0378 10.5031 24.3746H10.5338C11.3299 24.7115 11.8811 25.4158 11.973 26.2732L12.2179 28.5392C12.2486 28.876 12.5548 29.1516 12.8916 29.1516H16.1987C16.5662 29.1516 16.8418 28.9066 16.8724 28.5392L17.1174 26.2732C17.1786 25.6914 17.4542 25.2014 17.8523 24.8646L14.9432 21.7718C14.8208 21.8024 14.6983 21.8024 14.5452 21.8024C10.5644 21.7412 7.34914 18.526 7.34914 14.5452C7.34914 10.5644 10.5644 7.34914 14.5452 7.34914C18.526 7.34914 21.7412 10.5644 21.7412 14.5452C21.7412 14.6677 21.7412 14.7901 21.7106 14.9432L24.8033 17.8523C25.1708 17.4542 25.6607 17.1786 26.2119 17.1174L28.4779 16.8724C28.8147 16.8418 29.0903 16.5356 29.0903 16.1987V12.8916C29.0903 12.5548 28.8454 12.2486 28.4779 12.2179Z" fill="black"/>
<path d="M18.8321 15.6455C19.1384 14.4819 18.9546 13.2265 18.281 12.1853C17.2398 10.5624 15.4332 9.88872 13.7796 10.1949C13.3815 10.2562 13.2284 10.7767 13.504 11.083L14.5758 12.1547C15.2494 12.8284 15.2494 13.9307 14.5758 14.635C13.9021 15.3087 12.7997 15.3087 12.0954 14.635L11.0237 13.5633C10.7175 13.2571 10.2275 13.4102 10.1357 13.8389C9.89069 15.2168 10.3194 16.6561 11.3605 17.7278C12.4935 18.8608 14.1164 19.2282 15.5557 18.8608L22.2617 25.8731C22.6598 26.3018 23.3641 26.3324 23.7622 25.9037L25.9057 23.7602C26.3344 23.3315 26.3038 22.6578 25.8751 22.2598L18.8321 15.6455Z" fill="black"/>
</svg>
