<svg width="70" height="70" viewBox="0 0 129 129" fill="none" xmlns="http://www.w3.org/2000/svg">
<path d="M64.5 0C28.6667 0 0 28.6667 0 64.5C0 100.333 28.6667 129 64.5 129C100.333 129 129 100.333 129 64.5C129 28.6667 100.333 0 64.5 0ZM98.1833 48.0167L58.7667 91.0167C57.3333 92.45 55.1833 93.1667 53.75 93.1667C52.3167 93.1667 50.1667 92.45 48.7333 91.0167L30.8167 71.6667C27.95 68.8 28.6667 64.5 31.5333 61.6333C34.4 58.7667 38.7 59.4833 41.5667 62.35L53.75 75.9667L88.15 38.7C91.0167 35.8333 95.3167 35.8333 98.1833 37.9833C101.05 40.1333 101.05 45.15 98.1833 48.0167Z" fill="#2C9F19"/>
</svg>
