<svg width="60" height="65" viewBox="0 0 125 123" fill="none" xmlns="http://www.w3.org/2000/svg">
<path d="M110.821 0.229492H29.5939C23.4619 0.229492 18.4851 5.20624 18.4851 11.3383V92.5659H1.86626C0.888683 92.5659 0 93.3658 0 94.4322V111.051C0 117.183 4.97675 122.16 11.1088 122.16H65.7642C64.7866 121.004 63.9867 119.76 63.1869 118.427H11.1088C7.02077 118.427 3.73252 115.139 3.73252 111.051V96.2985H57.2326C57.2326 95.6764 57.3215 95.0543 57.3215 94.4322C57.4103 93.8101 57.4103 93.188 57.4992 92.5659H22.2176V11.3383C22.2176 7.25026 25.5059 3.96206 29.5939 3.96206H102.645C100.868 5.91721 99.8016 8.49445 99.8016 11.3383V57.4621C100.424 57.4621 101.046 57.5509 101.668 57.6398C102.29 57.7287 102.912 57.8176 103.534 57.9065V11.3383C103.534 7.25026 106.822 3.96206 110.91 3.96206C114.998 3.96206 118.287 7.25026 118.287 11.3383V33.4671H107.089C106.022 33.4671 105.223 34.2669 105.223 35.3333C105.223 36.3109 106.022 37.1996 107.089 37.1996H119.975C121.042 37.1996 121.841 36.3998 121.841 35.3333V11.3383C121.93 5.20624 116.954 0.229492 110.821 0.229492ZM102.379 96.2096C102.112 96.2096 101.846 96.2096 101.579 96.2096C100.957 96.2096 100.335 96.2096 99.7126 96.2985V111.14C99.7126 112.74 99.1794 114.25 98.2907 115.495H102.557C103.09 114.161 103.445 112.651 103.445 111.14V96.2096C103.09 96.2096 102.734 96.2096 102.379 96.2096ZM102.29 68.8375C102.023 68.8375 101.846 68.8375 101.579 68.8375C100.957 68.8375 100.335 68.9264 99.7126 69.1041V92.477C100.335 92.6548 100.957 92.7436 101.579 92.7436C101.846 92.7436 102.023 92.7436 102.29 92.7436C102.645 92.7436 103.09 92.7437 103.445 92.6548V68.7486C103.09 68.8375 102.645 68.8375 102.29 68.8375ZM84.9602 111.051V104.83L84.2493 104.119C83.9827 104.119 83.8049 104.208 83.5383 104.297C83.4494 104.475 83.2716 104.563 83.0939 104.652C82.6496 104.919 82.2052 105.008 81.672 104.83L81.2276 104.741V111.051C81.2276 113.895 82.294 116.472 84.0715 118.427H72.8738L73.5848 119.049C74.118 119.494 74.2958 120.293 74.0292 120.916C74.0292 121.182 74.118 121.36 74.2069 121.627L75.8066 122.071H77.0507C77.1395 121.982 77.1396 121.982 77.2285 121.893C77.4062 121.182 77.9394 120.649 78.6504 120.56L80.6055 120.293C81.3165 120.205 82.0274 120.56 82.294 121.093C82.4718 121.182 82.7384 121.271 83.0051 121.36L85.138 119.849C85.138 119.583 85.138 119.405 85.138 119.138C84.8714 118.872 84.7825 118.427 84.7825 118.072C84.7825 117.805 84.8713 117.539 84.9602 117.272L85.4934 116.383L85.9377 115.583C86.0266 115.406 86.1155 115.317 86.2044 115.228C85.4045 114.073 84.9602 112.562 84.9602 111.051Z" fill="#3DF9D3"/>
<path d="M29.5042 2.09595L22.128 5.82852L20.2617 15.0711V94.4324H57.2318C57.3207 93.8103 57.3206 93.1882 57.4095 92.5661C57.5873 90.6999 58.0317 88.8336 58.476 87.0562H49.8555C48.8779 87.0562 47.9893 86.2563 47.9893 85.1898C47.9893 84.1234 48.7891 83.3236 49.8555 83.3236H59.6313C60.3422 81.3684 61.231 79.591 62.2085 77.8136H49.8555C48.8779 77.8136 47.9893 77.0138 47.9893 75.9473C47.9893 74.8809 48.7891 74.081 49.8555 74.081H64.608C66.0299 72.1259 67.6296 70.2596 69.407 68.5711H49.8555C48.8779 68.5711 47.9893 67.7712 47.9893 66.7048C47.9893 65.7272 48.7891 64.8385 49.8555 64.8385H73.7617C80.3381 60.1284 88.4253 57.3734 97.0457 57.3734C97.9344 57.3734 98.8232 57.3734 99.623 57.4623C100.245 57.4623 100.867 57.5511 101.489 57.64V9.47224L105.222 3.96226L107.088 2.09595H29.5042ZM35.103 74.081H42.4793C43.4569 74.081 44.3456 74.8809 44.3456 75.9473C44.3456 77.0138 43.5458 77.8136 42.4793 77.8136H35.103C34.1255 77.8136 33.2368 77.0138 33.2368 75.9473C33.2368 74.8809 34.0366 74.081 35.103 74.081ZM33.2368 66.7048C33.2368 65.7272 34.0366 64.8385 35.103 64.8385H42.4793C43.4569 64.8385 44.3456 65.6384 44.3456 66.7048C44.3456 67.6824 43.5458 68.5711 42.4793 68.5711H35.103C34.0366 68.5711 33.2368 67.7712 33.2368 66.7048ZM35.103 83.3236H42.4793C43.4569 83.3236 44.3456 84.1234 44.3456 85.1898C44.3456 86.2563 43.5458 87.0562 42.4793 87.0562H35.103C34.1255 87.0562 33.2368 86.2563 33.2368 85.1898C33.2368 84.1234 34.0366 83.3236 35.103 83.3236ZM40.613 33.4673C46.745 33.4673 51.7218 38.444 51.7218 44.5761C51.7218 50.086 47.7227 54.6184 42.4793 55.5071V57.5511C42.4793 58.5287 41.6794 59.4174 40.613 59.4174C39.6354 59.4174 38.7467 58.6176 38.7467 57.5511V55.5071C33.5034 54.6184 29.5042 50.086 29.5042 44.5761C29.5042 43.5985 30.3041 42.7098 31.3705 42.7098C32.437 42.7098 33.2368 43.5096 33.2368 44.5761C33.2368 48.6641 36.5249 51.9523 40.613 51.9523C44.701 51.9523 47.9893 48.6641 47.9893 44.5761C47.9893 40.488 44.701 37.1998 40.613 37.1998C34.4809 37.1998 29.5042 32.223 29.5042 26.091C29.5042 20.581 33.5034 16.0486 38.7467 15.1599V13.1159C38.7467 12.1383 39.5465 11.2497 40.613 11.2497C41.5905 11.2497 42.4793 12.0495 42.4793 13.1159V15.1599C47.7227 16.0486 51.7218 20.581 51.7218 26.091C51.7218 27.0686 50.922 27.9573 49.8555 27.9573C48.8779 27.9573 47.9893 27.1574 47.9893 26.091C47.9893 22.0029 44.701 18.7147 40.613 18.7147C36.5249 18.7147 33.2368 22.0029 33.2368 26.091C33.2368 30.179 36.5249 33.4673 40.613 33.4673ZM75.7168 48.2197H64.608C63.6304 48.2197 62.7417 47.4199 62.7417 46.3535C62.7417 45.287 63.5416 44.4872 64.608 44.4872H75.7168C76.6944 44.4872 77.5832 45.287 77.5832 46.3535C77.5832 47.4199 76.6944 48.2197 75.7168 48.2197ZM90.4694 27.9573H70.118C69.1405 27.9573 68.2518 27.1574 68.2518 26.091C68.2518 25.0245 69.0516 24.2247 70.118 24.2247H90.4694C91.5358 24.2247 92.3357 25.0245 92.3357 26.091C92.3357 27.1574 91.5358 27.9573 90.4694 27.9573ZM90.4694 18.7147H62.7417C61.7642 18.7147 60.8755 17.9149 60.8755 16.8485C60.8755 15.782 61.6753 14.9822 62.7417 14.9822H90.4694C91.5358 14.9822 92.3357 15.782 92.3357 16.8485C92.3357 17.9149 91.5358 18.7147 90.4694 18.7147ZM99.7118 69.1043C97.4901 69.5487 95.4461 70.704 93.8464 72.3036C91.6246 74.5254 90.2916 77.6359 90.2916 80.7463C90.2916 83.8568 91.5358 86.9673 93.8464 89.189C95.4461 90.7887 97.4901 91.944 99.7118 92.3884C100.334 92.5661 100.956 92.655 101.578 92.655V68.7488C100.956 68.8377 100.334 68.9266 99.7118 69.1043ZM99.7118 96.2098C94.113 96.5653 89.6695 98.3427 86.3813 101.453L88.9585 103.853C89.314 104.119 89.4917 104.564 89.4917 105.008C89.5806 106.074 89.4029 107.052 89.0474 108.03L89.1363 108.118C90.1139 108.563 90.9137 109.185 91.5358 109.985C91.8024 110.34 91.9802 110.785 91.8913 111.229L91.6246 115.317H99.3564L101.578 110.962V96.2098C100.956 96.2098 100.334 96.2098 99.7118 96.2098ZM87.8921 111.407C87.1812 111.407 86.559 110.962 86.2924 110.34L85.5815 108.474C85.3149 107.852 85.4927 107.052 86.0259 106.608C86.1147 106.341 86.1147 106.163 86.1147 105.897L84.9594 104.83L84.2485 104.119C83.9818 104.119 83.8041 104.208 83.5375 104.297C83.4486 104.475 83.2708 104.564 83.0931 104.653V112.829L85.4926 116.383L85.9369 115.584C86.0258 115.406 86.1147 115.317 86.2036 115.228C86.5591 114.873 87.0923 114.695 87.6255 114.784C87.8032 114.695 88.0699 114.606 88.2476 114.428L88.4253 111.851C88.3365 111.673 88.1587 111.496 87.8921 111.407Z" fill="#3DF9D3"/>
<path d="M24.4422 103.408H3.73533C2.75775 103.408 2.04688 102.608 2.04688 101.719C2.04688 100.742 2.84662 100.031 3.73533 100.031H24.4422C25.4198 100.031 26.1308 100.831 26.1308 101.719C26.1308 102.608 25.4198 103.408 24.4422 103.408Z" fill="#3DF9D3"/>
<path d="M38.2152 103.408H29.5948C28.6172 103.408 27.9062 102.608 27.9062 101.719C27.9062 100.742 28.7061 100.031 29.5948 100.031H38.2152C39.1928 100.031 39.9038 100.831 39.9038 101.719C39.9038 102.608 39.1928 103.408 38.2152 103.408Z" fill="#3DF9D3"/>
<path d="M46.8341 103.408H43.3682C42.3907 103.408 41.6797 102.608 41.6797 101.719C41.6797 100.742 42.4795 100.031 43.3682 100.031H46.8341C47.8117 100.031 48.5227 100.831 48.5227 101.719C48.5227 102.608 47.8117 103.408 46.8341 103.408Z" fill="#3DF9D3"/>
<path d="M38.7474 111.051H3.6436C2.66603 111.051 1.77734 110.251 1.77734 109.185C1.77734 108.207 2.57716 107.318 3.6436 107.318H38.7474C39.725 107.318 40.6137 108.118 40.6137 109.185C40.6137 110.251 39.8139 111.051 38.7474 111.051Z" fill="#3DF9D3"/>
<path d="M58.9195 108.563C58.9195 108.651 58.9194 108.829 58.8306 108.918C58.6528 109.718 57.9419 110.251 57.1421 110.251H45.0556C44.0781 110.251 43.3672 109.451 43.3672 108.563C43.3672 107.585 44.1669 106.874 45.0556 106.874H57.1421C57.5865 106.874 58.0307 107.052 58.3862 107.407C58.7417 107.674 58.9195 108.118 58.9195 108.563Z" fill="#3DF9D3"/>
<path d="M70.21 109.185C70.21 109.362 70.2101 109.629 70.1212 109.807C69.9435 109.54 69.6768 109.273 69.4102 109.185C69.3213 109.007 69.1436 108.74 69.0547 108.563L69.499 107.763C69.9434 108.118 70.21 108.651 70.21 109.185Z" fill="#3DF9D3"/>
<path d="M58.3906 107.407C58.6572 107.763 58.835 108.118 58.835 108.563C58.835 108.652 58.835 108.829 58.7461 108.918C58.6573 108.474 58.5684 107.941 58.3906 107.407Z" fill="#3DF9D3"/>
<path d="M87.8933 111.406C87.1824 111.406 86.5602 110.962 86.2936 110.34L85.5827 108.474C85.3161 107.852 85.4939 107.052 86.0271 106.607C86.116 106.341 86.1159 106.163 86.1159 105.896L84.9606 104.83L84.2497 104.119C83.9831 104.119 83.8053 104.208 83.5387 104.297C83.4498 104.474 83.2721 104.563 83.0943 104.652C82.65 104.919 82.2056 105.008 81.6724 104.83L81.2281 104.741L79.8061 104.297C79.0952 104.119 78.6508 103.497 78.6508 102.786C78.473 102.608 78.3842 102.43 78.1176 102.253L75.5403 102.697C75.4515 102.875 75.3625 103.141 75.2737 103.319C75.4514 104.03 75.1849 104.741 74.5628 105.097L72.9631 106.252C72.341 106.696 71.63 106.696 71.0079 106.252C70.7413 106.252 70.4747 106.252 70.2969 106.252L69.4971 107.674L69.0527 108.474C69.1416 108.651 69.2305 108.918 69.4082 109.096C69.6748 109.185 69.9415 109.451 70.1192 109.718C70.297 109.984 70.3858 110.34 70.3858 110.695L70.2081 112.651C70.1192 113.362 69.6748 113.984 68.9639 114.161C68.7861 114.339 68.6973 114.517 68.5195 114.783L69.4971 117.183C69.7637 117.272 69.9415 117.272 70.2081 117.361C70.8302 117.005 71.63 117.183 72.0744 117.627L72.7854 118.338L73.4963 118.96C74.0295 119.405 74.2072 120.205 73.9406 120.827C73.9406 121.093 74.0295 121.271 74.1184 121.538L75.718 121.982L76.6067 122.249C76.6956 122.16 76.8734 122.071 76.9622 121.982C77.0511 121.893 77.0512 121.893 77.14 121.804C77.3178 121.093 77.851 120.56 78.5619 120.471L80.517 120.205C81.228 120.116 81.939 120.471 82.2056 121.004C82.3833 121.093 82.65 121.182 82.9166 121.271L85.0494 119.76C85.0494 119.494 85.0494 119.316 85.0494 119.049C84.7828 118.783 84.694 118.338 84.694 117.983C84.694 117.716 84.7829 117.45 84.8717 117.183L85.4049 116.294L85.8493 115.494C85.9381 115.317 86.0271 115.228 86.1159 115.139C86.4714 114.783 87.0046 114.606 87.5378 114.695C87.7156 114.606 87.9821 114.517 88.1599 114.339L88.3377 111.762C88.3377 111.673 88.16 111.495 87.8933 111.406ZM76.7845 111.051C77.2289 110.607 77.762 110.34 78.3841 110.34C78.7396 110.34 79.0952 110.429 79.4506 110.607C79.895 110.873 80.3393 111.317 80.4282 111.851C80.6059 112.384 80.5171 113.006 80.2505 113.45C79.9839 113.895 79.5395 114.339 79.0063 114.428C78.4731 114.606 77.9398 114.517 77.4066 114.25C76.8734 113.984 76.5179 113.362 76.3402 112.828C76.2513 112.206 76.3402 111.495 76.7845 111.051Z" fill="#3DF9D3"/>
<path d="M93.8478 89.2781C91.626 87.0564 90.293 83.9459 90.293 80.8354C90.293 77.725 91.5372 74.6145 93.8478 72.3927C95.4475 70.7931 97.4915 69.6377 99.7132 69.1934C100.335 69.0156 100.957 69.0156 101.58 68.9268C101.846 68.9268 102.024 68.9268 102.29 68.9268C102.646 68.9268 103.09 68.9268 103.446 69.0157C106.201 69.2823 108.867 70.5264 110.822 72.4816C113.044 74.7033 114.377 77.8138 114.377 80.9243C114.377 84.0347 113.133 87.1452 110.822 89.367C108.867 91.3221 106.201 92.5663 103.446 92.8329C103.09 92.8329 102.735 92.9218 102.29 92.9218C102.024 92.9218 101.846 92.9218 101.58 92.9218C100.957 92.9218 100.335 92.8329 99.7132 92.6552C97.4915 92.0331 95.4475 90.8778 93.8478 89.2781Z" fill="#3DF9D3"/>
<path d="M123.974 115.05C123.796 115.317 123.441 115.406 123.085 115.406H91.5363L91.803 111.318C91.803 110.873 91.7141 110.429 91.4475 110.073C90.8254 109.274 89.9366 108.652 89.0479 108.207L88.9591 108.118C89.3146 107.141 89.4923 106.163 89.4034 105.097C89.4034 104.652 89.2257 104.208 88.8702 103.941L86.293 101.542C89.5812 98.3426 94.0247 96.5652 99.6235 96.2986C100.246 96.2986 100.868 96.2097 101.49 96.2097C101.756 96.2097 102.023 96.2097 102.29 96.2097C102.645 96.2097 103.001 96.2097 103.356 96.2097C109.666 96.2986 114.732 98.1649 118.375 101.72C121.575 105.186 123.619 109.54 124.241 114.162C124.33 114.428 124.241 114.784 123.974 115.05Z" fill="#3DF9D3"/>
<path d="M110.822 72.3036C108.867 70.3484 106.201 69.1043 103.446 68.8377C103.09 68.8377 102.735 68.7488 102.29 68.7488C102.024 68.7488 101.846 68.7488 101.579 68.7488C100.957 68.7488 100.335 68.8377 99.713 69.0154C97.4913 69.4598 95.4473 70.6151 93.8476 72.2147C91.6259 74.4365 90.2928 77.547 90.2928 80.6574C90.2928 83.7679 91.537 86.8784 93.8476 89.1001C95.4473 90.6998 97.4913 91.8551 99.713 92.2995C100.335 92.4772 100.957 92.5661 101.579 92.5661C101.846 92.5661 102.024 92.5661 102.29 92.5661C102.646 92.5661 103.09 92.5661 103.446 92.4772C106.201 92.2106 108.867 90.9664 110.822 89.0113C113.044 86.7895 114.377 83.6791 114.377 80.5686C114.377 77.4581 113.044 74.5254 110.822 72.3036ZM87.8933 111.407C87.1824 111.407 86.5602 110.962 86.2936 110.34L85.5827 108.474C85.3161 107.852 85.4939 107.052 86.0271 106.608C86.116 106.341 86.1159 106.163 86.1159 105.897L84.9606 104.83L84.2497 104.119C83.9831 104.119 83.8053 104.208 83.5387 104.297C83.4498 104.475 83.2721 104.564 83.0943 104.652C82.65 104.919 82.2056 105.008 81.6724 104.83L81.2281 104.741L79.8061 104.297C79.0952 104.119 78.6508 103.497 78.6508 102.786C78.473 102.608 78.3842 102.431 78.1176 102.253L75.5403 102.697C75.4515 102.875 75.3625 103.142 75.2737 103.319C75.4514 104.03 75.1849 104.741 74.5628 105.097L72.9631 106.252C72.341 106.696 71.63 106.696 71.0079 106.252C70.7413 106.252 70.4747 106.252 70.2969 106.252L69.4971 107.674L69.0527 108.474C69.1416 108.652 69.2305 108.918 69.4082 109.096C69.6748 109.185 69.9415 109.451 70.1192 109.718C70.297 109.985 70.3858 110.34 70.3858 110.696L70.2081 112.651C70.1192 113.362 69.6748 113.984 68.9639 114.162C68.7861 114.339 68.6973 114.517 68.5195 114.784L69.4971 117.183C69.7637 117.272 69.9415 117.272 70.2081 117.361C70.8302 117.005 71.63 117.183 72.0744 117.628L72.7854 118.339L73.4963 118.961C74.0295 119.405 74.2072 120.205 73.9406 120.827C73.9406 121.094 74.0295 121.271 74.1184 121.538L75.718 121.982L76.6067 122.249C76.6956 122.16 76.8734 122.071 76.9622 121.982C77.0511 121.893 77.0512 121.893 77.14 121.804C77.3178 121.094 77.851 120.56 78.5619 120.471L80.517 120.205C81.228 120.116 81.939 120.471 82.2056 121.005C82.3833 121.094 82.65 121.182 82.9166 121.271L85.0494 119.76C85.0494 119.494 85.0494 119.316 85.0494 119.05C84.7828 118.783 84.694 118.339 84.694 117.983C84.694 117.716 84.7829 117.45 84.8717 117.183L85.4049 116.294L85.8493 115.495C85.9381 115.317 86.0271 115.228 86.1159 115.139C86.4714 114.784 87.0046 114.606 87.5378 114.695C87.7156 114.606 87.9821 114.517 88.1599 114.339L88.3377 111.762C88.3377 111.673 88.16 111.495 87.8933 111.407ZM76.7845 111.051C77.2289 110.607 77.762 110.34 78.3841 110.34C78.7396 110.34 79.0952 110.429 79.4506 110.607C79.895 110.873 80.3393 111.318 80.4282 111.851C80.6059 112.384 80.5171 113.006 80.2505 113.451C79.9839 113.895 79.5395 114.339 79.0063 114.428C78.4731 114.606 77.9398 114.517 77.4066 114.25C76.8734 113.984 76.5179 113.362 76.3402 112.829C76.2513 112.206 76.3402 111.496 76.7845 111.051ZM124.241 114.073C123.619 109.451 121.575 105.097 118.376 101.631C114.732 98.076 109.667 96.2098 103.357 96.1209C103.001 96.1209 102.646 96.1209 102.29 96.1209C102.024 96.1209 101.757 96.1209 101.49 96.1209C100.868 96.1209 100.246 96.1209 99.6242 96.2098C94.0254 96.5653 89.5818 98.3427 86.2936 101.453L88.8709 103.853C89.2264 104.119 89.4041 104.564 89.4041 105.008C89.493 106.074 89.3152 107.052 88.9597 108.03L89.0486 108.118C90.0262 108.563 90.8261 109.185 91.4482 109.985C91.7148 110.34 91.8925 110.785 91.8037 111.229L91.537 115.317H123.086C123.442 115.317 123.708 115.139 123.975 114.961C124.241 114.784 124.33 114.428 124.241 114.073Z" fill="#3DF9D3"/>
</svg>
