<svg width="60" height="65" viewBox="0 0 126 138" fill="none" xmlns="http://www.w3.org/2000/svg">
<path fill-rule="evenodd" clip-rule="evenodd" d="M6.04324 15.2667H55.544L50.834 19.0881L39.6363 22.1097C36.7925 22.9095 34.8372 24.4203 34.2151 27.4419L27.1055 29.3082C25.2392 29.8414 24.0839 30.819 23.0175 32.4187C20.4402 33.1296 18.4851 33.4851 17.0632 36.0624C16.1745 37.5732 15.9078 39.3506 16.3522 41.128L18.8406 50.3705C19.285 52.1479 20.4403 53.5698 21.9511 54.4585C23.4619 55.3472 25.2392 55.6139 27.0166 55.1695L28.9719 54.6363C30.4827 55.525 32.3489 55.7916 34.0374 55.2584L41.1471 53.3032C42.0358 54.3697 43.28 55.0806 44.613 55.4361L46.3905 62.1014C49.7675 74.721 68.8747 69.2999 65.4976 56.9469L64.4311 53.0366L92.3364 57.569C97.1355 58.3688 101.046 53.9253 99.8904 49.3041L97.8465 41.5723L99.4461 42.5499C107.089 46.9934 113.843 35.3514 106.111 30.9079L103.623 29.4859C110.199 26.3755 107.178 16.5997 100.246 16.8663L101.135 15.2667H119.62C122.908 15.2667 125.485 17.9328 125.485 21.1321V94.1837C125.485 97.4719 122.819 100.049 119.62 100.049H83.4494L78.7393 122.356H124.419C125.041 122.356 125.485 122.889 125.485 123.422V136.93C125.485 137.552 124.952 137.997 124.419 137.997H1.06651C0.444417 137.997 0 137.464 0 136.93V123.422C0 122.8 0.533288 122.356 1.06651 122.356H46.746L42.0358 100.049H6.04324C2.75503 100.049 0.177806 97.383 0.177806 94.1837V21.1321C0.0889356 17.8439 2.75503 15.1778 6.04324 15.2667ZM40.1695 26.4643L52.7891 23.0873L79.0947 1.5806C80.4278 0.425286 82.4718 1.04738 82.9162 2.73592L95.7136 50.3705C96.1579 52.059 94.736 53.5698 93.0475 53.3032L59.4544 47.7933L58.6545 47.971L61.3206 58.0134C62.1205 61.035 60.2542 63.9677 57.3215 64.7675C54.3887 65.5674 51.3671 63.79 50.6562 60.8572L47.9901 50.8148L46.9237 51.0815C45.6795 51.437 44.3464 50.6371 43.9909 49.3929L43.6355 48.0599L32.971 50.9037C31.9046 51.1703 30.6603 50.6371 30.216 49.6595L25.9502 50.8148C24.7061 51.1703 23.3729 50.3705 23.1063 49.1263L20.618 39.9727C20.2625 38.7285 21.0624 37.3954 22.3066 37.0399L26.5723 35.8846C26.4834 34.7293 27.1944 33.6629 28.3497 33.3962L39.0142 30.5524L38.6587 29.2193C38.2143 28.064 38.9253 26.7309 40.1695 26.4643ZM42.3913 43.6164L40.1695 35.2625L31.8157 37.4843L34.0374 45.8381L42.3913 43.6164ZM104.067 34.6404C106.734 36.1512 104.423 40.2393 101.668 38.7285L94.6471 34.7293C91.9809 33.2185 94.2916 29.1305 97.0466 30.6413L104.067 34.6404ZM94.025 19.177C92.5142 21.8431 88.4262 19.5324 89.937 16.7775L93.9362 9.7567C95.447 7.09058 99.535 9.40121 98.0242 12.1562L94.025 19.177ZM93.403 27.8863C90.3814 28.6861 89.226 24.1537 92.1588 23.3539L99.9793 21.221C102.734 20.51 104.689 24.7758 101.223 25.7534L93.403 27.8863ZM56.4328 26.1977L61.0541 43.2609L90.2925 48.0599L79.4502 7.44606L56.4328 26.1977ZM52.0782 28.1529L43.7243 30.3746L47.9012 46.0158L56.2551 43.7941L52.0782 28.1529Z" fill="#3DF9D3"/>
</svg>
