<svg width="60" height="65" viewBox="0 0 127 127" fill="none" xmlns="http://www.w3.org/2000/svg">
<path d="M63.0092 0.473633C28.2608 0.473633 0 28.7344 0 63.4828C0 98.2311 28.2608 126.492 63.0092 126.492C97.7575 126.492 126.018 98.2311 126.018 63.4828C126.018 28.7344 97.7575 0.473633 63.0092 0.473633ZM63.2758 11.0492C66.564 11.0492 69.1412 13.6264 69.1412 16.8258C69.1412 19.2253 67.6304 21.2693 65.4975 22.158V31.9338H61.054V22.158C58.8322 21.3582 57.3215 19.2253 57.3215 16.8258C57.4103 13.6264 59.9876 11.0492 63.2758 11.0492ZM27.2832 88.0111C26.8389 89.5219 25.8613 90.766 24.5283 91.5659C23.6396 92.0991 22.5731 92.3657 21.5955 92.3657C19.5515 92.3657 17.5964 91.2992 16.5299 89.5218C15.7301 88.1888 15.5523 86.678 15.9078 85.1672C16.3522 83.6564 17.3297 82.4122 18.6628 81.6124C20.7068 80.4571 23.1952 80.6348 25.0615 81.9678L33.9485 76.2801L36.348 80.0127L27.3721 85.7004C27.5498 86.4114 27.5498 87.2112 27.2832 88.0111ZM34.2151 50.2411L25.3281 44.5534C24.2616 45.3532 23.0175 45.7087 21.7733 45.7087C20.7957 45.7087 19.7292 45.4421 18.8405 44.9089C17.5075 44.109 16.5299 42.8648 16.0856 41.3541C15.7301 39.8433 15.9078 38.3324 16.7076 36.9994C18.3073 34.2444 21.951 33.2668 24.706 34.8665C26.039 35.6663 27.0166 36.9105 27.461 38.4213C27.6387 39.2211 27.7276 39.9321 27.5498 40.7319L36.5258 46.5085L34.2151 50.2411ZM62.8314 115.827C59.5432 115.827 56.966 113.25 56.966 110.051C56.966 107.651 58.4768 105.607 60.6096 104.719V94.9429H65.0532V104.719C67.2749 105.607 68.7857 107.651 68.7857 110.051C68.6969 113.25 66.1196 115.827 62.8314 115.827ZM87.2708 69.2594C86.7376 69.7926 86.0266 70.1481 85.2268 70.1481L81.2276 70.237C81.2276 70.3258 81.1387 70.4147 81.1387 70.4147C81.0499 70.5035 81.0499 70.6813 80.961 70.7702L83.716 73.4363C84.7824 74.4138 84.8713 76.1024 83.9826 77.3466C83.9826 77.4355 83.8937 77.4354 83.8937 77.5243L77.8505 83.6564C76.7841 84.7228 75.0067 84.8117 73.8514 83.7452L71.0964 81.0791C71.0075 81.168 70.8298 81.168 70.7409 81.2569L70.5632 81.3458L70.652 85.1672C70.652 85.8782 70.3854 86.5003 69.941 87.1223C69.4078 87.6556 68.6969 88.0111 67.897 88.0111L59.1877 88.0999H59.0989C58.4768 88.0999 57.7658 87.8333 57.2326 87.3889C56.6994 86.8557 56.3439 86.1448 56.3439 85.4338L56.255 81.6124C56.1661 81.5235 55.9884 81.5235 55.8995 81.4346C55.8107 81.4346 55.7218 81.3458 55.6329 81.3458L52.8779 84.1007C51.8115 85.1672 50.0341 85.256 48.8788 84.1896L42.6578 78.2353C42.1246 77.7021 41.7691 76.9911 41.7691 76.2801C41.7691 75.5692 42.0357 74.8582 42.569 74.2361L45.2351 71.57C45.1462 71.4811 45.1462 71.3034 45.0573 71.2145L44.9685 71.0368L41.0581 71.1257C40.4361 71.1257 39.6362 70.859 39.103 70.4147C38.5698 69.8814 38.2143 69.1705 38.2143 68.4595L38.1254 59.9279C38.1254 59.217 38.392 58.5949 38.8364 57.9728C39.3696 57.4396 40.0806 57.0841 40.8804 57.0841L44.7907 56.9952C44.8796 56.9064 44.8796 56.7286 44.9685 56.6397C44.9685 56.5509 45.0573 56.5509 45.0573 56.462L42.3024 53.7959C41.7691 53.2627 41.4136 52.5517 41.5025 51.8408C41.5025 51.0409 41.858 50.4188 42.3912 49.8856L48.4344 43.8424C49.5009 42.776 51.2783 42.6871 52.4336 43.7535L55.1886 46.4196C55.2774 46.3308 55.4552 46.3308 55.544 46.2419L55.7218 46.153L55.6329 42.3316C55.6329 41.6206 55.8995 40.9985 56.3439 40.3764C56.8771 39.8432 57.5881 39.4877 58.3879 39.4877L67.0972 39.3989C67.7193 39.3989 68.5191 39.6655 69.0523 40.1098C69.5856 40.6431 69.941 41.354 69.941 42.065L70.0299 45.8864C70.1188 45.8864 70.2077 45.9753 70.2077 45.9753C70.3854 46.0641 70.4743 46.0642 70.5632 46.153L73.3181 43.3981C74.4735 42.3316 76.162 42.2427 77.3173 43.3092L83.5382 49.2635C84.0715 49.7967 84.427 50.5077 84.427 51.2187C84.427 51.9296 84.1603 52.6406 83.6271 53.2627L80.961 55.9288C81.0499 56.0177 81.0499 56.1954 81.1387 56.2843L81.2276 56.462L85.1379 56.3731C85.76 56.3731 86.5598 56.6397 87.0931 57.0841C87.6263 57.6173 87.9818 58.3283 87.9818 59.0392L88.0706 67.4819C88.0706 68.0152 87.804 68.7261 87.2708 69.2594ZM109.311 89.7885C108.244 91.6547 106.2 92.6323 104.245 92.6323C103.267 92.6323 102.29 92.3657 101.312 91.8325C99.9793 91.0326 99.0017 89.7885 98.5574 88.2777C98.3796 87.4778 98.2907 86.7668 98.4685 85.967L89.4926 80.1904L91.8921 76.4579L100.779 82.1456C102.645 80.8125 105.134 80.5459 107.267 81.7901C108.6 82.59 109.577 83.8341 110.022 85.3449C110.377 86.9446 110.111 88.4554 109.311 89.7885ZM107.444 45.3532C106.556 45.8864 105.489 46.153 104.512 46.153C103.268 46.153 102.112 45.7975 101.046 45.0866L92.1587 50.7743L89.7592 47.0417L98.7351 41.3541C98.5574 40.5542 98.6462 39.7544 98.824 38.9545C99.2683 37.4437 100.246 36.1996 101.579 35.3997C104.423 33.8001 107.978 34.7776 109.577 37.5326C110.377 38.8656 110.555 40.3765 110.199 41.8873C109.755 43.3092 108.777 44.5534 107.444 45.3532Z" fill="#3DF9D3"/>
<path d="M63.2767 55.5732H63.1879C60.6995 55.5732 58.3888 56.5508 56.6114 58.3282C54.9229 60.0167 53.9453 62.3274 53.9453 64.8157C53.9453 67.3041 54.9229 69.5259 56.7003 71.2144C58.3888 72.903 60.6995 73.7917 63.1879 73.7917H63.2767C65.7651 73.7917 68.0757 72.8141 69.8531 71.0367C71.5417 69.3481 72.4304 67.0375 72.5193 64.5491C72.5193 62.0608 71.4528 59.839 69.7643 58.1505C67.9869 56.5508 65.7651 55.5732 63.2767 55.5732ZM68.1646 69.3482C66.9204 70.5924 65.143 71.3033 63.3656 71.3922H63.2767C61.4993 71.3922 59.7219 70.6812 58.4777 69.5259C57.1447 68.2817 56.4337 66.5931 56.4337 64.8157C56.4337 63.0383 57.0558 61.3498 58.3888 60.1056C59.633 58.8614 61.4105 58.1505 63.1879 58.1505H63.2767C65.143 58.1505 66.8316 58.8615 68.0757 60.0168C69.3199 61.261 70.1198 62.9495 70.1198 64.7269C70.1198 66.4154 69.4088 68.104 68.1646 69.3482Z" fill="#3DF9D3"/>
</svg>
