<svg width="360" height="722" viewBox="0 0 360 722" fill="none" xmlns="http://www.w3.org/2000/svg">
<mask id="mask0_452_199" style="mask-type:alpha" maskUnits="userSpaceOnUse" x="0" y="0" width="360" height="722">
<path d="M0 0H360V722H0V0Z" fill="#C4C4C4"/>
</mask>
<g mask="url(#mask0_452_199)">
<path d="M-95.511 -106.031C-95.511 -106.031 19.8486 -133.185 156.972 -36.5265C294.095 60.1315 157.717 171.249 351.273 218.972C544.829 266.694 519.629 360.25 690.339 345.116C861.05 329.982 887.986 427.043 838.346 480.528C788.706 534.013 3.84711 434.177 -160.461 439.659C-324.768 445.141 -430.071 132.509 -427.784 94.5441C-425.498 56.5786 -333.626 -198.007 -324.771 -199.197C-315.917 -200.387 -95.511 -106.031 -95.511 -106.031Z" fill="#E2FFF9"/>
<path d="M-157.828 -77.055C-157.828 -77.055 -4.37567 -131.773 134.443 -18.7692C273.261 94.2339 121.428 199.105 294.192 302.465C482.075 389.182 483.798 510.697 660.478 498.971C837.158 487.245 1198.95 837.984 753.077 685.542C307.202 533.101 -157.828 875.276 -340.834 544.886C-494.474 237.814 -510.038 180.935 -506.596 138.292C-503.155 95.6486 -401.049 -187.926 -391.87 -188.993C-382.69 -190.059 -157.828 -77.055 -157.828 -77.055Z" fill="#C2F7ED"/>
<path d="M203.269 356.493C174.825 352.385 151.212 323.777 149.931 297.283C149.021 278.45 160.09 275.097 178.026 234.437C196.544 192.456 191.763 180.118 204.235 173.092C229.095 159.089 287.931 185.65 302.789 231.418C318.671 280.338 276.722 327.836 244.671 346.06C235.837 351.085 221.289 359.096 203.269 356.493Z" fill="#9AEDDD"/>
<path d="M210.289 352.891C181.845 348.783 158.231 320.175 156.951 293.681C156.04 274.849 167.11 271.495 185.045 230.835C203.563 188.855 198.783 176.516 211.254 169.49C236.114 155.488 294.95 182.049 309.808 227.817C325.69 276.737 283.742 324.234 251.69 342.459C242.857 347.483 228.309 355.494 210.289 352.891Z" stroke="#60D8C1" stroke-miterlimit="10"/>
<path d="M102.351 244.234C102.168 242.524 102.211 240.87 101.914 239.238C101.843 238.848 101.741 238.449 102.099 238.137C102.374 237.897 102.146 237.664 102.091 237.443C101.679 235.803 101.836 234.185 102.012 232.514C102.512 227.78 104.76 223.67 106.503 219.384C106.67 218.998 106.921 218.655 107.238 218.379C107.554 218.103 107.929 217.901 108.334 217.788C108.739 217.675 109.165 217.653 109.579 217.725C109.993 217.797 110.387 217.96 110.73 218.203C112.794 219.557 113.294 221.628 112.916 223.842C112.39 226.921 112.139 230.053 111.275 233.07C111.207 233.267 111.188 233.477 111.217 233.683C111.246 233.889 111.324 234.086 111.443 234.256C111.746 234.686 111.923 235.191 111.956 235.715C111.989 236.24 111.875 236.763 111.628 237.227C111.562 237.364 111.537 237.517 111.557 237.668C111.576 237.819 111.639 237.961 111.738 238.077C112.143 238.781 112.562 239.476 113.019 240.248C113.283 239.406 113.765 238.701 113.434 237.788C113.24 237.253 113.469 236.679 113.58 236.126C113.696 235.552 114.154 235.004 113.699 234.368C113.568 234.187 113.756 233.945 113.853 233.739C115.204 230.866 116.535 227.984 117.906 225.121C118.302 224.276 118.886 223.532 119.614 222.947C120.507 222.239 121.497 221.854 122.6 222.325C123.779 222.829 124.297 223.853 124.396 225.079C124.449 225.64 124.422 226.206 124.316 226.76C123.793 229.252 123.659 231.772 123.528 234.307C123.505 235.076 123.595 235.845 123.794 236.588C123.912 237.141 123.909 237.712 123.787 238.264C123.664 238.815 123.424 239.334 123.083 239.785C122.906 240.047 122.725 240.269 122.832 240.611C123.695 243.387 123.415 246.182 122.882 248.957C122.704 249.874 122.862 250.521 123.642 251.044C123.97 250.431 123.788 249.779 123.805 249.15C123.783 248.087 123.916 247.026 124.2 246C124.443 245.137 124.476 244.227 124.296 243.348C124.082 242.127 124.236 240.87 124.739 239.736C125.577 237.606 126.692 235.647 128.805 234.415C130.854 233.219 133.003 233.843 133.315 236.4C133.345 236.645 133.421 236.883 133.513 237.276C134.616 233.371 137.879 232.636 141.021 232.191C144.211 231.757 147.434 231.625 150.649 231.797C153.85 231.951 157.034 232.214 160.083 233.253C161.098 233.599 162.028 233.291 162.995 233.27C165.679 233.209 168.28 233.765 170.872 234.344C173.959 235.033 177.052 235.717 179.968 236.994C181.011 237.45 181.983 238.035 183.144 238.269C183.966 238.435 184.276 239.384 184.746 240.036C185.056 240.465 185.165 241.188 185.555 241.368C185.93 241.541 186.544 241.139 187.065 241.068C189.181 240.775 191.141 241.408 193.078 242.137C198.229 244.079 203.378 246.024 208.526 247.972C212.463 249.453 216.416 250.893 220.335 252.422C221.027 252.691 221.136 252.414 221.324 251.929C222.402 249.048 223.834 246.312 225.588 243.783C226.274 242.781 227.117 241.897 228.085 241.162C229.984 239.763 231.911 240.161 233.097 242.189C233.777 243.426 234.239 244.77 234.461 246.163C235.189 250.006 235.172 253.884 234.963 257.767C234.584 264.355 233.624 270.896 232.094 277.316C230.357 284.754 228.238 292.073 224.601 298.856C223.63 300.667 222.529 302.398 220.993 303.806C220.643 304.133 220.262 304.426 219.857 304.683C218.252 305.679 216.654 305.368 215.565 303.825C214.358 302.115 213.999 300.113 213.702 298.104C213.235 294.944 213.252 291.763 213.382 288.582C213.419 288.382 213.39 288.175 213.299 287.992C213.209 287.809 213.061 287.66 212.88 287.567C202.467 281.143 192.061 274.708 181.663 268.262C181.163 267.953 180.677 267.614 180.154 267.348C178.526 266.52 177.496 265.13 176.613 263.614C176.527 263.46 176.405 263.329 176.256 263.232C176.108 263.136 175.939 263.076 175.763 263.059C173.484 262.575 171.268 263.132 169.048 263.461C156.69 265.292 144.335 267.145 131.984 269.021C131.478 269.081 130.966 269.019 130.488 268.842C128.873 268.322 127.215 268.264 125.542 268.245C124.549 268.237 123.57 268.01 122.674 267.581C122.19 267.38 121.76 267.067 121.419 266.669C121.079 266.271 120.838 265.798 120.715 265.289C120.587 264.74 120.34 264.489 119.707 264.639C118.033 265.035 116.601 264.371 115.262 263.473C115.094 263.334 114.891 263.242 114.676 263.206C114.46 263.171 114.239 263.193 114.034 263.27C112.347 263.838 110.709 263.472 109.194 262.716C106.909 261.578 104.602 260.576 102.031 260.284C101.412 260.213 100.824 259.937 101.232 259.099C101.369 258.819 101.129 258.75 100.992 258.643C100.106 257.949 99.2119 257.265 98.3198 256.579C98.2317 256.512 98.1234 256.381 98.0509 256.397C96.8814 256.655 96.2131 255.816 95.49 255.191C93.259 253.32 91.2989 251.15 89.6658 248.742C88.9952 247.771 88.5639 246.657 88.4072 245.489C88.3533 245.056 88.2007 244.641 87.9613 244.276C87.7218 243.912 87.4018 243.606 87.0257 243.383C85.0604 242.385 83.7809 240.781 82.6753 239C81.1741 236.611 79.9508 234.06 79.0292 231.396C78.6076 230.156 78.7397 229.023 79.6329 228.102C80.4877 227.222 81.6199 227.261 82.7315 227.578C84.9727 228.215 86.8759 229.49 88.6484 230.923C90.3478 232.363 91.96 233.903 93.4764 235.534C93.7353 235.8 94.0166 236.065 93.8809 236.485C93.8003 236.736 93.9317 236.823 94.1135 236.941C94.7634 237.394 95.3168 237.97 95.7418 238.637C95.8063 238.762 95.8967 238.871 96.0071 238.958C98.3677 240.257 100.013 242.397 102.062 244.062C102.155 244.124 102.252 244.182 102.351 244.234Z" fill="#202222"/>
<path d="M103.153 157.266C113.921 159.281 122.867 164.579 130.303 172.473C138.981 181.687 144.071 192.67 146.1 205.1C146.186 205.629 146.238 205.858 146.871 205.632C147.564 205.4 148.283 205.254 149.012 205.199C151.036 205.009 152.228 206.291 151.942 208.301C151.734 209.769 151.062 211.08 150.519 212.434C149.086 216.005 147.143 219.35 144.752 222.367C144.024 223.299 143.218 224.167 142.341 224.961C141.198 225.985 140.228 226.115 138.867 225.35C137.888 224.8 136.942 224.194 136.278 223.241C134.07 220.066 131.882 216.88 130.408 213.278C129.864 211.949 129.411 210.599 129.44 209.128C129.473 207.437 130.581 206.47 132.26 206.721C132.428 206.747 132.594 206.782 132.761 206.812C134.288 207.091 134.312 207.095 134.503 205.515C134.823 202.855 134.221 200.297 133.356 197.835C130.751 190.286 126.97 183.194 122.153 176.819C118.171 171.509 113.023 167.179 107.104 164.161C102.73 161.94 98.0478 160.935 93.1761 160.635C90.6744 160.483 88.1654 160.492 85.665 160.664C84.9153 160.715 83.9056 160.771 83.651 159.818C83.3964 158.866 84.3126 158.492 84.9749 158.087C86.7002 157.033 88.695 157.066 90.5982 156.826C94.7794 156.291 99.0201 156.44 103.153 157.266Z" fill="#202222"/>
<path d="M49.5746 214.458C49.1275 214.439 48.74 214.104 48.3363 213.661C47.7007 212.946 47.1157 212.187 46.5854 211.391C45.6394 210.014 45.9782 208.512 46.6291 207.139C48.3338 203.546 50.9866 200.867 54.6871 199.312C56.2053 198.675 57.899 198.296 59.1973 199.564C61.2866 201.605 62.5434 202.664 60.9375 205.949C59.1561 209.589 56.548 212.341 52.8149 213.97C51.8489 214.388 50.835 214.773 49.5746 214.458Z" fill="#202222"/>
<path d="M153.712 164.146C152.772 168.113 151.04 171.851 148.618 175.136C148.309 175.535 147.957 175.899 147.567 176.22C146.755 176.934 145.898 177.137 144.865 176.574C144.236 176.231 143.553 175.961 142.888 175.681C141.454 175.076 141.011 173.91 141.178 172.559C141.801 167.506 143.877 163.133 147.659 159.658C148.843 158.57 149.939 158.241 151.294 159.239C151.573 159.423 151.867 159.582 152.174 159.715C154.159 160.697 153.919 161.124 153.884 163.148C153.853 163.484 153.795 163.818 153.712 164.146Z" fill="#202222"/>
<path d="M50.9585 169.484C51.7256 165.275 54.2143 162.655 58.0121 162.061C59.1788 161.888 60.3693 161.967 61.5027 162.293C62.636 162.619 63.6856 163.185 64.5801 163.952C65.4745 164.719 66.1929 165.669 66.6863 166.738C67.1798 167.806 67.4367 168.968 67.4396 170.144C67.4474 172.21 67.2478 174.174 66.1287 175.941C65.2181 177.443 63.8479 178.613 62.2198 179.28C60.5918 179.946 58.7922 180.073 57.0863 179.642C55.2943 179.165 53.7062 178.12 52.5614 176.664C51.4165 175.209 50.7767 173.422 50.7383 171.573C50.7505 170.871 50.8242 170.173 50.9585 169.484Z" fill="#202222"/>
<path d="M83.2955 210.004C81.8277 209.11 80.5195 207.978 79.4245 206.655C76.0385 202.918 74.1256 198.083 74.0403 193.046C73.8929 186.929 76.045 181.654 80.3865 177.324C83.7434 173.964 88.1388 171.831 92.8617 171.271C92.9177 171.276 92.9722 171.291 93.0222 171.316C95.4016 171.191 97.7715 171.147 100.125 171.65C100.841 171.804 101.496 172.158 102.234 172.221C102.473 172.241 102.707 172.362 102.655 172.63C102.611 172.852 102.353 172.846 102.157 172.843C101.905 172.825 101.654 172.791 101.407 172.739C99.2649 172.148 97.0424 171.898 94.8221 172C92.0281 172.067 89.2799 172.723 86.758 173.924C86.2985 173.996 85.8691 174.197 85.5207 174.504C82.0518 176.397 79.2245 179.274 77.397 182.771C74.693 188.029 74.0911 193.526 76.0702 199.195C76.1181 199.327 76.1569 199.462 76.1864 199.6C76.2149 199.963 76.3285 200.315 76.5181 200.627C78.1336 204.023 80.3113 206.961 83.4542 209.118C83.7596 209.326 84.0192 209.593 84.217 209.905C84.4195 210.309 84.3349 210.516 83.8665 210.335C83.6631 210.249 83.4713 210.138 83.2955 210.004Z" fill="#282725"/>
<path d="M91.3938 146.092C91.7784 144.35 92.3303 143.885 94.0662 144.023C98.0306 144.308 101.834 145.701 105.043 148.041C106.605 149.174 106.803 150.39 105.848 152.055C105.718 152.282 105.497 152.293 105.285 152.37C103.461 153.027 101.616 152.779 99.8062 152.397C97.552 151.926 95.4106 151.024 93.5005 149.741C92.967 149.384 92.4816 148.96 92.0561 148.48C91.3942 147.734 91.0213 146.949 91.3938 146.092Z" fill="#202222"/>
<path d="M79.2616 154.981C78.572 158.094 77.2168 160.807 74.4879 162.654C73.7308 163.167 72.9253 163.348 72.0652 162.784C70.9568 162.059 69.5831 161.651 69.1531 160.169C68.9105 159.244 68.8861 158.276 69.0821 157.339C69.5082 154.654 70.7878 152.176 72.7325 150.271C74.3349 148.719 75.5398 148.685 77.5293 149.625C79.6779 150.639 79.6487 152.349 79.3937 154.233C79.3618 154.484 79.3071 154.732 79.2616 154.981Z" fill="#222322"/>
<path d="M64.8487 224.221C61.129 223.726 58.2709 219.763 59.1274 215.835C59.9364 212.125 63.323 209.552 67.3588 210.277C68.2769 210.441 69.1536 210.784 69.9388 211.286C70.724 211.789 71.4023 212.44 71.935 213.204C72.4676 213.968 72.8443 214.828 73.0434 215.737C73.2425 216.646 73.2601 217.585 73.0953 218.501C72.9305 219.416 72.5864 220.291 72.0828 221.074C71.5792 221.857 70.9258 222.533 70.16 223.064C69.3943 223.596 68.5311 223.971 67.6198 224.17C66.7084 224.368 65.7668 224.386 64.8487 224.221Z" fill="#202222"/>
<path d="M83.2969 210.004C83.4744 210.068 83.652 210.138 83.8321 210.193C83.9351 210.225 84.0615 210.412 84.1432 210.198C84.1719 210.123 84.0796 210.002 84.0427 209.902C84.5161 209.754 84.8623 210.059 85.2111 210.269C88.387 212.116 92.0005 213.082 95.677 213.068C99.3536 213.053 102.959 212.058 106.12 210.186C110.24 207.773 113.11 204.298 114.957 199.942C115.033 199.76 115.126 199.585 115.232 199.419C115.473 199.177 115.419 198.704 115.858 198.615C115.897 198.64 115.93 198.673 115.956 198.711C115.981 198.749 115.998 198.792 116.006 198.838C115.592 200.359 114.995 201.826 114.23 203.206C113.834 204.022 113.341 204.787 112.761 205.485C112.435 205.809 112.213 206.216 111.896 206.548C107.7 211.251 102.459 213.725 96.1336 213.892C91.8816 214.003 87.6911 212.862 84.0867 210.61C83.7735 210.483 83.5006 210.273 83.2969 210.004Z" fill="#292825"/>
<path d="M114.234 203.207C114.682 202.095 115.108 200.973 115.589 199.876C115.732 199.481 115.839 199.074 115.909 198.66C116.296 197.6 116.341 196.47 116.59 195.381C116.661 195.065 116.669 194.735 116.721 194.612C116.445 195.829 116.35 197.281 115.908 198.66C115.558 198.801 115.774 199.29 115.429 199.435C115.35 199.317 115.303 199.182 115.291 199.041C115.279 198.9 115.303 198.759 115.361 198.63C115.807 197.006 116.123 195.35 116.308 193.677C116.978 192.989 116.532 192.052 116.842 191.282C116.748 191.423 116.81 191.624 116.668 191.749C116.1 191.643 116.221 191.16 116.206 190.815C116.079 188.069 115.18 185.546 114.015 183.094C113.858 182.763 113.627 182.476 113.458 182.153C111.748 179.069 109.171 176.551 106.045 174.908C104.838 173.999 103.426 173.53 102.025 173.034C101.73 172.929 101.323 172.944 101.274 172.489L102.503 172.71L102.57 172.47C101.777 172.233 100.991 171.964 100.187 171.766C98.1315 171.258 96.0352 171.331 93.9438 171.411C93.6361 171.42 93.3287 171.388 93.0293 171.317C94.8013 170.968 96.6231 170.955 98.4 171.277C105.349 172.304 110.697 175.82 114.284 181.858C116.355 185.339 117.35 189.352 117.143 193.395C117.029 196.635 116.166 199.805 114.619 202.657C114.501 202.847 114.373 203.031 114.234 203.207Z" fill="#2A2927"/>
<path d="M111.898 206.546C112.035 206.092 112.346 205.71 112.763 205.483C112.601 205.923 112.297 206.297 111.898 206.546Z" fill="#6E6F6F"/>
<path d="M225.596 294.057C214.642 287.279 203.737 280.531 192.883 273.812C188.653 271.192 184.43 268.562 180.213 265.923C179.255 265.272 178.447 264.424 177.842 263.438C177.487 262.916 177.759 262.676 178.222 262.704C180.288 262.827 181.89 261.837 183.265 260.512C186.938 256.976 188.731 252.654 188.323 247.533C188.183 245.788 187.612 244.184 186.115 243.06C185.718 242.761 185.902 242.57 186.299 242.447C187.522 242.074 188.829 242.074 190.052 242.447C193.095 243.318 196.014 244.537 198.974 245.637C205.935 248.222 212.875 250.849 219.826 253.456C224.257 255.119 228.691 256.775 233.127 258.424C233.226 258.445 233.32 258.485 233.403 258.543C233.486 258.6 233.556 258.674 233.61 258.76C233.663 258.845 233.699 258.941 233.714 259.041C233.729 259.14 233.724 259.242 233.698 259.34C233.469 262.29 233.134 265.226 232.675 268.149C231.715 274.416 230.273 280.6 228.363 286.646C227.571 289.163 226.648 291.637 225.596 294.057Z" fill="white"/>
<path d="M132.213 244.24C133.424 244.538 134.669 244.685 135.917 244.677C139.854 244.722 143.623 243.889 147.326 242.61C150.911 241.373 154.514 241.123 157.956 243.06C159.868 244.136 161.161 245.725 161.233 248.048C161.304 250.327 159.569 252.697 157.372 253.292C152.823 254.525 148.392 256.123 143.922 257.602C143.732 257.702 143.511 257.73 143.301 257.68C143.091 257.63 142.906 257.506 142.781 257.331C140.879 255.281 138.607 254.121 135.695 254.663C134.797 254.829 133.568 253.525 133.773 252.637C133.899 252.002 133.897 251.347 133.767 250.713C133.492 249.052 133.176 247.398 132.895 245.738C132.81 245.237 132.47 244.854 132.213 244.24Z" fill="#75C7B9"/>
<path d="M134.316 267.282C136.716 264.838 139.902 263.314 143.315 262.977C147.917 262.489 152.312 261.136 156.688 259.723C161.199 258.266 165.69 256.743 170.391 256.004C172.391 255.69 174.372 255.262 176.417 255.197C177.467 255.163 178.089 255.703 178.773 256.28C178.993 256.465 178.877 256.605 178.761 256.78C177.725 258.429 176.43 259.901 174.926 261.141C174.318 261.621 173.651 261.61 172.963 261.707C170.089 262.115 167.22 262.554 164.349 262.985C154.733 264.427 145.117 265.867 135.501 267.306C135.119 267.363 134.722 267.515 134.316 267.282Z" fill="#75C7B9"/>
<path d="M162.595 235.458C162.025 235.524 161.46 235.622 160.901 235.751C158.763 236.382 156.685 237.199 154.69 238.192C150.677 240.146 146.569 241.867 142.215 242.918C140.989 243.213 139.68 243.503 138.457 243.369C137.471 243.263 136.555 242.505 135.718 241.862C135.345 241.58 135.041 241.217 134.829 240.8C134.617 240.384 134.503 239.925 134.495 239.458C134.373 236.891 135.329 235.452 137.643 234.328C139.777 233.291 142.052 233.259 144.324 233.098C148.56 232.798 152.784 232.834 156.977 233.596C158.914 234.003 160.799 234.628 162.595 235.458Z" fill="#75C7B9"/>
<path d="M159.68 242.78C160.937 242.149 162.225 241.582 163.54 241.08C163.749 240.997 163.98 240.986 164.196 241.051C166.163 241.558 168.042 242.357 169.771 243.421C169.925 243.534 170.107 243.605 170.297 243.626C170.488 243.647 170.68 243.618 170.856 243.542C171.698 243.208 172.476 242.728 173.152 242.125C174.899 240.58 177.023 240.85 179.092 240.834C179.436 240.831 179.504 241.11 179.579 241.335C180.007 242.675 180.202 244.079 180.156 245.485C180.147 246.01 179.807 245.964 179.489 246.028C176.595 246.614 174.745 248.353 173.852 251.128C173.583 251.966 173.573 252.864 173.824 253.708C173.95 254.142 173.819 254.212 173.428 254.292C172.003 254.584 172.022 254.595 171.415 253.219C171.135 252.586 171.072 251.738 170.065 251.715C169.785 251.713 169.507 251.764 169.246 251.866C167.738 252.415 166.196 252.893 164.736 253.551C163.551 254.086 162.602 253.359 161.547 253.223C161.157 253.134 160.776 253.01 160.408 252.853C161.745 251.33 162.545 249.628 162.383 247.612C162.226 245.626 161.201 244.077 159.68 242.78Z" fill="white"/>
<path d="M233.827 257.469C230.011 256.036 226.319 254.644 222.619 253.271C222.228 253.126 222.146 252.964 222.311 252.592C223.671 249.544 225.002 246.483 227.087 243.826C227.619 243.096 228.274 242.463 229.024 241.956C230.214 241.205 231.138 241.376 231.927 242.535C232.891 243.949 233.197 245.589 233.463 247.233C234.006 250.582 233.957 253.951 233.827 257.469Z" fill="#75C7B9"/>
<path d="M103.013 249.957C102.505 251.333 101.606 252.532 100.427 253.41C97.2031 255.941 97.8097 255.687 95.1589 253.308C93.3194 251.677 91.7176 249.797 90.4001 247.723C89.5386 246.352 89.5446 246.256 90.9091 245.485C92.8081 244.408 94.3884 242.85 95.4903 240.968C95.903 240.28 96.2361 240.314 96.7489 240.787C98.2405 242.161 99.7519 243.515 101.242 244.89C101.531 245.156 101.748 245.506 102.19 245.539C102.232 245.538 102.274 245.545 102.314 245.561C102.353 245.577 102.389 245.601 102.419 245.631C102.449 245.662 102.472 245.698 102.488 245.737C102.503 245.777 102.511 245.819 102.509 245.862C102.532 247.155 103.08 248.376 103.039 249.677C103.038 249.761 103.025 249.844 103.013 249.957Z" fill="#75C7B9"/>
<path d="M214.525 288.584C218 290.736 221.344 292.813 224.7 294.874C225.037 295.081 225.087 295.233 224.913 295.604C223.85 297.839 222.719 300.028 221.145 301.96C220.625 302.629 219.994 303.204 219.279 303.659C218.189 304.321 217.311 304.154 216.555 303.136C215.763 302.069 215.419 300.821 215.146 299.551C214.381 295.978 214.408 292.363 214.525 288.584Z" fill="#75C7B9"/>
<path d="M79.9395 229.994C80.1696 228.79 81.2488 228.279 82.413 228.679C85.3357 229.683 87.724 231.484 89.8953 233.618C90.6191 234.329 91.3325 235.053 92.0925 235.725C92.5442 236.124 92.5378 236.474 92.2477 236.955C91.0363 238.861 89.5079 240.548 87.7283 241.942C87.3642 242.243 87.0997 242.058 86.8195 241.892C85.8657 241.28 85.0544 240.471 84.4401 239.521C82.6036 236.878 81.1527 233.989 80.1309 230.94C80.0438 230.63 79.9799 230.314 79.9395 229.994Z" fill="#75C7B9"/>
<path d="M136.66 255.746C137.673 255.525 138.514 255.866 139.332 256.21C140.357 256.624 141.261 257.291 141.958 258.147C142.721 259.101 142.894 259.162 144.103 258.762C147.1 257.77 150.087 256.755 153.088 255.787C154.669 255.277 156.32 254.956 157.856 254.343C158.473 254.102 159.133 253.989 159.795 254.01C160.457 254.031 161.108 254.185 161.709 254.463C162.377 254.758 163.103 254.902 163.834 254.884C164.565 254.865 165.282 254.685 165.935 254.357C167.076 253.815 168.306 253.462 169.49 253.007C169.857 252.865 170.013 252.956 170.178 253.32C170.776 254.641 170.807 254.705 169.354 254.971C164.155 255.922 159.204 257.729 154.184 259.295C150.327 260.552 146.359 261.441 142.333 261.952C141.907 262.001 141.73 262.02 141.588 261.501C141.159 259.922 140.388 258.581 138.585 258.229C138.382 258.19 138.314 258.056 138.23 257.911C137.788 257.134 137.262 256.408 136.66 255.746Z" fill="white"/>
<path d="M118.187 239.825C119.242 240.133 120.294 240.452 121.354 240.745C121.699 240.84 121.756 241.095 121.822 241.371C122.237 242.981 122.332 244.656 122.1 246.302C121.969 247.135 121.89 247.977 121.818 248.817C121.779 249.28 121.528 249.432 121.106 249.461C118.718 249.627 116.331 249.787 113.946 249.988C113.417 250.032 113.262 249.875 113.22 249.366C112.991 246.556 113.283 243.727 114.081 241.022C114.531 239.468 114.582 239.472 116.241 239.674C116.885 239.751 117.544 239.67 118.187 239.825Z" fill="#73C8BA"/>
<path d="M107.419 232.584C106.228 232.344 105.051 232.04 103.892 231.674C103.36 231.518 103.191 231.264 103.369 230.703C104.053 228.558 104.825 226.447 105.635 224.346C106.11 223.111 106.669 221.915 107.204 220.707C107.621 219.765 108.069 218.808 109.255 218.888C110.371 218.964 111.07 219.827 111.447 220.785C111.936 221.935 112.004 223.22 111.64 224.415C111.285 225.526 111.358 226.703 111.136 227.837C110.844 229.33 110.563 230.827 110.306 232.326C110.305 232.411 110.285 232.494 110.246 232.568C110.207 232.643 110.152 232.708 110.084 232.758C110.016 232.808 109.937 232.841 109.854 232.855C109.771 232.87 109.685 232.864 109.604 232.84C108.876 232.756 108.147 232.671 107.419 232.584Z" fill="#73C8BA"/>
<path d="M103.154 239.079C105.562 240.224 107.639 239.04 109.776 238.41C110.302 238.254 110.611 238.263 110.81 238.82C110.921 239.048 111.057 239.263 111.215 239.462C112.234 241.056 112.835 242.704 112.235 244.639C111.979 245.624 111.902 246.647 112.009 247.659C112.038 247.853 112.001 248.051 111.902 248.221C111.802 248.391 111.648 248.522 111.464 248.592C109.852 249.409 108.114 249.949 106.322 250.189C105.948 250.268 105.558 250.211 105.223 250.027C104.888 249.843 104.631 249.545 104.498 249.187C103.878 247.882 103.723 246.491 103.595 245.095C103.419 243.168 103.31 241.234 103.154 239.079Z" fill="#73C8BA"/>
<path d="M129.806 265.02C129.392 265.267 128.925 265.413 128.444 265.445C127.962 265.478 127.48 265.396 127.036 265.206C126.248 264.895 125.43 264.665 124.596 264.518C122.977 264.199 121.696 263.314 120.521 262.23C119.449 261.279 118.453 260.245 117.543 259.138C120.551 258.165 121.911 255.475 123.864 253.338C124.04 254.065 124.16 254.818 124.901 255.222C124.991 255.292 125.051 255.393 125.069 255.506C125.399 257.172 126.115 258.679 126.78 260.234C127.357 261.601 128.095 262.894 128.978 264.087C129.209 264.402 129.497 264.675 129.806 265.02Z" fill="#73C8BA"/>
<path d="M130.661 245.321C131.407 245.378 131.74 245.767 131.845 246.501C132.089 248.192 132.393 249.876 132.694 251.559C132.798 252.139 132.576 252.388 132.028 252.593C130.066 253.296 128.033 253.784 125.964 254.049C125.447 254.123 125.132 253.996 125.099 253.435C124.934 251.393 124.921 249.341 125.062 247.297C125.084 247.058 125.062 246.764 125.338 246.627C127.017 245.795 128.735 245.116 130.661 245.321Z" fill="#75C7B9"/>
<path d="M115.109 233.894C116.07 231.857 116.988 229.905 117.912 227.955C118.284 227.045 118.703 226.154 119.166 225.286C119.47 224.778 119.845 224.317 120.278 223.914C120.784 223.443 121.394 223.151 122.05 223.36C122.788 223.595 123.116 224.265 123.212 224.996C123.311 225.724 123.282 226.463 123.125 227.181C122.653 229.3 122.416 231.464 122.419 233.635C122.419 234.301 122.173 234.363 121.646 234.326C119.508 234.174 117.369 234.041 115.109 233.894Z" fill="#73C8BA"/>
<path d="M137.669 259.718C136.857 261.559 135.373 263.023 133.518 263.813C131.129 264.868 131.119 264.911 129.335 262.673C128.825 262.069 128.427 261.379 128.158 260.636C128.021 260.223 127.98 259.85 128.57 259.761C130.985 259.398 132.619 257.912 133.869 255.96C134.224 255.405 134.443 255.478 134.875 255.785C136.007 256.633 136.905 257.755 137.484 259.044C137.607 259.294 137.734 259.553 137.669 259.718Z" fill="#73C8BA"/>
<path d="M153.079 240.258C154.045 239.795 155.032 239.37 155.97 238.857C156.609 238.507 157.272 238.711 157.868 238.764C161.32 239.068 164.732 238.523 168.162 238.41C170.921 238.363 173.667 238.796 176.276 239.689C174.22 239.567 172.867 240.893 171.398 241.951C170.815 242.37 170.32 242.467 169.664 242.047C168.093 241.101 166.39 240.394 164.609 239.951C164.102 239.774 163.546 239.794 163.052 240.006C161.642 240.643 160.131 241.068 158.848 241.968C158.607 242.138 158.496 241.999 158.336 241.913C156.802 241.121 155.125 240.644 153.404 240.51C153.217 240.525 153.007 240.574 153.079 240.258Z" fill="white"/>
<path d="M181.701 249.892C181.344 251.632 180.742 253.313 179.915 254.886C179.72 255.256 179.493 255.548 179.131 255.078C178.307 254.005 177.136 253.995 175.978 254.093C175.31 254.149 175.042 253.895 174.935 253.32C174.557 251.295 175.475 249.769 176.904 248.499C177.436 247.988 178.077 247.606 178.78 247.382C179.482 247.157 180.227 247.096 180.957 247.204C182.019 247.365 182.122 247.527 181.938 248.575C181.876 248.936 181.809 249.296 181.701 249.892Z" fill="#B6B6B6"/>
<path d="M175.941 261.836C177.832 260.215 179.402 258.255 180.57 256.058C183.402 250.867 184.239 245.427 182.358 239.707C182.311 239.565 182.132 239.357 182.317 239.257C182.594 239.108 182.766 239.345 182.94 239.54C184.374 241.15 184.949 243.093 185.139 245.18C185.485 248.985 184.223 252.397 182.444 255.644C181.198 257.919 179.775 260.084 177.574 261.61C177.353 261.801 177.081 261.925 176.791 261.965C176.501 262.005 176.206 261.96 175.941 261.836Z" fill="#73C8BA"/>
<path d="M125.311 241.907C125.985 239.31 126.957 237.014 129.266 235.535C129.598 235.324 129.957 235.159 130.334 235.044C130.498 234.976 130.675 234.946 130.853 234.955C131.03 234.963 131.204 235.011 131.36 235.094C131.517 235.177 131.654 235.294 131.76 235.436C131.867 235.578 131.94 235.741 131.976 235.915C132.555 237.809 132.296 239.683 131.799 241.546C131.715 241.86 131.59 242.092 131.227 241.829C129.371 240.484 127.516 240.917 125.659 241.826C125.545 241.863 125.429 241.89 125.311 241.907Z" fill="#73C8BA"/>
<path d="M113.525 262.194C112.401 262.465 111.219 262.352 110.167 261.873C108.498 261.21 106.963 260.246 105.217 259.748C104.4 259.515 103.555 259.438 102.645 259.201C103.674 257.621 105.024 256.419 106.43 255.274C106.743 255.019 106.992 255.132 107.23 255.4C107.614 255.772 107.961 256.18 108.265 256.619C109.564 258.81 111.447 260.466 113.525 262.194Z" fill="#73C8BA"/>
<path d="M178.794 237.721C177.968 239.16 176.946 238.616 175.913 238.298C171.842 237.044 167.689 237.059 163.508 237.55C162.081 237.712 160.641 237.723 159.211 237.585C160.942 236.689 162.617 236.62 164.297 236.578C164.635 236.588 164.972 236.573 165.308 236.531C165.61 236.476 165.916 236.349 165.952 235.962C165.96 235.82 165.925 235.68 165.85 235.559C165.775 235.439 165.664 235.344 165.533 235.289C165.013 234.999 164.477 234.736 163.929 234.501C169.056 234.862 173.983 236.125 178.794 237.721Z" fill="#DFDFDD"/>
<path d="M110.404 257.532C111.313 257.745 112.089 257.828 112.812 257.413C113.06 257.271 113.185 257.472 113.312 257.585C114.034 258.259 114.889 258.774 115.823 259.097C115.961 259.129 116.086 259.199 116.185 259.3C117.256 260.79 118.621 262.008 120.017 263.383C119.029 263.546 118.197 263.703 117.32 263.27C114.722 261.987 112.686 260.019 110.694 257.988C110.585 257.844 110.488 257.692 110.404 257.532Z" fill="#73C8BA"/>
<path d="M117.757 257.706C117.436 257.936 117.051 258.062 116.655 258.067C116.259 258.072 115.872 257.955 115.544 257.733C114.449 257.122 113.459 256.4 112.857 255.254C112.538 254.656 112.396 253.98 112.448 253.304C112.549 251.897 113.235 251.196 114.607 251.091C115.136 251.05 115.665 251.022 116.302 250.981C115.754 252.103 115.599 253.375 115.863 254.595C116.127 255.815 116.795 256.91 117.758 257.706H117.757Z" fill="white"/>
<path d="M186.365 245.219C189.028 249.717 185.22 259.258 179.996 261.207C183.854 256.541 186.472 251.478 186.365 245.219Z" fill="#787878"/>
<path d="M121.801 264.73C123.661 265.655 125.65 265.872 127.5 266.551C128.432 266.892 129.386 266.528 130.273 266.116C131.668 265.468 133.282 265.447 134.617 264.62C134.869 264.464 134.957 264.701 135.074 264.835C135.259 265.044 135.039 265.129 134.925 265.222C133.919 266.037 132.904 266.844 131.899 267.661C131.774 267.753 131.626 267.81 131.471 267.828C131.316 267.845 131.16 267.821 131.017 267.759C129.192 267.264 127.306 267.032 125.416 267.07C124.679 267.066 123.952 266.893 123.293 266.564C122.373 266.107 122.15 265.877 121.801 264.73Z" fill="#DDDDDC"/>
<path d="M116.963 252.466C117.049 252.016 117.281 251.607 117.624 251.302C117.967 250.997 118.402 250.813 118.86 250.779C119.449 250.737 120.038 250.69 120.628 250.645C121.12 250.655 121.599 250.807 122.007 251.082C122.415 251.357 122.735 251.744 122.929 252.195C122.951 252.275 122.951 252.359 122.93 252.44C122.909 252.52 122.868 252.593 122.81 252.653C121.777 254.128 120.616 255.51 119.342 256.783C118.933 257.215 118.602 256.881 118.327 256.631C117.093 255.509 116.767 254.07 116.963 252.466Z" fill="white"/>
<path d="M108.964 250.873C108.698 252.981 109.235 254.351 110.647 254.779C111.423 255.015 111.679 255.537 112.016 256.111C112.201 256.428 112.057 256.516 111.799 256.539C111.462 256.575 111.121 256.535 110.801 256.422C109.916 256.122 109.107 255.635 108.43 254.993C107.752 254.352 107.221 253.572 106.874 252.707C106.438 251.654 106.634 251.361 107.736 251.146C108.117 251.071 108.494 250.978 108.964 250.873Z" fill="white"/>
<path d="M89.5659 244.752C89.1332 244.268 88.766 243.729 88.4735 243.15C88.2665 242.716 88.7356 242.65 88.9352 242.475C90.4123 241.253 91.7134 239.833 92.8015 238.256C93.1269 237.758 93.3698 237.782 93.7579 238.126C94.1291 238.472 94.461 238.858 94.7477 239.277C94.8236 239.36 94.8712 239.466 94.884 239.578C94.8967 239.69 94.8739 239.803 94.8187 239.902C94.6614 240.194 94.4426 240.042 94.2303 240.008C91.9251 239.652 90.344 241.313 90.8671 243.539C90.9723 243.987 90.1267 244.843 89.5659 244.752Z" fill="white"/>
<path d="M130.259 257.92C129.59 258.262 128.888 258.535 128.163 258.734C127.453 258.925 127.176 258.64 127.002 258.097C126.737 257.274 126.531 256.432 126.282 255.604C126.186 255.282 126.278 255.152 126.608 255.104C127.354 254.994 128.103 254.881 128.84 254.72C129.266 254.628 129.32 254.785 129.293 255.146C129.242 255.65 129.302 256.16 129.469 256.639C129.635 257.118 129.905 257.555 130.259 257.92Z" fill="white"/>
<path d="M105.532 238.346C104.043 238.479 103.45 238.109 103.155 236.839C102.88 235.632 102.861 234.381 103.099 233.166C103.177 232.753 103.329 232.662 103.723 232.817C104.192 233.001 104.859 232.984 105.121 233.309C105.39 233.641 104.944 234.209 104.84 234.68C104.553 235.99 104.573 237.236 105.532 238.346Z" fill="white"/>
<path d="M120.134 239.143L119.966 239.111C118.716 238.328 118.669 236.827 119.855 235.678C119.965 235.514 120.279 235.643 120.312 235.363C120.682 235.095 121 235.688 121.369 235.425C121.752 235.571 122.069 235.851 122.26 236.213C122.452 236.574 122.505 236.993 122.41 237.391C122.253 238.272 122.041 239.164 120.94 239.372C120.671 239.294 120.363 239.352 120.134 239.143Z" fill="#202222"/>
<path d="M109.277 237.198C108.95 237.273 108.731 237.636 108.343 237.549C107.434 237.594 106.857 237.211 106.626 236.409C106.504 235.972 106.527 235.507 106.693 235.085C106.859 234.662 107.158 234.305 107.545 234.066C107.704 234.008 107.865 233.957 108.029 233.915C108.489 233.846 108.958 233.925 109.369 234.14C110.573 235.17 110.534 236.474 109.277 237.198Z" fill="#222323"/>
<path d="M104.023 250.718C104.431 250.955 104.834 251.202 105.25 251.424C105.406 251.507 105.571 251.57 105.557 251.771C105.539 252.475 105.711 253.171 106.054 253.787C106.173 254.031 106.054 254.128 105.863 254.241C105.198 254.661 104.604 255.184 104.102 255.79C104.044 255.879 103.966 255.953 103.875 256.008C103.784 256.063 103.682 256.096 103.576 256.106C103.47 256.116 103.364 256.102 103.264 256.065C103.165 256.028 103.075 255.969 103.001 255.893C102.606 255.621 102.28 255.26 102.048 254.841C101.806 254.322 101.687 253.81 102.208 253.322C102.584 252.943 102.919 252.527 103.207 252.078C103.507 251.645 103.752 251.175 104.023 250.718Z" fill="#FCFDFF"/>
<path d="M115.516 238.452C114.709 238.377 114.354 237.779 114.593 236.81C114.723 236.293 114.951 235.805 115.265 235.372C115.46 235.1 117.218 235.008 117.365 235.266C117.461 235.435 117.312 235.572 117.239 235.713C116.887 236.329 116.734 237.038 116.801 237.744C116.92 238.558 116.529 238.594 115.937 238.5C115.796 238.479 115.656 238.469 115.516 238.452Z" fill="#FCFDFF"/>
<path d="M178.641 239.438C178.899 239.209 179.212 239.052 179.55 238.983C180.332 238.844 180.846 239.022 181.175 239.854C181.939 241.795 182.159 243.808 182.2 245.86C182.204 246.082 182.234 246.341 181.857 246.256C181.51 246.179 181.217 246.115 181.278 245.622C181.385 244.448 181.296 243.265 181.015 242.12C180.909 241.685 180.778 241.256 180.624 240.835C180.372 240.078 179.967 239.523 179.037 239.683C178.954 239.687 178.87 239.668 178.797 239.627C178.751 239.606 178.725 239.544 178.641 239.438Z" fill="#71C6B8"/>
<path d="M125.468 245.177C125.054 242.99 126.46 242.318 129.046 242.167C128.844 242.689 128.734 243.241 128.721 243.8C128.724 244.02 128.681 244.157 128.437 244.232C127.449 244.533 126.467 244.857 125.468 245.177Z" fill="white"/>
<path d="M111.97 249.657C112.136 250.079 112.374 250.49 112.127 250.904C111.633 251.653 111.338 252.516 111.27 253.41C111.249 253.906 110.967 253.677 110.77 253.537C110.064 253.033 109.947 252.278 110.047 251.514C110.128 250.89 110.286 250.239 111.071 250.042C111.38 249.938 111.681 249.809 111.97 249.657Z" fill="#FAFBFB"/>
<path d="M108.118 234.044C107.253 234.342 106.738 234.91 106.765 235.857C106.792 236.786 107.185 237.19 108.343 237.549C107.994 237.852 107.532 237.871 107.125 238.031C107.039 238.071 106.941 238.079 106.849 238.052C106.758 238.026 106.679 237.967 106.628 237.886C105.723 236.912 105.584 235.025 106.342 233.9C106.388 233.8 106.468 233.72 106.569 233.676C106.669 233.632 106.782 233.626 106.887 233.659C107.186 233.73 107.495 233.758 107.8 233.804C107.974 233.796 108.191 233.73 108.118 234.044Z" fill="#FAFBFB"/>
<path d="M120.087 235.713C118.92 236.755 118.88 237.918 119.969 239.111C119.725 239.053 119.482 238.99 119.237 238.938C117.962 238.662 117.653 238.181 118.023 236.919C118.188 236.478 118.386 236.05 118.616 235.639C118.835 235.175 119.22 235.376 119.56 235.406C119.781 235.431 120.123 235.251 120.087 235.713Z" fill="#F7F8F9"/>
<path d="M135.851 243.481C134.781 243.474 133.755 243.523 132.761 243.17C132.534 243.09 132.285 243.1 132.506 242.763C133.008 241.999 133.127 241.113 133.282 240.202C134.168 242.091 134.168 242.091 135.851 243.481Z" fill="#F7F8F9"/>
<path d="M99.1836 255.802L100.729 254.834C101.021 255.653 101.574 256.353 102.305 256.826C102.754 257.129 102.533 257.322 102.355 257.621C102.147 257.971 101.977 257.922 101.698 257.703C100.886 257.067 100.053 256.457 99.1836 255.802Z" fill="#FAFBFB"/>
<path d="M109.275 237.198C110.275 236.003 110.282 235.33 109.305 234.266C109.267 233.924 109.586 234.134 109.693 234.019C110.368 234.384 110.942 235.592 110.751 236.277C110.543 237.021 110.018 237.289 109.275 237.198Z" fill="#F7F8F9"/>
<path d="M120.991 239.307C122.518 238.203 122.652 236.84 121.372 235.425C122.284 235.547 122.757 236.194 122.714 237.342C122.691 237.934 122.519 238.51 122.214 239.019C121.907 239.543 121.545 239.725 120.989 239.439C120.92 239.408 120.898 239.379 120.921 239.35C120.945 239.321 120.97 239.303 120.991 239.307Z" fill="#F2F2F2"/>
<path d="M139.013 259.573C139.773 260.205 140.379 260.89 140.466 261.911C140.479 262.072 140.569 262.28 140.374 262.356C140.126 262.453 140.05 262.229 139.968 262.048C139.776 261.613 139.508 261.215 139.178 260.872C138.682 260.363 138.684 260.361 139.013 259.573Z" fill="#F5F5F5"/>
<path d="M131.013 254.142C130.949 254.956 131.119 255.772 131.502 256.493C131.631 256.724 131.675 256.888 131.44 257.067C131.136 257.297 131.034 257.009 130.914 256.857C130.339 256.13 130.411 255.283 130.512 254.442C130.538 254.231 130.778 254.278 131.013 254.142Z" fill="#F6F7F7"/>
<path d="M130.372 244.113C129.955 244.157 129.783 243.914 129.936 243.461C130.029 243.187 129.889 242.627 130.354 242.733C130.762 242.826 131.287 243.005 131.2 243.734C131.123 244.385 130.768 244.123 130.372 244.113Z" fill="#EFEEEE"/>
<path d="M132.567 255.84C132.072 255.245 132.295 254.578 132.092 254.012C132.081 253.986 132.076 253.959 132.076 253.931C132.077 253.904 132.083 253.877 132.094 253.851C132.106 253.826 132.122 253.804 132.143 253.785C132.163 253.767 132.188 253.753 132.214 253.744C132.287 253.703 132.372 253.69 132.454 253.706C132.536 253.722 132.61 253.768 132.661 253.834C133.079 254.279 133.468 254.715 132.928 255.329C132.799 255.493 132.678 255.664 132.567 255.84Z" fill="#F3F3F3"/>
<path d="M138.088 263.01C137.425 263.495 136.828 264.142 135.727 263.967L137.347 262.351C137.734 262.415 137.875 262.752 138.088 263.01Z" fill="#F6F7F7"/>
<path d="M138.086 263.011C137.655 262.997 137.548 262.621 137.346 262.352C137.456 262.182 137.551 261.998 137.76 261.921C137.833 261.878 137.915 261.852 138 261.844C138.085 261.836 138.17 261.847 138.25 261.876C138.33 261.905 138.403 261.952 138.463 262.012C138.523 262.072 138.569 262.145 138.597 262.224C138.753 262.552 138.594 262.753 138.289 262.875L138.086 263.011Z" fill="#383838"/>
<path d="M138.289 262.874C138.734 262.214 138.399 261.984 137.76 261.92C137.914 261.794 137.886 261.334 138.266 261.623C138.454 261.747 138.612 261.912 138.727 262.106C138.843 262.299 138.913 262.516 138.934 262.74C138.938 262.948 138.547 262.991 138.289 262.874Z" fill="#E0E1E0"/>
<path d="M109.694 234.017L109.306 234.265C108.951 234.046 108.527 233.967 108.117 234.043L107.801 233.803C108.457 233.65 109.064 233.936 109.694 234.017Z" fill="#AEACAD"/>
<path d="M120.088 235.714C119.993 235.473 119.741 235.501 119.561 235.406L120.316 235.363L120.606 235.512L120.088 235.714Z" fill="#E4E4E3"/>
<path d="M120.991 239.308C121 239.329 121.004 239.351 121.004 239.374C121.003 239.397 120.998 239.419 120.989 239.44C120.68 239.412 120.342 239.469 120.137 239.144L120.991 239.308Z" fill="#777979"/>
<path d="M153.077 240.257L153.402 240.507C153.175 240.599 152.927 240.654 152.768 240.436C152.724 240.375 152.932 240.26 153.077 240.257Z" fill="#BAB9B9"/>
<path d="M84.6855 159.506C85.293 158.92 86.0674 158.537 86.9023 158.408C91.1529 157.494 95.5239 157.274 99.8452 157.757C112.086 159.166 122.041 164.908 130.235 173.849C138.449 182.813 143.233 193.445 145.161 205.391C145.215 205.723 145.241 206.061 145.268 206.396C145.33 207.163 145.484 207.233 146.223 206.906C147.174 206.475 148.198 206.227 149.242 206.176C150.527 206.121 151.089 206.734 150.966 208.045C150.843 209.391 150.232 210.58 149.74 211.803C148.291 215.435 146.315 218.836 143.876 221.897C143.183 222.75 142.43 223.553 141.621 224.299C141.354 224.594 140.99 224.785 140.595 224.837C140.199 224.889 139.798 224.798 139.464 224.582C138.53 224.106 137.714 223.427 137.077 222.596C134.84 219.575 132.78 216.441 131.331 212.952C130.838 211.846 130.528 210.667 130.414 209.461C130.317 208.091 131.004 207.484 132.374 207.658C132.983 207.779 133.58 207.954 134.156 208.184C134.569 208.315 134.817 208.251 134.986 207.775C135.833 205.374 135.618 202.967 135.108 200.55C134.097 195.757 131.929 191.425 129.736 187.102C126.472 180.664 122.476 174.75 117.094 169.865C113.052 166.197 108.513 163.3 103.314 161.521C99.7974 160.357 96.1258 159.724 92.4211 159.641C90.9277 159.591 89.4355 159.476 87.9425 159.472C86.9904 159.469 86.0482 159.732 85.0865 159.698C85.0082 159.708 84.9288 159.695 84.8576 159.661C84.7865 159.627 84.7268 159.573 84.6855 159.506Z" fill="#75C7B9"/>
<path d="M47.2695 209.829C47.8157 207.208 49.3438 205.183 51.2687 203.421C52.995 201.841 54.9503 200.663 57.3241 200.34C59.1466 200.092 59.8121 200.942 59.2382 202.698C58.7893 204.112 58.0927 205.435 57.1809 206.606C55.6001 208.703 53.5004 210.355 51.0872 211.401C50.4893 211.648 49.8571 211.803 49.2124 211.861C47.5717 212.017 46.9925 211.415 47.2695 209.829Z" fill="#FAB21D"/>
<path d="M48.2949 212.352C52.8261 213.015 60.1483 206.036 59.9146 201.296C61.1909 202.318 61.4147 202.86 60.8149 204.539C59.2366 208.956 56.3096 212.121 51.8299 213.727C50.1551 214.328 49.089 213.888 48.2949 212.352Z" fill="#CD8B2A"/>
<path d="M58.517 199.738C52.3117 200.63 48.672 204.332 46.6836 209.902C46.4176 208.734 47.2394 206.843 48.1627 205.484C49.8262 203.037 51.9314 201.064 54.6933 199.904C55.9089 199.391 57.1892 198.946 58.517 199.738Z" fill="#AE772B"/>
<path d="M150.796 163.306C149.834 166.964 148.187 170.495 145.368 173.419C144.953 173.801 144.511 174.151 144.045 174.467C143.535 174.861 143.24 174.667 143.016 174.17C142.727 173.465 142.665 172.689 142.838 171.948C143.655 167.653 145.46 163.848 148.601 160.734C149.153 160.187 149.842 159.608 150.584 159.899C151.253 160.163 150.944 161.047 150.991 161.658C150.976 162.212 150.911 162.763 150.796 163.306Z" fill="#FAB21D"/>
<path d="M143.777 175.497C148.749 171.482 151.263 166.351 151.651 160.116C153.287 160.71 153.649 161.409 153.273 163.587C152.745 166.639 151.448 169.395 149.945 172.068C149.216 173.363 148.494 174.658 147.354 175.668C146.659 176.284 145.981 176.589 145.077 176.065C144.625 175.803 144.071 175.721 143.777 175.497Z" fill="#CD8B2A"/>
<path d="M150.164 159.272C146.613 161.156 145.022 164.523 143.551 167.958C142.803 169.597 142.417 171.377 142.418 173.178C142.427 173.785 142.604 174.378 142.929 174.891C141.868 174.466 141.549 173.573 141.761 172.031C142.19 168.912 143.42 166.107 145.104 163.48C146.034 162.03 147.074 160.667 148.528 159.688C149.017 159.359 149.54 159.067 150.164 159.272Z" fill="#AE772B"/>
<path d="M66.7761 171.567C65.8797 175.673 62.2215 178.452 57.8686 177.659C53.5498 176.873 50.9655 173.095 51.6893 168.859C51.8439 167.862 52.1979 166.907 52.7301 166.05C53.2624 165.193 53.9621 164.451 54.7876 163.869C55.6131 163.288 56.5475 162.877 57.5353 162.662C58.5231 162.448 59.544 162.434 60.5374 162.621C64.8133 163.361 67.4771 167.282 66.7761 171.567Z" fill="#FCC862"/>
<path d="M51.793 173.814C54.8773 179.407 62.0492 179.718 65.7352 175.281C64.978 177.421 61.774 179.514 58.9049 179.297C55.3141 179.026 52.239 176.635 51.793 173.814Z" fill="#CC8B2A"/>
<path d="M101.268 172.49C102.992 173.102 104.733 173.676 106.252 174.739C106.433 174.998 106.747 175.069 106.982 175.254C107.237 175.456 107.221 175.598 106.896 175.682C106.612 175.671 106.339 175.572 106.114 175.399C103.789 174.038 101.192 173.205 98.5068 172.958C95.8221 172.711 93.1158 173.057 90.5803 173.971C88.0447 174.885 85.7419 176.344 83.8356 178.246C81.9293 180.147 80.4662 182.443 79.5502 184.972C77.6172 190.263 78.097 195.458 80.9104 200.371C82.0486 202.43 83.5906 204.239 85.4446 205.69C87.2986 207.142 89.4266 208.207 91.7018 208.821C101.74 211.646 111.357 206.006 114.271 196.95C115.976 191.653 115.432 186.559 112.563 181.735C112.111 181.092 111.696 180.425 111.32 179.735C111.604 179.097 111.864 179.603 112.014 179.795C112.582 180.525 113.088 181.298 113.603 182.065C115.271 184.757 116.248 187.818 116.448 190.977C116.425 191.257 116.476 191.539 116.597 191.794C116.737 192.351 116.886 192.908 116.521 193.442C116.466 195.496 115.948 197.465 115.425 199.433C114.537 201.407 113.619 203.356 112.274 205.083C109.818 208.272 106.497 210.692 102.705 212.056C98.5741 213.569 94.3703 213.641 90.1364 212.575C87.9623 212.027 85.9813 211 84.0426 209.901C82.4637 208.633 80.8464 207.416 79.5516 205.826C78.2531 204.266 77.1843 202.53 76.3774 200.669C76.2151 200.379 76.2041 200.032 76.018 199.748C74.5512 195.999 74.2684 191.892 75.2076 187.978C76.5955 182.037 79.927 177.483 85.2675 174.437C85.3407 174.395 85.4064 174.34 85.4753 174.291C85.8254 174.085 86.2477 174.027 86.5691 173.762C90.3651 171.873 94.4058 171.486 98.5563 171.885C99.4723 172.029 100.378 172.23 101.268 172.49Z" fill="#CD8B2A"/>
<path d="M76.021 199.751C76.1548 199.861 76.258 200.004 76.321 200.165C76.3839 200.326 76.4043 200.5 76.3804 200.672C76.252 200.557 76.1525 200.414 76.09 200.254C76.0276 200.094 76.0039 199.922 76.021 199.751Z" fill="#876226"/>
<path d="M92.3965 145.692C93.0488 145.435 93.7588 145.361 94.4502 145.477C97.8283 145.893 101.03 146.845 103.833 148.857C104.396 149.261 105.237 149.785 105.023 150.421C104.829 150.997 103.842 150.68 103.258 150.607C99.7915 150.189 96.4774 148.942 93.5986 146.971C93.0814 146.671 92.6635 146.226 92.3965 145.692Z" fill="#FAB21D"/>
<path d="M91.9389 146.3C95.3358 149.32 99.3889 150.656 103.756 151.235C104.092 151.251 104.428 151.236 104.761 151.19C104.962 151.18 105.239 151.009 105.277 151.378C105.308 151.672 105.109 151.838 104.847 151.931C104.071 152.187 103.249 152.276 102.435 152.191C99.3634 151.985 96.398 150.986 93.8307 149.292C93.0882 148.828 92.4624 148.2 92.0014 147.457C91.8922 147.286 91.8291 147.089 91.8181 146.887C91.8072 146.684 91.8488 146.482 91.9389 146.3Z" fill="#CD8B2A"/>
<path d="M105.537 150.33C105.099 149.167 104.178 148.563 103.237 147.993C100.295 146.2 96.934 145.205 93.4872 145.107C93.1043 145.12 92.7226 145.158 92.3448 145.222C92.3235 144.805 92.6381 144.718 92.9091 144.682C93.4065 144.591 93.9133 144.561 94.4181 144.594C97.7614 144.958 100.98 146.067 103.835 147.839C104.545 148.247 105.167 148.793 105.663 149.445C105.887 149.761 105.984 150.047 105.537 150.33Z" fill="#AD772B"/>
<path d="M70.5429 157.464C71.012 154.839 72.1055 152.578 74.3563 150.992C74.7756 150.707 75.2389 150.493 75.7279 150.358C76.8643 150.021 77.202 150.278 77.2681 151.531C77.343 153.681 76.7877 155.807 75.67 157.647C75.021 158.903 74.0869 159.99 72.9422 160.823C72.7123 160.984 72.4694 161.126 72.2159 161.248C70.9587 161.823 70.4069 161.496 70.3071 160.138C70.2622 159.24 70.3416 158.34 70.5429 157.464Z" fill="#EBA123"/>
<path d="M77.4464 150.218C79.0519 150.637 79.0377 151.895 78.9884 153.106C78.8442 156.652 77.5099 159.658 74.7392 161.948C73.678 162.825 72.8161 162.783 71.7461 161.916C74.1546 161.072 75.4491 159.148 76.4864 157.028C77.5284 154.898 78.168 152.678 77.4464 150.218Z" fill="#CD8B2A"/>
<path d="M76.4187 149.727C71.944 151.314 70.0363 154.522 69.9038 160.635C69.4398 159.837 69.2808 158.899 69.4563 157.994C69.875 154.88 71.1255 152.177 73.6114 150.138C74.6488 149.284 75.4332 149.163 76.4187 149.727Z" fill="#AD772B"/>
<path d="M67.2645 210.856C68.1135 210.999 68.9253 211.31 69.6522 211.77C70.3791 212.231 71.0065 212.831 71.4974 213.537C71.9884 214.242 72.333 215.038 72.5112 215.878C72.6893 216.718 72.6973 217.586 72.5347 218.429C72.3825 219.288 72.0594 220.108 71.5844 220.84C71.1094 221.573 70.4922 222.203 69.7691 222.694C69.046 223.184 68.2317 223.526 67.3741 223.698C66.5166 223.87 65.6332 223.869 64.7761 223.695C61.3082 223.032 58.9636 219.516 59.6369 215.984C59.9817 214.303 60.9739 212.825 62.4002 211.866C63.8265 210.907 65.573 210.544 67.2645 210.856Z" fill="#FCC862"/>
<path d="M106.938 175.566C106.988 175.063 106.245 175.21 106.254 174.739C109.359 176.427 111.911 178.971 113.605 182.067C112.966 181.544 112.652 180.774 112.142 180.154C111.947 179.916 111.842 179.54 111.409 179.628C111.032 179.659 110.865 179.353 110.673 179.132C109.668 177.986 108.526 176.967 107.273 176.098C107.092 175.97 106.882 175.848 106.938 175.566Z" fill="#C2842B"/>
<path d="M116.521 193.443C116.592 192.896 116.384 192.336 116.597 191.795L116.821 190.967C117.01 191.737 116.874 192.405 116.897 193.065C116.901 193.218 117.014 193.688 116.521 193.443Z" fill="#292825"/>
<path d="M115.904 198.66L116.708 194.215C116.497 195.708 116.556 197.252 115.905 198.661L115.904 198.66Z" fill="#292825"/>
<path d="M103.494 172.957C103.4 172.996 103.297 173.007 103.196 172.99C103.096 172.973 103.002 172.929 102.926 172.862C103.018 172.816 103.123 172.8 103.225 172.817C103.328 172.834 103.422 172.883 103.494 172.957Z" fill="#282725"/>
<path d="M170.118 249.655C170.445 248.56 170.981 247.537 171.698 246.645C173.026 244.917 174.821 243.603 176.871 242.855C177.249 242.717 177.692 242.563 177.886 243.065C178.089 243.593 177.681 243.789 177.255 243.965C174.332 245.169 172.141 247.086 171.212 250.211C171.11 250.553 170.899 250.76 170.523 250.648C169.95 250.474 170.075 250.02 170.118 249.655Z" fill="#222323"/>
<path d="M96.4931 242.799C96.6225 242.861 96.7476 242.931 96.8678 243.009C98.4586 244.124 99.9561 245.366 101.346 246.722C101.633 247.007 101.949 247.32 101.559 247.723C101.222 248.072 100.873 247.877 100.596 247.606C99.2198 246.279 97.7455 245.058 96.1856 243.952C95.9015 243.746 95.6678 243.491 95.807 243.1C95.9086 242.815 96.1366 242.735 96.4931 242.799Z" fill="#212323"/>
<path d="M143.958 260.808C143.617 260.72 143.627 260.51 143.786 260.362C143.948 260.257 144.129 260.187 144.319 260.156C149.373 258.579 154.428 257.003 159.483 255.428C159.59 255.394 159.699 255.372 159.803 255.334C160.021 255.256 160.268 255.163 160.355 255.468C160.426 255.716 160.196 255.787 160 255.842C159.918 255.864 159.839 255.893 159.758 255.918C154.664 257.507 149.57 259.095 144.476 260.683C144.292 260.74 144.102 260.773 143.958 260.808Z" fill="#222323"/>
<path d="M121.094 247.231C121.034 247.362 121.139 247.694 120.809 247.689C120.45 247.683 120.569 247.385 120.581 247.179C120.665 245.729 120.753 244.279 120.845 242.83C120.857 242.641 120.876 242.405 121.164 242.442C121.377 242.472 121.394 242.646 121.381 242.829C121.284 244.277 121.191 245.726 121.094 247.231Z" fill="#212323"/>
<path d="M107.358 248.369C107.291 248.624 107.191 248.859 106.897 248.914C106.827 248.929 106.754 248.93 106.684 248.916C106.613 248.902 106.546 248.874 106.487 248.833C106.428 248.792 106.379 248.739 106.341 248.678C106.304 248.617 106.28 248.549 106.27 248.478C106.169 247.983 106.101 247.483 106.066 246.979C105.913 245.218 105.774 243.456 105.629 241.694C105.599 241.325 105.67 240.989 106.091 240.923C106.175 240.903 106.263 240.903 106.347 240.923C106.431 240.943 106.509 240.982 106.575 241.038C106.641 241.093 106.694 241.163 106.728 241.242C106.762 241.321 106.777 241.407 106.772 241.493C106.969 243.729 107.162 245.965 107.35 248.201C107.356 248.257 107.356 248.313 107.358 248.369Z" fill="#212423"/>
<path d="M124.855 263.564C124.722 263.799 124.505 263.701 124.358 263.613C124.078 263.429 123.808 263.232 123.549 263.02L120.463 260.708C120.26 260.556 119.986 260.39 120.227 260.113C120.447 259.862 120.621 260.145 120.788 260.27C122.019 261.191 123.249 262.114 124.479 263.04C124.647 263.168 124.886 263.263 124.855 263.564Z" fill="#212524"/>
<path d="M119.239 254.793C118.744 254.663 118.315 254.351 118.04 253.92C117.765 253.488 117.664 252.969 117.756 252.466C117.91 251.585 118.959 250.939 119.9 251.148C120.771 251.341 121.661 252.641 121.493 253.477C121.313 254.379 120.261 254.993 119.239 254.793Z" fill="#222323"/>
<path d="M105.459 253.583C105.445 253.745 105.397 253.901 105.319 254.043C105.242 254.185 105.135 254.31 105.007 254.409C104.879 254.509 104.732 254.581 104.575 254.621C104.418 254.662 104.254 254.669 104.094 254.644C103.761 254.572 103.468 254.375 103.278 254.094C103.087 253.812 103.012 253.468 103.07 253.133C103.112 252.824 103.274 252.542 103.521 252.35C103.769 252.158 104.082 252.071 104.393 252.106C104.725 252.173 105.019 252.362 105.217 252.636C105.415 252.91 105.502 253.248 105.459 253.583Z" fill="#232424"/>
<path d="M55.5754 204.332C55.2941 205.17 54.6655 205.459 53.9727 205.61C54.0167 206.06 54.754 206.445 54.3473 206.705C53.8818 207.004 53.7791 206.214 53.4723 205.95C53.3582 205.831 53.2533 205.703 53.1584 205.569C52.8515 206.127 52.5752 206.624 52.3043 207.124C52.18 207.353 52.1391 207.777 51.7637 207.577C51.398 207.381 51.7449 207.063 51.8348 206.847C52.0365 206.362 52.3259 205.914 52.5681 205.445C52.6615 205.264 52.8647 205.098 52.636 204.856C52.4701 204.679 52.2275 204.405 52.5259 204.221C52.8455 204.024 53.0255 204.393 53.1594 204.606C53.5234 205.184 53.9823 205.104 54.4652 204.836C55.1482 204.457 55.211 203.981 54.7401 203.355C54.6183 203.192 54.2852 202.973 54.576 202.721C54.8151 202.515 55.0448 202.686 55.2153 202.901C55.5825 203.361 55.9502 203.821 56.3183 204.282C56.4629 204.463 56.6316 204.687 56.4064 204.869C56.1347 205.089 56.0538 204.726 55.8918 204.615C55.7814 204.526 55.6757 204.432 55.5754 204.332Z" fill="#232321"/>
<path d="M146.62 169.697C146.691 168.7 146.759 167.714 146.781 166.724C146.788 166.418 147.16 166.37 147.393 166.184C147.303 166.16 147.216 166.13 147.131 166.094C146.915 165.976 146.411 166.125 146.535 165.712C146.666 165.276 146.976 165.637 147.21 165.735C147.76 165.968 148.279 166.177 148.754 165.536C149.279 164.828 149.181 164.444 148.377 164.058C148.138 163.943 147.529 164.05 147.706 163.588C147.812 163.309 148.329 163.536 148.623 163.651C148.954 163.781 149.226 164.031 149.584 164.147C149.992 164.28 149.726 164.309 149.64 164.668C149.475 165.358 148.688 165.702 148.772 166.484C148.811 166.838 148.52 166.677 148.361 166.637C147.402 166.392 147.08 166.637 147.118 167.599C147.181 168.334 147.007 169.069 146.62 169.697Z" fill="#242422"/>
<path d="M66.0042 171.417C65.7531 172.758 65.1083 173.995 64.1515 174.97C63.1947 175.945 61.9691 176.615 60.63 176.895C59.2909 177.175 57.8986 177.052 56.6297 176.542C55.3608 176.032 54.2723 175.157 53.5024 174.029C52.7324 172.901 52.3157 171.571 52.3049 170.206C52.2941 168.842 52.6899 167.505 53.4419 166.365C54.1939 165.225 55.2684 164.334 56.5292 163.804C57.7899 163.274 59.18 163.129 60.5234 163.388C61.412 163.556 62.2586 163.897 63.015 164.392C63.7713 164.886 64.4226 165.524 64.9316 166.27C65.4405 167.016 65.7972 167.854 65.9812 168.737C66.1653 169.62 66.1731 170.531 66.0042 171.417Z" fill="#242422"/>
<path d="M106.938 175.566C108.596 176.724 110.098 178.089 111.408 179.627C113.839 182.792 115.293 186.344 115.419 190.342C115.608 196.299 113.515 201.331 108.982 205.276C107.168 206.897 105.041 208.129 102.731 208.897C100.421 209.666 97.9775 209.953 95.5518 209.742C93.0227 209.597 90.5521 208.926 88.2992 207.771C86.0463 206.616 84.0612 205.002 82.4718 203.035C79.5908 199.655 78.0732 195.327 78.2141 190.893C78.3561 185.001 80.8005 180.162 85.484 176.52C88.8438 173.896 93.0195 172.53 97.2848 172.66C100.457 172.7 103.56 173.591 106.267 175.24C106.478 175.368 106.714 175.458 106.938 175.566Z" fill="#202222"/>
<path d="M100.585 148.825C100.494 149.048 100.391 149.265 100.276 149.477C100.146 149.698 99.9586 149.708 99.8283 149.473C99.7342 149.244 99.5575 149.059 99.3331 148.953C99.1087 148.847 98.8527 148.829 98.6155 148.902C98.4415 148.946 98.2895 148.845 98.3172 148.711C98.4724 147.961 97.934 148.157 97.5714 148.165C97.3029 148.171 97.0067 148.211 96.9925 147.871C96.9798 147.563 97.3182 147.588 97.5107 147.588C98.0025 147.593 98.4696 147.73 98.933 147.335C99.1226 147.172 99.2526 147.512 99.2299 147.762C99.1997 147.885 99.2073 148.014 99.2517 148.132C99.296 148.25 99.375 148.352 99.4785 148.425C99.8112 148.616 99.8926 148.269 100.059 148.111C100.18 147.997 100.316 147.828 100.488 147.942C100.783 148.14 100.649 148.44 100.585 148.825Z" fill="#242522"/>
<path d="M72.755 155.803C72.886 155.359 72.7979 154.776 73.2369 154.373C73.5309 154.104 72.7638 153.727 73.299 153.558C73.6417 153.449 73.847 153.903 74.167 153.997C74.3989 154.065 74.5424 153.907 74.6439 153.735C74.7026 153.639 74.7265 153.526 74.7118 153.415C74.6971 153.304 74.6445 153.201 74.563 153.124C74.3499 152.86 73.6922 152.672 74.0445 152.294C74.4646 151.844 74.8009 152.514 75.1621 152.701C75.4453 152.882 75.7109 153.089 75.9554 153.319C76.0151 153.358 76.0579 153.417 76.0753 153.486C76.0926 153.555 76.0833 153.628 76.0492 153.69C76.0329 153.722 76.0096 153.749 75.981 153.77C75.9524 153.792 75.9193 153.806 75.8842 153.813C75.8491 153.819 75.813 153.818 75.7786 153.808C75.7443 153.798 75.7125 153.781 75.6859 153.758C75.3112 153.459 75.2597 153.714 75.128 154.002C75.0122 154.253 74.6503 154.442 75.134 154.679C75.1754 154.691 75.2128 154.714 75.2425 154.745C75.2723 154.776 75.2932 154.815 75.3034 154.856C75.3135 154.898 75.3124 154.942 75.3002 154.983C75.288 155.024 75.2651 155.062 75.2338 155.091C75.0999 155.24 74.9451 155.168 74.7778 155.091C73.5799 154.557 73.543 154.578 73.277 155.839C73.2737 155.867 73.2671 155.894 73.2575 155.921C73.0625 156.325 73.3427 156.941 72.7514 157.152C72.544 157.224 72.5167 157.115 72.755 155.803Z" fill="#222322"/>
<path d="M65.0939 223.042C64.3284 222.9 63.5984 222.61 62.9456 222.186C62.2928 221.763 61.73 221.216 61.2893 220.576C60.8486 219.936 60.5386 219.216 60.377 218.456C60.2155 217.696 60.2056 216.913 60.3478 216.149C60.4901 215.386 60.7817 214.658 61.2061 214.007C61.6305 213.356 62.1793 212.795 62.8212 212.355C63.4631 211.916 64.1855 211.607 64.9471 211.446C65.7088 211.285 66.4948 211.275 67.2603 211.417C68.8059 211.704 70.174 212.591 71.0638 213.883C71.9536 215.176 72.292 216.768 72.0048 218.31C71.7175 219.851 70.8281 221.216 69.5321 222.103C68.2361 222.991 66.6396 223.328 65.0939 223.042Z" fill="#242422"/>
<path d="M52.9049 168.909C53.0638 168.076 53.3868 167.283 53.8552 166.576C54.3236 165.869 54.928 165.261 55.6335 164.788C56.339 164.316 57.1316 163.987 57.9652 163.822C58.7989 163.657 59.6571 163.658 60.4902 163.826C63.9943 164.493 66.3499 168.048 65.5591 171.423C64.69 175.134 61.4636 177.096 58.0082 176.465C57.1728 176.308 56.3769 175.988 55.6668 175.522C54.9566 175.056 54.3464 174.454 53.8715 173.751C53.3967 173.048 53.0667 172.258 52.9008 171.427C52.7348 170.596 52.7362 169.74 52.9049 168.909Z" fill="#FAB21D"/>
<path d="M93.6267 208.93C90.0865 208.288 86.8193 206.606 84.2443 204.1C81.6694 201.594 79.9041 198.377 79.1752 194.863C78.4462 191.349 78.7868 187.698 80.1532 184.379C81.5196 181.059 83.8494 178.223 86.8438 176.233C89.8382 174.243 93.3604 173.191 96.9585 173.212C100.557 173.233 104.066 174.325 107.038 176.35C110.009 178.374 112.305 181.237 113.633 184.572C114.961 187.907 115.259 191.562 114.489 195.067C112.482 204.369 103.238 210.742 93.6267 208.93Z" fill="#FFC863"/>
<path d="M67.1294 211.894C68.1901 212.091 69.1681 212.598 69.9395 213.35C70.7108 214.103 71.2407 215.067 71.462 216.12C71.6832 217.173 71.5859 218.268 71.1822 219.266C70.7786 220.264 70.0869 221.12 69.1949 221.725C68.3028 222.33 67.2506 222.658 66.1717 222.666C65.0927 222.674 64.0357 222.362 63.1346 221.77C62.2335 221.178 61.5289 220.333 61.1103 219.341C60.6917 218.35 60.5778 217.256 60.7831 216.2C60.9159 215.501 61.1855 214.836 61.5764 214.241C61.9673 213.647 62.4719 213.135 63.0613 212.735C63.6507 212.335 64.3133 212.055 65.0114 211.911C65.7094 211.766 66.4291 211.76 67.1294 211.894Z" fill="#FAB21D"/>
<path d="M58.981 170.899C58.3467 170.785 57.8069 170.963 57.2593 171.031C57.0626 171.056 56.8264 171.119 56.765 170.865C56.6868 170.54 56.9781 170.51 57.1883 170.477C57.7142 170.396 58.2469 170.358 58.7718 170.272C59.1003 170.217 59.5254 170.307 59.5606 169.745C59.5908 169.259 59.5393 168.87 59.0577 168.607C58.3887 168.243 57.7483 168.513 57.1009 168.643C56.8911 168.685 56.6478 168.891 56.5231 168.579C56.4166 168.31 56.6442 168.134 56.869 168.096C58.166 167.881 59.4668 167.692 60.767 167.494C60.8014 167.486 60.8373 167.485 60.8721 167.492C60.907 167.498 60.9401 167.512 60.9692 167.532C60.9984 167.552 61.0231 167.578 61.0415 167.608C61.0599 167.638 61.0718 167.672 61.0763 167.707C61.1243 167.931 60.9492 168.016 60.7876 168.045C60.4587 168.105 60.1228 168.128 59.7289 168.173C59.914 168.698 60.2261 169.176 60.1721 169.748C60.1412 170.073 60.3142 170.113 60.5951 170.027C60.8113 169.967 61.0343 169.936 61.2585 169.932C61.4197 169.926 61.6417 169.918 61.6786 170.12C61.7248 170.373 61.5305 170.466 61.3075 170.46C60.1505 170.434 59.4132 171.137 58.7111 172.01C59.3038 172.466 59.9402 172.943 60.5578 173.441C60.7531 173.598 61.202 173.719 60.952 174.049C60.7457 174.322 60.4459 174.039 60.2268 173.872C59.6472 173.43 59.0936 172.951 58.4895 172.546C57.8982 172.15 57.9018 171.803 58.4433 171.39C58.6202 171.256 58.7718 171.092 58.981 170.899Z" fill="#222322"/>
<path d="M93.8055 207.956C90.4847 207.342 87.4205 205.761 84.9988 203.414C82.5771 201.066 80.9062 198.056 80.1965 194.763C79.4868 191.47 79.7701 188.041 81.0108 184.909C82.2514 181.776 84.3938 179.08 87.1682 177.159C89.9427 175.238 93.225 174.179 96.6017 174.115C99.9785 174.051 103.299 174.986 106.144 176.8C108.99 178.614 111.233 181.228 112.592 184.311C113.951 187.395 114.364 190.81 113.78 194.128C112.219 203.216 103.326 209.809 93.8055 207.956Z" fill="#222322"/>
<path d="M66.4274 214.83C66.9981 215.521 66.8099 216.196 66.5172 216.955C67.0855 216.755 67.5557 216.589 68.0266 216.427C68.2272 216.359 68.462 216.346 68.538 216.565C68.6218 216.804 68.4094 216.868 68.2048 216.939C67.4647 217.19 66.7339 217.468 65.932 217.761C66.5144 218.15 67.0599 218.493 67.5784 218.872C67.7794 219.019 68.1775 219.185 67.9207 219.506C67.7158 219.762 67.4725 219.46 67.2705 219.329C66.7761 219.012 66.2818 218.694 65.7921 218.37C65.4035 218.112 65.0108 217.931 64.5384 218.157C64.3719 218.237 64.1581 218.363 64.054 218.07C63.9578 217.8 64.1961 217.716 64.3601 217.653C64.9088 217.44 65.4767 217.299 65.8549 216.776C66.1539 216.364 66.4025 215.902 66.1177 215.471C65.8329 215.04 65.3528 215.302 64.971 215.464C64.559 215.642 64.1591 215.844 63.7582 216.044C63.609 216.118 63.4627 216.256 63.3285 216.044C63.3038 216.009 63.2868 215.969 63.2788 215.927C63.2707 215.885 63.2718 215.842 63.2819 215.8C63.292 215.758 63.3108 215.719 63.3372 215.685C63.3637 215.652 63.397 215.624 63.435 215.604C64.5956 214.916 65.8387 214.377 67.1348 214.001C67.2865 213.956 67.4946 213.96 67.529 214.188C67.5371 214.259 67.5183 214.33 67.4762 214.388C67.434 214.445 67.3718 214.485 67.3017 214.499C67.0396 214.596 66.779 214.698 66.4274 214.83Z" fill="#232321"/>
<path d="M93.9151 207.462C90.6645 206.865 87.6664 205.314 85.3045 203.008C82.9426 200.702 81.3243 197.746 80.6567 194.518C79.9892 191.289 80.3027 187.936 81.5571 184.886C82.8116 181.837 84.9499 179.23 87.6985 177.399C90.4471 175.568 93.6809 174.597 96.9862 174.609C100.291 174.622 103.518 175.618 106.252 177.469C108.987 179.321 111.105 181.944 112.336 185.003C113.568 188.062 113.856 191.418 113.163 194.641C111.319 203.45 102.588 209.192 93.9151 207.462Z" fill="#EBA123"/>
<path d="M96.6723 183.287C98.665 184.238 99.719 185.715 99.8394 187.879C100.659 187.542 101.407 187.221 102.164 186.926C102.792 186.681 103.467 186.926 103.633 187.491C103.815 188.111 103.509 188.518 102.928 188.739C102.877 188.762 102.823 188.78 102.768 188.792C100.201 189.22 98.601 191.048 96.9291 192.779C96.5107 193.212 96.7831 193.458 97.0992 193.742C99.113 195.552 101.124 197.366 103.131 199.183C103.493 199.498 103.833 199.837 104.147 200.2C104.538 200.671 104.389 201.085 103.792 201.291C103.522 201.38 103.234 201.397 102.955 201.34C102.677 201.283 102.418 201.155 102.205 200.968C100.442 199.645 98.8248 198.153 97.1581 196.718C96.1961 195.89 95.2642 195.026 94.2837 194.221C93.7812 193.809 93.7865 193.45 94.2166 193.033C94.6782 192.584 95.1459 192.143 95.772 191.545C94.7304 191.72 93.9921 192.116 93.2151 192.38C92.4668 192.634 91.7235 192.911 90.9987 193.223C90.4241 193.471 89.9748 193.368 89.7294 192.81C89.4382 192.15 90.0061 191.996 90.4422 191.811C92.6032 190.903 94.7571 189.977 96.9387 189.121C97.5424 188.884 97.6567 188.569 97.6013 187.985C97.4238 186.104 96.3584 184.975 94.6402 184.353C94.2385 184.212 93.7992 184.221 93.4033 184.378C91.8343 184.92 90.2586 185.443 88.6825 185.966C88.2563 186.108 87.7488 186.34 87.5628 185.692C87.4044 185.139 87.3667 184.568 88.1033 184.302C91.9501 182.91 95.733 181.335 99.7272 180.371C100.508 180.182 100.666 180.689 100.858 181.17C101.071 181.707 100.698 181.933 100.257 182.081C99.1089 182.465 97.9614 182.852 96.6723 183.287Z" fill="#202222"/>
<path d="M111.845 191.52C111.826 191.63 111.81 191.742 111.784 191.852C111.749 192.014 111.73 192.206 111.494 192.184C111.258 192.162 111.272 191.992 111.276 191.811C111.372 187.348 109.478 183.807 106.183 180.919C106.01 180.767 105.767 180.621 105.94 180.379C106.189 180.031 106.411 180.397 106.564 180.512C108.347 181.847 109.531 183.657 110.489 185.619C111.304 187.192 111.783 188.916 111.896 190.683C111.913 190.963 111.895 191.244 111.845 191.52Z" fill="#232321"/>
<path d="M103.963 178.111C104.292 178.285 104.539 178.492 104.464 178.902C104.46 178.987 104.437 179.07 104.397 179.146C104.357 179.221 104.3 179.286 104.231 179.336C104.162 179.387 104.082 179.421 103.998 179.436C103.914 179.451 103.827 179.447 103.745 179.425C103.392 179.341 103.06 179.119 103.136 178.653C103.214 178.176 103.607 178.168 103.963 178.111Z" fill="#232321"/>
</g>
</svg>
