<svg width="60" height="65" viewBox="0 0 162 119" fill="none" xmlns="http://www.w3.org/2000/svg">
<path d="M14.4859 75.7902H2.93271C1.33305 75.7902 0 74.4571 0 72.8575V20.7794C0 19.1797 1.33305 17.8467 2.93271 17.8467H14.4859C16.0855 17.8467 17.4186 19.1797 17.4186 20.7794V72.8575C17.3297 74.546 16.0855 75.7902 14.4859 75.7902Z" fill="#3DF9D3"/>
<path d="M159.788 51.3509C161.121 52.2397 161.477 54.0171 160.499 55.3501L121.485 111.872C120.596 113.205 118.819 113.56 117.486 112.583L98.4676 99.4299C97.7566 100.407 97.4011 101.652 97.4011 102.896C97.5789 116.582 80.2491 123.692 70.8288 112.672C64.0747 104.851 67.4518 92.498 77.1387 88.9432C78.294 88.4988 79.2716 87.699 79.9825 86.7214L68.1627 78.6341H86.8255C99.3563 78.6341 109.31 67.1699 106.644 54.1059C104.689 44.5968 95.8904 38.1092 86.2035 38.1092H81.8488L99.1785 13.0477C100.067 11.7147 101.845 11.3592 103.178 12.3368L122.196 25.4896C122.907 24.512 123.262 23.2679 123.262 22.0237C123.174 11.6258 133.483 4.16069 143.169 7.71551C156.855 12.6923 156.322 31.3551 143.525 36.0652C142.37 36.5096 141.392 37.3094 140.681 38.287L159.788 51.3509Z" fill="#3DF9D3"/>
<path d="M98.2019 56.5055C99.3572 63.7929 93.8472 70.0138 86.8264 70.0138H26.0391V22.1126C35.3705 16.8693 65.4975 0.605957 75.2733 0.605957C79.4502 0.605957 87.0931 3.71641 93.1363 6.64914L67.1861 44.2414C66.3862 45.3967 67.1861 46.9964 68.608 46.9964H86.1155C91.9809 46.8186 97.3132 50.8178 98.2019 56.5055Z" fill="#3DF9D3"/>
</svg>
