<svg width="60" height="65" viewBox="0 0 135 128" fill="none" xmlns="http://www.w3.org/2000/svg">
<path d="M98.0238 120.244V125.754C98.0238 126.82 96.9573 127.887 95.8909 127.887H38.6583C37.5919 127.887 36.5254 126.82 36.5254 125.754V120.244C36.5254 116.244 39.9025 112.867 43.9016 112.867H50.6558L52.7887 100.692H81.8493L83.9822 112.867H90.7364C94.7356 112.867 98.0238 116.244 98.0238 120.244Z" fill="#3DF9D3"/>
<path d="M126.285 0.357422H8.4427C3.82143 0.357422 0 4.17885 0 8.80012V87.8948C0 92.5161 3.82143 96.3375 8.4427 96.3375H126.196C130.817 96.3375 134.639 92.5161 134.639 87.8948V9.06673C134.639 4.3566 130.906 0.357422 126.285 0.357422ZM67.3638 88.6947C64.6088 88.6947 62.2982 86.3841 62.2982 83.6291C62.2982 80.8741 64.6088 78.5634 67.3638 78.5634C70.1188 78.5634 72.4294 80.8741 72.4294 83.6291C72.4294 86.3841 70.1188 88.6947 67.3638 88.6947ZM130.462 70.8317H4.26577V8.97787C4.26577 6.66724 6.13206 4.80095 8.4427 4.80095H126.196C128.507 4.80095 130.373 6.66724 130.373 8.97787L130.462 70.8317Z" fill="#3DF9D3"/>
<path d="M65.6754 34.2174V64.8777C65.6754 65.9441 64.609 67.0106 63.5425 67.0106H51.545C50.3008 67.0106 49.4121 65.9441 49.4121 64.8777V34.2174C49.4121 32.9732 50.212 32.0845 51.545 32.0845H63.5425C64.609 32.1733 65.6754 33.1509 65.6754 34.2174Z" fill="#3DF9D3"/>
<path d="M85.4039 41.149V64.8774C85.4039 65.9439 84.6041 67.0103 83.2711 67.0103H71.2735C70.0294 67.0103 69.1406 65.9439 69.1406 64.8774V41.149C69.1406 39.9048 69.9405 39.0161 71.2735 39.0161H83.3599C84.4263 39.105 85.4039 39.9048 85.4039 41.149Z" fill="#3DF9D3"/>
<path d="M105.222 27.7296V64.9663C105.222 66.0328 104.156 67.0992 103.089 67.0992H91.0919C90.0255 67.0992 88.959 66.0328 88.959 64.9663V27.7296C88.959 26.4854 90.0255 25.5967 91.0919 25.5967H103.089C104.156 25.5967 105.222 26.6631 105.222 27.7296Z" fill="#3DF9D3"/>
<path d="M45.6793 48.525V65.1437C45.6793 66.2102 44.8795 67.2767 43.5464 67.2767H31.5489C30.3047 67.2767 29.416 66.2102 29.416 65.1437V48.525C29.416 47.2808 30.2159 46.3921 31.5489 46.3921H43.5464C44.8795 46.3921 45.6793 47.2808 45.6793 48.525Z" fill="#3DF9D3"/>
<path d="M97.8464 18.8427C97.8464 20.0869 97.0466 20.9756 95.7135 20.9756C95.5358 20.9756 93.5806 20.9756 93.5806 19.1093L93.4029 15.1101L77.0507 29.7737C76.4286 30.3958 75.3621 30.3958 74.7401 29.9515L55.9884 19.8202L35.5482 35.8169C34.7484 36.6167 33.2376 36.439 32.6155 35.3726C31.9934 34.5727 31.9934 33.0619 33.0598 32.4398L54.4776 15.6433C55.0997 15.0212 56.1661 15.0212 56.7882 15.4656L75.2733 25.5968L89.5814 12.7995L85.1379 12.9772C84.0715 12.9772 83.005 12.1774 83.005 10.8443C83.005 9.60013 83.8049 8.71143 85.1379 8.71143L95.4469 8.53369C96.5133 8.53369 97.5798 9.33352 97.5798 10.6666L97.8464 18.8427Z" fill="#3DF9D3"/>
</svg>
