<svg width="20" height="20" viewBox="0 0 20 20" fill="none" xmlns="http://www.w3.org/2000/svg">
<path d="M11.668 2.5C12.5885 2.5 13.3346 3.24619 13.3346 4.16667V6.66667H16.668C17.5885 6.66667 18.3346 7.41286 18.3346 8.33333V15.8333C18.3346 16.7538 17.5885 17.5 16.668 17.5H3.33464C2.41416 17.5 1.66797 16.7538 1.66797 15.8333V10.8333C1.66797 9.91283 2.41416 9.16667 3.33464 9.16667H6.66797V4.16667C6.66797 3.24619 7.41416 2.5 8.33464 2.5H11.668ZM11.668 4.16667H8.33464V15.8333H11.668V4.16667ZM16.668 8.33333H13.3346V15.8333H16.668V8.33333ZM6.66797 10.8333H3.33464V15.8333H6.66797V10.8333Z" fill="white"/>
</svg>
