<svg width="47" height="47" viewBox="0 0 47 47" fill="none" xmlns="http://www.w3.org/2000/svg">
<path d="M0 23.5012C0 36.4789 10.5211 47 23.5012 47C36.4789 47 47 36.4789 47 23.5012C47 10.5235 36.4789 0 23.5012 0C10.5235 0 0 10.5211 0 23.5012Z" fill="#0174FF"/>
<path d="M0 23.5012C0 36.4789 10.5211 47 23.5012 47C36.4789 47 47 36.4789 47 23.5012C47 10.5235 36.4789 0 23.5012 0C10.5235 0 0 10.5211 0 23.5012Z" fill="url(#paint0_linear_239_5771)" style="mix-blend-mode:soft-light"/>
<path d="M23.5012 46.6083C10.7374 46.6083 0.391667 36.2625 0.391667 23.5012C0.391667 10.7375 10.7398 0.391667 23.5012 0.391667C36.2625 0.391667 46.6083 10.7397 46.6083 23.5012C46.6083 36.2626 36.2626 46.6083 23.5012 46.6083Z" stroke="url(#paint1_linear_239_5771)" stroke-opacity="0.8" stroke-width="0.783333" style="mix-blend-mode:soft-light"/>
<path fill-rule="evenodd" clip-rule="evenodd" d="M15.1868 7.85505C14.5665 8.16211 13.7952 9.06712 13.7952 9.48806C13.7952 9.62087 14.3837 10.9144 15.1029 12.3624L16.4106 14.9952L15.0686 16.3897C11.94 19.6412 9.80959 22.8154 8.84065 25.6698C8.45565 26.804 8.39748 27.1604 8.39268 28.4139C8.38376 30.7529 8.97456 32.2657 10.4872 33.778C11.5311 34.8215 13.0454 35.6347 14.8317 36.1113C16.9431 36.6745 22.6056 36.5974 23.2056 35.9974C23.459 35.744 23.4527 35.3518 23.1917 35.1352C23.0273 34.9988 22.8191 34.9966 22.197 35.1246C21.7642 35.2138 20.6692 35.323 19.7637 35.3673C15.2275 35.5897 11.6105 34.1594 10.2651 31.6112C9.08872 29.3829 9.32622 26.7116 10.969 23.6982C12.0769 21.6657 14.6358 18.3696 16.488 16.589L17.1568 15.9461L17.907 16.143C18.8556 16.3919 19.3445 16.391 20.1835 16.1385C20.9801 15.8987 20.8004 15.7766 23.0566 18.0904C23.8867 18.9416 24.6385 19.637 24.7276 19.6354C24.9544 19.6317 25.3204 19.2408 25.3204 19.0024C25.3204 18.799 22.7686 15.9555 22.0234 15.3285L21.6119 14.9823L22.2842 13.2943C23.1381 11.1506 23.6741 9.45115 23.6736 8.88944L23.6733 8.45066L22.3358 8.43021C21.3316 8.41471 20.5932 8.30371 19.3715 7.9843C17.3531 7.45647 16.0719 7.41696 15.1868 7.85505ZM19.1855 9.13078C19.8484 9.31408 20.8208 9.50645 21.3464 9.55817C21.984 9.62101 22.3019 9.71102 22.3019 9.8286C22.3019 9.92547 21.9983 10.7973 21.6272 11.7659C20.3318 15.1465 20.332 15.1464 19.0876 15.1336C17.7813 15.1202 17.7789 15.1174 16.3007 12.1486L14.9615 9.45842L15.3682 9.13174C15.5919 8.952 15.9007 8.77652 16.0542 8.7418C16.5784 8.62312 17.9783 8.79696 19.1855 9.13078ZM32.54 16.8934C31.761 17.1267 31.083 18.0546 31.083 18.8874C31.083 19.0859 31.1817 19.4563 31.3023 19.7102L31.5214 20.1722L30.5134 21.6123L29.5052 23.0525L26.7268 23.0577L23.9484 23.063V23.6804V24.2978L27.0012 24.2915L30.054 24.2852L31.2477 22.594L32.4414 20.9028L33.1812 20.8415C33.643 20.8032 34.0796 20.6671 34.3436 20.4791C34.8853 20.0934 35.265 19.1352 35.1402 18.4696C35.0181 17.8186 34.337 17.0661 33.713 16.8929C33.1363 16.7327 33.0769 16.7327 32.54 16.8934ZM33.7134 18.2135C33.9669 18.4429 34.0449 19.0257 33.8594 19.3035C33.635 19.6394 33.1537 19.7864 32.8324 19.6171C32.4364 19.4085 32.3225 19.2317 32.3199 18.8204C32.3154 18.0996 33.1742 17.7256 33.7134 18.2135ZM18.4602 20.8677C18.4602 21.4874 18.4304 21.5537 18.1515 21.5543C17.6582 21.5551 16.9512 22.0684 16.7369 22.5814C16.4875 23.1783 16.4819 24.4453 16.7262 25.0225C17.0045 25.6797 17.332 25.9049 18.666 26.3559C20.1912 26.8713 20.3811 27.0375 20.3811 27.8558C20.3811 28.8527 20.1257 29.1 19.096 29.1C18.085 29.1 17.8045 28.9289 17.7476 28.2767C17.7074 27.8176 17.6799 27.7947 17.1225 27.7544L16.5393 27.7121V28.2047C16.5393 29.2444 17.3091 30.1957 18.1515 30.1971C18.4304 30.1976 18.4602 30.2639 18.4602 30.8836V31.5696H19.0015H19.5428L19.5846 30.9229C19.6243 30.3097 19.6505 30.2713 20.0903 30.182C20.3455 30.1301 20.7465 29.8956 20.9812 29.6607C21.3776 29.2643 21.4119 29.1531 21.4592 28.1093C21.5389 26.3545 21.192 25.9389 19.0776 25.257C18.5494 25.0867 18.0401 24.8863 17.9457 24.8115C17.8407 24.7285 17.7742 24.3379 17.7742 23.8056C17.7742 22.7615 17.9036 22.6513 19.1295 22.6513C19.8259 22.6513 19.987 22.6987 20.1674 22.9563C20.2849 23.124 20.3811 23.4172 20.3811 23.6081C20.3811 23.9225 20.4333 23.9548 20.944 23.9548H21.507L21.4465 23.225C21.398 22.6411 21.303 22.4122 20.9701 22.0795C20.7414 21.8508 20.3455 21.6212 20.0903 21.5693C19.6505 21.48 19.6243 21.4416 19.5846 20.8284L19.5428 20.1817H19.0015H18.4602V20.8677ZM27.3785 30.9522V31.5696H28.6636H29.9486L30.8931 33.0078L31.8377 34.4461L33.1572 34.4485L34.4767 34.4509L34.8257 34.9784C35.9546 36.6842 38.5449 35.9347 38.5449 33.9021C38.5449 32.7268 37.708 31.9083 36.5177 31.9194C35.6959 31.9272 35.0533 32.295 34.7133 32.9525C34.5129 33.3401 34.4736 33.3532 33.5149 33.3484L32.5237 33.3434L31.5056 31.8391L30.4877 30.3348H28.933H27.3785V30.9522ZM23.674 31.0208V31.5696H24.9774H26.2809V31.0208V30.472H24.9774H23.674V31.0208ZM37.1435 33.306C37.6719 33.7841 37.2957 34.7254 36.5762 34.7254C36.0263 34.7254 35.7023 34.4202 35.7023 33.9021C35.7023 33.156 36.5777 32.7939 37.1435 33.306Z" fill="white"/>
<defs>
<linearGradient id="paint0_linear_239_5771" x1="-10.7919" y1="-6.62273" x2="49.164" y2="43.4458" gradientUnits="userSpaceOnUse">
<stop stop-color="white"/>
<stop offset="1" stop-opacity="0"/>
</linearGradient>
<linearGradient id="paint1_linear_239_5771" x1="0.880975" y1="0.854545" x2="39.0675" y2="42.68" gradientUnits="userSpaceOnUse">
<stop stop-color="white"/>
<stop offset="1" stop-color="white" stop-opacity="0"/>
</linearGradient>
</defs>
</svg>

