<svg width="40" height="40" viewBox="0 0 65 65" fill="none" xmlns="http://www.w3.org/2000/svg">
<path d="M25.5746 31.9501C25.5746 28.3162 28.5227 25.3677 32.1571 25.3677C35.791 25.3677 38.7396 28.3157 38.7396 31.9501C38.7396 34.6925 37.0254 37.0925 34.5571 38.0524L35.243 42.7146C39.9051 41.3434 43.3334 37.092 43.3334 31.9496C43.3334 25.779 38.3283 20.7734 32.1572 20.7734C25.9866 20.7734 20.981 25.7786 20.981 31.9496C20.981 36.7491 23.9979 40.7943 28.1804 42.3716L28.729 37.5033C26.8087 36.3382 25.5747 34.3495 25.5747 31.9501H25.5746Z" fill="#0174FF"/>
<path d="M9.80473 33.3909C9.80473 33.5966 9.80473 33.8711 9.87313 34.0768C9.87313 34.214 9.87313 34.3508 9.94152 34.4881C9.94152 34.6937 10.0099 34.8994 10.0099 35.1051C10.0099 35.2423 10.0783 35.3791 10.0783 35.5164C10.0783 35.722 10.1467 35.9277 10.2156 36.065C10.2156 36.2022 10.284 36.339 10.284 36.5451C10.3524 36.7508 10.3524 36.8881 10.4212 37.0937C10.4896 37.4366 10.5585 37.7796 10.6953 38.122C10.6953 38.2593 10.7637 38.3277 10.7637 38.4649C10.8321 38.6706 10.9009 38.8762 10.9693 39.0819C11.0377 39.2192 11.0377 39.2876 11.1066 39.4248C11.175 39.6305 11.2439 39.8361 11.3122 40.0418C11.3806 40.1102 11.3806 40.2475 11.4495 40.3158C11.5179 40.5215 11.6552 40.7272 11.7236 40.9328C11.7236 41.0012 11.792 41.0701 11.792 41.1385C11.9292 41.3441 11.9976 41.6187 12.1349 41.8243C12.8207 43.1955 13.6433 44.4299 14.5349 45.6638L18.7174 42.304C18.4433 41.9611 18.1688 41.6182 17.9631 41.2069C17.4829 40.4526 17.0716 39.6985 16.7292 38.8758C16.7292 38.8758 16.7292 38.8074 16.6608 38.8074C16.4551 38.3961 16.3179 37.9848 16.1806 37.6419C16.1806 37.5735 16.1806 37.5735 16.1122 37.5046C15.8382 36.682 15.632 35.8589 15.4952 35.0363C15.4952 34.9679 15.4953 34.899 15.4269 34.8306C15.3585 34.4193 15.2896 34.008 15.2896 33.5967V33.391C15.2896 32.9797 15.2212 32.4995 15.2212 32.0882C15.2212 28.5915 16.3184 25.3001 18.1009 22.6261C18.8552 21.5289 19.7466 20.4318 20.775 19.5408C21.8032 18.6493 22.9004 17.8267 24.066 17.2097C24.5461 16.9356 25.0258 16.7295 25.5744 16.5239C26.3286 16.1809 27.1513 15.9069 27.9055 15.7012C28.4541 15.564 29.0026 15.4272 29.5512 15.3583C30.3738 15.221 31.2653 15.1526 32.1567 15.1526C32.5681 15.1526 32.911 15.1526 33.2539 15.221H33.5279C33.8709 15.221 34.2138 15.2894 34.5562 15.3583H34.6246C34.9675 15.4267 35.3789 15.4956 35.7218 15.564C35.7902 15.564 35.859 15.564 35.9274 15.6323C36.2703 15.7007 36.6133 15.7696 36.9557 15.9064H37.0241C37.367 16.0437 37.7783 16.1804 38.1212 16.3177H38.1896C38.5326 16.455 38.8755 16.5918 39.2868 16.7979C40.041 17.1408 40.7269 17.5521 41.3439 17.9634L44.4981 13.6437C44.0868 13.3697 43.6755 13.0951 43.2642 12.8895C43.1958 12.8211 43.1269 12.8211 43.0585 12.7522C42.167 12.272 41.2759 11.8607 40.3845 11.4494C40.3161 11.4494 40.2472 11.381 40.1104 11.381C39.6302 11.1753 39.1505 11.0381 38.6703 10.9008C38.1901 10.7635 37.7104 10.6267 37.2991 10.5579C37.1619 10.5579 37.0935 10.4895 36.9562 10.4895C36.476 10.3522 35.9963 10.2838 35.5161 10.2154H35.4477C34.9675 10.147 34.4878 10.0782 34.0076 10.0782H33.6647C33.1845 10.0782 32.6364 10.0098 32.1563 10.0098C19.8146 10.0098 9.80408 20.0205 9.80408 32.3619V33.4591C9.80456 33.1855 9.80456 33.2544 9.80456 33.3912L9.80473 33.3909Z" fill="#0174FF"/>
<path d="M54.4404 30.9225V30.5796C54.4404 30.3739 54.4404 30.0994 54.372 29.8937C54.372 29.7564 54.372 29.6197 54.3036 29.4824C54.3036 29.2767 54.2352 29.0711 54.2352 28.8654C54.2352 28.7282 54.1669 28.5914 54.1669 28.4541C54.1669 28.2484 54.0985 28.0428 54.0296 27.9055C54.0296 27.7683 53.9612 27.6315 53.9612 27.4253C53.8928 27.2197 53.8928 27.0824 53.8239 26.8768C53.7555 26.5338 53.6867 26.1909 53.5499 25.8485C53.5499 25.7112 53.4815 25.6428 53.4815 25.5056C53.4131 25.2999 53.3442 25.0942 53.2758 24.8886C53.2074 24.7513 53.2074 24.6829 53.1386 24.5457C53.0702 24.34 53.0013 24.1343 52.9329 23.9287C52.8645 23.8603 52.8645 23.723 52.7956 23.6546C52.7272 23.449 52.59 23.2433 52.5216 23.0377C52.5216 22.9693 52.4532 22.9004 52.4532 22.832C52.3159 22.6263 52.2475 22.3518 52.1103 22.1462C51.4244 20.775 50.6018 19.5406 49.7103 18.3066L45.5278 21.6664C45.8018 22.0094 46.0764 22.3523 46.282 22.7636C46.7622 23.5178 47.1735 24.272 47.516 25.0947C47.516 25.0947 47.516 25.1631 47.5844 25.1631C47.79 25.5744 47.9273 25.9857 48.0645 26.3286C48.0645 26.397 48.0645 26.397 48.1329 26.4659C48.407 27.2885 48.6131 28.1116 48.7499 28.9342C48.7499 29.0026 48.7499 29.0715 48.8183 29.1399C48.8867 29.5512 48.9556 29.9625 48.9556 30.3738V30.5795C48.9556 30.9908 49.024 31.471 49.024 31.8823C49.024 35.379 47.9268 38.6704 46.1442 41.3444C45.39 42.4416 44.4985 43.5387 43.4702 44.4297C42.4419 45.3212 41.3448 46.1438 40.1792 46.7608C39.699 47.0348 39.2193 47.241 38.6708 47.4466C37.9165 47.7896 37.0939 48.0636 36.3397 48.2693C35.7911 48.4065 35.2425 48.5433 34.694 48.6122C33.8714 48.7495 32.9799 48.8178 32.0884 48.8178C31.6771 48.8178 31.3342 48.8178 30.9913 48.7495H30.7172C30.3743 48.7495 30.0314 48.6811 29.6889 48.6122H29.6205C29.2776 48.5438 28.8663 48.4749 28.5234 48.4065C28.455 48.4065 28.3861 48.4065 28.3177 48.3381C27.9748 48.2697 27.6319 48.2009 27.2895 48.0641H27.2211C26.8781 47.9268 26.4668 47.79 26.1239 47.6528H26.0555C25.7126 47.5155 25.3697 47.3787 24.9584 47.1726C24.2041 46.8297 23.5183 46.4183 22.9013 46.007L19.7466 50.6009C20.1579 50.8749 20.5692 51.1495 20.9805 51.3551C21.0489 51.4235 21.1178 51.4235 21.1862 51.4924C22.0777 51.9726 22.9687 52.3839 23.8602 52.7952C23.9286 52.7952 23.9975 52.8636 24.1342 52.8636C24.6144 53.0693 25.0941 53.2066 25.5744 53.3438C26.0546 53.4811 26.5342 53.6179 26.9455 53.6868C27.0828 53.6868 27.1512 53.7551 27.2885 53.7551C27.7686 53.8924 28.2483 53.9608 28.7286 54.0292H28.797C29.2771 54.0976 29.7568 54.1665 30.2371 54.1665H30.58C31.0602 54.1665 31.6083 54.2349 32.0884 54.2349C44.4301 54.2349 54.4406 44.2241 54.4406 31.8827V30.9223L54.4404 30.9225Z" fill="#0174FF"/>
<path d="M59.2399 29.0718L64.0393 28.5916C62.3251 13.3016 49.9835 1.30273 34.762 0L34.2819 4.79942C47.3092 5.82818 57.8682 16.1129 59.2395 29.0714L59.2399 29.0718Z" fill="#0174FF"/>
<path d="M28.4544 5.00645L27.9742 0.207031C13.2327 2.05841 1.64523 13.8515 0.0682373 28.6615L5.00491 29.2101C6.30777 16.6627 16.0439 6.6522 28.4541 5.00664L28.4544 5.00645Z" fill="#0174FF"/>
<path d="M59.2399 34.832C57.8687 47.7222 47.515 57.9384 34.5565 59.104L35.1051 64.0407C50.3951 62.6006 62.5311 50.4648 64.0395 35.312L59.2399 34.832Z" fill="#0174FF"/>
<path d="M5.00512 34.9004L0 35.3806C1.57687 50.3963 13.4387 62.258 28.2488 64.0407L28.7973 59.0356C16.25 57.4587 6.3766 47.448 5.0053 34.9007L5.00512 34.9004Z" fill="#0174FF"/>
</svg>
