<svg width="18" height="20" viewBox="0 0 18 20" fill="none" xmlns="http://www.w3.org/2000/svg">
<path d="M14.8283 1.59841H13.9049V0H12.1668V1.59841H5.21433V0H3.47622V1.59841H2.60717C1.16953 1.59841 0 2.76794 0 4.20557V17.3928C0 18.8305 1.16953 20 2.60717 20H14.8283C16.2659 20 17.4354 18.8305 17.4354 17.3928V4.20557C17.4354 2.76794 16.2659 1.59841 14.8283 1.59841ZM15.6973 17.3928C15.6973 17.8719 15.3075 18.2619 15.0455 18.2619H2.82443C2.12788 18.2619 1.73811 17.8719 1.73811 17.3928V6.74691H15.6973V17.3928ZM13.4758 13.0421H9.77144V16.0949H13.4758V13.0421ZM13.4758 8.6371H9.77144V11.6899H13.4758V8.6371ZM7.66398 8.6371H3.95963V11.6899H7.66398V8.6371ZM7.66398 13.0421H3.95963V16.0949H7.66398V13.0421Z" fill="black"/>
</svg>
