<svg width="39" height="34" viewBox="0 0 39 34" fill="none" xmlns="http://www.w3.org/2000/svg">
<path d="M15.9104 10.0351C14.701 10.0338 13.5409 9.55296 12.6859 8.69761C11.8305 7.84223 11.3492 6.6825 11.3479 5.47266H10.6155C10.6129 7.09669 11.3566 8.63176 12.6327 9.6358C13.9089 10.6399 15.576 11.0017 17.1533 10.6176C18.7312 10.2331 20.0447 9.14493 20.7157 7.66611L21.5589 8.58165L22.0977 8.08595L20.7562 6.62844L18.8327 6.6607L18.8449 7.39314L20.047 7.37309L20.0474 7.37352C19.6864 8.16743 19.1039 8.84096 18.3707 9.31318C17.6369 9.78491 16.7828 10.036 15.9105 10.0352L15.9104 10.0351Z" fill="#3A416F"/>
<path d="M13.3615 4.10639L13.3493 3.37395L12.1473 3.39444C12.7284 2.1231 13.861 1.18882 15.22 0.860127C16.5785 0.531839 18.0128 0.844868 19.111 1.71028C20.2088 2.57569 20.8484 3.89715 20.8467 5.29484H21.5791C21.5817 3.67126 20.8375 2.13618 19.5614 1.13214C18.2853 0.128091 16.6186 -0.234181 15.0413 0.150325C13.4634 0.534853 12.1499 1.62301 11.4789 3.10139L10.6353 2.18541L10.0964 2.68111L11.438 4.13896L13.3615 4.10639Z" fill="#3A416F"/>
<path d="M10.1048 14.5032L3.47278 7.87109L2.1261 9.19512L8.76909 15.8381L10.1048 14.5032Z" fill="#3A416F"/>
<path d="M17.7198 24.7938L24.2325 31.3065L25.5784 29.9824L19.0558 23.459L17.7198 24.7938Z" fill="#3A416F"/>
<path d="M34.81 4.07635C34.81 5.92271 33.3128 7.41984 31.4665 7.41984C29.6197 7.41984 28.1226 5.92271 28.1226 4.07635C28.1226 2.22955 29.6197 0.732422 31.4665 0.732422C33.3128 0.732422 34.81 2.22955 34.81 4.07635Z" fill="#3A416F"/>
<path d="M14.3034 25.1168L8.44347 19.2573C8.06897 18.8802 7.84488 18.3802 7.81349 17.8501C7.78167 17.3199 7.94429 16.7963 8.27084 16.3774L1.60831 9.71484C0.575047 10.7559 -0.00311246 12.1641 1.2603e-05 13.6312C0.00306445 15.0979 0.587705 16.5034 1.62572 17.5401L15.8827 31.796C16.9212 32.8301 18.3264 33.4126 19.7925 33.4169C21.2583 33.4208 22.6669 32.8458 23.711 31.8173L17.1818 25.2882C16.7589 25.6029 16.238 25.7586 15.7113 25.7272C15.1846 25.6958 14.6863 25.4796 14.3036 25.1164L14.3034 25.1168Z" fill="#3A416F"/>
<path d="M35.8547 9.76172H26.9883C26.3321 9.76215 25.703 10.0233 25.2391 10.4872C24.7753 10.9511 24.5141 11.5802 24.5137 12.2363V18.3213C24.5128 18.5946 24.6209 18.8575 24.8141 19.0515C25.0072 19.2451 25.2697 19.3541 25.5435 19.3541C25.8173 19.3541 26.0797 19.2451 26.2728 19.0515C26.4664 18.8575 26.5745 18.5946 26.5737 18.3213V14.2702H27.3061V22.2267C27.3061 23.6973 28.0904 25.0558 29.364 25.7913C30.6374 26.5263 32.2061 26.5263 33.4796 25.7913C34.753 25.0558 35.5374 23.6973 35.5374 22.2267V14.2702H36.2699V18.3213C36.269 18.5946 36.3771 18.8575 36.5702 19.0515C36.7638 19.2451 37.0263 19.3541 37.3001 19.3541C37.5734 19.3541 37.8359 19.2451 38.0295 19.0515C38.2226 18.8575 38.3307 18.5946 38.3298 18.3213V12.2363C38.329 11.5802 38.0683 10.951 37.6044 10.4872C37.1401 10.0233 36.511 9.76215 35.8548 9.76172H35.8547Z" fill="#3A416F"/>
</svg>
