<svg width="83" height="83" viewBox="0 0 83 83" fill="none" xmlns="http://www.w3.org/2000/svg">
<g filter="url(#filter0_dd_0_1)">
<rect x="10" y="2" width="63.0971" height="63.0971" rx="7" fill="white"/>
</g>
<path d="M52.9583 38.6667C52.7971 38.6667 52.6381 38.6292 52.4938 38.5573L50.4104 37.5156C50.1632 37.3921 49.9751 37.1755 49.8876 36.9133C49.8001 36.6512 49.8203 36.365 49.9438 36.1177C50.0672 35.8704 50.2839 35.6824 50.5461 35.5949C50.8082 35.5073 51.0944 35.5275 51.3417 35.651L53.425 36.6927C53.6353 36.7975 53.8039 36.9703 53.9036 37.1831C54.0033 37.3958 54.0281 37.636 53.9741 37.8647C53.92 38.0933 53.7903 38.297 53.6059 38.4425C53.4215 38.5881 53.1933 38.6671 52.9583 38.6667ZM51.3406 29.1875L53.424 28.1458C53.6712 28.0223 53.8593 27.8057 53.9468 27.5435C54.0343 27.2814 54.0141 26.9952 53.8906 26.7479C53.7671 26.5007 53.5505 26.3126 53.2883 26.2251C53.0262 26.1375 52.74 26.1578 52.4927 26.2812L50.4094 27.3229C50.1621 27.4464 49.974 27.6631 49.8865 27.9252C49.799 28.1874 49.8192 28.4736 49.9427 28.7208C50.0662 28.9681 50.2829 29.1562 50.545 29.2437C50.8072 29.3312 51.0934 29.311 51.3406 29.1875ZM54 32.4167C54 32.1404 53.8903 31.8754 53.6949 31.6801C53.4996 31.4847 53.2346 31.375 52.9583 31.375H50.875C50.5987 31.375 50.3338 31.4847 50.1384 31.6801C49.9431 31.8754 49.8333 32.1404 49.8333 32.4167C49.8333 32.6929 49.9431 32.9579 50.1384 33.1532C50.3338 33.3486 50.5987 33.4583 50.875 33.4583H52.9583C53.2346 33.4583 53.4996 33.3486 53.6949 33.1532C53.8903 32.9579 54 32.6929 54 32.4167ZM47.75 41.7917V23.0417C47.75 22.7654 47.6403 22.5004 47.4449 22.3051C47.2496 22.1097 46.9846 22 46.7083 22C46.4321 22 46.1671 22.1097 45.9718 22.3051C45.7764 22.5004 45.6667 22.7654 45.6667 23.0417C45.6667 26.1135 42.976 27.2083 40.4583 27.2083H33.1667C32.0616 27.2083 31.0018 27.6473 30.2204 28.4287C29.439 29.2101 29 30.2699 29 31.375V33.4583C29 34.5634 29.439 35.6232 30.2204 36.4046C31.0018 37.186 32.0616 37.625 33.1667 37.625H40.4583C42.976 37.625 45.6667 38.7198 45.6667 41.7917C45.6667 42.0679 45.7764 42.3329 45.9718 42.5282C46.1671 42.7236 46.4321 42.8333 46.7083 42.8333C46.9846 42.8333 47.2496 42.7236 47.4449 42.5282C47.6403 42.3329 47.75 42.0679 47.75 41.7917ZM37.5271 39.7083H33.1667C32.6817 39.7064 32.1986 39.648 31.7271 39.5344L34.3313 45.349C34.55 45.8404 34.9064 46.2579 35.3575 46.5509C35.8086 46.844 36.335 46.9999 36.8729 47C37.3009 46.9994 37.7219 46.8918 38.0976 46.6868C38.4733 46.4819 38.7918 46.1862 39.0239 45.8266C39.2561 45.4671 39.3946 45.0552 39.4268 44.6284C39.459 44.2017 39.3839 43.7736 39.2083 43.3833L37.5271 39.7083Z" fill="#0174FF"/>
<defs>
<filter id="filter0_dd_0_1" x="0.141072" y="0.0282142" width="82.8155" height="82.815" filterUnits="userSpaceOnUse" color-interpolation-filters="sRGB">
<feFlood flood-opacity="0" result="BackgroundImageFix"/>
<feColorMatrix in="SourceAlpha" type="matrix" values="0 0 0 0 0 0 0 0 0 0 0 0 0 0 0 0 0 0 127 0" result="hardAlpha"/>
<feMorphology radius="1.97179" operator="erode" in="SourceAlpha" result="effect1_dropShadow_0_1"/>
<feOffset dy="3.94357"/>
<feGaussianBlur stdDeviation="3.94357"/>
<feColorMatrix type="matrix" values="0 0 0 0 0 0 0 0 0 0 0 0 0 0 0 0 0 0 0.07 0"/>
<feBlend mode="normal" in2="BackgroundImageFix" result="effect1_dropShadow_0_1"/>
<feColorMatrix in="SourceAlpha" type="matrix" values="0 0 0 0 0 0 0 0 0 0 0 0 0 0 0 0 0 0 127 0" result="hardAlpha"/>
<feMorphology radius="1.97179" operator="erode" in="SourceAlpha" result="effect2_dropShadow_0_1"/>
<feOffset dy="7.88714"/>
<feGaussianBlur stdDeviation="5.91536"/>
<feColorMatrix type="matrix" values="0 0 0 0 0 0 0 0 0 0 0 0 0 0 0 0 0 0 0.12 0"/>
<feBlend mode="normal" in2="effect1_dropShadow_0_1" result="effect2_dropShadow_0_1"/>
<feBlend mode="normal" in="SourceGraphic" in2="effect2_dropShadow_0_1" result="shape"/>
</filter>
</defs>
</svg>
