<svg width="40" height="40" viewBox="0 0 50 46" fill="none" xmlns="http://www.w3.org/2000/svg">
<path fill-rule="evenodd" clip-rule="evenodd" d="M27.1726 0.213784C27.3897 0.281682 27.4699 0.342344 27.3508 0.348529C27.0133 0.366161 26.3678 1.19068 26.1408 1.89401C25.8906 2.67011 25.6949 4.09756 25.5396 6.28124C25.4754 7.18589 25.2589 9.65827 25.0589 11.7752C24.8588 13.8923 24.7196 15.6487 24.7496 15.6785C24.7796 15.7082 26.5126 15.9115 28.6007 16.1304C30.6889 16.349 32.4262 16.557 32.4615 16.5924C32.4967 16.6276 32.4042 17.137 32.2557 17.7241C31.7605 19.6823 30.7282 21.1726 29.159 22.195C27.9044 23.0125 26.9263 23.2909 25.313 23.2897L23.9798 23.2888L23.8875 24.3465C23.6974 26.5273 22.8683 28.2945 21.3837 29.6832C19.996 30.9813 18.3325 31.6774 16.6181 31.6774C15.8025 31.6774 15.7904 31.6722 15.7921 31.3156C15.7931 31.1166 15.9689 29.0619 16.1828 26.7498C16.3966 24.4375 16.5498 22.524 16.5232 22.4974C16.4765 22.4507 9.42843 21.687 9.38896 21.7242C9.3783 21.7344 9.01117 25.6252 8.57312 30.3706C7.879 37.8892 7.73636 39.1094 7.46372 39.8605C6.38694 42.827 4.05497 44.6674 1.05598 44.9174L0 45.0056V44.6486C0 43.9364 2.23815 19.7494 2.36895 19.0481C2.81187 16.6729 4.77633 14.6328 7.07488 14.1606C7.82045 14.0076 8.34311 14.0371 12.5336 14.4697C15.0826 14.7328 17.1922 14.9238 17.2218 14.8942C17.2515 14.8646 17.4726 12.7221 17.7131 10.1332C18.2404 4.45811 18.2071 4.67049 18.7421 3.55858C19.5111 1.9602 20.8642 0.744998 22.47 0.210757C23.1134 -0.00333429 23.4874 -0.0307036 25.0014 0.0249575C25.9785 0.0608806 26.9555 0.145754 27.1726 0.213784ZM40.0023 1.61742C43.3676 1.94572 46.7941 2.28153 47.6167 2.36351L49.1124 2.51273L49.0304 3.21001C48.7846 5.3021 47.1036 7.70895 45.2127 8.67611C43.515 9.54458 42.6166 9.62616 39.0376 9.2364C37.4332 9.06179 34.9362 8.79322 33.4888 8.63966C32.0413 8.4861 25.8179 6.32834 25.7035 6.28124C25.5235 6.20702 25.3318 4.90835 26.091 2.05964C26.5733 0.250323 27.2995 0.55433 27.3508 0.348529C27.4429 -0.0207031 32.3913 0.862637 33.1324 0.941062C33.5456 0.984749 36.637 1.28911 40.0023 1.61742Z" fill="#0174FF"/>
</svg>
