<svg width="80" height="80" viewBox="0 0 80 80" fill="none" xmlns="http://www.w3.org/2000/svg">
<g filter="url(#filter0_dd_0_1)">
<rect x="10.1533" y="2.66211" width="59.6452" height="59.6452" rx="14.9113" fill="white"/>
</g>
<path d="M35.2314 32.1595V38.4963C35.2314 38.8131 35.3573 39.117 35.5814 39.341C35.8053 39.5651 36.1092 39.6909 36.4261 39.6909H42.7629C43.0797 39.6909 43.3836 39.5651 43.6076 39.341C43.8317 39.117 43.9575 38.8131 43.9575 38.4963V32.1595C43.9575 31.8427 43.8317 31.5387 43.6076 31.3148C43.3836 31.0907 43.0797 30.9648 42.7629 30.9648H36.4261C36.1093 30.9648 35.8053 31.0907 35.5814 31.3148C35.3573 31.5387 35.2314 31.8426 35.2314 32.1595ZM37.6205 33.3539H41.5683V37.3017H37.6205V33.3539Z" fill="#0174FF"/>
<path d="M38.4 26.4044V28.9696H40.7891L40.7889 26.4044C41.6862 26.033 42.3599 25.2654 42.6116 24.3271C42.863 23.3891 42.6641 22.3874 42.0729 21.6169C41.4817 20.8464 40.5655 20.3945 39.5944 20.3945C38.6233 20.3945 37.7071 20.8463 37.116 21.6169C36.5248 22.3874 36.3259 23.3891 36.5773 24.3271C36.8289 25.2654 37.5026 26.0329 38.4 26.4044H38.4ZM39.5944 22.785C39.8914 22.785 40.1593 22.964 40.2731 23.2385C40.3868 23.5131 40.3239 23.8291 40.1139 24.0391C39.9038 24.2492 39.5878 24.3122 39.3132 24.1984C39.0389 24.0847 38.8597 23.8168 38.8597 23.5196C38.8597 23.3248 38.9372 23.138 39.0749 23.0003C39.2128 22.8624 39.3996 22.7851 39.5944 22.7851L39.5944 22.785Z" fill="#0174FF"/>
<path d="M38.4 41.6855V44.2508C37.5026 44.6222 36.8289 45.3898 36.5773 46.328C36.3259 47.2661 36.5248 48.2678 37.116 49.0383C37.7072 49.8088 38.6233 50.2606 39.5944 50.2606C40.5656 50.2606 41.4817 49.8088 42.0729 49.0383C42.6641 48.2678 42.863 47.2661 42.6116 46.328C42.3599 45.3898 41.6863 44.6222 40.7889 44.2508V41.6855H38.4ZM39.5944 47.8703C39.2973 47.8703 39.0294 47.6914 38.9157 47.4169C38.802 47.1423 38.8649 46.8263 39.0748 46.6163C39.285 46.4061 39.601 46.3432 39.8756 46.457C40.1499 46.5707 40.3291 46.8386 40.3291 47.1358C40.3291 47.5414 40.0002 47.8703 39.5944 47.8703L39.5944 47.8703Z" fill="#0174FF"/>
<path d="M44.9343 31.6746L46.7618 29.8619C47.6601 30.2314 48.6789 30.1625 49.519 29.6755C50.3593 29.1887 50.9254 28.3388 51.0515 27.376C51.1775 26.413 50.8488 25.4462 50.1622 24.7595C49.4754 24.0729 48.5086 23.7442 47.5457 23.8702C46.5829 23.9962 45.733 24.5624 45.2462 25.4027C44.7592 26.2428 44.6902 27.2616 45.0597 28.1598L43.2471 29.9725L44.9343 31.6746ZM47.4248 26.4576C47.7119 26.1705 48.177 26.1705 48.4641 26.4576C48.7511 26.7446 48.7511 27.2097 48.4641 27.4968C48.1737 27.7724 47.7181 27.7724 47.4277 27.4968C47.2896 27.3593 47.2115 27.1727 47.2109 26.9779C47.2104 26.7829 47.2873 26.5956 47.4248 26.4575L47.4248 26.4576Z" fill="#0174FF"/>
<path d="M32.4272 40.7929C31.8561 40.5573 31.2283 40.4959 30.6225 40.6167C30.0165 40.7373 29.4599 41.0344 29.0229 41.4708C28.4909 42.0068 28.1713 42.7175 28.1234 43.4712C28.0757 44.2248 28.3026 44.9703 28.7625 45.5692C29.2222 46.1683 29.8838 46.5801 30.6241 46.7287C31.3645 46.8772 32.1337 46.7522 32.7889 46.3768C33.4442 46.0015 33.9412 45.4013 34.1876 44.6874C34.434 43.9738 34.4134 43.1947 34.1293 42.495L35.9419 40.6824L34.2518 38.9922L32.4272 40.7929ZM31.7642 44.1973C31.4738 44.4729 31.0185 44.4729 30.7278 44.1973C30.5902 44.0594 30.5127 43.8725 30.5127 43.6776C30.5127 43.4828 30.5901 43.2957 30.7278 43.1581C30.8632 43.0095 31.0534 42.9231 31.2544 42.9185C31.4552 42.9139 31.6492 42.992 31.791 43.1343C31.9328 43.2766 32.0104 43.4707 32.0051 43.6715C32.0001 43.8723 31.9131 44.0623 31.7641 44.1973L31.7642 44.1973Z" fill="#0174FF"/>
<path d="M47.9558 40.5532C47.5458 40.5526 47.14 40.6328 46.7612 40.7892L44.9485 38.9766L43.2583 40.6667L45.0591 42.4942C44.8227 43.065 44.7606 43.6929 44.8808 44.2988C45.001 44.9045 45.2979 45.4614 45.734 45.8986C46.4733 46.6291 47.5274 46.9441 48.5462 46.7389C49.565 46.5337 50.4151 45.8353 50.814 44.8756C51.2129 43.916 51.1083 42.8209 50.535 41.9539C49.9618 41.087 48.995 40.562 47.9558 40.5533L47.9558 40.5532ZM48.4634 44.1965C48.1726 44.4739 47.715 44.4739 47.4242 44.1965C47.2863 44.0586 47.2088 43.8717 47.2088 43.6768C47.2088 43.482 47.2863 43.2949 47.4242 43.1572C47.715 42.8796 48.1726 42.8796 48.4634 43.1572C48.6013 43.2949 48.6788 43.482 48.6788 43.6768C48.6788 43.8717 48.6013 44.0586 48.4634 44.1965Z" fill="#0174FF"/>
<path d="M31.233 30.1027C31.6429 30.1034 32.0487 30.0232 32.4276 29.8667L34.2403 31.6794L35.9304 29.9892L34.1296 28.1617C34.4698 27.3301 34.4354 26.3923 34.0352 25.5881C33.6353 24.7836 32.9081 24.1903 32.0399 23.96C31.1714 23.7296 30.2459 23.8841 29.4996 24.3841C28.7532 24.8842 28.2585 25.6816 28.1414 26.5723C28.0243 27.463 28.2966 28.3611 28.8884 29.0368C29.4804 29.7128 30.3344 30.101 31.2329 30.1027L31.233 30.1027ZM30.7253 26.4595C31.012 26.1743 31.475 26.1743 31.7617 26.4595C31.8996 26.5974 31.9768 26.7842 31.9768 26.9792C31.9768 27.174 31.8996 27.361 31.7617 27.4987C31.4713 27.7743 31.0157 27.7743 30.7253 27.4987C30.5874 27.361 30.5099 27.174 30.5099 26.9792C30.5099 26.7842 30.5874 26.5974 30.7253 26.4595Z" fill="#0174FF"/>
<path d="M51.4027 32.2051C50.7851 32.2057 50.1814 32.3892 49.6679 32.7325C49.1547 33.076 48.7545 33.5637 48.5179 34.1342H45.9526V36.5233H48.5179V36.5231C48.8077 37.2236 49.3424 37.7946 50.0221 38.13C50.7018 38.4653 51.4802 38.542 52.2124 38.346C52.9446 38.1498 53.5803 37.6942 54.0016 37.0639C54.4226 36.4335 54.6001 35.6718 54.5009 34.9202C54.4019 34.1688 54.0328 33.4792 53.4629 32.9794C52.8928 32.4799 52.1605 32.2047 51.4027 32.2051L51.4027 32.2051ZM51.4027 36.0634C51.1055 36.0634 50.8376 35.8842 50.7239 35.6099C50.6101 35.3354 50.673 35.0194 50.8832 34.8091C51.0932 34.5992 51.4092 34.5363 51.6838 34.65C51.9583 34.7637 52.1372 35.0316 52.1372 35.3287C52.1372 35.7345 51.8083 36.0634 51.4028 36.0634L51.4027 36.0634Z" fill="#0174FF"/>
<path d="M27.7867 38.4523C28.4043 38.4517 29.0079 38.2682 29.5214 37.9249C30.0347 37.5814 30.4348 37.0937 30.6715 36.5232H33.2367V34.1343H30.6715C30.3817 33.4338 29.847 32.8628 29.1673 32.5274C28.4876 32.1921 27.7091 32.1154 26.9769 32.3114C26.2448 32.5076 25.609 32.9632 25.1878 33.5935C24.7668 34.2239 24.5893 34.9856 24.6885 35.7372C24.7874 36.4886 25.1565 37.1783 25.7265 37.678C26.2966 38.1775 27.0288 38.4527 27.7866 38.4523L27.7867 38.4523ZM27.7867 34.594C28.0839 34.594 28.3518 34.7732 28.4655 35.0475C28.5792 35.3221 28.5163 35.638 28.3061 35.8483C28.0962 36.0582 27.7802 36.1211 27.5056 36.0074C27.2311 35.8937 27.0521 35.6258 27.0521 35.3287C27.0521 35.134 27.1294 34.9471 27.2673 34.8092C27.405 34.6715 27.5918 34.594 27.7866 34.594L27.7867 34.594Z" fill="#0174FF"/>
<path d="M38.0269 34.1328H41.1625V36.5219H38.0269V34.1328Z" fill="#0174FF"/>
<defs>
<filter id="filter0_dd_0_1" x="0.833755" y="0.798196" width="78.2842" height="78.2837" filterUnits="userSpaceOnUse" color-interpolation-filters="sRGB">
<feFlood flood-opacity="0" result="BackgroundImageFix"/>
<feColorMatrix in="SourceAlpha" type="matrix" values="0 0 0 0 0 0 0 0 0 0 0 0 0 0 0 0 0 0 127 0" result="hardAlpha"/>
<feMorphology radius="1.86391" operator="erode" in="SourceAlpha" result="effect1_dropShadow_0_1"/>
<feOffset dy="3.72783"/>
<feGaussianBlur stdDeviation="3.72783"/>
<feColorMatrix type="matrix" values="0 0 0 0 0 0 0 0 0 0 0 0 0 0 0 0 0 0 0.07 0"/>
<feBlend mode="normal" in2="BackgroundImageFix" result="effect1_dropShadow_0_1"/>
<feColorMatrix in="SourceAlpha" type="matrix" values="0 0 0 0 0 0 0 0 0 0 0 0 0 0 0 0 0 0 127 0" result="hardAlpha"/>
<feMorphology radius="1.86391" operator="erode" in="SourceAlpha" result="effect2_dropShadow_0_1"/>
<feOffset dy="7.45565"/>
<feGaussianBlur stdDeviation="5.59174"/>
<feColorMatrix type="matrix" values="0 0 0 0 0 0 0 0 0 0 0 0 0 0 0 0 0 0 0.12 0"/>
<feBlend mode="normal" in2="effect1_dropShadow_0_1" result="effect2_dropShadow_0_1"/>
<feBlend mode="normal" in="SourceGraphic" in2="effect2_dropShadow_0_1" result="shape"/>
</filter>
</defs>
</svg>

