<svg width="19" height="18" viewBox="0 0 19 18" fill="none" xmlns="http://www.w3.org/2000/svg">
<path fill-rule="evenodd" clip-rule="evenodd" d="M9.49125 0.25C4.66125 0.25 0.75 4.17 0.75 9C0.75 13.83 4.66125 17.75 9.49125 17.75C14.33 17.75 18.25 13.83 18.25 9C18.25 4.17 14.33 0.25 9.49125 0.25ZM9.5 16C5.6325 16 2.5 12.8675 2.5 9C2.5 5.1325 5.6325 2 9.5 2C13.3675 2 16.5 5.1325 16.5 9C16.5 12.8675 13.3675 16 9.5 16ZM9.255 4.625H9.3075C9.6575 4.625 9.9375 4.905 9.9375 5.255V9.2275L13.3237 11.24C13.63 11.415 13.7262 11.8088 13.5425 12.1062C13.3675 12.4038 12.9825 12.4913 12.685 12.3162L9.05375 10.1375C8.7825 9.98 8.625 9.69125 8.625 9.385V5.255C8.625 4.905 8.905 4.625 9.255 4.625Z" fill="#757575"/>
</svg>
