<svg width="21" height="21" viewBox="0 0 21 21" fill="none" xmlns="http://www.w3.org/2000/svg">
<path fill-rule="evenodd" clip-rule="evenodd" d="M10.4913 1.75C5.66125 1.75 1.75 5.67 1.75 10.5C1.75 15.33 5.66125 19.25 10.4913 19.25C15.33 19.25 19.25 15.33 19.25 10.5C19.25 5.67 15.33 1.75 10.4913 1.75ZM10.5 17.5C6.6325 17.5 3.5 14.3675 3.5 10.5C3.5 6.6325 6.6325 3.5 10.5 3.5C14.3675 3.5 17.5 6.6325 17.5 10.5C17.5 14.3675 14.3675 17.5 10.5 17.5ZM10.255 6.125H10.3075C10.6575 6.125 10.9375 6.405 10.9375 6.755V10.7275L14.3237 12.74C14.63 12.915 14.7262 13.3088 14.5425 13.6063C14.3675 13.9037 13.9825 13.9913 13.685 13.8162L10.0538 11.6375C9.7825 11.48 9.625 11.1912 9.625 10.885V6.755C9.625 6.405 9.905 6.125 10.255 6.125Z" fill="#0174FF"/>
</svg>
