<svg width="197" height="34" viewBox="0 0 197 34" fill="none" xmlns="http://www.w3.org/2000/svg">
<g filter="url(#filter0_d_0_1)">
<path d="M184.37 0C184.37 0 194 0.758364 194 4.5862C194 8.4137 194 28 194 28C194 28 192.931 23.2832 184.37 23.2832H3L21.4954 11.2267L3 0H184.37Z" fill="#0174FF"/>
</g>
<path d="M81.8594 13.834H84.0566C83.9863 14.6719 83.752 15.4189 83.3535 16.0752C82.9551 16.7256 82.3955 17.2383 81.6748 17.6133C80.9541 17.9883 80.0781 18.1758 79.0469 18.1758C78.2559 18.1758 77.5439 18.0352 76.9111 17.7539C76.2783 17.4668 75.7363 17.0625 75.2852 16.541C74.834 16.0137 74.4883 15.3779 74.248 14.6338C74.0137 13.8896 73.8965 13.0576 73.8965 12.1377V11.0742C73.8965 10.1543 74.0166 9.32227 74.2568 8.57812C74.5029 7.83398 74.8545 7.19824 75.3115 6.6709C75.7686 6.1377 76.3164 5.73047 76.9551 5.44922C77.5996 5.16797 78.3232 5.02734 79.126 5.02734C80.1455 5.02734 81.0068 5.21484 81.71 5.58984C82.4131 5.96484 82.958 6.4834 83.3447 7.14551C83.7373 7.80762 83.9775 8.56641 84.0654 9.42188H81.8682C81.8096 8.87109 81.6807 8.39941 81.4814 8.00684C81.2881 7.61426 81.001 7.31543 80.6201 7.11035C80.2393 6.89941 79.7412 6.79395 79.126 6.79395C78.6221 6.79395 78.1826 6.8877 77.8076 7.0752C77.4326 7.2627 77.1191 7.53809 76.8672 7.90137C76.6152 8.26465 76.4248 8.71289 76.2959 9.24609C76.1729 9.77344 76.1113 10.377 76.1113 11.0566V12.1377C76.1113 12.7822 76.167 13.3682 76.2783 13.8955C76.3955 14.417 76.5713 14.8652 76.8057 15.2402C77.0459 15.6152 77.3506 15.9053 77.7197 16.1104C78.0889 16.3154 78.5312 16.418 79.0469 16.418C79.6738 16.418 80.1807 16.3184 80.5674 16.1191C80.96 15.9199 81.2559 15.6299 81.4551 15.249C81.6602 14.8623 81.7949 14.3906 81.8594 13.834ZM85.4453 13.3506V13.1484C85.4453 12.4629 85.5449 11.8271 85.7441 11.2412C85.9434 10.6494 86.2305 10.1367 86.6055 9.70312C86.9863 9.26367 87.4492 8.92383 87.9941 8.68359C88.5449 8.4375 89.166 8.31445 89.8574 8.31445C90.5547 8.31445 91.1758 8.4375 91.7207 8.68359C92.2715 8.92383 92.7373 9.26367 93.1182 9.70312C93.499 10.1367 93.7891 10.6494 93.9883 11.2412C94.1875 11.8271 94.2871 12.4629 94.2871 13.1484V13.3506C94.2871 14.0361 94.1875 14.6719 93.9883 15.2578C93.7891 15.8438 93.499 16.3564 93.1182 16.7959C92.7373 17.2295 92.2744 17.5693 91.7295 17.8154C91.1846 18.0557 90.5664 18.1758 89.875 18.1758C89.1777 18.1758 88.5537 18.0557 88.0029 17.8154C87.458 17.5693 86.9951 17.2295 86.6143 16.7959C86.2334 16.3564 85.9434 15.8438 85.7441 15.2578C85.5449 14.6719 85.4453 14.0361 85.4453 13.3506ZM87.5635 13.1484V13.3506C87.5635 13.7783 87.6074 14.1826 87.6953 14.5635C87.7832 14.9443 87.9209 15.2783 88.1084 15.5654C88.2959 15.8525 88.5361 16.0781 88.8291 16.2422C89.1221 16.4062 89.4707 16.4883 89.875 16.4883C90.2676 16.4883 90.6074 16.4062 90.8945 16.2422C91.1875 16.0781 91.4277 15.8525 91.6152 15.5654C91.8027 15.2783 91.9404 14.9443 92.0283 14.5635C92.1221 14.1826 92.1689 13.7783 92.1689 13.3506V13.1484C92.1689 12.7266 92.1221 12.3281 92.0283 11.9531C91.9404 11.5723 91.7998 11.2354 91.6064 10.9424C91.4189 10.6494 91.1787 10.4209 90.8857 10.2568C90.5986 10.0869 90.2559 10.002 89.8574 10.002C89.459 10.002 89.1133 10.0869 88.8203 10.2568C88.5332 10.4209 88.2959 10.6494 88.1084 10.9424C87.9209 11.2354 87.7832 11.5723 87.6953 11.9531C87.6074 12.3281 87.5635 12.7266 87.5635 13.1484ZM98.1807 10.4238V18H96.0625V8.49023H98.0576L98.1807 10.4238ZM97.8379 12.8936L97.1172 12.8848C97.1172 12.2285 97.1992 11.6221 97.3633 11.0654C97.5273 10.5088 97.7676 10.0254 98.084 9.61523C98.4004 9.19922 98.793 8.87988 99.2617 8.65723C99.7363 8.42871 100.284 8.31445 100.905 8.31445C101.339 8.31445 101.734 8.37891 102.092 8.50781C102.455 8.63086 102.769 8.82715 103.032 9.09668C103.302 9.36621 103.507 9.71191 103.647 10.1338C103.794 10.5557 103.867 11.0654 103.867 11.6631V18H101.749V11.8477C101.749 11.3848 101.679 11.0215 101.538 10.7578C101.403 10.4941 101.207 10.3066 100.949 10.1953C100.697 10.0781 100.396 10.0195 100.044 10.0195C99.6455 10.0195 99.3057 10.0957 99.0244 10.248C98.749 10.4004 98.5234 10.6084 98.3477 10.8721C98.1719 11.1357 98.043 11.4404 97.9609 11.7861C97.8789 12.1318 97.8379 12.501 97.8379 12.8936ZM103.735 12.3311L102.742 12.5508C102.742 11.9766 102.821 11.4346 102.979 10.9248C103.144 10.4092 103.381 9.95801 103.691 9.57129C104.008 9.17871 104.397 8.87109 104.86 8.64844C105.323 8.42578 105.854 8.31445 106.451 8.31445C106.938 8.31445 107.371 8.38184 107.752 8.5166C108.139 8.64551 108.467 8.85059 108.736 9.13184C109.006 9.41309 109.211 9.7793 109.352 10.2305C109.492 10.6758 109.562 11.2148 109.562 11.8477V18H107.436V11.8389C107.436 11.3584 107.365 10.9863 107.225 10.7227C107.09 10.459 106.896 10.2773 106.645 10.1777C106.393 10.0723 106.091 10.0195 105.739 10.0195C105.411 10.0195 105.121 10.0811 104.869 10.2041C104.623 10.3213 104.415 10.4883 104.245 10.7051C104.075 10.916 103.946 11.1592 103.858 11.4346C103.776 11.71 103.735 12.0088 103.735 12.3311ZM114.01 8.49023V18H111.883V8.49023H114.01ZM111.742 5.99414C111.742 5.67187 111.848 5.40527 112.059 5.19434C112.275 4.97754 112.574 4.86914 112.955 4.86914C113.33 4.86914 113.626 4.97754 113.843 5.19434C114.06 5.40527 114.168 5.67187 114.168 5.99414C114.168 6.31055 114.06 6.57422 113.843 6.78516C113.626 6.99609 113.33 7.10156 112.955 7.10156C112.574 7.10156 112.275 6.99609 112.059 6.78516C111.848 6.57422 111.742 6.31055 111.742 5.99414ZM118.431 10.5205V18H116.312V8.49023H118.308L118.431 10.5205ZM118.053 12.8936L117.367 12.8848C117.373 12.2109 117.467 11.5928 117.648 11.0303C117.836 10.4678 118.094 9.98438 118.422 9.58008C118.756 9.17578 119.154 8.86523 119.617 8.64844C120.08 8.42578 120.596 8.31445 121.164 8.31445C121.621 8.31445 122.034 8.37891 122.403 8.50781C122.778 8.63086 123.098 8.83301 123.361 9.11426C123.631 9.39551 123.836 9.76172 123.977 10.2129C124.117 10.6582 124.188 11.2061 124.188 11.8564V18H122.061V11.8477C122.061 11.3906 121.993 11.0303 121.858 10.7666C121.729 10.4971 121.539 10.3066 121.287 10.1953C121.041 10.0781 120.733 10.0195 120.364 10.0195C120.001 10.0195 119.676 10.0957 119.389 10.248C119.102 10.4004 118.858 10.6084 118.659 10.8721C118.466 11.1357 118.316 11.4404 118.211 11.7861C118.105 12.1318 118.053 12.501 118.053 12.8936ZM132.44 8.49023H134.365V17.7363C134.365 18.5918 134.184 19.3184 133.82 19.916C133.457 20.5137 132.95 20.9678 132.3 21.2783C131.649 21.5947 130.896 21.7529 130.041 21.7529C129.678 21.7529 129.273 21.7002 128.828 21.5947C128.389 21.4893 127.961 21.3193 127.545 21.085C127.135 20.8564 126.792 20.5547 126.517 20.1797L127.51 18.9316C127.85 19.3359 128.225 19.6318 128.635 19.8193C129.045 20.0068 129.476 20.1006 129.927 20.1006C130.413 20.1006 130.826 20.0098 131.166 19.8281C131.512 19.6523 131.778 19.3916 131.966 19.0459C132.153 18.7002 132.247 18.2783 132.247 17.7803V10.6436L132.44 8.49023ZM125.98 13.3506V13.166C125.98 12.4453 126.068 11.7891 126.244 11.1973C126.42 10.5996 126.672 10.0869 127 9.65918C127.328 9.22559 127.727 8.89453 128.195 8.66602C128.664 8.43164 129.194 8.31445 129.786 8.31445C130.401 8.31445 130.926 8.42578 131.359 8.64844C131.799 8.87109 132.165 9.19043 132.458 9.60645C132.751 10.0166 132.979 10.5088 133.144 11.083C133.313 11.6514 133.439 12.2842 133.521 12.9814V13.5703C133.445 14.25 133.316 14.8711 133.135 15.4336C132.953 15.9961 132.713 16.4824 132.414 16.8926C132.115 17.3027 131.746 17.6191 131.307 17.8418C130.873 18.0645 130.36 18.1758 129.769 18.1758C129.188 18.1758 128.664 18.0557 128.195 17.8154C127.732 17.5752 127.334 17.2383 127 16.8047C126.672 16.3711 126.42 15.8613 126.244 15.2754C126.068 14.6836 125.98 14.042 125.98 13.3506ZM128.099 13.166V13.3506C128.099 13.7842 128.14 14.1885 128.222 14.5635C128.31 14.9385 128.441 15.2695 128.617 15.5566C128.799 15.8379 129.027 16.0605 129.303 16.2246C129.584 16.3828 129.915 16.4619 130.296 16.4619C130.794 16.4619 131.201 16.3564 131.518 16.1455C131.84 15.9346 132.086 15.6504 132.256 15.293C132.432 14.9297 132.555 14.5254 132.625 14.0801V12.4893C132.59 12.1436 132.517 11.8213 132.405 11.5225C132.3 11.2236 132.156 10.9629 131.975 10.7402C131.793 10.5117 131.564 10.3359 131.289 10.2129C131.014 10.084 130.688 10.0195 130.313 10.0195C129.933 10.0195 129.602 10.1016 129.32 10.2656C129.039 10.4297 128.808 10.6553 128.626 10.9424C128.45 11.2295 128.318 11.5635 128.23 11.9443C128.143 12.3252 128.099 12.7324 128.099 13.166ZM146.38 15.4248C146.38 15.2139 146.327 15.0234 146.222 14.8535C146.116 14.6777 145.914 14.5195 145.615 14.3789C145.322 14.2383 144.889 14.1094 144.314 13.9922C143.811 13.8809 143.348 13.749 142.926 13.5967C142.51 13.4385 142.152 13.248 141.854 13.0254C141.555 12.8027 141.323 12.5391 141.159 12.2344C140.995 11.9297 140.913 11.5781 140.913 11.1797C140.913 10.793 140.998 10.4268 141.168 10.0811C141.338 9.73535 141.581 9.43066 141.897 9.16699C142.214 8.90332 142.598 8.69531 143.049 8.54297C143.506 8.39062 144.016 8.31445 144.578 8.31445C145.375 8.31445 146.058 8.44922 146.626 8.71875C147.2 8.98242 147.64 9.34277 147.944 9.7998C148.249 10.251 148.401 10.7607 148.401 11.3291H146.283C146.283 11.0771 146.219 10.8428 146.09 10.626C145.967 10.4033 145.779 10.2246 145.527 10.0898C145.275 9.94922 144.959 9.87891 144.578 9.87891C144.215 9.87891 143.913 9.9375 143.673 10.0547C143.438 10.166 143.263 10.3125 143.146 10.4941C143.034 10.6758 142.979 10.875 142.979 11.0918C142.979 11.25 143.008 11.3936 143.066 11.5225C143.131 11.6455 143.236 11.7598 143.383 11.8652C143.529 11.9648 143.729 12.0586 143.98 12.1465C144.238 12.2344 144.561 12.3193 144.947 12.4014C145.674 12.5537 146.298 12.75 146.819 12.9902C147.347 13.2246 147.751 13.5293 148.032 13.9043C148.313 14.2734 148.454 14.7422 148.454 15.3105C148.454 15.7324 148.363 16.1191 148.182 16.4707C148.006 16.8164 147.748 17.1182 147.408 17.376C147.068 17.6279 146.661 17.8242 146.187 17.9648C145.718 18.1055 145.19 18.1758 144.604 18.1758C143.743 18.1758 143.014 18.0234 142.416 17.7188C141.818 17.4082 141.364 17.0127 141.054 16.5322C140.749 16.0459 140.597 15.542 140.597 15.0205H142.645C142.668 15.4131 142.776 15.7266 142.97 15.9609C143.169 16.1895 143.415 16.3564 143.708 16.4619C144.007 16.5615 144.314 16.6113 144.631 16.6113C145.012 16.6113 145.331 16.5615 145.589 16.4619C145.847 16.3564 146.043 16.2158 146.178 16.04C146.312 15.8584 146.38 15.6533 146.38 15.4248ZM149.904 13.3506V13.1484C149.904 12.4629 150.004 11.8271 150.203 11.2412C150.402 10.6494 150.689 10.1367 151.064 9.70312C151.445 9.26367 151.908 8.92383 152.453 8.68359C153.004 8.4375 153.625 8.31445 154.316 8.31445C155.014 8.31445 155.635 8.4375 156.18 8.68359C156.73 8.92383 157.196 9.26367 157.577 9.70312C157.958 10.1367 158.248 10.6494 158.447 11.2412C158.646 11.8271 158.746 12.4629 158.746 13.1484V13.3506C158.746 14.0361 158.646 14.6719 158.447 15.2578C158.248 15.8438 157.958 16.3564 157.577 16.7959C157.196 17.2295 156.733 17.5693 156.188 17.8154C155.644 18.0557 155.025 18.1758 154.334 18.1758C153.637 18.1758 153.013 18.0557 152.462 17.8154C151.917 17.5693 151.454 17.2295 151.073 16.7959C150.692 16.3564 150.402 15.8438 150.203 15.2578C150.004 14.6719 149.904 14.0361 149.904 13.3506ZM152.022 13.1484V13.3506C152.022 13.7783 152.066 14.1826 152.154 14.5635C152.242 14.9443 152.38 15.2783 152.567 15.5654C152.755 15.8525 152.995 16.0781 153.288 16.2422C153.581 16.4062 153.93 16.4883 154.334 16.4883C154.727 16.4883 155.066 16.4062 155.354 16.2422C155.646 16.0781 155.887 15.8525 156.074 15.5654C156.262 15.2783 156.399 14.9443 156.487 14.5635C156.581 14.1826 156.628 13.7783 156.628 13.3506V13.1484C156.628 12.7266 156.581 12.3281 156.487 11.9531C156.399 11.5723 156.259 11.2354 156.065 10.9424C155.878 10.6494 155.638 10.4209 155.345 10.2568C155.058 10.0869 154.715 10.002 154.316 10.002C153.918 10.002 153.572 10.0869 153.279 10.2568C152.992 10.4209 152.755 10.6494 152.567 10.9424C152.38 11.2354 152.242 11.5723 152.154 11.9531C152.066 12.3281 152.022 12.7266 152.022 13.1484ZM160.117 13.3506V13.1484C160.117 12.4629 160.217 11.8271 160.416 11.2412C160.615 10.6494 160.902 10.1367 161.277 9.70312C161.658 9.26367 162.121 8.92383 162.666 8.68359C163.217 8.4375 163.838 8.31445 164.529 8.31445C165.227 8.31445 165.848 8.4375 166.393 8.68359C166.943 8.92383 167.409 9.26367 167.79 9.70312C168.171 10.1367 168.461 10.6494 168.66 11.2412C168.859 11.8271 168.959 12.4629 168.959 13.1484V13.3506C168.959 14.0361 168.859 14.6719 168.66 15.2578C168.461 15.8438 168.171 16.3564 167.79 16.7959C167.409 17.2295 166.946 17.5693 166.401 17.8154C165.856 18.0557 165.238 18.1758 164.547 18.1758C163.85 18.1758 163.226 18.0557 162.675 17.8154C162.13 17.5693 161.667 17.2295 161.286 16.7959C160.905 16.3564 160.615 15.8438 160.416 15.2578C160.217 14.6719 160.117 14.0361 160.117 13.3506ZM162.235 13.1484V13.3506C162.235 13.7783 162.279 14.1826 162.367 14.5635C162.455 14.9443 162.593 15.2783 162.78 15.5654C162.968 15.8525 163.208 16.0781 163.501 16.2422C163.794 16.4062 164.143 16.4883 164.547 16.4883C164.939 16.4883 165.279 16.4062 165.566 16.2422C165.859 16.0781 166.1 15.8525 166.287 15.5654C166.475 15.2783 166.612 14.9443 166.7 14.5635C166.794 14.1826 166.841 13.7783 166.841 13.3506V13.1484C166.841 12.7266 166.794 12.3281 166.7 11.9531C166.612 11.5723 166.472 11.2354 166.278 10.9424C166.091 10.6494 165.851 10.4209 165.558 10.2568C165.271 10.0869 164.928 10.002 164.529 10.002C164.131 10.002 163.785 10.0869 163.492 10.2568C163.205 10.4209 162.968 10.6494 162.78 10.9424C162.593 11.2354 162.455 11.5723 162.367 11.9531C162.279 12.3281 162.235 12.7266 162.235 13.1484ZM172.835 10.5205V18H170.717V8.49023H172.712L172.835 10.5205ZM172.457 12.8936L171.771 12.8848C171.777 12.2109 171.871 11.5928 172.053 11.0303C172.24 10.4678 172.498 9.98438 172.826 9.58008C173.16 9.17578 173.559 8.86523 174.021 8.64844C174.484 8.42578 175 8.31445 175.568 8.31445C176.025 8.31445 176.438 8.37891 176.808 8.50781C177.183 8.63086 177.502 8.83301 177.766 9.11426C178.035 9.39551 178.24 9.76172 178.381 10.2129C178.521 10.6582 178.592 11.2061 178.592 11.8564V18H176.465V11.8477C176.465 11.3906 176.397 11.0303 176.263 10.7666C176.134 10.4971 175.943 10.3066 175.691 10.1953C175.445 10.0781 175.138 10.0195 174.769 10.0195C174.405 10.0195 174.08 10.0957 173.793 10.248C173.506 10.4004 173.263 10.6084 173.063 10.8721C172.87 11.1357 172.721 11.4404 172.615 11.7861C172.51 12.1318 172.457 12.501 172.457 12.8936Z" fill="white"/>
<defs>
<filter id="filter0_d_0_1" x="0.281139" y="0" width="196.438" height="33.4377" filterUnits="userSpaceOnUse" color-interpolation-filters="sRGB">
<feFlood flood-opacity="0" result="BackgroundImageFix"/>
<feColorMatrix in="SourceAlpha" type="matrix" values="0 0 0 0 0 0 0 0 0 0 0 0 0 0 0 0 0 0 127 0" result="hardAlpha"/>
<feOffset dy="2.71886"/>
<feGaussianBlur stdDeviation="1.35943"/>
<feColorMatrix type="matrix" values="0 0 0 0 0 0 0 0 0 0 0 0 0 0 0 0 0 0 0.25 0"/>
<feBlend mode="normal" in2="BackgroundImageFix" result="effect1_dropShadow_0_1"/>
<feBlend mode="normal" in="SourceGraphic" in2="effect1_dropShadow_0_1" result="shape"/>
</filter>
</defs>
</svg>
