<svg width="9" height="11" viewBox="0 0 9 11" fill="none" xmlns="http://www.w3.org/2000/svg">
<path d="M2.89844 1.95V7.65C2.89844 7.90196 2.99853 8.14359 3.17669 8.32175C3.35485 8.49991 3.59648 8.6 3.84844 8.6H7.64844C7.90039 8.6 8.14203 8.49991 8.32019 8.32175C8.49835 8.14359 8.59844 7.90196 8.59844 7.65V3.48995C8.59842 3.36339 8.57312 3.23811 8.52401 3.12147C8.47491 3.00482 8.40299 2.89916 8.31249 2.8107L6.73786 1.27075C6.56038 1.09721 6.32203 1.00003 6.07381 1H3.84844C3.59648 1 3.35485 1.10009 3.17669 1.27825C2.99853 1.45641 2.89844 1.69804 2.89844 1.95V1.95Z" stroke="#0174FF" stroke-width="0.7" stroke-linecap="round" stroke-linejoin="round"/>
<path d="M6.7 8.6V9.55C6.7 9.80196 6.59991 10.0436 6.42175 10.2218C6.24359 10.3999 6.00196 10.5 5.75 10.5H1.95C1.69804 10.5 1.45641 10.3999 1.27825 10.2218C1.10009 10.0436 1 9.80196 1 9.55V4.325C1 4.07304 1.10009 3.83141 1.27825 3.65325C1.45641 3.47509 1.69804 3.375 1.95 3.375H2.9" stroke="#0174FF" stroke-width="0.7" stroke-linecap="round" stroke-linejoin="round"/>
</svg>
