<svg width="42" height="42" viewBox="0 0 42 42" fill="none" xmlns="http://www.w3.org/2000/svg">
<path d="M29.0124 5.50391L35.6148 13.1842C35.5475 13.5883 35.4802 13.7232 35.3452 13.7905C35.143 13.9251 34.6716 13.7232 34.3347 13.521L33.2569 11.9714C33.0547 11.6346 32.6505 11.5673 32.3137 11.7692C31.9769 11.9714 31.9096 12.3755 32.1115 12.7124L33.1893 14.262C33.122 14.7334 33.0547 14.8683 32.987 14.8683C32.8524 14.9356 32.3134 14.6661 31.9093 14.3969L30.7638 12.78C30.5616 12.4432 30.1574 12.3759 29.8206 12.5778C29.4838 12.78 29.4165 13.1842 29.6184 13.521L30.6962 15.0706C30.6289 15.2728 30.5616 15.4074 30.4939 15.4074C30.2917 15.4748 29.8203 15.2728 29.5507 15.0706L28.4053 13.4538C28.2031 13.1169 27.7989 13.0496 27.4621 13.2515C27.1252 13.4538 27.0579 13.8579 27.2599 14.1947L28.3376 15.7443C28.3376 15.9466 28.2703 16.0139 28.2703 16.0139C28.203 16.0812 27.9335 16.0139 27.7313 15.8793H27.664C27.0576 15.677 24.3629 13.5887 22.6111 12.1738C22.1397 11.7023 21.5333 11.4328 21.0615 11.2979L21.0625 5.90821C21.3993 6.51457 21.9383 6.91875 22.073 7.05365C25.1049 8.94007 28.4731 5.77362 28.6754 5.57139C28.8776 5.50408 28.9449 5.50408 29.0122 5.50408L29.0124 5.50391Z" fill="#0174FF"/>
<path d="M31.8419 1.7992C32.8527 2.60782 35.7497 3.34879 37.097 3.68561V11.0963C36.6929 11.0963 36.2211 11.1636 35.8843 11.3658C29.5514 4.08972 29.8883 4.35929 29.6188 4.22463C29.2819 4.09002 28.4061 3.9551 27.7997 4.62876C27.7997 4.62876 25.0374 7.25615 22.9491 5.97612C22.6122 5.70659 22.2754 5.30245 22.2754 5.03292C22.2754 4.89831 22.4776 4.83069 22.5449 4.76339C22.5449 4.76339 22.6122 4.76339 22.6122 4.69608H22.6795L26.9914 1.19282C28.1369 0.317263 30.8315 1.32774 31.842 1.79918L31.8419 1.7992Z" fill="#0174FF"/>
<path d="M18.0985 2.54102H19.8503V13.7922H18.0985C17.6271 13.7922 17.2227 13.388 17.2227 12.9163V3.35004C17.2227 2.87859 17.5595 2.54173 18.0985 2.54173V2.54102Z" fill="#0174FF"/>
<path d="M41.0044 3.35003V12.9163C41.0044 13.3877 40.6003 13.7922 40.1285 13.7922H38.4443V2.54102H40.1961C40.6675 2.54102 41.0044 2.87785 41.0044 3.34932V3.35003Z" fill="#0174FF"/>
<path d="M6.10634 31.9821V39.3254C6.10634 40.8077 4.82631 42.0202 3.41162 41.9528C1.997 41.8855 0.851562 40.7401 0.851562 39.3254V31.9821C0.851562 31.3757 1.32301 30.9043 1.92935 30.9043H5.02846C5.63483 30.9043 6.10626 31.3757 6.10626 31.9821H6.10634Z" fill="#0174FF"/>
<path d="M31.9766 16.014C31.7071 16.5531 31.2357 16.8899 30.562 16.8899C30.2252 16.8899 29.9557 16.8226 29.6862 16.6877C29.5515 17.0245 29.3493 17.1591 29.282 17.2267C29.1474 17.294 28.8779 17.4963 28.4061 17.4963C26.3175 17.4963 22.1406 13.252 21.1974 12.8476V15.1381H18.0983C16.8856 15.1381 15.875 14.1276 15.875 12.9149V7.92969H8.53169C7.92533 7.92969 7.4539 8.40113 7.4539 9.00748V39.392C7.38659 40.8066 6.57802 41.8848 6.44336 41.952H30.4948C31.9771 41.952 33.1222 40.7393 33.1222 39.3246L33.1219 16.284C32.785 16.3513 32.3136 16.2167 31.9767 16.0144L31.9766 16.014ZM14.5274 35.484L11.2264 38.785C11.0918 38.9196 10.8896 38.9873 10.755 38.9873C10.5527 38.9873 10.4181 38.92 10.2835 38.785L9.07049 37.5726C8.80097 37.3031 8.80097 36.8989 9.07049 36.6294C9.34002 36.3598 9.74416 36.3598 10.0137 36.6294L10.6874 37.303L13.517 34.4734C13.7865 34.2039 14.1907 34.2039 14.4602 34.4734C14.797 34.8103 14.797 35.2144 14.5275 35.484L14.5274 35.484ZM14.5274 27.8711L11.2264 31.1721C11.0918 31.3067 10.9569 31.3743 10.755 31.3743C10.5527 31.3743 10.4181 31.307 10.2835 31.1721L9.07081 29.9594C8.80128 29.6899 8.80128 29.2858 9.07081 29.0162C9.34034 28.7467 9.74448 28.7467 10.014 29.0162L10.6877 29.7572L13.5173 26.9276C13.7868 26.658 14.191 26.658 14.4605 26.9276C14.797 27.1974 14.797 27.6019 14.5275 27.8711H14.5274ZM14.5274 20.3258L11.2264 23.6269C11.0918 23.7615 10.8896 23.8291 10.755 23.8291C10.5527 23.8291 10.4181 23.7618 10.2835 23.6269L9.07081 22.4142C8.80128 22.1446 8.80128 21.7405 9.07081 21.471C9.34034 21.2014 9.74448 21.2014 10.014 21.471L10.6877 22.1446L13.5173 19.315C13.7868 19.0455 14.191 19.0455 14.4605 19.315C14.797 19.5845 14.797 20.0563 14.5275 20.3258L14.5274 20.3258ZM30.6292 37.3034H16.5482C16.144 37.3034 15.8745 37.0339 15.8745 36.6297C15.8745 36.2256 16.144 35.9561 16.5482 35.9561H30.6284C31.0325 35.9561 31.3021 36.2256 31.3021 36.6297C31.3024 37.0339 31.0329 37.3034 30.6287 37.3034H30.6292ZM30.6292 29.7578H16.5482C16.144 29.7578 15.8745 29.421 15.8745 29.0842C15.8745 28.68 16.144 28.4105 16.5482 28.4105H30.6284C31.0325 28.4105 31.3021 28.68 31.3021 29.0842C31.3024 29.421 31.0329 29.7578 30.6287 29.7578H30.6292ZM30.6292 22.1449H16.5482C16.144 22.1449 15.8745 21.8754 15.8745 21.4712C15.8745 21.0671 16.144 20.7976 16.5482 20.7976H30.6284C31.0325 20.7976 31.3021 21.0671 31.3021 21.4712C31.3024 21.8081 31.0329 22.1449 30.6287 22.1449H30.6292Z" fill="#0174FF"/>
</svg>

