<svg width="38" height="32" viewBox="0 0 38 32" fill="none" xmlns="http://www.w3.org/2000/svg">
<path fill-rule="evenodd" clip-rule="evenodd" d="M7.23328 3.41939L4.00329 6.85235L9.39772 12.0251C12.3647 14.8703 15.6166 17.9762 16.6245 18.9276L18.4566 20.6576L21.7456 17.191L25.0345 13.7244L24.3432 13.0029C23.6876 12.3185 23.6123 12.3015 22.8893 12.6754C22.3532 12.9528 22.127 13.2715 22.127 13.7495C22.127 14.7601 19.3581 17.5903 18.3694 17.5903C17.769 17.5903 16.6029 16.6111 12.2754 12.473C8.57435 8.93358 6.92388 7.17909 6.92388 6.78381C6.92388 6.46427 7.58055 5.48674 8.41325 4.56629C10.5372 2.21941 10.5862 2.23221 14.7921 6.23089L18.2595 9.5273L19.0397 9.12695L19.8201 8.72633L15.3056 4.36998C12.8227 1.97403 10.7175 0.00749336 10.6273 2.51755e-05C10.5371 -0.00717629 9.00964 1.53154 7.23328 3.41939ZM18.3273 2.21381C17.0441 2.67577 15.994 3.13266 15.9935 3.22895C15.9929 3.32523 17.0198 4.33664 18.2755 5.47661C20.2071 7.2303 20.7064 7.5525 21.5194 7.56877C22.0478 7.57943 22.5252 7.72186 22.5804 7.88536C22.6356 8.0486 21.8058 8.69513 20.7368 9.32219C17.633 11.1423 17.0593 11.6424 17.0593 12.5268C17.0593 13.2923 17.6495 13.8562 18.4508 13.8562C18.6484 13.8562 20.1458 13.0712 21.7784 12.1118L24.7464 10.3675L31.1048 9.29072C34.602 8.6986 37.6072 8.16942 37.7832 8.11501C37.9851 8.05206 37.5074 6.94304 36.4867 5.1048L34.8706 2.19407L33.5 2.74032C31.2382 3.64183 28.2805 3.49274 24.6355 2.29356C23.008 1.75825 21.4476 1.3323 21.1681 1.34697C20.8886 1.36164 19.6102 1.75158 18.3273 2.21381ZM9.94743 6.2725C9.85915 6.50241 9.91489 6.81848 10.0712 6.97478C10.4859 7.38953 11.1914 7.02545 11.1914 6.39626C11.1914 5.73853 10.1904 5.63904 9.94743 6.2725ZM13.8288 8.65512C13.0731 9.0656 12.4223 10.3256 12.5701 11.0921C12.6208 11.3554 12.975 11.7461 13.3572 11.9609C13.9442 12.2903 14.184 12.2961 14.9015 11.999C15.735 11.6539 16.5258 10.5518 16.5258 9.73534C16.5258 9.17256 15.5656 8.25264 14.9922 8.26571C14.7353 8.27157 14.212 8.44681 13.8288 8.65512ZM24.9353 21.1305C22.0782 22.7601 22.0035 22.8265 21.7824 23.9444C21.417 25.793 20.6107 26.1232 16.4592 26.1243L13.0585 26.1253V25.4585V24.7917H16.2767C19.774 24.7917 20.5266 24.581 20.5266 23.6011C20.5266 22.2427 20.0823 22.1245 14.9765 22.1245H10.2646L5.19366 24.5594C2.40456 25.8986 0.0686219 27.0426 0.00300854 27.1015C-0.0626048 27.1605 0.953068 28.2834 2.26027 29.5967L4.63675 31.9844L5.31369 31.3371C7.12552 29.6042 10.7108 28.7925 16.5544 28.7925H19.6641L24.6024 25.1883C27.3184 23.2061 29.6157 21.3886 29.7074 21.1499C29.947 20.5255 29.1559 19.4571 28.4555 19.4592C28.1287 19.4603 26.5447 20.2121 24.9353 21.1305Z" fill="#0174FF"/>
</svg>
