<svg width="20" height="20" viewBox="0 0 20 20" fill="none" xmlns="http://www.w3.org/2000/svg">
<path d="M17.3908 7.33573C17.148 7.33573 16.9152 7.43217 16.7436 7.60382C16.5719 7.77547 16.4755 8.00828 16.4755 8.25104V16.4888C16.4755 16.7315 16.3791 16.9643 16.2074 17.136C16.0358 17.3077 15.8029 17.4041 15.5602 17.4041H2.74591C2.50316 17.4041 2.27035 17.3077 2.0987 17.136C1.92704 16.9643 1.83061 16.7315 1.83061 16.4888V3.67451C1.83061 3.43176 1.92704 3.19895 2.0987 3.02729C2.27035 2.85564 2.50316 2.75921 2.74591 2.75921H10.9837C11.2264 2.75921 11.4592 2.66277 11.6309 2.49112C11.8025 2.31947 11.899 2.08666 11.899 1.8439C11.899 1.60115 11.8025 1.36834 11.6309 1.19668C11.4592 1.02503 11.2264 0.928597 10.9837 0.928597H2.74591C2.01765 0.928597 1.31922 1.2179 0.80426 1.73286C0.289301 2.24782 0 2.94625 0 3.67451V16.4888C0 17.217 0.289301 17.9155 0.80426 18.4304C1.31922 18.9454 2.01765 19.2347 2.74591 19.2347H15.5602C16.2884 19.2347 16.9869 18.9454 17.5018 18.4304C18.0168 17.9155 18.3061 17.217 18.3061 16.4888V8.25104C18.3061 8.00828 18.2097 7.77547 18.038 7.60382C17.8664 7.43217 17.6335 7.33573 17.3908 7.33573ZM18.7729 2.03612L17.1986 0.461791C17.028 0.29098 16.8204 0.161693 16.5918 0.0839236C16.3633 0.00615451 16.1199 -0.0180124 15.8805 0.0132918C15.4396 0.0706283 15.0305 0.273579 14.7181 0.589934L8.23775 7.10691C8.05276 7.28782 7.90368 7.50211 7.7984 7.73847L6.5902 10.4844C6.44843 10.7834 6.40054 11.1183 6.45283 11.4451C6.50511 11.7719 6.65511 12.0751 6.88309 12.315C7.02798 12.4611 7.20056 12.5768 7.39074 12.6554C7.58091 12.734 7.78485 12.7739 7.99061 12.7726C8.24589 12.773 8.49843 12.72 8.73201 12.617L11.4779 11.4088C11.7134 11.3061 11.9276 11.1602 12.1095 10.9786L18.6082 4.47998C18.9462 4.17291 19.1521 3.74688 19.1829 3.29124C19.2136 2.8356 19.0667 2.38577 18.7729 2.03612ZM17.3359 3.22601L10.8281 9.72468C10.8101 9.74419 10.7883 9.75977 10.764 9.77044L8.45742 10.7773L9.51002 8.39749L16.0087 1.89882L17.3908 3.20771L17.3359 3.22601Z" fill="black"/>
</svg>
