<svg width="19" height="11" viewBox="0 0 19 11" fill="none" xmlns="http://www.w3.org/2000/svg">
<path d="M9.35232 10.4678C9.67033 10.4604 9.97426 10.3352 10.2051 10.1166L18.2317 2.41114C18.5616 2.09178 18.6966 1.62104 18.586 1.17534C18.4751 0.729671 18.1356 0.376698 17.6944 0.248847C17.2534 0.120967 16.7778 0.23765 16.4459 0.555221L9.31199 7.40759L2.1781 0.555221C1.8462 0.237651 1.37052 0.120973 0.929571 0.248847C0.48838 0.376727 0.148874 0.729677 0.0379925 1.17534C-0.0726414 1.62101 0.0624027 2.09174 0.39229 2.41114L8.41885 10.1166C8.6699 10.3547 9.00628 10.4812 9.35182 10.4678H9.35232Z" fill="white"/>
</svg>
