<svg width="24" height="24" viewBox="0 0 24 24" fill="none" xmlns="http://www.w3.org/2000/svg">
<path d="M11.7598 13.8877L11.4241 14.2234L11.7598 14.5592L12.0956 14.2234L11.7598 13.8877ZM12.2346 5.34113C12.2346 5.0789 12.022 4.86632 11.7598 4.86632C11.4976 4.86632 11.285 5.0789 11.285 5.34113L12.2346 5.34113ZM6.67598 9.47534L11.4241 14.2234L12.0956 13.552L7.34746 8.80386L6.67598 9.47534ZM12.0956 14.2234L16.8436 9.47534L16.1722 8.80386L11.4241 13.552L12.0956 14.2234ZM12.2346 13.8877L12.2346 5.34113L11.285 5.34113L11.285 13.8877L12.2346 13.8877Z" fill="#979797"/>
<path d="M5.11328 15.7871L5.11328 16.7367C5.11328 17.7856 5.9636 18.636 7.01252 18.636L16.5087 18.636C17.5576 18.636 18.4079 17.7856 18.4079 16.7367V15.7871" stroke="#979797" stroke-width="0.949618"/>
</svg>
