<svg width="24" height="20" viewBox="0 0 24 20" fill="none" xmlns="http://www.w3.org/2000/svg">
<path d="M10.5877 13.3664C10.4374 13.0879 10.3514 12.7761 10.3514 12.447C10.3514 12.1507 10.4393 11.8741 10.5656 11.6132C11.6882 10.8471 12.4457 9.47236 12.4457 7.88739C12.4457 5.47401 10.7066 3.51758 8.56142 3.51758C6.41614 3.51758 4.67714 5.47401 4.67714 7.88739C4.67714 9.47236 5.43457 10.8471 6.55723 11.6132C6.6835 11.8741 6.77135 12.1507 6.77135 12.447C6.77135 12.7761 6.68539 13.0879 6.53508 13.3664C3.229 13.8126 0.792862 15.3184 0.792862 17.1126V19.0547H16.33V17.1126C16.33 15.3184 13.8938 13.8126 10.5877 13.3664ZM15.2202 17.9449H1.90266V17.1126C1.90266 16.1289 3.6909 14.8701 6.68356 14.4662L7.2434 14.3906L7.51178 13.8934C7.75339 13.4456 7.88114 12.9455 7.88114 12.447C7.88114 12.0123 7.7748 11.5814 7.55614 11.1297L7.42717 10.8633L7.18278 10.6965C6.30871 10.1001 5.78694 9.04995 5.78694 7.88739C5.78694 6.0898 7.03153 4.62737 8.56142 4.62737C10.0912 4.62737 11.3359 6.0898 11.3359 7.88739C11.3359 9.04995 10.8141 10.1001 9.94006 10.6965L9.6956 10.8633L9.5667 11.1297C9.34798 11.5815 9.24163 12.0124 9.24163 12.447C9.24163 12.9455 9.36938 13.4456 9.61107 13.8934L9.87937 14.3906L10.4393 14.4662C13.4319 14.8701 15.2202 16.1289 15.2202 17.1126V17.9449V17.9449Z" fill="#0174FF" stroke="#0174FF" stroke-width="0.35861"/>
<path d="M21.917 4.62668V3.51688C21.917 1.67811 20.4264 0.1875 18.5877 0.1875C16.7489 0.1875 15.2583 1.67811 15.2583 3.51688V4.62668C14.6454 4.62668 14.1485 5.12352 14.1485 5.73647V10.1756C14.1485 10.7885 14.6454 11.2854 15.2583 11.2854H21.917C22.53 11.2854 23.0268 10.7885 23.0268 10.1756V5.73647C23.0268 5.12352 22.53 4.62668 21.917 4.62668ZM16.3681 3.51688C16.3681 2.29302 17.3638 1.29729 18.5877 1.29729C19.8116 1.29729 20.8072 2.29302 20.8072 3.51688V4.62668H16.3681V3.51688ZM21.917 10.1756H15.2583V5.73647H21.917V10.1756ZM17.4779 7.95606C17.4779 7.34311 17.9747 6.84626 18.5877 6.84626C19.2006 6.84626 19.6974 7.34311 19.6974 7.95606C19.6974 8.56894 19.2006 9.06585 18.5877 9.06585C17.9747 9.06585 17.4779 8.56894 17.4779 7.95606Z" fill="#0174FF" stroke="#0174FF" stroke-width="0.35861"/>
</svg>












