<svg width="32" height="28" viewBox="0 0 32 28" fill="none" xmlns="http://www.w3.org/2000/svg">
<path d="M10.0152 12.2414H21.1438C22.0619 12.2414 22.8131 11.4903 22.8131 10.5721C22.8131 9.84879 22.3456 9.22552 21.7002 8.99748V7.23357C21.7002 4.24005 19.5356 1.74732 16.6924 1.21868V1.11286C16.6924 0.500785 16.1916 0 15.5795 0C14.9674 0 14.4667 0.500785 14.4667 1.11286V1.21868C11.6234 1.74729 9.4588 4.24005 9.4588 7.23357V8.99748C8.81347 9.22552 8.34595 9.84879 8.34595 10.5721C8.34595 11.4903 9.09709 12.2414 10.0152 12.2414ZM13.5153 9.06432L15.3515 7.23357H14.4667C14.2441 7.23357 14.0382 7.09993 13.9547 6.88854C13.8658 6.68261 13.9157 6.4434 14.0714 6.28193L16.2972 4.05622C16.5143 3.83911 16.8702 3.83911 17.0873 4.05622C17.3045 4.27332 17.3045 4.62929 17.0873 4.84641L15.8076 6.12072H16.6924C16.9149 6.12072 17.1209 6.25437 17.2043 6.46576C17.2933 6.67169 17.2433 6.9109 17.0876 7.07237L14.3055 9.85451C14.1939 9.96008 14.0548 10.0157 13.9102 10.0157C13.7657 10.0157 13.6266 9.96009 13.5153 9.85426C13.2982 9.6374 13.2982 9.28119 13.5153 9.06432L13.5153 9.06432Z" fill="#3A416F"/>
<path d="M15.5793 15.0228C16.6154 15.0228 17.4783 14.3124 17.726 13.3535H13.4321C13.6803 14.3124 14.5433 15.0228 15.5794 15.0228H15.5793Z" fill="#3A416F"/>
<path d="M29.4907 7.78906H22.8135V8.34499C23.5001 8.86193 23.9264 9.68093 23.9264 10.5712C23.9264 12.1054 22.6784 13.3534 21.1442 13.3534H18.8373C18.8373 13.4463 18.8284 13.5397 18.8045 13.6321C18.4232 15.1056 17.0972 16.1355 15.58 16.1355C14.0627 16.1355 12.7372 15.1061 12.3554 13.6321C12.3316 13.5402 12.3226 13.4468 12.3226 13.3534H10.0157C8.48156 13.3534 7.23357 12.1054 7.23357 10.5712C7.23357 9.68093 7.65933 8.86193 8.34643 8.34499V7.78906H1.66928C0.748921 7.78906 0 8.53798 0 9.45835V26.1512C0 27.0716 0.748921 27.8205 1.66928 27.8205H29.4907C30.4111 27.8205 31.16 27.0716 31.16 26.1512V9.45835C31.16 8.53798 30.4111 7.78906 29.4907 7.78906H29.4907ZM29.243 24.5754C29.4984 24.7463 29.5679 25.0918 29.397 25.3472C29.2897 25.5082 29.1133 25.5949 28.9337 25.5949C28.8279 25.5949 28.7201 25.5643 28.6255 25.5015L18.9188 19.0297L15.889 21.05C15.7956 21.1119 15.6875 21.1437 15.5802 21.1437C15.4729 21.1437 15.3648 21.1119 15.2714 21.0503L12.2416 19.0298L2.53494 25.5015C2.4403 25.5644 2.33249 25.5949 2.22667 25.5949C2.04683 25.5949 1.87045 25.5082 1.76314 25.3473C1.59224 25.0919 1.66179 24.7464 1.91716 24.5754L11.2384 18.3613L1.91716 12.1472C1.6618 11.9763 1.59224 11.6308 1.76314 11.3754C1.9333 11.12 2.27883 11.0492 2.53496 11.2214L12.5462 17.8953C12.5472 17.8963 12.5485 17.8976 12.5502 17.8986L15.5802 19.9189L18.6105 17.8986C18.6122 17.8976 18.6132 17.8963 18.6145 17.8953L28.6257 11.2214C28.8811 11.0495 29.2266 11.12 29.3975 11.3754C29.5685 11.6307 29.4989 11.9763 29.2435 12.1472L19.9222 18.3613L29.243 24.5754Z" fill="#3A416F"/>
</svg>
