<svg width="23" height="23" viewBox="0 0 23 23" fill="none" xmlns="http://www.w3.org/2000/svg">
<path d="M16.5925 3.75978L19.24 6.40603L16.5925 3.75978ZM18.295 1.42853L11.1363 8.58728C10.7664 8.95666 10.5141 9.42726 10.4113 9.93978L9.75 13.2498L13.06 12.5873C13.5725 12.4848 14.0425 12.2335 14.4125 11.8635L21.5713 4.70478C21.7864 4.48966 21.957 4.23428 22.0734 3.95321C22.1899 3.67214 22.2498 3.37089 22.2498 3.06666C22.2498 2.76243 22.1899 2.46118 22.0734 2.18011C21.957 1.89904 21.7864 1.64366 21.5713 1.42853C21.3561 1.21341 21.1007 1.04277 20.8197 0.926345C20.5386 0.809922 20.2374 0.75 19.9331 0.75C19.6289 0.75 19.3276 0.809922 19.0466 0.926345C18.7655 1.04277 18.5101 1.21341 18.295 1.42853V1.42853Z" stroke="#0A0A0A" stroke-width="1.5" stroke-linecap="round" stroke-linejoin="round"/>
<path d="M19.75 15.75V19.5C19.75 20.163 19.4866 20.7989 19.0178 21.2678C18.5489 21.7366 17.913 22 17.25 22H3.5C2.83696 22 2.20107 21.7366 1.73223 21.2678C1.26339 20.7989 1 20.163 1 19.5V5.75C1 5.08696 1.26339 4.45107 1.73223 3.98223C2.20107 3.51339 2.83696 3.25 3.5 3.25H7.25" stroke="#0A0A0A" stroke-width="1.5" stroke-linecap="round" stroke-linejoin="round"/>
</svg>
