<svg width="20" height="20" viewBox="0 0 16 16" fill="none" xmlns="http://www.w3.org/2000/svg">
<path d="M13.6895 6.33932C13.5123 6.33932 13.3425 6.40951 13.2172 6.53445C13.092 6.65939 13.0216 6.82884 13.0216 7.00553V13.0014C13.0216 13.1781 12.9512 13.3475 12.826 13.4725C12.7007 13.5974 12.5309 13.6676 12.3537 13.6676H3.0036C2.82647 13.6676 2.6566 13.5974 2.53135 13.4725C2.4061 13.3475 2.33573 13.1781 2.33573 13.0014V3.6745C2.33573 3.49781 2.4061 3.32836 2.53135 3.20342C2.6566 3.07848 2.82647 3.00829 3.0036 3.00829H9.0144C9.19153 3.00829 9.36141 2.9381 9.48666 2.81316C9.61191 2.68823 9.68227 2.51878 9.68227 2.34209C9.68227 2.1654 9.61191 1.99595 9.48666 1.87101C9.36141 1.74607 9.19153 1.67588 9.0144 1.67588H3.0036C2.47221 1.67588 1.96259 1.88645 1.58684 2.26126C1.21109 2.63608 1 3.14443 1 3.6745V13.0014C1 13.5314 1.21109 14.0398 1.58684 14.4146C1.96259 14.7894 2.47221 15 3.0036 15H12.3537C12.8851 15 13.3947 14.7894 13.7705 14.4146C14.1462 14.0398 14.3573 13.5314 14.3573 13.0014V7.00553C14.3573 6.82884 14.287 6.65939 14.1617 6.53445C14.0365 6.40951 13.8666 6.33932 13.6895 6.33932ZM14.6979 2.48199L13.5492 1.33612C13.4247 1.21179 13.2733 1.11769 13.1065 1.06108C12.9397 1.00448 12.7622 0.98689 12.5875 1.00967C12.2658 1.05141 11.9673 1.19912 11.7393 1.42938L7.0108 6.17277C6.87582 6.30445 6.76705 6.46042 6.69023 6.63245L5.80864 8.63107C5.7052 8.84871 5.67026 9.09249 5.70841 9.33033C5.74655 9.56816 5.85601 9.7889 6.02236 9.96348C6.12808 10.0698 6.254 10.1541 6.39277 10.2113C6.53153 10.2685 6.68034 10.2975 6.83048 10.2966C7.01675 10.2969 7.20101 10.2583 7.37145 10.1833L9.37505 9.30394C9.5469 9.22916 9.7032 9.12296 9.83588 8.99082L14.5777 4.26076C14.8244 4.03726 14.9747 3.72717 14.9971 3.39553C15.0195 3.0639 14.9123 2.73649 14.6979 2.48199ZM13.6494 3.34806L8.90086 8.07812C8.88775 8.09232 8.87183 8.10366 8.85411 8.11143L7.17109 8.84426L7.93914 7.11212L12.681 2.38206L13.6895 3.33473L13.6494 3.34806Z" fill="#7E7C84" stroke="#7E7C84" stroke-width="0.492855"/>
</svg>
