<svg width="25" height="25" viewBox="0 0 25 25" fill="none" xmlns="http://www.w3.org/2000/svg">
<path d="M23.5213 5.77814L19.4449 1.68091C19.1755 1.4129 18.811 1.26245 18.431 1.26245C18.051 1.26245 17.6865 1.4129 17.4171 1.68091L2.96574 16.1115L1.6463 21.8059C1.60078 22.0141 1.60234 22.2298 1.65087 22.4373C1.69939 22.6447 1.79365 22.8388 1.92676 23.0052C2.05987 23.1715 2.22847 23.3061 2.42024 23.399C2.61201 23.4919 2.82211 23.5407 3.03519 23.542C3.13447 23.5521 3.23452 23.5521 3.3338 23.542L9.09074 22.2226L23.5213 7.80591C23.7893 7.53654 23.9398 7.17201 23.9398 6.79203C23.9398 6.41204 23.7893 6.04751 23.5213 5.77814ZM8.3963 20.9726L3.00047 22.1045L4.22963 16.8129L15.0421 6.04203L19.2088 10.2087L8.3963 20.9726ZM20.1394 9.20175L15.9727 5.03508L18.3894 2.6323L22.4866 6.79897L20.1394 9.20175Z" fill="#0174FF" stroke="#0174FF"/>
</svg>
