<svg width="42" height="29" viewBox="0 0 42 29" fill="none" xmlns="http://www.w3.org/2000/svg">
<path d="M37.3246 0.832031H5.04089C2.66218 0.832031 0.793213 2.70123 0.793213 5.07994V23.7702C0.793213 26.1492 2.66218 28.0181 5.04113 28.0181H37.3249C39.7036 28.0181 41.5728 26.1492 41.5728 23.7702V5.07994C41.5726 2.70123 39.7036 0.832031 37.3246 0.832031ZM15.746 15.9547L5.55122 24.4502C5.21124 24.6202 4.70149 24.6202 4.36174 24.2802C4.022 23.9405 4.19175 23.4307 4.53174 23.0907L14.7265 14.5953C15.0663 14.2555 15.576 14.4255 15.9158 14.7652C16.2558 15.105 16.0858 15.6147 15.746 15.9547H15.746ZM38.0045 24.2801C37.6647 24.6198 37.155 24.6198 36.815 24.4501L26.6202 15.9546C26.2805 15.6148 26.2805 15.1051 26.4502 14.7651C26.6202 14.4254 27.2997 14.4254 27.6397 14.5951L37.8345 23.0906C38.1745 23.4306 38.3442 23.9403 38.0045 24.2801ZM37.8345 5.75991L23.9014 15.2749C23.0519 15.7846 22.0324 16.1244 21.1829 16.1244C20.3335 16.1244 19.314 15.7846 18.4642 15.2749L4.53174 5.75991C4.19176 5.58992 4.022 4.91019 4.36174 4.57044C4.53174 4.23069 5.21123 4.0607 5.55122 4.40045L19.4837 13.916C20.5032 14.5957 21.8624 14.5957 22.8819 13.916L36.815 4.40103C37.1548 4.06128 37.6645 4.23104 38.0045 4.57102C38.3442 4.91054 38.1745 5.59027 37.8345 5.76026V5.75991Z" fill="#0174FF"/>
</svg>

