<svg width="559" height="559" viewBox="0 0 559 559" fill="none" xmlns="http://www.w3.org/2000/svg">
<path d="M279.503 478.012C399.222 478.012 496.272 472.346 496.272 465.356C496.272 458.367 399.222 452.701 279.503 452.701C159.785 452.701 62.7344 458.367 62.7344 465.356C62.7344 472.346 159.785 478.012 279.503 478.012Z" fill="#F5F5F5"/>
<path d="M176.206 276.638L175.178 276.202C175.986 274.427 176.532 272.544 176.799 270.612L177.917 270.735C177.637 272.775 177.06 274.764 176.206 276.638ZM175.77 263.848C174.73 261.525 173.112 259.506 171.071 257.986C169.03 256.465 166.633 255.493 164.109 255.161L164.288 254.043C166.995 254.403 169.565 255.45 171.753 257.084C173.941 258.718 175.674 260.885 176.788 263.378L175.77 263.848Z" fill="#407BFF"/>
<path d="M169.931 287.885L158.907 292.916L158.415 291.798C157.661 290.278 157.174 288.641 156.973 286.957C156.867 285.585 157.015 284.205 157.409 282.887C158.364 280.262 159.484 277.701 160.763 275.218C161.747 273.228 161.997 271.704 161.512 270.645C161.333 270.177 161.055 269.752 160.698 269.399C160.342 269.047 159.914 268.774 159.444 268.599C158.346 268.32 157.184 268.468 156.191 269.013C155.553 269.284 154.977 269.683 154.498 270.185C154.019 270.687 153.648 271.281 153.407 271.931C152.922 273.235 153.071 275.076 153.854 277.454L141.981 281.166C140.496 277.297 140.496 273.016 141.981 269.147C143.471 265.42 146.907 262.338 152.289 259.901C156.492 257.978 160.294 257.319 163.681 257.889C165.757 258.139 167.732 258.926 169.411 260.17C171.091 261.415 172.418 263.075 173.262 264.988C174.017 266.669 174.296 268.526 174.067 270.354C173.527 273.211 172.507 275.956 171.049 278.471C170.069 280.138 169.395 281.967 169.059 283.871C169.012 285.261 169.311 286.64 169.931 287.885ZM159.869 295.979L171.653 290.68L176.382 301.066L164.598 306.332L159.869 295.979Z" fill="#407BFF"/>
<path d="M142.699 312.738L137.109 320.34L136.393 319.748C135.303 318.991 134.347 318.058 133.565 316.986C132.971 316.092 132.55 315.095 132.324 314.046C131.962 311.898 131.75 309.728 131.686 307.55C131.597 305.817 131.183 304.688 130.457 304.196C130.151 303.937 129.793 303.748 129.407 303.642C129.02 303.535 128.616 303.515 128.221 303.581C127.365 303.805 126.628 304.35 126.163 305.102C125.83 305.528 125.588 306.017 125.452 306.54C125.315 307.063 125.287 307.609 125.37 308.143C125.758 309.572 126.602 310.836 127.773 311.743L121.065 318.797C118.582 316.726 116.946 313.813 116.47 310.614C116.06 307.528 117.231 304.118 119.981 300.384C121.687 297.825 124.126 295.841 126.98 294.693C128.489 294.07 130.135 293.851 131.754 294.059C133.374 294.267 134.911 294.894 136.214 295.878C137.371 296.736 138.269 297.897 138.808 299.232C139.526 301.395 139.873 303.662 139.837 305.94C139.798 307.461 140.033 308.975 140.53 310.412C141.047 311.357 141.793 312.156 142.699 312.738ZM138.931 322.084L144.923 313.945L152.101 319.233L146.109 327.372L138.931 322.084Z" fill="#407BFF"/>
<path d="M261.718 461.332C260.795 461.333 259.89 461.08 259.101 460.601C258.312 460.122 257.671 459.435 257.246 458.615C252.774 449.94 247.106 439.755 236.954 428.731C236.37 428.099 235.959 427.325 235.763 426.486C235.567 425.647 235.592 424.772 235.836 423.946C239.604 410.854 245.529 392.955 245.585 392.776C245.775 392.129 246.092 391.527 246.519 391.006C246.946 390.485 247.474 390.055 248.071 389.742C248.667 389.429 249.321 389.239 249.993 389.184C250.664 389.129 251.34 389.209 251.98 389.421C252.62 389.633 253.211 389.971 253.717 390.416C254.223 390.861 254.634 391.403 254.926 392.011C255.219 392.618 255.385 393.278 255.417 393.951C255.449 394.624 255.344 395.297 255.111 395.929C255.055 396.097 249.945 411.514 246.245 424.047C254.134 433.145 260.829 443.214 266.168 454.009C266.56 454.776 266.749 455.63 266.716 456.49C266.684 457.351 266.431 458.188 265.983 458.923C265.534 459.658 264.904 460.265 264.154 460.687C263.403 461.109 262.557 461.331 261.696 461.332H261.718Z" fill="#407BFF"/>
<path d="M270.067 465.356H231.172L251.788 453.662L269.061 454.333L270.067 465.356Z" fill="#676767"/>
<path d="M266.355 418.236C284.058 412.701 294.691 396.319 290.104 381.645C285.516 366.97 267.446 359.561 249.742 365.095C232.039 370.63 221.406 387.012 225.994 401.686C230.581 416.361 248.651 423.77 266.355 418.236Z" fill="#676767"/>
<path d="M169.547 373.412C168.389 373.408 167.269 373.003 166.375 372.267C165.482 371.531 164.87 370.509 164.644 369.374C164.417 368.238 164.591 367.06 165.134 366.037C165.677 365.015 166.556 364.212 167.624 363.764C168.493 363.401 169.256 362.824 169.842 362.087C170.428 361.35 170.819 360.477 170.978 359.549C171.078 358.457 171.534 357.429 172.275 356.621C173.016 355.813 174.002 355.271 175.081 355.077C176.326 354.823 177.557 354.506 178.77 354.127C185.568 352.148 193.986 349.655 220.483 357.101C246.622 342.488 246.924 315.075 246.924 313.89C246.923 312.561 247.449 311.287 248.385 310.344C249.321 309.402 250.592 308.868 251.921 308.859C253.245 308.859 254.515 309.382 255.455 310.313C256.395 311.245 256.929 312.51 256.941 313.834C256.941 315.299 256.784 349.711 223.401 366.939C222.263 367.529 220.941 367.657 219.711 367.297C194.445 360.007 187.289 362.087 181.621 363.753L180.078 364.2C179.332 366.176 178.19 367.978 176.721 369.495C175.252 371.012 173.487 372.212 171.537 373.021C170.907 373.285 170.23 373.418 169.547 373.412Z" fill="#676767"/>
<path d="M228.164 337.513C218.65 299.703 193.305 202.168 274.528 196.209C347.399 190.854 367.389 287.885 372.252 321.425C374.687 338.396 376.009 355.508 376.21 372.652C376.302 381.324 373.364 389.756 367.902 396.492C362.439 403.228 354.796 407.845 346.292 409.546C306.592 417.618 269.027 418.758 243.715 408.775C240.391 407.433 237.59 405.052 235.73 401.987C233.87 398.922 233.051 395.338 233.396 391.77C234.369 380.948 234.391 362.232 228.164 337.513Z" fill="#97B7FF"/>
<path opacity="0.1" d="M372.294 321.448C367.711 289.786 349.688 201.822 286.589 196.232C282.989 195.867 279.362 196.576 276.165 198.269C272.968 199.962 270.343 202.563 268.622 205.746C265.805 211.202 265.894 217.809 270.109 224.349C283.972 245.96 317.143 320.497 312.135 361.114C309.899 379.595 298.26 394.352 308.345 415.125C321.092 414.009 333.762 412.142 346.29 409.535C354.794 407.834 362.437 403.217 367.899 396.481C373.362 389.745 376.3 381.313 376.207 372.641C376.02 355.509 374.713 338.409 372.294 321.448Z" fill="black"/>
<path d="M361.386 373.177C361.254 373.177 361.128 373.126 361.034 373.034C360.94 372.942 360.885 372.817 360.883 372.685C360.692 355.564 359.374 338.474 356.936 321.526C344.862 238.056 312.361 195.851 262.912 199.496C262.846 199.501 262.78 199.492 262.717 199.471C262.654 199.45 262.596 199.416 262.546 199.373C262.496 199.329 262.456 199.276 262.426 199.217C262.397 199.157 262.38 199.093 262.376 199.026C262.369 198.894 262.415 198.764 262.502 198.664C262.59 198.564 262.713 198.501 262.845 198.49C312.876 194.8 345.767 237.307 357.875 321.38C360.311 338.374 361.633 355.508 361.833 372.674C361.833 372.808 361.78 372.936 361.686 373.03C361.591 373.124 361.463 373.177 361.33 373.177H361.386Z" fill="#676767"/>
<path d="M360.628 420.899C378.332 415.364 388.964 398.982 384.377 384.308C379.79 369.634 361.719 362.224 344.016 367.758C326.312 373.293 315.68 389.675 320.267 404.349C324.855 419.024 342.925 426.433 360.628 420.899Z" fill="#676767"/>
<path d="M363.691 461.332C362.768 461.334 361.862 461.081 361.073 460.602C360.284 460.123 359.643 459.435 359.219 458.615C354.747 449.939 349.079 439.754 338.916 428.731C338.337 428.095 337.929 427.322 337.733 426.484C337.538 425.646 337.56 424.772 337.798 423.946C341.577 410.854 347.491 392.955 347.559 392.776C347.766 392.151 348.094 391.573 348.524 391.075C348.954 390.578 349.478 390.169 350.067 389.874C350.655 389.579 351.295 389.402 351.952 389.354C352.608 389.306 353.267 389.388 353.892 389.595C354.517 389.802 355.095 390.13 355.593 390.561C356.09 390.991 356.499 391.515 356.794 392.103C357.089 392.691 357.266 393.332 357.314 393.988C357.362 394.645 357.28 395.304 357.073 395.929C357.017 396.096 351.919 411.514 348.218 424.046C356.108 433.142 362.8 443.212 368.13 454.009C368.522 454.775 368.711 455.63 368.679 456.49C368.646 457.35 368.394 458.188 367.945 458.923C367.496 459.658 366.866 460.265 366.116 460.687C365.365 461.108 364.519 461.331 363.658 461.332H363.691Z" fill="#407BFF"/>
<path d="M353.157 308.468C352.036 308.468 350.947 308.093 350.063 307.403C349.179 306.712 348.553 305.746 348.282 304.657C348.012 303.569 348.114 302.421 348.572 301.398C349.03 300.374 349.818 299.533 350.809 299.009C351.771 298.495 373.606 286.566 379.732 257.9C365.198 251.819 339.015 238.078 333.29 231.169C332.727 230.501 332.342 229.701 332.172 228.844C331.511 224.715 331.896 220.487 333.29 216.546L330.652 211.448C330.041 210.262 329.927 208.881 330.333 207.611C330.74 206.34 331.635 205.283 332.821 204.672C334.007 204.062 335.387 203.947 336.658 204.354C337.928 204.761 338.985 205.655 339.596 206.841L343.386 214.175C343.794 214.943 343.994 215.804 343.966 216.673C343.939 217.541 343.685 218.388 343.229 219.128C342.206 221.172 341.773 223.46 341.977 225.736C348.428 231.56 374.399 245.345 387.178 250.074C388.261 250.476 389.173 251.239 389.757 252.236C390.342 253.232 390.564 254.4 390.387 255.541C384.718 292.178 356.69 307.271 355.505 307.897C354.781 308.276 353.975 308.472 353.157 308.468Z" fill="#676767"/>
<path d="M337.16 230.476C336.709 230.474 336.267 230.351 335.88 230.119C335.493 229.887 335.175 229.556 334.96 229.159C334.745 228.762 334.641 228.315 334.658 227.864C334.675 227.414 334.814 226.976 335.058 226.597C335.237 226.328 339.374 220.079 345.679 218.391C345.997 218.305 346.329 218.284 346.655 218.327C346.981 218.37 347.296 218.476 347.581 218.641C347.866 218.806 348.115 219.025 348.316 219.286C348.516 219.547 348.663 219.845 348.748 220.163C348.833 220.48 348.855 220.812 348.812 221.138C348.769 221.464 348.662 221.779 348.498 222.064C348.333 222.349 348.114 222.599 347.853 222.799C347.592 222.999 347.294 223.146 346.976 223.231C342.582 224.417 339.284 229.291 339.262 229.336C339.034 229.686 338.723 229.974 338.356 230.173C337.989 230.372 337.578 230.476 337.16 230.476Z" fill="#676767"/>
<path d="M372.036 465.356H333.141L353.757 453.662L371.03 454.333L372.036 465.356Z" fill="#676767"/>
<path d="M290.587 315.56C305.299 314.257 316.275 302.466 315.103 289.224C313.93 275.982 301.053 266.304 286.341 267.606C271.63 268.909 260.654 280.7 261.826 293.942C262.999 307.184 275.876 316.862 290.587 315.56Z" fill="white"/>
<path d="M285.594 306.831C289.495 305.72 291.018 299.061 288.995 291.959C286.972 284.857 282.169 280 278.267 281.112C274.366 282.223 272.843 288.882 274.866 295.984C276.889 303.086 281.692 307.943 285.594 306.831Z" fill="#676767"/>
<path d="M258.037 296.114C274.919 293.945 308.347 284.408 313.859 280.562C309.521 267.862 289.263 256.995 271.241 263.122C254.907 268.633 258.037 296.114 258.037 296.114Z" fill="#676767"/>
<path d="M261.312 304.275C282.275 300.295 309.521 293.61 317.313 289.328C316.832 302.99 312.841 316.842 291.465 321.526C273.979 325.338 261.312 304.275 261.312 304.275Z" fill="#676767"/>
<path d="M244.047 317.408C251.627 312.392 252.626 300.55 246.278 290.956C239.931 281.363 228.641 277.652 221.061 282.667C213.481 287.682 212.481 299.525 218.829 309.118C225.176 318.711 236.467 322.423 244.047 317.408Z" fill="white"/>
<path d="M232.927 300.384C234.19 306.377 233.094 311.374 230.467 311.564C227.84 311.754 224.687 307.025 223.412 301.033C222.138 295.04 223.245 290.054 225.861 289.853C228.477 289.652 231.652 294.392 232.927 300.384Z" fill="#676767"/>
<path d="M212.142 298.093C223.467 299.423 245.962 297.936 249.696 295.857C246.934 285.09 233.541 272.792 221.366 274.358C210.387 275.766 212.142 298.093 212.142 298.093Z" fill="#676767"/>
<path d="M214.242 305.147C228.318 305.784 246.664 305.427 251.896 303.448C251.416 314.192 248.598 324.433 234.221 324.265C222.482 324.131 214.242 305.147 214.242 305.147Z" fill="#676767"/>
<path d="M295.255 256.357C282.462 256.427 269.95 252.606 259.378 245.401C258.318 244.599 257.62 243.409 257.438 242.092C257.256 240.775 257.604 239.44 258.406 238.38C259.208 237.32 260.398 236.622 261.715 236.44C263.032 236.257 264.367 236.605 265.427 237.407C277.259 245.124 291.614 247.972 305.496 245.356C306.143 245.234 306.807 245.24 307.452 245.374C308.096 245.508 308.708 245.768 309.252 246.139C309.796 246.509 310.261 246.983 310.622 247.534C310.983 248.085 311.232 248.701 311.354 249.348C311.477 249.994 311.471 250.659 311.337 251.303C311.202 251.948 310.943 252.559 310.572 253.103C310.201 253.647 309.727 254.113 309.177 254.474C308.626 254.834 308.01 255.083 307.363 255.206C303.372 255.966 299.318 256.351 295.255 256.357Z" fill="#676767"/>
<path d="M205.584 247.715C204.781 247.711 203.991 247.515 203.28 247.144C202.568 246.772 201.956 246.235 201.494 245.579C201.032 244.922 200.734 244.165 200.625 243.369C200.516 242.574 200.598 241.764 200.866 241.007C203.516 233.606 207.932 228.81 213.969 226.731C224.903 222.963 236.687 230.286 237.19 230.599C238.288 231.32 239.059 232.444 239.338 233.728C239.617 235.012 239.382 236.354 238.682 237.467C237.983 238.579 236.875 239.373 235.597 239.677C234.318 239.982 232.972 239.773 231.846 239.096C229.61 237.676 222.488 234.389 217.2 236.222C214.159 237.285 211.901 239.957 210.302 244.406C209.95 245.376 209.309 246.213 208.465 246.805C207.621 247.397 206.615 247.715 205.584 247.715Z" fill="#676767"/>
<path d="M245.099 332.326C244.959 332.325 244.819 332.303 244.686 332.259C244.306 332.152 243.985 331.899 243.792 331.555C243.599 331.211 243.55 330.805 243.657 330.425C244.101 329.216 244.781 328.106 245.656 327.16C246.53 326.214 247.584 325.451 248.755 324.913C254.502 321.951 263.289 322.566 274.816 326.736C275.002 326.803 275.173 326.907 275.319 327.041C275.465 327.175 275.584 327.336 275.667 327.516C275.75 327.696 275.797 327.891 275.804 328.089C275.811 328.287 275.78 328.484 275.71 328.67C275.644 328.856 275.541 329.027 275.409 329.173C275.276 329.319 275.115 329.437 274.936 329.52C274.757 329.604 274.563 329.65 274.366 329.658C274.169 329.665 273.972 329.634 273.787 329.564C260.561 324.779 253.663 325.808 250.309 327.53C248.634 328.24 247.303 329.576 246.597 331.253C246.501 331.572 246.302 331.85 246.031 332.044C245.76 332.239 245.432 332.338 245.099 332.326Z" fill="#676767"/>
<path d="M197.752 326.814C180.258 328.368 163.244 333.365 147.688 341.516C156.318 339.883 187.209 378.108 195.147 407.578C209.804 402.156 226.887 398.455 245.099 395.56C234.064 365.184 213.884 330.761 197.752 326.814Z" fill="#407BFF"/>
<path opacity="0.6" d="M197.752 326.814C180.258 328.368 163.244 333.365 147.688 341.516C156.318 339.883 187.209 378.108 195.147 407.578C209.804 402.156 226.887 398.455 245.099 395.56C234.064 365.184 213.884 330.761 197.752 326.814Z" fill="white"/>
<path d="M197.754 326.814C178.659 324.656 147.656 340.644 147.656 340.644C142.167 344.143 143.654 350.706 146.65 353.49C149.524 349.364 181.565 338.631 193.606 337.189C187.625 331.644 193.193 327.574 197.754 326.814Z" fill="#407BFF"/>
<path opacity="0.2" d="M197.754 326.814C178.659 324.656 147.656 340.644 147.656 340.644C142.167 344.143 143.654 350.706 146.65 353.49C149.524 349.364 181.565 338.631 193.606 337.189C187.625 331.644 193.193 327.574 197.754 326.814Z" fill="white"/>
<path d="M169.559 373.412C168.726 373.415 167.906 373.213 167.171 372.823C166.436 372.433 165.808 371.867 165.344 371.176C161.71 365.586 163.98 357.1 164.472 355.446C164.891 354.219 165.769 353.201 166.921 352.606C168.074 352.012 169.412 351.886 170.655 352.256C171.898 352.626 172.949 353.463 173.589 354.591C174.229 355.719 174.407 357.051 174.087 358.308C173.271 361.114 173.103 364.703 173.751 365.687C174.477 366.802 174.731 368.159 174.456 369.461C174.181 370.763 173.401 371.903 172.287 372.629C171.475 373.154 170.525 373.426 169.559 373.412Z" fill="#676767"/>
<path d="M152.419 154.217H135.492V146.581L152.419 126.457H160.513V147.017H164.706V154.217H160.513V160.467H152.419V154.217ZM152.419 147.017V136.497L143.475 147.017H152.419Z" fill="#407BFF"/>
<path d="M217.052 154.217H200.125V146.581L217.052 126.457H225.146V147.017H229.338V154.217H225.146V160.467H217.052V154.217ZM217.052 147.017V136.497L208.108 147.017H217.052Z" fill="#407BFF"/>
<path d="M167.602 143.618C167.602 137.268 168.747 132.822 171.035 130.281C173.323 127.739 176.807 126.468 181.488 126.468C183.387 126.404 185.281 126.688 187.078 127.307C188.39 127.779 189.592 128.513 190.611 129.465C191.467 130.286 192.195 131.232 192.769 132.271C193.33 133.358 193.754 134.511 194.032 135.703C194.663 138.263 194.975 140.892 194.96 143.529C194.96 149.589 193.935 154.027 191.885 156.844C189.836 159.662 186.288 161.044 181.242 160.992C178.895 161.09 176.558 160.63 174.422 159.651C172.673 158.738 171.199 157.376 170.151 155.704C169.223 154.148 168.586 152.436 168.273 150.651C167.81 148.336 167.585 145.979 167.602 143.618ZM176.815 143.618C176.815 147.882 177.187 150.789 177.933 152.339C178.178 153.014 178.622 153.6 179.207 154.017C179.792 154.434 180.49 154.664 181.209 154.675C181.663 154.684 182.114 154.6 182.535 154.429C182.956 154.258 183.337 154.003 183.657 153.68C184.458 152.807 184.986 151.719 185.177 150.55C185.575 148.337 185.74 146.089 185.669 143.842C185.669 139.37 185.3 136.419 184.551 134.898C184.279 134.233 183.814 133.665 183.217 133.267C182.619 132.868 181.916 132.658 181.197 132.662C180.462 132.642 179.74 132.858 179.136 133.279C178.533 133.699 178.08 134.302 177.843 134.999C177.165 136.542 176.822 139.422 176.815 143.641V143.618Z" fill="#407BFF"/>
<path d="M246.953 127.039H274.635V134.16H257.306V139.482H273.383V146.302H257.306V152.887H275.138V160.456H246.953V127.039Z" fill="#676767"/>
<path d="M280.844 160.467V127.039H298.061C300.529 126.951 302.997 127.23 305.384 127.866C307.048 128.39 308.487 129.461 309.465 130.907C310.204 131.969 310.717 133.171 310.972 134.44C311.227 135.708 311.217 137.016 310.945 138.281C310.672 139.546 310.142 140.741 309.387 141.792C308.632 142.843 307.669 143.727 306.558 144.39C305.426 145.017 304.204 145.465 302.935 145.72C303.887 145.993 304.791 146.408 305.619 146.95C306.239 147.467 306.794 148.056 307.273 148.705C307.826 149.348 308.313 150.045 308.727 150.785L313.724 160.467H302.052L296.529 150.248C296.094 149.27 295.458 148.394 294.662 147.677C293.92 147.164 293.037 146.894 292.136 146.905H291.219V160.467H280.844ZM291.219 140.589H295.579C296.5 140.516 297.413 140.362 298.307 140.13C298.977 140 299.575 139.626 299.984 139.079C300.486 138.42 300.726 137.598 300.657 136.773C300.589 135.947 300.218 135.176 299.615 134.607C298.455 133.915 297.103 133.613 295.758 133.747H291.219V140.589Z" fill="#676767"/>
<path d="M317.164 160.467V127.038H334.381C336.85 126.95 339.318 127.229 341.704 127.866C343.369 128.389 344.807 129.461 345.785 130.907C346.522 131.969 347.033 133.171 347.287 134.438C347.54 135.706 347.531 137.012 347.26 138.276C346.988 139.54 346.46 140.734 345.709 141.786C344.957 142.838 343.997 143.724 342.889 144.39C341.754 145.018 340.528 145.467 339.256 145.72C341.039 146.105 342.597 147.177 343.594 148.705C344.146 149.348 344.633 150.045 345.047 150.785L350.044 160.467H338.373L332.85 150.248C332.414 149.27 331.778 148.394 330.983 147.677C330.241 147.164 329.358 146.894 328.456 146.905H327.573V160.467H317.164ZM327.573 140.589H331.933C332.854 140.516 333.767 140.362 334.661 140.13C335.333 140.005 335.932 139.63 336.338 139.079C336.839 138.42 337.079 137.598 337.011 136.772C336.943 135.947 336.572 135.175 335.969 134.607C334.81 133.911 333.457 133.609 332.112 133.746H327.573V140.589Z" fill="#676767"/>
<path d="M351.252 143.775C351.252 138.319 352.773 134.071 355.814 131.03C358.855 127.989 363.088 126.468 368.514 126.468C374.082 126.468 378.371 127.959 381.383 130.94C384.394 133.922 385.884 138.107 385.855 143.495C386.007 146.828 385.343 150.148 383.92 153.166C382.642 155.638 380.657 157.673 378.219 159.013C375.345 160.453 372.151 161.134 368.939 160.992C365.725 161.102 362.526 160.486 359.582 159.192C357.05 157.938 354.955 155.951 353.567 153.49C351.94 150.517 351.141 147.162 351.252 143.775ZM361.583 143.775C361.583 147.151 362.213 149.577 363.472 151.053C364.135 151.746 364.931 152.298 365.813 152.675C366.695 153.052 367.645 153.247 368.604 153.247C369.563 153.247 370.512 153.052 371.394 152.675C372.276 152.298 373.073 151.746 373.735 151.053C374.95 149.607 375.562 146.998 375.569 143.227C375.569 140.089 374.932 137.79 373.657 136.329C373.012 135.606 372.213 135.037 371.32 134.661C370.426 134.286 369.46 134.115 368.492 134.16C367.542 134.127 366.597 134.312 365.729 134.699C364.861 135.087 364.093 135.667 363.483 136.396C362.231 137.972 361.583 140.421 361.583 143.82V143.775Z" fill="#676767"/>
<path d="M391.602 160.467V127.038H408.808C411.276 126.95 413.744 127.229 416.13 127.866C417.797 128.386 419.236 129.459 420.211 130.907C421.284 132.503 421.828 134.396 421.765 136.318C421.811 137.998 421.401 139.659 420.58 141.125C419.786 142.473 418.663 143.596 417.316 144.39C416.184 145.016 414.962 145.465 413.693 145.72C414.644 145.993 415.549 146.408 416.376 146.95C416.994 147.469 417.549 148.058 418.031 148.705C418.581 149.348 419.064 150.045 419.473 150.785L424.482 160.467H412.81L407.287 150.248C406.847 149.272 406.212 148.397 405.42 147.677C404.674 147.164 403.788 146.894 402.882 146.905H401.977V160.467H391.602ZM401.977 140.589H406.326C407.25 140.516 408.167 140.362 409.065 140.13C409.735 140 410.333 139.625 410.742 139.079C411.173 138.528 411.401 137.845 411.39 137.145C411.418 136.679 411.34 136.212 411.162 135.781C410.983 135.349 410.71 134.963 410.362 134.652C409.203 133.956 407.849 133.654 406.505 133.791H401.977V140.589Z" fill="#676767"/>
</svg>
