<svg width="53" height="53" viewBox="0 0 53 53" fill="none" xmlns="http://www.w3.org/2000/svg">
<path d="M8.13828 27.5069C10.6749 26.5575 11.4427 25.1701 11.1579 22.635C11.1061 22.1791 10.7781 20.7128 10.7781 20.7128C10.6523 20.1501 10.8744 19.3484 11.2712 18.9301C11.2712 18.9301 12.6541 17.4848 18.2044 15.9465C23.8801 14.462 25.8273 15.0307 25.8273 15.0307C26.3807 15.1941 26.9737 15.7782 27.1448 16.3283C27.1448 16.3283 27.5942 17.7624 27.7791 18.1822C28.8005 20.5198 30.1581 21.3382 32.8282 20.892C36.3907 20.2985 39.3067 19.0579 37.876 13.7176C37.332 11.6846 35.5837 10.1268 33.5255 9.59454C33.5255 9.59454 26.8588 7.05706 16.6235 9.80044C6.39027 12.541 1.88463 18.0722 1.88463 18.0722C0.368088 19.5612 -0.366005 21.7848 0.179621 23.8178C1.61032 29.1581 4.75701 28.7742 8.13825 27.5069L8.13828 27.5069Z" fill="black"/>
<path d="M45.4453 11.5991C45.0731 10.3003 44.3563 9.11021 43.3697 8.15513C42.3965 7.21789 41.1834 6.54477 39.8619 6.20822C39.1062 6.01527 38.3397 6.47277 38.1471 7.22758C37.9558 7.9828 38.4121 8.75055 39.1673 8.94233C40.0143 9.15793 40.791 9.58833 41.4103 10.185C42.0401 10.7938 42.4976 11.5518 42.733 12.3758C42.968 13.201 42.9821 14.0876 42.7718 14.9371C42.5619 15.7792 42.1335 16.549 41.5344 17.1651C40.9904 17.7225 41.0025 18.6153 41.5607 19.1594C41.835 19.4267 42.1905 19.5594 42.5449 19.5594C42.9118 19.5594 43.2791 19.4166 43.5561 19.1331C44.5043 18.1598 45.1799 16.9447 45.5099 15.6155C45.84 14.2867 45.8173 12.8972 45.4452 11.5991L45.4453 11.5991Z" fill="black"/>
<path d="M51.5502 9.84546C50.8654 7.4573 49.5629 5.29116 47.7843 3.58128C46.002 1.86332 43.7938 0.638898 41.4007 0.0430493C40.6439 -0.147883 39.8797 0.314474 39.6904 1.0701C39.5027 1.82572 39.9622 2.5911 40.7179 2.77956C42.6328 3.25688 44.3985 4.23615 45.828 5.61352C47.2495 6.97992 48.2902 8.71206 48.8372 10.6225C49.3865 12.5326 49.4217 14.5535 48.9391 16.4685C48.459 18.3854 47.4788 20.1559 46.1056 21.5903C45.5668 22.153 45.5858 23.0458 46.1485 23.5846C46.4223 23.8467 46.7742 23.9765 47.1245 23.9765C47.4951 23.9765 47.8664 23.8309 48.1439 23.5409C49.8546 21.7538 51.077 19.5452 51.6756 17.1558C52.2779 14.7615 52.2354 12.2329 51.5502 9.84548V9.84546Z" fill="black"/>
<path d="M33.5072 32.4362V32.5583L28.9436 28.5488C28.4545 28.1213 28.0545 27.2354 28.0545 26.587V24.7772C28.0545 23.7485 27.2204 22.9141 26.1937 22.9141C25.1642 22.9141 24.331 23.7486 24.331 24.7772V26.587C24.331 27.2358 23.7987 27.7702 23.149 27.7702H19.8454C19.195 27.7702 18.6635 27.2363 18.6635 26.587V24.7772C18.6635 23.7485 17.829 22.9141 16.8003 22.9141C15.7721 22.9141 14.9388 23.7486 14.9388 24.7772V26.587C14.9388 27.2358 14.5338 28.1153 14.0403 28.5384L9.60171 32.3376L5.85596 35.5433C4.62056 36.5994 3.61133 38.7955 3.61133 40.4196V45.2005V48.6955C3.61133 50.6169 5.73905 52.1912 8.33918 52.1912H34.3664C36.9661 52.1912 39.0927 50.5906 39.0927 48.6364V45.432V45.0792V40.2992C39.0927 38.6731 38.0936 36.4665 36.8727 35.3946L33.5072 32.4362ZM21.352 45.4156C17.4562 45.4156 14.2998 42.2621 14.2998 38.3638C14.2998 34.4697 17.4561 31.312 21.352 31.312C25.2479 31.312 28.4058 34.4696 28.4058 38.3638C28.4042 42.2609 25.2478 45.4156 21.352 45.4156Z" fill="black"/>
<path d="M24.9484 38.3613C24.9484 40.3467 23.3389 41.9566 21.3531 41.9566C19.3674 41.9566 17.7578 40.3467 17.7578 38.3613C17.7578 36.3756 19.3674 34.7656 21.3531 34.7656C23.3389 34.7656 24.9484 36.3756 24.9484 38.3613Z" fill="black"/>
</svg>



