<svg width="8" height="12" viewBox="0 0 8 12" fill="none" xmlns="http://www.w3.org/2000/svg">
<path d="M7.14 6.75299L1.658 11.549C1.013 12.115 3.67706e-07 11.655 3.67706e-07 10.796L3.67706e-07 1.20399C-0.000164459 1.01174 0.0550878 0.823527 0.159141 0.661877C0.263194 0.500226 0.411637 0.371996 0.586693 0.29254C0.761749 0.213083 0.955998 0.185771 1.14618 0.213873C1.33636 0.241975 1.51441 0.3243 1.659 0.450989L7.139 5.24699C7.24641 5.34085 7.3325 5.4566 7.39148 5.58648C7.45046 5.71636 7.48098 5.85735 7.48098 5.99999C7.48098 6.14263 7.45046 6.28362 7.39148 6.4135C7.3325 6.54337 7.24641 6.65913 7.139 6.75299H7.14Z" fill="#9E9E9E"/>
</svg>
