<svg width="60" height="60" viewBox="0 0 60 60" fill="none" xmlns="http://www.w3.org/2000/svg">
<path fill-rule="evenodd" clip-rule="evenodd" d="M30 60C46.5685 60 60 46.5685 60 30C60 13.4315 46.5685 0 30 0C13.4315 0 0 13.4315 0 30C0 46.5685 13.4315 60 30 60ZM44.1016 20.6402C44.4551 20.2159 44.3978 19.5853 43.9735 19.2318C43.5492 18.8782 42.9187 18.9355 42.5651 19.3598L27.3005 37.6774C26.9538 38.0934 26.7589 38.3238 26.6032 38.4653L26.5973 38.4707L26.5909 38.4659C26.4231 38.339 26.2081 38.1272 25.8252 37.7443L17.3738 29.2929C16.9832 28.9024 16.3501 28.9024 15.9596 29.2929C15.569 29.6834 15.569 30.3166 15.9596 30.7071L24.4109 39.1585L24.4518 39.1993C24.7783 39.526 25.0924 39.8402 25.3846 40.0611C25.712 40.3087 26.1407 40.5415 26.6901 40.5165C27.2395 40.4916 27.6454 40.221 27.949 39.9448C28.22 39.6983 28.5044 39.3569 28.8 39.0021L28.8369 38.9577L44.1016 20.6402Z" fill="#27AE60"/>
</svg>
