<svg width="20" height="20" viewBox="0 0 20 20" fill="none" xmlns="http://www.w3.org/2000/svg">
<path d="M7.5 5C7.5 5.3283 7.56466 5.65339 7.6903 5.95671C7.81594 6.26002 8.00009 6.53562 8.23223 6.76777C8.46438 6.99991 8.73998 7.18406 9.04329 7.3097C9.34661 7.43534 9.6717 7.5 10 7.5C10.3283 7.5 10.6534 7.43534 10.9567 7.3097C11.26 7.18406 11.5356 6.99991 11.7678 6.76777C11.9999 6.53562 12.1841 6.26002 12.3097 5.95671C12.4353 5.65339 12.5 5.3283 12.5 5C12.5 4.67169 12.4353 4.3466 12.3097 4.04329C12.1841 3.73998 11.9999 3.46438 11.7678 3.23223C11.5356 3.00009 11.26 2.81594 10.9567 2.6903C10.6534 2.56466 10.3283 2.5 10 2.5C9.67169 2.5 9.3466 2.56466 9.04329 2.6903C8.73998 2.81594 8.46438 3.00009 8.23223 3.23223C8.00009 3.46438 7.81594 3.73998 7.6903 4.04329C7.56466 4.34661 7.5 4.6717 7.5 5L7.5 5Z" stroke="#979797" stroke-width="1.5"/>
<path d="M3.69822 11.5845C3.4139 11.7487 3.16469 11.9672 2.96483 12.2277C2.76498 12.4882 2.61837 12.7854 2.5334 13.1026C2.44843 13.4197 2.42675 13.7504 2.46961 14.0759C2.51246 14.4014 2.619 14.7153 2.78315 14.9996C2.94731 15.2839 3.16585 15.5331 3.42631 15.733C3.68678 15.9329 3.98405 16.0795 4.30117 16.1644C4.61829 16.2494 4.94904 16.2711 5.27453 16.2282C5.60003 16.1854 5.9139 16.0788 6.19822 15.9147C6.48254 15.7505 6.73174 15.532 6.9316 15.2715C7.13146 15.0111 7.27806 14.7138 7.36303 14.3967C7.448 14.0795 7.46968 13.7488 7.42683 13.4233C7.38398 13.0978 7.27743 12.7839 7.11328 12.4996C6.94913 12.2153 6.73058 11.9661 6.47012 11.7662C6.20966 11.5664 5.91238 11.4198 5.59526 11.3348C5.27815 11.2498 4.9474 11.2281 4.6219 11.271C4.2964 11.3138 3.98254 11.4204 3.69822 11.5845L3.69822 11.5845Z" stroke="#979797" stroke-width="1.5"/>
<path d="M16.3018 11.5845C16.5861 11.7487 16.8353 11.9672 17.0352 12.2277C17.235 12.4882 17.3816 12.7854 17.4666 13.1026C17.5516 13.4197 17.5732 13.7504 17.5304 14.0759C17.4875 14.4014 17.381 14.7153 17.2168 14.9996C17.0527 15.2839 16.8341 15.5331 16.5737 15.733C16.3132 15.9329 16.0159 16.0795 15.6988 16.1644C15.3817 16.2494 15.051 16.2711 14.7255 16.2282C14.4 16.1854 14.0861 16.0788 13.8018 15.9147C13.5175 15.7505 13.2683 15.532 13.0684 15.2715C12.8685 15.0111 12.7219 14.7138 12.637 14.3967C12.552 14.0795 12.5303 13.7488 12.5732 13.4233C12.616 13.0978 12.7226 12.7839 12.8867 12.4996C13.0509 12.2153 13.2694 11.9661 13.5299 11.7662C13.7903 11.5664 14.0876 11.4198 14.4047 11.3348C14.7219 11.2498 15.0526 11.2281 15.3781 11.271C15.7036 11.3139 16.0175 11.4204 16.3018 11.5845L16.3018 11.5845Z" stroke="#979797" stroke-width="1.5"/>
<path fill-rule="evenodd" clip-rule="evenodd" d="M7.53981 5.45212C7.51249 5.30343 7.49864 5.15222 7.49864 5.00031C7.49864 4.67201 7.56331 4.34692 7.68894 4.0436C7.73264 3.93811 7.78342 3.83596 7.84083 3.73783C7.61063 3.80784 7.38356 3.88913 7.16046 3.98154C6.26063 4.35426 5.44302 4.90057 4.75432 5.58927C4.06562 6.27797 3.51931 7.09558 3.14659 7.99541C2.77387 8.89525 2.58203 9.85968 2.58203 10.8337C2.58203 11.4001 2.64692 11.9633 2.77455 12.5125C2.83083 12.4137 2.89391 12.3187 2.96344 12.2281C3.16329 11.9676 3.4125 11.7491 3.69682 11.5849C3.82837 11.5089 3.96626 11.4453 4.10869 11.3946C4.09096 11.2085 4.08203 11.0213 4.08203 10.8336C4.08203 10.0567 4.23507 9.28728 4.53241 8.56944C4.82975 7.85159 5.26557 7.19935 5.81498 6.64993C6.3143 6.15061 6.89856 5.74511 7.53981 5.45212ZM12.4575 5.45207C13.0988 5.74507 13.6831 6.15058 14.1824 6.64993C14.7318 7.19934 15.1676 7.85159 15.465 8.56943C15.7623 9.28728 15.9154 10.0567 15.9154 10.8336C15.9154 11.0213 15.9064 11.2085 15.8887 11.3947C16.0311 11.4454 16.1689 11.509 16.3005 11.5849C16.5848 11.7491 16.834 11.9676 17.0338 12.2281C17.1034 12.3187 17.1665 12.4138 17.2228 12.5127C17.3505 11.9634 17.4154 11.4002 17.4154 10.8336C17.4154 9.85967 17.2235 8.89524 16.8508 7.99541C16.4781 7.09558 15.9318 6.27797 15.2431 5.58927C14.5544 4.90057 13.7368 4.35426 12.8369 3.98154C12.6138 3.88911 12.3867 3.80781 12.1564 3.73779C12.2139 3.83593 12.2646 3.93809 12.3083 4.0436C12.434 4.34692 12.4986 4.67201 12.4986 5.00031C12.4986 5.1522 12.4848 5.3034 12.4575 5.45207ZM15.0653 16.2499C14.9515 16.2506 14.8375 16.2435 14.7241 16.2286C14.3987 16.1857 14.0848 16.0792 13.8005 15.915C13.669 15.8391 13.5451 15.7516 13.43 15.6537C13.0674 15.9118 12.676 16.1288 12.2629 16.2999C11.5451 16.5973 10.7757 16.7503 9.9987 16.7503C9.22171 16.7503 8.45233 16.5973 7.73449 16.2999C7.32133 16.1288 6.9299 15.9118 6.5673 15.6537C6.45225 15.7516 6.32829 15.8391 6.19682 15.915C5.9125 16.0792 5.59863 16.1857 5.27313 16.2286C5.15981 16.2435 5.04585 16.2506 4.93205 16.2499C5.58211 16.858 6.33684 17.3446 7.16046 17.6858C8.0603 18.0585 9.02473 18.2503 9.9987 18.2503C10.9727 18.2503 11.9371 18.0585 12.8369 17.6858C13.6606 17.3446 14.4153 16.858 15.0653 16.2499Z" fill="#979797"/>
</svg>
