<svg width="40" height="40" viewBox="0 0 53 53" fill="none" xmlns="http://www.w3.org/2000/svg">
<path fill-rule="evenodd" clip-rule="evenodd" d="M31.6409 0.567986C41.1265 2.51402 48.6345 9.39563 51.5802 18.845C53.0169 23.4523 52.947 30.0114 51.4152 34.42C49.7769 39.135 48.3251 41.4502 44.8043 44.9621C39.9811 49.7731 34.6544 52.2424 27.985 52.7589C17.7703 53.5498 7.17513 47.4213 2.77373 38.1761C0.591547 33.5928 -0.0386077 30.8723 0.00180305 26.2116C0.0653658 18.8964 2.46644 13.198 7.75267 7.8154C14.0887 1.36441 22.735 -1.25892 31.6409 0.567986ZM23.0671 10.5793C17.8255 14.7597 14.9327 19.0226 14.0555 23.8589C12.7771 30.9085 17.0198 37.1393 24.1375 38.6656L26.2562 39.1203V41.8215C26.2562 43.307 26.3715 44.5227 26.5121 44.5227C27.1372 44.5227 32.3102 40.0451 33.9662 38.0708C36.3921 35.1789 37.4049 33.4122 38.2131 30.6601C40.4458 23.0583 36.2128 15.6816 28.7305 14.1363L26.2911 13.6324L26.1682 10.9182L26.0457 8.20393L23.0671 10.5793Z" fill="#0174FF"/>
</svg>
