<svg width="100%" height="100%" viewBox="0 0 1944 1503" fill="none" xmlns="http://www.w3.org/2000/svg">
<g clip-path="url(#clip0_242_3)">
<rect width="1944" height="1503" fill="white"/>
<g clip-path="url(#clip1_242_3)">
<g clip-path="url(#clip2_242_3)">
<path d="M525.982 -53.7709C525.982 -53.7709 740.4 -97.9124 988.699 87.0537C1237 272.02 979.488 469.716 1334.5 567.433C1689.5 665.151 1638.2 836.156 1954.22 816.961C2270.24 797.766 2315.04 977.874 2220.64 1073.85C2126.25 1169.82 681.938 946.086 378.233 947.831C74.5276 949.577 -104.003 368.507 -97.8458 298.709C-91.6887 228.911 90.9437 -235.246 107.356 -236.988C123.768 -238.73 525.982 -53.7709 525.982 -53.7709Z" fill="#E2FFF9"/>
</g>
<path d="M235.491 -58.7962C235.491 -58.7962 535.251 -165.452 806.423 54.8152C1077.6 275.082 781 479.5 1118.48 680.97C1485.5 850 1488.87 1086.86 1834 1064C2179.13 1041.14 2885.87 1724.81 2014.89 1427.67C1143.9 1130.53 235.491 1797.5 -122 1153.5C-422.125 554.951 -452.529 444.079 -445.805 360.96C-439.082 277.84 -239.626 -274.907 -221.694 -276.985C-203.762 -279.063 235.491 -58.7962 235.491 -58.7962Z" fill="#C2F7ED"/>
</g>
<g clip-path="url(#clip3_242_3)">
<path d="M1522.51 858.635C1446.1 847.583 1382.66 770.625 1379.22 699.351C1376.77 648.689 1406.51 639.667 1454.7 530.287C1504.45 417.353 1491.6 384.161 1525.11 365.261C1591.9 327.591 1749.96 399.044 1789.88 522.166C1832.55 653.768 1719.85 781.545 1633.74 830.57C1610.01 844.087 1570.93 865.637 1522.51 858.635Z" fill="#9AEDDD"/>
<path d="M1541.37 848.947C1464.96 837.895 1401.52 760.937 1398.08 689.663C1395.63 639.002 1425.37 629.979 1473.56 520.599C1523.31 407.665 1510.46 374.474 1543.97 355.573C1610.75 317.904 1768.82 389.356 1808.74 512.479C1851.41 644.081 1738.71 771.857 1652.6 820.883C1628.87 834.399 1589.79 855.949 1541.37 848.947Z" stroke="#60D8C1" stroke-width="4" stroke-miterlimit="10"/>
<path d="M1251.39 556.645C1250.9 552.045 1251.01 547.594 1250.22 543.204C1250.03 542.156 1249.75 541.083 1250.72 540.242C1251.45 539.598 1250.84 538.97 1250.69 538.376C1249.59 533.964 1250.01 529.611 1250.48 525.116C1251.82 512.383 1257.86 501.324 1262.55 489.794C1263 488.758 1263.67 487.835 1264.52 487.092C1265.37 486.349 1266.38 485.806 1267.47 485.501C1268.55 485.197 1269.7 485.139 1270.81 485.333C1271.92 485.526 1272.98 485.965 1273.9 486.618C1279.45 490.26 1280.79 495.832 1279.78 501.787C1278.36 510.069 1277.69 518.495 1275.37 526.612C1275.19 527.142 1275.13 527.707 1275.21 528.262C1275.29 528.816 1275.5 529.344 1275.82 529.804C1276.63 530.96 1277.11 532.319 1277.2 533.729C1277.28 535.139 1276.98 536.547 1276.31 537.794C1276.14 538.163 1276.07 538.576 1276.12 538.981C1276.18 539.387 1276.35 539.769 1276.61 540.081C1277.7 541.975 1278.82 543.845 1280.05 545.921C1280.76 543.657 1282.05 541.762 1281.17 539.303C1280.65 537.865 1281.26 536.322 1281.56 534.833C1281.87 533.29 1283.1 531.814 1281.88 530.105C1281.53 529.616 1282.03 528.966 1282.29 528.413C1285.92 520.684 1289.5 512.93 1293.18 505.228C1294.24 502.954 1295.81 500.953 1297.77 499.38C1300.17 497.474 1302.83 496.44 1305.79 497.708C1308.96 499.063 1310.35 501.819 1310.62 505.114C1310.76 506.625 1310.69 508.147 1310.4 509.638C1309 516.342 1308.64 523.12 1308.28 529.94C1308.22 532.01 1308.46 534.077 1309 536.077C1309.32 537.564 1309.31 539.101 1308.98 540.585C1308.65 542.068 1308.01 543.464 1307.09 544.678C1306.61 545.381 1306.13 545.977 1306.42 546.9C1308.73 554.366 1307.98 561.886 1306.55 569.351C1306.07 571.818 1306.5 573.559 1308.59 574.964C1309.47 573.315 1308.98 571.563 1309.03 569.87C1308.97 567.01 1309.33 564.155 1310.09 561.397C1310.74 559.073 1310.83 556.627 1310.35 554.263C1309.77 550.977 1310.19 547.595 1311.54 544.545C1313.79 538.816 1316.79 533.544 1322.46 530.23C1327.97 527.014 1333.74 528.691 1334.58 535.572C1334.66 536.23 1334.86 536.871 1335.11 537.926C1338.07 527.423 1346.84 525.445 1355.28 524.248C1363.85 523.08 1372.51 522.725 1381.15 523.188C1389.75 523.602 1398.3 524.31 1406.49 527.105C1409.22 528.036 1411.72 527.207 1414.32 527.149C1421.53 526.986 1428.51 528.483 1435.48 530.04C1443.77 531.894 1452.08 533.734 1459.91 537.167C1462.72 538.395 1465.33 539.968 1468.45 540.597C1470.66 541.044 1471.49 543.598 1472.75 545.351C1473.58 546.506 1473.88 548.451 1474.93 548.935C1475.93 549.401 1477.58 548.32 1478.98 548.127C1484.67 547.341 1489.93 549.042 1495.13 551.005C1508.97 556.229 1522.81 561.46 1536.64 566.7C1547.21 570.686 1557.84 574.56 1568.36 578.671C1570.22 579.396 1570.52 578.649 1571.02 577.345C1573.92 569.596 1577.77 562.235 1582.48 555.432C1584.32 552.738 1586.59 550.357 1589.19 548.381C1594.28 544.618 1599.46 545.688 1602.65 551.144C1604.48 554.471 1605.72 558.087 1606.32 561.834C1608.27 572.172 1608.22 582.604 1607.66 593.05C1606.64 610.772 1604.07 628.371 1599.96 645.641C1595.29 665.649 1589.6 685.338 1579.82 703.587C1577.22 708.459 1574.26 713.114 1570.13 716.902C1569.19 717.781 1568.17 718.571 1567.08 719.261C1562.77 721.94 1558.47 721.105 1555.55 716.954C1552.31 712.353 1551.34 706.967 1550.54 701.564C1549.29 693.063 1549.34 684.504 1549.68 675.948C1549.78 675.409 1549.7 674.852 1549.46 674.36C1549.22 673.868 1548.82 673.468 1548.33 673.218C1520.36 655.935 1492.4 638.624 1464.47 621.284C1463.13 620.452 1461.82 619.541 1460.42 618.825C1456.04 616.597 1453.27 612.858 1450.9 608.779C1450.67 608.365 1450.34 608.013 1449.94 607.753C1449.55 607.493 1449.09 607.334 1448.62 607.288C1442.5 605.984 1436.54 607.484 1430.58 608.368C1397.38 613.294 1364.18 618.28 1331 623.326C1329.64 623.486 1328.27 623.321 1326.98 622.844C1322.64 621.446 1318.19 621.29 1313.7 621.238C1311.03 621.215 1308.4 620.605 1305.99 619.451C1304.69 618.91 1303.53 618.07 1302.62 616.999C1301.71 615.928 1301.06 614.656 1300.73 613.287C1300.38 611.809 1299.72 611.135 1298.02 611.538C1293.52 612.603 1289.68 610.816 1286.08 608.4C1285.63 608.027 1285.08 607.78 1284.5 607.684C1283.92 607.588 1283.33 607.646 1282.78 607.854C1278.25 609.384 1273.85 608.397 1269.77 606.365C1263.64 603.303 1257.44 600.607 1250.53 599.822C1248.87 599.631 1247.29 598.887 1248.39 596.634C1248.75 595.881 1248.11 595.695 1247.74 595.408C1245.36 593.54 1242.96 591.701 1240.56 589.855C1240.32 589.673 1240.03 589.322 1239.84 589.366C1236.7 590.059 1234.9 587.801 1232.96 586.12C1226.97 581.087 1221.7 575.249 1217.31 568.771C1215.51 566.161 1214.35 563.163 1213.93 560.021C1213.79 558.857 1213.38 557.741 1212.73 556.759C1212.09 555.777 1211.23 554.956 1210.22 554.357C1204.94 551.672 1201.5 547.355 1198.53 542.564C1194.5 536.139 1191.21 529.276 1188.74 522.108C1187.6 518.774 1187.96 515.725 1190.36 513.248C1192.65 510.881 1195.7 510.985 1198.68 511.837C1204.7 513.552 1209.82 516.982 1214.58 520.835C1219.14 524.71 1223.48 528.853 1227.55 533.24C1228.25 533.956 1229 534.669 1228.64 535.799C1228.42 536.474 1228.77 536.709 1229.26 537.026C1231.01 538.244 1232.49 539.794 1233.64 541.589C1233.81 541.924 1234.05 542.218 1234.35 542.451C1240.69 545.947 1245.11 551.703 1250.62 556.181C1250.87 556.35 1251.12 556.505 1251.39 556.645V556.645Z" fill="#202222"/>
<path d="M1253.55 322.688C1282.48 328.106 1306.51 342.359 1326.49 363.596C1349.8 388.382 1363.47 417.929 1368.93 451.367C1369.16 452.79 1369.3 453.404 1371 452.797C1372.86 452.173 1374.79 451.782 1376.75 451.631C1382.19 451.122 1385.39 454.571 1384.62 459.977C1384.06 463.927 1382.26 467.453 1380.8 471.096C1376.95 480.701 1371.73 489.701 1365.3 497.817C1363.35 500.324 1361.18 502.658 1358.83 504.795C1355.76 507.551 1353.15 507.899 1349.49 505.843C1346.86 504.363 1344.32 502.733 1342.54 500.167C1336.61 491.627 1330.73 483.056 1326.77 473.365C1325.31 469.792 1324.09 466.16 1324.17 462.202C1324.26 457.653 1327.23 455.051 1331.74 455.728C1332.2 455.796 1332.64 455.891 1333.09 455.972C1337.19 456.723 1337.26 456.734 1337.77 452.484C1338.63 445.328 1337.01 438.445 1334.69 431.822C1327.69 411.516 1317.53 392.437 1304.59 375.286C1293.89 361.002 1280.06 349.354 1264.16 341.234C1252.41 335.26 1239.83 332.556 1226.74 331.749C1220.02 331.34 1213.28 331.366 1206.56 331.828C1204.55 331.965 1201.84 332.114 1201.15 329.552C1200.47 326.99 1202.93 325.983 1204.71 324.894C1209.34 322.059 1214.7 322.148 1219.82 321.502C1231.05 320.064 1242.44 320.464 1253.55 322.688V322.688Z" fill="#202222"/>
<path d="M1109.6 476.544C1108.4 476.491 1107.36 475.591 1106.28 474.399C1104.57 472.475 1103 470.434 1101.57 468.293C1099.03 464.588 1099.94 460.548 1101.69 456.855C1106.27 447.188 1113.4 439.981 1123.34 435.799C1127.42 434.084 1131.97 433.064 1135.46 436.476C1141.07 441.966 1144.45 444.815 1140.13 453.653C1135.34 463.444 1128.34 470.849 1118.31 475.23C1115.71 476.355 1112.99 477.391 1109.6 476.544Z" fill="#202222"/>
<path d="M1389.38 341.193C1386.85 351.866 1382.2 361.922 1375.7 370.758C1374.87 371.832 1373.92 372.811 1372.87 373.675C1370.69 375.597 1368.39 376.141 1365.61 374.628C1363.92 373.706 1362.09 372.979 1360.3 372.225C1356.45 370.598 1355.26 367.461 1355.71 363.828C1357.38 350.234 1362.96 338.469 1373.12 329.121C1376.3 326.193 1379.24 325.31 1382.88 327.995C1383.63 328.489 1384.42 328.918 1385.25 329.275C1390.58 331.917 1389.94 333.064 1389.84 338.508C1389.76 339.414 1389.6 340.312 1389.38 341.193V341.193Z" fill="#202222"/>
<path d="M1113.32 355.555C1115.38 344.231 1122.07 337.184 1132.27 335.586C1135.41 335.119 1138.6 335.332 1141.65 336.209C1144.69 337.087 1147.51 338.609 1149.92 340.672C1152.32 342.735 1154.25 345.291 1155.58 348.166C1156.9 351.04 1157.59 354.166 1157.6 357.33C1157.62 362.888 1157.08 368.171 1154.08 372.925C1151.63 376.965 1147.95 380.113 1143.58 381.906C1139.2 383.698 1134.37 384.04 1129.78 382.881C1124.97 381.597 1120.7 378.786 1117.63 374.87C1114.55 370.955 1112.83 366.148 1112.73 361.173C1112.76 359.286 1112.96 357.407 1113.32 355.555V355.555Z" fill="#202222"/>
<path d="M1200.2 464.561C1196.26 462.154 1192.74 459.109 1189.8 455.55C1180.7 445.496 1175.56 432.49 1175.34 418.941C1174.94 402.483 1180.72 388.293 1192.39 376.646C1201.4 367.606 1213.21 361.869 1225.9 360.362C1226.05 360.374 1226.2 360.416 1226.33 360.484C1232.72 360.148 1239.09 360.028 1245.41 361.383C1247.34 361.795 1249.1 362.749 1251.08 362.917C1251.72 362.971 1252.35 363.298 1252.21 364.018C1252.09 364.616 1251.4 364.598 1250.87 364.59C1250.2 364.543 1249.52 364.45 1248.86 364.312C1243.1 362.72 1237.13 362.049 1231.17 362.323C1223.66 362.504 1216.28 364.268 1209.5 367.499C1208.27 367.692 1207.11 368.233 1206.18 369.06C1196.86 374.152 1189.26 381.893 1184.35 391.3C1177.09 405.443 1175.47 420.231 1180.79 435.482C1180.92 435.837 1181.02 436.201 1181.1 436.571C1181.18 437.549 1181.48 438.495 1181.99 439.334C1186.33 448.469 1192.18 456.373 1200.63 462.176C1201.45 462.735 1202.14 463.455 1202.68 464.293C1203.22 465.379 1202.99 465.936 1201.73 465.449C1201.19 465.218 1200.67 464.919 1200.2 464.561V464.561Z" fill="#282725"/>
<path d="M1221.95 292.628C1222.98 287.94 1224.47 286.691 1229.13 287.061C1239.78 287.83 1250 291.576 1258.62 297.871C1262.82 300.919 1263.35 304.189 1260.78 308.668C1260.43 309.279 1259.84 309.31 1259.27 309.515C1254.37 311.284 1249.41 310.616 1244.55 309.589C1238.5 308.323 1232.74 305.896 1227.61 302.444C1226.18 301.484 1224.87 300.344 1223.73 299.052C1221.95 297.044 1220.95 294.932 1221.95 292.628Z" fill="#202222"/>
<path d="M1189.36 316.542C1187.51 324.914 1183.87 332.214 1176.54 337.183C1174.5 338.562 1172.34 339.048 1170.03 337.532C1167.05 335.582 1163.36 334.483 1162.21 330.499C1161.55 328.01 1161.49 325.404 1162.02 322.885C1163.16 315.661 1166.6 308.996 1171.82 303.87C1176.13 299.695 1179.36 299.605 1184.71 302.131C1190.48 304.86 1190.4 309.459 1189.72 314.529C1189.63 315.203 1189.49 315.871 1189.36 316.542Z" fill="#222322"/>
<path d="M1150.64 502.807C1140.65 501.474 1132.97 490.812 1135.27 480.246C1137.44 470.267 1146.54 463.346 1157.38 465.294C1159.85 465.736 1162.21 466.659 1164.32 468.01C1166.42 469.361 1168.25 471.114 1169.68 473.169C1171.11 475.223 1172.12 477.539 1172.66 479.983C1173.19 482.428 1173.24 484.955 1172.8 487.418C1172.35 489.881 1171.43 492.233 1170.08 494.339C1168.72 496.446 1166.97 498.265 1164.91 499.695C1162.85 501.124 1160.53 502.134 1158.09 502.668C1155.64 503.202 1153.11 503.25 1150.64 502.807Z" fill="#202222"/>
<path d="M1200.2 464.562C1200.68 464.734 1201.16 464.923 1201.64 465.071C1201.92 465.156 1202.26 465.66 1202.48 465.084C1202.55 464.882 1202.31 464.557 1202.21 464.287C1203.48 463.891 1204.41 464.711 1205.35 465.275C1213.88 470.244 1223.59 472.844 1233.46 472.804C1243.34 472.765 1253.03 470.088 1261.52 465.051C1272.59 458.56 1280.3 449.213 1285.26 437.495C1285.47 437.006 1285.71 436.535 1286 436.088C1286.65 435.437 1286.5 434.165 1287.68 433.925C1287.79 433.991 1287.87 434.079 1287.94 434.182C1288.01 434.285 1288.06 434.401 1288.08 434.523C1286.96 438.617 1285.36 442.562 1283.31 446.274C1282.24 448.47 1280.92 450.529 1279.36 452.406C1278.49 453.276 1277.89 454.371 1277.04 455.264C1265.76 467.918 1251.68 474.573 1234.69 475.022C1223.27 475.321 1212.01 472.25 1202.33 466.191C1201.48 465.849 1200.75 465.286 1200.2 464.562V464.562Z" fill="#292825"/>
<path d="M1283.31 446.274C1284.51 443.282 1285.66 440.265 1286.95 437.312C1287.34 436.251 1287.62 435.157 1287.81 434.043C1288.85 431.191 1288.97 428.15 1289.64 425.221C1289.83 424.371 1289.85 423.483 1289.99 423.153C1289.25 426.426 1289 430.331 1287.81 434.041C1286.87 434.423 1287.45 435.736 1286.52 436.126C1286.31 435.811 1286.18 435.446 1286.15 435.067C1286.12 434.689 1286.18 434.308 1286.34 433.961C1287.54 429.594 1288.39 425.139 1288.88 420.638C1290.68 418.787 1289.48 416.267 1290.32 414.194C1290.06 414.575 1290.23 415.113 1289.85 415.451C1288.32 415.165 1288.65 413.867 1288.61 412.938C1288.27 405.551 1285.85 398.763 1282.72 392.168C1282.3 391.277 1281.68 390.506 1281.23 389.635C1276.63 381.34 1269.71 374.567 1261.31 370.146C1258.07 367.702 1254.28 366.44 1250.51 365.105C1249.72 364.823 1248.63 364.862 1248.49 363.639L1251.8 364.233L1251.98 363.587C1249.84 362.949 1247.73 362.226 1245.57 361.693C1240.05 360.326 1234.42 360.524 1228.8 360.74C1227.97 360.762 1227.15 360.676 1226.34 360.485C1231.1 359.547 1236 359.511 1240.77 360.379C1259.44 363.142 1273.81 372.6 1283.45 388.842C1289.01 398.206 1291.68 409.003 1291.13 419.878C1290.82 428.595 1288.5 437.123 1284.34 444.795C1284.03 445.307 1283.68 445.801 1283.31 446.274V446.274Z" fill="#2A2927"/>
<path d="M1277.04 455.259C1277.41 454.037 1278.24 453.01 1279.37 452.4C1278.93 453.584 1278.11 454.589 1277.04 455.259V455.259Z" fill="#6E6F6F"/>
<path d="M1582.5 690.674C1553.07 672.439 1523.77 654.285 1494.61 636.212C1483.25 629.162 1471.9 622.088 1460.57 614.99C1458 613.237 1455.83 610.957 1454.2 608.303C1453.25 606.899 1453.98 606.255 1455.22 606.329C1460.77 606.659 1465.08 603.998 1468.77 600.433C1478.64 590.921 1483.46 579.293 1482.36 565.517C1481.98 560.824 1480.45 556.509 1476.43 553.484C1475.36 552.679 1475.86 552.167 1476.92 551.835C1480.21 550.831 1483.72 550.831 1487 551.835C1495.18 554.179 1503.02 557.457 1510.98 560.416C1529.68 567.371 1548.32 574.438 1566.99 581.451C1578.9 585.924 1590.81 590.379 1602.73 594.817C1602.99 594.871 1603.25 594.979 1603.47 595.134C1603.69 595.29 1603.88 595.488 1604.03 595.719C1604.17 595.949 1604.26 596.206 1604.31 596.475C1604.35 596.743 1604.33 597.017 1604.26 597.279C1603.65 605.216 1602.75 613.115 1601.51 620.977C1598.94 637.836 1595.06 654.472 1589.93 670.737C1587.8 677.508 1585.32 684.163 1582.5 690.674V690.674Z" fill="white"/>
<path d="M1331.62 556.658C1334.87 557.462 1338.21 557.857 1341.57 557.835C1352.14 557.954 1362.27 555.714 1372.22 552.275C1381.85 548.946 1391.53 548.273 1400.78 553.484C1405.91 556.38 1409.39 560.652 1409.58 566.903C1409.77 573.033 1405.11 579.408 1399.21 581.011C1386.99 584.328 1375.08 588.627 1363.08 592.604C1362.56 592.873 1361.97 592.948 1361.41 592.814C1360.84 592.68 1360.35 592.346 1360.01 591.875C1354.9 586.36 1348.8 583.239 1340.97 584.697C1338.56 585.146 1335.26 581.636 1335.81 579.248C1336.15 577.538 1336.14 575.779 1335.79 574.071C1335.05 569.603 1334.2 565.154 1333.45 560.689C1333.22 559.341 1332.31 558.309 1331.62 556.658Z" fill="#75C7B9"/>
<path d="M1337.27 618.647C1343.71 612.072 1352.27 607.972 1361.44 607.067C1373.8 605.753 1385.61 602.112 1397.37 598.311C1409.49 594.392 1421.55 590.295 1434.18 588.307C1439.55 587.462 1444.88 586.312 1450.37 586.136C1453.19 586.045 1454.86 587.497 1456.7 589.049C1457.29 589.547 1456.98 589.923 1456.67 590.395C1453.88 594.83 1450.41 598.791 1446.37 602.126C1444.73 603.417 1442.94 603.389 1441.09 603.65C1433.37 604.747 1425.66 605.928 1417.95 607.087C1392.12 610.965 1366.28 614.84 1340.45 618.71C1339.42 618.866 1338.36 619.272 1337.27 618.647Z" fill="#75C7B9"/>
<path d="M1413.24 533.034C1411.71 533.211 1410.19 533.475 1408.69 533.823C1402.94 535.52 1397.36 537.717 1392 540.388C1381.22 545.647 1370.18 550.275 1358.48 553.102C1355.19 553.897 1351.67 554.678 1348.39 554.317C1345.74 554.031 1343.28 551.993 1341.03 550.262C1340.03 549.503 1339.21 548.526 1338.64 547.406C1338.07 546.286 1337.76 545.051 1337.74 543.796C1337.42 536.891 1339.98 533.02 1346.2 529.994C1351.93 527.204 1358.05 527.119 1364.15 526.686C1375.53 525.88 1386.88 525.975 1398.14 528.025C1403.35 529.121 1408.41 530.802 1413.24 533.034V533.034Z" fill="#75C7B9"/>
<path d="M1405.41 552.734C1408.79 551.037 1412.25 549.51 1415.78 548.161C1416.34 547.936 1416.96 547.908 1417.54 548.082C1422.83 549.446 1427.88 551.595 1432.52 554.456C1432.94 554.761 1433.42 554.952 1433.93 555.009C1434.45 555.066 1434.96 554.988 1435.44 554.783C1437.7 553.883 1439.79 552.593 1441.6 550.972C1446.3 546.815 1452 547.542 1457.56 547.498C1458.49 547.49 1458.67 548.241 1458.87 548.846C1460.02 552.452 1460.54 556.227 1460.42 560.009C1460.4 561.423 1459.48 561.298 1458.63 561.471C1450.85 563.046 1445.88 567.726 1443.49 575.191C1442.76 577.444 1442.73 579.862 1443.41 582.13C1443.75 583.299 1443.4 583.487 1442.35 583.702C1438.52 584.487 1438.57 584.517 1436.94 580.816C1436.19 579.112 1436.02 576.832 1433.31 576.77C1432.56 576.763 1431.81 576.901 1431.11 577.177C1427.06 578.653 1422.92 579.939 1418.99 581.71C1415.81 583.147 1413.26 581.191 1410.43 580.827C1409.38 580.587 1408.36 580.254 1407.37 579.832C1410.96 575.735 1413.11 571.154 1412.67 565.731C1412.25 560.39 1409.5 556.222 1405.41 552.734Z" fill="white"/>
<path d="M1604.61 592.245C1594.36 588.393 1584.44 584.646 1574.5 580.954C1573.45 580.564 1573.23 580.127 1573.67 579.126C1577.32 570.927 1580.9 562.692 1586.5 555.546C1587.93 553.581 1589.69 551.878 1591.7 550.515C1594.9 548.495 1597.38 548.955 1599.5 552.072C1602.09 555.875 1602.92 560.287 1603.63 564.71C1605.09 573.719 1604.96 582.782 1604.61 592.245Z" fill="#75C7B9"/>
<path d="M1253.17 572.039C1251.8 575.741 1249.39 578.968 1246.22 581.328C1237.56 588.136 1239.19 587.454 1232.07 581.055C1227.13 576.667 1222.82 571.609 1219.28 566.031C1216.97 562.341 1216.99 562.082 1220.65 560.009C1225.75 557.111 1230 552.92 1232.96 547.859C1234.07 546.007 1234.96 546.098 1236.34 547.372C1240.35 551.066 1244.41 554.708 1248.41 558.409C1249.19 559.125 1249.77 560.065 1250.96 560.153C1251.07 560.151 1251.19 560.172 1251.29 560.215C1251.4 560.258 1251.49 560.322 1251.57 560.403C1251.65 560.484 1251.72 560.581 1251.76 560.688C1251.8 560.794 1251.82 560.908 1251.82 561.022C1251.88 564.501 1253.35 567.787 1253.24 571.286C1253.24 571.513 1253.2 571.737 1253.17 572.039Z" fill="#75C7B9"/>
<path d="M1552.76 675.953C1562.1 681.742 1571.08 687.331 1580.1 692.875C1581 693.432 1581.14 693.839 1580.67 694.837C1577.81 700.849 1574.78 706.738 1570.55 711.937C1569.15 713.736 1567.45 715.282 1565.53 716.506C1562.6 718.288 1560.25 717.84 1558.21 715.101C1556.09 712.23 1555.16 708.873 1554.43 705.457C1552.37 695.844 1552.45 686.12 1552.76 675.953Z" fill="#75C7B9"/>
<path d="M1191.18 518.337C1191.8 515.098 1194.7 513.725 1197.82 514.8C1205.68 517.5 1212.09 522.346 1217.93 528.086C1219.87 530 1221.79 531.947 1223.83 533.754C1225.04 534.827 1225.03 535.771 1224.25 537.063C1220.99 542.191 1216.89 546.728 1212.1 550.479C1211.13 551.289 1210.42 550.793 1209.66 550.344C1207.1 548.698 1204.92 546.524 1203.27 543.966C1198.34 536.858 1194.44 529.086 1191.69 520.883C1191.46 520.048 1191.29 519.197 1191.18 518.337V518.337Z" fill="#75C7B9"/>
<path d="M1343.56 587.612C1346.28 587.016 1348.54 587.935 1350.74 588.86C1353.5 589.974 1355.92 591.767 1357.79 594.071C1359.85 596.636 1360.31 596.8 1363.56 595.725C1371.61 593.058 1379.63 590.327 1387.7 587.722C1391.94 586.35 1396.38 585.486 1400.51 583.837C1402.17 583.19 1403.94 582.886 1405.72 582.941C1407.49 582.997 1409.24 583.412 1410.86 584.161C1412.65 584.955 1414.6 585.341 1416.57 585.292C1418.53 585.243 1420.46 584.759 1422.21 583.875C1425.28 582.418 1428.58 581.468 1431.76 580.243C1432.75 579.862 1433.17 580.107 1433.61 581.087C1435.22 584.64 1435.3 584.811 1431.4 585.526C1417.43 588.086 1404.13 592.945 1390.64 597.16C1380.28 600.54 1369.62 602.933 1358.8 604.306C1357.66 604.438 1357.18 604.491 1356.8 603.093C1355.65 598.846 1353.58 595.238 1348.73 594.293C1348.19 594.187 1348.01 593.826 1347.78 593.435C1346.59 591.345 1345.18 589.392 1343.56 587.612V587.612Z" fill="white"/>
<path d="M1293.93 544.778C1296.77 545.607 1299.59 546.466 1302.44 547.255C1303.37 547.51 1303.52 548.194 1303.7 548.938C1304.81 553.268 1305.07 557.775 1304.45 562.203C1304.09 564.443 1303.88 566.708 1303.69 568.968C1303.58 570.215 1302.91 570.623 1301.77 570.702C1295.36 571.149 1288.95 571.579 1282.54 572.118C1281.12 572.238 1280.7 571.816 1280.59 570.446C1279.98 562.885 1280.76 555.277 1282.9 548C1284.11 543.817 1284.25 543.829 1288.7 544.372C1290.44 544.579 1292.21 544.363 1293.93 544.778Z" fill="#73C8BA"/>
<path d="M1265.01 525.304C1261.81 524.656 1258.65 523.838 1255.53 522.855C1254.1 522.435 1253.65 521.753 1254.13 520.242C1255.97 514.472 1258.04 508.792 1260.22 503.142C1261.49 499.82 1262.99 496.602 1264.43 493.352C1265.55 490.818 1266.76 488.245 1269.94 488.46C1272.94 488.662 1274.82 490.985 1275.83 493.561C1277.14 496.655 1277.33 500.111 1276.35 503.327C1275.39 506.315 1275.59 509.482 1275 512.533C1274.21 516.55 1273.45 520.575 1272.76 524.61C1272.76 524.836 1272.71 525.059 1272.6 525.261C1272.5 525.462 1272.35 525.637 1272.17 525.771C1271.99 525.905 1271.77 525.995 1271.55 526.033C1271.33 526.071 1271.1 526.056 1270.88 525.991C1268.92 525.765 1266.97 525.536 1265.01 525.304Z" fill="#73C8BA"/>
<path d="M1253.55 542.776C1260.02 545.855 1265.6 542.67 1271.34 540.975C1272.75 540.558 1273.58 540.581 1274.11 542.079C1274.41 542.693 1274.78 543.272 1275.2 543.806C1277.94 548.093 1279.56 552.528 1277.94 557.732C1277.25 560.382 1277.05 563.134 1277.34 565.856C1277.41 566.379 1277.31 566.913 1277.05 567.37C1276.78 567.827 1276.37 568.179 1275.87 568.369C1271.54 570.565 1266.87 572.017 1262.06 572.664C1261.05 572.877 1260 572.722 1259.11 572.227C1258.21 571.732 1257.51 570.93 1257.16 569.968C1255.49 566.457 1255.07 562.715 1254.73 558.96C1254.26 553.776 1253.96 548.574 1253.55 542.776Z" fill="#73C8BA"/>
<path d="M1325.15 612.562C1324.04 613.227 1322.79 613.618 1321.49 613.705C1320.2 613.792 1318.9 613.572 1317.71 613.062C1315.59 612.226 1313.4 611.605 1311.15 611.21C1306.8 610.353 1303.36 607.971 1300.21 605.056C1297.33 602.497 1294.65 599.716 1292.21 596.739C1300.29 594.12 1303.94 586.885 1309.19 581.135C1309.66 583.091 1309.98 585.117 1311.97 586.204C1312.22 586.392 1312.38 586.665 1312.43 586.966C1313.31 591.449 1315.24 595.502 1317.02 599.686C1318.57 603.363 1320.56 606.843 1322.93 610.053C1323.55 610.899 1324.32 611.632 1325.15 612.562Z" fill="#73C8BA"/>
<path d="M1327.45 559.567C1329.46 559.721 1330.35 560.767 1330.63 562.741C1331.29 567.291 1332.1 571.821 1332.91 576.347C1333.19 577.909 1332.6 578.579 1331.12 579.129C1325.85 581.02 1320.39 582.334 1314.83 583.047C1313.44 583.246 1312.6 582.903 1312.51 581.395C1312.06 575.901 1312.03 570.382 1312.41 564.884C1312.47 564.239 1312.41 563.449 1313.15 563.081C1317.66 560.843 1322.28 559.015 1327.45 559.567Z" fill="#75C7B9"/>
<path d="M1285.66 528.828C1288.25 523.349 1290.71 518.097 1293.19 512.853C1294.19 510.404 1295.32 508.007 1296.56 505.671C1297.38 504.307 1298.39 503.065 1299.55 501.98C1300.91 500.713 1302.55 499.928 1304.31 500.49C1306.29 501.123 1307.17 502.927 1307.43 504.893C1307.7 506.851 1307.62 508.84 1307.2 510.77C1305.93 516.47 1305.29 522.292 1305.3 528.131C1305.3 529.925 1304.64 530.09 1303.23 529.99C1297.48 529.582 1291.74 529.225 1285.66 528.828Z" fill="#73C8BA"/>
<path d="M1346.27 598.297C1344.09 603.25 1340.11 607.189 1335.12 609.315C1328.7 612.152 1328.68 612.268 1323.88 606.248C1322.52 604.621 1321.44 602.766 1320.72 600.767C1320.35 599.656 1320.25 598.653 1321.83 598.414C1328.32 597.437 1332.71 593.44 1336.06 588.189C1337.02 586.694 1337.61 586.89 1338.77 587.718C1341.81 589.999 1344.22 593.016 1345.78 596.483C1346.11 597.158 1346.45 597.854 1346.27 598.297Z" fill="#73C8BA"/>
<path d="M1387.67 545.948C1390.27 544.703 1392.92 543.559 1395.44 542.179C1397.16 541.237 1398.94 541.786 1400.54 541.928C1409.81 542.747 1418.98 541.28 1428.19 540.975C1435.61 540.85 1442.98 542.014 1449.99 544.415C1444.47 544.089 1440.83 547.655 1436.89 550.5C1435.32 551.628 1433.99 551.889 1432.23 550.76C1428.01 548.215 1423.43 546.314 1418.65 545.121C1417.28 544.646 1415.79 544.699 1414.46 545.269C1410.68 546.984 1406.62 548.127 1403.17 550.548C1402.52 551.005 1402.22 550.631 1401.79 550.398C1397.68 548.268 1393.17 546.985 1388.54 546.625C1388.04 546.667 1387.48 546.797 1387.67 545.948Z" fill="white"/>
<path d="M1464.57 571.863C1463.61 576.543 1462 581.065 1459.77 585.296C1459.25 586.294 1458.64 587.079 1457.67 585.814C1455.45 582.928 1452.31 582.902 1449.2 583.164C1447.4 583.316 1446.68 582.632 1446.39 581.085C1445.38 575.637 1447.84 571.532 1451.68 568.116C1453.11 566.742 1454.84 565.714 1456.72 565.11C1458.61 564.506 1460.61 564.343 1462.57 564.632C1465.42 565.064 1465.7 565.501 1465.21 568.321C1465.04 569.292 1464.86 570.26 1464.57 571.863Z" fill="#B6B6B6"/>
<path d="M1449.1 603.997C1454.18 599.636 1458.4 594.364 1461.53 588.452C1469.14 574.488 1471.39 559.856 1466.34 544.466C1466.21 544.085 1465.73 543.525 1466.23 543.256C1466.97 542.855 1467.43 543.494 1467.9 544.018C1471.75 548.349 1473.3 553.575 1473.81 559.191C1474.74 569.425 1471.35 578.604 1466.57 587.34C1463.22 593.461 1459.4 599.285 1453.48 603.389C1452.89 603.904 1452.16 604.235 1451.38 604.343C1450.6 604.451 1449.81 604.331 1449.1 603.997V603.997Z" fill="#73C8BA"/>
<path d="M1313.07 550.386C1314.88 543.399 1317.49 537.221 1323.7 533.243C1324.59 532.675 1325.55 532.23 1326.57 531.921C1327.01 531.74 1327.48 531.658 1327.96 531.682C1328.44 531.705 1328.9 531.833 1329.32 532.057C1329.75 532.281 1330.11 532.595 1330.4 532.977C1330.68 533.358 1330.88 533.798 1330.98 534.265C1332.53 539.36 1331.84 544.402 1330.5 549.414C1330.28 550.259 1329.94 550.882 1328.97 550.176C1323.98 546.556 1319 547.723 1314.01 550.167C1313.7 550.266 1313.39 550.339 1313.07 550.386V550.386Z" fill="#73C8BA"/>
<path d="M1281.41 604.96C1278.39 605.688 1275.22 605.384 1272.39 604.096C1267.91 602.311 1263.78 599.719 1259.09 598.379C1256.9 597.751 1254.63 597.545 1252.18 596.908C1254.95 592.657 1258.57 589.424 1262.35 586.342C1263.19 585.657 1263.86 585.961 1264.5 586.682C1265.53 587.682 1266.46 588.781 1267.28 589.963C1270.77 595.854 1275.83 600.309 1281.41 604.96Z" fill="#73C8BA"/>
<path d="M1456.76 539.124C1454.54 542.994 1451.79 541.532 1449.02 540.677C1438.08 537.304 1426.93 537.343 1415.69 538.663C1411.86 539.099 1407.99 539.131 1404.15 538.758C1408.8 536.347 1413.3 536.162 1417.81 536.049C1418.72 536.076 1419.63 536.035 1420.53 535.924C1421.34 535.775 1422.16 535.432 1422.26 534.392C1422.28 534.011 1422.19 533.633 1421.98 533.309C1421.78 532.984 1421.49 532.731 1421.13 532.582C1419.74 531.801 1418.3 531.093 1416.82 530.462C1430.6 531.432 1443.84 534.831 1456.76 539.124Z" fill="#DFDFDD"/>
<path d="M1273.02 592.416C1275.46 592.988 1277.55 593.213 1279.49 592.096C1280.16 591.715 1280.49 592.254 1280.84 592.559C1282.78 594.371 1285.07 595.756 1287.58 596.627C1287.95 596.711 1288.29 596.9 1288.55 597.172C1291.43 601.181 1295.1 604.456 1298.85 608.156C1296.2 608.595 1293.96 609.018 1291.6 607.853C1284.62 604.4 1279.15 599.106 1273.8 593.644C1273.51 593.257 1273.25 592.846 1273.02 592.416V592.416Z" fill="#73C8BA"/>
<path d="M1292.78 592.885C1291.92 593.504 1290.88 593.843 1289.82 593.856C1288.76 593.869 1287.71 593.556 1286.84 592.959C1283.89 591.314 1281.23 589.372 1279.61 586.29C1278.76 584.681 1278.38 582.861 1278.52 581.044C1278.79 577.26 1280.63 575.372 1284.32 575.089C1285.74 574.98 1287.16 574.905 1288.87 574.796C1287.4 577.813 1286.98 581.236 1287.69 584.517C1288.4 587.798 1290.19 590.745 1292.78 592.886L1292.78 592.885Z" fill="white"/>
<path d="M1477.1 559.294C1484.25 571.394 1474.02 597.063 1459.99 602.305C1470.35 589.752 1477.39 576.131 1477.1 559.294Z" fill="#787878"/>
<path d="M1303.64 611.779C1308.64 614.266 1313.98 614.852 1318.95 616.676C1321.46 617.596 1324.02 616.616 1326.4 615.507C1330.15 613.763 1334.49 613.707 1338.07 611.482C1338.75 611.062 1338.99 611.701 1339.3 612.06C1339.8 612.623 1339.21 612.853 1338.9 613.102C1336.2 615.294 1333.47 617.465 1330.77 619.663C1330.43 619.911 1330.04 620.065 1329.62 620.112C1329.2 620.158 1328.78 620.094 1328.4 619.926C1323.5 618.595 1318.43 617.971 1313.35 618.073C1311.37 618.062 1309.42 617.597 1307.65 616.712C1305.18 615.482 1304.58 614.865 1303.64 611.779Z" fill="#DDDDDC"/>
<path d="M1290.65 578.787C1290.88 577.576 1291.51 576.475 1292.43 575.654C1293.35 574.834 1294.51 574.339 1295.75 574.248C1297.33 574.136 1298.91 574.01 1300.49 573.887C1301.82 573.916 1303.1 574.325 1304.2 575.064C1305.3 575.804 1306.16 576.843 1306.68 578.058C1306.74 578.273 1306.74 578.5 1306.68 578.716C1306.62 578.932 1306.51 579.13 1306.36 579.29C1303.58 583.257 1300.46 586.974 1297.04 590.401C1295.94 591.561 1295.05 590.665 1294.31 589.992C1291 586.973 1290.12 583.102 1290.65 578.787Z" fill="white"/>
<path d="M1269.16 574.502C1268.45 580.174 1269.89 583.858 1273.68 585.011C1275.77 585.644 1276.45 587.049 1277.36 588.594C1277.86 589.446 1277.47 589.683 1276.78 589.743C1275.87 589.841 1274.95 589.734 1274.09 589.431C1271.72 588.623 1269.54 587.311 1267.72 585.586C1265.9 583.861 1264.48 581.763 1263.54 579.436C1262.37 576.603 1262.9 575.816 1265.86 575.236C1266.88 575.036 1267.9 574.784 1269.16 574.502Z" fill="white"/>
<path d="M1217.04 558.034C1215.88 556.732 1214.89 555.284 1214.11 553.727C1213.55 552.559 1214.81 552.381 1215.35 551.911C1219.32 548.622 1222.81 544.803 1225.74 540.561C1226.61 539.219 1227.26 539.286 1228.3 540.209C1229.3 541.141 1230.19 542.179 1230.96 543.305C1231.17 543.531 1231.3 543.814 1231.33 544.116C1231.36 544.417 1231.3 544.722 1231.15 544.987C1230.73 545.773 1230.14 545.363 1229.57 545.273C1223.38 544.314 1219.13 548.784 1220.54 554.771C1220.82 555.976 1218.55 558.281 1217.04 558.034Z" fill="white"/>
<path d="M1326.37 593.46C1324.57 594.38 1322.68 595.114 1320.74 595.651C1318.83 596.164 1318.08 595.398 1317.62 593.936C1316.9 591.723 1316.35 589.458 1315.68 587.23C1315.42 586.364 1315.67 586.015 1316.56 585.884C1318.56 585.59 1320.57 585.285 1322.55 584.854C1323.7 584.604 1323.84 585.026 1323.77 585.997C1323.63 587.354 1323.8 588.725 1324.24 590.014C1324.69 591.303 1325.42 592.479 1326.37 593.46Z" fill="white"/>
<path d="M1259.94 540.804C1255.94 541.163 1254.34 540.165 1253.55 536.749C1252.81 533.502 1252.76 530.136 1253.4 526.869C1253.61 525.758 1254.02 525.514 1255.08 525.93C1256.34 526.425 1258.13 526.378 1258.83 527.253C1259.56 528.146 1258.36 529.673 1258.08 530.942C1257.31 534.467 1257.36 537.818 1259.94 540.804Z" fill="white"/>
<path d="M1299.17 542.948L1298.72 542.862C1295.36 540.753 1295.23 536.718 1298.42 533.626C1298.72 533.183 1299.56 533.531 1299.65 532.779C1300.64 532.058 1301.5 533.653 1302.49 532.946C1303.52 533.339 1304.37 534.091 1304.88 535.064C1305.4 536.036 1305.54 537.163 1305.28 538.232C1304.86 540.603 1304.29 543.004 1301.33 543.562C1300.61 543.352 1299.79 543.51 1299.17 542.948Z" fill="#202222"/>
<path d="M1270 537.714C1269.12 537.916 1268.53 538.892 1267.49 538.659C1265.05 538.78 1263.5 537.75 1262.88 535.593C1262.55 534.417 1262.61 533.166 1263.05 532.029C1263.5 530.892 1264.3 529.931 1265.34 529.29C1265.77 529.133 1266.21 528.996 1266.65 528.883C1267.88 528.697 1269.14 528.909 1270.25 529.488C1273.48 532.259 1273.37 535.768 1270 537.714Z" fill="#222323"/>
<path d="M1255.88 574.086C1256.98 574.723 1258.06 575.387 1259.18 575.985C1259.6 576.21 1260.04 576.377 1260 576.919C1259.96 578.814 1260.42 580.686 1261.34 582.342C1261.66 582.999 1261.34 583.259 1260.83 583.563C1259.04 584.695 1257.44 586.101 1256.1 587.73C1255.94 587.969 1255.73 588.17 1255.49 588.317C1255.24 588.464 1254.97 588.555 1254.68 588.581C1254.4 588.608 1254.11 588.57 1253.84 588.471C1253.58 588.372 1253.34 588.213 1253.14 588.008C1252.08 587.275 1251.2 586.306 1250.58 585.177C1249.93 583.781 1249.61 582.405 1251.01 581.091C1252.02 580.073 1252.92 578.952 1253.69 577.746C1254.5 576.581 1255.16 575.316 1255.88 574.086Z" fill="#FCFDFF"/>
<path d="M1286.76 541.089C1284.59 540.887 1283.63 539.278 1284.27 536.671C1284.63 535.279 1285.24 533.967 1286.08 532.804C1286.61 532.07 1291.33 531.822 1291.72 532.518C1291.98 532.973 1291.58 533.341 1291.39 533.721C1290.44 535.377 1290.03 537.284 1290.21 539.182C1290.53 541.374 1289.48 541.469 1287.89 541.217C1287.51 541.162 1287.13 541.134 1286.76 541.089Z" fill="#FCFDFF"/>
<path d="M1456.34 543.739C1457.04 543.124 1457.88 542.702 1458.79 542.516C1460.89 542.143 1462.27 542.621 1463.15 544.86C1465.21 550.079 1465.8 555.496 1465.91 561.016C1465.92 561.613 1466 562.31 1464.98 562.082C1464.05 561.873 1463.27 561.701 1463.43 560.375C1463.72 557.218 1463.48 554.035 1462.72 550.956C1462.44 549.785 1462.09 548.631 1461.67 547.499C1460.99 545.462 1459.91 543.968 1457.41 544.399C1457.18 544.411 1456.96 544.358 1456.76 544.248C1456.64 544.191 1456.57 544.025 1456.34 543.739Z" fill="#71C6B8"/>
<path d="M1313.5 559.183C1312.39 553.299 1316.16 551.49 1323.11 551.085C1322.57 552.489 1322.27 553.975 1322.24 555.479C1322.24 556.07 1322.13 556.439 1321.47 556.64C1318.82 557.45 1316.18 558.321 1313.5 559.183Z" fill="white"/>
<path d="M1277.23 571.234C1277.68 572.368 1278.32 573.474 1277.66 574.588C1276.33 576.603 1275.54 578.924 1275.35 581.33C1275.3 582.664 1274.54 582.047 1274.01 581.671C1272.11 580.317 1271.8 578.285 1272.07 576.23C1272.29 574.55 1272.71 572.8 1274.82 572.27C1275.65 571.989 1276.46 571.642 1277.23 571.234Z" fill="#FAFBFB"/>
<path d="M1266.89 529.231C1264.56 530.031 1263.18 531.561 1263.25 534.108C1263.32 536.607 1264.38 537.693 1267.49 538.659C1266.55 539.476 1265.31 539.526 1264.22 539.956C1263.99 540.065 1263.72 540.086 1263.48 540.014C1263.23 539.942 1263.02 539.783 1262.88 539.566C1260.45 536.945 1260.08 531.871 1262.12 528.842C1262.24 528.574 1262.45 528.36 1262.72 528.241C1262.99 528.121 1263.3 528.105 1263.58 528.195C1264.38 528.386 1265.21 528.461 1266.03 528.586C1266.5 528.563 1267.08 528.385 1266.89 529.231Z" fill="#FAFBFB"/>
<path d="M1299.04 533.722C1295.9 536.525 1295.8 539.654 1298.72 542.863C1298.07 542.707 1297.41 542.538 1296.76 542.396C1293.33 541.654 1292.5 540.361 1293.49 536.965C1293.94 535.779 1294.47 534.628 1295.09 533.523C1295.68 532.273 1296.71 532.815 1297.62 532.895C1298.22 532.963 1299.13 532.48 1299.04 533.722Z" fill="#F7F8F9"/>
<path d="M1341.39 554.618C1338.52 554.6 1335.76 554.731 1333.09 553.783C1332.48 553.567 1331.81 553.592 1332.4 552.686C1333.75 550.632 1334.07 548.249 1334.49 545.798C1336.87 550.879 1336.87 550.879 1341.39 554.618Z" fill="#F7F8F9"/>
<path d="M1242.88 587.765L1247.04 585.16C1247.82 587.362 1249.31 589.245 1251.27 590.518C1252.48 591.335 1251.88 591.852 1251.4 592.658C1250.84 593.6 1250.39 593.468 1249.64 592.878C1247.46 591.167 1245.22 589.526 1242.88 587.765Z" fill="#FAFBFB"/>
<path d="M1270 537.713C1272.68 534.498 1272.7 532.687 1270.08 529.827C1269.97 528.905 1270.83 529.472 1271.12 529.16C1272.93 530.143 1274.47 533.394 1273.96 535.235C1273.4 537.238 1271.99 537.958 1270 537.713Z" fill="#F7F8F9"/>
<path d="M1301.47 543.388C1305.57 540.42 1305.93 536.752 1302.49 532.945C1304.94 533.274 1306.21 535.016 1306.1 538.102C1306.04 539.694 1305.58 541.246 1304.76 542.614C1303.93 544.023 1302.96 544.514 1301.46 543.745C1301.28 543.662 1301.22 543.582 1301.28 543.504C1301.34 543.426 1301.41 543.378 1301.47 543.388Z" fill="#F2F2F2"/>
<path d="M1349.89 597.907C1351.93 599.606 1353.56 601.45 1353.79 604.195C1353.83 604.629 1354.07 605.188 1353.55 605.392C1352.88 605.655 1352.68 605.053 1352.46 604.566C1351.94 603.395 1351.22 602.323 1350.33 601.401C1349 600.033 1349.01 600.026 1349.89 597.907Z" fill="#F5F5F5"/>
<path d="M1328.39 583.293C1328.22 585.483 1328.67 587.678 1329.7 589.619C1330.05 590.24 1330.17 590.681 1329.54 591.162C1328.72 591.782 1328.45 591.005 1328.12 590.599C1326.58 588.643 1326.77 586.363 1327.04 584.1C1327.11 583.534 1327.76 583.661 1328.39 583.293Z" fill="#F6F7F7"/>
<path d="M1326.67 556.32C1325.55 556.436 1325.09 555.785 1325.5 554.566C1325.75 553.828 1325.37 552.323 1326.62 552.606C1327.72 552.856 1329.13 553.338 1328.89 555.301C1328.69 557.052 1327.73 556.347 1326.67 556.32Z" fill="#EFEEEE"/>
<path d="M1332.57 587.865C1331.24 586.264 1331.84 584.472 1331.29 582.947C1331.26 582.879 1331.25 582.805 1331.25 582.731C1331.25 582.657 1331.27 582.584 1331.3 582.516C1331.33 582.449 1331.37 582.388 1331.43 582.339C1331.48 582.289 1331.55 582.251 1331.62 582.228C1331.82 582.117 1332.05 582.08 1332.27 582.125C1332.49 582.169 1332.68 582.291 1332.82 582.469C1333.94 583.667 1334.99 584.839 1333.54 586.492C1333.19 586.933 1332.87 587.391 1332.57 587.865Z" fill="#F3F3F3"/>
<path d="M1347.4 607.154C1345.62 608.458 1344.01 610.198 1341.05 609.726L1345.41 605.379C1346.45 605.552 1346.83 606.459 1347.4 607.154Z" fill="#F6F7F7"/>
<path d="M1347.4 607.154C1346.24 607.117 1345.95 606.106 1345.41 605.382C1345.7 604.924 1345.96 604.429 1346.52 604.224C1346.72 604.108 1346.94 604.037 1347.16 604.016C1347.39 603.995 1347.62 604.025 1347.84 604.103C1348.05 604.181 1348.25 604.305 1348.41 604.467C1348.57 604.629 1348.69 604.824 1348.77 605.039C1349.19 605.919 1348.76 606.462 1347.94 606.789L1347.4 607.154Z" fill="#383838"/>
<path d="M1347.94 606.788C1349.14 605.012 1348.24 604.392 1346.52 604.222C1346.93 603.883 1346.86 602.645 1347.88 603.421C1348.39 603.756 1348.81 604.2 1349.12 604.72C1349.43 605.241 1349.62 605.824 1349.67 606.427C1349.69 606.985 1348.64 607.103 1347.94 606.788Z" fill="#E0E1E0"/>
<path d="M1271.12 529.158L1270.07 529.824C1269.12 529.237 1267.98 529.025 1266.88 529.228L1266.03 528.583C1267.79 528.171 1269.43 528.941 1271.12 529.158Z" fill="#AEACAD"/>
<path d="M1299.04 533.722C1298.78 533.075 1298.11 533.15 1297.62 532.894L1299.65 532.779L1300.43 533.179L1299.04 533.722Z" fill="#E4E4E3"/>
<path d="M1301.47 543.388C1301.49 543.445 1301.5 543.506 1301.5 543.567C1301.5 543.628 1301.49 543.689 1301.46 543.745C1300.63 543.669 1299.72 543.823 1299.17 542.947L1301.47 543.388Z" fill="#777979"/>
<path d="M1387.67 545.944L1388.54 546.617C1387.93 546.865 1387.27 547.013 1386.84 546.426C1386.72 546.264 1387.28 545.953 1387.67 545.944Z" fill="#BAB9B9"/>
<path d="M1203.93 328.711C1205.56 327.136 1207.64 326.104 1209.89 325.757C1221.3 323.299 1233.05 322.708 1244.66 324.005C1277.54 327.796 1304.29 343.243 1326.3 367.295C1348.37 391.41 1361.22 420.011 1366.4 452.148C1366.55 453.042 1366.62 453.949 1366.69 454.853C1366.85 456.914 1367.27 457.104 1369.26 456.224C1371.81 455.064 1374.56 454.398 1377.36 454.26C1380.82 454.112 1382.33 455.761 1382 459.289C1381.67 462.909 1380.03 466.108 1378.7 469.397C1374.81 479.168 1369.5 488.317 1362.95 496.551C1361.09 498.847 1359.06 501.007 1356.89 503.012C1356.17 503.807 1355.2 504.32 1354.13 504.46C1353.07 504.6 1351.99 504.357 1351.09 503.774C1348.59 502.494 1346.4 500.668 1344.68 498.432C1338.67 490.305 1333.14 481.874 1329.25 472.489C1327.92 469.512 1327.09 466.341 1326.78 463.098C1326.52 459.411 1328.37 457.78 1332.05 458.247C1333.69 458.571 1335.29 459.044 1336.84 459.661C1337.95 460.014 1338.61 459.843 1339.06 458.562C1341.34 452.103 1340.76 445.628 1339.39 439.126C1336.68 426.232 1330.85 414.578 1324.96 402.948C1316.19 385.629 1305.46 369.721 1291 356.58C1280.14 346.712 1267.94 338.918 1253.98 334.132C1244.53 331.001 1234.66 329.297 1224.71 329.076C1220.7 328.94 1216.69 328.63 1212.68 328.619C1210.12 328.613 1207.59 329.319 1205.01 329.227C1204.8 329.254 1204.58 329.219 1204.39 329.128C1204.2 329.036 1204.04 328.891 1203.93 328.711V328.711Z" fill="#75C7B9"/>
<path d="M1103.41 464.089C1104.88 457.039 1108.99 451.591 1114.16 446.851C1118.79 442.6 1124.05 439.43 1130.42 438.562C1135.32 437.895 1137.11 440.182 1135.57 444.905C1134.36 448.708 1132.49 452.267 1130.04 455.418C1125.79 461.06 1120.15 465.504 1113.67 468.316C1112.06 468.982 1110.36 469.399 1108.63 469.555C1104.22 469.975 1102.67 468.354 1103.41 464.089Z" fill="#FAB21D"/>
<path d="M1106.16 470.877C1118.34 472.66 1138.01 453.884 1137.38 441.134C1140.81 443.882 1141.41 445.342 1139.8 449.857C1135.56 461.74 1127.7 470.254 1115.66 474.576C1111.16 476.193 1108.3 475.009 1106.16 470.877Z" fill="#CD8B2A"/>
<path d="M1133.62 436.941C1116.95 439.34 1107.17 449.301 1101.83 464.285C1101.12 461.141 1103.32 456.055 1105.81 452.4C1110.27 445.816 1115.93 440.509 1123.35 437.387C1126.62 436.009 1130.06 434.812 1133.62 436.941Z" fill="#AE772B"/>
<path d="M1381.54 338.934C1378.95 348.775 1374.53 358.275 1366.96 366.141C1365.84 367.167 1364.66 368.109 1363.4 368.96C1362.03 370.021 1361.24 369.499 1360.64 368.16C1359.86 366.265 1359.7 364.177 1360.16 362.183C1362.35 350.629 1367.2 340.392 1375.64 332.016C1377.13 330.546 1378.98 328.986 1380.97 329.771C1382.77 330.479 1381.94 332.858 1382.06 334.5C1382.02 335.991 1381.85 337.475 1381.54 338.934V338.934Z" fill="#FAB21D"/>
<path d="M1362.68 371.734C1376.04 360.932 1382.79 347.13 1383.84 330.356C1388.23 331.955 1389.21 333.833 1388.19 339.693C1386.78 347.903 1383.29 355.318 1379.25 362.51C1377.3 365.993 1375.35 369.476 1372.29 372.192C1370.42 373.85 1368.6 374.67 1366.18 373.261C1364.96 372.556 1363.47 372.335 1362.68 371.734Z" fill="#CD8B2A"/>
<path d="M1379.84 328.086C1370.3 333.153 1366.03 342.211 1362.08 351.451C1360.07 355.861 1359.03 360.65 1359.03 365.495C1359.06 367.128 1359.53 368.722 1360.41 370.101C1357.56 368.958 1356.7 366.556 1357.27 362.408C1358.42 354.017 1361.73 346.471 1366.25 339.405C1368.75 335.503 1371.54 331.837 1375.45 329.203C1376.76 328.32 1378.17 327.534 1379.84 328.086Z" fill="#AE772B"/>
<path d="M1155.82 361.16C1153.41 372.205 1143.58 379.68 1131.89 377.547C1120.28 375.434 1113.34 365.27 1115.29 353.874C1115.7 351.193 1116.65 348.624 1118.08 346.318C1119.51 344.012 1121.39 342.017 1123.61 340.452C1125.83 338.886 1128.34 337.782 1130.99 337.205C1133.65 336.627 1136.39 336.589 1139.06 337.092C1150.54 339.085 1157.7 349.632 1155.82 361.16Z" fill="#FCC862"/>
<path d="M1115.56 367.206C1123.85 382.252 1143.12 383.087 1153.02 371.151C1150.99 376.909 1142.38 382.538 1134.67 381.956C1125.02 381.226 1116.76 374.794 1115.56 367.206Z" fill="#CC8B2A"/>
<path d="M1248.49 363.64C1253.12 365.287 1257.79 366.831 1261.87 369.691C1262.36 370.389 1263.21 370.58 1263.83 371.077C1264.52 371.619 1264.48 372.003 1263.6 372.227C1262.84 372.199 1262.11 371.932 1261.5 371.465C1255.26 367.805 1248.28 365.564 1241.07 364.9C1233.85 364.236 1226.58 365.167 1219.77 367.625C1212.96 370.083 1206.77 374.009 1201.65 379.124C1196.53 384.239 1192.6 390.417 1190.14 397.22C1184.95 411.452 1186.23 425.429 1193.79 438.645C1196.85 444.183 1200.99 449.049 1205.97 452.955C1210.96 456.86 1216.67 459.724 1222.78 461.377C1249.75 468.977 1275.59 453.804 1283.42 429.443C1288 415.192 1286.54 401.487 1278.83 388.512C1277.61 386.783 1276.5 384.986 1275.49 383.131C1276.25 381.416 1276.95 382.775 1277.35 383.294C1278.88 385.255 1280.24 387.335 1281.62 389.399C1286.1 396.642 1288.73 404.876 1289.27 413.373C1289.21 414.128 1289.34 414.886 1289.67 415.572C1290.04 417.07 1290.44 418.569 1289.46 420.005C1289.32 425.531 1287.92 430.826 1286.52 436.122C1284.13 441.432 1281.67 446.676 1278.05 451.321C1271.46 459.899 1262.53 466.41 1252.34 470.08C1241.25 474.149 1229.95 474.342 1218.58 471.474C1212.74 470.002 1207.42 467.239 1202.21 464.282C1197.97 460.871 1193.62 457.596 1190.14 453.319C1186.65 449.123 1183.78 444.452 1181.61 439.447C1181.18 438.666 1181.15 437.732 1180.65 436.969C1176.71 426.883 1175.95 415.835 1178.47 405.306C1182.2 389.323 1191.15 377.074 1205.5 368.878C1205.7 368.765 1205.87 368.618 1206.06 368.486C1207 367.932 1208.13 367.776 1209 367.064C1219.19 361.982 1230.05 360.939 1241.2 362.014C1243.66 362.4 1246.09 362.943 1248.49 363.64V363.64Z" fill="#CD8B2A"/>
<path d="M1180.65 436.977C1181.01 437.273 1181.28 437.656 1181.45 438.09C1181.62 438.523 1181.68 438.993 1181.61 439.454C1181.27 439.146 1181 438.761 1180.83 438.331C1180.66 437.9 1180.6 437.436 1180.65 436.977V436.977Z" fill="#876226"/>
<path d="M1224.65 291.552C1226.4 290.862 1228.31 290.663 1230.17 290.974C1239.24 292.092 1247.84 294.655 1255.37 300.068C1256.89 301.155 1259.15 302.562 1258.57 304.274C1258.05 305.822 1255.4 304.971 1253.83 304.774C1244.52 303.651 1235.61 300.295 1227.88 294.993C1226.49 294.185 1225.37 292.989 1224.65 291.552Z" fill="#FAB21D"/>
<path d="M1223.42 293.187C1232.54 301.312 1243.43 304.905 1255.16 306.464C1256.06 306.506 1256.97 306.466 1257.86 306.343C1258.4 306.314 1259.15 305.855 1259.25 306.847C1259.33 307.638 1258.8 308.086 1258.09 308.334C1256.01 309.025 1253.8 309.263 1251.61 309.034C1243.36 308.481 1235.39 305.794 1228.5 301.235C1226.5 299.987 1224.82 298.299 1223.58 296.3C1223.29 295.839 1223.12 295.311 1223.09 294.765C1223.06 294.22 1223.17 293.676 1223.42 293.187V293.187Z" fill="#CD8B2A"/>
<path d="M1259.95 304.03C1258.77 300.9 1256.29 299.277 1253.77 297.742C1245.86 292.918 1236.83 290.242 1227.57 289.978C1226.54 290.013 1225.52 290.116 1224.5 290.286C1224.45 289.167 1225.29 288.932 1226.02 288.835C1227.36 288.59 1228.72 288.51 1230.07 288.598C1239.05 289.576 1247.7 292.56 1255.37 297.327C1257.28 298.426 1258.95 299.895 1260.28 301.647C1260.89 302.498 1261.14 303.268 1259.95 304.03Z" fill="#AD772B"/>
<path d="M1165.94 323.218C1167.2 316.156 1170.13 310.076 1176.18 305.808C1177.31 305.042 1178.55 304.465 1179.87 304.102C1182.92 303.196 1183.83 303.888 1184 307.258C1184.2 313.043 1182.71 318.76 1179.71 323.71C1177.97 327.089 1175.46 330.014 1172.38 332.254C1171.76 332.688 1171.11 333.07 1170.43 333.397C1167.05 334.944 1165.57 334.064 1165.3 330.411C1165.18 327.996 1165.39 325.575 1165.94 323.218Z" fill="#EBA123"/>
<path d="M1184.48 303.726C1188.8 304.853 1188.76 308.238 1188.62 311.496C1188.24 321.034 1184.65 329.122 1177.21 335.282C1174.36 337.641 1172.04 337.528 1169.17 335.195C1175.64 332.924 1179.12 327.749 1181.9 322.047C1184.7 316.317 1186.42 310.345 1184.48 303.726Z" fill="#CD8B2A"/>
<path d="M1181.72 302.405C1169.7 306.676 1164.57 315.305 1164.22 331.75C1162.97 329.604 1162.54 327.08 1163.02 324.644C1164.14 316.27 1167.5 308.997 1174.18 303.511C1176.96 301.215 1179.07 300.888 1181.72 302.405Z" fill="#AD772B"/>
<path d="M1157.13 466.851C1159.41 467.236 1161.59 468.072 1163.55 469.31C1165.5 470.548 1167.18 472.164 1168.5 474.062C1169.82 475.959 1170.75 478.101 1171.23 480.361C1171.7 482.621 1171.73 484.954 1171.29 487.222C1170.88 489.533 1170.01 491.739 1168.74 493.709C1167.46 495.68 1165.8 497.375 1163.86 498.696C1161.92 500.016 1159.73 500.935 1157.42 501.397C1155.12 501.86 1152.75 501.858 1150.44 501.39C1141.13 499.606 1134.83 490.147 1136.64 480.646C1137.56 476.125 1140.23 472.147 1144.06 469.567C1147.89 466.988 1152.59 466.013 1157.13 466.851V466.851Z" fill="#FCC862"/>
<path d="M1263.71 371.916C1263.85 370.561 1261.85 370.958 1261.88 369.691C1270.22 374.233 1277.07 381.076 1281.62 389.403C1279.91 387.997 1279.07 385.925 1277.69 384.258C1277.17 383.619 1276.89 382.606 1275.72 382.843C1274.71 382.926 1274.26 382.103 1273.75 381.509C1271.05 378.426 1267.98 375.685 1264.61 373.346C1264.13 373.001 1263.56 372.674 1263.71 371.916Z" fill="#C2842B"/>
<path d="M1289.46 420.01C1289.65 418.538 1289.09 417.03 1289.66 415.576L1290.27 413.348C1290.77 415.421 1290.41 417.216 1290.47 418.992C1290.48 419.403 1290.78 420.669 1289.46 420.01Z" fill="#292825"/>
<path d="M1287.8 434.041L1289.96 422.084C1289.4 426.1 1289.56 430.255 1287.81 434.044L1287.8 434.041Z" fill="#292825"/>
<path d="M1254.46 364.9C1254.21 365.002 1253.93 365.033 1253.66 364.988C1253.39 364.943 1253.14 364.824 1252.94 364.644C1253.19 364.519 1253.47 364.477 1253.74 364.523C1254.02 364.569 1254.27 364.701 1254.46 364.9Z" fill="#282725"/>
<path d="M1433.46 571.227C1434.33 568.279 1435.78 565.529 1437.7 563.129C1441.27 558.481 1446.09 554.945 1451.6 552.935C1452.61 552.562 1453.8 552.149 1454.32 553.499C1454.87 554.919 1453.78 555.447 1452.63 555.919C1444.78 559.158 1438.89 564.315 1436.39 572.722C1436.12 573.642 1435.55 574.199 1434.54 573.897C1433 573.429 1433.34 572.208 1433.46 571.227Z" fill="#222323"/>
<path d="M1235.65 552.783C1236 552.95 1236.34 553.139 1236.66 553.349C1240.93 556.348 1244.96 559.688 1248.69 563.336C1249.46 564.103 1250.31 564.946 1249.26 566.029C1248.36 566.968 1247.42 566.444 1246.68 565.715C1242.98 562.146 1239.02 558.86 1234.83 555.884C1234.06 555.332 1233.44 554.646 1233.81 553.592C1234.08 552.825 1234.7 552.612 1235.65 552.783Z" fill="#212323"/>
<path d="M1363.17 601.228C1362.25 600.992 1362.28 600.428 1362.71 600.03C1363.14 599.748 1363.63 599.559 1364.14 599.475C1377.72 595.233 1391.3 590.993 1404.88 586.755C1405.17 586.666 1405.46 586.605 1405.74 586.504C1406.32 586.293 1406.99 586.043 1407.22 586.865C1407.41 587.532 1406.79 587.722 1406.27 587.87C1406.05 587.93 1405.83 588.006 1405.62 588.075C1391.93 592.349 1378.25 596.622 1364.56 600.893C1364.07 601.046 1363.56 601.136 1363.17 601.228Z" fill="#222323"/>
<path d="M1301.74 564.705C1301.58 565.059 1301.86 565.95 1300.98 565.936C1300.01 565.921 1300.33 565.12 1300.37 564.564C1300.59 560.664 1300.83 556.764 1301.07 552.865C1301.11 552.357 1301.16 551.722 1301.93 551.823C1302.5 551.902 1302.55 552.37 1302.51 552.863C1302.25 556.758 1302 560.655 1301.74 564.705Z" fill="#212323"/>
<path d="M1264.84 567.768C1264.66 568.453 1264.39 569.086 1263.6 569.232C1263.41 569.274 1263.22 569.276 1263.03 569.239C1262.84 569.202 1262.66 569.125 1262.5 569.015C1262.34 568.905 1262.21 568.763 1262.11 568.598C1262.01 568.434 1261.94 568.25 1261.92 568.059C1261.65 566.729 1261.46 565.382 1261.37 564.028C1260.96 559.291 1260.59 554.55 1260.2 549.811C1260.11 548.818 1260.31 547.913 1261.44 547.736C1261.66 547.683 1261.9 547.683 1262.12 547.736C1262.35 547.79 1262.56 547.895 1262.74 548.044C1262.92 548.193 1263.06 548.382 1263.15 548.595C1263.24 548.807 1263.28 549.039 1263.27 549.27C1263.8 555.285 1264.31 561.3 1264.82 567.316C1264.84 567.465 1264.84 567.615 1264.84 567.768Z" fill="#212423"/>
<path d="M1311.85 608.647C1311.49 609.278 1310.91 609.013 1310.51 608.776C1309.76 608.283 1309.03 607.751 1308.34 607.182L1300.05 600.964C1299.5 600.554 1298.77 600.106 1299.41 599.362C1300 598.687 1300.47 599.448 1300.92 599.783C1304.23 602.26 1307.53 604.744 1310.84 607.235C1311.29 607.581 1311.93 607.836 1311.85 608.647Z" fill="#212524"/>
<path d="M1296.76 585.047C1295.43 584.698 1294.28 583.859 1293.54 582.698C1292.8 581.537 1292.53 580.141 1292.78 578.788C1293.19 576.417 1296.01 574.681 1298.54 575.242C1300.88 575.761 1303.27 579.259 1302.82 581.507C1302.33 583.934 1299.51 585.587 1296.76 585.047Z" fill="#222323"/>
<path d="M1259.74 581.794C1259.71 582.227 1259.58 582.648 1259.37 583.031C1259.16 583.413 1258.87 583.748 1258.53 584.016C1258.19 584.283 1257.79 584.478 1257.37 584.586C1256.95 584.695 1256.51 584.716 1256.07 584.647C1255.18 584.454 1254.4 583.924 1253.88 583.167C1253.37 582.41 1253.17 581.484 1253.32 580.584C1253.44 579.75 1253.87 578.994 1254.54 578.477C1255.2 577.961 1256.04 577.725 1256.88 577.821C1257.77 577.999 1258.56 578.508 1259.09 579.245C1259.63 579.982 1259.86 580.893 1259.74 581.794V581.794Z" fill="#232424"/>
<path d="M1125.73 449.301C1124.97 451.556 1123.28 452.333 1121.42 452.74C1121.54 453.949 1123.52 454.987 1122.43 455.686C1121.18 456.489 1120.9 454.364 1120.08 453.653C1119.77 453.333 1119.49 452.99 1119.23 452.628C1118.41 454.13 1117.67 455.467 1116.94 456.811C1116.61 457.427 1116.5 458.57 1115.49 458.03C1114.51 457.503 1115.44 456.648 1115.68 456.066C1116.22 454.762 1117 453.556 1117.65 452.294C1117.9 451.808 1118.45 451.362 1117.83 450.71C1117.39 450.233 1116.73 449.498 1117.54 449.003C1118.39 448.472 1118.88 449.464 1119.24 450.038C1120.22 451.594 1121.45 451.377 1122.75 450.656C1124.58 449.638 1124.75 448.355 1123.48 446.672C1123.16 446.236 1122.26 445.644 1123.04 444.967C1123.69 444.412 1124.3 444.872 1124.76 445.45C1125.75 446.688 1126.73 447.927 1127.72 449.166C1128.11 449.653 1128.57 450.255 1127.96 450.747C1127.23 451.338 1127.01 450.36 1126.58 450.062C1126.28 449.824 1126 449.57 1125.73 449.301V449.301Z" fill="#232321"/>
<path d="M1370.32 356.127C1370.51 353.443 1370.69 350.792 1370.75 348.129C1370.77 347.306 1371.77 347.176 1372.4 346.675C1372.16 346.612 1371.92 346.531 1371.69 346.433C1371.11 346.117 1369.76 346.518 1370.09 345.406C1370.44 344.233 1371.28 345.204 1371.9 345.469C1373.38 346.095 1374.78 346.657 1376.05 344.933C1377.46 343.028 1377.2 341.994 1375.04 340.956C1374.4 340.646 1372.76 340.935 1373.24 339.691C1373.52 338.94 1374.91 339.551 1375.7 339.862C1376.59 340.212 1377.32 340.885 1378.28 341.196C1379.38 341.553 1378.67 341.631 1378.43 342.598C1377.99 344.455 1375.88 345.379 1376.1 347.483C1376.2 348.436 1375.42 348.003 1375 347.894C1372.42 347.234 1371.55 347.894 1371.66 350.483C1371.83 352.459 1371.36 354.437 1370.32 356.127V356.127Z" fill="#242422"/>
<path d="M1153.74 360.755C1153.07 364.363 1151.34 367.69 1148.76 370.314C1146.19 372.937 1142.9 374.74 1139.3 375.493C1135.71 376.246 1131.97 375.915 1128.56 374.542C1125.15 373.17 1122.22 370.817 1120.16 367.783C1118.09 364.749 1116.97 361.169 1116.94 357.499C1116.91 353.829 1117.97 350.232 1119.99 347.166C1122.01 344.099 1124.9 341.701 1128.29 340.275C1131.67 338.849 1135.41 338.46 1139.02 339.156C1141.4 339.608 1143.68 340.526 1145.71 341.856C1147.74 343.186 1149.49 344.903 1150.86 346.909C1152.23 348.915 1153.19 351.17 1153.68 353.546C1154.18 355.921 1154.2 358.371 1153.74 360.755V360.755Z" fill="#242422"/>
<path d="M1263.71 371.916C1268.17 375.031 1272.2 378.702 1275.72 382.841C1282.25 391.356 1286.16 400.909 1286.5 411.666C1287 427.69 1281.38 441.228 1269.2 451.84C1264.33 456.2 1258.62 459.516 1252.41 461.582C1246.2 463.649 1239.64 464.422 1233.12 463.854C1226.33 463.465 1219.69 461.659 1213.64 458.551C1207.59 455.444 1202.25 451.104 1197.98 445.812C1190.24 436.718 1186.17 425.076 1186.54 413.147C1186.93 397.297 1193.49 384.279 1206.07 374.483C1215.1 367.425 1226.32 363.75 1237.78 364.098C1246.3 364.205 1254.64 366.603 1261.91 371.039C1262.48 371.384 1263.11 371.626 1263.71 371.916Z" fill="#202222"/>
<path d="M1246.65 299.977C1246.4 300.576 1246.12 301.162 1245.82 301.731C1245.47 302.326 1244.96 302.353 1244.61 301.722C1244.36 301.105 1243.88 300.606 1243.28 300.322C1242.68 300.037 1241.99 299.988 1241.35 300.184C1240.89 300.303 1240.48 300.03 1240.55 299.671C1240.97 297.653 1239.52 298.179 1238.55 298.201C1237.83 298.218 1237.03 298.326 1236.99 297.412C1236.96 296.582 1237.87 296.65 1238.39 296.65C1239.71 296.663 1240.96 297.031 1242.21 295.968C1242.72 295.53 1243.07 296.444 1243 297.118C1242.92 297.448 1242.94 297.794 1243.06 298.113C1243.18 298.431 1243.39 298.706 1243.67 298.901C1244.57 299.415 1244.78 298.481 1245.23 298.057C1245.56 297.751 1245.92 297.295 1246.38 297.603C1247.18 298.135 1246.82 298.942 1246.65 299.977Z" fill="#242522"/>
<path d="M1171.88 318.751C1172.23 317.556 1171.99 315.989 1173.17 314.904C1173.96 314.18 1171.9 313.167 1173.34 312.713C1174.26 312.42 1174.81 313.641 1175.67 313.893C1176.29 314.075 1176.68 313.65 1176.95 313.186C1177.11 312.929 1177.17 312.626 1177.13 312.327C1177.09 312.028 1176.95 311.751 1176.73 311.544C1176.16 310.833 1174.39 310.327 1175.34 309.312C1176.47 308.102 1177.37 309.904 1178.34 310.406C1179.1 310.893 1179.82 311.45 1180.47 312.069C1180.63 312.173 1180.75 312.333 1180.8 312.518C1180.84 312.703 1180.82 312.899 1180.73 313.066C1180.68 313.152 1180.62 313.226 1180.54 313.283C1180.47 313.34 1180.38 313.379 1180.28 313.396C1180.19 313.414 1180.09 313.41 1180 313.384C1179.91 313.359 1179.82 313.312 1179.75 313.248C1178.74 312.444 1178.61 313.131 1178.25 313.905C1177.94 314.581 1176.97 315.089 1178.27 315.727C1178.38 315.76 1178.48 315.821 1178.56 315.905C1178.64 315.989 1178.7 316.092 1178.72 316.205C1178.75 316.317 1178.75 316.435 1178.71 316.546C1178.68 316.656 1178.62 316.757 1178.54 316.836C1178.18 317.237 1177.76 317.042 1177.31 316.836C1174.09 315.398 1173.99 315.457 1173.28 318.848C1173.27 318.923 1173.25 318.997 1173.23 319.068C1172.7 320.155 1173.46 321.814 1171.87 322.38C1171.31 322.574 1171.24 322.28 1171.88 318.751Z" fill="#222322"/>
<path d="M1151.3 499.635C1149.24 499.253 1147.28 498.471 1145.52 497.333C1143.77 496.195 1142.26 494.723 1141.07 493.001C1139.89 491.279 1139.06 489.341 1138.62 487.298C1138.19 485.254 1138.16 483.146 1138.55 481.092C1138.93 479.038 1139.71 477.08 1140.85 475.329C1141.99 473.578 1143.47 472.068 1145.19 470.886C1146.91 469.704 1148.86 468.872 1150.9 468.439C1152.95 468.006 1155.06 467.98 1157.12 468.362C1161.27 469.133 1164.94 471.52 1167.33 474.997C1169.72 478.474 1170.63 482.757 1169.86 486.904C1169.09 491.051 1166.7 494.721 1163.22 497.109C1159.74 499.496 1155.45 500.405 1151.3 499.635V499.635Z" fill="#242422"/>
<path d="M1118.55 354.009C1118.98 351.769 1119.85 349.636 1121.11 347.733C1122.37 345.83 1123.99 344.196 1125.88 342.924C1127.78 341.652 1129.91 340.769 1132.15 340.324C1134.39 339.88 1136.69 339.884 1138.93 340.336C1148.35 342.13 1154.67 351.692 1152.55 360.772C1150.22 370.754 1141.55 376.034 1132.26 374.335C1130.02 373.914 1127.88 373.052 1125.97 371.799C1124.07 370.546 1122.43 368.927 1121.15 367.036C1119.87 365.145 1118.99 363.019 1118.54 360.783C1118.1 358.546 1118.1 356.244 1118.55 354.009V354.009Z" fill="#FAB21D"/>
<path d="M1227.95 461.672C1218.44 459.946 1209.66 455.422 1202.75 448.679C1195.83 441.937 1191.09 433.284 1189.13 423.831C1187.17 414.378 1188.08 404.556 1191.75 395.627C1195.43 386.697 1201.68 379.066 1209.73 373.713C1217.77 368.361 1227.24 365.531 1236.9 365.587C1246.57 365.643 1256 368.582 1263.98 374.027C1271.96 379.472 1278.13 387.174 1281.7 396.146C1285.27 405.118 1286.07 414.949 1284 424.379C1278.61 449.404 1253.77 466.547 1227.95 461.672Z" fill="#FFC863"/>
<path d="M1156.77 469.645C1159.62 470.176 1162.25 471.54 1164.32 473.564C1166.39 475.588 1167.82 478.181 1168.41 481.014C1169 483.847 1168.74 486.793 1167.66 489.477C1166.57 492.162 1164.72 494.464 1162.32 496.093C1159.92 497.721 1157.1 498.602 1154.2 498.624C1151.3 498.646 1148.46 497.807 1146.04 496.215C1143.62 494.623 1141.72 492.349 1140.6 489.681C1139.47 487.013 1139.17 484.072 1139.72 481.23C1140.08 479.351 1140.8 477.56 1141.85 475.961C1142.9 474.362 1144.26 472.985 1145.84 471.909C1147.42 470.833 1149.2 470.079 1151.08 469.691C1152.96 469.303 1154.89 469.287 1156.77 469.645V469.645Z" fill="#FAB21D"/>
<path d="M1134.88 359.361C1133.18 359.055 1131.72 359.534 1130.25 359.719C1129.73 359.785 1129.09 359.954 1128.93 359.27C1128.72 358.396 1129.5 358.317 1130.06 358.228C1131.48 358.01 1132.91 357.907 1134.32 357.675C1135.2 357.529 1136.34 357.77 1136.44 356.258C1136.52 354.951 1136.38 353.903 1135.09 353.198C1133.29 352.219 1131.57 352.943 1129.83 353.293C1129.26 353.407 1128.61 353.96 1128.28 353.123C1127.99 352.397 1128.6 351.923 1129.21 351.823C1132.69 351.245 1136.18 350.735 1139.68 350.203C1139.77 350.181 1139.87 350.179 1139.96 350.196C1140.05 350.213 1140.14 350.25 1140.22 350.304C1140.3 350.358 1140.37 350.428 1140.41 350.509C1140.46 350.59 1140.5 350.681 1140.51 350.775C1140.64 351.377 1140.17 351.606 1139.73 351.685C1138.85 351.845 1137.95 351.907 1136.89 352.029C1137.39 353.442 1138.22 354.726 1138.08 356.265C1138 357.141 1138.46 357.249 1139.22 357.016C1139.8 356.856 1140.4 356.771 1141 356.762C1141.43 356.744 1142.03 356.722 1142.13 357.267C1142.25 357.948 1141.73 358.197 1141.13 358.183C1138.02 358.111 1136.04 360.003 1134.15 362.351C1135.75 363.579 1137.46 364.861 1139.12 366.201C1139.64 366.624 1140.85 366.949 1140.17 367.837C1139.62 368.571 1138.81 367.808 1138.23 367.361C1136.67 366.172 1135.18 364.883 1133.56 363.794C1131.97 362.727 1131.98 361.794 1133.43 360.683C1133.91 360.323 1134.32 359.881 1134.88 359.361Z" fill="#222322"/>
<path d="M1228.43 459.05C1219.51 457.398 1211.28 453.146 1204.77 446.83C1198.27 440.515 1193.78 432.418 1191.87 423.559C1189.96 414.701 1190.72 405.477 1194.06 397.05C1197.39 388.622 1203.15 381.369 1210.6 376.202C1218.05 371.035 1226.87 368.186 1235.94 368.014C1245.02 367.842 1253.94 370.355 1261.58 375.236C1269.22 380.117 1275.25 387.148 1278.9 395.443C1282.55 403.738 1283.66 412.926 1282.1 421.85C1277.9 446.3 1254.01 464.034 1228.43 459.05Z" fill="#222322"/>
<path d="M1154.88 477.54C1156.41 479.399 1155.91 481.215 1155.12 483.257C1156.65 482.72 1157.91 482.272 1159.18 481.838C1159.71 481.653 1160.35 481.62 1160.55 482.209C1160.77 482.852 1160.2 483.024 1159.65 483.213C1157.67 483.89 1155.7 484.637 1153.55 485.424C1155.11 486.472 1156.58 487.395 1157.97 488.415C1158.51 488.81 1159.58 489.255 1158.89 490.119C1158.34 490.808 1157.69 489.995 1157.14 489.643C1155.82 488.79 1154.49 487.936 1153.17 487.063C1152.13 486.37 1151.07 485.882 1149.8 486.491C1149.36 486.706 1148.78 487.045 1148.5 486.258C1148.24 485.53 1148.88 485.305 1149.33 485.135C1150.8 484.563 1152.33 484.182 1153.34 482.776C1154.14 481.668 1154.81 480.425 1154.05 479.266C1153.28 478.106 1151.99 478.809 1150.97 479.247C1149.86 479.724 1148.79 480.269 1147.71 480.806C1147.31 481.006 1146.91 481.378 1146.55 480.806C1146.49 480.712 1146.44 480.605 1146.42 480.491C1146.4 480.378 1146.4 480.262 1146.43 480.15C1146.46 480.038 1146.51 479.933 1146.58 479.842C1146.65 479.751 1146.74 479.676 1146.84 479.623C1149.96 477.772 1153.3 476.323 1156.78 475.31C1157.19 475.191 1157.75 475.199 1157.84 475.815C1157.86 476.005 1157.81 476.197 1157.7 476.351C1157.58 476.506 1157.42 476.612 1157.23 476.649C1156.52 476.91 1155.82 477.185 1154.88 477.54Z" fill="#232321"/>
<path d="M1228.73 457.719C1219.99 456.113 1211.94 451.942 1205.59 445.739C1199.25 439.535 1194.9 431.583 1193.11 422.898C1191.31 414.214 1192.16 405.192 1195.53 396.988C1198.9 388.784 1204.64 381.771 1212.03 376.846C1219.41 371.921 1228.1 369.308 1236.98 369.342C1245.86 369.376 1254.52 372.055 1261.87 377.035C1269.22 382.016 1274.91 389.073 1278.22 397.302C1281.52 405.531 1282.3 414.559 1280.44 423.23C1275.48 446.927 1252.03 462.374 1228.73 457.719Z" fill="#EBA123"/>
<path d="M1236.13 392.684C1241.49 395.241 1244.32 399.215 1244.64 405.036C1246.84 404.129 1248.85 403.268 1250.89 402.474C1252.57 401.815 1254.39 402.474 1254.83 403.992C1255.32 405.662 1254.5 406.755 1252.94 407.352C1252.8 407.413 1252.66 407.461 1252.51 407.495C1245.61 408.644 1241.31 413.562 1236.82 418.218C1235.7 419.383 1236.43 420.045 1237.28 420.81C1242.69 425.679 1248.09 430.558 1253.48 435.446C1254.46 436.293 1255.37 437.207 1256.21 438.182C1257.26 439.451 1256.86 440.563 1255.26 441.118C1254.53 441.356 1253.76 441.401 1253.01 441.249C1252.26 441.096 1251.57 440.751 1251 440.247C1246.26 436.69 1241.92 432.675 1237.44 428.814C1234.85 426.587 1232.35 424.263 1229.71 422.097C1228.36 420.989 1228.38 420.025 1229.53 418.902C1230.77 417.695 1232.03 416.507 1233.71 414.9C1230.92 415.37 1228.93 416.435 1226.84 417.145C1224.83 417.828 1222.84 418.574 1220.89 419.414C1219.35 420.081 1218.14 419.803 1217.48 418.303C1216.7 416.527 1218.22 416.112 1219.39 415.615C1225.2 413.173 1230.99 410.68 1236.85 408.379C1238.47 407.74 1238.78 406.892 1238.63 405.323C1238.15 400.262 1235.29 397.225 1230.67 395.552C1229.59 395.173 1228.41 395.196 1227.35 395.618C1223.13 397.078 1218.9 398.483 1214.67 399.891C1213.52 400.272 1212.16 400.896 1211.66 399.153C1211.23 397.667 1211.13 396.13 1213.11 395.414C1223.45 391.669 1233.61 387.433 1244.34 384.838C1246.44 384.33 1246.86 385.696 1247.38 386.989C1247.95 388.435 1246.95 389.042 1245.76 389.441C1242.68 390.472 1239.6 391.514 1236.13 392.684Z" fill="#202222"/>
<path d="M1276.9 414.837C1276.85 415.135 1276.8 415.436 1276.74 415.731C1276.64 416.166 1276.59 416.684 1275.96 416.624C1275.32 416.564 1275.36 416.107 1275.37 415.62C1275.63 403.616 1270.54 394.088 1261.69 386.319C1261.22 385.91 1260.57 385.518 1261.03 384.868C1261.7 383.93 1262.3 384.915 1262.71 385.224C1267.5 388.816 1270.68 393.686 1273.26 398.963C1275.44 403.195 1276.73 407.834 1277.04 412.587C1277.08 413.34 1277.03 414.095 1276.9 414.837V414.837Z" fill="#232321"/>
<path d="M1255.72 378.766C1256.6 379.232 1257.27 379.789 1257.07 380.892C1257.06 381.121 1256.99 381.346 1256.89 381.548C1256.78 381.75 1256.63 381.926 1256.44 382.061C1256.25 382.196 1256.04 382.288 1255.81 382.329C1255.59 382.37 1255.36 382.36 1255.13 382.298C1254.19 382.073 1253.29 381.476 1253.5 380.223C1253.71 378.94 1254.76 378.917 1255.72 378.766Z" fill="#232321"/>
</g>
</g>
<defs>
<clipPath id="clip0_242_3">
<rect width="1944" height="1503" fill="white"/>
</clipPath>
<clipPath id="clip1_242_3">
<rect width="2627" height="1623" fill="white" transform="translate(-482 -169)"/>
</clipPath>
<clipPath id="clip2_242_3">
<rect width="2362.46" height="1334.78" fill="white" transform="translate(-28 -136)"/>
</clipPath>
<clipPath id="clip3_242_3">
<rect width="720" height="573" fill="white" transform="translate(1100 287)"/>
</clipPath>
</defs>
</svg>
