<svg width="36" height="36" viewBox="0 0 36 36" fill="none" xmlns="http://www.w3.org/2000/svg">
<path fill-rule="evenodd" clip-rule="evenodd" d="M26.6536 0.368397C24.5412 1.13572 22.7782 2.93011 22.2426 4.85765C22.1281 5.26983 22.034 6.27505 22.0333 7.09135C22.0316 9.77837 23.5631 12.0799 26.1341 13.2539C27.2447 13.7613 27.5647 13.8109 29.2085 13.7318C30.7336 13.6585 31.2349 13.5391 32.1795 13.0245C35.1883 11.3851 36.5684 7.73125 35.3815 4.54703C34.0919 1.08802 30.0282 -0.857544 26.6536 0.368397ZM30.1904 2.7978C30.518 3.08234 30.7898 3.59163 30.8645 4.06021C30.9724 4.7387 30.9016 4.93313 30.3435 5.49139C29.4833 6.35159 28.5837 6.36071 27.7405 5.51747C27.3175 5.09448 27.1207 4.68527 27.1207 4.22899C27.1207 3.33254 28.1174 2.32074 29.0007 2.32074C29.361 2.32074 29.8817 2.52959 30.1904 2.7978ZM30.8999 7.77132C31.7281 8.38599 31.9908 9.04836 31.9941 10.5313C31.9971 11.8032 31.9727 11.8639 31.3178 12.2025C30.2748 12.7419 28.1598 12.8407 27.0151 12.4035L26.0606 12.039V10.4948C26.0606 8.75746 26.4426 8.0266 27.6327 7.48699C28.504 7.09199 30.1815 7.23807 30.8999 7.77132ZM18.4859 9.7947C18.3727 9.94057 18.0599 10.4605 17.7907 10.9505L17.3011 11.841L16.4146 11.3215C15.0199 10.5041 14.8327 10.5883 13.8024 12.4966C12.8738 14.2172 12.828 14.6183 13.5605 14.6183C13.847 14.6183 14.1605 14.2386 14.6111 13.3462C14.9643 12.6465 15.3066 12.074 15.3714 12.074C15.4365 12.074 15.9134 12.3223 16.4311 12.6257C16.9489 12.9291 17.5065 13.1261 17.6702 13.0633C18.1015 12.8979 19.5513 10.2132 19.4093 9.84304C19.2623 9.46033 18.7656 9.43446 18.4859 9.7947ZM8.03975 14.9349L6.24494 16.739L8.25178 18.7543L10.2588 20.7699L12.0625 18.9661L13.866 17.1624L11.8503 15.1467L9.83435 13.1307L8.03975 14.9349ZM25.8502 18.5378L25.172 19.7235L24.2295 19.1712C23.7113 18.8675 23.1361 18.6492 22.9514 18.6858C22.5053 18.7749 20.9346 21.5669 21.015 22.1283C21.1246 22.8954 21.6862 22.6086 22.3938 21.4244C22.7701 20.7947 23.1072 20.1917 23.1431 20.0842C23.1789 19.9769 23.6354 20.1331 24.1574 20.4315C24.6794 20.73 25.2646 20.9751 25.458 20.9766C25.8664 20.9795 27.3898 18.3578 27.2878 17.8278C27.1389 17.0549 26.5253 17.3579 25.8502 18.5378ZM3.34674 19.6463C1.45991 21.594 0.759374 22.7235 0.280829 24.5889C-1.39991 31.1422 4.73976 37.2003 11.3332 35.4941C13.061 35.0469 14.5318 34.1102 16.2988 32.3311L17.7907 30.8293L15.7834 28.8303L13.7761 26.8315L12.2154 28.3447C10.5463 29.9633 10.0226 30.2078 8.57512 30.0446C6.8507 29.8503 5.70597 28.5201 5.70597 26.7109C5.70597 25.5383 5.9252 25.1595 7.58156 23.4683L8.98539 22.035L6.96562 20.0153L4.94606 17.9957L3.34674 19.6463ZM16.7797 23.7927L15.0354 25.5464L17.0492 27.5518L19.0632 29.5573L20.8659 27.764L22.6688 25.9705L20.7113 24.0048C19.6349 22.9238 18.7024 22.0393 18.6392 22.0393C18.576 22.0393 17.7394 22.8284 16.7797 23.7927Z" fill="#0174FF"/>
</svg>
