<svg width="60" height="65" viewBox="0 0 139 123" fill="none" xmlns="http://www.w3.org/2000/svg">
<path d="M107.286 93.2037L91.9117 77.8291C86.4018 72.3191 77.0704 74.5409 74.7597 81.7394C73.1601 86.6273 67.5612 89.4711 62.6733 88.3158C51.7423 85.5608 36.812 71.1638 34.0571 59.6995C32.4574 54.8116 35.6567 49.2128 40.6335 47.6131C47.832 45.4803 49.9649 36.06 44.5438 30.4611L29.1692 14.9977C24.7257 11.0874 18.2381 11.0874 14.3278 14.9977L3.8411 25.4844C-6.64562 36.4154 4.9964 65.6538 30.7688 91.5152C56.5413 117.376 85.7797 129.463 96.7996 118.443L107.286 107.956C111.197 103.69 111.197 97.0251 107.286 93.2037Z" fill="#3DF9D3"/>
<path d="M123.106 104.846H116.618V96.7589H123.106C127.016 96.7589 130.126 93.5596 130.126 89.7382V15.7979C130.126 11.8876 126.927 8.77716 123.106 8.77716H79.3814C75.4711 8.77716 72.3607 11.9765 72.3607 15.7979V74.8079H64.2734V15.7979C64.2734 7.4441 71.0276 0.689941 79.3814 0.689941H123.106C131.46 0.689941 138.214 7.4441 138.214 15.7979V89.7382C138.214 98.092 131.46 104.846 123.106 104.846Z" fill="#3DF9D3"/>
<path d="M118.84 22.9077H84.625V30.9949H118.84V22.9077Z" fill="#3DF9D3"/>
<path d="M118.84 42.637H84.625V50.7242H118.84V42.637Z" fill="#3DF9D3"/>
<path d="M118.84 62.366H84.625V70.4532H118.84V62.366Z" fill="#3DF9D3"/>
</svg>
