<svg width="27" height="17" viewBox="0 0 27 17" fill="none" xmlns="http://www.w3.org/2000/svg">
<path d="M6.60484 7.08829C5.91797 7.08829 5.24653 6.88461 4.67542 6.503C4.10432 6.1214 3.65919 5.57902 3.39634 4.94444C3.13349 4.30986 3.06471 3.61158 3.19871 2.93791C3.33271 2.26425 3.66347 1.64544 4.14916 1.15975C4.63485 0.674067 5.25365 0.34331 5.92732 0.20931C6.60099 0.0753088 7.29926 0.144083 7.93384 0.406935C8.56842 0.669787 9.11081 1.11491 9.49241 1.68602C9.87401 2.25713 10.0777 2.92857 10.0777 3.61543C10.0777 4.53649 9.7118 5.41982 9.06052 6.07111C8.40923 6.7224 7.5259 7.08829 6.60484 7.08829ZM6.60484 1.87901C6.2614 1.87901 5.92568 1.98085 5.64013 2.17165C5.35458 2.36245 5.13201 2.63364 5.00059 2.95093C4.86916 3.26822 4.83477 3.61736 4.90178 3.95419C4.96878 4.29103 5.13415 4.60043 5.377 4.84327C5.61984 5.08611 5.92924 5.25149 6.26608 5.31849C6.60291 5.38549 6.95205 5.35111 7.26934 5.21968C7.58663 5.08826 7.85782 4.86569 8.04862 4.58014C8.23942 4.29459 8.34126 3.95887 8.34126 3.61543C8.34126 3.1549 8.15832 2.71324 7.83268 2.38759C7.50703 2.06195 7.06537 1.87901 6.60484 1.87901ZM11.8141 16.6386H1.39556C1.16529 16.6386 0.944459 16.5472 0.781638 16.3843C0.618816 16.2215 0.527344 16.0007 0.527344 15.7704V12.2976C0.527344 11.1462 0.984705 10.0421 1.79881 9.22797C2.61292 8.41386 3.71709 7.9565 4.86841 7.9565H8.34126C9.49259 7.9565 10.5968 8.41386 11.4109 9.22797C12.225 10.0421 12.6823 11.1462 12.6823 12.2976V15.7704C12.6823 16.0007 12.5909 16.2215 12.428 16.3843C12.2652 16.5472 12.0444 16.6386 11.8141 16.6386ZM2.26377 14.9022H10.9459V12.2976C10.9459 11.6068 10.6715 10.9443 10.183 10.4558C9.69456 9.96734 9.03206 9.69293 8.34126 9.69293H4.86841C4.17762 9.69293 3.51512 9.96734 3.02665 10.4558C2.53819 10.9443 2.26377 11.6068 2.26377 12.2976V14.9022ZM26.5737 6.22007C26.5737 5.98981 26.4823 5.76897 26.3195 5.60615C26.1566 5.44333 25.9358 5.35186 25.7055 5.35186H15.287C15.0567 5.35186 14.8359 5.44333 14.6731 5.60615C14.5102 5.76897 14.4188 5.98981 14.4188 6.22007C14.4188 6.45034 14.5102 6.67117 14.6731 6.83399C14.8359 6.99681 15.0567 7.08829 15.287 7.08829H25.7055C25.9358 7.08829 26.1566 6.99681 26.3195 6.83399C26.4823 6.67117 26.5737 6.45034 26.5737 6.22007ZM26.5737 9.69293C26.5737 9.46266 26.4823 9.24183 26.3195 9.07901C26.1566 8.91618 25.9358 8.82471 25.7055 8.82471H15.287C15.0567 8.82471 14.8359 8.91618 14.6731 9.07901C14.5102 9.24183 14.4188 9.46266 14.4188 9.69293C14.4188 9.92319 14.5102 10.144 14.6731 10.3068C14.8359 10.4697 15.0567 10.5611 15.287 10.5611H25.7055C25.9358 10.5611 26.1566 10.4697 26.3195 10.3068C26.4823 10.144 26.5737 9.92319 26.5737 9.69293ZM21.3645 13.1658C21.3645 12.9355 21.273 12.7147 21.1102 12.5519C20.9473 12.389 20.7265 12.2976 20.4963 12.2976H15.287C15.0567 12.2976 14.8359 12.389 14.6731 12.5519C14.5102 12.7147 14.4188 12.9355 14.4188 13.1658C14.4188 13.396 14.5102 13.6169 14.6731 13.7797C14.8359 13.9425 15.0567 14.034 15.287 14.034H20.4963C20.7265 14.034 20.9473 13.9425 21.1102 13.7797C21.273 13.6169 21.3645 13.396 21.3645 13.1658Z" fill="#0177FF"/>
</svg>

