<svg width="14" height="14" viewBox="0 0 14 14" fill="none" xmlns="http://www.w3.org/2000/svg">
<path fill-rule="evenodd" clip-rule="evenodd" d="M2.27289 3.97656C1.7269 3.97656 1.27734 4.4263 1.27734 4.97227V11.0523C1.27734 12.3468 2.32957 13.3988 3.62409 13.3988H10.3795C11.6741 13.3988 12.7263 12.3468 12.7263 11.0523V4.97227C12.7263 4.42628 12.2768 3.97656 11.7307 3.97656H2.27289ZM2.27289 4.61656H11.7309C11.9334 4.61656 12.0865 4.76978 12.0865 4.97227V11.0523C12.0864 12.0033 11.3307 12.7588 10.3797 12.7588H3.62427C2.67321 12.7588 1.91748 12.0033 1.91748 11.0523V4.97227C1.91748 4.76976 2.07043 4.61656 2.27302 4.61656H2.27289Z" fill="black"/>
<path fill-rule="evenodd" clip-rule="evenodd" d="M4.30047 8.03125C4.12368 8.03125 3.98047 8.17455 3.98047 8.35125C3.98047 8.52804 4.12368 8.67125 4.30047 8.67125H9.70504C9.88183 8.67125 10.025 8.52804 10.025 8.35125C10.025 8.17455 9.88183 8.03125 9.70504 8.03125H4.30047Z" fill="black"/>
<path fill-rule="evenodd" clip-rule="evenodd" d="M4.30047 6.67969C4.12368 6.67969 3.98047 6.82299 3.98047 6.99969C3.98047 7.17638 4.12368 7.31969 4.30047 7.31969H9.70504C9.88183 7.31969 10.025 7.17638 10.025 6.99969C10.025 6.82299 9.88183 6.67969 9.70504 6.67969H4.30047Z" fill="black"/>
<path fill-rule="evenodd" clip-rule="evenodd" d="M1.59711 0.601563C1.05112 0.601563 0.601562 1.05112 0.601562 1.59711V2.27281C0.601562 2.81871 1.05112 3.26808 1.59711 3.26808H12.406C12.9519 3.26808 13.4016 2.8188 13.4016 2.27281L13.4015 1.59711C13.4015 1.05112 12.9519 0.601562 12.4059 0.601562L1.59711 0.601563ZM1.59711 1.24156H12.406C12.6084 1.24156 12.7616 1.3946 12.7616 1.59711V2.27281C12.7616 2.47522 12.6085 2.62808 12.406 2.62808H1.59711C1.39469 2.62808 1.24156 2.47531 1.24156 2.27281V1.59711C1.24156 1.3946 1.3946 1.24156 1.59711 1.24156V1.24156Z" fill="black"/>
</svg>
