<svg width="18" height="20" viewBox="0 0 34 41" fill="none" xmlns="http://www.w3.org/2000/svg">
<path d="M27.9865 15.0431H26.7404V10.2364C26.7404 4.49512 22.6013 0 16.682 0C10.7627 0 6.71262 4.58413 6.71262 10.2364V14.9986C6.71262 15.0431 6.71262 15.0431 6.71262 14.9986H5.46645C2.70707 14.9986 0.481762 17.2239 0.437256 20.0277V35.0708C0.437256 37.8302 2.66256 40.0555 5.46645 40.1H27.9865C30.7459 40.1 32.9712 37.8747 33.0157 35.0708V20.0277C33.0157 17.2684 30.7459 15.0431 27.9865 15.0431ZM9.20496 15.0431V10.2364C9.20496 5.96382 12.1424 2.49234 16.682 2.49234C21.1771 2.49234 24.248 5.87481 24.248 10.2364V14.9986C24.248 15.0431 24.248 15.0431 24.248 14.9986H9.20496C9.20496 15.0431 9.20496 15.0431 9.20496 15.0431ZM30.4789 35.0708C30.4789 36.4505 29.3662 37.5632 27.9865 37.5632H5.46645C4.08676 37.5632 2.9741 36.4505 2.9741 35.0708V20.0277C2.9741 18.6481 4.08676 17.5354 5.46645 17.5354H27.9865C29.3662 17.5354 30.4789 18.6481 30.4789 20.0277V35.0708ZM19.2188 25.0569C19.2188 25.9916 18.7293 26.7927 17.9727 27.2377H17.9282H17.9727V31.3323C17.9727 32.0444 17.3941 32.5785 16.7265 32.5785C16.0144 32.5785 15.4803 31.9999 15.4803 31.3323V27.2377H15.5248H15.4803C14.7237 26.7927 14.2341 25.9916 14.2341 25.0569C14.2341 23.6772 15.3468 22.5646 16.7265 22.5646C18.1062 22.5201 19.2188 23.6327 19.2188 25.0569Z" fill="black" fill-opacity="0.5"/>
</svg>
