<svg width="32" height="33" viewBox="0 0 32 33" fill="none" xmlns="http://www.w3.org/2000/svg">
<path d="M11.7626 29.8334H7.47684C6.29381 29.8334 5.33398 28.5536 5.33398 26.9762V6.02383C5.33398 4.44645 6.29381 3.16669 7.47684 3.16669H11.7626C12.9456 3.16669 13.9054 4.44645 13.9054 6.02383V26.9762C13.9054 28.5536 12.9456 29.8334 11.7626 29.8334ZM25.334 26.9762V6.02383C25.334 4.44645 24.3742 3.16669 23.1911 3.16669H18.9054C17.7224 3.16669 16.7626 4.44645 16.7626 6.02383V26.9762C16.7626 28.5536 17.7224 29.8334 18.9054 29.8334H23.1911C24.3742 29.8334 25.334 28.5536 25.334 26.9762Z" fill="#0174FF"/>
</svg>
