<svg width="28" height="28" viewBox="0 0 28 28" fill="none" xmlns="http://www.w3.org/2000/svg">
<path fill-rule="evenodd" clip-rule="evenodd" d="M5.69396 5.13604C5.69396 4.86375 5.58579 4.60262 5.39325 4.41008C5.20072 4.21754 4.93958 4.10938 4.66729 4.10938C4.395 4.10938 4.13387 4.21754 3.94133 4.41008C3.74879 4.60262 3.64062 4.86375 3.64062 5.13604V22.8694C3.64063 23.1417 3.74879 23.4028 3.94133 23.5953C4.13387 23.7879 4.395 23.896 4.66729 23.896C4.93958 23.896 5.20072 23.7879 5.39325 23.5953C5.58579 23.4028 5.69396 23.1417 5.69396 22.8694V5.13604ZM10.7022 4.31098C10.56 4.23609 10.4009 4.19918 10.2403 4.20383C10.0797 4.20848 9.92295 4.25452 9.78533 4.33751C9.64772 4.42049 9.53386 4.5376 9.45478 4.6775C9.3757 4.8174 9.33408 4.97534 9.33396 5.13604V22.8694C9.33408 23.0301 9.3757 23.188 9.45478 23.3279C9.53386 23.4678 9.64772 23.5849 9.78533 23.6679C9.92295 23.7509 10.0797 23.7969 10.2403 23.8016C10.4009 23.8062 10.56 23.7693 10.7022 23.6944L27.5022 14.8278C27.6523 14.7484 27.7778 14.6297 27.8654 14.4843C27.953 14.3389 27.9992 14.1724 27.9992 14.0027C27.9992 13.833 27.953 13.6665 27.8654 13.5211C27.7778 13.3757 27.6523 13.257 27.5022 13.1776L10.7022 4.31098ZM11.2006 21.32V6.68351L25.0681 14.0027L11.1988 21.32H11.2006Z" fill="black"/>
</svg>
