<svg width="32" height="32" viewBox="0 0 32 32" fill="none" xmlns="http://www.w3.org/2000/svg">
<path d="M12.7888 22.4755C12.7888 23.0921 13.0337 23.6835 13.4697 24.1196C13.9057 24.5556 14.4972 24.8005 15.1137 24.8005H21.7016V20.1504H15.1137C14.4972 20.1504 13.9057 20.3953 13.4697 20.8316C13.0337 21.2676 12.7888 21.859 12.7888 22.4756V22.4755ZM15.889 22.4755C15.889 22.7888 15.7 23.0716 15.4105 23.1916C15.1208 23.3116 14.7875 23.2451 14.5658 23.0235C14.3442 22.8018 14.2779 22.4685 14.3977 22.179C14.5177 21.8893 14.8005 21.7006 15.1138 21.7006C15.3195 21.7006 15.5165 21.7822 15.6619 21.9274C15.8074 22.0728 15.889 22.2699 15.889 22.4756L15.889 22.4755Z" fill="#3A416F"/>
<path d="M21.7008 15.1135C21.7008 14.8054 21.578 14.5096 21.3602 14.2915C21.142 14.0736 20.8463 13.9512 20.5382 13.9512H1.1626C0.854179 13.9512 0.55846 14.0736 0.340588 14.2915C0.122454 14.5096 0 14.8053 0 15.1135V29.8389C0 30.1474 0.122447 30.4431 0.340588 30.6609C0.558453 30.8791 0.854172 31.0015 1.1626 31.0015H20.5382C20.8463 31.0015 21.142 30.8791 21.3602 30.6609C21.578 30.4431 21.7008 30.1474 21.7008 29.8389V26.3515H15.1129C13.7286 26.3515 12.4493 25.6127 11.757 24.4139C11.0648 23.2148 11.0648 21.7376 11.757 20.5388C12.4493 19.3397 13.7286 18.6012 15.1129 18.6012H21.7008V15.1135Z" fill="#3A416F"/>
<path d="M23.251 22.0896C28.3663 21.9423 31.0012 20.6326 31.0012 20.0553V16.2305C29.2458 17.2071 26.2349 17.7225 23.251 17.8272V22.0896Z" fill="#3A416F"/>
<path d="M13.5635 3.89844V8.09519C13.5635 8.66878 16.6171 10.0754 22.2825 10.0754C27.9478 10.0754 31.0015 8.66877 31.0015 8.09519V3.89844C29.0639 4.93697 25.5765 5.42509 22.2825 5.42509C18.9885 5.42509 15.501 4.93692 13.5635 3.89844Z" fill="#3A416F"/>
<path d="M31.0015 1.93756C31.0015 3.00771 27.0977 3.87511 22.2825 3.87511C17.4672 3.87511 13.5635 3.00771 13.5635 1.93756C13.5635 0.867403 17.4672 0 22.2825 0C27.0977 0 31.0015 0.867403 31.0015 1.93756Z" fill="#3A416F"/>
<path d="M13.5635 10.0762V12.4014L20.5388 12.4011C21.2581 12.4011 21.9481 12.6868 22.4569 13.1955C22.9656 13.7042 23.2513 14.3943 23.2513 15.1136V16.2762C28.3625 16.1251 31.0015 14.796 31.0015 14.2187V10.0762C29.0639 11.1264 25.5765 11.6262 22.2825 11.6262C18.9885 11.6262 15.501 11.1301 13.5635 10.0762L13.5635 10.0762Z" fill="#3A416F"/>
</svg>
