<svg width="40" height="40" viewBox="0 0 58 65" fill="none" xmlns="http://www.w3.org/2000/svg">
<path d="M45.7201 16.1103L36.54 16.1071C35.5386 16.1071 34.7269 16.9188 34.7264 17.9201L34.7259 19.2007H35.3627C39.5078 19.2007 41.0495 19.8845 41.0495 23.6602V29.0279L45.7153 29.0295C46.7167 29.03 47.5283 28.2189 47.5289 27.2175L47.532 17.9239C47.532 16.9225 46.7209 16.1108 45.7201 16.1103ZM46.6138 6.51874L41.9832 6.51713C41.478 6.5166 41.0687 6.10733 41.0687 5.60211L41.0703 0.913979C41.0709 0.408767 41.4807 0 41.9854 0L46.6159 0.00161009C47.1212 0.00161009 47.5304 0.411431 47.5304 0.91611L47.5289 5.60424C47.5283 6.10946 47.119 6.51874 46.6138 6.51874ZM55.6991 16.1162L48.8809 16.1135C48.1374 16.1135 47.5347 15.5102 47.5353 14.7668L47.5374 7.86437C47.5379 7.12041 48.1412 6.51767 48.8846 6.51767L55.7023 6.52034C56.4463 6.52034 57.049 7.12361 57.049 7.86704L57.0464 14.77C57.0464 15.5134 56.4431 16.1162 55.6991 16.1162ZM36.5352 29.0268C35.5338 29.0268 34.7227 28.2151 34.7232 27.2138L34.7259 19.2007H34.0576C29.9125 19.2007 28.3708 19.885 28.3708 23.6608V32.4961C28.3702 32.5148 28.3681 32.5334 28.3681 32.5521V34.4887C28.367 34.5559 28.3628 34.6182 28.3628 34.6875V47.0327C28.3628 48.5404 28.0723 49.741 27.4728 50.6736C26.3425 52.4152 24.1047 53.2066 20.5245 53.2114C16.9459 53.2066 14.7087 52.4158 13.5784 50.6758C12.9772 49.7426 12.6863 48.5414 12.6863 47.0327V34.6875C12.6863 34.6182 12.6825 34.5559 12.6815 34.4887V32.5521C12.6815 32.5334 12.6793 32.5148 12.6788 32.4961V23.6608C12.6788 19.885 11.137 19.2007 6.99196 19.2007H5.68685C1.54123 19.2007 0 19.885 0 23.6608V47.0327C0 50.7925 0.847871 53.9756 2.48608 56.5417C5.65005 61.5139 11.7792 64.162 20.4925 64.162C20.5032 64.162 20.5139 64.1614 20.5245 64.1614C20.5357 64.1614 20.5458 64.162 20.557 64.162C29.2704 64.162 35.3995 61.5139 38.5635 56.5417C40.2017 53.9756 41.0495 50.7925 41.0495 47.0327V29.0279L36.5352 29.0268Z" fill="#0174FF"/>
</svg>
