<svg width="27" height="30" viewBox="0 0 27 30" fill="none" xmlns="http://www.w3.org/2000/svg">
<path d="M10.5 7.8V22.2H7.5V7.8H10.5ZM10.5 6H7.5C7.10218 6 6.72064 6.18964 6.43934 6.52721C6.15804 6.86477 6 7.32261 6 7.8V22.2C6 22.6774 6.15804 23.1352 6.43934 23.4728C6.72064 23.8104 7.10218 24 7.5 24H10.5C10.8978 24 11.2794 23.8104 11.5607 23.4728C11.842 23.1352 12 22.6774 12 22.2V7.8C12 7.32261 11.842 6.86477 11.5607 6.52721C11.2794 6.18964 10.8978 6 10.5 6ZM19.5 7.8V22.2H16.5V7.8H19.5ZM19.5 6H16.5C16.1022 6 15.7206 6.18964 15.4393 6.52721C15.158 6.86477 15 7.32261 15 7.8V22.2C15 22.6774 15.158 23.1352 15.4393 23.4728C15.7206 23.8104 16.1022 24 16.5 24H19.5C19.8978 24 20.2794 23.8104 20.5607 23.4728C20.842 23.1352 21 22.6774 21 22.2V7.8C21 7.32261 20.842 6.86477 20.5607 6.52721C20.2794 6.18964 19.8978 6 19.5 6Z" fill="black"/>
</svg>

