<svg width="40" height="40" viewBox="0 0 40 40" fill="none" xmlns="http://www.w3.org/2000/svg">
<path d="M17.9987 18.6667C17.8788 18.6346 17.7747 18.6067 17.6667 18.5827C17.182 18.5065 16.7446 18.2487 16.4429 17.8617C16.1413 17.4744 15.9982 16.9873 16.0428 16.4987C16.0796 15.9967 16.3076 15.5283 16.6795 15.1895C17.0517 14.8508 17.5397 14.6681 18.0428 14.6787C18.6109 14.6787 19.1829 14.7147 19.7467 14.6787C20.8547 14.5908 21.9507 15.3586 21.9387 16.8787V22.2549V27.5869V27.987L22.2987 28.0671V28.0665C22.9502 28.1851 23.4987 28.622 23.7602 29.2306C24.0216 29.8388 23.9611 30.5375 23.5989 31.0919C23.2365 31.6461 22.621 31.982 21.9588 31.9867C20.6254 32.0079 19.2923 32.0079 17.9588 31.9867C17.2959 31.9954 16.6731 31.6703 16.3009 31.1218C15.9287 30.573 15.8573 29.8743 16.1106 29.2616C16.3637 28.6489 16.9078 28.2044 17.5587 28.0786C17.6787 28.0507 17.8025 28.0306 17.9588 27.9985V18.6671L17.9987 18.6667Z" fill="#0174FF"/>
<path d="M16.6914 10.6479C16.7028 9.94501 16.9888 9.2745 17.4883 8.77986C17.9874 8.28488 18.6604 8.005 19.3635 8C20.0566 8.01981 20.7148 8.30915 21.1981 8.80664C21.6817 9.30413 21.9518 9.97043 21.9515 10.6641C21.9487 11.6035 21.4448 12.4704 20.6295 12.9378C19.8145 13.4049 18.812 13.4021 17.9995 12.9297C17.1873 12.4573 16.6886 11.5876 16.6915 10.6479L16.6914 10.6479Z" fill="#0174FF"/>
<path d="M20.0642 0C31.0442 0.0359936 40.0642 9.06357 40.0006 19.9679C39.9964 23.4885 39.0656 26.9458 37.3017 29.9929C35.5377 33.0397 33.0028 35.5685 29.9517 37.325C26.9005 39.0815 23.4411 40.0041 19.9202 39.9999C8.93237 40.02 -0.051917 30.9242 0.000225829 19.8242C0.0468215 14.5394 2.18323 9.48779 5.94273 5.7735C9.70223 2.05893 14.7792 -0.0164286 20.0642 0.000642857V0ZM20.1562 3.78407C17.2994 3.75645 14.486 4.48636 12.0027 5.89986C9.51966 7.31307 7.45523 9.35914 6.01995 11.8296C4.58466 14.3003 3.82995 17.1069 3.83216 19.9639C3.732 28.7996 11.0643 36.176 19.9243 36.196C22.7806 36.2024 25.5878 35.4533 28.0607 34.0241C30.5339 32.5953 32.585 30.5376 34.006 28.0599C35.4271 25.5819 36.1673 22.7725 36.1519 19.9163C36.0998 11.0563 28.8998 3.79629 20.1555 3.78414L20.1562 3.78407Z" fill="#0174FF"/>
</svg>
