<svg width="194" height="54" viewBox="0 0 194 54" fill="none" xmlns="http://www.w3.org/2000/svg">
<path d="M50.9285 26.7361C50.9318 32.1974 49.0895 37.4995 45.7007 41.7823C42.3119 46.065 37.5754 49.077 32.2597 50.3296C26.9439 51.5822 21.3609 51.0019 16.4165 48.6827C11.472 46.3636 7.45629 42.4418 5.0208 37.5536C2.58532 32.6654 1.873 27.0977 2.99943 21.7538C4.12586 16.4099 7.02495 11.6035 11.2263 8.11426C15.4276 4.62506 20.6847 2.65786 26.1446 2.53184C31.6044 2.40583 36.9467 4.1284 41.3045 7.42007C44.2935 9.67592 46.7183 12.5945 48.3883 15.9462C50.0582 19.2979 50.9278 22.9914 50.9285 26.7361Z" fill="url(#paint0_linear_218_147)"/>
<path d="M26.7341 2.571C32.7036 2.57828 38.4577 4.80246 42.8802 8.81211C47.3026 12.8218 50.0783 18.3311 50.6686 24.2714C51.259 30.2116 49.622 36.1595 46.0753 40.9611C42.5285 45.7628 37.3247 49.076 31.4734 50.2581C25.6221 51.4402 19.5402 50.4069 14.4076 47.3586C9.27499 44.3104 5.45747 39.4645 3.69554 33.7609C1.93361 28.0573 2.35286 21.9025 4.87197 16.4905C7.39109 11.0785 11.8305 6.79507 17.3291 4.471C20.3043 3.21125 23.5031 2.56501 26.7341 2.571ZM26.7341 0C21.4462 0 16.277 1.56804 11.8803 4.50583C7.48362 7.44362 4.0568 11.6192 2.03322 16.5046C0.00963306 21.3899 -0.519831 26.7657 0.511783 31.9519C1.5434 37.1382 4.08976 41.9021 7.82885 45.6412C11.5679 49.3803 16.3318 51.9267 21.5181 52.9583C26.7044 53.9899 32.0801 53.4604 36.9655 51.4368C41.8508 49.4133 46.0264 45.9864 48.9642 41.5897C51.902 37.193 53.4701 32.0239 53.4701 26.736C53.4701 19.6452 50.6532 12.8448 45.6393 7.8308C40.6253 2.81682 33.8249 0 26.7341 0Z" fill="#3A3A3A"/>
<path d="M26.7326 19.3711C26.7326 19.3711 9.14561 30.4711 15.3486 38.5831C21.5516 46.6951 22.9836 48.9961 31.3676 46.5581C39.7516 44.1201 39.4116 39.5281 39.5476 32.7161C39.6836 25.9041 26.7326 19.3711 26.7326 19.3711Z" fill="white"/>
<path d="M42.2812 35.3479C42.1252 27.2559 37.2702 22.3299 32.3202 18.6189C32.0442 18.8189 31.7692 19.0189 31.4952 19.2189L32.3542 18.5849C36.0122 15.7849 39.5932 12.3489 41.2842 7.41688C39.5755 6.12501 37.7023 5.06638 35.7142 4.26888C34.7062 8.57588 31.5442 11.4839 27.0332 14.7689C22.6552 11.6629 18.9332 8.72288 17.7582 4.25488C15.7749 5.0462 13.9053 6.09703 12.1982 7.37988C13.694 11.0922 16.163 14.3325 19.3452 16.7599C20.1082 17.3949 20.8922 18.0019 21.6832 18.5889L21.8132 18.6889L21.7582 18.7299C16.5332 22.5369 11.6022 27.2009 11.3002 35.0079C11.3002 35.1169 11.2922 35.2269 11.2892 35.3479C11.2842 35.4839 11.2832 35.6259 11.2832 35.7639C11.2976 38.5656 12.0844 41.3091 13.5571 43.6926C15.0297 46.0761 17.1311 48.0073 19.6302 49.2739C21.8209 50.4011 24.2456 50.9981 26.7092 51.0169H26.8612C29.3248 50.9981 31.7495 50.4011 33.9402 49.2739C36.4393 48.0073 38.5407 46.0761 40.0134 43.6926C41.486 41.3091 42.2728 38.5656 42.2872 35.7639C42.2872 35.6189 42.2862 35.4829 42.2812 35.3479ZM27.1812 22.4069L29.9812 20.3369C28.9592 21.0939 28.0022 21.8139 27.1772 22.4069H27.1812ZM36.0592 35.7539C36.0234 38.1891 35.0309 40.5125 33.2962 42.222C31.5614 43.9314 29.2237 44.8897 26.7882 44.8897C24.3527 44.8897 22.015 43.9314 20.2802 42.222C18.5455 40.5125 17.553 38.1891 17.5172 35.7539C17.5172 35.6979 17.5172 35.6399 17.5172 35.5849V35.4979C17.5172 35.4209 17.5172 35.3449 17.5242 35.2669V35.2379C17.7122 30.2839 20.7682 27.1159 24.8302 24.0859C24.8322 24.0853 24.8343 24.0853 24.8362 24.0859C25.5562 23.5479 26.3082 23.0149 27.0812 22.4769L27.1042 22.4609C32.5042 26.3149 35.9522 29.6529 36.0542 35.4909V35.5809C36.0592 35.6389 36.0592 35.6959 36.0592 35.7539Z" fill="#3A3A3A"/>
<path d="M162.612 7.96011L159.6 4.99512L156.635 7.96011L159.6 10.9721L162.612 7.96011Z" fill="#3A3A3A"/>
<path d="M91.4156 25.7941V18.9241H117.767V20.2891C117.701 20.3213 117.628 20.3374 117.555 20.3361C117.481 20.3351 117.409 20.3512 117.343 20.3831C116.396 20.5997 115.461 20.8667 114.543 21.1831C113.523 21.5284 112.558 21.8734 111.649 22.2181C110.613 22.6261 109.562 23.0498 108.496 23.4891L109.531 25.8421C110.597 25.4348 111.444 25.1055 112.072 24.8541C112.699 24.6028 113.279 24.3911 113.813 24.2191C114.369 24.0408 114.935 23.8916 115.507 23.7721C116.103 23.6468 116.903 23.5054 117.907 23.3481C119.113 23.0753 120.376 23.1991 121.507 23.7011C121.935 23.8608 122.306 24.146 122.571 24.5195C122.835 24.8931 122.981 25.3376 122.989 25.7951V29.4661C121.715 28.2829 120.219 27.3633 118.589 26.7601C117.219 26.2608 115.763 26.0368 114.307 26.1011C112.997 26.1651 111.714 26.5016 110.542 27.0891C109.466 27.6155 108.519 28.3716 107.768 29.3041C107.073 30.1724 106.604 31.1988 106.403 32.2921C106.202 33.4146 106.375 34.572 106.897 35.5861C107.329 36.574 108.011 37.4332 108.874 38.0801C109.721 38.708 110.678 39.1711 111.697 39.4451C112.762 39.7306 113.864 39.8573 114.967 39.8211C116.085 39.7929 117.197 39.6431 118.284 39.3741C119.312 39.122 120.307 38.7508 121.249 38.2681C122.061 37.8666 122.807 37.3428 123.461 36.7151L127.226 39.6331V25.7471C127.217 25.1841 127.063 24.6329 126.779 24.1471C126.458 23.5871 126.044 23.0859 125.555 22.6651C125.001 22.1865 124.393 21.7755 123.743 21.4411C123.051 21.0806 122.326 20.7891 121.578 20.5711V18.9241H131.742C131.898 19.4261 132.134 20.1321 132.448 21.0421C132.762 21.9521 133.122 22.9728 133.53 24.1041C133.937 25.2335 134.376 26.4335 134.848 27.7041C135.319 28.9748 135.79 30.2298 136.26 31.4691C136.73 32.7085 137.201 33.8928 137.672 35.0221C138.142 36.1515 138.582 37.1241 138.99 37.9401C139.155 38.4499 139.491 38.8873 139.94 39.1787C140.39 39.4701 140.927 39.5977 141.46 39.5401C142.88 39.2157 144.149 38.4194 145.06 37.2811C145.67 36.6189 146.229 35.9109 146.731 35.1631C147.321 34.2997 147.862 33.4043 148.354 32.4811C148.855 31.5398 149.318 30.5751 149.742 29.5871C150.166 28.5991 150.511 27.6894 150.777 26.8581C151.017 26.1384 151.191 25.3979 151.295 24.6461C151.402 24.1935 151.344 23.7172 151.13 23.3041L149.63 21.2301C149.159 22.6421 148.728 23.9128 148.336 25.0421C147.944 26.1714 147.558 27.1921 147.178 28.1041C146.838 28.938 146.455 29.7534 146.03 30.5471C145.667 31.2229 145.25 31.868 144.783 32.4761C144.516 32.8336 144.225 33.1717 143.912 33.4881C143.667 33.7498 143.371 33.9581 143.042 34.1001C142.797 34.2081 142.522 34.2248 142.266 34.1471C142.125 34.0819 141.999 33.9873 141.898 33.8697C141.796 33.7521 141.721 33.6141 141.678 33.4651C141.364 32.7438 140.964 31.7241 140.478 30.4061C139.992 29.0881 139.49 27.7078 138.972 26.2651C138.454 24.8224 137.96 23.4341 137.49 22.1001C137.019 20.7661 136.643 19.7075 136.361 18.9241H157.395V36.4291L161.63 39.5821V18.9241H183.558V25.0411C183.4 24.9164 183.016 24.6028 182.405 24.1001C181.705 23.535 180.974 23.0089 180.217 22.5241C179.336 21.9575 178.407 21.4693 177.441 21.0651C176.505 20.6562 175.497 20.4402 174.476 20.4301C173.69 20.4359 172.911 20.571 172.17 20.8301C171.384 21.0976 170.646 21.4867 169.982 21.9831C169.314 22.4779 168.727 23.0729 168.241 23.7471C167.76 24.4077 167.445 25.1743 167.324 25.9821C167.073 27.3345 167.064 28.7209 167.3 30.0761C167.506 31.2145 167.879 32.3163 168.406 33.3461C168.877 34.2613 169.471 35.1083 170.171 35.8641C170.756 36.5043 171.393 37.0947 172.077 37.6291C172.566 38.011 173.076 38.3645 173.606 38.6881C173.823 38.8301 174.051 38.9558 174.288 39.0641C175.395 39.7907 176.682 40.198 178.006 40.2411C179.271 40.2758 180.531 40.0764 181.724 39.6531C182.923 39.2259 184.055 38.6317 185.089 37.8881C186.077 37.191 186.984 36.386 187.795 35.4881V18.9241H193.677L191.277 14.7831H187.795C187.781 13.6374 187.663 12.4953 187.442 11.3711C187.228 10.3908 186.871 9.44735 186.383 8.57111C186.002 7.92289 185.526 7.33591 184.971 6.83012C184.527 6.43578 184.055 6.07416 183.559 5.74812C183.076 5.45993 182.573 5.20823 182.053 4.99512L181.724 5.65411C181.796 5.7943 181.892 5.92165 182.006 6.03112C182.1 6.15645 182.202 6.29745 182.312 6.45412C182.443 6.64965 182.561 6.85415 182.665 7.06612C182.923 7.71562 183.097 8.39547 183.183 9.08912C183.307 9.93645 183.401 10.7834 183.465 11.6301C183.527 12.6341 183.558 13.6851 183.559 14.7831H57.0176L59.3706 18.9241H62.5236V35.4881H62.5706V45.3231L66.8056 48.4761V38.8291C68.2152 39.5813 69.7573 40.0526 71.3466 40.2171C72.9937 40.3821 74.6473 39.9749 76.0296 39.0641C76.2658 38.9556 76.4938 38.83 76.7116 38.6881C77.2409 38.3644 77.7514 38.0108 78.2406 37.6291C78.9235 37.0944 79.561 36.504 80.1466 35.8641C80.8455 35.108 81.4392 34.261 81.9116 33.3461C82.4383 32.3161 82.811 31.2144 83.0176 30.0761C83.2527 28.7209 83.2449 27.3346 82.9946 25.9821C82.8424 25.179 82.5217 24.4172 82.0536 23.7471C81.58 23.0701 80.9998 22.4744 80.3356 21.9831C79.6709 21.487 78.9326 21.0979 78.1476 20.8301C77.4061 20.5711 76.627 20.436 75.8416 20.4301C74.8361 20.4435 73.8437 20.6595 72.9236 21.0651C71.9608 21.4673 71.0324 21.9472 70.1476 22.5001C69.3916 22.9681 68.6682 23.487 67.9826 24.0531C67.3866 24.5551 66.9946 24.8844 66.8066 25.0411V18.9241H87.1816V35.4881L91.4166 38.6411V29.5591C91.8872 29.2458 92.4519 28.8928 93.1106 28.5001C93.7692 28.1074 94.4279 27.7311 95.0866 27.3711C95.7452 27.0111 96.3569 26.6974 96.9216 26.4301C97.3353 26.2273 97.7596 26.0467 98.1926 25.8891C98.5113 25.8331 98.8395 25.9003 99.1106 26.0771C99.4641 26.2844 99.7886 26.5376 100.076 26.8301C100.401 27.1587 100.7 27.5128 100.97 27.8891C101.252 28.2818 101.488 28.6348 101.676 28.9481L104.782 25.6071C104.53 25.1684 104.24 24.6821 103.911 24.1481C103.579 23.6108 103.218 23.0921 102.83 22.5941C102.465 22.1241 102.072 21.6763 101.654 21.2531C101.326 20.9071 100.934 20.6276 100.501 20.4301C100.333 20.3695 100.154 20.3443 99.9757 20.3564C99.7975 20.3684 99.6238 20.4174 99.4656 20.5001C99.0295 20.6884 98.612 20.917 98.2186 21.1831L91.4156 25.7941ZM71.2296 26.0771C72.126 25.5137 73.0805 25.0483 74.0766 24.6891C74.6457 24.471 75.2602 24.3981 75.8646 24.4771C76.3361 24.578 76.7887 24.7528 77.2056 24.9951C77.6857 25.2678 78.0967 25.6473 78.4068 26.1042C78.7168 26.5611 78.9176 27.0832 78.9936 27.6301C79.1765 28.8487 79.0552 30.0937 78.6406 31.2541C78.1989 32.542 77.5382 33.744 76.6876 34.8071C75.9142 35.839 74.884 36.6503 73.6996 37.1601C72.5865 37.6151 71.3425 37.6319 70.2176 37.2071C68.7236 36.5163 67.517 35.3264 66.8056 33.8421V29.1351C68.226 28.0395 69.7027 27.0188 71.2296 26.0771ZM122.992 34.0301C122.37 34.5461 121.681 34.9747 120.944 35.3041C120.048 35.7242 119.12 36.0704 118.168 36.3391C117.201 36.6178 116.207 36.7915 115.203 36.8571C114.33 36.9338 113.45 36.838 112.615 36.5751C111.915 36.3548 111.321 35.8859 110.944 35.2571C110.549 34.4511 110.482 33.5237 110.756 32.6691C110.847 32.1976 111.036 31.7506 111.312 31.3574C111.588 30.9642 111.943 30.6336 112.356 30.3871C113.269 29.8511 114.308 29.5671 115.368 29.5641C116.65 29.5531 117.925 29.7681 119.133 30.1991C120.526 30.6782 121.83 31.3859 122.992 32.2931V34.0301ZM183.592 33.2361C182.969 34.5269 181.923 35.5656 180.628 36.1791C179.654 36.5619 178.571 36.5547 177.603 36.1591C176.569 35.7138 175.669 35.0099 174.987 34.1151C174.236 33.196 173.655 32.1511 173.27 31.0291C172.909 30.0144 172.803 28.9263 172.963 27.8611C173.023 27.3868 173.195 26.9336 173.465 26.5391C173.735 26.1445 174.095 25.8199 174.516 25.5921C174.884 25.3792 175.284 25.2272 175.701 25.1421C176.232 25.0727 176.773 25.1359 177.275 25.3261C178.14 25.6384 178.969 26.0427 179.748 26.5321C181.074 27.3503 182.356 28.2372 183.59 29.1891L183.592 33.2361Z" fill="#3A3A3A"/>
<defs>
<linearGradient id="paint0_linear_218_147" x1="26.7035" y1="-6.34096" x2="26.7035" y2="60.2294" gradientUnits="userSpaceOnUse">
<stop stop-color="#0174FF"/>
<stop offset="0.081" stop-color="#0782FA"/>
<stop offset="0.381" stop-color="#1EB2E9"/>
<stop offset="0.644" stop-color="#2FD5DD"/>
<stop offset="0.86" stop-color="#39EBD5"/>
<stop offset="1" stop-color="#3DF3D3"/>
</linearGradient>
</defs>
</svg>
