<svg width="48" height="46" viewBox="0 0 48 46" fill="none" xmlns="http://www.w3.org/2000/svg">
<path fill-rule="evenodd" clip-rule="evenodd" d="M11.6571 11.8376H21.9013L20.9252 12.6016L18.6114 13.1959C18.0201 13.3477 17.6178 13.6518 17.4906 14.2543L16.0165 14.6326C15.6394 14.7299 15.384 14.9401 15.1777 15.2483C14.6464 15.3885 14.2461 15.461 13.9389 15.9699C13.7614 16.2647 13.7006 16.624 13.7985 16.9762L14.3077 18.8005C14.4066 19.1539 14.6467 19.4373 14.9543 19.6075C15.2619 19.778 15.6364 19.8359 16.0044 19.7423L16.4036 19.6402C16.7185 19.8122 17.1024 19.8608 17.4522 19.7713L18.9278 19.3921C19.1169 19.5979 19.3684 19.7456 19.6464 19.8103L20.0141 21.1268C20.715 23.636 24.66 22.5605 23.9755 20.1108L23.7583 19.3335L29.5276 20.2346C30.5238 20.3909 31.3302 19.5102 31.0959 18.5956L30.6659 17.0542L31.0053 17.242C32.5913 18.1186 33.9762 15.8205 32.3909 14.9406L31.8834 14.6577C33.2351 14.0326 32.6107 12.0939 31.1767 12.1492L31.3647 11.8369H35.1818C35.8539 11.8369 36.4037 12.3637 36.4037 13.0079V27.5007C36.4037 28.1448 35.8539 28.6717 35.1818 28.6717H27.6918L26.7182 33.0872H36.1772C36.3016 33.0872 36.4031 33.1845 36.4031 33.3034V35.9828C36.4031 36.1017 36.3016 36.1989 36.1772 36.1989H10.6599C10.5358 36.1989 10.4339 36.1017 10.4339 35.9828V33.3034C10.4339 33.1845 10.5356 33.0872 10.6599 33.0872H20.1188L19.1457 28.6717H11.6557C10.9832 28.6717 10.4336 28.1448 10.4336 27.5007V13.0079C10.4336 12.3638 10.9834 11.8369 11.6557 11.8369L11.6571 11.8376ZM18.7258 14.0605L21.3416 13.3887L26.7819 9.12808C27.0522 8.89498 27.4862 9.01694 27.5803 9.35422L30.2221 18.8024C30.3054 19.1286 30.0236 19.4399 29.6723 19.3842L22.7144 18.2978L22.5477 18.3407L23.105 20.3346C23.2731 20.9362 22.8909 21.5145 22.2725 21.6733C21.6716 21.8275 21.0457 21.4811 20.8845 20.905L20.3269 18.9107L20.0979 18.9695C19.8376 19.0363 19.5699 18.8886 19.5002 18.6388L19.4254 18.3714L17.2188 18.9381C16.9899 18.9969 16.7496 18.8897 16.6498 18.6837L15.775 18.9087C15.5147 18.9755 15.2472 18.8274 15.1777 18.5777L14.6689 16.7579C14.599 16.5081 14.7533 16.2519 15.014 16.1851L15.8888 15.9602C15.8671 15.7342 16.0195 15.5265 16.2487 15.4676L18.4548 14.9009L18.38 14.6335C18.3103 14.3841 18.4652 14.1275 18.7253 14.0607L18.7258 14.0605ZM19.1726 17.4674L18.7081 15.8047L16.9731 16.2503L17.438 17.913L19.1728 17.4674H19.1726ZM31.9407 15.6862C32.4973 15.9941 32.0096 16.8045 31.4528 16.4966L30.0064 15.6966C29.4503 15.3887 29.9382 14.5779 30.4948 14.8858L31.9407 15.6862ZM29.8595 12.6149C29.5387 13.1479 28.6926 12.6807 29.0141 12.1469L29.8489 10.7608C30.1701 10.2278 31.0158 10.6954 30.6943 11.2284L29.8595 12.6149ZM29.7336 14.3487C29.1128 14.5082 28.8608 13.6043 29.4812 13.4451L31.0942 13.0306C31.6551 12.8864 32.0761 13.7397 31.3477 13.9334L29.7336 14.3485L29.7336 14.3487ZM22.0875 14.0104L23.0352 17.4018L29.0834 18.3462L26.8321 10.295L22.0874 14.0108L22.0875 14.0104ZM21.1847 14.3975L19.4497 14.843L20.3167 17.9448L22.0521 17.4988L21.1847 14.3973V14.3975Z" fill="black"/>
</svg>
