<svg width="15" height="16" viewBox="0 0 15 16" fill="none" xmlns="http://www.w3.org/2000/svg">
<path d="M8.5853 14.155C9.39359 14.0125 10.1659 13.7122 10.8581 13.2712C11.5503 12.8302 12.1489 12.2572 12.6197 11.5849C13.0905 10.9125 13.4242 10.1541 13.6019 9.35275C13.7795 8.55144 13.7976 7.72299 13.655 6.9147C13.5125 6.10641 13.2122 5.3341 12.7712 4.64188C12.3302 3.94965 11.7572 3.35107 11.0849 2.8803C10.4125 2.40953 9.65405 2.0758 8.85275 1.89815C8.05144 1.7205 7.22299 1.70243 6.4147 1.84495C5.60641 1.98748 4.8341 2.28781 4.14188 2.7288C3.44965 3.1698 2.85107 3.74282 2.3803 4.41515C1.90953 5.08748 1.57579 5.84595 1.39815 6.64725C1.2205 7.44856 1.20243 8.27701 1.34495 9.0853C1.48748 9.8936 1.78781 10.6659 2.2288 11.3581C2.6698 12.0503 3.24282 12.6489 3.91515 13.1197C4.58748 13.5905 5.34595 13.9242 6.14725 14.1019C6.94856 14.2795 7.77701 14.2976 8.5853 14.155L8.5853 14.155Z" stroke="#979797"/>
<path d="M7.5 8L7.5 11.75" stroke="#979797" stroke-linecap="square"/>
<path d="M7.5 4.875L7.5 4.25" stroke="#979797" stroke-linecap="square"/>
</svg>
