<svg width="24" height="23" viewBox="0 0 24 23" fill="none" xmlns="http://www.w3.org/2000/svg">
<path d="M9.86133 18.0621L9.52559 17.7264L9.18985 18.0621L9.52559 18.3979L9.86133 18.0621ZM13.3241 13.9279L9.52559 17.7264L10.1971 18.3979L13.9955 14.5994L13.3241 13.9279ZM9.52559 18.3979L13.3241 22.1964L13.9955 21.5249L10.1971 17.7264L9.52559 18.3979Z" fill="#979797"/>
<path d="M6.00412 14.7386C5.25101 13.4341 4.96323 11.9126 5.18793 10.4232C5.41263 8.93388 6.13649 7.56497 7.24092 6.54079C8.34535 5.51661 9.76487 4.89788 11.2669 4.78596C12.769 4.67403 14.2645 5.07555 15.5086 5.92474C16.7526 6.77393 17.6713 8.02044 18.1143 9.46006C18.5572 10.8997 18.4981 12.4471 17.9466 13.8487C17.3952 15.2503 16.384 16.4231 15.0788 17.1749C13.7737 17.9268 12.2519 18.213 10.7627 17.9869" stroke="#979797" stroke-width="0.949618" stroke-linecap="round"/>
</svg>
