<svg width="15" height="17" viewBox="0 0 15 17" fill="none" xmlns="http://www.w3.org/2000/svg">
<path d="M7.31439 2.59498L7.29531 1.19398C7.29194 0.946127 6.99058 0.826082 6.81771 1.00373L3.98745 3.91219C3.8803 4.02231 3.8827 4.19846 3.99283 4.30563L6.90128 7.13588C7.07893 7.30874 7.37688 7.18054 7.37353 6.93268L7.35233 5.37774C9.62847 5.41113 11.4633 7.26668 11.4633 9.55076C11.4633 11.8557 9.59478 13.7243 7.28983 13.7243C4.98487 13.7243 3.11633 11.8557 3.11632 9.55077L0.334006 9.55076C0.333995 13.3924 3.44824 16.5066 7.28982 16.5066C11.1314 16.5066 14.2457 13.3924 14.2457 9.55076C14.2457 5.71736 11.1447 2.60821 7.31439 2.59498Z" fill="#0174FF"/>
</svg>
