<svg width="15" height="19" viewBox="0 0 15 19" fill="none" xmlns="http://www.w3.org/2000/svg">
<path d="M3.82706 4.96342H10.5844C10.8236 4.96342 11.023 4.76403 11.023 4.52489V2.61123C11.023 2.37207 10.8236 2.1727 10.5844 2.1727L9.44831 2.17284V2.13293C9.38852 0.936863 8.41175 0 7.21582 0C6.01976 0 5.04313 0.936863 4.98333 2.13293V2.17284H3.8272C3.58805 2.17284 3.38867 2.37222 3.38867 2.61137V4.52503C3.38853 4.76404 3.58792 4.96342 3.82706 4.96342V4.96342ZM7.21568 1.31564C7.71401 1.31564 8.11264 1.71427 8.11264 2.2126C8.11264 2.71093 7.71401 3.10956 7.21568 3.10956C6.71735 3.10956 6.31872 2.71093 6.31872 2.2126C6.31872 1.73427 6.71735 1.31564 7.21568 1.31564Z" fill="#0174FF"/>
<path d="M13.5146 3.46765H12.0596V4.50422C12.0596 5.30148 11.4018 5.95931 10.6045 5.95931H3.84708C3.04982 5.95931 2.39199 5.30151 2.39199 4.50422V3.46765H1.01656C0.45843 3.46765 0 3.92608 0 4.48421V17.8993C0 18.4574 0.45843 18.9159 1.01656 18.9159H13.5346C14.0928 18.9159 14.5512 18.4574 14.5512 17.8993L14.5513 4.48421C14.5313 3.92608 14.0729 3.46765 13.5148 3.46765H13.5146ZM11.4814 15.7465C11.4814 15.9459 11.3219 16.0854 11.1426 16.0854H3.38853C3.18914 16.0854 3.04968 15.9259 3.04968 15.7465V15.1685C3.04968 14.9692 3.20917 14.8297 3.38853 14.8297H11.1226C11.322 14.8297 11.4615 14.9892 11.4615 15.1685V15.7465H11.4814ZM11.4814 12.5373C11.4814 12.7367 11.3219 12.8761 11.1426 12.8761H3.38853C3.18914 12.8761 3.04968 12.7166 3.04968 12.5373V11.9593C3.04968 11.7599 3.20917 11.6204 3.38853 11.6204H11.1226C11.322 11.6204 11.4615 11.7799 11.4615 11.9593V12.5373H11.4814ZM11.4814 9.32803C11.4814 9.52742 11.3219 9.66688 11.1426 9.66688H3.38853C3.18914 9.66688 3.04968 9.50739 3.04968 9.32803V8.75004C3.04968 8.55065 3.20917 8.41119 3.38853 8.41119H11.1226C11.322 8.41119 11.4615 8.57067 11.4615 8.75004V9.32803H11.4814Z" fill="#0174FF"/>
</svg>
