<svg width="28" height="30" viewBox="0 0 28 30" fill="none" xmlns="http://www.w3.org/2000/svg">
<path d="M23.8825 15.4839L27.7 14.4455L27.2114 12.6742L23.4854 13.682C22.6914 10.8723 21.0117 8.49019 18.8433 7.02426L19.3014 5.28346C20.4009 5.19184 21.3171 4.3978 21.592 3.32889C21.7752 2.657 21.6836 1.92404 21.3171 1.31323C20.9506 0.702426 20.4009 0.274862 19.6985 0.0916208C19.0266 -0.0916207 18.2936 0 17.6828 0.366483C17.072 0.732966 16.6444 1.28269 16.4612 1.98512C16.1863 3.05402 16.5834 4.18401 17.4996 4.82536L17.1331 6.16913C15.0258 5.314 12.6437 5.314 10.5364 6.16913L10.1699 4.82536C11.0556 4.18401 11.4831 3.05402 11.2083 1.98512C11.025 1.31323 10.5975 0.732966 9.98666 0.366483C9.37586 0 8.67343 -0.0916207 7.971 0.0916208C7.29912 0.274862 6.71885 0.702426 6.35237 1.31323C5.98589 1.92404 5.89427 2.62646 6.07751 3.32889C6.26075 4.00077 6.68831 4.58104 7.29912 4.94752C7.63506 5.13076 8.00154 5.25292 8.36803 5.28346L8.82613 7.02426C6.62723 8.49019 4.94752 10.9029 4.15347 13.7126L0.488644 12.6742L0 14.4455L3.87861 15.4839C3.78699 16.1252 3.72591 16.7971 3.72591 17.4385H0.0305402V19.2709H3.87861C3.97023 19.9428 4.09239 20.6147 4.27563 21.256L0.519184 22.2638L1.00783 24.0352L4.91698 22.9663C6.65777 26.906 10.1394 29.4103 13.8958 29.4103C17.6523 29.4103 21.1339 26.906 22.8746 22.9663L26.7227 24.0046L27.2114 22.2333L23.516 21.2255C23.6992 20.5841 23.8519 19.9122 23.913 19.2404H27.7V17.4079H24.0352C24.0352 16.7971 23.9741 16.1252 23.8825 15.4839ZM6.41345 17.2858C6.41345 15.8198 7.60452 14.6288 9.07045 14.6288C10.5364 14.6288 11.7275 15.8198 11.7275 17.2858C11.7275 18.7517 10.5364 19.9428 9.07045 19.9428C7.60452 19.9428 6.41345 18.7517 6.41345 17.2858ZM10.2004 24.8598C9.13153 24.8598 8.24587 23.9741 8.24587 22.9052C8.24587 21.8363 9.13153 20.9506 10.2004 20.9506C11.2694 20.9506 12.155 21.8363 12.155 22.9052C12.155 23.9741 11.2694 24.8598 10.2004 24.8598ZM17.5301 24.8598C16.4612 24.8598 15.5755 23.9741 15.5755 22.9052C15.5755 21.8363 16.4612 20.9506 17.5301 20.9506C18.599 20.9506 19.4847 21.8363 19.4847 22.9052C19.5152 23.9741 18.6296 24.8598 17.5301 24.8598ZM18.6601 19.9733C17.1942 19.9733 16.0031 18.7823 16.0031 17.3163C16.0031 15.8504 17.1942 14.6593 18.6601 14.6593C20.126 14.6593 21.3171 15.8504 21.3171 17.3163C21.3171 18.7517 20.126 19.9733 18.6601 19.9733Z" fill="black"/>
</svg>