<svg width="53" height="53" viewBox="0 0 53 53" fill="none" xmlns="http://www.w3.org/2000/svg">
<path d="M11.2065 19.3233L14.299 19.7098C14.6082 21.0242 15.1495 22.2612 15.8452 23.4211L13.9895 25.8951C13.7577 26.2042 13.7577 26.6682 14.0669 26.9776L16.4638 29.3746C16.773 29.6837 17.1595 29.6837 17.469 29.452L19.943 27.5189C21.1027 28.2146 22.34 28.7559 23.6543 29.0651L24.0408 32.1577C24.1182 32.5442 24.4274 32.8533 24.8139 32.8533H28.2157C28.6022 32.8533 28.9114 32.5442 28.9887 32.1577L29.3753 29.0651C30.6896 28.7559 31.9266 28.2146 33.0866 27.5189L35.5606 29.452C35.8697 29.6837 36.3336 29.6837 36.5658 29.3746L38.9627 26.9776C39.2718 26.6685 39.2718 26.282 39.0401 25.9724L37.107 23.4984C37.8027 22.3388 38.344 21.1015 38.6532 19.7872L41.7458 19.4006C42.1323 19.3232 42.4415 19.0141 42.4415 18.6276V15.2258C42.4415 14.8393 42.1323 14.5301 41.7458 14.4527L38.6532 14.0662C38.344 12.7518 37.8027 11.5148 37.107 10.3549L39.0401 7.88091C39.2719 7.57175 39.2719 7.10784 38.9627 6.8757L36.5658 4.47878C36.2566 4.16962 35.8701 4.16962 35.5606 4.4014L33.0866 6.33445C31.9269 5.63875 30.6896 5.09744 29.3753 4.78829L28.9887 1.69569C28.9114 1.30916 28.6022 1 28.2157 1H24.8139C24.4274 1 24.1182 1.30916 24.0408 1.69569L23.6543 4.78829C22.34 5.09744 21.103 5.63874 19.943 6.33445L17.469 4.47876C17.3143 4.40138 17.1599 4.324 17.0051 4.324C16.7733 4.324 16.5412 4.40138 16.3864 4.55578L13.9895 6.9527C13.6804 7.26186 13.6804 7.64839 13.9121 7.95791L15.8452 10.4319C15.1495 11.5916 14.6082 12.8288 14.299 14.1432L11.2064 14.5297C10.8199 14.6071 10.5107 14.9163 10.5107 15.3028V18.7046C10.5107 18.9367 10.8199 19.2458 11.2064 19.3232L11.2065 19.3233ZM12.0569 15.7667L15.0721 15.3802C15.3813 15.3028 15.6908 15.071 15.7678 14.7615C16.077 13.2924 16.6183 11.901 17.4687 10.6637C17.6235 10.3545 17.6235 10.045 17.4687 9.73586L15.613 7.33894L17.0821 5.86986L19.479 7.72555C19.7108 7.95733 20.0977 7.95733 20.4068 7.72555C21.6438 6.8751 23.0356 6.33383 24.5046 6.02467C24.8138 5.94729 25.0459 5.71552 25.1233 5.32898L25.5095 2.39148H27.5969L27.9834 5.32936C28.0608 5.63851 28.2926 5.94803 28.6021 6.02505C30.0712 6.3342 31.4626 6.87549 32.6999 7.72592C33.009 7.88068 33.3186 7.88068 33.6277 7.72592L36.0246 5.87023L37.4937 7.33931L35.7155 9.65888C35.4837 9.89066 35.4837 10.3546 35.7155 10.6641C36.5659 11.9011 37.1072 13.2928 37.4164 14.7619C37.4937 15.071 37.7255 15.3032 38.112 15.3806L41.1273 15.7671V17.8541L38.112 18.2406C37.8029 18.318 37.4934 18.5498 37.4164 18.8593C37.1072 20.3284 36.5659 21.7198 35.7155 22.9571C35.5607 23.2663 35.5607 23.5758 35.7155 23.8849L37.5712 26.2819L36.1021 27.7509L33.7825 25.9727C33.5507 25.8179 33.0868 25.7409 32.7773 25.9727C31.5403 26.8232 30.1486 27.3644 28.6795 27.6736C28.3704 27.751 28.1382 27.9827 28.0608 28.3693L27.6743 31.3072H25.5869L25.2004 28.3693C25.123 28.0601 24.8912 27.7506 24.5817 27.6736C23.1126 27.3644 21.7212 26.8231 20.4839 25.9727C20.1748 25.8179 19.8652 25.8179 19.5561 25.9727L17.1592 27.8284L15.6901 26.3593L17.5458 23.9624C17.7776 23.7306 17.7776 23.3437 17.5458 23.0346C16.6953 21.7976 16.1541 20.4058 15.8449 18.9368C15.7675 18.6276 15.5357 18.3955 15.1492 18.3181L12.0569 17.8542L12.0569 15.7667Z" fill="#0174FF" stroke="#0174FF" stroke-width="1.5"/>
<path d="M26.5147 24.4259C30.767 24.4259 34.1691 21.0242 34.1691 16.7716C34.1691 12.5193 30.6899 9.11719 26.5147 9.11719C22.2625 9.11719 18.8604 12.5189 18.8604 16.7716C18.8604 21.0242 22.2625 24.4259 26.5147 24.4259ZM26.5147 10.7415C29.9165 10.7415 32.6226 13.4476 32.6226 16.8495C32.6226 20.2513 29.8392 22.9574 26.5147 22.9574C23.1902 22.9574 20.4068 20.2513 20.4068 16.8495C20.4068 13.4473 23.1129 10.7415 26.5147 10.7415Z" fill="#0174FF" stroke="#0174FF" stroke-width="1.5"/>
<path d="M48.317 30.534V16.8496C48.317 16.3857 48.0078 16.0765 47.5439 16.0765H44.3738C43.9099 16.0765 43.6008 16.3857 43.6008 16.8496C43.6008 17.3135 43.9099 17.6227 44.3738 17.6227H46.7708V30.6114C44.6834 30.9979 43.0595 32.7762 43.0595 35.0183C43.0595 36.5645 43.9099 37.9562 45.1469 38.8067C43.6007 41.2036 41.3585 43.2911 38.5751 44.8372C37.8794 43.9867 36.9515 43.3681 35.7916 43.1363V31.0752C35.7916 30.6112 35.4825 30.3021 35.0186 30.3021C34.5546 30.3021 34.2455 30.6112 34.2455 31.0752V43.1363C32.1581 43.5228 30.5342 45.3785 30.6116 47.6207C27.9055 48.0846 25.045 48.0846 22.3389 47.6207C22.4163 45.3011 20.7927 43.5229 18.6276 43.1363V31.0752C18.6276 30.6112 18.3184 30.3021 17.8545 30.3021C17.3906 30.3021 17.0814 30.6112 17.0814 31.0752V43.1363C15.9218 43.3681 14.9941 43.9867 14.298 44.8372C11.7466 43.3681 9.58189 41.5128 8.03536 39.2706C9.11792 38.4201 9.81359 37.1832 9.81359 35.714C9.81359 33.5492 8.19008 31.6936 6.10231 31.307L6.10304 17.6227H8.49997C8.96388 17.6227 9.27304 17.3135 9.27304 16.8496C9.27304 16.3857 8.96388 16.0765 8.49997 16.0765L5.48435 16.0762C5.02044 16.0762 4.71129 16.3853 4.71129 16.8492V31.3072C2.62389 31.6941 1 33.4723 1 35.7145C1 38.1885 3.01003 40.1215 5.48441 40.1215C5.94832 40.1215 6.41224 40.0441 6.79877 39.8897C8.49965 42.3637 10.8966 44.5285 13.7571 46.075C13.6023 46.4615 13.6023 46.9255 13.6023 47.3894C13.6023 49.8634 15.6124 51.7963 18.0867 51.7963C19.9424 51.7963 21.566 50.6367 22.1845 49.0129C25.1998 49.4768 28.0607 49.4768 31.0759 49.0129C31.6946 50.6364 33.3181 51.7963 35.1737 51.7963C37.6477 51.7963 39.6581 49.7863 39.6581 47.3894C39.6581 46.9255 39.5808 46.5389 39.4264 46.075C42.519 44.2968 45.0703 41.9772 46.7712 39.194C47.0803 39.2714 47.3899 39.2714 47.699 39.2714C50.173 39.2714 52.1834 37.2614 52.1834 34.8645C52.0283 32.7763 50.4044 30.921 48.317 30.5341L48.317 30.534ZM2.54621 35.7144C2.54621 34.0909 3.86057 32.8539 5.48409 32.8539C7.10761 32.8539 8.42197 34.1683 8.42197 35.7144C8.42197 37.338 7.10761 38.575 5.48409 38.575C3.86057 38.575 2.54621 37.2606 2.54621 35.7144ZM17.9317 50.3264C16.3082 50.3264 14.9939 49.012 14.9939 47.4659C14.9939 45.8423 16.3082 44.6053 17.8544 44.6053C19.7101 44.6053 21.1018 46.3062 20.7149 48.0845C20.4831 49.3215 19.3232 50.3264 17.9317 50.3264ZM35.0954 50.3264C33.4719 50.3264 32.1575 49.012 32.1575 47.4659C32.1575 45.8423 33.4719 44.6053 35.0954 44.6053C36.7189 44.6053 37.9559 45.9197 37.9559 47.4659C37.9563 49.012 36.642 50.3264 35.0954 50.3264ZM47.5434 37.8015C45.9198 37.8015 44.6055 36.4871 44.6055 34.9409C44.6055 33.3174 45.9198 32.0804 47.5434 32.0804C49.1669 32.0801 50.4812 33.317 50.4812 34.9406C50.4812 36.5645 49.1669 37.8015 47.5434 37.8015Z" fill="#0174FF" stroke="#0174FF" stroke-width="1.5"/>
</svg>
