<svg width="26" height="26" viewBox="0 0 26 26" fill="none" xmlns="http://www.w3.org/2000/svg">
<path d="M25.5685 23.5576L18.4701 16.4591C20.0413 14.4938 20.8002 12.0014 20.5909 9.4939C20.3817 6.98642 19.2202 4.65427 17.345 2.9765C15.4698 1.29873 13.0233 0.402724 10.5081 0.472544C7.99288 0.542365 5.59989 1.57271 3.82067 3.35192C2.04146 5.13114 1.01111 7.52413 0.941294 10.0394C0.871474 12.5546 1.76748 15.001 3.44525 16.8762C5.12302 18.7514 7.45517 19.9129 9.96265 20.1222C12.4701 20.3314 14.9625 19.5725 16.9279 18.0013L24.0263 25.0998C24.2313 25.3035 24.5085 25.4178 24.7974 25.4178C25.0864 25.4178 25.3636 25.3035 25.5685 25.0998C25.7722 24.8948 25.8866 24.6176 25.8866 24.3287C25.8866 24.0397 25.7722 23.7625 25.5685 23.5576ZM10.792 17.9795C9.2777 17.9795 7.79744 17.5304 6.53838 16.6892C5.27931 15.8479 4.29799 14.6521 3.71851 13.2531C3.13903 11.8541 2.98741 10.3147 3.28282 8.82955C3.57824 7.34438 4.30743 5.98017 5.37818 4.90943C6.44892 3.83868 7.81313 3.10949 9.2983 2.81407C10.7835 2.51866 12.3229 2.67028 13.7219 3.24976C15.1209 3.82924 16.3166 4.81056 17.1579 6.06963C17.9992 7.32869 18.4482 8.80895 18.4482 10.3232C18.4482 11.3286 18.2502 12.3242 17.8654 13.2531C17.4807 14.182 16.9167 15.026 16.2057 15.737C15.4948 16.4479 14.6508 17.0119 13.7219 17.3967C12.793 17.7814 11.7974 17.9795 10.792 17.9795Z" fill="black"/>
</svg>
