<svg width="30" height="31" viewBox="0 0 30 31" fill="none" xmlns="http://www.w3.org/2000/svg">
<path d="M20.3125 0H7.40077C5.62723 0 4.19531 1.39932 4.19531 3.17268V12.7274H21.1862C23.28 12.7274 24.9909 14.4171 24.9909 16.5109V23.631C24.9909 25.7245 23.28 27.4467 21.1862 27.4467H4.20519C4.25631 29.1685 5.65995 30.5525 7.40077 30.5525H26.2665C28.0398 30.5525 29.4808 29.0975 29.4808 27.3239V9.1774L20.3125 0ZM15.0224 9.08129H8.24124C7.86675 9.08129 7.56319 8.76299 7.56319 8.38848C7.56319 8.20111 7.6389 8.02484 7.76164 7.90234C7.88438 7.7796 8.0539 7.69738 8.24126 7.69738H15.0218C15.3963 7.69738 15.6999 8.01495 15.6999 8.38945C15.7001 8.76369 15.3965 9.08127 15.0221 9.08127L15.0224 9.08129ZM15.053 4.9964H8.27248C7.898 4.9964 7.59443 4.6863 7.59443 4.31181C7.59443 4.12444 7.67015 3.96095 7.79288 3.83845C7.91562 3.71571 8.08514 3.64626 8.2725 3.64626H15.0531C15.4276 3.64626 15.7311 3.94696 15.7311 4.32148C15.7311 4.69572 15.4275 4.99645 15.0531 4.99645L15.053 4.9964ZM19.6911 9.75644V2.27091L27.197 9.75644H19.6911Z" fill="#0174FF"/>
<path d="M23.3385 16.7855C23.3385 15.4368 22.2451 14.3438 20.8967 14.3438H2.5199C1.17145 14.3438 0.078125 15.4371 0.078125 16.7855V23.3803C0.078125 24.7287 1.17145 25.8221 2.5199 25.8221H20.8967C22.2454 25.8221 23.3385 24.7287 23.3385 23.3803V16.7855ZM7.11487 22.5446C5.35936 22.5446 4.61667 21.3361 4.60994 20.1072C4.60319 18.8716 5.40664 17.6158 7.11487 17.6158C7.75632 17.6158 8.36394 17.8589 8.85007 18.3383L8.25591 18.9122C7.94533 18.6083 7.52674 18.4665 7.11487 18.4665C5.97383 18.4665 5.48091 19.3173 5.4877 20.1072C5.49445 20.8905 5.94682 21.7074 7.11487 21.7074C7.52674 21.7074 7.99263 21.5386 8.3032 21.2281L8.91087 21.8425C8.42473 22.3218 7.7968 22.5447 7.11486 22.5447L7.11487 22.5446ZM11.2738 22.5581C10.3085 22.5581 9.56579 22.261 9.21472 21.3968L9.95741 21.012C10.1667 21.5319 10.7136 21.7615 11.2875 21.7615C11.8477 21.7615 12.3743 21.5657 12.3743 21.0525C12.3743 20.6069 11.9084 20.4246 11.2805 20.3571C10.3152 20.2423 9.42399 19.9857 9.42399 18.9257C9.42399 17.9534 10.3827 17.555 11.2538 17.5483C11.9895 17.5483 12.7524 17.7576 13.1103 18.4868L12.4013 18.8514C12.2393 18.5813 11.7937 18.3248 11.2806 18.3248C10.6191 18.3248 10.3018 18.6016 10.3018 18.9527C10.3018 19.3646 10.7879 19.4793 11.3551 19.5469C12.3406 19.6684 13.2589 19.925 13.2589 21.0525C13.2589 22.1058 12.3271 22.5582 11.2738 22.5582L11.2738 22.5581ZM16.5132 22.4798H15.5882L13.6237 17.7197H14.6227L16.0474 21.3995L17.4788 17.7197H18.4781L16.5132 22.4798Z" fill="#0174FF"/>
</svg>
