<svg width="23" height="24" viewBox="0 0 23 24" fill="none" xmlns="http://www.w3.org/2000/svg">
<path d="M14.769 5.10132C16.1013 5.10132 16.7674 5.10132 17.246 5.42106C17.4531 5.55948 17.631 5.73734 17.7694 5.9445C18.0891 6.42302 18.0891 7.08917 18.0891 8.42146V17.4333C18.0891 19.222 18.0891 20.1163 17.5335 20.672C16.9778 21.2277 16.0834 21.2277 14.2947 21.2277H8.60304C6.81432 21.2277 5.91996 21.2277 5.36428 20.672C4.80859 20.1163 4.80859 19.222 4.80859 17.4333V8.42146C4.80859 7.08917 4.80859 6.42302 5.12833 5.9445C5.26675 5.73734 5.44462 5.55948 5.65178 5.42106C6.1303 5.10132 6.79644 5.10132 8.12873 5.10132" stroke="#7A7979" stroke-width="0.948611"/>
<path d="M8.60547 5.10132C8.60547 4.05352 9.45488 3.2041 10.5027 3.2041H12.3999C13.4477 3.2041 14.2971 4.05352 14.2971 5.10132C14.2971 6.14913 13.4477 6.99855 12.3999 6.99855H10.5027C9.45488 6.99855 8.60547 6.14913 8.60547 5.10132Z" stroke="#7A7979" stroke-width="0.948611"/>
<path d="M8.60547 11.7415L14.2971 11.7415" stroke="#7A7979" stroke-width="0.948611" stroke-linecap="round"/>
<path d="M8.60547 15.5359L12.3999 15.5359" stroke="#7A7979" stroke-width="0.948611" stroke-linecap="round"/>
</svg>
