<svg width="24" height="16" viewBox="0 0 24 16" fill="none" xmlns="http://www.w3.org/2000/svg">
<path fill-rule="evenodd" clip-rule="evenodd" d="M0.292893 0.292893C0 0.585786 0 1.05719 0 2V14C0 14.9428 0 15.4142 0.292893 15.7071C0.585786 16 1.05719 16 2 16H16.5259C17.5739 16 18.0978 16 18.54 15.7633C18.9822 15.5267 19.2728 15.0907 19.8541 14.2188L22.5208 10.2188C23.2378 9.1433 23.5963 8.60555 23.5963 8C23.5963 7.39445 23.2378 6.8567 22.5208 5.7812L19.8541 1.7812C19.2728 0.909267 18.9822 0.473302 18.54 0.236651C18.0978 0 17.5739 0 16.5259 0H2C1.05719 0 0.585786 0 0.292893 0.292893ZM16 10.6667C17.4728 10.6667 18.6667 9.47276 18.6667 8C18.6667 6.52724 17.4728 5.33333 16 5.33333C14.5272 5.33333 13.3333 6.52724 13.3333 8C13.3333 9.47276 14.5272 10.6667 16 10.6667Z" fill="#9E9E9E"/>
</svg>
