<svg width="83" height="83" viewBox="0 0 83 83" fill="none" xmlns="http://www.w3.org/2000/svg">
<g filter="url(#filter0_dd_0_1)">
<rect x="10" y="2" width="63.0971" height="63.0971" rx="7" fill="white"/>
</g>
<path d="M42 27V18H33C32.2044 18 31.4413 18.3161 30.8787 18.8787C30.3161 19.4413 30 20.2044 30 21V47C30 47.7956 30.3161 48.5587 30.8787 49.1213C31.4413 49.6839 32.2044 50 33 50H51C51.7956 50 52.5587 49.6839 53.1213 49.1213C53.6839 48.5587 54 47.7956 54 47V30H45C44.2044 30 43.4413 29.6839 42.8787 29.1213C42.3161 28.5587 42 27.7956 42 27ZM34 35C34 34.7348 34.1054 34.4804 34.2929 34.2929C34.4804 34.1054 34.7348 34 35 34C35.2652 34 35.5196 34.1054 35.7071 34.2929C35.8946 34.4804 36 34.7348 36 35C36 35.2652 35.8946 35.5196 35.7071 35.7071C35.5196 35.8946 35.2652 36 35 36C34.7348 36 34.4804 35.8946 34.2929 35.7071C34.1054 35.5196 34 35.2652 34 35ZM34 39C34 38.7348 34.1054 38.4804 34.2929 38.2929C34.4804 38.1054 34.7348 38 35 38C35.2652 38 35.5196 38.1054 35.7071 38.2929C35.8946 38.4804 36 38.7348 36 39C36 39.2652 35.8946 39.5196 35.7071 39.7071C35.5196 39.8946 35.2652 40 35 40C34.7348 40 34.4804 39.8946 34.2929 39.7071C34.1054 39.5196 34 39.2652 34 39ZM34 43C34 42.7348 34.1054 42.4804 34.2929 42.2929C34.4804 42.1054 34.7348 42 35 42C35.2652 42 35.5196 42.1054 35.7071 42.2929C35.8946 42.4804 36 42.7348 36 43C36 43.2652 35.8946 43.5196 35.7071 43.7071C35.5196 43.8946 35.2652 44 35 44C34.7348 44 34.4804 43.8946 34.2929 43.7071C34.1054 43.5196 34 43.2652 34 43ZM38 35C38 34.7348 38.1054 34.4804 38.2929 34.2929C38.4804 34.1054 38.7348 34 39 34H49C49.2652 34 49.5196 34.1054 49.7071 34.2929C49.8946 34.4804 50 34.7348 50 35C50 35.2652 49.8946 35.5196 49.7071 35.7071C49.5196 35.8946 49.2652 36 49 36H39C38.7348 36 38.4804 35.8946 38.2929 35.7071C38.1054 35.5196 38 35.2652 38 35ZM38 39C38 38.7348 38.1054 38.4804 38.2929 38.2929C38.4804 38.1054 38.7348 38 39 38H49C49.2652 38 49.5196 38.1054 49.7071 38.2929C49.8946 38.4804 50 38.7348 50 39C50 39.2652 49.8946 39.5196 49.7071 39.7071C49.5196 39.8946 49.2652 40 49 40H39C38.7348 40 38.4804 39.8946 38.2929 39.7071C38.1054 39.5196 38 39.2652 38 39ZM38 43C38 42.7348 38.1054 42.4804 38.2929 42.2929C38.4804 42.1054 38.7348 42 39 42H49C49.2652 42 49.5196 42.1054 49.7071 42.2929C49.8946 42.4804 50 42.7348 50 43C50 43.2652 49.8946 43.5196 49.7071 43.7071C49.5196 43.8946 49.2652 44 49 44H39C38.7348 44 38.4804 43.8946 38.2929 43.7071C38.1054 43.5196 38 43.2652 38 43ZM44 27V18.5L53.5 28H45C44.7348 28 44.4804 27.8946 44.2929 27.7071C44.1054 27.5196 44 27.2652 44 27Z" fill="#0174FF"/>
<defs>
<filter id="filter0_dd_0_1" x="0.141072" y="0.0282142" width="82.8155" height="82.815" filterUnits="userSpaceOnUse" color-interpolation-filters="sRGB">
<feFlood flood-opacity="0" result="BackgroundImageFix"/>
<feColorMatrix in="SourceAlpha" type="matrix" values="0 0 0 0 0 0 0 0 0 0 0 0 0 0 0 0 0 0 127 0" result="hardAlpha"/>
<feMorphology radius="1.97179" operator="erode" in="SourceAlpha" result="effect1_dropShadow_0_1"/>
<feOffset dy="3.94357"/>
<feGaussianBlur stdDeviation="3.94357"/>
<feColorMatrix type="matrix" values="0 0 0 0 0 0 0 0 0 0 0 0 0 0 0 0 0 0 0.07 0"/>
<feBlend mode="normal" in2="BackgroundImageFix" result="effect1_dropShadow_0_1"/>
<feColorMatrix in="SourceAlpha" type="matrix" values="0 0 0 0 0 0 0 0 0 0 0 0 0 0 0 0 0 0 127 0" result="hardAlpha"/>
<feMorphology radius="1.97179" operator="erode" in="SourceAlpha" result="effect2_dropShadow_0_1"/>
<feOffset dy="7.88714"/>
<feGaussianBlur stdDeviation="5.91536"/>
<feColorMatrix type="matrix" values="0 0 0 0 0 0 0 0 0 0 0 0 0 0 0 0 0 0 0.12 0"/>
<feBlend mode="normal" in2="effect1_dropShadow_0_1" result="effect2_dropShadow_0_1"/>
<feBlend mode="normal" in="SourceGraphic" in2="effect2_dropShadow_0_1" result="shape"/>
</filter>
</defs>
</svg>
