<svg width="12" height="18" viewBox="0 0 12 18" fill="none" xmlns="http://www.w3.org/2000/svg">
<path fill-rule="evenodd" clip-rule="evenodd" d="M2 14C0.89543 14 -1.35705e-07 14.8954 -8.74228e-08 16C-3.91405e-08 17.1046 0.895431 18 2 18C3.10457 18 4 17.1046 4 16C4 14.8954 3.10457 14 2 14Z" fill="#C4C4C4"/>
<path fill-rule="evenodd" clip-rule="evenodd" d="M2 7C0.89543 7 -4.41685e-07 7.89543 -3.93402e-07 9C-3.4512e-07 10.1046 0.89543 11 2 11C3.10457 11 4 10.1046 4 9C4 7.89543 3.10457 7 2 7Z" fill="#C4C4C4"/>
<path fill-rule="evenodd" clip-rule="evenodd" d="M2 -8.74228e-08C0.89543 -3.91405e-08 -7.47664e-07 0.895432 -6.99382e-07 2C-6.511e-07 3.10457 0.89543 4 2 4C3.10457 4 4 3.10457 4 2C4 0.895431 3.10457 -1.35705e-07 2 -8.74228e-08Z" fill="#C4C4C4"/>
<path fill-rule="evenodd" clip-rule="evenodd" d="M2 14C0.89543 14 -1.35705e-07 14.8954 -8.74228e-08 16C-3.91405e-08 17.1046 0.895431 18 2 18C3.10457 18 4 17.1046 4 16C4 14.8954 3.10457 14 2 14Z" stroke="#7A7979"/>
<path fill-rule="evenodd" clip-rule="evenodd" d="M2 7C0.89543 7 -4.41685e-07 7.89543 -3.93402e-07 9C-3.4512e-07 10.1046 0.89543 11 2 11C3.10457 11 4 10.1046 4 9C4 7.89543 3.10457 7 2 7Z" stroke="#7A7979"/>
<path fill-rule="evenodd" clip-rule="evenodd" d="M2 -8.74228e-08C0.89543 -3.91405e-08 -7.47664e-07 0.895432 -6.99382e-07 2C-6.511e-07 3.10457 0.89543 4 2 4C3.10457 4 4 3.10457 4 2C4 0.895431 3.10457 -1.35705e-07 2 -8.74228e-08Z" stroke="#7A7979"/>
<path fill-rule="evenodd" clip-rule="evenodd" d="M10 14C8.89543 14 8 14.8954 8 16C8 17.1046 8.89543 18 10 18C11.1046 18 12 17.1046 12 16C12 14.8954 11.1046 14 10 14Z" fill="#C4C4C4"/>
<path fill-rule="evenodd" clip-rule="evenodd" d="M10 7C8.89543 7 8 7.89543 8 9C8 10.1046 8.89543 11 10 11C11.1046 11 12 10.1046 12 9C12 7.89543 11.1046 7 10 7Z" fill="#C4C4C4"/>
<path fill-rule="evenodd" clip-rule="evenodd" d="M10 -8.74228e-08C8.89543 -3.91405e-08 8 0.895432 8 2C8 3.10457 8.89543 4 10 4C11.1046 4 12 3.10457 12 2C12 0.895431 11.1046 -1.35705e-07 10 -8.74228e-08Z" fill="#C4C4C4"/>
<path fill-rule="evenodd" clip-rule="evenodd" d="M10 14C8.89543 14 8 14.8954 8 16C8 17.1046 8.89543 18 10 18C11.1046 18 12 17.1046 12 16C12 14.8954 11.1046 14 10 14Z" stroke="#7A7979"/>
<path fill-rule="evenodd" clip-rule="evenodd" d="M10 7C8.89543 7 8 7.89543 8 9C8 10.1046 8.89543 11 10 11C11.1046 11 12 10.1046 12 9C12 7.89543 11.1046 7 10 7Z" stroke="#7A7979"/>
<path fill-rule="evenodd" clip-rule="evenodd" d="M10 -8.74228e-08C8.89543 -3.91405e-08 8 0.895432 8 2C8 3.10457 8.89543 4 10 4C11.1046 4 12 3.10457 12 2C12 0.895431 11.1046 -1.35705e-07 10 -8.74228e-08Z" stroke="#7A7979"/>
</svg>
