<svg width="24" height="24" viewBox="0 0 24 24" fill="none" xmlns="http://www.w3.org/2000/svg">
<path d="M5.98669 1.61499C-1.99524 6.2167 -1.99524 17.7833 5.98669 22.385C13.9686 26.9867 24.0002 21.2033 24.0002 12C24.0002 2.79666 13.9686 -2.98669 5.98669 1.61499ZM1.56844 8.14889C3.78248 10.8427 2.67604 10.1512 7.04367 11.6933L6.37673 13.0407C5.7675 15.0125 8.06751 14.35 8.03465 16.605L7.19587 20.4175C7.12322 20.7478 7.34034 21.0189 7.68173 21.0189C9.22167 18.3833 8.82164 19.1167 11.9739 16.3759C13.0164 15.4925 12.9427 14.1553 11.8073 13.3907L8.81325 11.3745C8.29233 11.0693 7.35028 11.3185 7.24776 11.4723L4.49714 10.0977C3.63375 9.44485 3.76894 8.41978 5.20917 7.90683C6.43865 9.17452 6.51745 9.38855 6.44545 7.28245L7.68173 6.0337H9.53034C9.87066 6.0337 10.0494 5.61591 9.94139 5.28858C9.60328 4.45889 9.08601 3.84694 7.61231 3.18891C6.42675 2.77594 7.12622 4.83047 5.85872 4.58738L4.59103 4.16053C5.72165 2.06663 9.51333 0.791626 12.3077 0.904548C9.56283 1.21978 9.79106 2.30189 10.1199 3.09085C10.7211 4.221 11.3044 5.151 12.9779 3.17766C14.7236 2.84756 15.5236 2.46919 13.6973 1.03153C16.2256 1.42364 18.4718 2.66897 20.1324 4.46405C19.1804 4.17436 18.5638 4.7647 19.1438 5.05317C19.8158 5.30883 19.6439 5.74411 19.2337 6.03356C18.7125 6.03197 18.0263 5.90756 17.9508 6.65799C17.7948 7.75674 16.6816 6.84403 16.8673 7.86483C17.28 8.98327 17.7383 8.52502 18.2251 7.84495C18.6974 7.1527 19.4072 7.28513 20.5166 7.28241C21.1098 7.94813 21.7449 8.29739 22.5088 8.46825C22.6314 8.83365 22.7346 9.20522 22.8182 9.58144C19.5181 8.85802 18.9321 7.68591 16.7451 9.58486C15.5883 10.9167 16.2217 13.9667 18.9999 13.4702C19.3443 13.4702 19.6872 13.7421 19.7642 14.07C20.3684 16.2231 20.6369 18.3377 20.981 18.5005C12.7216 28.8333 -2.47833 20.2667 1.56844 8.14894V8.14889Z" fill="black"/>
</svg>
