<svg width="18" height="18" viewBox="0 0 18 18" fill="none" xmlns="http://www.w3.org/2000/svg">
<path fill-rule="evenodd" clip-rule="evenodd" d="M6.77319 4.45639C6.97297 4.51066 7.10879 4.68384 7.19287 4.87298L7.95971 6.59814C8.05957 6.8228 8.01685 7.10573 7.88686 7.31441C7.67553 7.65368 7.43568 8.10633 7.60474 8.46852C8.02858 9.37655 8.61544 9.93126 9.5009 10.3612C9.86266 10.5368 10.3123 10.279 10.6516 10.0632C10.8471 9.9389 11.1227 9.89149 11.3335 9.98736L13.1319 10.8052C13.3176 10.8897 13.4874 11.0241 13.5417 11.2207C13.8273 12.2535 12.5802 13.5815 11.6168 13.5815C10.6712 13.5815 9.73498 13.3953 8.86143 13.0335C7.98789 12.6717 7.19417 12.1414 6.52559 11.4729C5.857 10.8044 5.32666 10.0108 4.96482 9.13737C4.60299 8.26394 4.41676 7.3278 4.41676 6.38241C4.41676 5.42053 5.74086 4.17595 6.77319 4.45639ZM7.12795 6.87934L6.42296 5.2933C6.27541 5.3066 6.04459 5.38659 5.77851 5.6158C5.42038 5.92432 5.29104 6.25528 5.29104 6.38241C5.29104 7.21301 5.45466 8.03547 5.77256 8.80284C6.09045 9.57021 6.5564 10.2675 7.1438 10.8548C7.7312 11.4421 8.42854 11.908 9.19601 12.2258C9.96348 12.5437 10.786 12.7073 11.6168 12.7073C11.7442 12.7073 12.076 12.5774 12.3847 12.2185C12.6151 11.9505 12.694 11.719 12.7063 11.572L11.0747 10.83C10.9023 10.9384 10.6507 11.0878 10.3716 11.1847C10.0678 11.2903 9.59773 11.38 9.11899 11.1475C8.06985 10.6381 7.32883 9.94443 6.81249 8.83822C6.59557 8.3735 6.67286 7.91686 6.77163 7.61281C6.86649 7.3208 7.0165 7.05989 7.12795 6.87934Z" fill="black"/>
<path fill-rule="evenodd" clip-rule="evenodd" d="M9 17.9976C13.9706 17.9976 18 13.9687 18 8.99882C18 4.02891 13.9706 0 9 0C4.02944 0 0 4.02891 0 8.99882C0 10.4984 0.366867 11.9124 1.01576 13.1558C1.07724 13.2736 1.09447 13.41 1.06007 13.5384L0.038039 17.3521C-0.0644267 17.7345 0.285501 18.0844 0.667908 17.9819L4.4958 16.9564C4.62342 16.9222 4.75899 16.939 4.87639 16.9996C6.11175 17.6375 7.51381 17.9976 9 17.9976ZM16.9714 8.99882C16.9714 13.4007 13.4025 16.9692 9 16.9692C7.68183 16.9692 6.44121 16.6501 5.34831 16.0858C5.01449 15.9135 4.61642 15.8594 4.22959 15.963L1.26211 16.758L2.0536 13.8045C2.15786 13.4155 2.10248 13.0151 1.92766 12.6801C1.35359 11.58 1.02857 10.3289 1.02857 8.99882C1.02857 4.5969 4.5975 1.02844 9 1.02844C13.4025 1.02844 16.9714 4.5969 16.9714 8.99882Z" fill="black"/>
</svg>
