<svg width="29" height="29" viewBox="0 0 29 29" fill="none" xmlns="http://www.w3.org/2000/svg">
<path d="M0.673828 28.383L2.62616 21.2536C1.42188 19.1669 0.788437 16.8 0.789322 14.3751C0.79242 6.78901 6.96581 0.617188 14.5517 0.617188C18.2329 0.618736 21.6882 2.05156 24.2866 4.65216C26.8848 7.25275 28.3152 10.7096 28.3138 14.3861C28.3105 21.972 22.1362 28.1447 14.5517 28.1447C14.5512 28.1447 14.5519 28.1447 14.5517 28.1447H14.5457C12.2425 28.1438 9.9795 27.5661 7.96942 26.4698L0.673828 28.383ZM8.30727 23.9792L8.72522 24.2268C10.4811 25.2689 12.4943 25.82 14.5473 25.8211H14.5517C20.8561 25.8211 25.9874 20.6907 25.99 14.3853C25.9911 11.3295 24.8025 8.45614 22.6429 6.29473C20.483 4.13332 17.6114 2.94232 14.5559 2.941C8.24642 2.941 3.11535 8.07072 3.11292 14.376C3.11203 16.5367 3.7165 18.6408 4.8617 20.4617L5.13384 20.8945L3.97802 25.1142L8.30727 23.9792Z" fill="#8BC4FE"/>
<path d="M1.15234 27.9026L3.03719 21.0197C1.87429 19.0054 1.26297 16.7201 1.26363 14.3795C1.26651 7.05601 7.22638 1.0979 14.5492 1.0979C18.1034 1.09945 21.4392 2.48272 23.9471 4.99327C26.4556 7.50382 27.8362 10.841 27.8349 14.3899C27.8318 21.7135 21.8717 27.6723 14.5498 27.6723C14.5492 27.6723 14.5501 27.6723 14.5498 27.6723H14.5439C12.3205 27.6714 10.1356 27.1134 8.19524 26.0558L1.15234 27.9026Z" fill="#676767"/>
<path d="M0.673828 28.383L2.62616 21.2536C1.42188 19.1669 0.788437 16.8 0.789322 14.3751C0.79242 6.78901 6.96581 0.617188 14.5517 0.617188C18.2329 0.618736 21.6882 2.05156 24.2866 4.65216C26.8848 7.25275 28.3152 10.7096 28.3138 14.3861C28.3105 21.972 22.1362 28.1447 14.5517 28.1447C14.5512 28.1447 14.5519 28.1447 14.5517 28.1447H14.5457C12.2425 28.1438 9.9795 27.5661 7.96942 26.4698L0.673828 28.383ZM8.30727 23.9792L8.72522 24.2268C10.4811 25.2689 12.4943 25.82 14.5473 25.8211H14.5517C20.8561 25.8211 25.9874 20.6907 25.99 14.3853C25.9911 11.3295 24.8025 8.45614 22.6429 6.29473C20.483 4.13332 17.6114 2.94232 14.5559 2.941C8.24642 2.941 3.11535 8.07072 3.11292 14.376C3.11203 16.5367 3.7165 18.6408 4.8617 20.4617L5.13384 20.8945L3.97802 25.1142L8.30727 23.9792Z" fill="#676767"/>
<path fill-rule="evenodd" clip-rule="evenodd" d="M11.1121 8.6235C10.8546 8.05089 10.5833 8.03939 10.3382 8.02943C10.1377 8.0208 9.90829 8.02124 9.67929 8.02124C9.45008 8.02124 9.07749 8.10753 8.76243 8.45158C8.44714 8.79563 7.55859 9.62754 7.55859 11.3195C7.55859 13.0116 8.79097 14.6465 8.96288 14.8761C9.13479 15.1056 11.3418 18.6885 14.8369 20.0669C17.7417 21.2126 18.3327 20.9847 18.9632 20.9274C19.5938 20.8701 20.9977 20.0955 21.2842 19.2926C21.5709 18.4896 21.5709 17.8015 21.4849 17.6575C21.3988 17.5143 21.1696 17.4283 20.8257 17.2564C20.4819 17.0845 18.7913 16.2523 18.476 16.1377C18.1608 16.0229 17.9315 15.9658 17.7023 16.3101C17.4729 16.6539 16.8144 17.4283 16.6138 17.6575C16.4131 17.8874 16.2124 17.9161 15.8686 17.744C15.5248 17.5717 14.4172 17.2088 13.1034 16.0373C12.0812 15.1259 11.3909 14.0002 11.1902 13.6559C10.9898 13.3121 11.1869 13.1422 11.3413 12.9543C11.6195 12.616 12.0861 12.0078 12.2007 11.7786C12.3153 11.5489 12.258 11.3482 12.1721 11.1761C12.0861 11.0042 11.4177 9.30363 11.1121 8.6235V8.6235Z" fill="#DDECFF"/>
</svg>

