<svg width="16" height="18" viewBox="0 0 16 18" fill="none" xmlns="http://www.w3.org/2000/svg">
<path d="M8.04348 1.40365C8.30598 0.753648 9.03723 0.0536478 9.97598 0.314898C10.7135 0.519898 11.1922 0.964898 11.4672 1.5599C11.7222 2.11365 11.7847 2.76615 11.7972 3.3874C11.8097 4.05615 11.6697 4.8574 11.506 5.5599C11.4329 5.87032 11.3516 6.17876 11.2622 6.4849H12.9935C13.3819 6.48492 13.765 6.57546 14.1123 6.74932C14.4597 6.92318 14.7617 7.17559 14.9945 7.48652C15.2273 7.79746 15.3845 8.15836 15.4535 8.54061C15.5226 8.92285 15.5016 9.31593 15.3922 9.68865L13.6872 15.4961C13.5703 15.8947 13.375 16.2659 13.1129 16.5881C12.8508 16.9103 12.5271 17.177 12.1607 17.3726C11.7943 17.5683 11.3926 17.6889 10.9791 17.7275C10.5656 17.7661 10.1485 17.7219 9.75223 17.5974L3.05723 15.4949C2.69503 15.3811 2.36351 15.1864 2.0878 14.9254C1.81209 14.6644 1.59944 14.3441 1.46598 13.9886L0.815975 12.2586C0.609115 11.7081 0.602999 11.1022 0.798702 10.5475C0.994406 9.99288 1.3794 9.525 1.88598 9.22615L4.22598 7.84615C4.46178 7.65965 4.68055 7.45259 4.87973 7.2274C5.30973 6.74115 5.90098 5.9324 6.49473 4.67115C6.75098 4.12615 6.96598 3.6974 7.16098 3.30865C7.47723 2.6799 7.74223 2.15365 8.04348 1.40365V1.40365ZM4.89848 8.8999C4.89147 8.9042 4.88439 8.90837 4.87723 8.9124L2.52098 10.3024C2.26769 10.4518 2.07519 10.6858 1.97734 10.9631C1.87949 11.2404 1.88255 11.5434 1.98598 11.8186L2.63598 13.5486C2.70269 13.7265 2.80908 13.8869 2.94705 14.0175C3.08502 14.1481 3.25095 14.2455 3.43223 14.3024L10.1247 16.4049C10.3625 16.4798 10.6129 16.5066 10.8611 16.4836C11.1094 16.4606 11.3506 16.3883 11.5706 16.271C11.7905 16.1537 11.9849 15.9936 12.1423 15.8003C12.2997 15.6069 12.417 15.3841 12.4872 15.1449L14.191 9.3374C14.2458 9.15095 14.2564 8.95429 14.2219 8.76303C14.1874 8.57178 14.1088 8.3912 13.9923 8.23565C13.8758 8.08009 13.7246 7.95383 13.5508 7.86691C13.377 7.77998 13.1853 7.73478 12.991 7.7349H10.4085C10.3085 7.73484 10.21 7.71079 10.1212 7.66477C10.0324 7.61875 9.95597 7.5521 9.89829 7.47042C9.84061 7.38873 9.80337 7.2944 9.7897 7.19535C9.77603 7.09629 9.78633 6.9954 9.81973 6.90115C9.94473 6.54865 10.1347 5.9374 10.2897 5.27365C10.4472 4.60115 10.5585 3.92115 10.5485 3.41115C10.536 2.82615 10.4747 2.39115 10.3322 2.08365C10.2097 1.8149 10.0185 1.62365 9.64223 1.51865C9.58848 1.50365 9.52473 1.50865 9.44223 1.5624C9.33453 1.6393 9.25191 1.74626 9.20472 1.8699C8.91679 2.57168 8.59772 3.26028 8.24848 3.93365C8.05473 4.3199 7.85098 4.72615 7.62723 5.2024C6.98473 6.5699 6.32723 7.4799 5.81473 8.05615C5.55973 8.34365 5.34222 8.5474 5.18222 8.68365C5.10096 8.75272 5.01672 8.8182 4.92973 8.8799L4.90973 8.8924L4.90347 8.8974L4.89973 8.8999H4.89848ZM4.21973 7.8499L4.21848 7.85115L4.21973 7.8499Z" fill="white"/>
</svg>
