<svg width="40" height="44" viewBox="0 0 40 44" fill="none" xmlns="http://www.w3.org/2000/svg">
<path d="M18.0246 20.3982C18.8858 20.8974 20.294 20.8974 21.1552 20.3976L36.8873 11.268C37.7486 10.7685 37.7473 9.95259 36.8853 9.45439L21.1575 0.373154C20.2959 -0.124385 18.8854 -0.124385 18.0232 0.373154L2.29106 9.45694C1.42882 9.95448 1.42848 10.7703 2.28941 11.2699L18.0246 20.3982Z" fill="#0174FF"/>
<path d="M18.9114 24.29C18.9114 23.2943 18.2069 22.0716 17.3459 21.5721L1.56549 12.4171C0.704265 11.9175 0 12.323 0 13.3184V31.5894C0 32.5852 0.704901 33.8062 1.56711 34.3041L17.3442 43.4124C18.2064 43.91 18.9113 43.5032 18.9113 42.5074L18.9109 24.289L18.9114 24.29Z" fill="#0174FF"/>
<path d="M21.8329 21.5733C20.9717 22.0728 20.2674 23.2961 20.2674 24.2912L20.2671 42.5097C20.2671 43.5054 20.9727 43.9122 21.8345 43.4147L37.6107 34.3063C38.473 33.8087 39.1782 32.5871 39.1782 31.5917L39.1785 13.3164C39.1785 12.3214 38.4739 11.9155 37.613 12.4151L21.8329 21.5733Z" fill="#0174FF"/>
</svg>
