<svg width="24" height="24" viewBox="0 0 24 24" fill="none" xmlns="http://www.w3.org/2000/svg">
<path fill-rule="evenodd" clip-rule="evenodd" d="M10.3713 0.0846797C8.74482 0.261444 7.12962 0.860364 6.12907 1.65785C5.40793 2.23261 5.01814 2.68703 4.5479 3.50136C3.7931 4.80828 3.47713 6.01029 3.08643 9.06084C2.77689 11.4775 2.70143 11.9118 2.44872 12.7298C2.19727 13.5438 1.82041 14.1461 1.29498 14.5737L0.84085 14.9431L1.20549 15.2296C1.87225 15.7536 3.53559 16.3315 5.18381 16.612C5.49896 16.6656 5.78895 16.7328 5.82831 16.7613C5.92178 16.829 4.24994 17.4688 2.81915 17.9129C2.1988 18.1054 1.56145 18.3327 1.40283 18.418C0.993041 18.6383 0.534025 19.1026 0.277056 19.5567C0.0631563 19.9349 0.0554654 20.0091 0.0282303 21.9734L0 24H12H24L23.9718 21.9734C23.9445 20.0091 23.9368 19.9349 23.7229 19.5567C23.4631 19.0975 23.0061 18.6378 22.5835 18.4106C22.4174 18.3214 21.9225 18.1431 21.4839 18.0146C20.3711 17.6887 18.0855 16.8237 18.1718 16.7612C18.2111 16.7328 18.501 16.6656 18.8162 16.612C20.4676 16.331 22.1379 15.7456 22.8218 15.2082L23.1726 14.9325L22.7158 14.5752C22.1889 14.1632 21.8072 13.5583 21.5513 12.7298C21.2988 11.9126 21.2231 11.4771 20.9159 9.07895C20.4823 5.69288 20.1247 4.45554 19.1669 3.026C18.6366 2.23442 17.52 1.29842 16.6146 0.886571C14.9672 0.137095 12.6401 -0.161814 10.3713 0.0846797ZM14.5311 1.25175C14.928 1.34233 15.2904 1.44921 15.3364 1.48927C15.5595 1.68327 12.4661 4.58705 10.9513 5.60553C9.39149 6.6543 7.54367 7.50609 6.04303 7.86804C5.42956 8.01608 4.35427 8.15538 4.35427 8.08691C4.35427 8.06731 4.41652 7.68207 4.49262 7.23072C4.86404 5.02809 5.52918 3.61351 6.65785 2.62604C7.59334 1.80762 8.56928 1.38176 10.0856 1.13039C11.064 0.968185 13.5909 1.03713 14.5311 1.25175ZM17.6084 2.85301C18.0466 3.2887 18.5228 4.02063 18.8219 4.71808C19.0021 5.13835 19.3869 6.38617 19.3469 6.42095C19.302 6.45991 18.0896 6.20791 17.5532 6.04814C16.8116 5.82723 15.5183 5.26624 14.7272 4.82229L14.1065 4.47403L14.2748 4.30089C14.3673 4.20574 14.4642 4.11011 14.49 4.08847C14.6823 3.92737 15.7138 2.85553 16.0634 2.4536L16.4927 1.95983L16.8465 2.20357C17.0411 2.33767 17.384 2.62989 17.6084 2.85301ZM14.0549 5.63638C14.9142 6.14747 16.5416 6.84413 17.3384 7.04199C17.637 7.1162 17.9278 7.20915 17.9846 7.24858C18.0414 7.28809 18.137 7.66948 18.1972 8.0962C18.5007 10.2516 17.4705 12.5359 15.3817 14.3392C14.6679 14.9555 13.7848 15.4994 13.0428 15.78C12.7565 15.8882 12.4384 15.9322 11.957 15.9302C11.3545 15.9276 11.202 15.8941 10.6325 15.6394C8.16049 14.5342 6.18662 12.0814 5.80614 9.64229C5.7039 8.98687 5.7391 8.89329 6.08881 8.89046C6.35781 8.88833 7.81593 8.41053 8.65217 8.05055C9.74637 7.57944 11.2603 6.68956 12.3619 5.86988C12.8596 5.49959 13.2753 5.19525 13.2858 5.19344C13.2964 5.19171 13.6425 5.39106 14.0549 5.63638ZM19.5919 7.76778C19.6209 7.93014 19.7278 8.75351 19.8297 9.59759C20.1733 12.4453 20.6183 14.0237 21.256 14.6561C21.4344 14.8329 21.3772 14.8754 20.6072 15.1379C19.3482 15.5671 16.7109 16.0093 16.4048 15.8425C16.3122 15.7921 16.2419 15.6335 16.2251 15.4376C16.1999 15.1433 16.2454 15.0663 16.7552 14.5406C17.7367 13.5285 18.3451 12.659 18.8106 11.6032C19.2666 10.5691 19.4024 9.81213 19.3566 8.56188C19.3262 7.73323 19.3433 7.47264 19.4279 7.47264C19.4892 7.47264 19.563 7.60549 19.5919 7.76778ZM4.62571 9.44349C4.62571 9.88879 4.87038 10.8701 5.13241 11.4756C5.61713 12.5956 6.25195 13.5167 7.24481 14.5406C7.75458 15.0663 7.8001 15.1433 7.77494 15.4376C7.73513 15.9021 7.6042 15.9452 6.60519 15.8222C5.1516 15.6433 3.01694 15.1239 2.69718 14.8715C2.65664 14.8394 2.74685 14.6442 2.89751 14.4374C3.44719 13.6836 3.86648 12.2062 4.08128 10.2666C4.2066 9.13427 4.20941 9.12538 4.44195 9.12538C4.59631 9.12538 4.62571 9.17622 4.62571 9.44349ZM10.5523 16.713C11.1031 16.9194 11.2919 16.9502 12 16.9486C12.9242 16.9467 13.6041 16.7503 14.573 16.2056L15.1056 15.9062L15.2167 16.1396C15.3715 16.4647 16.2104 17.0935 16.922 17.4181C17.7632 17.8016 20.5713 18.8257 21.2744 19.0054C21.7291 19.1215 21.9565 19.2369 22.2765 19.5141C22.8163 19.9814 22.9031 20.297 22.9031 21.7919V22.9769H12H1.09691V21.7919C1.09691 20.297 1.18369 19.9814 1.7235 19.5141C2.04354 19.2369 2.27092 19.1215 2.72559 19.0054C3.42873 18.8257 6.23684 17.8016 7.07796 17.4181C7.79014 17.0933 8.62846 16.4646 8.78355 16.139L8.89502 15.9049L9.40697 16.1903C9.68855 16.3472 10.2039 16.5824 10.5523 16.713Z" fill="white"/>
</svg>
