<svg width="24" height="24" viewBox="0 0 24 24" fill="none" xmlns="http://www.w3.org/2000/svg">
<path fill-rule="evenodd" clip-rule="evenodd" d="M8.65917 0.162006C7.56767 0.409959 6.73345 0.828632 5.90674 1.54356C5.39395 1.98697 5.07324 2.36394 4.80464 2.83869C4.3209 3.69416 4.18557 4.20703 4.18031 5.20483C4.17537 6.13878 4.36662 6.79737 4.89816 7.67749L5.25904 8.27518L4.96613 8.60823C4.6998 8.91118 4.67333 9.00663 4.67457 9.66281C4.6756 10.2691 4.72153 10.4653 4.96191 10.8912C5.24658 11.3957 5.8432 11.9461 6.10531 11.9461C6.18091 11.9461 6.29935 12.1212 6.36845 12.3352C6.6802 13.3006 7.82525 14.6726 8.80851 15.2591L9.25631 15.5262V16.1469V16.7677L8.61262 16.7693C6.78608 16.7737 5.12463 17.1103 3.9008 17.7236C2.89283 18.2288 1.47794 19.503 0.946821 20.3838C0.445154 21.216 0.123926 22.1515 0.0293807 23.0559C-0.0265431 23.5918 -0.00882873 23.7229 0.136594 23.8489C0.298186 23.989 1.15898 24 12.0238 24C20.9966 24 23.7657 23.9749 23.8604 23.8929C24.2183 23.5826 23.8531 21.8831 23.164 20.6517C22.3677 19.2289 21.2086 18.2133 19.6069 17.5353C18.4304 17.0372 17.6429 16.8761 16.0163 16.8008L14.7148 16.7404V16.1412V15.5419L15.137 15.2883C16.2237 14.6354 17.3709 13.1873 17.71 12.0406C17.8157 11.683 17.9154 11.5438 18.1372 11.4444C18.7997 11.1473 19.3494 10.1286 19.3494 9.1978C19.3494 8.61082 19.1236 8.16812 18.693 7.91062C18.5159 7.80472 18.3525 7.70579 18.3299 7.69079C18.3073 7.67579 18.4095 7.51212 18.5569 7.32703C19.3382 6.34602 19.5511 5.18813 19.1495 4.10515C18.5982 2.6185 17.1286 1.66991 15.3117 1.62794C14.5435 1.61017 14.5025 1.59785 14.0244 1.24221C12.5606 0.153702 10.5119 -0.25881 8.65917 0.162006ZM11.063 0.882562C11.9599 1.02632 12.8336 1.40677 13.5217 1.95313L14.1309 2.43689L15.0665 2.44028C15.7911 2.44287 16.1096 2.486 16.4782 2.63109C17.6225 3.08164 18.4223 4.10381 18.4224 5.11616C18.4225 5.76484 18.3144 6.11575 17.9472 6.65898L17.6686 7.07122L17.5071 6.85228C16.9514 6.09887 14.7554 4.44588 14.3103 4.44588C14.1704 4.44588 13.503 4.82107 12.6695 5.36849C11.8969 5.87592 11.0561 6.39495 10.8012 6.52192C10.1072 6.86773 9.12469 7.11524 8.18768 7.18042C7.29712 7.24238 6.69504 7.44132 6.4391 7.75802C6.25084 7.99107 6.13796 7.93606 5.81065 7.45185C4.0627 4.86589 5.71704 1.55276 9.07154 0.921313C9.88671 0.767826 10.297 0.75988 11.063 0.882562ZM14.6752 5.5343C15.659 6.18173 16.4552 6.88648 16.7566 7.37658L17.0836 7.90847V9.35066C17.0836 10.3209 17.03 11.0177 16.9199 11.4798C16.456 13.427 14.7734 14.9792 12.5927 15.4716C11.8592 15.6373 11.3668 15.5525 10.2222 15.0638C8.78719 14.451 7.68148 13.3041 7.17353 11.9014C6.98155 11.3715 6.94654 11.063 6.94304 9.87317C6.93799 8.105 6.91471 8.13473 8.4365 7.96392C10.2861 7.75624 10.9186 7.51016 12.8769 6.23575C13.6329 5.74386 14.2799 5.34081 14.3147 5.3401C14.3495 5.33938 14.5117 5.42671 14.6752 5.5343ZM18.3962 9.40691C18.3688 9.70469 18.2726 10.0663 18.1825 10.2105C18.0247 10.4632 18.0187 10.4352 18.018 9.44602L18.0174 8.4192L18.2318 8.64242C18.4127 8.83073 18.4384 8.9502 18.3962 9.40691ZM5.95649 9.87014C5.95247 10.7931 5.94619 10.8201 5.79088 10.5715C5.7021 10.4293 5.60467 10.0771 5.5746 9.78879C5.53021 9.36459 5.55503 9.23074 5.70468 9.08744C5.80633 8.99002 5.90551 8.91029 5.92508 8.91029C5.94465 8.91029 5.95876 9.34227 5.95649 9.87014ZM11.2781 16.2565L12.0125 16.4333L12.8996 16.213C13.3875 16.0918 13.81 16.013 13.8388 16.0379C13.8674 16.0627 13.8882 16.3878 13.885 16.7602L13.8791 17.4373L13.2893 18.107L12.6994 18.7766L12.0137 18.8029L11.3279 18.8292L10.7555 18.1699L10.1832 17.5107V16.7278C10.1832 16.0161 10.1996 15.9511 10.3635 16.0123C10.4626 16.0493 10.8742 16.1592 11.2781 16.2565ZM9.25631 17.6637C9.25631 17.7146 9.5558 18.1098 9.92183 18.5423L10.5875 19.3284L10.1793 21.2278C9.95489 22.2725 9.77126 23.1428 9.77126 23.1619C9.77126 23.1809 7.77953 23.1964 5.34524 23.1964H0.919219L0.975246 22.9062C1.14333 22.0344 1.28453 21.646 1.70555 20.8967C2.65173 19.2131 4.4348 18.0568 6.63005 17.7034C7.52071 17.56 9.25631 17.5337 9.25631 17.6637ZM17.0416 17.6673C17.9934 17.7821 18.9296 18.0639 19.7249 18.4751C20.4979 18.8747 21.5835 19.8085 22.0488 20.474C22.4596 21.0615 22.893 22.1078 23.0008 22.7723L23.0697 23.1964H18.6469H14.2242L14.0458 22.3258C13.9476 21.847 13.7606 20.9731 13.6303 20.3838L13.3932 19.3124L13.9973 18.6232C14.3294 18.244 14.6516 17.8523 14.7132 17.7526C14.8089 17.5972 14.9269 17.5712 15.5349 17.5712C15.9254 17.5712 16.6033 17.6145 17.0416 17.6673ZM12.5524 19.6918C12.5526 19.7286 12.7146 20.5021 12.9125 21.4106C13.1103 22.3191 13.2723 23.0926 13.2725 23.1294C13.2727 23.1663 12.6905 23.1964 11.9787 23.1964C10.796 23.1964 10.6885 23.1829 10.733 23.0402C10.7598 22.9543 10.9335 22.1506 11.1191 21.2544L11.4564 19.6249H12.0042C12.3056 19.6249 12.5522 19.6551 12.5524 19.6918Z" fill="white"/>
</svg>
