<svg width="128" height="128" viewBox="0 0 128 128" fill="none" xmlns="http://www.w3.org/2000/svg">
<path d="M45.4777 1.57412C45.1833 1.697 43.5424 4.14692 41.8028 6.98852L38.6425 12.1828L38.5696 19.5082C38.4966 27.3968 38.5209 27.6669 39.7702 28.8676L40.4806 29.5536V33.2029C40.4806 37.0493 40.5536 37.4167 41.7299 38.6416C42.3174 39.2791 42.4646 39.6951 42.6848 41.5818C43.175 45.5511 44.4729 49.6663 46.1638 52.7293C47.07 54.3216 49.054 57.0903 49.7657 57.7277C50.256 58.1693 50.2803 58.4624 50.2803 62.0887V65.9594H48.0748H45.8937L41.5084 68.1648C36.8288 70.4919 36.3142 70.9335 36.6816 72.3786C36.8288 72.9661 36.7545 73.016 33.4969 74.1424C20.8057 78.4548 13.9948 84.0893 11.7408 92.1008C11.2262 93.9632 11.2262 94.4036 11.1289 110.354L11.0547 126.72H13.0144H14.9753L15.0483 110.255L15.1212 93.7661L15.783 91.978C18.16 85.4602 23.5987 81.5408 36.3142 77.2042L39.8419 75.9792L48.3193 84.4324C52.9747 89.0621 57.0169 92.9828 57.3113 93.13C58.046 93.4973 69.9539 93.4973 70.6886 93.13C70.9817 92.9828 75.0252 89.0634 79.6793 84.4324L88.1568 75.9805L91.6844 77.2055C104.4 81.5421 109.839 85.4615 112.216 91.9792L112.877 93.7674L112.952 110.256L113.023 126.72H114.983H116.943L116.87 110.378C116.771 94.4036 116.771 93.9632 116.257 92.1008C114.003 84.0893 107.192 78.4548 94.5004 74.1424C91.2416 73.0148 91.1686 72.9661 91.3158 72.3786C91.6588 70.9578 91.1686 70.5162 86.5132 68.1648L82.1536 65.9594H79.9481H77.7184V62.0644C77.7184 58.8055 77.7913 58.1194 78.11 57.8506C78.7232 57.3604 80.5356 54.9348 81.4176 53.441C83.3286 50.232 84.798 45.6996 85.3126 41.5101C85.5328 39.6964 85.68 39.256 86.2675 38.6429C87.4438 37.418 87.5168 37.0506 87.5168 33.1799C87.5168 29.578 87.5168 29.5293 88.1542 28.9418C89.4035 27.7655 89.4777 27.4224 89.4777 21.665C89.4777 18.7005 89.3548 15.7117 89.2332 14.977C88.3756 10.4202 84.2361 6.2794 79.7024 5.44612C78.992 5.29892 75.7088 5.20165 72.4256 5.20165H66.4723L62.503 3.24196C60.3475 2.1642 58.3622 1.28228 58.1177 1.28228C57.8732 1.28228 56.1081 2.06692 54.1971 3.0218L50.6937 4.737L49.2012 3.28932C47.143 1.27972 46.5798 1.03524 45.4777 1.57412ZM61.6224 7.20868L65.1014 8.99685L72.574 9.11972C81.0515 9.26692 81.3459 9.31556 83.3542 11.3252C85.2896 13.2605 85.4368 13.848 85.511 20.3172C85.584 24.6052 85.511 26.026 85.2908 26.026C85.1436 26.026 83.9187 25.3156 82.6195 24.4336C81.296 23.576 77.4995 21.5178 74.2163 19.8768C69.1936 17.3783 68.1158 16.9124 67.527 17.0596C67.111 17.1824 65.7145 18.3332 63.9993 20.0484L61.1577 22.8413H54.5184H47.879L45.4777 24.4324C44.1299 25.3143 42.9049 26.0247 42.7577 26.0247C42.5132 26.0247 42.439 24.6039 42.439 19.7527V13.4807L44.5459 9.953L46.6771 6.42532L47.9507 7.62596C49.9104 9.48836 49.9846 9.48836 54.2713 7.33156C56.3296 6.30244 58.0204 5.46916 58.0691 5.46916C58.0947 5.44484 59.687 6.25252 61.6224 7.20868ZM73.8489 24.0893C76.8377 25.5844 80.2438 27.4698 81.4444 28.2544L83.6 29.7239V32.737C83.6 35.6528 83.5756 35.7501 82.9625 36.3389C81.9577 37.2695 81.7132 37.9799 81.566 40.4797C81.2716 44.9392 79.5564 49.912 77.1065 53.3424C70.7116 62.3344 57.31 62.3344 50.8921 53.3668C48.4179 49.8877 46.727 44.9879 46.4326 40.4797C46.2854 37.9812 46.0409 37.2708 45.0361 36.3389C44.423 35.7514 44.3987 35.6528 44.3987 32.737V29.7239L46.6041 28.2288L48.7852 26.7594H55.5475C60.9376 26.7594 62.4326 26.6864 62.9715 26.4164C63.3388 26.2205 64.6867 24.9956 65.9603 23.722C67.2352 22.4228 68.3129 21.3693 68.3372 21.3693C68.3846 21.3693 70.8588 22.5943 73.8489 24.0893ZM55.9392 62.2602C58.5849 63.4365 60.5932 63.8525 63.9993 63.8525C67.6985 63.8525 69.2665 63.4852 73.5059 61.6228C73.726 61.5255 73.8003 62.0388 73.8003 63.7053C73.8003 65.8608 73.8003 65.9108 73.1142 66.1796C72.6483 66.3754 71.1545 68.2621 68.2873 72.3287C65.9846 75.5632 64.0736 78.209 63.9993 78.209C63.9251 78.209 62.0153 75.5632 59.7113 72.3287C56.8454 68.2877 55.326 66.3767 54.8857 66.1808C54.1996 65.9108 54.1996 65.8621 54.1996 63.7309C54.1996 62.5303 54.2483 61.5498 54.2982 61.5498C54.3468 61.5498 55.0816 61.8685 55.9392 62.2602ZM57.9974 76.5437C61.2064 81.0519 62.8729 83.1831 63.3388 83.3789C64.638 83.9178 65.0784 83.4775 70.0025 76.5437L74.6822 70.0016L77.9168 69.9287L81.1257 69.8557L83.6243 71.1293L86.1228 72.3786L77.5724 80.929L69.022 89.4794H63.9993H58.9766L50.4262 80.929L41.8758 72.3786L44.3014 71.1293L46.727 69.9044L50.0345 69.953L53.3177 70.0016L57.9974 76.5437Z" fill="black"/>
<path d="M30.6797 118.88V126.72H32.6394H34.599V118.88V111.04H32.6394H30.6797V118.88ZM93.3997 118.88V126.72H95.3594H97.319V118.88V111.04H95.3594H93.3997V118.88Z" fill="black"/>
</svg>
