<svg width="22" height="22" viewBox="0 0 22 22" fill="none" xmlns="http://www.w3.org/2000/svg">
<path d="M7.12844 0.0510165C7.06747 0.0724971 6.72767 0.500767 6.36743 0.997506L5.71298 1.90552L5.69789 3.18607C5.68277 4.56507 5.6878 4.61229 5.94651 4.82218L6.09362 4.9421V5.58003C6.09362 6.25242 6.10874 6.31665 6.35233 6.53077C6.47399 6.64221 6.50448 6.71493 6.55008 7.04475C6.65159 7.73862 6.92036 8.458 7.27052 8.99344C7.45818 9.27179 7.86903 9.75578 8.01642 9.86721C8.11795 9.9444 8.12298 9.99564 8.12298 10.6296V11.3062H7.66626H7.21459L6.30646 11.6917C5.33739 12.0985 5.23083 12.1757 5.30691 12.4283C5.33739 12.531 5.32201 12.5398 4.64741 12.7367C2.01927 13.4905 0.608847 14.4755 0.14208 15.876C0.0355149 16.2015 0.0355148 16.2785 0.0153655 19.0668L0 21.9277H0.405822H0.811892L0.827009 19.0495L0.842106 16.1671L0.979154 15.8545C1.47139 14.7151 2.59766 14.03 5.23083 13.2719L5.96136 13.0577L7.71689 14.5354C8.68095 15.3448 9.51802 16.0301 9.57899 16.0559C9.73113 16.1201 12.1971 16.1201 12.3492 16.0559C12.4099 16.0301 13.2472 15.345 14.211 14.5354L15.9666 13.058L16.6971 13.2721C19.3303 14.0302 20.4566 14.7153 20.9489 15.8547L21.0857 16.1673L21.1013 19.0497L21.116 21.9277H21.5219H21.9277L21.9126 19.071C21.8921 16.2785 21.8921 16.2015 21.7857 15.876C21.3189 14.4755 19.9085 13.4905 17.2802 12.7367C16.6054 12.5395 16.5903 12.531 16.6208 12.4283C16.6918 12.18 16.5903 12.1028 15.6262 11.6917L14.7234 11.3062H14.2667H13.805V10.6253C13.805 10.0556 13.8201 9.93568 13.8861 9.88869C14.013 9.803 14.3884 9.37898 14.571 9.11785C14.9667 8.55689 15.271 7.76458 15.3776 7.03221C15.4232 6.71516 15.4537 6.63818 15.5753 6.531C15.8189 6.31687 15.834 6.25265 15.834 5.57601C15.834 4.94637 15.834 4.93785 15.966 4.83515C16.2248 4.62952 16.2401 4.56955 16.2401 3.5631C16.2401 3.04487 16.2147 2.5224 16.1895 2.39397C16.0119 1.5974 15.1547 0.873545 14.2158 0.72788C14.0687 0.702148 13.3888 0.685144 12.7089 0.685144H11.4761L10.6541 0.342571C10.2077 0.154168 9.79661 0 9.74598 0C9.69535 0 9.32982 0.137163 8.93409 0.304085L8.20859 0.603919L7.89952 0.35085C7.4733 -0.000447495 7.35667 -0.043185 7.12844 0.0510165ZM10.4717 1.03599L11.1922 1.34858L12.7396 1.37006C14.4952 1.39579 14.5562 1.4043 14.972 1.7556C15.3728 2.09391 15.4033 2.19661 15.4187 3.32749C15.4338 4.07707 15.4187 4.32544 15.3731 4.32544C15.3426 4.32544 15.0889 4.20126 14.8199 4.04708C14.5458 3.89716 13.7596 3.53737 13.0797 3.2505C12.0396 2.81374 11.8164 2.7323 11.6945 2.75803C11.6083 2.7795 11.3191 2.98067 10.964 3.2805L10.3755 3.76873H9.00062H7.62571L7.12844 4.04687C6.84933 4.20103 6.59566 4.32522 6.56517 4.32522C6.51454 4.32522 6.49918 4.07685 6.49918 3.22881V2.1324L6.93548 1.51573L7.37682 0.899053L7.64056 1.10894C8.04638 1.4345 8.06175 1.4345 8.94945 1.05747C9.37569 0.877573 9.72583 0.731907 9.73591 0.731907C9.74121 0.727656 10.071 0.868846 10.4717 1.03599ZM13.0037 3.98689C13.6226 4.24825 14.3279 4.57783 14.5766 4.71499L15.0229 4.97187V5.49859C15.0229 6.0083 15.0179 6.02531 14.8909 6.12824C14.6829 6.29092 14.6322 6.4151 14.6017 6.85209C14.5408 7.63165 14.1856 8.50095 13.6782 9.10062C12.354 10.6725 9.57872 10.6725 8.24967 9.10488C7.73731 8.4967 7.38715 7.64017 7.32618 6.85209C7.2957 6.41533 7.24507 6.29114 7.03699 6.12824C6.91003 6.02554 6.905 6.0083 6.905 5.49859V4.97187L7.3617 4.71051L7.81337 4.45365H9.21373C10.3299 4.45365 10.6395 4.44089 10.7511 4.39369C10.8272 4.35944 11.1063 4.14532 11.3701 3.92268C11.6341 3.69557 11.8572 3.51141 11.8623 3.51141C11.8721 3.51141 12.3845 3.72555 13.0037 3.98689ZM9.29485 10.6595C9.84273 10.8652 10.2586 10.9379 10.964 10.9379C11.73 10.9379 12.0547 10.8737 12.9326 10.5481C12.9782 10.5311 12.9936 10.6208 12.9936 10.9122C12.9936 11.289 12.9936 11.2977 12.8515 11.3447C12.755 11.3789 12.4457 11.7087 11.8519 12.4196C11.3751 12.985 10.9793 13.4475 10.964 13.4475C10.9486 13.4475 10.5531 12.985 10.076 12.4196C9.4825 11.7132 9.16786 11.3791 9.07668 11.3449C8.9346 11.2977 8.9346 11.2892 8.9346 10.9166C8.9346 10.7067 8.94469 10.5353 8.95502 10.5353C8.96509 10.5353 9.11725 10.5911 9.29485 10.6595ZM9.72107 13.1564C10.3856 13.9445 10.7307 14.3171 10.8272 14.3513C11.0962 14.4455 11.1874 14.3685 12.2071 13.1564L13.1762 12.0128L13.846 12.0001L14.5106 11.9873L15.028 12.2099L15.5454 12.4283L13.7747 13.923L12.0041 15.4177H10.964H9.92384L8.15319 13.923L6.38255 12.4283L6.88485 12.2099L7.38715 11.9958L8.07208 12.0043L8.75198 12.0128L9.72107 13.1564Z" fill="white"/>
<path d="M4.0625 20.557V21.9275H4.46832H4.87412V20.557V19.1865H4.46832H4.0625V20.557ZM17.0508 20.557V21.9275H17.4566H17.8624V20.557V19.1865H17.4566H17.0508V20.557Z" fill="white"/>
</svg>
