<svg width="24" height="24" viewBox="0 0 24 24" fill="none" xmlns="http://www.w3.org/2000/svg">
<path fill-rule="evenodd" clip-rule="evenodd" d="M5.03513 0.1381C4.39615 0.373382 3.75646 1.03311 3.52687 1.69356C3.37483 2.13089 3.26319 2.27834 2.96993 2.42886C2.29575 2.77508 1.75789 3.59862 1.75575 4.28821C1.75544 4.38525 1.62646 4.53127 1.46922 4.61276C0.943096 4.88537 0.348709 5.64019 0.167077 6.26628C-0.0493516 7.01211 0.012179 7.66724 0.36677 8.39344L0.642382 8.95797L0.407893 9.39807C0.208301 9.77282 0.173505 9.9897 0.173607 10.8606C0.173607 11.7705 0.203607 11.94 0.445342 12.3991C0.80677 13.0854 1.4432 13.7069 2.12901 14.0431C2.82871 14.3861 3.91656 14.4769 4.63778 14.2524L5.12248 14.1016V15.8379V17.5744L4.84187 17.5171C4.26625 17.3997 2.8035 17.2506 1.5882 17.1855C0.640443 17.1348 0.29524 17.1501 0.176975 17.2485C-0.0613924 17.4467 -0.0578209 23.6003 0.18075 23.8394C0.32473 23.9835 1.53799 24 12.0102 24C22.4825 24 23.6957 23.9835 23.8397 23.8394C23.9728 23.7059 24 23.3852 24 21.95V20.2214L23.7449 20.0539L23.4898 19.8864V16.7283C23.4898 14.114 23.514 13.5703 23.6304 13.5703C23.8969 13.5703 24.0482 13.2717 23.9323 12.9741C23.8739 12.8239 22.9002 11.3437 21.7686 9.68468L19.7111 6.66824L18.5647 6.61711L17.4184 6.56599L17.3905 5.49234C17.3682 4.63147 17.3289 4.39333 17.1925 4.29087C16.9887 4.1379 14.8471 4.11459 14.6123 4.26286C14.4974 4.33535 14.4464 4.63464 14.4082 5.46268L14.3572 6.56599L12.7665 6.5941L11.176 6.62212L10.7746 6.08284C10.3858 5.56054 10.3779 5.53375 10.524 5.23671C10.7659 4.74497 10.721 3.88207 10.4259 3.34954C10.1189 2.79553 9.48125 2.32661 8.93502 2.25319C8.55829 2.20257 8.51788 2.16433 8.35441 1.70317C8.134 1.08138 7.77962 0.65519 7.19952 0.314485C6.62452 -0.023152 5.68166 -0.100046 5.03513 0.1381ZM6.65105 1.12105C7.21462 1.40961 7.46839 1.7545 7.54176 2.33141C7.63492 3.06354 7.70941 3.14053 8.32523 3.14053C9.01043 3.14053 9.50849 3.4479 9.68308 3.97859C9.8291 4.42237 9.71104 4.96206 9.40757 5.23722C9.09706 5.51882 9.15217 5.85124 9.56125 6.16393C9.75768 6.31404 9.91839 6.47744 9.91839 6.52703C9.91839 6.57652 9.67737 6.61783 9.38268 6.61875L8.84696 6.62028L7.63094 8.41266C6.96207 9.39848 6.37666 10.2287 6.32992 10.2576C6.28319 10.2865 6.24493 9.72732 6.24493 9.01482V7.71949L6.85717 7.12837C7.1939 6.80331 7.46941 6.44942 7.46941 6.34205C7.46941 5.89644 6.92503 5.74827 6.60207 6.10585C6.31625 6.42232 6.24493 6.35504 6.24493 5.76842C6.24493 5.47035 6.18982 5.17126 6.12248 5.10378C5.95299 4.93394 5.67789 4.9504 5.48686 5.14171C5.35268 5.27628 5.32656 5.61064 5.32656 7.19341V9.08425L4.56931 8.4642C3.81248 7.84455 3.53656 7.73596 3.30615 7.96684C3.00095 8.27268 3.17279 8.53291 4.24891 9.39439L5.31421 10.2471L5.32033 11.035C5.32635 11.793 5.31105 11.8451 4.9184 12.4067C4.69391 12.7279 4.51023 13.0722 4.51023 13.172C4.51023 13.3084 4.39676 13.3703 4.05176 13.4221C1.86228 13.7512 0.273913 11.343 1.44034 9.4629C1.6135 9.18375 1.75514 8.91278 1.75514 8.86073C1.75514 8.80879 1.59728 8.55888 1.40432 8.3056C0.580035 7.22357 0.964933 5.82885 2.23983 5.27802C2.4784 5.17495 2.67758 5.05449 2.68248 5.01032C2.68748 4.96604 2.69922 4.68465 2.7085 4.38484C2.7236 3.89597 2.76462 3.80374 3.10615 3.49013C3.31768 3.29596 3.59534 3.14053 3.73095 3.14053C4.05381 3.14053 4.21227 2.93112 4.31778 2.36526C4.43238 1.75072 4.75166 1.31963 5.26544 1.08577C5.81544 0.835563 6.10788 0.843027 6.65105 1.12105ZM16.428 5.82466L16.398 6.56599H15.8878H15.3776L15.3476 5.82466L15.3176 5.08333H15.8878H16.458L16.428 5.82466ZM20.8683 10.0338C21.805 11.4067 22.5714 12.557 22.5714 12.5901C22.5714 12.623 20.5356 12.65 18.0474 12.65H13.5233L11.8229 10.1496C10.8877 8.77443 10.1225 7.62409 10.1225 7.59331C10.1225 7.56254 12.1571 7.53738 14.6438 7.53738H19.1651L20.8683 10.0338ZM11.1375 10.8069L12.9796 13.514V16.5075C12.9796 18.1538 12.9519 19.5009 12.9179 19.5009C12.8839 19.5009 12.4706 19.3831 11.9995 19.239L11.1429 18.9773V17.0877C11.1429 15.4342 11.1187 15.1507 10.9493 14.8179C10.5441 14.022 9.46349 13.7476 8.63962 14.2314C7.97584 14.6212 7.87758 14.9316 7.87758 16.6389V18.0916L7.64798 18.0362C7.52176 18.0058 7.13145 17.9226 6.78064 17.8513L6.14288 17.7217V14.9983V12.2749L7.38135 10.443C8.96257 8.10396 9.10778 7.91122 9.21053 8.01439C9.25717 8.06132 10.1243 9.318 11.1375 10.8069ZM22.5714 16.8313V20.0922L22.3418 20.1485C22.2155 20.1793 21.4531 20.2562 20.6475 20.3192C18.9452 20.4524 16.7208 20.3277 15.0714 20.0068C14.5102 19.8976 14.0395 19.8082 14.0255 19.808C14.0115 19.8078 14 18.4042 14 16.689V13.5703H18.2857H22.5714V16.8313ZM15.6025 15.5775C15.563 15.6171 15.5306 16.2342 15.5306 16.9491C15.5306 17.9418 15.5646 18.277 15.6743 18.3683C15.7633 18.4423 16.1026 18.4762 16.5672 18.4575L17.3163 18.4273V16.9957V15.5642L16.4953 15.5348C16.0437 15.5187 15.642 15.5378 15.6025 15.5775ZM19.2268 16.9702L19.2551 18.4273H20.0714H20.8878L20.916 16.9702L20.9444 15.5131H20.0714H19.1985L19.2268 16.9702ZM3.84697 18.3375C6.23686 18.6191 8.57696 19.1526 11.6531 20.1172C15.4241 21.2997 18.574 21.5764 22.5459 21.0739L23.0816 21.0062V22.043V23.0797H12.0102H0.93881V20.5659V18.0519L1.72963 18.1166C2.16462 18.1522 3.11738 18.2516 3.84697 18.3375Z" fill="white"/>
</svg>
