<svg width="24" height="24" viewBox="0 0 24 24" fill="none" xmlns="http://www.w3.org/2000/svg">
<path fill-rule="evenodd" clip-rule="evenodd" d="M9.63624 0.10598C9.55359 0.181134 9.48621 0.536225 9.48621 0.894894C9.48621 1.54165 9.47639 1.54782 8.34132 1.60746L7.19643 1.6675L7.13101 2.69997L7.06537 3.73224L6.25871 3.79348L5.45184 3.85451L5.38925 5.68623L5.32667 7.51795L3.31755 7.57501L1.30844 7.63208L1.25131 15.4228L1.19439 23.2133L0.597086 23.2761C0.24228 23.3133 0 23.4599 0 23.637C0 23.8979 1.48944 23.9416 11.8711 23.9867C20.9791 24.0261 23.7798 23.9822 23.9052 23.7973C24.1432 23.4463 23.9273 23.2394 23.323 23.2394H22.7924L22.7361 12.4534L22.6797 1.6675H18.2092H13.7386L13.6728 2.7113C13.6178 3.58233 13.5385 3.7551 13.1935 3.7551C12.8485 3.7551 12.7691 3.58233 12.7141 2.7113L12.6483 1.6675L11.5158 1.60786C10.3862 1.54821 10.3834 1.54642 10.3164 0.827892C10.2521 0.1364 9.95201 -0.182108 9.63624 0.10598ZM11.885 3.05924V3.7551H9.92235H7.95969V3.05924V2.36337H9.92235H11.885V3.05924ZM21.9164 12.8014V23.2394H20.2809H18.6453V17.6842C18.6453 12.0854 18.5428 11.3476 17.8794 12.1745C17.5508 12.5843 16.9884 12.6006 16.8218 12.2049C16.6573 11.8138 16.1106 11.8222 15.944 12.2182C15.8585 12.4214 15.6038 12.5079 15.2119 12.4668L14.6109 12.4037L14.5527 7.38355L14.4945 2.36337H18.2054H21.9164V12.8014ZM16.1191 4.0251C15.9209 4.4959 16.1089 5.04743 16.4676 5.04743C16.6802 5.04743 16.7917 4.84801 16.7917 4.46747C16.7917 3.83901 16.3263 3.53302 16.1191 4.0251ZM17.8637 4.0251C17.6655 4.4959 17.8535 5.04743 18.2122 5.04743C18.4248 5.04743 18.5363 4.84801 18.5363 4.46747C18.5363 3.83901 18.0709 3.53302 17.8637 4.0251ZM19.6083 4.0251C19.4101 4.4959 19.5981 5.04743 19.9568 5.04743C20.1694 5.04743 20.2809 4.84801 20.2809 4.46747C20.2809 3.83901 19.8155 3.53302 19.6083 4.0251ZM13.6296 8.52676V12.5031H11.9941H10.3585V11.8192C10.3585 11.1728 10.4032 11.1321 11.1745 11.0736C11.7448 11.0305 12.0122 10.9072 12.0627 10.6641C12.1221 10.3788 11.9749 10.3161 11.2467 10.3161C10.3799 10.3161 10.3585 10.2996 10.3585 9.63219C10.3585 8.98583 10.4032 8.94508 11.1745 8.88662C11.7448 8.84348 12.0122 8.72021 12.0627 8.47706C12.1218 8.19314 11.976 8.12912 11.27 8.12912C10.7024 8.12912 10.362 8.02653 10.2796 7.83089C10.181 7.59629 9.73415 7.53267 8.18452 7.53267H6.2151V6.04152V4.55038H9.92235H13.6296V8.52676ZM7.84389 6.15107C7.53881 6.601 8.15203 6.7525 10.0512 6.69584C11.6046 6.64951 11.9941 6.57814 11.9941 6.33975C11.9941 6.10057 11.5987 6.03019 9.99475 5.98466C8.68696 5.94728 7.9429 6.00494 7.84389 6.15107ZM16.0284 7.13503C16.0284 7.59887 16.1252 7.73148 16.4646 7.73148C16.8039 7.73148 16.9007 7.59887 16.9007 7.13503C16.9007 6.67118 16.8039 6.53857 16.4646 6.53857C16.1252 6.53857 16.0284 6.67118 16.0284 7.13503ZM17.773 7.13503C17.773 7.59887 17.8698 7.73148 18.2092 7.73148C18.5485 7.73148 18.6453 7.59887 18.6453 7.13503C18.6453 6.67118 18.5485 6.53857 18.2092 6.53857C17.8698 6.53857 17.773 6.67118 17.773 7.13503ZM19.5965 6.8368C19.4188 7.25869 19.6617 7.73148 20.056 7.73148C20.2815 7.73148 20.3899 7.53803 20.3899 7.13503C20.3899 6.49523 19.829 6.28428 19.5965 6.8368ZM9.48621 15.7837V23.2394H8.39584H7.30547V22.1459V21.0524H5.79029H4.27533L4.20926 22.0962L4.1434 23.14L3.10755 23.2006L2.0717 23.2612V15.7946V8.32794H5.77895H9.48621V15.7837ZM16.1191 9.39321C15.9209 9.86402 16.1089 10.4155 16.4676 10.4155C16.6802 10.4155 16.7917 10.2161 16.7917 9.83559C16.7917 9.20712 16.3263 8.90114 16.1191 9.39321ZM17.8637 9.39321C17.6655 9.86402 17.8535 10.4155 18.2122 10.4155C18.4248 10.4155 18.5363 10.2161 18.5363 9.83559C18.5363 9.20712 18.0709 8.90114 17.8637 9.39321ZM19.6083 9.39321C19.4016 9.8845 19.602 10.4058 20.0259 10.4802C20.3517 10.5374 20.4082 10.4368 20.3506 9.9014C20.2758 9.20692 19.8185 8.89398 19.6083 9.39321ZM3.59822 10.9126C3.59822 11.4015 3.68174 11.5236 3.97984 11.4713C4.49733 11.3804 4.49733 10.4448 3.97984 10.3539C3.68174 10.3016 3.59822 10.4237 3.59822 10.9126ZM5.34281 10.8981C5.34281 11.383 5.43571 11.509 5.79335 11.509C6.156 11.509 6.23058 11.4027 6.17497 10.9641C6.13354 10.6352 5.9545 10.3927 5.72443 10.3529C5.42807 10.3016 5.34281 10.4235 5.34281 10.8981ZM7.23285 10.4487C7.15282 10.5215 7.08739 10.7899 7.08739 11.0452C7.08739 11.3764 7.21191 11.509 7.52354 11.509C7.86286 11.509 7.95969 11.3764 7.95969 10.9126C7.95969 10.3517 7.59463 10.1187 7.23285 10.4487ZM19.663 12.0393C19.4005 12.2787 19.5111 13.0549 19.8233 13.164C20.2436 13.3109 20.3899 13.1316 20.3899 12.4699C20.3899 11.9403 20.0152 11.7182 19.663 12.0393ZM3.74825 13.0292C3.6656 13.1044 3.59822 13.4259 3.59822 13.7438C3.59822 14.1871 3.68697 14.306 3.97984 14.2547C4.2387 14.2092 4.36147 14.002 4.36147 13.6106C4.36147 13.0485 4.05028 12.7537 3.74825 13.0292ZM5.43352 13.1708C5.23529 13.6416 5.42327 14.1931 5.78201 14.1931C5.99463 14.1931 6.10606 13.9937 6.10606 13.6131C6.10606 12.9847 5.64069 12.6787 5.43352 13.1708ZM7.17811 13.1708C6.97988 13.6416 7.16786 14.1931 7.5266 14.1931C7.73922 14.1931 7.85065 13.9937 7.85065 13.6131C7.85065 12.9847 7.38528 12.6787 7.17811 13.1708ZM17.773 18.2689V23.2394H14.0658H10.3585V18.2689V13.2984H14.0658H17.773V18.2689ZM11.935 18.2039C11.9853 21.7281 12.0427 22.3447 12.3212 22.3447C12.6014 22.3447 12.6483 21.7596 12.6483 18.2717C12.6483 14.5327 12.6167 14.1929 12.2621 14.1307C11.9012 14.0674 11.88 14.3327 11.935 18.2039ZM13.6798 18.2192C13.7299 21.7299 13.7875 22.3447 14.0658 22.3447C14.344 22.3447 14.4016 21.7299 14.4517 18.2192C14.5095 14.1814 14.5012 14.0937 14.0658 14.0937C13.6303 14.0937 13.622 14.1814 13.6798 18.2192ZM15.4715 14.348C15.4126 14.488 15.3912 16.3445 15.4239 18.4735C15.4743 21.758 15.5327 22.3447 15.8103 22.3447C16.0886 22.3447 16.1462 21.7299 16.1963 18.2192C16.248 14.6005 16.2138 14.0937 15.917 14.0937C15.7307 14.0937 15.5303 14.2082 15.4715 14.348ZM19.7607 14.676C19.3652 14.8989 19.5486 15.766 20.0083 15.8459C20.3033 15.8972 20.3899 15.7765 20.3899 15.3129C20.3899 14.6464 20.1838 14.4376 19.7607 14.676ZM3.59822 16.2545C3.59822 16.9209 3.8043 17.1297 4.22736 16.8913C4.62294 16.6684 4.43954 15.8013 3.97984 15.7214C3.68479 15.6701 3.59822 15.7908 3.59822 16.2545ZM5.49284 15.8127C5.28611 16.001 5.30377 16.8316 5.51683 16.9517C5.85092 17.14 6.25261 16.729 6.17955 16.2737C6.1041 15.8021 5.75845 15.5703 5.49284 15.8127ZM7.23285 15.8169C6.97029 16.0562 7.08085 16.8324 7.39313 16.9416C7.81336 17.0885 7.95969 16.9092 7.95969 16.2475C7.95969 15.7178 7.58504 15.4958 7.23285 15.8169ZM19.6083 17.5448C19.4101 18.0156 19.5981 18.5671 19.9568 18.5671C20.1694 18.5671 20.2809 18.3677 20.2809 17.9872C20.2809 17.3587 19.8155 17.0527 19.6083 17.5448ZM3.74171 18.4031C3.66277 18.4751 3.59822 18.794 3.59822 19.1119C3.59822 19.5551 3.68719 19.6743 3.97984 19.6234C4.45743 19.5405 4.5935 18.8083 4.18832 18.5017C4.02171 18.3757 3.82065 18.3311 3.74171 18.4031ZM5.34281 19.0787C5.34281 19.5533 5.42807 19.6751 5.72443 19.6238C5.9545 19.5841 6.13354 19.3415 6.17497 19.0127C6.23058 18.5741 6.156 18.4677 5.79335 18.4677C5.43571 18.4677 5.34281 18.5938 5.34281 19.0787ZM7.12752 19.0127C7.16895 19.3415 7.34799 19.5841 7.57806 19.6238C7.87442 19.6751 7.95969 19.5533 7.95969 19.0787C7.95969 18.5938 7.86679 18.4677 7.50915 18.4677C7.14649 18.4677 7.07191 18.5741 7.12752 19.0127ZM19.5965 20.3565C19.4188 20.7784 19.6617 21.2512 20.056 21.2512C20.2815 21.2512 20.3899 21.0577 20.3899 20.6547C20.3899 20.0149 19.829 19.804 19.5965 20.3565ZM6.40046 22.5932C6.37429 23.1928 6.35009 23.2318 6.27703 22.792C6.21532 22.4204 6.05569 22.2453 5.77895 22.2453C5.50222 22.2453 5.34259 22.4204 5.28087 22.792C5.20782 23.2318 5.18361 23.1928 5.15744 22.5932C5.12669 21.8908 5.16246 21.8476 5.77895 21.8476C6.39545 21.8476 6.43121 21.8908 6.40046 22.5932Z" fill="white"/>
</svg>
