<svg width="12" height="12" viewBox="0 0 12 12" fill="none" xmlns="http://www.w3.org/2000/svg">
<path fill-rule="evenodd" clip-rule="evenodd" d="M4.51546 2.97093C4.64864 3.00711 4.7392 3.12256 4.79525 3.24866L5.30647 4.39876C5.37304 4.54853 5.34457 4.73716 5.25791 4.87627C5.11702 5.10245 4.95712 5.40422 5.06982 5.64568C5.35239 6.25103 5.74362 6.62084 6.33393 6.90746C6.57511 7.02456 6.87487 6.85265 7.1011 6.70879C7.23138 6.62594 7.41512 6.59433 7.55567 6.65824L8.75462 7.20348C8.87841 7.25978 8.9916 7.34938 9.02783 7.48044C9.21818 8.16902 8.38681 9.05431 7.7445 9.05431C7.11416 9.05431 6.48998 8.93017 5.90762 8.68898C5.32526 8.44779 4.79611 8.09427 4.35039 7.64861C3.90467 7.20295 3.5511 6.67387 3.30988 6.09158C3.06866 5.50929 2.9445 4.8852 2.9445 4.25494C2.9445 3.61368 3.82724 2.78396 4.51546 2.97093ZM4.75197 4.58622L4.28197 3.52887C4.18361 3.53773 4.02973 3.59106 3.85234 3.74387C3.61358 3.94954 3.52736 4.17019 3.52736 4.25494C3.52736 4.80867 3.63644 5.35698 3.84837 5.86856C4.0603 6.38014 4.37093 6.84497 4.76253 7.23652C5.15413 7.62807 5.61903 7.93866 6.13067 8.15056C6.64232 8.36247 7.1907 8.47153 7.7445 8.47153C7.82946 8.47153 8.05067 8.38495 8.25646 8.14565C8.41006 7.96702 8.46269 7.81264 8.47086 7.71467L7.38313 7.22C7.2682 7.29227 7.10047 7.39186 6.91438 7.4565C6.71187 7.52684 6.39849 7.58666 6.07932 7.4317C5.3799 7.0921 4.88589 6.62962 4.54166 5.89215C4.39704 5.58233 4.44857 5.27791 4.51442 5.07521C4.57766 4.88054 4.67767 4.70659 4.75197 4.58622Z" fill="black"/>
<path fill-rule="evenodd" clip-rule="evenodd" d="M6 11.9984C9.31371 11.9984 12 9.31249 12 5.99921C12 2.68594 9.31371 0 6 0C2.68629 0 0 2.68594 0 5.99921C0 6.99896 0.244578 7.94159 0.677172 8.77055C0.71816 8.84909 0.729648 8.94 0.706715 9.02558L0.0253593 11.5681C-0.0429512 11.823 0.190334 12.0563 0.445272 11.988L2.9972 11.3043C3.08228 11.2815 3.17266 11.2927 3.25092 11.3331C4.0745 11.7583 5.0092 11.9984 6 11.9984ZM11.3143 5.99921C11.3143 8.93383 8.935 11.3128 6 11.3128C5.12122 11.3128 4.29414 11.1001 3.56554 10.7239C3.34299 10.609 3.07761 10.5729 2.81972 10.642L0.841407 11.172L1.36906 9.20303C1.43858 8.94364 1.40165 8.67671 1.2851 8.45338C0.902392 7.72001 0.685714 6.88592 0.685714 5.99921C0.685714 3.0646 3.065 0.685624 6 0.685624C8.935 0.685624 11.3143 3.0646 11.3143 5.99921Z" fill="black"/>
</svg>
