<svg width="24" height="24" viewBox="0 0 24 24" fill="none" xmlns="http://www.w3.org/2000/svg">
<path d="M0.5 24C0.6326 24 0.759775 23.9604 0.85355 23.8901C0.947325 23.8198 1 23.7243 1 23.6249V19.4817C1 18.6617 1.583 17.8891 2.521 17.4675L6.435 15.7053L8.583 17.7195C8.62703 17.7607 8.6821 17.7944 8.74463 17.8186C8.80715 17.8428 8.87578 17.8568 8.946 17.8598L8.974 17.8606C9.106 17.8606 9.234 17.8215 9.328 17.751L10.501 16.8711V23.6249C10.501 23.7243 10.5537 23.8198 10.6475 23.8901C10.7412 23.9604 10.8684 24 11.001 24C11.1336 24 11.2608 23.9604 11.3546 23.8901C11.4483 23.8198 11.501 23.7243 11.501 23.6249V16.1262L11.5 16.1217L12 15.7458L12.501 16.1217L12.5 16.1262V23.6249C12.5 23.7243 12.5527 23.8198 12.6465 23.8901C12.7402 23.9604 12.8674 24 13 24C13.1326 24 13.2598 23.9604 13.3535 23.8901C13.4473 23.8198 13.5 23.7243 13.5 23.6249V16.8711L14.673 17.751C14.7195 17.7858 14.7747 17.8134 14.8355 17.8322C14.8962 17.851 14.9613 17.8606 15.027 17.8606L15.055 17.8598C15.1252 17.8568 15.1938 17.8428 15.2564 17.8186C15.3189 17.7944 15.374 17.7607 15.418 17.7195L17.566 15.7053L21.481 17.4675C21.9433 17.6773 22.3257 17.9728 22.5917 18.3255C22.8577 18.6783 22.9982 19.0764 23 19.4817V23.6249C23 23.7243 23.0527 23.8198 23.1465 23.8901C23.2402 23.9604 23.3675 24 23.5 24C23.6325 24 23.7598 23.9604 23.8535 23.8901C23.9473 23.8198 24 23.7243 24 23.6249V19.4817C24 18.3992 23.231 17.3812 21.994 16.8246L17.768 14.9229L16.184 13.6026C16.118 13.5497 16.0327 13.5127 15.9388 13.4961C15.8448 13.4796 15.7464 13.4842 15.656 13.5095V12.1795C16.4385 11.7498 17.075 11.1878 17.514 10.5391C17.9531 9.89047 18.1823 9.17336 18.183 8.44588V6.67847L18.962 3.42196C19.0348 3.12575 19.0278 2.8216 18.9415 2.52745C18.8551 2.23331 18.691 1.95513 18.459 1.70931C18.2289 1.46242 17.9353 1.25259 17.5954 1.09218C17.2555 0.931775 16.8763 0.824045 16.48 0.77534L10.522 0.0304182C10.0955 -0.0229387 9.65858 -0.00595045 9.24168 0.0802014C8.8248 0.166353 8.43792 0.3196 8.108 0.529283C7.54513 0.88774 7.181 1.39098 7.087 1.94037C6.497 2.02289 5.963 2.25919 5.578 2.61627C5.33892 2.83726 5.169 3.09567 5.08072 3.37249C4.99247 3.64928 4.98812 3.93741 5.068 4.21564L5.804 6.79999C5.805 6.80524 5.81 6.8075 5.811 6.81125V8.44512C5.811 9.97623 6.809 11.3333 8.338 12.1787V13.508C8.2481 13.4839 8.15077 13.4799 8.0579 13.4966C7.96505 13.5132 7.88065 13.5498 7.815 13.6018L6.232 14.9214L2.006 16.8238C1.39565 17.1004 0.8905 17.4902 0.539175 17.9557C0.187825 18.4212 0.00215 18.9468 0 19.4817V23.6249C0 23.7243 0.052675 23.8198 0.14645 23.8901C0.240225 23.9604 0.3674 24 0.5 24ZM16.792 15.2297L14.985 16.9243L12.854 15.3257L15.691 14.3122L16.792 15.2297ZM6.355 3.08888C6.49945 2.9543 6.6824 2.84579 6.89028 2.77139C7.09815 2.69699 7.32567 2.65858 7.556 2.65903C7.832 2.65903 8.056 2.44073 8.056 2.23369C8.05547 2.03887 8.10623 1.8459 8.20533 1.66583C8.30443 1.48576 8.44995 1.32214 8.63352 1.18436C8.8171 1.04657 9.03512 0.937327 9.27512 0.862889C9.5151 0.788453 9.7723 0.750288 10.032 0.750584C10.1412 0.750648 10.2502 0.757422 10.358 0.770841L16.316 1.51576C16.856 1.58328 17.326 1.80533 17.641 2.14066C17.956 2.47674 18.076 2.88409 17.977 3.28843L17.354 5.89228L16.288 4.98607V4.17964C16.288 4.08014 16.2353 3.98474 16.1416 3.91441C16.0478 3.84406 15.9206 3.80455 15.788 3.80455H8.206C8.0734 3.80455 7.94623 3.84406 7.85245 3.91441C7.75868 3.98474 7.706 4.08014 7.706 4.17964V4.98382L6.576 5.92529L6.045 4.05961C5.948 3.71603 6.061 3.36195 6.355 3.08888ZM6.811 8.44512V6.85101L8.578 5.37841C8.66055 5.30966 8.70618 5.22037 8.706 5.12786V4.55472H15.288V5.12786C15.288 5.21938 15.332 5.3079 15.413 5.37616L17.183 6.88026V8.44512C17.1826 9.0821 16.9738 9.70926 16.5749 10.2716C16.1759 10.8339 15.5991 11.3141 14.895 11.6701L14.893 11.6709C14.6477 11.7921 14.3891 11.8975 14.12 11.9859C13.997 12.0272 13.869 12.0595 13.742 12.0932C13.4395 12.1743 13.1279 12.2348 12.811 12.274C12.719 12.2853 12.625 12.2883 12.532 12.295C12.1756 12.322 11.8164 12.322 11.46 12.295C11.368 12.2875 11.274 12.2853 11.183 12.274C10.8667 12.2347 10.5558 12.1742 10.254 12.0932C10.126 12.0595 9.997 12.0265 9.872 11.9852C9.60435 11.8971 9.3471 11.7922 9.103 11.6716L9.096 11.6686C8.39272 11.3125 7.81665 10.8324 7.41825 10.2704C7.01988 9.70838 6.81137 9.08165 6.811 8.44512ZM9.855 12.7931C9.914 12.8089 9.971 12.8269 10.03 12.8411C10.6636 13.0022 11.328 13.0848 11.997 13.0857C12.6657 13.0849 13.3297 13.0023 13.963 12.8411C14.023 12.8261 14.081 12.8089 14.141 12.7924C14.278 12.7541 14.414 12.7136 14.547 12.6686C14.583 12.6566 14.621 12.6476 14.657 12.6348V13.8501L12 14.7998L9.338 13.8486V12.6356C9.373 12.6483 9.41 12.6566 9.445 12.6686C9.579 12.7136 9.716 12.7549 9.855 12.7931ZM8.309 14.3122L11.146 15.3257L9.015 16.9243L7.208 15.2297L8.309 14.3122Z" fill="white"/>
<path d="M5.49895 23.9999C5.63155 23.9999 5.75875 23.9603 5.8525 23.89C5.94628 23.8196 5.99895 23.7242 5.99895 23.6248V21.8679C5.99998 21.0942 5.61425 20.3484 4.91795 19.7779L4.16095 19.156C4.11663 19.1196 4.0632 19.09 4.00368 19.0692C3.94415 19.0481 3.87973 19.0363 3.81408 19.0341C3.74843 19.0318 3.68283 19.0393 3.62105 19.0562C3.55925 19.0729 3.50248 19.0986 3.45395 19.132C3.40543 19.1652 3.3661 19.2053 3.33825 19.2499C3.31038 19.2946 3.2945 19.343 3.29153 19.3921C3.28855 19.4414 3.29855 19.4906 3.32093 19.5369C3.3433 19.5832 3.37763 19.626 3.42195 19.6624L4.17895 20.2842C4.70703 20.7163 4.99965 21.2816 4.99895 21.8679V23.6248C4.99895 23.7242 5.05163 23.8196 5.1454 23.89C5.23918 23.9603 5.36635 23.9999 5.49895 23.9999ZM19.837 19.156L19.08 19.7786C18.3837 20.3489 17.998 21.0944 17.999 21.8679V23.6248C17.999 23.7242 18.0516 23.8196 18.1454 23.89C18.2392 23.9603 18.3664 23.9999 18.499 23.9999C18.6316 23.9999 18.7588 23.9603 18.8525 23.89C18.9463 23.8196 18.999 23.7242 18.999 23.6248V21.8679C18.999 21.2805 19.29 20.7178 19.818 20.2842L20.575 19.6624C20.6193 19.626 20.6536 19.5834 20.676 19.5371C20.6984 19.4908 20.7085 19.4416 20.7055 19.3925C20.7026 19.3432 20.6868 19.295 20.659 19.2503C20.6312 19.2057 20.5919 19.1655 20.5435 19.1324C20.495 19.099 20.4383 19.0733 20.3766 19.0564C20.3148 19.0397 20.2493 19.0322 20.1837 19.0343C20.1181 19.0365 20.0537 19.0483 19.9942 19.0693C19.9347 19.0902 19.8813 19.1196 19.837 19.156Z" fill="white"/>
</svg>


