<svg width="128" height="128" viewBox="0 0 128 128" fill="none" xmlns="http://www.w3.org/2000/svg">
<path d="M18 127.984C18.5304 127.984 19.0391 127.773 19.4142 127.398C19.7893 127.023 20 126.514 20 125.984V103.892C20 99.5199 22.332 95.3999 26.084 93.1519L41.74 83.7559L50.332 94.4959C50.5081 94.7153 50.7284 94.8953 50.9785 95.0242C51.2286 95.153 51.5031 95.2279 51.784 95.2439L51.896 95.2479C52.424 95.2479 52.936 95.0399 53.312 94.6639L58.004 89.9719V125.984C58.004 126.514 58.2147 127.023 58.5898 127.398C58.9649 127.773 59.4736 127.984 60.004 127.984C60.5344 127.984 61.0431 127.773 61.4182 127.398C61.7933 127.023 62.004 126.514 62.004 125.984V85.9999L62 85.9759L64 83.9719L66.004 85.9759L66 85.9999V125.984C66 126.514 66.2107 127.023 66.5858 127.398C66.9609 127.773 67.4696 127.984 68 127.984C68.5304 127.984 69.0391 127.773 69.4142 127.398C69.7893 127.023 70 126.514 70 125.984V89.9719L74.692 94.6639C74.8781 94.8495 75.0989 94.9966 75.3419 95.0968C75.5848 95.197 75.8452 95.2483 76.108 95.2479L76.22 95.2439C76.5009 95.2279 76.7754 95.153 77.0255 95.0242C77.2756 94.8953 77.4959 94.7153 77.672 94.4959L86.264 83.7559L101.924 93.1519C103.773 94.2708 105.303 95.8463 106.367 97.7272C107.431 99.608 107.993 101.731 108 103.892V125.984C108 126.514 108.211 127.023 108.586 127.398C108.961 127.773 109.47 127.984 110 127.984C110.53 127.984 111.039 127.773 111.414 127.398C111.789 127.023 112 126.514 112 125.984V103.892C112 98.1199 108.924 92.6919 103.976 89.7239L87.072 79.5839L80.736 72.5439C80.4722 72.262 80.1309 72.0645 79.7551 71.9762C79.3792 71.888 78.9857 71.9129 78.624 72.0479V64.9559C81.7539 62.6645 84.3001 59.6681 86.0562 56.2094C87.8123 52.7506 88.729 48.9269 88.732 45.0479V35.6239L91.848 18.2599C92.1393 16.6805 92.1113 15.0587 91.7658 13.4903C91.4202 11.9219 90.7641 10.4386 89.836 9.12786C88.9157 7.81143 87.7412 6.69258 86.3817 5.83728C85.0221 4.98199 83.5051 4.40756 81.92 4.14786L58.088 0.175865C56.3819 -0.108639 54.6343 -0.0180563 52.9667 0.441314C51.2992 0.900684 49.7517 1.71781 48.432 2.83586C46.1805 4.74719 44.724 7.43051 44.348 10.3599C41.988 10.7999 39.852 12.0599 38.312 13.9639C37.3557 15.1422 36.676 16.5201 36.3229 17.9961C35.9699 19.472 35.9525 21.0083 36.272 22.4919L39.216 36.2719C39.22 36.2999 39.24 36.3119 39.244 36.3319V45.0439C39.244 53.2079 43.236 60.4439 49.352 64.9519V72.0399C48.9924 71.9112 48.6031 71.89 48.2316 71.9788C47.8602 72.0676 47.5226 72.2625 47.26 72.5399L40.928 79.5759L24.024 89.7199C21.5826 91.1948 19.562 93.2733 18.1567 95.7554C16.7513 98.2375 16.0086 101.04 16 103.892V125.984C16 126.514 16.2107 127.023 16.5858 127.398C16.9609 127.773 17.4696 127.984 18 127.984ZM83.168 81.2199L75.94 90.2559L67.416 81.7319L78.764 76.3279L83.168 81.2199ZM41.42 16.4839C41.9978 15.7663 42.7296 15.1877 43.5611 14.791C44.3926 14.3943 45.3027 14.1895 46.224 14.1919C47.328 14.1919 48.224 13.0279 48.224 11.9239C48.2219 10.8851 48.4249 9.85617 48.8213 8.89604C49.2177 7.9359 49.7998 7.06347 50.5341 6.32878C51.2684 5.59409 52.1405 5.01159 53.1005 4.61468C54.0604 4.21778 55.0892 4.01428 56.128 4.01586C56.5649 4.0162 57.001 4.05232 57.432 4.12387L81.264 8.09586C83.424 8.45586 85.304 9.63987 86.564 11.4279C87.824 13.2199 88.304 15.3919 87.908 17.5479L85.416 31.4319L81.152 26.5999V22.2999C81.152 21.7694 80.9413 21.2607 80.5662 20.8857C80.1911 20.5106 79.6824 20.2999 79.152 20.2999H48.824C48.2936 20.2999 47.7849 20.5106 47.4098 20.8857C47.0347 21.2607 46.824 21.7694 46.824 22.2999V26.5879L42.304 31.6079L40.18 21.6599C39.792 19.8279 40.244 17.9399 41.42 16.4839ZM43.244 45.0439V36.5439L50.312 28.6919C50.6422 28.3253 50.8247 27.8492 50.824 27.3559V24.2999H77.152V27.3559C77.152 27.8439 77.328 28.3159 77.652 28.6799L84.732 36.6999V45.0439C84.7305 48.4403 83.8953 51.7844 82.2995 54.7827C80.7038 57.7809 78.3965 60.3416 75.58 62.2399L75.572 62.2439C74.5907 62.8904 73.5564 63.4524 72.48 63.9239C71.988 64.1439 71.476 64.3159 70.968 64.4959C69.7581 64.9283 68.5117 65.2509 67.244 65.4599C66.876 65.5199 66.5 65.5359 66.128 65.5719C64.7023 65.7159 63.2657 65.7159 61.84 65.5719C61.472 65.5319 61.096 65.5199 60.732 65.4599C59.467 65.2505 58.2233 64.9279 57.016 64.4959C56.504 64.3159 55.988 64.1399 55.488 63.9199C54.4174 63.4502 53.3884 62.8909 52.412 62.2479L52.384 62.2319C49.5709 60.333 47.2666 57.773 45.673 54.7764C44.0795 51.7797 43.2455 48.4379 43.244 45.0439ZM55.42 68.2279C55.656 68.3119 55.884 68.4079 56.12 68.4839C58.6545 69.3429 61.3119 69.7833 63.988 69.7879C66.6628 69.7836 69.319 69.3432 71.852 68.4839C72.092 68.4039 72.324 68.3119 72.564 68.2239C73.112 68.0199 73.656 67.8039 74.188 67.5639C74.332 67.4999 74.484 67.4519 74.628 67.3839V73.8639L64 78.9279L53.352 73.8559V67.3879C53.492 67.4559 53.64 67.4999 53.78 67.5639C54.316 67.8039 54.864 68.0239 55.42 68.2279ZM49.236 76.3279L60.584 81.7319L52.06 90.2559L44.832 81.2199L49.236 76.3279Z" fill="black"/>
<path d="M37.9997 127.984C38.5301 127.984 39.0389 127.773 39.4139 127.398C39.789 127.023 39.9997 126.514 39.9997 125.984V116.616C40.0038 112.491 38.4609 108.514 35.6757 105.472L32.6477 102.156C32.4704 101.962 32.2567 101.804 32.0186 101.693C31.7805 101.581 31.5228 101.518 31.2602 101.506C30.9976 101.494 30.7352 101.534 30.4881 101.624C30.2409 101.713 30.0138 101.85 29.8197 102.028C29.6256 102.205 29.4683 102.419 29.3569 102.657C29.2454 102.895 29.1819 103.153 29.17 103.415C29.1581 103.678 29.1981 103.94 29.2876 104.187C29.3771 104.434 29.5144 104.662 29.6917 104.856L32.7197 108.172C34.832 110.476 36.0025 113.49 35.9997 116.616V125.984C35.9997 126.514 36.2104 127.023 36.5855 127.398C36.9606 127.773 37.4693 127.984 37.9997 127.984ZM95.3517 102.156L92.3237 105.476C89.5388 108.517 87.9958 112.492 87.9997 116.616V125.984C87.9997 126.514 88.2104 127.023 88.5855 127.398C88.9606 127.773 89.4693 127.984 89.9997 127.984C90.5301 127.984 91.0389 127.773 91.4139 127.398C91.789 127.023 91.9997 126.514 91.9997 125.984V116.616C91.9997 113.484 93.1637 110.484 95.2757 108.172L98.3037 104.856C98.481 104.662 98.6184 104.435 98.708 104.188C98.7976 103.941 98.8377 103.679 98.826 103.417C98.8143 103.154 98.751 102.897 98.6398 102.659C98.5286 102.421 98.3716 102.207 98.1777 102.03C97.9839 101.852 97.757 101.715 97.5101 101.625C97.2632 101.536 97.001 101.496 96.7386 101.507C96.4762 101.519 96.2187 101.582 95.9807 101.694C95.7427 101.805 95.529 101.962 95.3517 102.156V102.156Z" fill="black"/>
</svg>
