<svg width="20" height="20" viewBox="0 0 20 20" fill="none" xmlns="http://www.w3.org/2000/svg">
<path d="M15.6183 4.85106C15.4551 5.40606 15.5958 5.95742 15.9186 6.33327L16.011 6.78951C15.9468 6.88549 15.8964 6.98663 15.8587 7.08775C15.8092 7.22039 15.7791 7.357 15.7653 7.49252L14.6279 1.87776L14.3886 0.696057L14.3983 0.685487L14.4099 0.671771C14.4066 0.67568 14.3993 0.683252 14.3878 0.692231L14.3783 0.645229L14.3734 0.620956L14.3733 0.62074L14.3371 0.442009L14.2493 0.536903L14.2318 0.555839L14.1255 0.670795L14.125 0.671256L14.0776 0.722524C14.0548 0.712083 14.0383 0.700981 14.0267 0.691178C14.0265 0.691061 14.0264 0.690945 14.0263 0.690828C14.0125 0.679126 14.0056 0.66932 14.003 0.664774M15.6183 4.85106L14.0111 0.694328L14.011 0.693902C14.0078 0.67805 14.0047 0.668917 14.003 0.664774M15.6183 4.85106L14.7462 0.545435C14.6389 0.0143755 14.1439 -0.177653 13.8356 0.189359L15.6183 4.85106ZM14.003 0.664774C14.0022 0.662847 14.0017 0.662001 14.0016 0.662059C14.0016 0.662116 14.002 0.66308 14.003 0.664774ZM15.9762 8.5336L17.1958 14.5548L17.3855 15.4911L17.7595 15.4219M15.9762 8.5336L9.34491 13.937L9.40401 13.9498L16.3027 15.4368L17.026 15.5927C17.027 15.6133 17.0254 15.6323 17.0222 15.649C17.0176 15.6723 17.011 15.6844 17.0101 15.686C17.01 15.6863 17.01 15.6863 17.0101 15.6861C17.0106 15.6853 17.03 15.6565 17.0829 15.6306C17.096 15.6241 17.1099 15.6186 17.1244 15.6139L17.2812 15.6477L17.2835 15.6482L17.4234 15.6784L17.3868 15.4974L17.7595 15.4219M15.9762 8.5336C16.0489 8.6621 16.143 8.78469 16.2625 8.8903C16.3254 8.94593 16.3936 8.99486 16.4661 9.03618L15.9762 8.5336ZM17.7595 15.4219L16.851 10.9365L9.64156 17.8344L9.14541 15.3837L9.03809 15.3606L9.09101 15.115L9.00597 14.695L9.19611 14.6274L9.26562 14.6424L9.74105 14.5461L9.78312 14.7539L17.1325 16.338C17.5331 16.4257 17.8546 15.9356 17.7595 15.4219ZM7.04893 14.6589L8.15408 14.2668L8.27088 14.8438L8.90647 17.9832L8.90648 17.9832C9.04755 18.6798 8.69416 19.1458 8.44152 19.2353C8.36837 19.2612 8.28072 19.259 8.16777 19.1726C8.0453 19.0791 7.9053 18.886 7.84397 18.5836C7.84397 18.5836 7.84396 18.5835 7.84395 18.5835L7.20788 15.4435L7.04893 14.6589ZM1.34434 14.9503C1.34432 14.9503 1.34402 14.9498 1.34351 14.9488L1.34434 14.9503ZM2.02788 14.5283L1.30727 14.784L0.754264 12.0539L0.75424 12.0538C0.749861 12.0322 0.748951 12.0099 0.751152 11.9889C0.751631 11.9843 0.752234 11.98 0.752923 11.976L1.66156 11.6535L1.91463 11.5637L2.44263 14.1704L2.48245 14.3669L2.02788 14.5283ZM2.99102 14.9976C2.99101 14.9976 2.99077 14.9973 2.99036 14.9964L2.99102 14.9976ZM6.27459 15.0461C6.27456 15.0461 6.27426 15.0456 6.27376 15.0446L6.27459 15.0461Z" stroke="white" stroke-width="1.5"/>
</svg>
