<svg width="40" height="40" viewBox="0 0 40 40" fill="none" xmlns="http://www.w3.org/2000/svg">
<path d="M24.6317 13.8947L17.8527 20.6314L15.3683 18.1473C14.3577 17.1367 12.7156 17.1367 11.7052 18.1473C10.6946 19.1579 10.6946 20.8 11.7052 21.8104L16.0421 26.1472C16.5472 26.6524 17.179 26.905 17.8524 26.905C18.5262 26.905 19.2 26.6524 19.6628 26.1472L28.2523 17.5578C29.2629 16.5472 29.2629 14.905 28.2523 13.8947C27.2842 12.8841 25.6421 12.8841 24.6318 13.8947L24.6317 13.8947Z" fill="#7FC008"/>
<path d="M20 0C8.96842 0 0 8.96842 0 20C0 31.0316 8.96842 40 20 40C31.0316 40 40 31.0316 40 20C40 8.96842 31.0316 0 20 0ZM20 34.821C11.8316 34.821 5.17895 28.1684 5.17895 20C5.17895 11.8316 11.8316 5.17895 20 5.17895C28.1684 5.17895 34.821 11.8316 34.821 20C34.821 28.1684 28.1684 34.821 20 34.821Z" fill="#7FC008"/>
</svg>