<svg width="17" height="17" viewBox="0 0 17 17" fill="none" xmlns="http://www.w3.org/2000/svg">
<path d="M12.8588 9.65777L7.37675 14.4538C6.73175 15.0198 5.71875 14.5598 5.71875 13.7008L5.71875 4.10877C5.71859 3.91653 5.77384 3.72831 5.87789 3.56666C5.98194 3.40501 6.13039 3.27678 6.30544 3.19732C6.4805 3.11787 6.67475 3.09056 6.86493 3.11866C7.05511 3.14676 7.23316 3.22908 7.37775 3.35577L12.8578 8.15177C12.9652 8.24564 13.0512 8.36139 13.1102 8.49126C13.1692 8.62114 13.1997 8.76213 13.1997 8.90477C13.1997 9.04742 13.1692 9.18841 13.1102 9.31828C13.0512 9.44816 12.9652 9.56391 12.8578 9.65777H12.8588Z" fill="#0174FF"/>
</svg>
