<svg width="79" height="81" viewBox="0 0 79 81" fill="none" xmlns="http://www.w3.org/2000/svg">
<g filter="url(#filter0_dd_57_602)">
<path d="M23.6923 20C21.6681 20 20 21.6681 20 23.6923V50.7692C20 52.7935 21.6681 54.4615 23.6923 54.4615H26.1538V39.6923C26.1538 37.6681 27.8219 36 29.8462 36H42.1538C44.1781 36 45.8462 37.6681 45.8462 39.6923V54.4615H48.3077C50.3319 54.4615 52 52.7935 52 50.7692V29.8462C51.9999 29.5198 51.8702 29.2067 51.6394 28.976L43.024 20.3606C42.7933 20.1298 42.4802 20.0001 42.1538 20H39.6923V27.0937C39.6923 28.5969 38.443 29.8462 36.9399 29.8462H27.6755C26.1723 29.8462 24.9231 28.5969 24.9231 27.0937V20H23.6923ZM27.3846 20V27.0937C27.3846 27.2758 27.4935 27.3846 27.6755 27.3846H36.9399C37.1219 27.3846 37.2308 27.2758 37.2308 27.0937V20H27.3846ZM29.8462 38.4615C29.143 38.4615 28.6154 38.9892 28.6154 39.6923V54.4615H43.3846V39.6923C43.3846 38.9892 42.857 38.4615 42.1538 38.4615H29.8462Z" fill="black"/>
<path d="M23.6923 20C21.6681 20 20 21.6681 20 23.6923V50.7692C20 52.7935 21.6681 54.4615 23.6923 54.4615H26.1538V39.6923C26.1538 37.6681 27.8219 36 29.8462 36H42.1538C44.1781 36 45.8462 37.6681 45.8462 39.6923V54.4615H48.3077C50.3319 54.4615 52 52.7935 52 50.7692V29.8462C51.9999 29.5198 51.8702 29.2067 51.6394 28.976L43.024 20.3606C42.7933 20.1298 42.4802 20.0001 42.1538 20H39.6923V27.0937C39.6923 28.5969 38.443 29.8462 36.9399 29.8462H27.6755C26.1723 29.8462 24.9231 28.5969 24.9231 27.0937V20H23.6923ZM27.3846 20V27.0937C27.3846 27.2758 27.4935 27.3846 27.6755 27.3846H36.9399C37.1219 27.3846 37.2308 27.2758 37.2308 27.0937V20H27.3846ZM29.8462 38.4615C29.143 38.4615 28.6154 38.9892 28.6154 39.6923V54.4615H43.3846V39.6923C43.3846 38.9892 42.857 38.4615 42.1538 38.4615H29.8462Z" fill="url(#paint0_linear_57_602)" style="mix-blend-mode:soft-light"/>
<path d="M46.5 53.8077V39.6923C46.5 37.3069 44.5392 35.3462 42.1538 35.3462H29.8462C27.4608 35.3462 25.5 37.3069 25.5 39.6923V53.8077H23.6923C22.0292 53.8077 20.6538 52.4324 20.6538 50.7692V23.6923C20.6538 22.0292 22.0292 20.6538 23.6923 20.6538H24.2692V27.0937C24.2692 28.958 25.8112 30.5 27.6755 30.5H36.9399C38.8041 30.5 40.3462 28.958 40.3462 27.0937V20.6538H42.1537C42.1538 20.6538 42.1538 20.6538 42.1538 20.6538C42.3068 20.6539 42.4535 20.7147 42.5617 20.8229L42.5617 20.8229L51.1771 29.4383L51.1771 29.4383C51.2853 29.5465 51.3461 29.6932 51.3462 29.8462C51.3462 29.8462 51.3462 29.8462 51.3462 29.8463V50.7692C51.3462 52.4324 49.9708 53.8077 48.3077 53.8077H46.5ZM36.5769 26.7308H28.0385V20.6538H36.5769V26.7308ZM29.2692 39.6923C29.2692 39.3503 29.5041 39.1154 29.8462 39.1154H42.1538C42.4959 39.1154 42.7308 39.3503 42.7308 39.6923V53.8077H29.2692V39.6923Z" stroke="url(#paint1_linear_57_602)" stroke-opacity="0.8" stroke-width="1.30769" style="mix-blend-mode:soft-light"/>
</g>
<defs>
<filter id="filter0_dd_57_602" x="0.384616" y="0.384616" width="77.7692" height="80.2308" filterUnits="userSpaceOnUse" color-interpolation-filters="sRGB">
<feFlood flood-opacity="0" result="BackgroundImageFix"/>
<feColorMatrix in="SourceAlpha" type="matrix" values="0 0 0 0 0 0 0 0 0 0 0 0 0 0 0 0 0 0 127 0" result="hardAlpha"/>
<feOffset dx="6.53846" dy="6.53846"/>
<feGaussianBlur stdDeviation="9.80769"/>
<feColorMatrix type="matrix" values="0 0 0 0 0.214583 0 0 0 0 0.300417 0 0 0 0 0.429167 0 0 0 0.5 0"/>
<feBlend mode="normal" in2="BackgroundImageFix" result="effect1_dropShadow_57_602"/>
<feColorMatrix in="SourceAlpha" type="matrix" values="0 0 0 0 0 0 0 0 0 0 0 0 0 0 0 0 0 0 127 0" result="hardAlpha"/>
<feOffset dx="-6.53846" dy="-6.53846"/>
<feGaussianBlur stdDeviation="6.53846"/>
<feColorMatrix type="matrix" values="0 0 0 0 1 0 0 0 0 1 0 0 0 0 1 0 0 0 1 0"/>
<feBlend mode="normal" in2="effect1_dropShadow_57_602" result="effect2_dropShadow_57_602"/>
<feBlend mode="normal" in="SourceGraphic" in2="effect2_dropShadow_57_602" result="shape"/>
</filter>
<linearGradient id="paint0_linear_57_602" x1="12.6523" y1="15.1441" x2="55.9223" y2="48.6973" gradientUnits="userSpaceOnUse">
<stop stop-color="white"/>
<stop offset="1" stop-opacity="0"/>
</linearGradient>
<linearGradient id="paint1_linear_57_602" x1="20.5998" y1="20.6266" x2="30.7719" y2="30.3643" gradientUnits="userSpaceOnUse">
<stop stop-color="white"/>
<stop offset="1" stop-color="white" stop-opacity="0"/>
</linearGradient>
</defs>
</svg>
