<svg width="49" height="33" viewBox="0 0 49 33" fill="none" xmlns="http://www.w3.org/2000/svg">
<rect y="0.00195312" width="47.9881" height="9.04124" rx="2.78192" fill="black"/>
<path d="M45.1307 0.00195312H35.7631V4.89622C35.7631 6.55536 34.4135 7.90505 32.7543 7.90505H15.375C13.7159 7.90505 12.3662 6.55546 12.3662 4.89622V0.00195312H3.00883C1.35397 0.00195312 0 1.34577 0 3.01078V29.8284C0 31.4833 1.35397 32.8373 3.00883 32.8373H45.1309C46.7956 32.8373 48.1398 31.4833 48.1398 29.8284L48.1394 3.01078C48.1394 1.34577 46.7956 0.00195312 45.1306 0.00195312H45.1307ZM12.3558 10.3018C14.562 10.3018 16.3675 12.097 16.3675 14.3135C16.3675 16.5197 14.562 18.3252 12.3558 18.3252C10.1393 18.3252 8.34405 16.5201 8.34405 14.3135C8.34405 12.097 10.1393 10.3018 12.3558 10.3018V10.3018ZM19.687 24.4225C19.687 25.5259 18.7943 26.4284 17.6811 26.4284H7.01998C5.90684 26.4284 5.01412 25.5259 5.01412 24.4225V21.3337C5.01412 19.6542 5.84862 18.1754 7.11748 17.2652C8.15137 19.0928 10.1099 20.3307 12.3555 20.3307C14.5985 20.3307 16.5553 19.0947 17.5902 17.2703C18.8551 18.1809 19.6871 19.6567 19.6871 21.3333L19.687 24.4225ZM42.124 25.384H24.415C23.861 25.384 23.412 24.9351 23.412 24.381C23.412 23.827 23.8609 23.378 24.415 23.378H42.124C42.678 23.378 43.1269 23.8269 43.1269 24.381C43.1269 24.935 42.6777 25.384 42.124 25.384ZM42.124 19.3668H24.415C23.861 19.3668 23.412 18.9179 23.412 18.3638C23.412 17.8098 23.8609 17.3608 24.415 17.3608H42.124C42.678 17.3608 43.1269 17.8097 43.1269 18.3638C43.1269 18.9175 42.6777 19.3668 42.124 19.3668ZM42.124 13.3492H24.415C23.861 13.3492 23.412 12.9003 23.412 12.3463C23.412 11.7922 23.8609 11.3433 24.415 11.3433H42.124C42.678 11.3433 43.1269 11.7922 43.1269 12.3463C43.1269 12.9003 42.6777 13.3492 42.124 13.3492Z" fill="black"/>
</svg>
