<svg width="40" height="45" viewBox="0 0 40 45" fill="none" xmlns="http://www.w3.org/2000/svg">
<path d="M33.913 0.302734H11.8686C8.82769 0.302734 6.35754 2.77045 6.35754 5.81384H3.60199C2.07872 5.81384 0.846436 7.04643 0.846436 8.56939V14.0805C0.846436 15.6038 2.07903 16.836 3.60199 16.836C2.07872 16.836 0.846436 18.0686 0.846436 19.5916V25.1027C0.846436 26.626 2.07903 27.8582 3.60199 27.8582C2.07872 27.8582 0.846436 29.0908 0.846436 30.6138V36.1249C0.846436 37.6482 2.07903 38.8804 3.60199 38.8804H6.35754C6.35754 41.9238 8.82801 44.3915 11.8686 44.3915H33.913C36.9592 44.3915 39.4241 41.9238 39.4241 38.8804V5.81384C39.4241 2.77045 36.9592 0.302734 33.913 0.302734ZM6.35754 36.1249H3.60199V30.6138H6.35754V36.1249ZM6.35754 25.1027H3.60199V19.5916H6.35754V25.1027ZM6.35754 14.0805H3.60199V8.56939H6.35754V14.0805ZM28.8649 27.5646C25.5819 30.8475 21.1148 32.6667 16.4759 32.6183C16.4704 32.6183 15.7277 32.4513 15.4694 32.1878L14.0054 30.7291C13.4725 30.191 13.2304 29.1628 13.4673 28.4472L13.5749 28.1351C13.8117 27.4191 14.6082 26.6657 15.3349 26.4667L18.0366 25.7292C18.7686 25.53 19.8127 25.7994 20.3456 26.3376L21.3251 27.3118C24.8716 26.3539 27.6543 23.5712 28.6174 20.0219L27.638 19.0452C27.105 18.5098 26.8359 17.4657 27.0352 16.7338L27.7727 14.0348C27.972 13.3056 28.7199 12.5115 29.441 12.2695L29.748 12.1671C30.4691 11.9275 31.4973 12.1699 32.0299 12.7053L33.4938 14.1665C33.7521 14.4276 33.9136 15.1918 33.9136 15.2161C33.9563 19.8418 32.1373 24.2952 28.865 27.5649L28.8649 27.5646Z" fill="black"/>
</svg>
