<svg width="15" height="13" viewBox="0 0 15 13" fill="none" xmlns="http://www.w3.org/2000/svg">
<path d="M14.2488 1.93713C14.2488 1.02916 13.5128 0.292969 12.6047 0.292969C12.0901 0.292969 11.6312 0.529816 11.3296 0.899811L11.3293 0.899494L5.40221 8.17749L2.8523 5.41606L2.85088 5.41733C2.55054 5.09198 2.12197 4.88711 1.64416 4.88711C0.736032 4.88711 0 5.62314 0 6.53111C0 6.96143 0.166711 7.352 0.43744 7.64506L0.436015 7.64632L4.27212 11.8005L4.27355 11.7992C4.57388 12.1244 5.00245 12.3294 5.48026 12.3294C5.99496 12.3294 6.45378 12.0926 6.75538 11.7226L6.75585 11.7229L13.8803 2.97476L13.8798 2.97444C14.1103 2.69137 14.2488 2.33039 14.2488 1.93713Z" fill="white"/>
</svg>
