<svg width="83" height="83" viewBox="0 0 83 83" fill="none" xmlns="http://www.w3.org/2000/svg">
<g filter="url(#filter0_dd_0_1)">
<rect x="10" y="2" width="63.0971" height="63.0971" rx="7" fill="white"/>
</g>
<path d="M55.4696 19.84C54.5085 18.89 53.245 18.3068 51.8986 18.1917C50.5522 18.0766 49.208 18.4369 48.0996 19.21C51.6624 20.6933 54.5728 23.4086 56.2996 26.86C56.9661 25.7655 57.2466 24.4793 57.0961 23.2067C56.9457 21.9342 56.373 20.7488 55.4696 19.84Z" fill="#0174FF"/>
<path d="M35.4192 19.4299C34.3155 18.5533 32.929 18.111 31.5215 18.1865C30.114 18.2621 28.7828 18.8502 27.7792 19.8399C26.7839 20.8418 26.1944 22.1765 26.1243 23.587C26.0541 24.9975 26.5082 26.3842 27.3992 27.4799C29.0038 23.9099 31.8553 21.0477 35.4192 19.4299Z" fill="#0174FF"/>
<path d="M42.0004 20C39.2363 20.0057 36.5357 20.8295 34.239 22.3676C31.9423 23.9057 30.1524 26.0893 29.0947 28.6431C28.0371 31.1968 27.759 34.0066 28.2957 36.7181C28.8324 39.4296 30.1597 41.9216 32.1104 43.88L29.5604 46.43C29.4678 46.5246 29.3947 46.6364 29.3454 46.7592C29.296 46.882 29.2714 47.0133 29.2728 47.1456C29.2741 47.2779 29.3016 47.4087 29.3535 47.5304C29.4054 47.6521 29.4808 47.7624 29.5754 47.855C29.6699 47.9476 29.7818 48.0206 29.9046 48.07C30.0274 48.1193 30.1587 48.144 30.291 48.1426C30.4233 48.1412 30.5541 48.1138 30.6758 48.0619C30.7975 48.0099 30.9078 47.9346 31.0004 47.84L33.6604 45.18C36.0929 47.0208 39.0634 48.0102 42.1139 47.9957C45.1644 47.9813 48.1254 46.9637 50.5404 45.1L53.2804 47.84C53.4717 48.0038 53.7178 48.0894 53.9694 48.0797C54.2211 48.07 54.4599 47.9657 54.6379 47.7876C54.816 47.6095 54.9204 47.3707 54.9301 47.1191C54.9398 46.8674 54.8542 46.6213 54.6904 46.43L52.0004 43.78C53.9236 41.81 55.2234 39.3167 55.737 36.6119C56.2507 33.9071 55.9554 31.1109 54.8882 28.573C53.8209 26.0351 52.0291 23.8683 49.7368 22.3434C47.4445 20.8186 44.7535 20.0035 42.0004 20ZM49.4704 37.43C49.3558 37.6682 49.1516 37.8514 48.9024 37.9395C48.6531 38.0275 48.3792 38.0133 48.1404 37.9L41.0004 34.44V25.69C41.0004 25.4248 41.1057 25.1704 41.2933 24.9829C41.4808 24.7954 41.7352 24.69 42.0004 24.69C42.2656 24.69 42.52 24.7954 42.7075 24.9829C42.895 25.1704 43.0004 25.4248 43.0004 25.69V33.19L49.0004 36.1C49.1201 36.1549 49.2278 36.2329 49.3172 36.3296C49.4067 36.4262 49.4762 36.5396 49.5217 36.6632C49.5672 36.7868 49.5879 36.9181 49.5825 37.0497C49.5772 37.1813 49.5458 37.3105 49.4904 37.43H49.4704Z" fill="#0174FF"/>
<defs>
<filter id="filter0_dd_0_1" x="0.141072" y="0.0282142" width="82.8155" height="82.815" filterUnits="userSpaceOnUse" color-interpolation-filters="sRGB">
<feFlood flood-opacity="0" result="BackgroundImageFix"/>
<feColorMatrix in="SourceAlpha" type="matrix" values="0 0 0 0 0 0 0 0 0 0 0 0 0 0 0 0 0 0 127 0" result="hardAlpha"/>
<feMorphology radius="1.97179" operator="erode" in="SourceAlpha" result="effect1_dropShadow_0_1"/>
<feOffset dy="3.94357"/>
<feGaussianBlur stdDeviation="3.94357"/>
<feColorMatrix type="matrix" values="0 0 0 0 0 0 0 0 0 0 0 0 0 0 0 0 0 0 0.07 0"/>
<feBlend mode="normal" in2="BackgroundImageFix" result="effect1_dropShadow_0_1"/>
<feColorMatrix in="SourceAlpha" type="matrix" values="0 0 0 0 0 0 0 0 0 0 0 0 0 0 0 0 0 0 127 0" result="hardAlpha"/>
<feMorphology radius="1.97179" operator="erode" in="SourceAlpha" result="effect2_dropShadow_0_1"/>
<feOffset dy="7.88714"/>
<feGaussianBlur stdDeviation="5.91536"/>
<feColorMatrix type="matrix" values="0 0 0 0 0 0 0 0 0 0 0 0 0 0 0 0 0 0 0.12 0"/>
<feBlend mode="normal" in2="effect1_dropShadow_0_1" result="effect2_dropShadow_0_1"/>
<feBlend mode="normal" in="SourceGraphic" in2="effect2_dropShadow_0_1" result="shape"/>
</filter>
</defs>
</svg>
