<svg width="43" height="43" viewBox="0 0 43 43" fill="none" xmlns="http://www.w3.org/2000/svg">
<path d="M15.6245 17.0558V25.8571C15.6245 26.2971 15.7993 26.7193 16.1106 27.0303C16.4216 27.3416 16.8437 27.5163 17.2838 27.5163H26.0851C26.5252 27.5163 26.9473 27.3416 27.2583 27.0303C27.5696 26.7193 27.7444 26.2971 27.7444 25.8571V17.0558C27.7444 16.6157 27.5696 16.1936 27.2583 15.8825C26.9473 15.5712 26.5252 15.3965 26.0851 15.3965H17.2838C16.8437 15.3965 16.4216 15.5712 16.1106 15.8825C15.7993 16.1936 15.6245 16.6157 15.6245 17.0558ZM18.9428 18.7147H24.426V24.1979H18.9428V18.7147Z" fill="#0174FF"/>
<path d="M20.0263 9.06401V12.627H23.3446L23.3443 9.06401C24.5907 8.54815 25.5264 7.48202 25.8759 6.1789C26.2251 4.87607 25.9488 3.48473 25.1277 2.41455C24.3066 1.34436 23.0341 0.716797 21.6853 0.716797C20.3365 0.716797 19.064 1.34434 18.2429 2.41455C17.4218 3.48473 17.1455 4.87607 17.4947 6.1789C17.8442 7.48202 18.7799 8.54814 20.0263 9.06401H20.0263ZM21.6853 4.03705C22.0978 4.03705 22.4699 4.28558 22.6279 4.6669C22.7859 5.04822 22.6985 5.48711 22.4069 5.77878C22.1149 6.07071 21.676 6.15809 21.2947 6.00012C20.9137 5.84215 20.6648 5.47008 20.6648 5.05725C20.6648 4.78674 20.7725 4.52722 20.9637 4.33597C21.1552 4.14444 21.4148 4.0371 21.6853 4.0371L21.6853 4.03705Z" fill="#0174FF"/>
<path d="M20.0263 30.2871V33.8501C18.7799 34.3659 17.8442 35.4321 17.4947 36.7352C17.1455 38.038 17.4218 39.4293 18.2429 40.4995C19.064 41.5697 20.3365 42.1973 21.6853 42.1973C23.0341 42.1973 24.3066 41.5697 25.1277 40.4995C25.9488 39.4293 26.2251 38.038 25.8759 36.7352C25.5264 35.4321 24.5907 34.3659 23.3443 33.8501V30.2871H20.0263ZM21.6852 38.8773C21.2727 38.8773 20.9006 38.6288 20.7426 38.2475C20.5846 37.8662 20.672 37.4273 20.9636 37.1356C21.2556 36.8437 21.6945 36.7563 22.0758 36.9143C22.4568 37.0722 22.7057 37.4443 22.7057 37.8571C22.7057 38.4204 22.2488 38.8772 21.6853 38.8772L21.6852 38.8773Z" fill="#0174FF"/>
<path d="M29.1023 16.3823L31.6405 13.8646C32.8881 14.3779 34.3031 14.2821 35.47 13.6057C36.6371 12.9295 37.4235 11.7491 37.5985 10.4119C37.7735 9.07431 37.317 7.73156 36.3634 6.77773C35.4095 5.82413 34.0667 5.36758 32.7292 5.5426C31.3919 5.71764 30.2116 6.50398 29.5354 7.67112C28.859 8.83796 28.7632 10.253 29.2765 11.5006L26.7588 14.0182L29.1023 16.3823ZM32.5614 9.13624C32.9601 8.73755 33.6061 8.73755 34.0048 9.13624C34.4035 9.53492 34.4035 10.1809 34.0048 10.5796C33.6015 10.9624 32.9687 10.9624 32.5654 10.5796C32.3736 10.3887 32.2651 10.1295 32.2642 9.85894C32.2636 9.58814 32.3704 9.32803 32.5613 9.13621L32.5614 9.13624Z" fill="#0174FF"/>
<path d="M11.7315 29.048C10.9381 28.7208 10.0662 28.6354 9.22476 28.8032C8.38315 28.9707 7.61004 29.3833 7.00307 29.9895C6.26414 30.7339 5.8203 31.7211 5.75379 32.7678C5.68753 33.8146 6.00261 34.8501 6.6414 35.6819C7.27993 36.514 8.1988 37.086 9.22706 37.2923C10.2553 37.4985 11.3238 37.325 12.2337 36.8036C13.1439 36.2822 13.8342 35.4487 14.1765 34.4572C14.5187 33.4659 14.4901 32.3839 14.0955 31.4121L16.6131 28.8944L14.2656 26.5469L11.7315 29.048ZM10.8105 33.7764C10.4072 34.1592 9.77478 34.1592 9.37112 33.7764C9.17988 33.5849 9.07225 33.3253 9.07225 33.0545C9.07225 32.784 9.17987 32.5242 9.37112 32.3329C9.55918 32.1267 9.82333 32.0066 10.1025 32.0002C10.3814 31.9939 10.6508 32.1024 10.8478 32.3C11.0448 32.4976 11.1524 32.7672 11.1452 33.0461C11.1383 33.325 11.0173 33.5889 10.8105 33.7764L10.8105 33.7764Z" fill="#0174FF"/>
<path d="M33.2993 28.7153C32.73 28.7144 32.1663 28.8258 31.6401 29.0431L29.1224 26.5254L26.7749 28.8729L29.2761 31.4112C28.9477 32.2039 28.8615 33.076 29.0285 33.9176C29.1954 34.7589 29.6077 35.5323 30.2135 36.1396C31.2403 37.1542 32.7043 37.5917 34.1193 37.3067C35.5344 37.0217 36.7151 36.0517 37.2692 34.7188C37.8232 33.3859 37.678 31.8649 36.8818 30.6607C36.0856 29.4566 34.7428 28.7275 33.2994 28.7153L33.2993 28.7153ZM34.0044 33.7755C33.6005 34.1608 32.9649 34.1608 32.561 33.7755C32.3695 33.5839 32.2618 33.3244 32.2618 33.0536C32.2618 32.7831 32.3695 32.5233 32.561 32.332C32.9649 31.9464 33.6005 31.9464 34.0044 32.332C34.1959 32.5233 34.3036 32.7831 34.3036 33.0536C34.3036 33.3244 34.196 33.5839 34.0044 33.7755Z" fill="#0174FF"/>
<path d="M10.0712 14.2004C10.6406 14.2013 11.2042 14.0899 11.7304 13.8726L14.2481 16.3903L16.5956 14.0427L14.0944 11.5045C14.5669 10.3495 14.5191 9.04697 13.9634 7.9299C13.4079 6.81253 12.3978 5.98854 11.1919 5.66858C9.98577 5.34859 8.70027 5.56326 7.66364 6.25764C6.627 6.9523 5.93989 8.05982 5.77724 9.29695C5.61464 10.5341 5.99279 11.7814 6.81476 12.7199C7.63705 13.6588 8.82322 14.1981 10.0711 14.2004L10.0712 14.2004ZM9.36613 9.1402C9.76424 8.74412 10.4074 8.74412 10.8055 9.1402C10.9971 9.33173 11.1044 9.59125 11.1044 9.86206C11.1044 10.1326 10.9971 10.3924 10.8055 10.5836C10.4022 10.9664 9.76949 10.9664 9.36613 10.5836C9.1746 10.3924 9.06697 10.1326 9.06697 9.86206C9.06697 9.59126 9.17459 9.33173 9.36613 9.1402Z" fill="#0174FF"/>
<path d="M38.0859 17.1192C37.228 17.12 36.3896 17.3749 35.6764 17.8517C34.9635 18.3288 34.4077 19.0061 34.0791 19.7986H30.5161V23.1168H34.0791V23.1165C34.4815 24.0895 35.2242 24.8826 36.1683 25.3484C37.1123 25.8142 38.1935 25.9207 39.2105 25.6484C40.2274 25.3759 41.1104 24.7431 41.6955 23.8676C42.2802 22.9922 42.5267 21.9341 42.389 20.8902C42.2516 19.8466 41.7389 18.8887 40.9473 18.1946C40.1554 17.5008 39.1384 17.1186 38.0859 17.1191L38.0859 17.1192ZM38.0859 22.478C37.673 22.478 37.3009 22.2292 37.143 21.8482C36.985 21.4669 37.0724 21.028 37.3643 20.736C37.656 20.4444 38.0949 20.357 38.4762 20.515C38.8575 20.6729 39.1061 21.045 39.1061 21.4576C39.1061 22.0212 38.6492 22.478 38.0859 22.478L38.0859 22.478Z" fill="#0174FF"/>
<path d="M5.28477 25.7961C6.14261 25.7952 6.98104 25.5403 7.69422 25.0635C8.40711 24.5864 8.96291 23.9091 9.29154 23.1167H12.8545V19.7987H9.29154C8.88909 18.8257 8.1464 18.0327 7.20235 17.5669C6.2583 17.1011 5.17708 16.9946 4.16014 17.2668C3.14321 17.5394 2.26019 18.1722 1.67514 19.0476C1.09042 19.9231 0.843894 20.9811 0.981635 22.025C1.11907 23.0686 1.63174 24.0265 2.42334 24.7207C3.21518 25.4145 4.23219 25.7966 5.28475 25.7961L5.28477 25.7961ZM5.28477 20.4372C5.69763 20.4372 6.06972 20.686 6.22763 21.0671C6.3856 21.4484 6.29823 21.8873 6.0063 22.1792C5.71467 22.4709 5.27576 22.5583 4.89442 22.4003C4.51309 22.2423 4.26456 21.8703 4.26456 21.4576C4.26456 21.1871 4.3719 20.9276 4.56344 20.7361C4.75468 20.5448 5.0142 20.4372 5.28472 20.4372L5.28477 20.4372Z" fill="#0174FF"/>
<path d="M19.5083 19.7988H23.8635V23.1171H19.5083V19.7988Z" fill="#0174FF"/>
</svg>

