<svg width="80" height="80" viewBox="0 0 83 83" fill="none" xmlns="http://www.w3.org/2000/svg">
<g filter="url(#filter0_dd_0_1)">
<rect x="10" y="2" width="63.0971" height="63.0971" rx="15.7743" fill="white"/>
</g>
<g clip-path="url(#clip0_0_1)">
<path d="M40.6005 47.452C37.6634 47.452 34.7923 46.581 32.3503 44.9493C29.9082 43.3175 28.0048 40.9983 26.8809 38.2848C25.7569 35.5713 25.4628 32.5855 26.0358 29.7049C26.6088 26.8243 28.0231 24.1782 30.1 22.1014C32.1768 20.0246 34.8228 18.6103 37.7034 18.0373C40.584 17.4643 43.5699 17.7584 46.2833 18.8823C48.9968 20.0063 51.3161 21.9097 52.9478 24.3517C54.5796 26.7938 55.4505 29.6649 55.4505 32.602C55.4505 36.5404 53.8859 40.3176 51.101 43.1025C48.3161 45.8874 44.539 47.452 40.6005 47.452ZM40.6005 20.452C38.1975 20.452 35.8484 21.1645 33.8503 22.4996C31.8523 23.8347 30.295 25.7322 29.3754 27.9524C28.4558 30.1725 28.2151 32.6154 28.684 34.9723C29.1528 37.3292 30.3099 39.4941 32.0091 41.1933C33.7084 42.8925 35.8733 44.0497 38.2301 44.5185C40.587 44.9873 43.03 44.7467 45.2501 43.8271C47.4702 42.9075 49.3678 41.3502 50.7029 39.3521C52.0379 37.3541 52.7505 35.005 52.7505 32.602C52.7505 29.3796 51.4704 26.2892 49.1918 24.0106C46.9133 21.732 43.8229 20.452 40.6005 20.452Z" fill="#0174FF"/>
<path d="M43.3003 43.4022C39.7199 43.4022 36.2861 41.9799 33.7544 39.4481C31.2227 36.9164 29.8003 33.4826 29.8003 29.9022C29.8634 28.4936 30.2359 27.1162 30.8916 25.8679C31.5472 24.6196 32.4699 23.531 33.5938 22.6797C28.7338 24.5022 27.1003 28.1877 27.1003 32.6022C27.1003 36.1826 28.5227 39.6164 31.0544 42.1481C33.5861 44.6799 37.0199 46.1022 40.6003 46.1022C42.7473 46.1367 44.8544 45.5207 46.6446 44.3352C48.4349 43.1497 49.8246 41.4503 50.6308 39.4602C49.7983 40.6407 48.7026 41.6113 47.4304 42.2955C46.1581 42.9796 44.7442 43.3585 43.3003 43.4022Z" fill="#0174FF"/>
<path d="M25.7502 20.4508C25.5725 20.4519 25.3964 20.4178 25.2319 20.3506C25.0674 20.2834 24.9178 20.1845 24.7917 20.0593C24.6651 19.9338 24.5647 19.7845 24.4962 19.62C24.4276 19.4555 24.3923 19.2791 24.3923 19.1008C24.3923 18.9226 24.4276 18.7462 24.4962 18.5817C24.5647 18.4171 24.6651 18.2678 24.7917 18.1423L28.8417 14.0923C29.0959 13.8381 29.4407 13.6953 29.8002 13.6953C30.1597 13.6953 30.5045 13.8381 30.7587 14.0923C31.0129 14.3465 31.1557 14.6913 31.1557 15.0508C31.1557 15.4103 31.0129 15.7551 30.7587 16.0093L26.7087 20.0593C26.5825 20.1845 26.4329 20.2834 26.2684 20.3506C26.104 20.4178 25.9278 20.4519 25.7502 20.4508Z" fill="#0174FF"/>
<path d="M55.4502 20.4508C55.2725 20.4519 55.0964 20.4178 54.9319 20.3506C54.7674 20.2834 54.6178 20.1845 54.4917 20.0593L50.4417 16.0093C50.1875 15.7551 50.0447 15.4103 50.0447 15.0508C50.0447 14.6913 50.1875 14.3465 50.4417 14.0923C50.6959 13.8381 51.0407 13.6953 51.4002 13.6953C51.7597 13.6953 52.1045 13.8381 52.3587 14.0923L56.4087 18.1423C56.5352 18.2678 56.6357 18.4171 56.7042 18.5817C56.7727 18.7462 56.808 18.9226 56.808 19.1008C56.808 19.2791 56.7727 19.4555 56.7042 19.62C56.6357 19.7845 56.5352 19.9338 56.4087 20.0593C56.2826 20.1845 56.133 20.2834 55.9685 20.3506C55.804 20.4178 55.6279 20.4519 55.4502 20.4508Z" fill="#0174FF"/>
<path d="M36.7393 39.743C36.4746 39.7409 36.2164 39.6611 35.9968 39.5135C35.8484 39.4154 35.7208 39.289 35.6214 39.1414C35.5221 38.9939 35.4528 38.8282 35.4177 38.6538C35.3826 38.4794 35.3823 38.2998 35.4168 38.1253C35.4513 37.9508 35.5199 37.7849 35.6188 37.637L39.2503 32.237V24.893C39.2503 24.5349 39.3925 24.1915 39.6457 23.9384C39.8989 23.6852 40.2422 23.543 40.6003 23.543C40.9583 23.543 41.3017 23.6852 41.5549 23.9384C41.808 24.1915 41.9503 24.5349 41.9503 24.893V32.6015C41.9482 32.8661 41.8684 33.1243 41.7208 33.344L37.9003 39.1355C37.7743 39.327 37.6015 39.4832 37.3984 39.5895C37.1953 39.6958 36.9685 39.7486 36.7393 39.743Z" fill="#0174FF"/>
<path d="M28.4501 51.5012C28.2724 51.5023 28.0963 51.4682 27.9318 51.401C27.7674 51.3338 27.6178 51.2348 27.4916 51.1097C27.3651 50.9842 27.2646 50.8349 27.1961 50.6704C27.1276 50.5059 27.0923 50.3294 27.0923 50.1512C27.0923 49.973 27.1276 49.7966 27.1961 49.632C27.2646 49.4675 27.3651 49.3182 27.4916 49.1927L30.1916 46.4927C30.3175 46.3669 30.4669 46.267 30.6314 46.1989C30.7958 46.1308 30.9721 46.0957 31.1501 46.0957C31.3281 46.0957 31.5044 46.1308 31.6688 46.1989C31.8333 46.267 31.9827 46.3669 32.1086 46.4927C32.2345 46.6186 32.3343 46.768 32.4025 46.9325C32.4706 47.097 32.5056 47.2732 32.5056 47.4512C32.5056 47.6292 32.4706 47.8055 32.4025 47.97C32.3343 48.1344 32.2345 48.2839 32.1086 48.4097L29.4086 51.1097C29.2825 51.2348 29.1329 51.3338 28.9684 51.401C28.8039 51.4682 28.6278 51.5023 28.4501 51.5012Z" fill="#0174FF"/>
<path d="M52.7501 51.5012C52.5724 51.5023 52.3963 51.4682 52.2318 51.401C52.0673 51.3338 51.9177 51.2348 51.7916 51.1097L49.0916 48.4097C48.8374 48.1555 48.6946 47.8107 48.6946 47.4512C48.6946 47.0917 48.8374 46.7469 49.0916 46.4927C49.3458 46.2385 49.6906 46.0957 50.0501 46.0957C50.4096 46.0957 50.7544 46.2385 51.0086 46.4927L53.7086 49.1927C53.8351 49.3182 53.9356 49.4675 54.0041 49.632C54.0726 49.7966 54.1079 49.973 54.1079 50.1512C54.1079 50.3294 54.0726 50.5059 54.0041 50.6704C53.9356 50.8349 53.8351 50.9842 53.7086 51.1097C53.5825 51.2348 53.4329 51.3338 53.2684 51.401C53.1039 51.4682 52.9278 51.5023 52.7501 51.5012Z" fill="#0174FF"/>
</g>
<defs>
<filter id="filter0_dd_0_1" x="0.141072" y="0.0282142" width="82.815" height="82.8155" filterUnits="userSpaceOnUse" color-interpolation-filters="sRGB">
<feFlood flood-opacity="0" result="BackgroundImageFix"/>
<feColorMatrix in="SourceAlpha" type="matrix" values="0 0 0 0 0 0 0 0 0 0 0 0 0 0 0 0 0 0 127 0" result="hardAlpha"/>
<feMorphology radius="1.97179" operator="erode" in="SourceAlpha" result="effect1_dropShadow_0_1"/>
<feOffset dy="3.94357"/>
<feGaussianBlur stdDeviation="3.94357"/>
<feColorMatrix type="matrix" values="0 0 0 0 0 0 0 0 0 0 0 0 0 0 0 0 0 0 0.07 0"/>
<feBlend mode="normal" in2="BackgroundImageFix" result="effect1_dropShadow_0_1"/>
<feColorMatrix in="SourceAlpha" type="matrix" values="0 0 0 0 0 0 0 0 0 0 0 0 0 0 0 0 0 0 127 0" result="hardAlpha"/>
<feMorphology radius="1.97179" operator="erode" in="SourceAlpha" result="effect2_dropShadow_0_1"/>
<feOffset dy="7.88714"/>
<feGaussianBlur stdDeviation="5.91536"/>
<feColorMatrix type="matrix" values="0 0 0 0 0 0 0 0 0 0 0 0 0 0 0 0 0 0 0.12 0"/>
<feBlend mode="normal" in2="effect1_dropShadow_0_1" result="effect2_dropShadow_0_1"/>
<feBlend mode="normal" in="SourceGraphic" in2="effect2_dropShadow_0_1" result="shape"/>
</filter>
<clipPath id="clip0_0_1">
<rect width="43.2" height="54" fill="white" transform="translate(19 11)"/>
</clipPath>
</defs>
</svg>
