<svg width="50" height="50" viewBox="0 0 75 76" fill="none" xmlns="http://www.w3.org/2000/svg">
<g filter="url(#filter0_dd_0_1)">
<rect x="9" y="2" width="57" height="57" rx="14.25" fill="white"/>
</g>
<path d="M21.0347 17.1032C21.0347 15.361 22.4502 14 24.1378 14C25.88 14 27.241 15.4156 27.241 17.1032C27.241 18.8453 25.8254 20.2063 24.1378 20.2063C22.4502 20.2063 21.0347 18.8453 21.0347 17.1032V17.1032Z" fill="black"/>
<path d="M37.4216 25.3778C37.4216 26.4122 36.605 27.2288 35.5706 27.2288L28.3297 27.229V34.7965C28.3297 35.1231 28.0575 35.3409 27.7853 35.3409H26.751L26.261 47.2093C26.261 47.4815 25.9888 47.7537 25.7166 47.7537H22.6132C22.341 47.7537 22.0688 47.5359 22.0688 47.2093L21.5788 35.3409H20.5444C20.2722 35.3409 20 35.1231 20 34.7965V23.9625C20 22.4925 21.1978 21.2949 22.6675 21.2949H25.6619C26.9685 21.2949 28.0573 22.2205 28.2751 23.4725H35.5706C36.6052 23.4725 37.4218 24.3435 37.4218 25.3779L37.4216 25.3778Z" fill="black"/>
<path d="M54.8433 43.8345V47.9176C54.8433 48.2442 54.6255 48.462 54.2989 48.462H42.8662C42.5396 48.462 42.3218 48.2442 42.3218 47.9176V43.8345C42.3218 42.4735 43.4106 41.3301 44.7718 41.3301H45.8606C45.9694 41.3301 46.1328 41.3845 46.1872 41.4389L48.5281 43.3989L50.8691 41.4389C50.9779 41.3845 51.0869 41.3301 51.1957 41.3301H52.2845C53.7547 41.3301 54.8435 42.4191 54.8435 43.8345H54.8433Z" fill="black"/>
<path d="M31.5962 38.5533C31.5962 36.9746 32.9028 35.668 34.4816 35.668C36.0603 35.668 37.367 36.9745 37.367 38.5533C37.367 40.1322 36.0604 41.4387 34.4816 41.4387C32.9028 41.4387 31.5962 40.1865 31.5962 38.5533Z" fill="black"/>
<path d="M40.7974 43.8345V47.9176C40.7974 48.2442 40.5252 48.462 40.253 48.462H28.8203C28.5481 48.462 28.2759 48.2442 28.2759 47.9176V43.8345C28.2759 42.4735 29.419 41.3301 30.7803 41.3301H31.8691C31.9778 41.3301 32.1412 41.3845 32.1956 41.4389L34.5366 43.3989L36.8775 41.4389C36.9863 41.3845 37.0953 41.3301 37.2041 41.3301H38.2929C39.6544 41.3301 40.7975 42.4191 40.7975 43.8345H40.7974Z" fill="black"/>
<path d="M45.6968 38.5533C45.6968 36.9746 47.0033 35.668 48.5822 35.668C50.161 35.668 51.4675 36.9745 51.4675 38.5533C51.4675 40.1322 50.161 41.4387 48.5822 41.4387C47.0033 41.4387 45.6968 40.1865 45.6968 38.5533V38.5533Z" fill="black"/>
<path d="M50.5462 15.6035H31.0013C30.1304 15.6035 29.3682 16.3113 29.3682 17.2367V22.7899H34.8123C36.4455 22.7899 37.7521 24.0964 37.7521 25.7296C37.7521 27.3627 36.4455 28.6693 34.8123 28.6693H29.3682V32.9159C29.3682 33.7869 30.1304 34.5491 31.0013 34.5491H50.5462C51.4719 34.5491 52.1794 33.7869 52.1794 32.9159V17.2369C52.1794 16.3112 51.4719 15.6037 50.5462 15.6037V15.6035ZM34.5945 20.0676H33.5057C33.1791 20.0676 32.9613 19.8498 32.9613 19.5233C32.9613 19.1967 33.1791 18.9789 33.5057 18.9789H34.5945C34.9211 18.9789 35.1389 19.1967 35.1389 19.5233C35.1389 19.7954 34.8667 20.0676 34.5945 20.0676V20.0676ZM45.2649 24.8586C45.0471 24.6408 45.0471 24.3142 45.2649 24.0964C45.4827 23.8786 45.8093 23.8786 46.0271 24.0964L46.7349 24.8042L47.4427 24.0964C47.6605 23.8786 47.9871 23.8786 48.2049 24.0964C48.4227 24.3142 48.4227 24.6408 48.2049 24.8586L47.4971 25.5664L48.2049 26.2742C48.4227 26.492 48.4227 26.8186 48.2049 27.0364C47.9871 27.2542 47.6605 27.2542 47.4427 27.0364L46.7349 26.3286L46.0271 27.0364C45.8093 27.2542 45.4827 27.2542 45.2649 27.0364C45.0471 26.8186 45.0471 26.492 45.2649 26.2742L45.9727 25.5664L45.2649 24.8586ZM42.4884 18.9789H43.5772C43.9037 18.9789 44.1216 19.1967 44.1216 19.5232C44.1216 19.8498 43.9038 20.0676 43.5772 20.0676H42.4884C42.1618 20.0676 41.944 19.8498 41.944 19.5232C41.944 19.1967 42.2162 18.9789 42.4884 18.9789ZM40.0383 24.0964L40.7461 24.8042L41.4539 24.0964C41.6717 23.8786 41.9983 23.8786 42.2161 24.0964C42.4339 24.3142 42.4339 24.6408 42.2161 24.8586L41.5083 25.5664L42.2161 26.2742C42.4339 26.492 42.4339 26.8186 42.2161 27.0364C41.9983 27.2542 41.6717 27.2542 41.4539 27.0364L40.7461 26.3286L40.0383 27.0364C39.8205 27.2542 39.494 27.2542 39.2761 27.0364C39.0583 26.8186 39.0583 26.492 39.2761 26.2742L39.9839 25.5664L39.2761 24.8586C39.0583 24.6408 39.0583 24.3142 39.2761 24.0964C39.4939 23.8786 39.8205 23.8786 40.0383 24.0964ZM37.4251 19.5233C37.4251 19.1967 37.6429 18.9789 37.9695 18.9789H39.0583C39.3849 18.9789 39.6027 19.1967 39.6027 19.5233C39.6027 19.8499 39.3849 20.0677 39.0583 20.0677H37.9695C37.6973 20.0677 37.4251 19.7955 37.4251 19.5233ZM48.0956 31.1735H33.5054C33.1788 31.1735 32.961 30.9557 32.961 30.6291C32.961 30.3025 33.1788 30.0847 33.5054 30.0847H48.0956C48.4222 30.0847 48.64 30.3025 48.64 30.6291C48.64 30.9557 48.3678 31.1735 48.0956 31.1735ZM48.0956 20.0674H47.0068C46.6802 20.0674 46.4624 19.8496 46.4624 19.523C46.4624 19.1964 46.6802 18.9786 47.0068 18.9786H48.0956C48.4222 18.9786 48.64 19.1964 48.64 19.523C48.64 19.7952 48.3678 20.0674 48.0956 20.0674Z" fill="black"/>
<defs>
<filter id="filter0_dd_0_1" x="0.0937499" y="0.218749" width="74.8125" height="74.8125" filterUnits="userSpaceOnUse" color-interpolation-filters="sRGB">
<feFlood flood-opacity="0" result="BackgroundImageFix"/>
<feColorMatrix in="SourceAlpha" type="matrix" values="0 0 0 0 0 0 0 0 0 0 0 0 0 0 0 0 0 0 127 0" result="hardAlpha"/>
<feMorphology radius="1.78125" operator="erode" in="SourceAlpha" result="effect1_dropShadow_0_1"/>
<feOffset dy="3.5625"/>
<feGaussianBlur stdDeviation="3.5625"/>
<feColorMatrix type="matrix" values="0 0 0 0 0 0 0 0 0 0 0 0 0 0 0 0 0 0 0.07 0"/>
<feBlend mode="normal" in2="BackgroundImageFix" result="effect1_dropShadow_0_1"/>
<feColorMatrix in="SourceAlpha" type="matrix" values="0 0 0 0 0 0 0 0 0 0 0 0 0 0 0 0 0 0 127 0" result="hardAlpha"/>
<feMorphology radius="1.78125" operator="erode" in="SourceAlpha" result="effect2_dropShadow_0_1"/>
<feOffset dy="7.125"/>
<feGaussianBlur stdDeviation="5.34375"/>
<feColorMatrix type="matrix" values="0 0 0 0 0 0 0 0 0 0 0 0 0 0 0 0 0 0 0.12 0"/>
<feBlend mode="normal" in2="effect1_dropShadow_0_1" result="effect2_dropShadow_0_1"/>
<feBlend mode="normal" in="SourceGraphic" in2="effect2_dropShadow_0_1" result="shape"/>
</filter>
</defs>
</svg>
