<svg width="11" height="7" viewBox="0 0 11 7" fill="none" xmlns="http://www.w3.org/2000/svg">
<path d="M5.35803 6.45496C5.21711 6.45578 5.07742 6.42866 4.94697 6.37516C4.81651 6.32166 4.69786 6.24282 4.59781 6.14318L0.314893 1.84281C0.215059 1.74257 0.135868 1.62357 0.0818382 1.4926C0.0278089 1.36163 2.10383e-09 1.22125 0 1.07949C-2.10383e-09 0.937731 0.0278089 0.797358 0.0818382 0.666388C0.135868 0.535418 0.215059 0.416416 0.314893 0.316176C0.414726 0.215935 0.533245 0.13642 0.663683 0.0821708C0.794122 0.0279212 0.933925 -2.1124e-09 1.07511 0C1.2163 2.1124e-09 1.3561 0.0279212 1.48654 0.0821708C1.61698 0.13642 1.73549 0.215935 1.83533 0.316176L5.35803 3.87474L8.89143 0.455938C8.98993 0.345967 9.10997 0.257585 9.24404 0.196319C9.3781 0.135054 9.52332 0.102224 9.6706 0.0998806C9.81789 0.0975377 9.96407 0.125732 10.1 0.182702C10.2359 0.239673 10.3587 0.324193 10.4606 0.430976C10.5625 0.537759 10.6414 0.664508 10.6923 0.803297C10.7432 0.942085 10.7651 1.08993 10.7565 1.23758C10.7479 1.38523 10.709 1.52951 10.6424 1.66139C10.5757 1.79328 10.4827 1.90994 10.369 2.00407L6.08612 6.15393C5.89031 6.34349 5.62999 6.45112 5.35803 6.45496Z" fill="#0174FF"/>
</svg>

