<svg width="20" height="14" viewBox="0 0 20 14" fill="none" xmlns="http://www.w3.org/2000/svg">
<path d="M18.9143 13.9932H1.70277C1.29446 13.9932 0.962486 13.6612 0.962486 13.2529V1.57036C0.962486 1.16205 1.29446 0.830078 1.70277 0.830078H18.9143C19.3226 0.830078 19.6546 1.16205 19.6546 1.57036V13.2529C19.6546 13.6612 19.3226 13.9932 18.9143 13.9932ZM2.44305 12.5126H18.174V2.31064H2.44305V12.5126Z" fill="#0182FF"/>
<path d="M10.3269 9.81891C10.1534 9.81891 9.9799 9.75876 9.8411 9.63731L1.21684 2.12925C0.908001 1.86089 0.875613 1.39359 1.14397 1.08476C1.41232 0.775921 1.87962 0.743533 2.18845 1.01189L10.3258 8.09544L18.4272 1.01304C18.7349 0.743533 19.2022 0.77592 19.4717 1.0836C19.7412 1.39128 19.71 1.85858 19.4011 2.12809L10.8139 9.63499C10.6739 9.7576 10.5004 9.81891 10.3269 9.81891Z" fill="#0182FF"/>
<path d="M1.70265 13.9939C1.4956 13.9939 1.29086 13.9083 1.14397 13.7394C0.875613 13.4306 0.908001 12.9633 1.21684 12.695L7.92678 6.85368C8.23562 6.58533 8.70292 6.61772 8.97127 6.92655C9.23962 7.23539 9.20724 7.70269 8.8984 7.97104L2.18845 13.8123C2.04849 13.9338 1.87499 13.9939 1.70265 13.9939Z" fill="#0182FF"/>
<path d="M18.914 13.9934C18.7417 13.9934 18.567 13.9332 18.4271 13.8106L11.746 7.96934C11.4384 7.69983 11.4071 7.23253 11.6755 6.92485C11.945 6.61717 12.4123 6.58594 12.72 6.85429L19.401 12.6956C19.7087 12.9651 19.7399 13.4324 19.4715 13.7401C19.3247 13.9078 19.1199 13.9934 18.914 13.9934Z" fill="#0182FF"/>
</svg>





