<svg width="22" height="13" viewBox="0 0 22 13" fill="none" xmlns="http://www.w3.org/2000/svg">
<path d="M13.1008 6.35265C13.1008 7.66821 12.0344 8.73459 10.7189 8.73459C9.4033 8.73459 8.33691 7.66821 8.33691 6.35265C8.33691 5.03709 9.4033 3.9707 10.7189 3.9707C12.0344 3.9707 13.1008 5.03709 13.1008 6.35265Z" fill="#979797"/>
<path d="M10.7188 0C4.68449 0 0 2.77894 0 6.35185C0 9.92477 4.68449 12.7037 10.7188 12.7037C16.753 12.7037 21.4375 9.92477 21.4375 6.35185C21.4375 2.77894 16.753 0 10.7188 0ZM10.7188 10.3218C8.4956 10.3218 6.74884 8.575 6.74884 6.35185C6.74884 4.1287 8.4956 2.38194 10.7188 2.38194C12.9419 2.38194 14.6887 4.1287 14.6887 6.35185C14.6887 8.575 12.9419 10.3218 10.7188 10.3218Z" fill="#979797"/>
</svg>
