<svg width="46" height="51" viewBox="0 0 46 51" fill="none" xmlns="http://www.w3.org/2000/svg">
<path d="M36.2916 17.6506V12.3369C37.5589 11.5282 38.4121 10.2083 38.6292 8.72042C38.8462 7.23252 38.4057 5.72383 37.4223 4.58683C36.4388 3.44946 35.0099 2.79574 33.5061 2.79574C32.0027 2.79574 30.5734 3.4495 29.59 4.58683C28.6065 5.72383 28.166 7.23252 28.3831 8.72042C28.6006 10.2083 29.4534 11.5281 30.721 12.3369V17.3068C29.632 17.4716 28.5677 17.7731 27.5543 18.2041L11.139 6.07859C11.1549 5.91268 11.1626 5.7503 11.1626 5.58827C11.1648 3.97503 10.4687 2.43987 9.25363 1.37841C8.03864 0.316953 6.42405 -0.167055 4.82563 0.0514537C3.22693 0.269962 1.80148 1.16939 0.915783 2.51785C0.0304616 3.86668 -0.22827 5.53206 0.206606 7.08602C0.6415 8.63953 1.72731 9.92908 3.18413 10.6217C4.64094 11.3146 6.32648 11.3432 7.80624 10.7004L22.735 21.727C20.9544 23.7942 19.8619 26.3643 19.6088 29.0807C19.356 31.7973 19.9551 34.525 21.3233 36.8851L17.8205 40.384C16.3559 40.0755 14.8292 40.4165 13.6347 41.3188C12.4405 42.2211 11.6953 43.5967 11.5919 45.0898C11.4885 46.5833 12.0367 48.0483 13.095 49.1066C14.1537 50.1652 15.6186 50.7134 17.1118 50.61C18.6053 50.5066 19.9806 49.7614 20.8828 48.5669C21.7854 47.3727 22.1261 45.846 21.8176 44.3811L25.1463 41.0562H25.1467C27.3579 42.6204 30.0015 43.4563 32.7096 43.4481C36.9795 43.452 40.9853 41.382 43.4525 37.8965C45.9189 34.411 46.5391 29.9449 45.1155 25.9192C43.6918 21.8939 40.4015 18.8105 36.2923 17.6509L36.2916 17.6506ZM32.7094 37.47C30.8081 37.4683 28.9852 36.7118 27.6417 35.3662C26.2986 34.0209 25.5446 32.197 25.5457 30.2958C25.5467 28.3942 26.3032 26.5713 27.6485 25.2278C28.9938 23.8839 30.8173 23.1295 32.7189 23.1302C34.6202 23.1313 36.4431 23.8874 37.7873 25.2324C39.1312 26.5773 39.8859 28.4008 39.8852 30.3022C39.882 32.2038 39.1248 34.026 37.7795 35.3698C36.4342 36.7137 34.6111 37.4688 32.7095 37.4701L32.7094 37.47Z" fill="#0174FF"/>
</svg>
