<svg width="11" height="12" viewBox="0 0 11 12" fill="none" xmlns="http://www.w3.org/2000/svg">
<path d="M5.65108 0.759787C4.2327 0.759787 2.87252 1.32325 1.86958 2.32614C0.866681 3.32904 0.303223 4.68939 0.303223 6.10764C0.303223 7.52589 0.866681 8.8862 1.86958 9.88914C2.87247 10.892 4.23283 11.4555 5.65108 11.4555C7.06933 11.4555 8.42964 10.892 9.43258 9.88914C10.4355 8.88625 10.9989 7.52589 10.9989 6.10764C10.9989 5.16892 10.7518 4.24669 10.2824 3.4337C9.81309 2.62072 9.13796 1.94561 8.325 1.47625C7.51201 1.00689 6.58978 0.759766 5.65106 0.759766L5.65108 0.759787ZM5.67006 9.57763C5.07271 9.86635 4.14906 9.618 4.3103 9.01651L5.18147 5.76534C5.4862 4.62798 4.64811 5.00093 4.27276 5.16565H4.27268C4.5023 4.82054 4.82013 4.54318 5.19317 4.36245C5.79052 4.07373 6.71417 4.32208 6.55302 4.92358L5.68176 8.17496C5.37703 9.31232 6.21512 8.93937 6.59047 8.77464V8.77456C6.36094 9.11975 6.0431 9.39703 5.67006 9.57776L5.67006 9.57763ZM7.01168 3.21259C6.97363 3.35435 6.88095 3.47521 6.75379 3.54858C6.62671 3.62202 6.47568 3.64184 6.33392 3.60387C6.19217 3.5659 6.0713 3.47314 5.99785 3.34607C5.92449 3.21899 5.90459 3.06796 5.94256 2.9262C5.98061 2.78436 6.07329 2.66349 6.20045 2.59013C6.32753 2.51677 6.47856 2.49687 6.62032 2.53484C6.76207 2.5728 6.88294 2.66557 6.9563 2.79264C7.02975 2.9198 7.04964 3.07083 7.01168 3.21259H7.01168Z" fill="#0066FF"/>
</svg>
