<svg width="58" height="58" viewBox="0 0 58 58" fill="none" xmlns="http://www.w3.org/2000/svg">
<path fill-rule="evenodd" clip-rule="evenodd" d="M24.4159 0.302343C22.4555 0.599355 21.769 0.772531 19.4407 1.55819C16.8001 2.44907 13.8268 4.01745 11.5064 5.74316C9.97229 6.88399 6.77051 10.0897 5.76348 11.4931C1.79923 17.0167 -0.00163262 22.4531 1.11054e-06 28.8923C0.00196159 36.9056 3.02714 44.1123 8.67658 49.5624C12.3125 53.0701 15.2202 54.8061 20.5844 56.6718C23.7332 57.767 29.4305 58.1302 33.4091 57.4893C39.6559 56.4832 45.2419 53.5973 49.6058 49.1215C61.06 37.3738 60.4261 18.285 48.2197 7.38375C43.8524 3.48338 38.6155 1.04618 32.8365 0.224904C30.5326 -0.102496 26.8662 -0.0688407 24.4159 0.302343ZM33.8176 0.961227C36.9404 1.52274 38.9094 2.17966 41.7384 3.60428C45.8505 5.67503 49.7644 9.09688 52.3016 12.8396C55.6159 17.7285 57.234 23.0823 57.2026 29.0557C57.1701 35.2127 55.4815 40.4585 51.891 45.5564C50.6071 47.3793 47.2045 50.7528 45.2537 52.1372C42.1895 54.3117 37.5546 56.2274 33.6542 56.9319C31.2337 57.3691 26.2977 57.3302 23.8518 56.8548C18.9451 55.901 14.1713 53.6762 10.7003 50.7258C-1.89186 40.0223 -2.95411 21.2004 8.36585 9.35942C13.4077 4.08557 19.3386 1.29026 27.0376 0.559002C28.4357 0.426343 32.0275 0.639218 33.8176 0.961227ZM26.7517 2.05713C25.5628 2.10941 25.4855 2.13539 25.4855 2.48158C25.4855 2.80555 25.5538 2.84247 26.0469 2.7848C26.5738 2.72337 26.6136 2.75278 26.6994 3.26691C26.7496 3.56817 26.8094 4.2924 26.8324 4.87646C26.8709 5.8536 26.9049 5.9428 27.2596 5.99295L27.645 6.04752L27.5864 4.35922L27.5277 2.67093L28.0587 2.61979C28.4573 2.58123 28.5896 2.48975 28.5896 2.2522C28.5896 2.04717 28.489 1.94735 28.3037 1.96859C28.1466 1.98672 27.4481 2.02658 26.7517 2.05713ZM30.6455 3.20189C30.587 3.80833 30.4965 4.69054 30.4442 5.16237C30.3523 5.99116 30.3627 6.02007 30.7524 6.02007C31.1368 6.02007 31.1606 5.96175 31.2613 4.77011C31.4462 2.58287 31.4096 2.09912 31.0592 2.09912C30.7988 2.09912 30.7352 2.26837 30.6455 3.20189ZM33.8133 2.70082C33.8109 2.86403 33.6299 3.73024 33.4111 4.62552C33.1077 5.86618 33.0602 6.28343 33.2111 6.37933C33.6194 6.63877 33.7862 6.48846 33.9269 5.73417C34.0842 4.8897 34.1231 4.8727 35.3288 5.11597C35.869 5.22494 35.9414 5.20206 35.9414 4.92204C35.9414 4.67323 35.7736 4.5721 35.1654 4.45463C34.4425 4.31495 34.3917 4.27247 34.4229 3.83545C34.4662 3.22934 34.4712 3.22623 35.1337 3.39467C36.5513 3.75523 36.5949 3.75621 36.5949 3.42914C36.5949 3.18212 36.3706 3.06367 35.4921 2.84704C34.8857 2.69739 34.2606 2.53647 34.1035 2.48942C33.9055 2.43011 33.8163 2.49514 33.8133 2.70082ZM21.0197 3.16219C20.5853 3.28161 20.2052 3.40414 20.1748 3.43437C20.1446 3.46476 20.3465 4.31626 20.6236 5.32656C21.0877 7.01828 21.1586 7.16369 21.5205 7.16369C21.8564 7.16369 21.8951 7.11026 21.7874 6.7961C21.7182 6.594 21.658 6.21416 21.6538 5.95195C21.6476 5.55887 21.7319 5.45186 22.1364 5.34012C22.8211 5.15109 22.9928 5.2568 23.19 5.98903C23.3414 6.55169 23.411 6.61884 23.7703 6.55022C23.9949 6.50725 24.1786 6.45007 24.1786 6.42295C24.1786 6.17887 23.5069 4.8977 23.3519 4.84591C23.1969 4.79429 23.1947 4.69839 23.3423 4.42278C23.4471 4.22673 23.486 3.87907 23.4285 3.65018C23.24 2.89916 22.513 2.75196 21.0197 3.16219ZM22.6773 4.09096C22.7223 4.47979 22.65 4.55413 22.0518 4.73318C21.3048 4.95701 21.082 4.81503 21.0769 4.11237C21.0743 3.72338 21.3734 3.58582 22.1364 3.62568C22.5391 3.64659 22.6355 3.72958 22.6773 4.09096ZM37.9233 5.71685C37.3469 7.18019 37.2526 7.55611 37.4332 7.67031C37.5562 7.74823 37.7201 7.79202 37.7973 7.76768C37.929 7.72634 39.4142 4.20271 39.3296 4.13246C39.308 4.11482 39.1435 4.05617 38.9638 4.00242C38.6763 3.91648 38.5515 4.12217 37.9233 5.71685ZM16.2958 5.14734C15.6894 5.47098 15.193 5.79772 15.193 5.87386C15.193 5.98021 16.7403 9.01274 16.9196 9.25764C16.9405 9.28607 17.5463 8.98938 18.2661 8.59826C19.3894 7.9879 19.5518 7.84659 19.4133 7.59891C19.2638 7.3318 19.1862 7.34732 18.3685 7.80885C17.8827 8.08299 17.4224 8.3073 17.3456 8.3073C17.2259 8.3073 16.8268 7.61231 16.8268 7.40384C16.8268 7.36463 17.1944 7.14637 17.6436 6.91863C18.0929 6.69088 18.4605 6.47523 18.4605 6.43913C18.4605 6.40302 18.4175 6.26154 18.3649 6.12463C18.2849 5.91584 18.1289 5.95178 17.3976 6.34731L16.5258 6.81897L16.2705 6.42916C16.0186 6.04474 16.0282 6.03216 16.9766 5.51084C17.5834 5.17723 17.9075 4.90244 17.855 4.76602C17.732 4.44532 17.5102 4.49956 16.2958 5.14734ZM40.6846 6.82812C40.1426 7.70527 39.7016 8.4888 39.7047 8.56935C39.708 8.64989 40.2355 9.03104 40.8771 9.41627C41.8861 10.0222 42.0751 10.0856 42.2762 9.8845C42.4773 9.68339 42.3852 9.57801 41.594 9.10489C41.0909 8.80395 40.6792 8.47279 40.6792 8.36889C40.6792 8.26515 40.8088 8.02025 40.9669 7.82486L41.2546 7.46936L41.9459 7.9701C42.7261 8.53537 42.8916 8.57458 43.0254 8.22594C43.0834 8.07465 42.9653 7.88743 42.7162 7.73582C42.4945 7.60087 42.1292 7.37852 41.9045 7.24161C41.4363 6.95637 41.4187 6.87141 41.7394 6.44778C41.9637 6.15159 42.0021 6.15959 42.7964 6.66932C43.5464 7.15062 44.1101 7.23557 44.1101 6.86733C44.1101 6.78842 43.5611 6.38848 42.8902 5.97858L41.6704 5.23327L40.6846 6.82812ZM26.7108 7.33245C21.6028 7.90556 17.2463 9.99364 13.624 13.605C5.2183 21.9849 5.08188 35.3292 13.3143 43.9017C16.4672 47.1849 20.4059 49.33 24.9384 50.2323C26.7992 50.6026 31.0342 50.6056 32.8912 50.2378C37.0849 49.4071 41.3484 47.1373 44.2153 44.2092C47.5063 40.8479 49.602 36.6519 50.3276 31.9711C50.5819 30.3302 50.4377 25.9455 50.0756 24.3179C49.4669 21.5799 48.1041 18.5264 46.4443 16.1824C45.5332 14.8953 43.4545 12.7733 42.0679 11.7148C37.7256 8.39977 31.9321 6.74659 26.7108 7.33245ZM11.5288 8.36742C10.8762 8.98285 10.7697 9.61771 11.1845 10.4199C11.5038 11.0371 12.296 11.6859 12.89 11.8164C13.4539 11.9402 14.2293 11.5947 14.6113 11.0492C14.8851 10.6584 14.9462 9.82977 14.7268 9.48407C14.533 9.17857 14.1207 9.71247 14.1829 10.1882C14.2886 10.9949 13.1398 11.3859 12.4418 10.7806C12.2491 10.6133 11.9824 10.2163 11.8496 9.89822C11.6238 9.35795 11.6307 9.29113 11.9543 8.87976C12.2197 8.54239 12.3999 8.45923 12.7258 8.52409C12.9596 8.57065 13.2857 8.51004 13.4503 8.38931C13.7385 8.17807 13.7374 8.1632 13.4201 7.99346C12.7942 7.65854 12.1442 7.78695 11.5288 8.36742ZM44.9269 9.65905C44.253 10.3696 43.675 11.024 43.6425 11.1136C43.5636 11.3304 44.5615 12.3565 45.1512 12.6651C45.5724 12.8857 45.6925 12.8834 46.3228 12.6426C47.1305 12.3341 47.8508 11.4908 47.9704 10.7138C48.0351 10.2933 47.9487 10.0631 47.5447 9.57981C47.2658 9.24637 46.8384 8.83728 46.595 8.67048L46.1522 8.36742L44.9269 9.65905ZM47.2142 10.4774C47.2142 11.2176 46.3656 12.0649 45.6241 12.0649C45.3372 12.0649 44.6002 11.4493 44.6002 11.2098C44.6002 11.1302 44.9802 10.6633 45.4447 10.1722L46.2891 9.27937L46.7517 9.72243C47.006 9.96619 47.2142 10.3058 47.2142 10.4774ZM31.0731 13.7136C33.0904 14.1296 34.9561 15.0129 36.477 16.2726C37.3762 17.0174 38.567 18.3376 38.8986 18.9573C39.1675 19.46 38.4735 19.3204 38.1357 18.804C37.6572 18.0724 36.2391 16.6393 35.9937 16.6393C35.7016 16.6393 34.9612 17.1224 34.9612 17.3131C34.9612 17.3933 35.1817 17.7635 35.4513 18.1357C35.944 18.8158 36.0749 19.2533 35.7857 19.2533C35.7 19.2533 35.4979 19.0641 35.3364 18.8331C35.175 18.6019 34.8893 18.2224 34.7017 17.9896L34.3605 17.5665L33.4297 17.9522C32.5537 18.3154 32.5049 18.365 32.5995 18.7957C32.6749 19.1394 32.6385 19.2533 32.4529 19.2533C32.317 19.2533 32.1592 19.1063 32.1021 18.9265C32.0451 18.7468 31.9115 18.6013 31.8053 18.6031C31.1567 18.6139 29.2647 18.9584 28.9466 19.1236C28.6958 19.2538 28.5307 19.2641 28.4565 19.1541C28.3949 19.0631 27.7063 18.8792 26.9262 18.7455L25.5078 18.5026L25.3369 18.878C25.0903 19.4188 24.7703 19.358 24.8835 18.7919C24.9698 18.3603 24.9214 18.3103 24.1325 18.0159C23.6687 17.8429 23.2354 17.6779 23.1697 17.6493C23.1041 17.6209 22.7827 17.97 22.4555 18.4253C22.1284 18.8808 21.7574 19.2533 21.6309 19.2533C21.2905 19.2533 21.3418 19.0922 21.9866 18.1347C22.3086 17.6566 22.5474 17.2472 22.5175 17.225C22.0761 16.8963 21.6188 16.6393 21.4754 16.6393C21.2418 16.6393 19.6592 18.2229 19.312 18.804C19.1643 19.0512 18.9124 19.2533 18.752 19.2533C18.376 19.2533 18.3845 19.1667 18.8225 18.5433C20.5358 16.1051 23.6229 14.1701 26.6292 13.6504C27.4807 13.5031 30.2425 13.5424 31.0731 13.7136ZM26.67 14.1342C26.3779 14.1755 26.1394 14.26 26.1397 14.3216C26.141 14.5771 27.6417 15.0244 28.5315 15.0347C29.8728 15.05 31.4748 14.5689 31.1531 14.2472C31.0142 14.1082 27.4815 14.0191 26.67 14.1342ZM23.5556 15.2611C22.6827 15.6882 22.0614 16.0884 22.0983 16.1999C22.1336 16.3069 22.3519 16.5009 22.5832 16.6315C22.9819 16.8563 23.0381 16.838 23.6527 16.2827C24.0093 15.9603 24.6412 15.4975 25.0568 15.2539C25.7912 14.8236 25.9152 14.5148 25.3534 14.516C25.2014 14.5163 24.3924 14.8517 23.5556 15.2611ZM31.8027 14.6244C31.6078 14.8193 31.687 14.9814 32.0306 15.0905C32.2159 15.1494 32.8573 15.5681 33.4559 16.0213C34.4765 16.7937 34.5691 16.831 34.9439 16.6196C35.1636 16.4957 35.3709 16.3109 35.4046 16.2092C35.4382 16.1072 34.782 15.6846 33.9461 15.2698C32.4639 14.5341 32.025 14.4019 31.8027 14.6244ZM25.5801 15.5789C24.7897 15.9991 23.5246 16.9457 23.5257 17.1159C23.5264 17.2234 24.8296 17.7829 25.0791 17.7829C25.1681 17.7829 25.4099 17.4645 25.6164 17.0754C25.8229 16.6861 26.2008 16.1389 26.456 15.8594C27.1894 15.0566 26.7981 14.9313 25.5801 15.5789ZM30.6465 15.3087C30.599 15.3854 30.7429 15.6199 30.9662 15.8296C31.1894 16.0394 31.5655 16.5464 31.8019 16.9561C32.0383 17.366 32.2561 17.7302 32.2858 17.7656C32.3753 17.8723 33.8176 17.2763 33.8176 17.1329C33.8176 16.896 32.6831 15.996 31.8564 15.5771C30.9892 15.1376 30.7808 15.0914 30.6465 15.3087ZM26.9025 16.1394C26.3305 16.7726 25.8123 17.6189 25.8123 17.92C25.8123 18.0723 26.1622 18.1571 27.6502 18.365L28.4263 18.4735V17.0853C28.4263 15.7839 28.4032 15.6911 28.0587 15.5986C27.5138 15.4526 27.5297 15.4452 26.9025 16.1394ZM29.284 15.6111C28.9432 15.6767 28.9165 15.7672 28.9188 16.855C28.9224 18.4946 28.9384 18.5093 30.4467 18.266C31.1325 18.1554 31.6937 18.0352 31.6937 17.9991C31.6937 17.5425 30.1051 15.4688 29.7929 15.5179C29.7151 15.5302 29.4861 15.572 29.284 15.6111ZM28.7453 20.7197C29.255 20.9797 29.4065 21.0051 29.4065 20.8308C29.4065 20.6144 30.3595 20.3969 31.3082 20.3969C31.6909 20.3969 31.6937 20.4101 31.6937 22.2757V24.1545H30.545C29.6658 24.1545 29.3738 24.096 29.3005 23.905C28.9178 22.9078 25.3222 22.154 25.3222 23.071C25.3222 23.3564 25.4378 23.403 27.7773 24.063C29.9391 24.6729 30.2652 24.8199 31.0133 25.5219C31.7922 26.2528 32.0641 26.8683 32.0549 27.8799C32.0445 29.0423 31.4011 30.1192 30.38 30.6835C29.7929 31.008 29.3661 31.0974 28.1812 31.1446C26.7752 31.2004 26.0397 31.0573 24.6442 30.4563C24.4465 30.3712 24.381 30.4197 24.3991 30.6373C24.4203 30.8956 24.2686 30.9407 23.2392 30.9825L22.0547 31.0305V29.0629V27.0952H23.134C24.1044 27.0952 24.2473 27.1385 24.5506 27.5241C25.0059 28.1029 26.3926 28.7253 27.2312 28.7273C28.0744 28.7293 28.8022 28.4687 28.7125 28.197C28.6756 28.0852 27.6955 27.6958 26.5346 27.3316C25.3735 26.9676 24.2475 26.61 24.0322 26.5371C23.2949 26.2875 22.2728 25.1787 22.0516 24.3884C21.819 23.5575 22.0201 22.2228 22.4759 21.5719C23.4238 20.2185 26.85 19.7529 28.7453 20.7197ZM39.2706 20.2437C41.1228 20.5861 42.5087 21.4667 43.1385 22.7013C43.6688 23.7407 43.8758 25.4069 43.6528 26.8413C43.4213 28.33 43.0312 29.1483 42.2084 29.8707C41.0449 30.8923 40.35 31.098 38.0653 31.097C36.0862 31.096 35.9922 31.0799 35.021 30.5733C33.0249 29.5317 32.2203 27.9014 32.3866 25.2355C32.5635 22.4002 33.8195 20.8954 36.4951 20.3133C37.7578 20.0386 38.1131 20.0296 39.2706 20.2437ZM21.4012 21.6108V22.9882L20.666 22.9161L19.9309 22.8441V25.6232V28.4022H20.666H21.4012V29.7092V31.0162H17.9704H14.5396V29.7182V28.4202L15.3156 28.3703L16.0916 28.3205V25.6248C16.0916 23.5881 16.0416 22.9241 15.8874 22.9088C15.7751 22.8975 15.4258 22.8792 15.1114 22.8679L14.5396 22.8475V21.6495C14.5396 20.9904 14.5886 20.4023 14.6485 20.3425C14.7083 20.2825 16.2522 20.2335 18.0794 20.2335H21.4012V21.6108ZM37.293 23.0293C36.6603 23.2122 36.5062 23.4724 36.3513 24.619C36.1683 25.9727 36.3887 27.5174 36.8396 28.0415C37.16 28.4141 37.3507 28.4839 38.0475 28.4839C38.7279 28.4839 38.9529 28.4058 39.3147 28.0439C39.7333 27.6252 39.7554 27.5224 39.7676 25.9201C39.7836 23.8629 39.6701 23.4156 39.0512 23.0955C38.5175 22.8196 38.0764 22.8029 37.293 23.0293ZM19.5036 32.8046C19.7628 33.1552 20.2967 33.7577 20.6901 34.1438L21.4053 34.8458L21.9751 34.539C22.2885 34.3702 22.5448 34.1658 22.5448 34.0848C22.5448 34.0036 22.2875 33.6002 21.973 33.1884C21.3267 32.3421 21.2767 32.1598 21.6909 32.1598C21.8538 32.1598 22.114 32.4079 22.2862 32.7277C22.8451 33.7654 23.0098 33.8337 24.0242 33.4488C24.5135 33.2632 24.9342 33.0912 24.9592 33.0667C24.9842 33.042 24.9309 32.828 24.8407 32.5909C24.6981 32.216 24.7185 32.1598 24.9964 32.1598C25.1942 32.1598 25.3521 32.3039 25.411 32.5385C25.505 32.9129 25.5169 32.9147 26.5169 32.7051C27.0729 32.5886 27.7298 32.4917 27.977 32.4899C28.2242 32.488 28.4263 32.413 28.4263 32.3231C28.4263 32.2333 28.5365 32.1598 28.6713 32.1598C28.8061 32.1598 28.9164 32.2238 28.9164 32.3021C28.9164 32.3803 29.3023 32.4922 29.7741 32.5507C30.2459 32.6092 30.937 32.6996 31.31 32.7513C31.8992 32.8332 32.0025 32.8005 32.0971 32.5027C32.1569 32.314 32.317 32.1598 32.4529 32.1598C32.6385 32.1598 32.6749 32.2736 32.5995 32.6174C32.505 33.047 32.5544 33.098 33.4047 33.4506L34.3106 33.826L34.6377 33.4421C34.8176 33.231 35.0899 32.8561 35.2432 32.609C35.3964 32.362 35.6573 32.1598 35.823 32.1598C36.154 32.1598 36.144 32.1867 35.4235 33.2511C35.1692 33.6267 34.9612 34.0011 34.9612 34.0832C34.9612 34.165 35.217 34.3699 35.5296 34.5383L36.0981 34.8443L36.6848 34.2781C37.0076 33.9667 37.5389 33.3627 37.8655 32.9358C38.192 32.5089 38.5936 32.1598 38.7581 32.1598C39.2007 32.1598 38.911 32.6099 37.5387 34.0546C33.961 37.821 28.7337 38.8845 23.8739 36.8349C23.173 36.5393 22.2581 36.0626 21.841 35.7755C20.8985 35.1271 19.1318 33.3617 18.7371 32.6741C18.4525 32.1781 18.4525 32.1599 18.7371 32.1637C18.8995 32.1658 19.2444 32.4542 19.5036 32.8046ZM27.6094 33.0668C27.4746 33.0957 27.015 33.1652 26.5883 33.2214C26.1544 33.2784 25.8126 33.4089 25.8129 33.5176C25.8141 33.8335 26.6693 35.0217 27.2387 35.499C27.6009 35.8023 27.8703 35.9084 28.0964 35.8366C28.3929 35.7425 28.4263 35.5927 28.4263 34.3544C28.4263 32.8985 28.4228 32.8932 27.6094 33.0668ZM29.069 33.0046C29.0629 33.0341 29.0446 33.6615 29.0281 34.3986C28.9992 35.6868 29.0133 35.7429 29.3884 35.837C29.6762 35.9093 29.9071 35.8148 30.268 35.4769C30.7453 35.0301 31.6937 33.6819 31.6937 33.4501C31.6937 33.3862 31.3078 33.2866 30.836 33.2284C30.3642 33.1702 29.7762 33.084 29.529 33.0368C29.2818 32.9894 29.0749 32.9748 29.069 33.0046ZM24.2194 33.9152C23.9273 34.0606 23.6884 34.2343 23.6884 34.3014C23.6884 34.5236 24.901 35.4326 25.7628 35.8564C26.8314 36.382 27.1305 36.241 26.4914 35.5132C26.2299 35.2153 25.8463 34.6698 25.639 34.3009C25.2286 33.5707 25.0237 33.5149 24.2194 33.9152ZM32.0059 33.9977C31.9019 34.2 31.5323 34.7473 31.1848 35.2142C30.8372 35.6811 30.6105 36.0989 30.6813 36.1425C30.9878 36.332 33.8176 34.6623 33.8176 34.292C33.8176 34.1761 32.5709 33.6301 32.3067 33.6301C32.2454 33.6301 32.1102 33.7955 32.0059 33.9977ZM22.3681 34.9152L21.9917 35.2199L22.7175 35.6783C23.7169 36.3093 25.2532 36.9138 25.5591 36.7965C25.9121 36.6609 25.8749 36.4493 25.4754 36.3225C25.2901 36.2637 24.6613 35.8545 24.0781 35.413C23.4948 34.9716 22.9562 34.6104 22.8811 34.6104C22.8059 34.6104 22.5751 34.7476 22.3681 34.9152ZM34.117 34.7478C34.0213 34.9896 32.4452 36.1196 31.9744 36.2841C31.6006 36.4148 31.5548 36.4852 31.7172 36.6808C31.9698 36.9852 32.4235 36.8721 33.8973 36.1374C35.4921 35.3424 35.6189 35.1956 34.9896 34.8701C34.4253 34.5783 34.1969 34.5463 34.117 34.7478ZM27.3202 36.5424C25.6581 37.1355 25.8987 37.2696 28.6605 37.2898C31.142 37.3081 31.6653 37.133 30.515 36.6697C29.4287 36.232 28.3145 36.1877 27.3202 36.5424ZM16.4592 39.5535C16.5716 39.6423 16.6634 39.9713 16.6634 40.2845C16.6634 40.7545 16.5278 40.979 15.8874 41.5697L15.1114 42.2855L15.8777 42.2871C16.6637 42.2889 17.0441 42.541 16.6435 42.7947C16.386 42.9579 14.8586 42.9919 14.4713 42.8432C14.0189 42.6697 14.1883 42.2914 15.1243 41.3848C16.0607 40.4777 16.2185 39.9804 15.607 39.8626C15.4076 39.8243 15.1569 39.9679 14.9326 40.2492C14.5608 40.7156 14.2128 40.6826 14.2128 40.1807C14.2128 39.4036 15.7327 38.9791 16.4592 39.5535ZM25.0363 39.7102C25.2451 39.9494 25.3222 40.3217 25.3222 41.0891C25.3222 41.9875 25.2638 42.1987 24.9211 42.5413C24.7005 42.7619 24.4017 42.9424 24.257 42.9424C23.9098 42.9424 23.3297 42.6269 23.081 42.3031C22.8343 41.9818 22.8098 40.2592 23.0456 39.8184C23.4066 39.1438 24.4906 39.085 25.0363 39.7102ZM37.9019 40.9716C37.9019 42.1031 37.8382 42.6286 37.6856 42.7552C37.3054 43.0706 37.085 42.6156 37.085 41.5153C37.085 40.5426 37.0659 40.4905 36.7691 40.6494C36.3464 40.8756 36.1046 40.8628 36.1054 40.6143C36.1063 40.3472 37.5712 39.1631 37.7581 39.2786C37.8372 39.3274 37.9019 40.0892 37.9019 40.9716ZM19.6646 39.4771C19.7083 39.5482 19.5332 39.9205 19.2751 40.3046C19.0171 40.6888 18.7234 41.4015 18.6222 41.8883C18.4164 42.8801 18.2189 43.0976 17.8549 42.7334C17.6451 42.5237 17.6384 42.3895 17.8108 41.8564C17.9228 41.5103 18.1929 40.9187 18.4108 40.542L18.8073 39.8571L18.0341 39.8068C17.5997 39.7787 17.2313 39.6671 17.1935 39.5524C17.1437 39.4011 17.4451 39.3482 18.3556 39.3482C19.0317 39.3482 19.6208 39.4062 19.6646 39.4771ZM22.2295 39.8791C22.7221 40.6633 22.5989 42.0371 21.989 42.5616C21.4012 43.0672 20.9853 43.0417 20.4084 42.4649C20.0188 42.0752 19.9309 41.8488 19.9309 41.2343C19.9309 40.8202 20.0374 40.2263 20.1676 39.9148C20.3886 39.3856 20.4535 39.3482 21.1503 39.3482C21.8144 39.3482 21.9327 39.4063 22.2295 39.8791ZM27.5741 41.1044C27.5362 42.5361 27.4824 42.8607 27.2826 42.8607C27.0918 42.8607 27.027 42.5988 26.9896 41.6763C26.9453 40.5833 26.7997 40.2471 26.5475 40.6552C26.3937 40.904 25.8123 40.8499 25.8123 40.5869C25.8123 40.4593 26.0696 40.1961 26.3841 40.0017C26.6986 39.8073 26.9559 39.5808 26.9559 39.4982C26.9559 39.4157 27.1054 39.3482 27.2882 39.3482C27.6045 39.3482 27.6182 39.4322 27.5741 41.1044ZM32.5049 39.6641C32.864 40.3353 32.7042 40.8427 31.9015 41.5797L31.1291 42.2889H31.9832C32.6044 42.2889 32.8373 42.351 32.8373 42.5165C32.8373 42.8295 32.4712 42.9424 31.4554 42.9424C29.9476 42.9424 29.8983 42.4379 31.2843 41.1959C32.0927 40.4715 32.2123 39.9597 31.5937 39.871C31.3727 39.8393 31.1554 39.9692 30.979 40.2386C30.8288 40.4676 30.6318 40.6552 30.5413 40.6552C30.2338 40.6552 30.1863 40.1642 30.4542 39.7553C30.679 39.4122 30.8481 39.3482 31.5284 39.3482C32.1593 39.3482 32.3727 39.4173 32.5049 39.6641ZM35.276 39.7787C35.6431 40.2453 35.7385 41.4519 35.465 42.1711C35.2481 42.7418 34.4152 43.0551 33.8783 42.7679C33.2917 42.4539 33.1371 42.0719 33.1425 40.9494C33.1484 39.7344 33.4325 39.3482 34.3211 39.3482C34.7924 39.3482 35.0172 39.4495 35.276 39.7787ZM41.0955 39.7457C41.2976 40.054 41.3156 40.2185 41.1761 40.4792C41.0357 40.7414 41.0561 40.9066 41.2693 41.232C42.0333 42.3979 39.9293 43.548 39.1273 42.4029C38.9926 42.2103 38.8821 41.9589 38.8821 41.844C38.8821 41.5163 39.435 41.6001 39.6611 41.9622C39.9261 42.3864 40.4642 42.382 40.6 41.9543C40.7379 41.5199 40.4185 41.1453 39.9104 41.1453C39.4007 41.1453 39.4949 40.7805 40.0378 40.6522C40.2891 40.5929 40.4342 40.4426 40.4342 40.2417C40.4342 39.8419 39.8643 39.7122 39.666 40.0665C39.4677 40.4209 39.0455 40.399 39.0455 40.0344C39.0455 39.5632 39.3873 39.3482 40.1363 39.3482C40.6962 39.3482 40.8869 39.4271 41.0955 39.7457ZM20.8567 39.9473C20.7967 40.0071 20.7477 40.524 20.7477 41.0959C20.7477 42.1986 20.9892 42.5353 21.485 42.1237C21.7325 41.9184 21.8253 40.6091 21.6288 40.0968C21.5288 39.8363 21.0586 39.7453 20.8567 39.9473ZM23.6942 40.1543C23.6012 40.3281 23.5251 40.7373 23.5251 41.0636C23.5251 41.3899 23.6012 41.7991 23.6942 41.9729C23.8982 42.3541 24.4318 42.3892 24.5695 42.0304C24.696 41.7011 24.6938 40.6838 24.5658 40.2059C24.444 39.7517 23.926 39.721 23.6942 40.1543ZM33.92 40.0881C33.7707 40.4773 33.7993 41.8439 33.9622 42.1007C34.2195 42.5067 34.7078 42.2373 34.8651 41.6026C35.0654 40.7944 34.8169 39.9362 34.3639 39.8705C34.1642 39.8416 33.98 39.9319 33.92 40.0881ZM29.5392 40.5344C29.5764 40.7284 29.4893 40.8185 29.2647 40.8185C28.8901 40.8185 28.6826 40.5745 28.8402 40.3194C28.9992 40.0621 29.4764 40.209 29.5392 40.5344ZM29.5405 42.4804C29.4805 42.8878 29.2616 43.0004 28.9334 42.7929C28.6146 42.5911 28.835 42.1255 29.2493 42.1255C29.5088 42.1255 29.5798 42.2121 29.5405 42.4804ZM45.4228 45.3044C45.2671 45.492 45.2785 45.725 45.4769 46.4013C45.6152 46.8735 45.7023 47.286 45.6703 47.318C45.6383 47.35 45.2323 47.2128 44.7681 47.0132C43.9358 46.655 43.9197 46.6544 43.6105 46.9637C43.301 47.2729 43.3159 47.2839 44.6825 47.7478C45.7804 48.1207 46.1565 48.3339 46.4924 48.7742C46.8328 49.2207 46.9618 49.2924 47.1469 49.1386C47.4806 48.8617 47.435 48.6564 46.9157 48.0965C46.586 47.741 46.3715 47.2362 46.1666 46.3324C45.8722 45.035 45.767 44.8896 45.4228 45.3044ZM12.4569 47.4378C11.3129 48.4169 11.1845 49.5093 12.109 50.3951C12.4727 50.7435 12.7523 50.8586 13.235 50.8586C14.0089 50.8586 14.3623 50.5896 14.0628 50.2285C13.9047 50.038 13.7774 50.024 13.4719 50.1632C12.9344 50.4081 12.2523 49.9647 12.2523 49.3703C12.2523 48.8655 12.8102 47.9063 13.2365 47.6781C13.9488 47.2969 14.7029 47.7255 14.7029 48.5115C14.7029 48.7299 14.8447 48.9972 15.0179 49.1053C15.2976 49.28 15.3448 49.2483 15.4384 48.8225C15.6368 47.9194 14.6482 46.8633 13.6044 46.8633C13.2956 46.8633 12.8918 47.0656 12.4569 47.4378ZM41.2452 48.6701C41.1863 48.7652 41.4337 49.3533 41.7947 49.9771C42.1558 50.6007 42.3894 51.111 42.3139 51.111C42.2385 51.111 41.6067 50.7742 40.9101 50.3623C39.8062 49.7096 39.5926 49.6368 39.2466 49.7944C38.8803 49.9612 38.8679 50.0032 39.086 50.3389C39.2161 50.5389 39.6403 51.2908 40.0287 52.0096C40.4172 52.7284 40.7487 53.3367 40.7655 53.3613C40.8444 53.4773 41.3327 53.1777 41.3322 53.0132C41.3321 52.9104 41.0717 52.3948 40.7536 51.8673C40.4353 51.3396 40.1971 50.8418 40.2241 50.7609C40.251 50.6801 40.8766 50.9852 41.6142 51.4393C42.7974 52.1674 42.9942 52.2401 43.288 52.0566C43.471 51.9423 43.6023 51.8114 43.5796 51.7658C43.5569 51.7203 43.1339 50.9661 42.6397 50.0901C41.7872 48.5791 41.4891 48.2754 41.2452 48.6701ZM17.8735 50.0609C16.8655 50.5582 16.3211 52.3468 16.9184 53.1994C17.4352 53.9372 18.5143 54.2436 19.3135 53.8794C19.8248 53.6464 20.4136 52.7529 20.5306 52.033C20.6739 51.1491 20.3223 50.4713 19.5348 50.1137C18.727 49.7467 18.5232 49.7402 17.8735 50.0609ZM19.305 50.7168C19.785 50.9652 19.8029 51.0116 19.7262 51.81C19.6644 52.4535 19.546 52.7299 19.2076 53.021C18.6396 53.5097 18.2185 53.4979 17.6997 52.9791C17.362 52.6414 17.3002 52.4602 17.3827 52.0482C17.5513 51.2047 18.0642 50.6139 18.7546 50.4678C18.7814 50.4623 19.029 50.5742 19.305 50.7168ZM35.1871 51.2715C34.8717 51.3989 34.831 51.585 34.7228 53.3971C34.6576 54.4894 34.6423 55.4212 34.6887 55.4675C34.7352 55.5139 34.9257 55.5035 35.1123 55.4444C35.3461 55.37 35.4513 55.1986 35.4513 54.8913C35.4513 54.5063 35.5454 54.4202 36.1456 54.2547C36.7699 54.0828 36.8672 54.0959 37.1112 54.3844C37.4008 54.727 38.0653 54.825 38.0653 54.5251C38.0653 54.3148 35.7669 51.106 35.6273 51.1213C35.5755 51.1271 35.3775 51.1947 35.1871 51.2715ZM22.8208 53.29C22.4747 55.428 22.476 55.5221 22.8516 55.5221C23.1104 55.5221 23.1903 55.3114 23.363 54.1743C23.642 52.3363 23.8407 52.0596 23.8469 53.5004C23.8533 54.9952 23.9864 55.6394 24.3151 55.7655C24.6644 55.8997 24.9095 55.5391 25.4499 54.0969C25.6942 53.445 25.9405 52.9109 25.9975 52.9099C26.0544 52.909 25.9993 53.4411 25.8752 54.0926C25.5633 55.7281 25.5782 56.0122 25.9757 56.0122C26.1554 56.0122 26.3035 55.9204 26.305 55.808C26.3065 55.6958 26.4454 54.8319 26.6135 53.8884C26.7816 52.9449 26.9092 52.1615 26.8968 52.1476C26.8843 52.1338 26.6285 52.0972 26.3282 52.0661C25.7834 52.0101 25.7811 52.0129 25.1975 53.4386C24.876 54.2244 24.5818 54.8361 24.5437 54.798C24.5056 54.76 24.4262 54.0436 24.3674 53.2058L24.2602 51.6828L23.6785 51.634L23.0967 51.5852L22.8208 53.29ZM29.1454 53.1941C29.4302 56.2205 29.4212 56.1756 29.7493 56.1756C30.0074 56.1756 30.06 56.0544 30.06 55.4595C30.06 54.7035 30.2453 54.5497 31.1628 54.5442C32.0755 54.5386 32.4826 53.3321 31.8452 52.5218C31.533 52.1246 31.4111 52.0913 30.2742 52.0913H29.0417L29.1454 53.1941ZM36.1151 52.8431C36.5005 53.4667 36.3931 53.7168 35.7372 53.7226C35.5068 53.7245 35.4513 53.5821 35.4513 52.9898C35.4513 52.5855 35.5188 52.2547 35.6013 52.2547C35.6839 52.2547 35.9151 52.5195 36.1151 52.8431ZM31.2853 53.3127C31.2853 53.6905 31.1895 53.8325 30.8551 53.9501C30.1925 54.1831 29.8966 53.9862 29.8966 53.3123V52.726L30.5909 52.7763C31.241 52.8232 31.2853 52.8575 31.2853 53.3127Z" fill="#0174FF"/>
</svg>
