<svg width="48" height="50" viewBox="0 0 48 50" fill="none" xmlns="http://www.w3.org/2000/svg">
<path d="M32.6758 0H11.8269C8.96313 0 6.65097 2.25952 6.65097 5.123V20.5513H34.0866C37.4675 20.5513 40.2301 23.2796 40.2301 26.6606V38.1575C40.2301 41.538 37.4675 44.3189 34.0866 44.3189H6.66692C6.74947 47.099 9.01596 49.3339 11.8269 49.3339H42.2898C45.1533 49.3339 47.4801 46.9845 47.4801 44.1206V14.819L32.6758 0ZM24.1338 14.6638H13.184C12.5793 14.6638 12.0892 14.1498 12.0892 13.5451C12.0892 13.2425 12.2114 12.9579 12.4096 12.7601C12.6078 12.5619 12.8815 12.4291 13.1841 12.4291H24.1328C24.7375 12.4291 25.2277 12.9419 25.2277 13.5466C25.2281 14.151 24.7379 14.6638 24.1332 14.6638L24.1338 14.6638ZM24.1832 8.06782H13.2345C12.6298 8.06782 12.1396 7.56709 12.1396 6.96238C12.1396 6.65984 12.2619 6.39584 12.4601 6.19804C12.6582 5.99985 12.932 5.88771 13.2345 5.88771H24.1833C24.7879 5.88771 25.2781 6.37326 25.2781 6.978C25.2781 7.5823 24.7879 8.06789 24.1833 8.06789L24.1832 8.06782ZM31.6724 15.754V3.66689L43.7924 15.754H31.6724Z" fill="#7800FF"/>
<path d="M37.5591 27.1103C37.5591 24.9325 35.7936 23.1675 33.6163 23.1675H3.9428C1.76542 23.1675 0 24.9329 0 27.1103V37.759C0 39.9364 1.76542 41.7018 3.9428 41.7018H33.6163C35.794 41.7018 37.5591 39.9364 37.5591 37.759V27.1103ZM11.3624 36.4096C8.52774 36.4096 7.3285 34.4581 7.31764 32.4739C7.30673 30.4787 8.60409 28.451 11.3624 28.451C12.3982 28.451 13.3793 28.8435 14.1643 29.6175L13.2049 30.5442C12.7034 30.0536 12.0275 29.8247 11.3624 29.8247C9.51994 29.8247 8.72401 31.1983 8.73497 32.4739C8.74588 33.7387 9.47634 35.0578 11.3624 35.0578C12.0275 35.0578 12.7797 34.7852 13.2812 34.2837L14.2625 35.2759C13.4775 36.0499 12.4635 36.4097 11.3624 36.4097L11.3624 36.4096ZM18.0779 36.4314C16.5192 36.4314 15.32 35.9517 14.7531 34.5563L15.9523 33.9348C16.2903 34.7743 17.1734 35.1451 18.1001 35.1451C19.0046 35.1451 19.855 34.8289 19.855 34.0003C19.855 33.2808 19.1027 32.9864 18.0888 32.8774C16.5301 32.692 15.091 32.2777 15.091 30.566C15.091 28.996 16.6391 28.3528 18.0456 28.342C19.2336 28.342 20.4655 28.6799 21.0433 29.8574L19.8986 30.4461C19.637 30.01 18.9174 29.5957 18.0889 29.5957C17.0208 29.5957 16.5084 30.0427 16.5084 30.6097C16.5084 31.2747 17.2934 31.46 18.2092 31.5691C19.8005 31.7653 21.2833 32.1796 21.2833 34.0003C21.2833 35.7011 19.7787 36.4316 18.078 36.4316L18.0779 36.4314ZM26.5381 36.3049H25.0446L21.8724 28.6188H23.4856L25.786 34.5605L28.0973 28.6188H29.7109L26.5381 36.3049Z" fill="#7800FF"/>
</svg>
