<svg width="80" height="79" viewBox="0 0 80 79" fill="none" xmlns="http://www.w3.org/2000/svg">
<g filter="url(#filter0_dd_0_1)">
<rect x="10.1533" y="2.26367" width="59.6452" height="59.6452" rx="14.9113" fill="white"/>
</g>
<path d="M51.2155 29.8006V34.3326L52.1442 33.4041C52.3375 33.2106 52.6511 33.2128 52.8459 33.4076L53.5382 34.0999C53.7361 34.2977 53.7334 34.6101 53.5391 34.8042L50.9261 37.4174C50.54 37.8032 49.9144 37.8032 49.5284 37.4174L46.9154 34.8042C46.723 34.6119 46.7215 34.2947 46.9163 34.0999L47.6085 33.4076C47.8064 33.2097 48.1174 33.2113 48.3102 33.4041L49.2389 34.3326V30.7889H30.4618V34.3326L31.3905 33.4041C31.5837 33.2106 31.8974 33.2128 32.0922 33.4076L32.7845 34.0999C32.9823 34.2977 32.9797 34.6101 32.7853 34.8042L30.1723 37.4174C29.7863 37.8032 29.1607 37.8032 28.7747 37.4174L26.1617 34.8042C25.9693 34.6119 25.9678 34.2947 26.1625 34.0999L26.8548 33.4076C27.0527 33.2097 27.3637 33.2113 27.5565 33.4041L28.4852 34.3326V29.8006C28.4852 29.2549 28.9277 28.8124 29.4735 28.8124H38.8621V24.858C38.8621 24.5858 39.0853 24.3652 39.3608 24.3652H40.3398C40.6195 24.3652 40.8386 24.5858 40.8386 24.858V28.8124H50.2272C50.7729 28.8124 51.2154 29.2549 51.2154 29.8006H51.2155ZM34.4149 15.9648H45.2859C45.8317 15.9648 46.2742 16.4074 46.2742 16.9531V21.8945C46.2742 22.4402 45.8317 22.8827 45.2859 22.8827H34.4149C33.8692 22.8827 33.4266 22.4402 33.4266 21.8945V16.9531C33.4266 16.4074 33.8692 15.9648 34.4149 15.9648ZM24.0381 40.6716H34.9091C35.4548 40.6716 35.8973 41.1141 35.8973 41.6599V46.6012C35.8973 47.147 35.4548 47.5895 34.9091 47.5895H24.0381C23.4923 47.5895 23.0498 47.147 23.0498 46.6012V41.6599C23.0498 41.1141 23.4923 40.6716 24.0381 40.6716ZM44.7918 40.6716H55.6627C56.2085 40.6716 56.651 41.1141 56.651 41.6599V46.6012C56.651 47.147 56.2085 47.5895 55.6627 47.5895H44.7918C44.246 47.5895 43.8035 47.147 43.8035 46.6012V41.6599C43.8035 41.1141 44.246 40.6716 44.7918 40.6716Z" fill="#0174FF"/>
<defs>
<filter id="filter0_dd_0_1" x="0.833755" y="0.399759" width="78.2842" height="78.2837" filterUnits="userSpaceOnUse" color-interpolation-filters="sRGB">
<feFlood flood-opacity="0" result="BackgroundImageFix"/>
<feColorMatrix in="SourceAlpha" type="matrix" values="0 0 0 0 0 0 0 0 0 0 0 0 0 0 0 0 0 0 127 0" result="hardAlpha"/>
<feMorphology radius="1.86391" operator="erode" in="SourceAlpha" result="effect1_dropShadow_0_1"/>
<feOffset dy="3.72783"/>
<feGaussianBlur stdDeviation="3.72783"/>
<feColorMatrix type="matrix" values="0 0 0 0 0 0 0 0 0 0 0 0 0 0 0 0 0 0 0.07 0"/>
<feBlend mode="normal" in2="BackgroundImageFix" result="effect1_dropShadow_0_1"/>
<feColorMatrix in="SourceAlpha" type="matrix" values="0 0 0 0 0 0 0 0 0 0 0 0 0 0 0 0 0 0 127 0" result="hardAlpha"/>
<feMorphology radius="1.86391" operator="erode" in="SourceAlpha" result="effect2_dropShadow_0_1"/>
<feOffset dy="7.45565"/>
<feGaussianBlur stdDeviation="5.59174"/>
<feColorMatrix type="matrix" values="0 0 0 0 0 0 0 0 0 0 0 0 0 0 0 0 0 0 0.12 0"/>
<feBlend mode="normal" in2="effect1_dropShadow_0_1" result="effect2_dropShadow_0_1"/>
<feBlend mode="normal" in="SourceGraphic" in2="effect2_dropShadow_0_1" result="shape"/>
</filter>
</defs>
</svg>

