<svg width="42" height="42" viewBox="0 0 42 42" fill="none" xmlns="http://www.w3.org/2000/svg">
<path fill-rule="evenodd" clip-rule="evenodd" d="M12.4982 12.2528V10.9094C12.4982 10.5325 12.805 10.2262 13.1814 10.2262H14.5886C14.9655 10.2262 15.2706 10.5325 15.2718 10.9088L15.2782 12.1936C15.5857 12.2811 15.8829 12.4033 16.1621 12.5576C17.3182 13.2017 18.0017 14.3193 18.2228 15.606C18.2569 15.8088 18.2036 16.0057 18.0708 16.162C17.939 16.319 17.7543 16.4059 17.5489 16.4059H16.2584C15.9547 16.4059 15.6922 16.211 15.6041 15.9202C15.1537 14.4295 12.3202 14.2338 12.3202 16.0835C12.3202 17.0923 13.7234 17.4882 14.4833 17.7653C16.5428 18.5167 18.3051 19.3231 18.3051 21.8272C18.3051 23.7554 17.0589 25.245 15.2716 25.8272V27.1699C15.2716 27.5468 14.9653 27.8537 14.5884 27.8537H13.1811C12.8048 27.8537 12.4997 27.5468 12.4979 27.1711L12.4915 25.8864C12.184 25.7988 11.8868 25.6772 11.6067 25.5214C10.4507 24.8779 9.76802 23.7597 9.5466 22.473C9.51189 22.2709 9.56585 22.0742 9.69771 21.917C9.83014 21.7601 10.0148 21.6737 10.2202 21.6737H11.5107C11.8144 21.6737 12.0769 21.8686 12.165 22.1594C12.6154 23.6495 15.4483 23.8458 15.4483 21.9961C15.4483 20.9267 13.8295 20.5144 13.0361 20.2221C11.0533 19.4937 9.46402 18.62 9.46402 16.2525C9.46402 14.3243 10.7103 12.8347 12.4976 12.2525L12.4982 12.2528ZM25.9441 26.2962C27.6232 25.6083 28.4482 26.2241 28.9345 26.9056C30.4754 26.3746 31.1644 27.0529 31.5127 27.3741C31.5795 27.4108 31.7624 27.6238 32.0937 27.54C33.3143 27.2326 34.2054 28.0007 34.2948 28.8012L35.0958 36.0092C35.1545 36.5381 35.1119 37.0002 34.9806 37.5153L34.4832 39.468C34.3237 40.0935 33.8082 40.5284 33.1655 40.5804L25.1868 41.2245C24.6521 41.2682 24.1716 41.0442 23.8595 40.6069L21.183 36.8502C20.8426 36.3721 20.5944 35.9354 20.359 35.398L18.0459 30.1326C16.8003 27.6749 19.6396 26.3957 20.8329 28.499L23.162 32.4943L21.4815 21.3499C21.1469 19.2904 23.8922 18.8298 24.2886 20.819L25.3225 26.0156C25.3983 26.3925 25.7586 26.3721 25.9441 26.2963L25.9441 26.2962ZM5.23113 2.49966C5.80815 2.49966 6.27604 2.9667 6.27604 3.57146C6.27604 4.14847 5.80843 4.61637 5.23113 4.61637C4.62641 4.61637 4.15934 4.14875 4.15934 3.57146C4.15934 2.96673 4.62638 2.49966 5.23113 2.49966ZM8.17222 2.49966C8.75011 2.49966 9.21713 2.9667 9.21713 3.57146C9.21713 4.14847 8.7501 4.61637 8.17222 4.61637C7.56749 4.61637 7.10043 4.14875 7.10043 3.57146C7.10043 2.96673 7.56746 2.49966 8.17222 2.49966ZM11.0862 2.49966C11.6909 2.49966 12.158 2.9667 12.158 3.57146C12.158 4.14847 11.691 4.61637 11.0862 4.61637C10.5083 4.61637 10.0413 4.14875 10.0413 3.57146C10.0413 2.96673 10.5083 2.49966 11.0862 2.49966ZM21.4218 2.52738H36.3203C36.8973 2.52738 37.3929 2.99441 37.3929 3.57169C37.3929 4.17642 36.8976 4.64348 36.3203 4.64348H21.4218C20.8448 4.64348 20.3769 4.17645 20.3769 3.57169C20.3769 2.99467 20.8445 2.52738 21.4218 2.52738ZM3.74748 0.0527344H38.9871C40.6361 0.0527344 41.9556 1.39927 41.9556 3.02123V33.5568C41.9556 35.2058 40.6358 36.5253 38.9871 36.5253H37.4372C36.8651 36.5253 36.7662 36.0652 36.7391 35.6154L36.5906 33.1661C36.6627 32.8753 36.9156 32.6766 37.2155 32.6766H37.4754C37.8047 32.6766 38.1072 32.375 38.1072 32.0448V7.66652C38.1072 7.30947 37.8056 7.00696 37.4754 7.00696H5.28645C4.92939 7.00696 4.62688 7.30947 4.62688 7.66652V32.0448C4.62688 32.3741 4.92939 32.6766 5.28645 32.6766H15.0776C15.5073 32.6766 15.9438 32.8292 16.1257 33.2172L17.2002 35.5089C17.3052 35.7315 17.3609 35.9573 17.2477 36.1767C17.1351 36.396 16.9221 36.5253 16.6762 36.5253H3.74779C2.12584 36.5253 0.779297 35.2055 0.779297 33.5568V3.02123C0.779297 1.39927 2.12584 0.0527344 3.74779 0.0527344H3.74748Z" fill="#0174FF"/>
</svg>

