<svg width="24" height="23" viewBox="0 0 24 23" fill="none" xmlns="http://www.w3.org/2000/svg">
<path d="M22.5433 17.4456L18.1338 14.5048C17.5742 14.1346 16.8241 14.2564 16.4104 14.7847L15.126 16.4363C14.9609 16.6539 14.6608 16.7171 14.422 16.5844L14.1777 16.4497C13.3677 16.0082 12.36 15.4585 10.3295 13.4272C8.29897 11.3958 7.74824 10.3872 7.30676 9.57868L7.17279 9.33433C7.03831 9.09556 7.10025 8.7942 7.31799 8.6278L8.96835 7.34365C9.49641 6.92988 9.61838 6.17994 9.24863 5.62015L6.308 1.21034C5.92906 0.640291 5.1688 0.469167 4.58216 0.821839L2.73826 1.92955C2.1589 2.27018 1.73385 2.82184 1.55223 3.46894C0.888242 5.88841 1.38775 10.0641 7.53841 16.2159C12.4311 21.1086 16.0735 22.4243 18.5771 22.4243C19.1532 22.4268 19.7272 22.3518 20.2834 22.2014C20.9306 22.02 21.4823 21.5949 21.8227 21.0153L22.9314 19.1724C23.2846 18.5856 23.1135 17.8248 22.5433 17.4456ZM22.3058 18.7998L21.1996 20.6439C20.9552 21.0622 20.5584 21.3698 20.0924 21.5022C17.8589 22.1154 13.957 21.6075 8.05209 15.7022C2.1472 9.79686 1.63936 5.89497 2.25254 3.66104C2.38511 3.19438 2.69304 2.79704 3.11184 2.55222L4.95574 1.44596C5.21028 1.29279 5.54025 1.36704 5.70468 1.6144L7.30208 4.01282L8.64281 6.02384C8.80337 6.26666 8.75062 6.5921 8.52156 6.77177L6.87081 8.05592C6.36845 8.44008 6.22499 9.13517 6.53429 9.68683L6.66537 9.92501C7.12935 10.776 7.7062 11.8347 9.81221 13.9405C11.9182 16.0463 12.9765 16.6233 13.8271 17.0872L14.0656 17.2187C14.6172 17.5279 15.3123 17.3845 15.6964 16.8821L16.9804 15.2313C17.1601 15.0023 17.4854 14.9496 17.7283 15.11L22.1374 18.0508C22.385 18.2152 22.4592 18.5453 22.3058 18.7998Z" fill="#016DFF" stroke="#016FFF" stroke-width="0.828007"/>
<path d="M13.6741 4.27103C17.0811 4.27481 19.842 7.03598 19.8458 10.4432C19.8458 10.6437 20.0083 10.8062 20.2088 10.8062C20.4094 10.8062 20.5719 10.6437 20.5719 10.4432C20.5677 6.63511 17.4819 3.54909 13.6741 3.54492C13.4736 3.54492 13.3111 3.70745 13.3111 3.90798C13.3111 4.1085 13.4736 4.27103 13.6741 4.27103Z" fill="#016DFF" stroke="#016FFF" stroke-width="0.828007"/>
<path d="M13.6741 6.44876C15.8786 6.45136 17.665 8.2379 17.6676 10.4425C17.6676 10.643 17.8301 10.8056 18.0306 10.8056C18.2311 10.8056 18.3936 10.643 18.3936 10.4425C18.3906 7.83703 16.2794 5.72563 13.6741 5.72266C13.4736 5.72266 13.3111 5.88519 13.3111 6.08571C13.3111 6.28623 13.4736 6.44876 13.6741 6.44876Z" fill="#016DFF" stroke="#016FFF" stroke-width="0.828007"/>
<path d="M13.6741 8.62845C14.6761 8.62964 15.4881 9.44169 15.4893 10.4438C15.4893 10.6443 15.6519 10.8069 15.8523 10.8069C16.0528 10.8069 16.2154 10.6443 16.2154 10.4438C16.2138 9.04086 15.0769 7.90392 13.6741 7.90234C13.4736 7.90234 13.3111 8.06487 13.3111 8.2654C13.3111 8.46592 13.4736 8.62845 13.6741 8.62845Z" fill="#016DFF" stroke="#016FFF" stroke-width="0.828007"/>
</svg>





