<svg width="37" height="38" viewBox="0 0 37 38" fill="none" xmlns="http://www.w3.org/2000/svg">
<path fill-rule="evenodd" clip-rule="evenodd" d="M32.8461 35.7291C29.02 39.5551 16.754 34.5256 10.0641 27.8357C3.37358 21.1452 -1.65585 8.88031 2.17072 5.05374L5.53759 1.68687C6.53415 0.690313 8.1499 0.690313 9.14646 1.68687C9.20643 1.74684 9.26337 1.80977 9.31707 1.87541L15.8129 9.81503C16.6431 10.8297 16.5693 12.3083 15.6423 13.2354L12.0661 16.8115C11.8609 17.0168 11.82 17.3348 11.9668 17.5852C13.0741 19.4743 14.2712 21.0599 15.5556 22.3443C16.8399 23.6286 18.4255 24.8258 20.3146 25.933C20.5651 26.0798 20.883 26.039 21.0883 25.8337L24.6645 22.2575C25.5915 21.3305 27.0701 21.2567 28.0848 22.0869L36.0244 28.5828C37.1152 29.4752 37.276 31.0829 36.3836 32.1737C36.3299 32.2393 36.2729 32.3023 36.2129 32.3622L32.8461 35.7291Z" fill="black"/>
</svg>
