<svg width="229" height="46" viewBox="0 0 229 46" fill="none" xmlns="http://www.w3.org/2000/svg">
<path d="M10.3652 21.9732V8.37073H18.1199C19.264 8.37073 20.3658 8.45548 21.4252 8.62498C22.4846 8.79448 23.4168 9.13348 24.222 9.64198C25.0271 10.1081 25.6627 10.7861 26.1288 11.676C26.6373 12.5659 26.8916 13.7312 26.8916 15.172C26.8916 16.6127 26.6373 17.778 26.1288 18.6679C25.6627 19.5578 25.0271 20.257 24.222 20.7655C23.4168 21.2316 22.4846 21.5494 21.4252 21.7189C20.3658 21.8884 19.264 21.9732 18.1199 21.9732H10.3652ZM0.385845 0.616042V46H10.3652V29.7279H20.8531C23.6923 29.7279 26.1077 29.3253 28.0993 28.5202C30.0909 27.6727 31.7012 26.5709 32.9301 25.2149C34.2013 23.8589 35.1124 22.3122 35.6633 20.5748C36.2565 18.7951 36.5532 16.9941 36.5532 15.172C36.5532 13.3074 36.2565 11.5065 35.6633 9.76911C35.1124 8.03172 34.2013 6.48503 32.9301 5.12902C31.7012 3.77301 30.0909 2.69243 28.0993 1.8873C26.1077 1.0398 23.6923 0.616042 20.8531 0.616042H0.385845ZM52.7612 21.1469V8.37073H63.6941C65.9823 8.37073 67.6985 8.87923 68.8427 9.89624C69.9868 10.8709 70.5589 12.4599 70.5589 14.6635C70.5589 16.9517 69.9868 18.6044 68.8427 19.6214C67.6985 20.6384 65.9823 21.1469 63.6941 21.1469H52.7612ZM42.7818 0.616042V46H52.7612V28.2659H62.7406C65.2408 28.2659 67.0417 28.8168 68.1435 29.9186C69.2452 31.0203 69.9656 32.7577 70.3046 35.1307C70.5589 36.9529 70.7495 38.8598 70.8767 40.8514C71.0038 42.843 71.3428 44.5592 71.8937 46H81.8731C81.4069 45.3644 81.0467 44.6016 80.7925 43.7117C80.5806 42.7795 80.4111 41.8048 80.284 40.7878C80.1992 39.7708 80.1357 38.775 80.0933 37.8004C80.0509 36.8257 80.0086 35.9782 79.9662 35.2579C79.8814 34.1137 79.7119 32.9696 79.4577 31.8255C79.2458 30.6813 78.8856 29.6431 78.3771 28.7109C77.8686 27.7362 77.2118 26.9099 76.4067 26.2319C75.6015 25.5115 74.5845 24.9818 73.3556 24.6428V24.5157C75.8981 23.4987 77.7203 22.0156 78.822 20.0663C79.9662 18.117 80.5382 15.8076 80.5382 13.1379C80.5382 11.4006 80.2204 9.7903 79.5848 8.30716C78.9915 6.78165 78.1017 5.44683 76.9152 4.3027C75.771 3.15856 74.3726 2.26868 72.72 1.63305C71.1097 0.955046 69.2876 0.616042 67.2536 0.616042H42.7818ZM100.095 28.4566L106.007 11.8031H106.134L111.854 28.4566H100.095ZM101.049 0.616042L83.8867 46H93.9297L97.4892 35.8935H114.461L117.893 46H128.254L111.282 0.616042H101.049ZM150.353 46L165.417 0.616042H155.12L144.886 32.5247H144.759L134.653 0.616042H124.419L139.102 46H150.353ZM169.287 0.616042V46H179.266V0.616042H169.287ZM198.013 37.6097V9.00636H205.132C207.589 9.00636 209.645 9.36655 211.297 10.0869C212.992 10.7649 214.348 11.7608 215.365 13.0744C216.382 14.388 217.103 15.9771 217.526 17.8416C217.992 19.6637 218.226 21.7189 218.226 24.0072C218.226 26.5074 217.908 28.6261 217.272 30.3635C216.636 32.1009 215.789 33.5205 214.73 34.6222C213.67 35.6816 212.463 36.4444 211.106 36.9105C209.75 37.3766 208.352 37.6097 206.911 37.6097H198.013ZM188.033 0.616042V46H207.611C211.085 46 214.094 45.4279 216.636 44.2838C219.221 43.0973 221.361 41.487 223.056 39.453C224.794 37.419 226.086 35.0036 226.934 32.2068C227.781 29.4101 228.205 26.359 228.205 23.0538C228.205 19.2824 227.675 15.9983 226.616 13.2015C225.599 10.4047 224.158 8.0741 222.294 6.20958C220.471 4.34507 218.289 2.94669 215.747 2.01443C213.246 1.08217 210.534 0.616042 207.611 0.616042H188.033Z" fill="url(#paint0_linear_652_1194)"/>
<defs>
<linearGradient id="paint0_linear_652_1194" x1="-4" y1="22.5012" x2="238" y2="22.5012" gradientUnits="userSpaceOnUse">
<stop stop-color="#FF3E1C"/>
<stop offset="1" stop-color="#FF359A"/>
</linearGradient>
</defs>
</svg>
