<svg width="71" height="71" viewBox="0 0 71 71" fill="none" xmlns="http://www.w3.org/2000/svg">
<path d="M61.2603 0H9.73968C4.3606 0 0 4.3606 0 9.73968V61.2603C0 66.6394 4.3606 71 9.73968 71H61.2603C66.6394 71 71 66.6394 71 61.2603V9.73968C71 4.3606 66.6394 0 61.2603 0Z" fill="url(#paint0_linear_713_3475)"/>
<path d="M16.9424 9.45508H45.3232C48.8257 9.45508 52.1848 10.8464 54.6614 13.3231C57.138 15.7997 58.5294 19.1588 58.5294 22.6613C58.5294 26.1638 57.138 29.5228 54.6614 31.9995C52.1848 34.4761 48.8257 35.8675 45.3232 35.8675H16.9424V9.45508Z" fill="#F0F0F3"/>
<path d="M16.9313 40.8349V61.9929L38.2053 40.7168L16.9313 40.8349Z" fill="#F0F0F3"/>
<defs>
<linearGradient id="paint0_linear_713_3475" x1="0" y1="35.5011" x2="71" y2="35.5011" gradientUnits="userSpaceOnUse">
<stop stop-color="#FF3E1C"/>
<stop offset="1" stop-color="#FF359A"/>
</linearGradient>
</defs>
</svg>
