<svg width="40" height="40" viewBox="0 0 50 58" fill="none" xmlns="http://www.w3.org/2000/svg">
<path fill-rule="evenodd" clip-rule="evenodd" d="M42.25 27.9921C38.1953 43.1241 34.7869 55.8452 34.6762 56.2611L34.4749 57.0175H29.2384C25.9961 57.0175 24.0021 56.9431 24.0021 56.8223C24.0021 56.7148 26.2696 48.1662 29.041 37.8253C31.8123 27.4844 34.0528 18.9967 34.0197 18.9636C33.9868 18.9306 30.5244 21.1258 26.3257 23.8421C22.1269 26.5584 18.6565 28.7454 18.6133 28.7024C18.5077 28.5966 21.1646 18.8352 21.3508 18.6458C21.6195 18.3727 49.5027 0.359564 49.5632 0.420074C49.5959 0.452749 46.3049 12.86 42.25 27.9921ZM25.8549 40.6323L21.4809 57.0153L10.7404 57.0163C4.8331 57.0169 0 56.983 0 56.9409C0 56.4792 4.32563 40.9218 4.50151 40.7507C4.82059 40.4407 30.1156 24.136 30.1791 24.1995C30.2066 24.227 28.2606 31.6216 25.8549 40.6323Z" fill="#0174FF"/>
</svg>
