<svg width="41" height="38" viewBox="0 0 41 38" fill="none" xmlns="http://www.w3.org/2000/svg">
<path d="M36.3712 0.0859375H4.52484C2.46337 0.0859375 0.793213 1.75699 0.793213 3.81757V23.9709C0.793213 26.0319 2.46381 27.7025 4.52484 27.7025H8.19455L5.39585 37.4675L18.3644 27.7025H36.3717C38.4323 27.7025 40.1029 26.0315 40.1029 23.9709V3.81757C40.1029 1.75654 38.4318 0.0859375 36.3712 0.0859375H36.3712ZM8.94702 16.5919C7.45726 16.5919 6.24884 15.3839 6.24884 13.8946C6.24884 12.4044 7.45685 11.1968 8.94702 11.1968C10.4372 11.1968 11.6448 12.4044 11.6448 13.8946C11.6448 15.3836 10.4368 16.5919 8.94702 16.5919ZM20.4478 16.5919C18.9585 16.5919 17.7497 15.3839 17.7497 13.8946C17.7497 12.4044 18.9581 11.1968 20.4478 11.1968C21.9376 11.1968 23.1456 12.4044 23.1456 13.8946C23.1456 15.3836 21.9376 16.5919 20.4478 16.5919ZM31.949 16.5919C30.4588 16.5919 29.2508 15.3839 29.2508 13.8946C29.2508 12.4044 30.4584 11.1968 31.949 11.1968C33.4388 11.1968 34.6468 12.4044 34.6468 13.8946C34.6468 15.3836 33.4388 16.5919 31.949 16.5919Z" fill="#0174FF"/>
</svg>
