<svg width="37" height="34" viewBox="0 0 37 34" fill="none" xmlns="http://www.w3.org/2000/svg">
<path d="M36.1432 24.7229L31.158 22.8535L22.1611 26.2419C20.9927 26.7091 19.7074 26.9039 18.5 26.9039C17.2536 26.9039 16.0074 26.6703 14.8389 26.2419L5.84209 22.8535L0.85684 24.7229C0.0388082 25.0345 0 25.7746 0 26.0082C0 26.2418 0.077971 26.9819 0.85684 27.2934L15.8126 32.9407C17.5264 33.6028 19.4737 33.6028 21.1874 32.9407L36.1432 27.2934C36.9612 26.9818 37 26.2418 37 26.0082C37 25.7746 36.922 25.0345 36.1432 24.7229H36.1432Z" fill="#0174FF"/>
<path d="M36.1432 15.4143L31.158 13.5449L22.1611 16.9333C20.9927 17.4005 19.7074 17.5953 18.5 17.5953C17.2536 17.5953 16.0074 17.3617 14.8389 16.9333L5.84209 13.5449L0.85684 15.4143C0.0388082 15.7259 0 16.466 0 16.6996C0 16.9332 0.077971 17.6733 0.85684 17.9848L15.8126 23.6321C17.5264 24.2942 19.4737 24.2942 21.1874 23.6321L36.1432 17.9848C36.9612 17.6732 37 16.9332 37 16.6996C37 16.466 36.922 15.7259 36.1432 15.4143H36.1432Z" fill="#0174FF"/>
<path d="M0.85684 8.71436L15.8126 14.3616C17.5264 15.0237 19.4737 15.0237 21.1874 14.3616L36.1432 8.71436C36.9612 8.40275 37 7.62384 37 7.4291C37 7.19546 36.922 6.45542 36.1432 6.14384L21.1874 0.496552C19.4736 -0.165517 17.5263 -0.165517 15.8126 0.496552L0.85684 6.14384C0.0388082 6.45545 0 7.19549 0 7.4291C0 7.62389 0.0779711 8.40278 0.85684 8.71436Z" fill="#0174FF"/>
</svg>
