<svg width="14" height="14" viewBox="0 0 14 14" fill="none" xmlns="http://www.w3.org/2000/svg">
<path d="M6.99906 2.77589e-05C5.14275 2.77589e-05 3.36259 0.73746 2.04998 2.05001C0.737432 3.36256 0 5.14294 0 6.99909C0 8.85524 0.737432 10.6356 2.04998 11.9482C3.36254 13.2607 5.14291 13.9982 6.99906 13.9982C8.85521 13.9982 10.6355 13.2607 11.9481 11.9482C13.2607 10.6356 13.9981 8.85524 13.9981 6.99909C13.9981 5.77053 13.6747 4.56355 13.0604 3.49955C12.4461 2.43554 11.5626 1.55199 10.4986 0.937712C9.43458 0.32343 8.2276 0 6.99903 0L6.99906 2.77589e-05ZM7.02391 11.5405C6.24212 11.9183 5.03328 11.5933 5.24431 10.8061L6.38446 6.55109C6.78327 5.06256 5.68641 5.55067 5.19517 5.76625H5.19506C5.49558 5.31459 5.91155 4.95158 6.39977 4.71505C7.18156 4.33719 8.3904 4.66222 8.17948 5.44943L7.03921 9.70471C6.6404 11.1932 7.73726 10.7051 8.2285 10.4896V10.4894C7.9281 10.9412 7.51212 11.3041 7.02391 11.5406L7.02391 11.5405ZM8.77976 3.21017C8.72996 3.39569 8.60867 3.55387 8.44225 3.64989C8.27593 3.74601 8.07827 3.77194 7.89274 3.72225C7.70722 3.67256 7.54903 3.55116 7.45291 3.38485C7.35689 3.21853 7.33085 3.02087 7.38054 2.83534C7.43034 2.64971 7.55164 2.49152 7.71805 2.39551C7.88437 2.29949 8.08203 2.27345 8.26756 2.32314C8.45309 2.37283 8.61127 2.49424 8.70729 2.66054C8.80341 2.82697 8.82945 3.02463 8.77976 3.21017H8.77976Z" fill="#60ACF8"/>
</svg>
