<svg width="23" height="23" viewBox="0 0 23 23" fill="none" xmlns="http://www.w3.org/2000/svg">
<path d="M18.8885 15.0221H22.2648V20.4243C22.2648 20.9616 22.0513 21.4769 21.6714 21.8569C21.2915 22.2367 20.7762 22.4502 20.2389 22.4502H2.68193C2.14465 22.4502 1.62932 22.2367 1.24936 21.8569C0.869551 21.4769 0.656006 20.9616 0.656006 20.4243V15.0221H4.03234V19.0737H18.8882L18.8885 15.0221ZM6.75174 7.925H9.43488V16.3727H13.4865V7.925H16.1696C16.3007 7.92359 16.4202 7.84979 16.4802 7.73314C16.5402 7.61664 16.5306 7.47643 16.4555 7.36903L11.8569 1.04402C11.7646 0.917633 11.6173 0.842896 11.4608 0.842896C11.3042 0.842896 11.1569 0.917633 11.0646 1.04402L6.46597 7.36903C6.39092 7.47643 6.38134 7.61664 6.44132 7.73314C6.5013 7.84979 6.62078 7.92359 6.75189 7.925H6.75174Z" fill="black"/>
</svg>
