<svg width="38" height="38" viewBox="0 0 38 38" fill="none" xmlns="http://www.w3.org/2000/svg">
<path fill-rule="evenodd" clip-rule="evenodd" d="M16.8371 0.682999C12.7576 1.24493 8.57315 3.42939 5.92852 6.37768C1.00963 11.8615 -0.156019 19.5017 2.92386 26.0711L3.6536 27.6279L2.08941 32.2894C0.776925 36.2009 0.560773 36.9866 0.746281 37.1721C0.931788 37.3576 1.75149 37.144 5.84069 35.8448L10.714 34.2965L11.9534 34.8691C12.6351 35.1841 13.9022 35.6329 14.7691 35.8665C16.1904 36.2494 16.6357 36.2912 19.2952 36.2912C21.961 36.2912 22.3982 36.2499 23.8356 35.8629C36.5621 32.4357 41.5433 17.4667 33.3603 7.23934C30.7772 4.01082 27.1283 1.79326 22.9373 0.904723C21.4471 0.588934 18.3403 0.47586 16.8371 0.682999ZM23.1463 4.75859C25.9781 5.56977 28.6348 7.33242 30.4783 9.6234C34.6686 14.8306 34.6661 22.214 30.4724 27.3779C28.7474 29.5019 26.072 31.304 23.4516 32.1068C19.6082 33.2846 15.0367 32.6596 11.5452 30.479C11.2447 30.2914 10.8899 30.3615 8.77898 31.0257C7.447 31.4448 6.32805 31.7584 6.29216 31.7225C6.25627 31.6866 6.57731 30.6246 7.00568 29.3622L7.78442 27.0672L7.27738 26.2771C6.57272 25.1791 5.69238 23.2266 5.37413 22.0562C4.9669 20.5585 4.86448 17.5725 5.16601 15.9872C6.25546 10.2583 10.589 5.82017 16.3454 4.53785C17.9931 4.17077 21.4908 4.28433 23.1463 4.75859ZM13.7234 10.1177C11.959 10.4851 11.3036 10.9629 10.7048 12.3185C9.97888 13.962 10.1306 15.792 11.1622 17.8355C12.1674 19.827 15.178 23.2321 17.0955 24.5469C19.0425 25.8817 21.7625 26.8769 23.8219 27.0077C25.0885 27.0881 25.3271 27.0554 26.1237 26.6906C27.4526 26.0823 28.1787 25.3696 28.4704 24.3871C28.8028 23.268 28.788 22.416 28.4306 22.0927C27.8598 21.5762 24.1317 19.9717 23.7341 20.0715C23.5248 20.1239 23.0434 20.5692 22.664 21.0608C21.6062 22.4319 21.6794 22.4101 20.3976 21.7366C19.1179 21.0642 17.3236 19.4974 16.2715 18.1335L15.5585 17.2094L15.9762 16.7649C16.5223 16.184 17.0816 15.2435 17.0822 14.9051C17.0826 14.7575 16.7148 13.7619 16.265 12.6928C15.246 10.2705 14.8612 9.88069 13.7234 10.1177Z" fill="#0174FF"/>
</svg>

