<svg width="10" height="19" viewBox="0 0 10 19" fill="none" xmlns="http://www.w3.org/2000/svg">
<path d="M9.66074 9.18378C9.62785 8.84265 9.49006 8.52005 9.26657 8.26043L3.29032 1.28814C3.00917 0.937275 2.5976 0.715644 2.14997 0.673502C1.7023 0.631584 1.25698 0.772857 0.915357 1.06536C0.573756 1.35763 0.365324 1.77611 0.337761 2.22474C0.310202 2.67357 0.465836 3.1143 0.769219 3.44637L5.82217 9.3395L0.769219 15.2326C0.466061 15.5647 0.31043 16.0054 0.337993 16.4543C0.36532 16.9029 0.573756 17.3213 0.915357 17.6136C1.25696 17.9061 1.70253 18.0474 2.15021 18.0055C2.59788 17.9633 3.00918 17.7417 3.29032 17.3909L9.26657 10.4186C9.56 10.0774 9.7022 9.63181 9.66097 9.18395L9.66074 9.18378Z" fill="white"/>
</svg>
