<svg width="35" height="28" viewBox="0 0 35 28" fill="none" xmlns="http://www.w3.org/2000/svg">
<path d="M12.0165 10.595V7.58495C12.0165 6.88746 11.4292 6.30009 10.7317 6.30009H8.27237V0.610799C8.27237 0.2805 8.0153 0.0234375 7.68501 0.0234375H4.45478C4.12448 0.0234375 3.86742 0.280507 3.86742 0.610799L3.86767 6.30009H1.37177C0.674282 6.30009 0.0869141 6.88745 0.0869141 7.58495V10.595C0.0869141 11.2925 0.674275 11.8799 1.37177 11.8799H3.8311V27.4067C3.8311 27.737 4.08817 27.994 4.41846 27.994H7.64869C7.97898 27.994 8.23605 27.7369 8.23605 27.4067L8.23579 11.8799H10.6951C11.4292 11.8799 12.0165 11.2925 12.0165 10.5953V10.595Z" fill="black"/>
<path d="M22.1841 16.1376H19.7248V0.610799C19.7248 0.2805 19.4677 0.0234375 19.1375 0.0234375H15.9072C15.5769 0.0234375 15.3199 0.280507 15.3199 0.610799V16.1376H12.8605C12.1631 16.1376 11.5757 16.725 11.5757 17.4225V20.4325C11.5757 21.13 12.163 21.7174 12.8605 21.7174L15.3199 21.7171V27.4067C15.3199 27.737 15.5769 27.994 15.9072 27.994H19.1375C19.4678 27.994 19.7248 27.737 19.7248 27.4067V21.7171H22.1841C22.8816 21.7171 23.469 21.1297 23.469 20.4323V17.4222C23.4687 16.725 22.9183 16.1376 22.1841 16.1376V16.1376Z" fill="black"/>
<path d="M33.6736 6.30009H31.2143V0.610799C31.2143 0.2805 30.9572 0.0234375 30.6269 0.0234375H27.3967C27.0664 0.0234375 26.8094 0.280507 26.8094 0.610799L26.8096 6.30009H24.3503C23.6528 6.30009 23.0654 6.88745 23.0654 7.58495V10.595C23.0654 11.2925 23.6528 11.8799 24.3503 11.8799H26.8096V27.4067C26.8096 27.737 27.0667 27.994 27.397 27.994H30.6272C30.9575 27.994 31.2146 27.7369 31.2146 27.4067L31.2143 11.8799H33.6736C34.3711 11.8799 34.9585 11.2925 34.9585 10.595V7.58495C34.9585 6.88772 34.3711 6.30035 33.6736 6.30035V6.30009Z" fill="black"/>
</svg>
