<svg width="24" height="24" viewBox="0 0 24 24" fill="none" xmlns="http://www.w3.org/2000/svg">
<path d="M9.53711 19.0906L9.38696 18.6401L9.53711 19.0906ZM14.2852 17.5079L14.4354 17.9583H14.4354L14.2852 17.5079ZM5.11368 4.57979H18.4083V3.63017H5.11368V4.57979ZM4.63887 6.56049V5.0546H3.68925V6.56049H4.63887ZM8.96976 11.088L4.77794 6.89623L4.10646 7.56771L8.29828 11.7595L8.96976 11.088ZM8.43735 12.0953V18.6401H9.38696V12.0953H8.43735ZM8.43735 18.6401C8.43735 19.2883 9.07235 19.746 9.68726 19.541L9.38696 18.6401L9.38696 18.6401H8.43735ZM9.68726 19.541L14.4354 17.9583L14.1351 17.0574L9.38696 18.6401L9.68726 19.541ZM14.4354 17.9583C14.8231 17.829 15.0847 17.4662 15.0847 17.0574H14.1351H14.1351L14.4354 17.9583ZM15.0847 17.0574V12.0953H14.1351V17.0574H15.0847ZM18.7441 6.89623L14.5523 11.088L15.2237 11.7595L19.4156 7.56771L18.7441 6.89623ZM18.8831 5.0546V6.56049H19.8328V5.0546H18.8831ZM19.4156 7.56771C19.6827 7.30058 19.8328 6.93827 19.8328 6.56049H18.8831C18.8831 6.68642 18.8331 6.80719 18.7441 6.89623L19.4156 7.56771ZM15.0847 12.0953C15.0847 11.9693 15.1347 11.8486 15.2237 11.7595L14.5523 11.088C14.2851 11.3552 14.1351 11.7175 14.1351 12.0953H15.0847ZM8.29828 11.7595C8.38732 11.8486 8.43735 11.9693 8.43735 12.0953H9.38696C9.38696 11.7175 9.23689 11.3552 8.96976 11.088L8.29828 11.7595ZM3.68925 6.56049C3.68925 6.93827 3.83933 7.30058 4.10646 7.56771L4.77794 6.89623C4.6889 6.80719 4.63887 6.68642 4.63887 6.56049H3.68925ZM18.4083 4.57979C18.6706 4.57979 18.8831 4.79237 18.8831 5.0546H19.8328C19.8328 4.26791 19.195 3.63017 18.4083 3.63017V4.57979ZM5.11368 3.63017C4.32699 3.63017 3.68925 4.26791 3.68925 5.0546H4.63887C4.63887 4.79237 4.85145 4.57979 5.11368 4.57979V3.63017Z" fill="#979797"/>
</svg>
