<svg width="15" height="15" viewBox="0 0 15 15" fill="none" xmlns="http://www.w3.org/2000/svg">
<path d="M14.8088 13.8816L10.541 9.61382C11.4856 8.43219 11.9419 6.9337 11.8161 5.42614C11.6903 3.91859 10.992 2.51644 9.86458 1.50772C8.73717 0.499002 7.2663 -0.0396965 5.75408 0.00228121C4.24187 0.0442589 2.80314 0.663726 1.73343 1.73343C0.663726 2.80314 0.0442589 4.24187 0.00228121 5.75408C-0.0396965 7.2663 0.499002 8.73717 1.50772 9.86458C2.51644 10.992 3.91859 11.6903 5.42614 11.8161C6.9337 11.9419 8.43219 11.4856 9.61382 10.541L13.8816 14.8088C14.0048 14.9313 14.1715 15 14.3452 15C14.5189 15 14.6856 14.9313 14.8088 14.8088C14.9313 14.6856 15 14.5189 15 14.3452C15 14.1715 14.9313 14.0048 14.8088 13.8816ZM5.92475 10.5279C5.01433 10.5279 4.12436 10.2579 3.36738 9.7521C2.6104 9.24631 2.02041 8.5274 1.67201 7.68628C1.32361 6.84517 1.23245 5.91964 1.41007 5.02672C1.58768 4.1338 2.02608 3.3136 2.66984 2.66984C3.3136 2.02608 4.1338 1.58768 5.02672 1.41007C5.91964 1.23245 6.84517 1.32361 7.68628 1.67201C8.5274 2.02041 9.24631 2.6104 9.7521 3.36738C10.2579 4.12436 10.5279 5.01433 10.5279 5.92475C10.5279 6.52924 10.4088 7.12781 10.1775 7.68628C9.94615 8.24476 9.60709 8.75221 9.17965 9.17965C8.75221 9.60709 8.24476 9.94615 7.68628 10.1775C7.12781 10.4088 6.52924 10.5279 5.92475 10.5279Z" fill="#D8D8D8"/>
</svg>
