
<svg width="27" height="26" viewBox="0 0 27 26" fill="none" xmlns="http://www.w3.org/2000/svg">
<path d="M14.4691 2.42914L14.4694 2.43683L14.471 2.48808L14.4713 2.49574L14.4713 2.50341L14.4713 14.2738L17.0397 11.8769C17.0397 11.8769 17.0397 11.8769 17.0397 11.8769C17.524 11.4249 18.2706 11.4305 18.7483 11.875L18.7544 11.8807L18.7604 11.8866L18.7998 11.926L18.8057 11.9319L18.8114 11.938C19.2633 12.4222 19.2578 13.1688 18.8132 13.6466L18.8075 13.6527L18.8016 13.6586L18.7622 13.698L18.7564 13.7039L18.7503 13.7096L14.0807 18.0678C14.0801 18.0684 14.0796 18.0689 14.079 18.0694C14.0572 18.09 14.0347 18.1099 14.0113 18.129C14.0111 18.1291 14.0109 18.1293 14.0107 18.1295L13.9915 18.1449L13.9909 18.1453C13.9766 18.1565 13.9619 18.1676 13.9468 18.1784M14.4691 2.42914L13.3407 17.9285C13.3672 17.9243 13.3934 17.9188 13.419 17.9119L13.541 18.3699C13.5413 18.3698 13.5415 18.3697 13.5417 18.3697C13.5567 18.3657 13.5713 18.3615 13.5854 18.3572L13.5869 18.3567C13.598 18.3533 13.6095 18.3496 13.6214 18.3456L13.6214 18.3456L13.6266 18.3437L13.6491 18.3357L13.6491 18.3358L13.6563 18.3331C13.6704 18.3279 13.6841 18.3224 13.6978 18.3168L13.698 18.3167C13.7089 18.3122 13.7203 18.3073 13.7319 18.302L13.5368 17.8702L13.7308 18.3025C13.7466 18.2955 13.7617 18.2883 13.7762 18.2811L13.7762 18.2811L13.7824 18.278L13.7949 18.2715L13.7977 18.2701C13.8147 18.2612 13.8311 18.2521 13.8467 18.2431L13.8482 18.2422C13.8587 18.2361 13.8698 18.2294 13.8815 18.2221C13.8924 18.2153 13.9027 18.2086 13.9123 18.2023L13.914 18.2011C13.9246 18.194 13.9356 18.1865 13.9468 18.1784M14.4691 2.42914L14.4686 2.42146C14.4262 1.76714 13.8826 1.24992 13.2178 1.24992C12.5255 1.24992 11.9643 1.81113 11.9643 2.50341L11.9643 14.5653M14.4691 2.42914L11.9643 14.5653M13.9468 18.1784C13.947 18.1782 13.9473 18.178 13.9475 18.1779L13.6705 17.7933L13.9461 18.1789C13.9463 18.1787 13.9465 18.1786 13.9468 18.1784ZM11.9643 14.5653L9.08407 11.8769L9.08406 11.8769C8.57797 11.4045 7.78477 11.4319 7.31242 11.938C6.84006 12.4441 6.86741 13.2372 7.37351 13.7096L12.0507 18.075C12.3337 18.3392 12.7068 18.4467 13.0618 18.4024L11.9643 14.5653ZM25.5406 17.0027C25.5406 16.3104 24.9794 15.7492 24.2871 15.7492C23.5949 15.7492 23.0337 16.3104 23.0337 17.0027V19.809C23.0337 21.1833 21.9196 22.2973 20.5454 22.2973H5.89018C4.51595 22.2973 3.40192 21.1833 3.40192 19.809V17.0027C3.40192 16.3104 2.84071 15.7492 2.14843 15.7492C1.45615 15.7492 0.894941 16.3104 0.894941 17.0027V19.809C0.894941 22.5678 3.13139 24.8043 5.89018 24.8043H20.5454C23.3042 24.8043 25.5406 22.5678 25.5406 19.809V17.0027Z" fill="black" stroke="black" stroke-width="0.947911"/>
</svg>
