<svg width="23" height="23" viewBox="0 0 23 23" fill="none" xmlns="http://www.w3.org/2000/svg">
<path d="M9.64409 7.53298C9.64409 7.92326 9.32769 8.23967 8.9374 8.23967C8.54712 8.23967 8.23071 7.92327 8.23071 7.53298C8.23071 7.1427 8.54712 6.82629 8.9374 6.82629C9.32769 6.82629 9.64409 7.1427 9.64409 7.53298Z" fill="black"/>
<path d="M21.1142 3.25769H6.13619V3.06809C6.13619 1.3789 4.75729 0 3.06809 0C1.3789 0 0 1.3789 0 3.06809V19.2186C0 21.1663 1.58574 22.752 3.53345 22.752H21.114C22.0189 22.752 22.7515 22.0195 22.7515 21.1146V4.89557C22.7515 3.9907 22.0189 3.25815 21.114 3.25815L21.1142 3.25769ZM15.8744 7.67017C16.064 7.39439 16.4346 7.32544 16.7103 7.51504C16.943 7.67878 17.1584 7.86838 17.3394 8.07522C17.5549 8.32515 17.529 8.70434 17.2791 8.9284C17.1671 9.03182 17.0206 9.07491 16.8827 9.07491C16.7103 9.07491 16.5466 9.00597 16.4259 8.86808C16.3053 8.73019 16.1674 8.60954 16.0209 8.50611C15.7623 8.32513 15.6934 7.94593 15.8744 7.67019L15.8744 7.67017ZM1.20603 3.06811C1.20603 2.04252 2.04195 1.20659 3.06754 1.20659C4.09313 1.20659 4.92906 2.04252 4.92906 3.06811V16.3229C4.41197 15.9265 3.76558 15.6938 3.06754 15.6938C2.9986 15.6938 2.92965 15.6938 2.86071 15.7024H2.82623C2.75729 15.711 2.69696 15.711 2.63664 15.7196C2.62802 15.7196 2.61079 15.7196 2.60217 15.7282C2.54184 15.7369 2.4729 15.7455 2.41257 15.7627C2.40395 15.7627 2.39534 15.7713 2.38672 15.7713C2.32639 15.7886 2.25745 15.7972 2.19712 15.823H2.1885C2.12818 15.8403 2.06786 15.8661 2.00752 15.8834C1.9989 15.8834 1.99029 15.892 1.97305 15.892C1.91272 15.9178 1.86101 15.9351 1.80069 15.9609C1.79207 15.9695 1.77483 15.9695 1.76621 15.9782C1.70589 16.004 1.65418 16.0299 1.60247 16.0643C1.59385 16.0643 1.58524 16.073 1.57662 16.0816C1.52491 16.1074 1.4732 16.1419 1.42149 16.1764L1.41287 16.185L1.25774 16.2884C1.24912 16.297 1.2405 16.3057 1.23188 16.3057C1.22327 16.3143 1.21465 16.3143 1.21465 16.3229V3.06811L1.20603 3.06811ZM8.93646 9.45415C7.87644 9.45415 7.02325 8.5923 7.02325 7.54095C7.02325 6.48959 7.8851 5.62774 8.93646 5.62774C9.98781 5.62774 10.8497 6.48959 10.8497 7.54095C10.8497 8.5923 9.98781 9.45415 8.93646 9.45415ZM11.9355 6.92903H12.2803C12.6164 6.92903 12.8835 7.19619 12.8835 7.5323C12.8835 7.8684 12.6164 8.13556 12.2803 8.13556H11.9355C11.5994 8.13556 11.3323 7.8684 11.3323 7.5323C11.3323 7.19619 11.5994 6.92903 11.9355 6.92903ZM12.6508 17.6758C12.556 17.7361 12.444 17.762 12.332 17.762C12.1337 17.762 11.9355 17.6586 11.8149 17.4776C11.6684 17.2363 11.5477 16.9777 11.4615 16.7019C11.3667 16.3831 11.5477 16.047 11.8666 15.9522C12.1854 15.8574 12.5215 16.0383 12.6163 16.3572C12.6681 16.5296 12.7456 16.6933 12.8404 16.8484C13.0214 17.1328 12.9352 17.5034 12.6508 17.6758ZM12.9094 14.5388C12.806 14.6853 12.7198 14.8491 12.6594 15.0214C12.5733 15.2714 12.3406 15.4179 12.0906 15.4179C12.0217 15.4179 11.9528 15.4093 11.8838 15.3834C11.5736 15.2714 11.4098 14.9266 11.5218 14.6078C11.6166 14.3406 11.7459 14.0907 11.9097 13.8494C12.0993 13.5736 12.4698 13.5046 12.7456 13.6942C13.03 13.8838 13.0989 14.263 12.9093 14.5388L12.9094 14.5388ZM14.9174 18.529C14.8743 18.8307 14.6157 19.0548 14.3227 19.0548C14.2969 19.0548 14.271 19.0548 14.2451 19.0461C13.9607 19.0117 13.685 18.9341 13.4264 18.8307C13.1161 18.7014 12.9696 18.3567 13.0903 18.0464C13.2109 17.7362 13.5643 17.5897 13.8745 17.7103C14.0383 17.7793 14.2193 17.8224 14.4002 17.8482C14.7277 17.8913 14.9604 18.1929 14.9173 18.5291L14.9174 18.529ZM14.5037 13.6167C14.3227 13.6339 14.1417 13.6684 13.978 13.7287C13.909 13.7546 13.8487 13.7632 13.7798 13.7632C13.5298 13.7632 13.2972 13.6081 13.211 13.3582C13.0989 13.0393 13.2713 12.7032 13.5815 12.5911C13.8487 12.4963 14.1331 12.436 14.4175 12.4188C14.745 12.3929 15.038 12.6429 15.0638 12.9703C15.0811 13.2978 14.8311 13.5908 14.5037 13.6167H14.5037ZM14.7278 8.13561H14.0297C13.6936 8.13561 13.4264 7.86845 13.4264 7.53234C13.4264 7.19624 13.6936 6.92908 14.0297 6.92908H14.7278C15.0639 6.92908 15.331 7.19624 15.331 7.53234C15.331 7.86845 15.0639 8.13561 14.7278 8.13561ZM16.4083 19.0723H16.0636C15.7275 19.0723 15.4603 18.8051 15.4603 18.469C15.4603 18.1329 15.7275 17.8657 16.0636 17.8657H16.4083C16.7444 17.8657 17.0116 18.1329 17.0116 18.469C17.0116 18.8051 16.7358 19.0723 16.4083 19.0723ZM17.115 12.6948C16.9081 12.893 16.6755 13.0568 16.4255 13.1947C16.3307 13.2464 16.2359 13.2722 16.1325 13.2722C15.9171 13.2722 15.7102 13.1602 15.6068 12.962C15.4431 12.6689 15.5551 12.307 15.8481 12.1432C16.0032 12.057 16.1584 11.945 16.2876 11.8243C16.5289 11.6003 16.9081 11.6089 17.1408 11.8502C17.3735 12.0915 17.3563 12.4707 17.115 12.6948L17.115 12.6948ZM17.4166 11.3504C17.0891 11.2901 16.8737 10.9798 16.934 10.6523C16.9599 10.5317 16.9685 10.4024 16.9685 10.2731C16.9685 10.2214 16.9685 10.1611 16.9599 10.1094C16.934 9.7733 17.1839 9.4889 17.5114 9.46305C17.8389 9.4372 18.1319 9.68712 18.1578 10.0146C18.1664 10.1008 18.1664 10.187 18.1664 10.2731C18.1664 10.4714 18.1492 10.6696 18.1147 10.8678C18.063 11.1608 17.8044 11.3677 17.52 11.3677C17.4856 11.359 17.4511 11.3504 17.4166 11.3504L17.4166 11.3504ZM20.657 18.9861C20.8897 19.2187 20.8897 19.6066 20.657 19.8392C20.5364 19.9599 20.3813 20.0202 20.2261 20.0202C20.071 20.0202 19.9159 19.9599 19.8038 19.8392L19.2867 19.3222L18.7697 19.8392C18.649 19.9599 18.4939 20.0202 18.3474 20.0202C18.1922 20.0202 18.0371 19.9599 17.9165 19.8392C17.6838 19.6066 17.6838 19.2187 17.9165 18.9861L18.4335 18.469L17.9165 17.9519C17.6838 17.7192 17.6838 17.3314 17.9165 17.0987C18.1491 16.866 18.537 16.866 18.7696 17.0987L19.2867 17.6158L19.8038 17.0987C20.0365 16.866 20.4243 16.866 20.657 17.0987C20.8897 17.3314 20.8897 17.7192 20.657 17.9519L20.1399 18.469L20.657 18.9861Z" fill="black"/>
</svg>
