<svg width="22" height="21" viewBox="0 0 22 21" fill="none" xmlns="http://www.w3.org/2000/svg">
<path d="M11.5599 14.924C11.5692 14.9182 11.578 14.9125 11.5861 14.9071L11.5876 14.9061C11.5964 14.9002 11.6054 14.894 11.6147 14.8874C11.6276 14.8781 11.6402 14.8687 11.6525 14.859L11.653 14.8587L11.6692 14.8457C11.6693 14.8456 11.6695 14.8454 11.6697 14.8453C11.6697 14.8453 11.6697 14.8453 11.6697 14.8453C11.6893 14.8292 11.7084 14.8124 11.7268 14.795C11.7273 14.7945 11.7278 14.7941 11.7282 14.7937L15.6692 11.1155L15.6694 11.1157L15.6793 11.1057L15.7125 11.0724L15.7127 11.0726L15.7223 11.0623C16.0975 10.6591 16.1022 10.029 15.7207 9.62028L15.7209 9.62011L15.711 9.61018L15.6777 9.57696L15.6779 9.57678L15.6675 9.56716C15.2643 9.19197 14.6342 9.18729 14.2255 9.56872L12.0579 11.5917L12.0579 1.65789H12.0581L12.0577 1.64496L12.0563 1.60171L12.0565 1.6017L12.0557 1.58873C12.0198 1.03651 11.561 0.6 11 0.6C10.4157 0.6 9.94211 1.07364 9.94211 1.65789L9.94211 11.8376L7.51131 9.56873L7.5113 9.56872C7.08417 9.17007 6.41475 9.19316 6.0161 9.62028C5.61745 10.0474 5.64053 10.7168 6.06766 11.1155L10.015 14.7997C10.2539 15.0226 10.5687 15.1134 10.8684 15.076C10.9119 15.0815 10.9558 15.0842 10.9996 15.0842H10.9997H11V15.0844L11.0129 15.084L11.0562 15.0826L11.0694 15.0822L11.0826 15.0809L11.1263 15.0765L11.1263 15.0768L11.1395 15.075L11.1642 15.0715L11.1663 15.0712C11.2023 15.0655 11.2379 15.0579 11.2731 15.0485M11.5599 14.924C11.5502 14.9301 11.5408 14.9357 11.532 14.9409L11.5308 14.9416C11.5176 14.9492 11.5038 14.9568 11.4894 14.9644L11.487 14.9656L11.487 14.9656L11.4765 14.971L11.4713 14.9737L11.4713 14.9736C11.4592 14.9796 11.4465 14.9856 11.4334 14.9915M11.5599 14.924C11.5603 14.9237 11.5607 14.9235 11.561 14.9233L11.3476 14.585L11.5592 14.9244C11.5595 14.9243 11.5597 14.9241 11.5599 14.924ZM11.4334 14.9915C11.4238 14.9959 11.4144 14.9999 11.4053 15.0037L11.4051 15.0038C11.3936 15.0085 11.382 15.0131 11.3701 15.0175L11.364 15.0198L11.364 15.0198L11.3451 15.0265L11.3405 15.0281L11.3405 15.0281C11.3306 15.0315 11.3209 15.0346 11.3116 15.0375L11.3102 15.0379C11.2983 15.0415 11.2859 15.0451 11.2731 15.0485M11.4334 14.9915C11.4336 14.9915 11.4337 14.9914 11.4338 14.9913L11.2692 14.6268L11.433 14.9917C11.4332 14.9916 11.4333 14.9916 11.4334 14.9915ZM11.2731 15.0485C11.2732 15.0485 11.2733 15.0484 11.2734 15.0484L11.1698 14.662L11.2727 15.0486C11.2728 15.0486 11.273 15.0485 11.2731 15.0485ZM21.4 13.8947C21.4 13.3105 20.9264 12.8368 20.3421 12.8368C19.7578 12.8368 19.2842 13.3105 19.2842 13.8947V16.2632C19.2842 17.423 18.344 18.3632 17.1842 18.3632H4.81579C3.65599 18.3632 2.71579 17.423 2.71579 16.2632V13.8947C2.71579 13.3105 2.24215 12.8368 1.65789 12.8368C1.07364 12.8368 0.6 13.3105 0.6 13.8947V16.2632C0.6 18.5915 2.48747 20.4789 4.81579 20.4789H17.1842C19.5125 20.4789 21.4 18.5915 21.4 16.2632V13.8947Z" fill="black" stroke="black" stroke-width="0.8"/>
</svg>
