<svg width="15" height="9" viewBox="0 0 15 9" fill="none" xmlns="http://www.w3.org/2000/svg">
<path d="M7.47055 8.99998C7.27408 9.00112 7.07931 8.9633 6.89742 8.88871C6.71553 8.81411 6.5501 8.7042 6.4106 8.56527L0.439046 2.56938C0.299851 2.42962 0.189436 2.26369 0.114105 2.08109C0.0387731 1.89848 2.93331e-09 1.70276 0 1.50511C-2.93331e-09 1.30745 0.0387731 1.11173 0.114105 0.929126C0.189436 0.746518 0.299851 0.580597 0.439046 0.440835C0.578241 0.301073 0.743489 0.190207 0.925356 0.114568C1.10722 0.0389298 1.30215 -2.94526e-09 1.499 0C1.69585 2.94527e-09 1.89077 0.0389298 2.07264 0.114568C2.25451 0.190207 2.41975 0.301073 2.55895 0.440835L7.47055 5.40244L12.3971 0.635702C12.5344 0.482372 12.7018 0.359143 12.8887 0.273723C13.0756 0.188302 13.2781 0.142527 13.4835 0.139261C13.6888 0.135994 13.8926 0.175305 14.0822 0.254737C14.2717 0.334169 14.4429 0.452014 14.585 0.600898C14.7271 0.749783 14.837 0.926506 14.908 1.12001C14.979 1.31352 15.0094 1.51966 14.9975 1.72552C14.9855 1.93138 14.9313 2.13255 14.8384 2.31644C14.7454 2.50032 14.6157 2.66298 14.4573 2.79422L8.48571 8.58026C8.2127 8.84455 7.84975 8.99461 7.47055 8.99998Z" fill="#404B69"/>
</svg>
