<svg width="19" height="19" viewBox="0 0 19 19" fill="none" xmlns="http://www.w3.org/2000/svg">
<path fill-rule="evenodd" clip-rule="evenodd" d="M18.875 9.5C18.875 14.6777 14.6777 18.875 9.5 18.875C4.32233 18.875 0.125 14.6777 0.125 9.5C0.125 4.32233 4.32233 0.125 9.5 0.125C14.6777 0.125 18.875 4.32233 18.875 9.5ZM4.62623 14.3738C4.2357 13.9832 4.2357 13.3501 4.62623 12.9596L8.08579 9.5L4.62623 6.04044C4.2357 5.64992 4.2357 5.01675 4.62623 4.62623C5.01675 4.2357 5.64992 4.2357 6.04044 4.62623L9.5 8.08579L12.9596 4.62623C13.3501 4.2357 13.9833 4.2357 14.3738 4.62623C14.7643 5.01675 14.7643 5.64991 14.3738 6.04044L10.9142 9.5L14.3738 12.9596C14.7643 13.3501 14.7643 13.9832 14.3738 14.3738C13.9832 14.7643 13.3501 14.7643 12.9596 14.3738L9.5 10.9142L6.04044 14.3738C5.64992 14.7643 5.01675 14.7643 4.62623 14.3738Z" fill="#EB5757"/>
</svg>
