<svg width="16" height="16" viewBox="0 0 16 16" fill="none" xmlns="http://www.w3.org/2000/svg">
<path d="M15.796 14.807L11.2438 10.2547C12.2514 8.99434 12.738 7.39594 12.6039 5.78788C12.4697 4.17983 11.7248 2.6842 10.5222 1.60824C9.31965 0.532269 7.75072 -0.0423429 6.13769 0.00243329C4.52466 0.0472095 2.99002 0.707974 1.849 1.849C0.707974 2.99002 0.0472095 4.52466 0.00243329 6.13769C-0.0423429 7.75072 0.532269 9.31965 1.60824 10.5222C2.6842 11.7248 4.17983 12.4697 5.78788 12.6039C7.39594 12.738 8.99434 12.2514 10.2547 11.2438L14.807 15.796C14.9384 15.9267 15.1162 16 15.3015 16C15.4868 16 15.6646 15.9267 15.796 15.796C15.9267 15.6646 16 15.4868 16 15.3015C16 15.1162 15.9267 14.9384 15.796 14.807ZM6.31973 11.2297C5.34862 11.2297 4.39932 10.9418 3.59188 10.4022C2.78443 9.86273 2.15511 9.09589 1.78348 8.1987C1.41185 7.30152 1.31462 6.31428 1.50407 5.36183C1.69353 4.40939 2.16116 3.53451 2.84783 2.84783C3.53451 2.16116 4.40939 1.69353 5.36183 1.50407C6.31428 1.31462 7.30152 1.41185 8.1987 1.78348C9.09589 2.15511 9.86273 2.78443 10.4022 3.59188C10.9418 4.39932 11.2297 5.34862 11.2297 6.31973C11.2297 6.96452 11.1027 7.603 10.856 8.1987C10.6092 8.79441 10.2476 9.33569 9.79162 9.79162C9.33569 10.2476 8.79441 10.6092 8.1987 10.856C7.603 11.1027 6.96452 11.2297 6.31973 11.2297Z" fill="#D8D8D8"/>
</svg>
