<svg width="17" height="15" viewBox="0 0 17 15" fill="none" xmlns="http://www.w3.org/2000/svg">
<path d="M14.129 2.49556C13.9414 2.68329 13.9414 2.98766 14.1291 3.17535C15.3078 4.35367 15.9569 5.92057 15.9569 7.58746C15.9569 9.25432 15.3078 10.8213 14.1291 11.9996C13.8286 12.3001 14.0403 12.8204 14.469 12.8204C14.6044 12.8204 14.7267 12.7643 14.8141 12.6742C16.171 11.3149 16.9182 9.5087 16.9182 7.58746C16.9182 5.66373 16.1691 3.85539 14.8088 2.49547C14.6211 2.30778 14.3167 2.30784 14.129 2.49556Z" fill="#0174FF"/>
<path d="M12.7667 10.6389C12.579 10.8266 12.5791 11.1309 12.7669 11.3186C12.9546 11.5063 13.259 11.5063 13.4466 11.3185C14.4436 10.3212 14.9926 8.99571 14.9926 7.58602C14.9926 6.17633 14.4436 4.8508 13.4466 3.8535C13.2589 3.66575 12.9546 3.66568 12.7668 3.85338C12.5791 4.04107 12.579 4.3454 12.7667 4.53316C13.5821 5.34888 14.0312 6.43305 14.0312 7.58602C14.0312 8.73899 13.5821 9.82316 12.7667 10.6389Z" fill="#0174FF"/>
<path d="M11.4083 9.95967C11.5959 10.1474 11.9003 10.1475 12.088 9.95986C12.722 9.32635 13.0711 8.48358 13.0711 7.58691C13.0711 6.69024 12.722 5.84747 12.0881 5.21393C11.9003 5.02627 11.5959 5.02636 11.4083 5.21412C11.2206 5.40191 11.2207 5.70624 11.4085 5.8939C11.8607 6.34588 12.1097 6.94712 12.1097 7.58691C12.1097 8.2267 11.8607 8.82794 11.4085 9.27988C11.2207 9.46754 11.2206 9.77188 11.4083 9.95967Z" fill="#0174FF"/>
<path d="M0.990451 4.07617H2.91319V11.0987H0.990451C0.725112 11.0987 0.509766 10.8836 0.509766 10.618V4.55686C0.509766 4.2912 0.725112 4.07617 0.990451 4.07617Z" fill="#0174FF"/>
<path d="M10.246 1.90167V13.2721C10.246 13.9633 9.5051 14.4014 8.89976 14.0678L3.875 11.3016V3.87215L8.89976 1.10597C9.50542 0.772377 10.246 1.21076 10.246 1.90167Z" fill="#0174FF"/>
</svg>
