<svg width="23" height="17" viewBox="0 0 23 17" fill="none" xmlns="http://www.w3.org/2000/svg">
<path d="M9.83157 12.25C10.2911 12.6789 10.8702 12.8803 11.5687 12.8542C12.2672 12.8289 12.7727 12.5931 13.0852 12.147L19.2617 3.49998L9.99701 9.26468C9.51907 9.57351 9.25731 10.0409 9.21172 10.6667C9.16539 11.2933 9.37201 11.8211 9.83157 12.25ZM3.93084 16.8823C3.52642 16.8823 3.15437 16.8007 2.81466 16.6373C2.47422 16.4747 2.2029 16.2304 2.00069 15.9044C1.52275 15.098 1.1551 14.2618 0.897748 13.3957C0.640395 12.529 0.511719 11.6323 0.511719 10.7059C0.511719 9.28184 0.801425 7.94361 1.38084 6.69116C1.95951 5.4387 2.74517 4.34924 3.73782 3.42277C4.73047 2.4963 5.89775 1.76267 7.23966 1.22189C8.58157 0.681792 10.0154 0.411743 11.5411 0.411743C13.0485 0.411743 14.4639 0.677675 15.7875 1.20954C17.111 1.7414 18.2691 2.46645 19.2617 3.38468C20.2544 4.30223 21.0448 5.37419 21.633 6.60057C22.2213 7.82763 22.5246 9.14459 22.543 10.5514C22.5614 11.4951 22.4466 12.4174 22.1989 13.3185C21.9503 14.2189 21.5687 15.0809 21.054 15.9044C20.8518 16.2304 20.5808 16.4747 20.2411 16.6373C19.9007 16.8007 19.5283 16.8823 19.1238 16.8823H3.93084Z" fill="#0174FF"/>
</svg>
