<svg width="20" height="20" viewBox="0 0 20 20" fill="none" xmlns="http://www.w3.org/2000/svg">
<path d="M10.0435 2.40365C10.306 1.75365 11.0372 1.05365 11.976 1.3149C12.7135 1.5199 13.1922 1.9649 13.4672 2.5599C13.7222 3.11365 13.7847 3.76615 13.7972 4.3874C13.8097 5.05615 13.6697 5.8574 13.506 6.5599C13.4329 6.87032 13.3516 7.17876 13.2622 7.4849H14.9935C15.3819 7.48492 15.765 7.57546 16.1123 7.74932C16.4597 7.92318 16.7617 8.17559 16.9945 8.48652C17.2273 8.79746 17.3845 9.15836 17.4535 9.54061C17.5226 9.92285 17.5016 10.3159 17.3922 10.6886L15.6872 16.4961C15.5703 16.8947 15.375 17.2659 15.1129 17.5881C14.8508 17.9103 14.5271 18.177 14.1607 18.3726C13.7943 18.5683 13.3926 18.6889 12.9791 18.7275C12.5656 18.7661 12.1485 18.7219 11.7522 18.5974L5.05723 16.4949C4.69503 16.3811 4.36351 16.1864 4.0878 15.9254C3.81209 15.6644 3.59944 15.3441 3.46598 14.9886L2.81598 13.2586C2.60911 12.7081 2.603 12.1022 2.7987 11.5475C2.99441 10.9929 3.3794 10.525 3.88598 10.2261L6.22598 8.84615C6.46178 8.65965 6.68055 8.45259 6.87973 8.2274C7.30973 7.74115 7.90098 6.9324 8.49473 5.67115C8.75098 5.12615 8.96598 4.6974 9.16098 4.30865C9.47723 3.6799 9.74223 3.15365 10.0435 2.40365V2.40365ZM6.89848 9.8999C6.89147 9.9042 6.88439 9.90837 6.87723 9.9124L4.52098 11.3024C4.26769 11.4518 4.07519 11.6858 3.97734 11.9631C3.87949 12.2404 3.88255 12.5434 3.98598 12.8186L4.63598 14.5486C4.70269 14.7265 4.80908 14.8869 4.94705 15.0175C5.08502 15.1481 5.25095 15.2455 5.43223 15.3024L12.1247 17.4049C12.3625 17.4798 12.6129 17.5066 12.8611 17.4836C13.1094 17.4606 13.3506 17.3883 13.5706 17.271C13.7905 17.1537 13.9849 16.9936 14.1423 16.8003C14.2997 16.6069 14.417 16.3841 14.4872 16.1449L16.191 10.3374C16.2458 10.1509 16.2564 9.95429 16.2219 9.76303C16.1874 9.57178 16.1088 9.3912 15.9923 9.23565C15.8758 9.08009 15.7246 8.95383 15.5508 8.86691C15.377 8.77998 15.1853 8.73478 14.991 8.7349H12.4085C12.3085 8.73484 12.21 8.71079 12.1212 8.66477C12.0324 8.61875 11.956 8.5521 11.8983 8.47042C11.8406 8.38873 11.8034 8.2944 11.7897 8.19535C11.776 8.09629 11.7863 7.9954 11.8197 7.90115C11.9447 7.54865 12.1347 6.9374 12.2897 6.27365C12.4472 5.60115 12.5585 4.92115 12.5485 4.41115C12.536 3.82615 12.4747 3.39115 12.3322 3.08365C12.2097 2.8149 12.0185 2.62365 11.6422 2.51865C11.5885 2.50365 11.5247 2.50865 11.4422 2.5624C11.3345 2.6393 11.2519 2.74626 11.2047 2.8699C10.9168 3.57168 10.5977 4.26028 10.2485 4.93365C10.0547 5.3199 9.85098 5.72615 9.62723 6.2024C8.98473 7.5699 8.32723 8.4799 7.81473 9.05615C7.55973 9.34365 7.34222 9.5474 7.18222 9.68365C7.10096 9.75272 7.01672 9.8182 6.92973 9.8799L6.90973 9.8924L6.90347 9.8974L6.89973 9.8999H6.89848ZM6.21973 8.8499L6.21848 8.85115L6.21973 8.8499Z" fill="#0174FF"/>
</svg>
