<svg width="103" height="103" viewBox="0 0 103 103" fill="none" xmlns="http://www.w3.org/2000/svg">
<g filter="url(#filter0_dd_694_3063)">
<path d="M24 47.5012C24 60.4789 34.5211 71 47.5012 71C60.4789 71 71 60.4789 71 47.5012C71 34.5235 60.4789 24 47.5012 24C34.5235 24 24 34.5211 24 47.5012Z" fill="#0174FF"/>
<path d="M24 47.5012C24 60.4789 34.5211 71 47.5012 71C60.4789 71 71 60.4789 71 47.5012C71 34.5235 60.4789 24 47.5012 24C34.5235 24 24 34.5211 24 47.5012Z" fill="url(#paint0_linear_694_3063)" style="mix-blend-mode:soft-light"/>
<path d="M47.5012 70.6083C34.7374 70.6083 24.3917 60.2625 24.3917 47.5012C24.3917 34.7375 34.7398 24.3917 47.5012 24.3917C60.2625 24.3917 70.6083 34.7397 70.6083 47.5012C70.6083 60.2626 60.2626 70.6083 47.5012 70.6083Z" stroke="url(#paint1_linear_694_3063)" stroke-opacity="0.8" stroke-width="0.783333" style="mix-blend-mode:soft-light"/>
</g>
<path d="M60.0302 56.353H36.0326C35.4633 56.353 35.0005 55.8901 35.0005 55.3208V39.0322C35.0005 38.4629 35.4633 38 36.0326 38H60.0302C60.5995 38 61.0623 38.4629 61.0623 39.0322V55.3208C61.0623 55.8901 60.5995 56.353 60.0302 56.353ZM37.0648 54.2887H58.998V40.0643H37.0648V54.2887Z" fill="white"/>
<path d="M48.057 50.5329C47.8151 50.5329 47.5732 50.449 47.3797 50.2797L35.3551 39.8114C34.9245 39.4372 34.8793 38.7857 35.2535 38.3551C35.6276 37.9245 36.2792 37.8793 36.7098 38.2535L48.0554 48.1299L59.351 38.2551C59.78 37.8793 60.4316 37.9245 60.8073 38.3535C61.1831 38.7825 61.1396 39.434 60.709 39.8098L48.736 50.2765C48.5408 50.4474 48.2989 50.5329 48.057 50.5329Z" fill="white"/>
<path d="M36.0324 56.3525C35.7438 56.3525 35.4583 56.2331 35.2535 55.9977C34.8793 55.5671 34.9245 54.9155 35.3551 54.5414L44.7106 46.397C45.1412 46.0229 45.7927 46.068 46.1669 46.4986C46.541 46.9292 46.4959 47.5808 46.0653 47.9549L36.7098 56.0993C36.5146 56.2686 36.2727 56.3525 36.0324 56.3525Z" fill="white"/>
<path d="M60.0296 56.3527C59.7893 56.3527 59.5458 56.2688 59.3506 56.0979L50.0355 47.9535C49.6065 47.5778 49.5629 46.9262 49.9371 46.4972C50.3128 46.0683 50.9644 46.0247 51.3934 46.3989L60.7086 54.5432C61.1375 54.919 61.1811 55.5705 60.8069 55.9995C60.6021 56.2333 60.3167 56.3527 60.0296 56.3527Z" fill="white"/>
<defs>
<filter id="filter0_dd_694_3063" x="0.499998" y="0.499998" width="101.833" height="101.833" filterUnits="userSpaceOnUse" color-interpolation-filters="sRGB">
<feFlood flood-opacity="0" result="BackgroundImageFix"/>
<feColorMatrix in="SourceAlpha" type="matrix" values="0 0 0 0 0 0 0 0 0 0 0 0 0 0 0 0 0 0 127 0" result="hardAlpha"/>
<feOffset dx="7.83333" dy="7.83333"/>
<feGaussianBlur stdDeviation="11.75"/>
<feColorMatrix type="matrix" values="0 0 0 0 0.214583 0 0 0 0 0.300417 0 0 0 0 0.429167 0 0 0 0.5 0"/>
<feBlend mode="normal" in2="BackgroundImageFix" result="effect1_dropShadow_694_3063"/>
<feColorMatrix in="SourceAlpha" type="matrix" values="0 0 0 0 0 0 0 0 0 0 0 0 0 0 0 0 0 0 127 0" result="hardAlpha"/>
<feOffset dx="-7.83333" dy="-7.83333"/>
<feGaussianBlur stdDeviation="7.83333"/>
<feColorMatrix type="matrix" values="0 0 0 0 1 0 0 0 0 1 0 0 0 0 1 0 0 0 1 0"/>
<feBlend mode="normal" in2="effect1_dropShadow_694_3063" result="effect2_dropShadow_694_3063"/>
<feBlend mode="normal" in="SourceGraphic" in2="effect2_dropShadow_694_3063" result="shape"/>
</filter>
<linearGradient id="paint0_linear_694_3063" x1="13.2081" y1="17.3773" x2="73.164" y2="67.4458" gradientUnits="userSpaceOnUse">
<stop stop-color="white"/>
<stop offset="1" stop-opacity="0"/>
</linearGradient>
<linearGradient id="paint1_linear_694_3063" x1="24.881" y1="24.8545" x2="63.0675" y2="66.68" gradientUnits="userSpaceOnUse">
<stop stop-color="white"/>
<stop offset="1" stop-color="white" stop-opacity="0"/>
</linearGradient>
</defs>
</svg>
