<svg width="103" height="103" viewBox="0 0 103 103" fill="none" xmlns="http://www.w3.org/2000/svg">
<g filter="url(#filter0_dd_694_3073)">
<path d="M24 47.5012C24 60.4789 34.5211 71 47.5012 71C60.4789 71 71 60.4789 71 47.5012C71 34.5235 60.4789 24 47.5012 24C34.5235 24 24 34.5211 24 47.5012Z" fill="#0174FF"/>
<path d="M24 47.5012C24 60.4789 34.5211 71 47.5012 71C60.4789 71 71 60.4789 71 47.5012C71 34.5235 60.4789 24 47.5012 24C34.5235 24 24 34.5211 24 47.5012Z" fill="url(#paint0_linear_694_3073)" style="mix-blend-mode:soft-light"/>
<path d="M47.5012 70.6083C34.7374 70.6083 24.3917 60.2625 24.3917 47.5012C24.3917 34.7375 34.7398 24.3917 47.5012 24.3917C60.2625 24.3917 70.6083 34.7397 70.6083 47.5012C70.6083 60.2626 60.2626 70.6083 47.5012 70.6083Z" stroke="url(#paint1_linear_694_3073)" stroke-opacity="0.8" stroke-width="0.783333" style="mix-blend-mode:soft-light"/>
</g>
<path d="M38.4737 44.6842C37.516 44.6842 36.5798 44.4002 35.7836 43.8682C34.9873 43.3361 34.3666 42.5799 34.0002 41.6951C33.6337 40.8103 33.5378 39.8367 33.7246 38.8975C33.9115 37.9582 34.3726 37.0954 35.0498 36.4182C35.727 35.741 36.5898 35.2799 37.529 35.093C38.4683 34.9062 39.4419 35.0021 40.3267 35.3686C41.2115 35.7351 41.9677 36.3557 42.4997 37.152C43.0318 37.9483 43.3158 38.8844 43.3158 39.8421C43.3158 41.1263 42.8056 42.3579 41.8976 43.266C40.9895 44.1741 39.7579 44.6842 38.4737 44.6842ZM38.4737 37.4211C37.9948 37.4211 37.5268 37.563 37.1286 37.8291C36.7305 38.0951 36.4202 38.4732 36.2369 38.9156C36.0537 39.358 36.0057 39.8448 36.0992 40.3144C36.1926 40.7841 36.4232 41.2155 36.7617 41.554C37.1003 41.8926 37.5317 42.1232 38.0014 42.2166C38.471 42.3101 38.9578 42.2621 39.4002 42.0789C39.8426 41.8956 40.2207 41.5853 40.4867 41.1872C40.7527 40.789 40.8947 40.3209 40.8947 39.8421C40.8947 39.2 40.6397 38.5842 40.1856 38.1302C39.7316 37.6761 39.1158 37.4211 38.4737 37.4211ZM45.7368 58H31.2105C30.8895 58 30.5816 57.8725 30.3546 57.6454C30.1275 57.4184 30 57.1105 30 56.7895V51.9474C30 50.3421 30.6377 48.8026 31.7728 47.6675C32.9079 46.5324 34.4474 45.8947 36.0526 45.8947H40.8947C42.5 45.8947 44.0395 46.5324 45.1746 47.6675C46.3097 48.8026 46.9474 50.3421 46.9474 51.9474V56.7895C46.9474 57.1105 46.8198 57.4184 46.5928 57.6454C46.3658 57.8725 46.0579 58 45.7368 58ZM32.4211 55.5789H44.5263V51.9474C44.5263 50.9842 44.1437 50.0605 43.4626 49.3795C42.7816 48.6984 41.8579 48.3158 40.8947 48.3158H36.0526C35.0895 48.3158 34.1658 48.6984 33.4847 49.3795C32.8037 50.0605 32.4211 50.9842 32.4211 51.9474V55.5789ZM66.3158 43.4737C66.3158 43.1526 66.1882 42.8447 65.9612 42.6177C65.7342 42.3907 65.4263 42.2632 65.1053 42.2632H50.5789C50.2579 42.2632 49.95 42.3907 49.723 42.6177C49.496 42.8447 49.3684 43.1526 49.3684 43.4737C49.3684 43.7947 49.496 44.1026 49.723 44.3297C49.95 44.5567 50.2579 44.6842 50.5789 44.6842H65.1053C65.4263 44.6842 65.7342 44.5567 65.9612 44.3297C66.1882 44.1026 66.3158 43.7947 66.3158 43.4737ZM66.3158 48.3158C66.3158 47.9947 66.1882 47.6868 65.9612 47.4598C65.7342 47.2328 65.4263 47.1053 65.1053 47.1053H50.5789C50.2579 47.1053 49.95 47.2328 49.723 47.4598C49.496 47.6868 49.3684 47.9947 49.3684 48.3158C49.3684 48.6368 49.496 48.9447 49.723 49.1718C49.95 49.3988 50.2579 49.5263 50.5789 49.5263H65.1053C65.4263 49.5263 65.7342 49.3988 65.9612 49.1718C66.1882 48.9447 66.3158 48.6368 66.3158 48.3158ZM59.0526 53.1579C59.0526 52.8368 58.9251 52.5289 58.6981 52.3019C58.4711 52.0749 58.1632 51.9474 57.8421 51.9474H50.5789C50.2579 51.9474 49.95 52.0749 49.723 52.3019C49.496 52.5289 49.3684 52.8368 49.3684 53.1579C49.3684 53.4789 49.496 53.7868 49.723 54.0139C49.95 54.2409 50.2579 54.3684 50.5789 54.3684H57.8421C58.1632 54.3684 58.4711 54.2409 58.6981 54.0139C58.9251 53.7868 59.0526 53.4789 59.0526 53.1579Z" fill="white"/>
<defs>
<filter id="filter0_dd_694_3073" x="0.499998" y="0.499998" width="101.833" height="101.833" filterUnits="userSpaceOnUse" color-interpolation-filters="sRGB">
<feFlood flood-opacity="0" result="BackgroundImageFix"/>
<feColorMatrix in="SourceAlpha" type="matrix" values="0 0 0 0 0 0 0 0 0 0 0 0 0 0 0 0 0 0 127 0" result="hardAlpha"/>
<feOffset dx="7.83333" dy="7.83333"/>
<feGaussianBlur stdDeviation="11.75"/>
<feColorMatrix type="matrix" values="0 0 0 0 0.214583 0 0 0 0 0.300417 0 0 0 0 0.429167 0 0 0 0.5 0"/>
<feBlend mode="normal" in2="BackgroundImageFix" result="effect1_dropShadow_694_3073"/>
<feColorMatrix in="SourceAlpha" type="matrix" values="0 0 0 0 0 0 0 0 0 0 0 0 0 0 0 0 0 0 127 0" result="hardAlpha"/>
<feOffset dx="-7.83333" dy="-7.83333"/>
<feGaussianBlur stdDeviation="7.83333"/>
<feColorMatrix type="matrix" values="0 0 0 0 1 0 0 0 0 1 0 0 0 0 1 0 0 0 1 0"/>
<feBlend mode="normal" in2="effect1_dropShadow_694_3073" result="effect2_dropShadow_694_3073"/>
<feBlend mode="normal" in="SourceGraphic" in2="effect2_dropShadow_694_3073" result="shape"/>
</filter>
<linearGradient id="paint0_linear_694_3073" x1="13.2081" y1="17.3773" x2="73.164" y2="67.4458" gradientUnits="userSpaceOnUse">
<stop stop-color="white"/>
<stop offset="1" stop-opacity="0"/>
</linearGradient>
<linearGradient id="paint1_linear_694_3073" x1="24.881" y1="24.8545" x2="63.0675" y2="66.68" gradientUnits="userSpaceOnUse">
<stop stop-color="white"/>
<stop offset="1" stop-color="white" stop-opacity="0"/>
</linearGradient>
</defs>
</svg>
