<svg width="103" height="103" viewBox="0 0 103 103" fill="none" xmlns="http://www.w3.org/2000/svg">
<g filter="url(#filter0_dd_694_3045)">
<path d="M24 47.5012C24 60.4789 34.5211 71 47.5012 71C60.4789 71 71 60.4789 71 47.5012C71 34.5235 60.4789 24 47.5012 24C34.5235 24 24 34.5211 24 47.5012Z" fill="#0174FF"/>
<path d="M24 47.5012C24 60.4789 34.5211 71 47.5012 71C60.4789 71 71 60.4789 71 47.5012C71 34.5235 60.4789 24 47.5012 24C34.5235 24 24 34.5211 24 47.5012Z" fill="url(#paint0_linear_694_3045)" style="mix-blend-mode:soft-light"/>
<path d="M47.5012 70.6083C34.7374 70.6083 24.3917 60.2625 24.3917 47.5012C24.3917 34.7375 34.7398 24.3917 47.5012 24.3917C60.2625 24.3917 70.6083 34.7397 70.6083 47.5012C70.6083 60.2626 60.2626 70.6083 47.5012 70.6083Z" stroke="url(#paint1_linear_694_3045)" stroke-opacity="0.8" stroke-width="0.783333" style="mix-blend-mode:soft-light"/>
</g>
<path d="M60 42H57V41C57 39.1435 56.2625 37.363 54.9497 36.0503C53.637 34.7375 51.8565 34 50 34H46C44.1435 34 42.363 34.7375 41.0503 36.0503C39.7375 37.363 39 39.1435 39 41V42H36C35.4696 42 34.9609 42.2107 34.5858 42.5858C34.2107 42.9609 34 43.4696 34 44V58C34 58.5304 34.2107 59.0391 34.5858 59.4142C34.9609 59.7893 35.4696 60 36 60H60C60.5304 60 61.0391 59.7893 61.4142 59.4142C61.7893 59.0391 62 58.5304 62 58V44C62 43.4696 61.7893 42.9609 61.4142 42.5858C61.0391 42.2107 60.5304 42 60 42ZM41 41C41 39.6739 41.5268 38.4021 42.4645 37.4645C43.4021 36.5268 44.6739 36 46 36H50C50.6566 36 51.3068 36.1293 51.9134 36.3806C52.52 36.6319 53.0712 37.0002 53.5355 37.4645C53.9998 37.9288 54.3681 38.48 54.6194 39.0866C54.8707 39.6932 55 40.3434 55 41V42H41V41ZM36 58V44H60V58H36Z" fill="white"/>
<path d="M44.38 48.86C44.3097 48.749 44.2183 48.653 44.1109 48.5773C44.0036 48.5017 43.8823 48.4479 43.7542 48.4191C43.626 48.3904 43.4935 48.3871 43.3641 48.4095C43.2347 48.432 43.1109 48.4797 43 48.55L42 49.18V48C42 47.7348 41.8946 47.4804 41.7071 47.2929C41.5195 47.1054 41.2652 47 41 47C40.7348 47 40.4804 47.1054 40.2929 47.2929C40.1053 47.4804 40 47.7348 40 48V49.19L39 48.56C38.7759 48.4181 38.5046 48.3711 38.2458 48.4292C37.987 48.4873 37.7619 48.6459 37.62 48.87C37.4781 49.0941 37.431 49.3654 37.4892 49.6242C37.5473 49.883 37.7059 50.1081 37.93 50.25L39.13 51.01L37.93 51.77C37.7325 51.9225 37.5991 52.1434 37.5562 52.3893C37.5132 52.6351 37.5637 52.8881 37.6978 53.0986C37.8318 53.3091 38.0398 53.4619 38.2807 53.5269C38.5217 53.5919 38.7782 53.5645 39 53.45L40 52.82V54C40 54.2652 40.1053 54.5196 40.2929 54.7071C40.4804 54.8946 40.7348 55 41 55C41.2652 55 41.5195 54.8946 41.7071 54.7071C41.8946 54.5196 42 54.2652 42 54V52.81L43 53.44C43.2241 53.5819 43.4954 53.6289 43.7542 53.5708C44.013 53.5127 44.2381 53.3541 44.38 53.13C44.5219 52.9059 44.5689 52.6346 44.5108 52.3758C44.4526 52.117 44.2941 51.8919 44.07 51.75L42.87 51L44.07 50.24C44.181 50.1698 44.277 50.0783 44.3526 49.971C44.4283 49.8636 44.482 49.7424 44.5108 49.6142C44.5396 49.4861 44.5429 49.3535 44.5204 49.2241C44.498 49.0947 44.4502 48.971 44.38 48.86Z" fill="white"/>
<path d="M50 50H47C46.7348 50 46.4804 50.1054 46.2929 50.2929C46.1054 50.4804 46 50.7348 46 51C46 51.2652 46.1054 51.5196 46.2929 51.7071C46.4804 51.8946 46.7348 52 47 52H50C50.2652 52 50.5196 51.8946 50.7071 51.7071C50.8946 51.5196 51 51.2652 51 51C51 50.7348 50.8946 50.4804 50.7071 50.2929C50.5196 50.1054 50.2652 50 50 50Z" fill="white"/>
<path d="M57 50H54C53.7348 50 53.4804 50.1054 53.2929 50.2929C53.1054 50.4804 53 50.7348 53 51C53 51.2652 53.1054 51.5196 53.2929 51.7071C53.4804 51.8946 53.7348 52 54 52H57C57.2652 52 57.5196 51.8946 57.7071 51.7071C57.8946 51.5196 58 51.2652 58 51C58 50.7348 57.8946 50.4804 57.7071 50.2929C57.5196 50.1054 57.2652 50 57 50Z" fill="white"/>
<defs>
<filter id="filter0_dd_694_3045" x="0.499998" y="0.499998" width="101.833" height="101.833" filterUnits="userSpaceOnUse" color-interpolation-filters="sRGB">
<feFlood flood-opacity="0" result="BackgroundImageFix"/>
<feColorMatrix in="SourceAlpha" type="matrix" values="0 0 0 0 0 0 0 0 0 0 0 0 0 0 0 0 0 0 127 0" result="hardAlpha"/>
<feOffset dx="7.83333" dy="7.83333"/>
<feGaussianBlur stdDeviation="11.75"/>
<feColorMatrix type="matrix" values="0 0 0 0 0.214583 0 0 0 0 0.300417 0 0 0 0 0.429167 0 0 0 0.5 0"/>
<feBlend mode="normal" in2="BackgroundImageFix" result="effect1_dropShadow_694_3045"/>
<feColorMatrix in="SourceAlpha" type="matrix" values="0 0 0 0 0 0 0 0 0 0 0 0 0 0 0 0 0 0 127 0" result="hardAlpha"/>
<feOffset dx="-7.83333" dy="-7.83333"/>
<feGaussianBlur stdDeviation="7.83333"/>
<feColorMatrix type="matrix" values="0 0 0 0 1 0 0 0 0 1 0 0 0 0 1 0 0 0 1 0"/>
<feBlend mode="normal" in2="effect1_dropShadow_694_3045" result="effect2_dropShadow_694_3045"/>
<feBlend mode="normal" in="SourceGraphic" in2="effect2_dropShadow_694_3045" result="shape"/>
</filter>
<linearGradient id="paint0_linear_694_3045" x1="13.2081" y1="17.3773" x2="73.164" y2="67.4458" gradientUnits="userSpaceOnUse">
<stop stop-color="white"/>
<stop offset="1" stop-opacity="0"/>
</linearGradient>
<linearGradient id="paint1_linear_694_3045" x1="24.881" y1="24.8545" x2="63.0675" y2="66.68" gradientUnits="userSpaceOnUse">
<stop stop-color="white"/>
<stop offset="1" stop-color="white" stop-opacity="0"/>
</linearGradient>
</defs>
</svg>
