<svg width="47" height="47" viewBox="0 0 47 47" fill="none" xmlns="http://www.w3.org/2000/svg">
<path d="M0 23.5012C0 36.4789 10.5211 47 23.5012 47C36.4789 47 47 36.4789 47 23.5012C47 10.5235 36.4789 0 23.5012 0C10.5235 0 0 10.5211 0 23.5012Z" fill="#0174FF"/>
<path d="M0 23.5012C0 36.4789 10.5211 47 23.5012 47C36.4789 47 47 36.4789 47 23.5012C47 10.5235 36.4789 0 23.5012 0C10.5235 0 0 10.5211 0 23.5012Z" fill="url(#paint0_linear_0_1)" style="mix-blend-mode:soft-light"/>
<path d="M23.5012 46.6083C10.7374 46.6083 0.391667 36.2625 0.391667 23.5012C0.391667 10.7375 10.7398 0.391667 23.5012 0.391667C36.2625 0.391667 46.6083 10.7397 46.6083 23.5012C46.6083 36.2626 36.2626 46.6083 23.5012 46.6083Z" stroke="url(#paint1_linear_0_1)" stroke-opacity="0.8" stroke-width="0.783333" style="mix-blend-mode:soft-light"/>
<path d="M22.6567 29.3745C22.4471 28.9862 22.3272 28.5514 22.3272 28.0926C22.3272 27.6794 22.4497 27.2938 22.6259 26.93C24.1911 25.862 25.2472 23.9452 25.2472 21.7353C25.2472 18.3704 22.8225 15.6426 19.8315 15.6426C16.8404 15.6426 14.4157 18.3704 14.4157 21.7353C14.4157 23.9452 15.4718 25.862 17.0371 26.93C17.2131 27.2938 17.3356 27.6794 17.3356 28.0926C17.3356 28.5514 17.2158 28.9862 17.0062 29.3745C12.3966 29.9966 9 32.0962 9 34.5977V37.3056H30.663V34.5977C30.663 32.0962 27.2663 29.9966 22.6567 29.3745ZM29.1156 35.7582H10.5474V34.5977C10.5474 33.2262 13.0407 31.4711 17.2132 30.9079L17.9938 30.8026L18.368 30.1094C18.7049 29.485 18.883 28.7876 18.883 28.0926C18.883 27.4866 18.7347 26.8857 18.4299 26.2559L18.25 25.8845L17.9093 25.6519C16.6906 24.8204 15.9631 23.3562 15.9631 21.7353C15.9631 19.229 17.6984 17.1899 19.8315 17.1899C21.9645 17.1899 23.6999 19.229 23.6999 21.7353C23.6999 23.3562 22.9723 24.8204 21.7537 25.6519L21.4128 25.8845L21.2331 26.2559C20.9282 26.8858 20.7799 27.4867 20.7799 28.0926C20.7799 28.7876 20.958 29.485 21.295 30.1094L21.6691 30.8026L22.4497 30.9079C26.6222 31.4711 29.1156 33.2262 29.1156 34.5977V35.7582Z" fill="white" stroke="white" stroke-width="0.5"/>
<path d="M38.4526 17.1894V15.6421C38.4526 13.0783 36.3743 11 33.8105 11C31.2468 11 29.1684 13.0783 29.1684 15.6421V17.1894C28.3139 17.1894 27.6211 17.8822 27.6211 18.7368V24.9262C27.6211 25.7807 28.3139 26.4736 29.1684 26.4736H38.4526C39.3072 26.4736 39.9999 25.7807 39.9999 24.9262V18.7368C39.9999 17.8822 39.3072 17.1894 38.4526 17.1894ZM30.7158 15.6421C30.7158 13.9357 32.1041 12.5474 33.8105 12.5474C35.517 12.5474 36.9052 13.9357 36.9052 15.6421V17.1894H30.7158V15.6421ZM38.4526 24.9262H29.1684V18.7368H38.4526V24.9262ZM32.2632 21.8315C32.2632 20.9769 32.9559 20.2841 33.8105 20.2841C34.6651 20.2841 35.3579 20.9769 35.3579 21.8315C35.3579 22.686 34.6651 23.3788 33.8105 23.3788C32.9559 23.3788 32.2632 22.686 32.2632 21.8315Z" fill="white" stroke="white" stroke-width="0.5"/>
<defs>
<linearGradient id="paint0_linear_0_1" x1="-10.7919" y1="-6.62273" x2="49.164" y2="43.4458" gradientUnits="userSpaceOnUse">
<stop stop-color="white"/>
<stop offset="1" stop-opacity="0"/>
</linearGradient>
<linearGradient id="paint1_linear_0_1" x1="0.880975" y1="0.854545" x2="39.0675" y2="42.68" gradientUnits="userSpaceOnUse">
<stop stop-color="white"/>
<stop offset="1" stop-color="white" stop-opacity="0"/>
</linearGradient>
</defs>
</svg>
