<svg width="15" height="21" viewBox="0 0 15 21" fill="none" xmlns="http://www.w3.org/2000/svg">
<path fill-rule="evenodd" clip-rule="evenodd" d="M10.6211 17.1464V0.835667C10.6211 0.374141 10.9909 0 11.4542 0C11.9143 0 12.2873 0.374167 12.2873 0.835667V17.1491L13.2283 16.2081C13.5506 15.8858 14.0734 15.886 14.401 16.2136C14.7264 16.5389 14.7245 17.0683 14.4065 17.3863L12.0392 19.7536C11.8789 19.9139 11.6691 19.9944 11.4583 19.9946L11.452 19.9921C11.2404 19.9917 11.03 19.9117 10.8719 19.7536L8.50464 17.3863C8.18229 17.064 8.18245 16.5412 8.51007 16.2136C8.83542 15.8882 9.36483 15.8901 9.68283 16.2081L10.6211 17.1464Z" fill="#1A81FE"/>
<path fill-rule="evenodd" clip-rule="evenodd" d="M4.02392 3.10309V19.4138C4.02392 19.8754 3.65413 20.2495 3.19081 20.2495C2.73069 20.2495 2.3577 19.8753 2.3577 19.4138V3.10039L1.41673 4.04136C1.09438 4.3637 0.57159 4.36354 0.243973 4.03592C-0.0813767 3.71057 -0.0794561 3.18116 0.23854 2.86316L2.60579 0.495908C2.76608 0.335624 2.97592 0.25508 3.18668 0.254883L3.19304 0.25737C3.40462 0.257821 3.61501 0.337793 3.77312 0.495908L6.14037 2.86316C6.46272 3.18551 6.46256 3.7083 6.13494 4.03592C5.80959 4.36127 5.28018 4.35935 4.96218 4.04136L4.02392 3.10309Z" fill="#979797"/>
</svg>
