<svg width="23" height="25" viewBox="0 0 21 23" fill="none" xmlns="http://www.w3.org/2000/svg">
<path d="M17.2117 4.03284L13.6228 8.67927L15.5292 8.43446C16.0629 8.36591 16.5723 8.86236 16.6408 9.39613C16.7094 9.92988 16.342 10.5389 15.8082 10.6075L11.3475 11.1806C11.2712 11.1904 11.1735 11.1835 11.0923 11.1552C10.8753 11.1249 10.6748 11.0733 10.5027 10.9404C10.3306 10.8074 10.2083 10.61 10.1458 10.4242C10.0979 10.3529 10.0666 10.26 10.0568 10.1837L9.48395 5.7229C9.4154 5.18915 9.91186 4.67976 10.4456 4.61121C10.9794 4.54266 11.5884 4.91008 11.657 5.44384L11.9018 7.35014L15.4906 2.70372C15.8229 2.27353 16.5189 2.26158 16.9491 2.59385C17.3795 2.92624 17.5438 3.60272 17.2115 4.03291L17.2117 4.03284Z" fill="#1A81FE"/>
<path d="M3.096 18.7513L6.68483 14.1049L4.77852 14.3497C4.24477 14.4182 3.73538 13.9218 3.66683 13.388C3.59828 12.8542 3.9657 12.2452 4.49946 12.1766L8.96006 11.6036C9.03639 11.5938 9.13406 11.6008 9.21527 11.629C9.43233 11.6594 9.63278 11.711 9.80488 11.8439C9.97697 11.9768 10.0993 12.1743 10.1618 12.3601C10.2097 12.4313 10.241 12.5242 10.2508 12.6006L10.8236 17.0613C10.8922 17.5951 10.3957 18.1045 9.86197 18.173C9.32822 18.2416 8.71916 17.8742 8.6506 17.3404L8.40579 15.4341L4.81681 20.0804C4.48454 20.5106 3.78849 20.5225 3.3583 20.1903C2.92812 19.858 2.7638 19.1815 3.09607 18.7513L3.096 18.7513Z" fill="#1A81FE"/>
</svg>
