<svg width="15" height="21" viewBox="0 0 15 21" fill="none" xmlns="http://www.w3.org/2000/svg">
<path fill-rule="evenodd" clip-rule="evenodd" d="M10.6211 17.8915V1.58078C10.6211 1.11926 10.9909 0.745117 11.4542 0.745117C11.9143 0.745117 12.2873 1.11928 12.2873 1.58078V17.8942L13.2283 16.9533C13.5506 16.6309 14.0734 16.6311 14.401 16.9587C14.7264 17.284 14.7245 17.8135 14.4065 18.1315L12.0392 20.4987C11.8789 20.659 11.6691 20.7395 11.4583 20.7397L11.452 20.7372C11.2404 20.7368 11.03 20.6568 10.8719 20.4987L8.50464 18.1315C8.18229 17.8091 8.18245 17.2863 8.51007 16.9587C8.83542 16.6333 9.36483 16.6353 9.68283 16.9533L10.6211 17.8915Z" fill="#979797"/>
<path fill-rule="evenodd" clip-rule="evenodd" d="M4.02392 3.84821V20.1589C4.02392 20.6205 3.65413 20.9946 3.19081 20.9946C2.73069 20.9946 2.3577 20.6204 2.3577 20.1589V3.84551L1.41673 4.78647C1.09438 5.10882 0.57159 5.10866 0.243973 4.78104C-0.0813767 4.45569 -0.0794561 3.92627 0.23854 3.60828L2.60579 1.24103C2.76608 1.08074 2.97592 1.0002 3.18668 1L3.19304 1.00249C3.40462 1.00294 3.61501 1.08291 3.77312 1.24103L6.14037 3.60828C6.46272 3.93063 6.46256 4.45342 6.13494 4.78104C5.80959 5.10639 5.28018 5.10447 4.96218 4.78647L4.02392 3.84821Z" fill="#1A81FE"/>
</svg>
