<svg width="18" height="18" viewBox="0 0 18 18" fill="none" xmlns="http://www.w3.org/2000/svg">
<path d="M17.1151 11.5041C17.4348 11.5041 17.6941 11.7758 17.6941 12.1111V14.2962C17.6941 16.2405 16.1905 17.8166 14.3358 17.8166H3.45013C1.59537 17.8166 0.0917969 16.2405 0.0917969 14.2962V12.1111C0.0917969 11.7758 0.351034 11.5041 0.670819 11.5041C0.990605 11.5041 1.24984 11.7758 1.24984 12.1111V14.2962C1.24984 15.57 2.23494 16.6027 3.45013 16.6027H14.3358C15.5509 16.6027 16.536 15.57 16.536 14.2962V12.1111C16.536 11.7758 16.7953 11.5041 17.1151 11.5041ZM8.89294 0.214355C9.19993 0.214355 9.45113 0.464802 9.47073 0.781422L9.47196 0.821331L9.47196 10.8355L11.972 8.38967C12.1956 8.17089 12.5406 8.17349 12.7611 8.3886L12.7904 8.41925C12.9991 8.65366 12.9966 9.01527 12.7914 9.24645L12.7622 9.27714L9.2915 12.6728C9.28107 12.6831 9.27026 12.6931 9.25911 12.7027C9.25617 12.7052 9.25317 12.7077 9.25015 12.7102C9.2433 12.7158 9.23632 12.7213 9.22922 12.7266C9.22428 12.7304 9.21935 12.7339 9.21437 12.7374C9.2093 12.741 9.20411 12.7445 9.19886 12.7479C9.19393 12.7512 9.18898 12.7543 9.184 12.7573C9.17634 12.762 9.16855 12.7665 9.16065 12.7708L9.15137 12.7758C9.14429 12.7795 9.13711 12.7831 9.12985 12.7865C9.12489 12.7888 9.11986 12.7911 9.11481 12.7933C9.10835 12.7961 9.10196 12.7987 9.09552 12.8013L9.07883 12.8075C9.07373 12.8093 9.06866 12.811 9.06355 12.8127C9.05655 12.8149 9.04949 12.817 9.04242 12.819C9.02336 12.8243 9.00395 12.8287 8.98421 12.8319C8.97926 12.8327 8.97438 12.8335 8.96949 12.8342L8.93101 12.8381L8.89294 12.8394C8.86349 12.8394 8.83375 12.8371 8.80453 12.8323L8.77723 12.8272C8.59999 12.865 8.40856 12.8154 8.26625 12.6762L4.79212 9.27714C4.55834 9.04841 4.5457 8.66432 4.7639 8.41925C4.98209 8.17419 5.34849 8.16094 5.58227 8.38967L8.31392 11.0625L8.31392 0.821331C8.31392 0.486108 8.57316 0.214355 8.89294 0.214355Z" fill="#1A81FE"/>
</svg>
