<svg width="18" height="20" viewBox="0 0 18 20" fill="none" xmlns="http://www.w3.org/2000/svg">
<path d="M1.4011 10.8309L2.15216 10.7123L2.60128 13.5556L3.0504 16.3988L8.28044 9.20662L13.5105 2.0144L10.6722 2.45653L7.83387 2.89866L7.71525 2.1477L7.59663 1.39673L11.7334 0.743289L15.8702 0.0898438L16.5217 4.2147L17.1733 8.33955L16.4222 8.45819L15.6712 8.57683L15.2249 5.75142C14.9794 4.19745 14.7705 2.92729 14.7607 2.92884C14.7373 2.93254 4.31204 17.2692 4.31573 17.2926C4.31729 17.3024 5.58999 17.1096 7.14396 16.8642L9.96937 16.4179L10.088 17.1689L10.2066 17.92L6.08179 18.5716L1.95693 19.2231L1.30349 15.0863L0.650042 10.9496L1.4011 10.8309Z" fill="#1A81FE"/>
</svg>
