<svg width="7" height="5" viewBox="0 0 7 5" fill="none" xmlns="http://www.w3.org/2000/svg">
<path d="M3.90688 0.511366C3.98455 0.510865 4.06155 0.527476 4.13346 0.560244C4.20537 0.593012 4.27078 0.641294 4.32593 0.702321L6.68678 3.33618C6.74181 3.39757 6.78546 3.47046 6.81524 3.55067C6.84502 3.63089 6.86035 3.71686 6.86035 3.80369C6.86035 3.89051 6.84502 3.97649 6.81524 4.0567C6.78546 4.13692 6.74181 4.2098 6.68678 4.2712C6.63174 4.33259 6.56641 4.38129 6.49451 4.41452C6.42261 4.44774 6.34555 4.46484 6.26772 4.46484C6.1899 4.46484 6.11284 4.44774 6.04094 4.41452C5.96904 4.38129 5.90371 4.33259 5.84867 4.2712L3.90688 2.09168L1.95918 4.18559C1.90488 4.25295 1.83872 4.30708 1.76482 4.3446C1.69091 4.38213 1.61087 4.40223 1.52968 4.40367C1.4485 4.4051 1.36792 4.38784 1.29299 4.35294C1.21806 4.31805 1.15039 4.26628 1.09421 4.20088C1.03803 4.13548 0.994546 4.05785 0.966485 3.97285C0.938425 3.88784 0.926387 3.79729 0.931126 3.70686C0.935864 3.61643 0.957276 3.52807 0.994023 3.44729C1.03077 3.36651 1.08206 3.29506 1.14469 3.23741L3.50553 0.695736C3.61347 0.579639 3.75696 0.513721 3.90688 0.511366Z" fill="#404B69"/>
</svg>
