<svg width="8" height="6" viewBox="0 0 8 6" fill="none" xmlns="http://www.w3.org/2000/svg">
<path d="M4.16756 5.04645C4.08303 5.047 3.99924 5.02892 3.92098 4.99326C3.84273 4.9576 3.77155 4.90506 3.71154 4.83865L1.14238 1.9724C1.08249 1.90558 1.03499 1.82627 1.00258 1.73898C0.970169 1.65168 0.953487 1.55812 0.953487 1.46364C0.953487 1.36915 0.970169 1.27559 1.00258 1.1883C1.03499 1.101 1.08249 1.02169 1.14238 0.954876C1.20227 0.888064 1.27336 0.835067 1.35161 0.798909C1.42985 0.76275 1.51371 0.744141 1.5984 0.744141C1.6831 0.744141 1.76696 0.76275 1.8452 0.798909C1.92345 0.835067 1.99454 0.888064 2.05443 0.954876L4.16756 3.3267L6.28712 1.04803C6.3462 0.974732 6.41821 0.915824 6.49863 0.87499C6.57905 0.834156 6.66616 0.812274 6.75451 0.810712C6.84286 0.809151 6.93055 0.827943 7.01209 0.865914C7.09363 0.903886 7.16727 0.96022 7.22841 1.03139C7.28955 1.10256 7.33686 1.18704 7.3674 1.27955C7.39794 1.37205 7.41104 1.47059 7.40588 1.569C7.40072 1.66741 7.37742 1.76358 7.33743 1.85148C7.29744 1.93939 7.24163 2.01714 7.17348 2.07988L4.60432 4.84582C4.48686 4.97216 4.3307 5.04389 4.16756 5.04645Z" fill="#404B69"/>
</svg>
