<svg width="26" height="25" viewBox="0 0 26 25" fill="none" xmlns="http://www.w3.org/2000/svg">
<path d="M13.9204 1.69558L13.9206 1.70316L13.9222 1.75371L13.9225 1.76127V1.76883L13.9225 13.3777L16.4557 11.0136C16.4557 11.0136 16.4557 11.0136 16.4557 11.0136C16.9333 10.5678 17.6696 10.5733 18.1408 11.0118L18.1468 11.0174L18.1527 11.0232L18.1916 11.062L18.1974 11.0678L18.203 11.0738C18.6487 11.5514 18.6433 12.2878 18.2048 12.759L18.1992 12.765L18.1934 12.7709L18.1545 12.8097L18.1487 12.8156L18.1427 12.8212L13.5372 17.1196C13.5367 17.1201 13.5362 17.1206 13.5357 17.121C13.5139 17.1416 13.4914 17.1614 13.4682 17.1804M13.9204 1.69558L13.1724 16.8184M13.9204 1.69558L13.9199 1.688C13.878 1.04267 13.3419 0.532552 12.6862 0.532552C12.0034 0.532552 11.4499 1.08605 11.4499 1.76883L11.4499 13.6651M13.9204 1.69558L11.4499 13.6651M13.4682 17.1804L13.1724 16.8184M13.4682 17.1804L13.4688 17.1799L13.1724 16.8184M13.4682 17.1804L13.4493 17.1955L13.4488 17.196C13.4344 17.2072 13.4196 17.2183 13.4045 17.2291M13.1724 16.8184L13.1605 16.828C13.1514 16.8351 13.1421 16.842 13.1327 16.8488M13.4045 17.2291C13.405 17.2288 13.4054 17.2284 13.4059 17.2281L13.1327 16.8488M13.4045 17.2291L13.1327 16.8488M13.4045 17.2291C13.3937 17.2369 13.3831 17.2441 13.3729 17.251L13.3712 17.2522C13.3617 17.2584 13.3516 17.265 13.3408 17.2717C13.3405 17.2719 13.3401 17.2721 13.3397 17.2724L13.0924 16.8757C13.0994 16.8714 13.1063 16.8669 13.113 16.8624C13.1196 16.858 13.1262 16.8535 13.1327 16.8488M11.4499 13.6651L8.60925 11.0136L8.60924 11.0136C8.11009 10.5477 7.32779 10.5747 6.86191 11.0738C6.39604 11.573 6.42302 12.3553 6.92217 12.8212L11.5351 17.1266C11.8143 17.3872 12.1822 17.4932 12.5324 17.4495C12.5833 17.4559 12.6345 17.4591 12.6857 17.4591H12.6859H12.6862H12.6938L12.7013 17.4589L12.7519 17.4572L12.7673 17.4567L12.7827 17.4552L12.8338 17.4501L12.8416 17.4494L12.8492 17.4484C12.8596 17.447 12.8693 17.4456 12.8782 17.4442L12.8805 17.4439C12.9227 17.4372 12.9645 17.4283 13.0057 17.4173M11.4499 13.6651L13.0057 17.4173M13.0057 17.4173C13.0054 17.4173 13.0052 17.4174 13.005 17.4175L12.8847 16.9658L13.0057 17.4173ZM24.8399 16.0691C24.8399 15.3863 24.2864 14.8328 23.6036 14.8328C22.9208 14.8328 22.3673 15.3863 22.3673 16.0691V18.8368C22.3673 20.1922 21.2686 21.2909 19.9132 21.2909H5.45921C4.10385 21.2909 3.00511 20.1922 3.00511 18.8368V16.0691C3.00511 15.3863 2.45161 14.8328 1.76883 14.8328C1.08605 14.8328 0.532552 15.3863 0.532552 16.0691V18.8368C0.532552 21.5578 2.73829 23.7635 5.45921 23.7635H19.9132C22.6341 23.7635 24.8399 21.5578 24.8399 18.8368V16.0691Z" fill="#56e553" stroke="#56e553" stroke-width="0.934897"/>
</svg>



