<svg width="207" height="207" viewBox="0 0 207 207" fill="none" xmlns="http://www.w3.org/2000/svg">
<path d="M207 158.314H0V158.417H207V158.314Z" fill="#EBEBEB"/>
<path d="M186.259 164.975H172.547V165.078H186.259V164.975Z" fill="#EBEBEB"/>
<path d="M137.129 166.101H133.531V166.204H137.129V166.101Z" fill="#EBEBEB"/>
<path d="M172.132 161.133H164.188V161.236H172.132V161.133Z" fill="#EBEBEB"/>
<path d="M39.5994 161.828H21.7188V161.932H39.5994V161.828Z" fill="#EBEBEB"/>
<path d="M45.9097 161.828H43.2891V161.932H45.9097V161.828Z" fill="#EBEBEB"/>
<path d="M93.2132 163.575H54.4297V163.679H93.2132V163.575Z" fill="#EBEBEB"/>
<path d="M98.1194 139.849H18.1801C17.5539 139.848 16.9537 139.599 16.5112 139.155C16.0688 138.712 15.8203 138.112 15.8203 137.485V25.1133C15.8258 24.4906 16.0767 23.8953 16.5185 23.4565C16.9603 23.0178 17.5574 22.7711 18.1801 22.77H98.1194C98.7463 22.77 99.3476 23.0191 99.7909 23.4624C100.234 23.9057 100.483 24.507 100.483 25.134V137.485C100.483 138.112 100.234 138.714 99.7909 139.157C99.3476 139.6 98.7463 139.849 98.1194 139.849ZM18.1801 22.8528C17.5813 22.8539 17.0074 23.0926 16.5844 23.5163C16.1614 23.9401 15.9238 24.5145 15.9238 25.1133V137.485C15.9238 138.084 16.1614 138.658 16.5844 139.082C17.0074 139.506 17.5813 139.745 18.1801 139.746H98.1194C98.7185 139.745 99.2929 139.506 99.7165 139.082C100.14 138.659 100.379 138.084 100.38 137.485V25.1133C100.379 24.5141 100.14 23.9398 99.7165 23.5161C99.2929 23.0924 98.7185 22.8539 98.1194 22.8528H18.1801Z" fill="#EBEBEB"/>
<path d="M187.667 139.849H107.723C107.097 139.848 106.496 139.599 106.053 139.156C105.61 138.713 105.36 138.112 105.359 137.485V25.1133C105.366 24.4902 105.618 23.8949 106.06 23.4563C106.503 23.0176 107.1 22.7711 107.723 22.77H187.667C188.289 22.7722 188.885 23.0194 189.326 23.458C189.767 23.8966 190.017 24.4913 190.022 25.1133V137.485C190.022 138.111 189.774 138.711 189.333 139.154C188.891 139.597 188.292 139.847 187.667 139.849ZM107.723 22.8528C107.124 22.8539 106.55 23.0924 106.126 23.5161C105.702 23.9398 105.464 24.5141 105.463 25.1133V137.485C105.464 138.084 105.702 138.659 106.126 139.082C106.55 139.506 107.124 139.745 107.723 139.746H187.667C188.266 139.745 188.84 139.506 189.264 139.082C189.688 138.659 189.926 138.084 189.927 137.485V25.1133C189.926 24.5141 189.688 23.9398 189.264 23.5161C188.84 23.0924 188.266 22.8539 187.667 22.8528H107.723Z" fill="#EBEBEB"/>
<path d="M119.928 72.0608H176.969V34.7056L119.928 34.7056V72.0608Z" fill="#E6E6E6"/>
<path d="M118.188 72.0608H176.156V34.7056L118.188 34.7056V72.0608Z" fill="#F0F0F0"/>
<path d="M119.928 79.3887H176.969V72.0567H119.928V79.3887Z" fill="#E6E6E6"/>
<path d="M115.297 79.3887H173.266V72.0567H115.297V79.3887Z" fill="#F0F0F0"/>
<path d="M173.719 69.6265V37.144H120.623V69.6265H173.719Z" fill="#FAFAFA"/>
<path d="M161.746 69.6223L154.965 37.144H144.383L151.164 69.6223H161.746Z" fill="white"/>
<path d="M172.596 67.2004C172.619 67.2004 172.642 67.1957 172.663 67.1868C172.685 67.1778 172.704 67.1646 172.72 67.148C172.736 67.1314 172.749 67.1117 172.758 67.0902C172.766 67.0686 172.77 67.0455 172.77 67.0224V38.7296C172.77 38.6835 172.751 38.6393 172.719 38.6066C172.686 38.574 172.642 38.5557 172.596 38.5557C172.573 38.5551 172.55 38.5593 172.529 38.5678C172.507 38.5763 172.488 38.5891 172.472 38.6054C172.455 38.6216 172.443 38.641 172.434 38.6624C172.425 38.6837 172.421 38.7066 172.422 38.7296V67.0224C172.421 67.0455 172.425 67.0686 172.434 67.0902C172.442 67.1117 172.455 67.1314 172.471 67.148C172.488 67.1646 172.507 67.1778 172.528 67.1868C172.55 67.1957 172.573 67.2004 172.596 67.2004Z" fill="#F0F0F0"/>
<path d="M148.893 69.6223L142.112 37.144H137.984L144.77 69.6223H148.893Z" fill="white"/>
<path d="M120.938 69.6265V37.144H120.627V69.6265H120.938Z" fill="#E6E6E6"/>
<path opacity="0.6" d="M117.617 40.8161H174.658L174.882 38.0879H117.841L117.617 40.8161Z" fill="#EBEBEB"/>
<path opacity="0.6" d="M117.617 45.2876H174.658L174.882 42.5635H117.841L117.617 45.2876Z" fill="#EBEBEB"/>
<path opacity="0.6" d="M117.617 49.7585H174.658L174.882 47.0344H117.841L117.617 49.7585Z" fill="#EBEBEB"/>
<path opacity="0.6" d="M117.617 54.2341H174.658L174.882 51.5059H117.841L117.617 54.2341Z" fill="#EBEBEB"/>
<path opacity="0.6" d="M117.617 58.7051H174.658L174.882 55.9768H117.841L117.617 58.7051Z" fill="#EBEBEB"/>
<path opacity="0.6" d="M117.617 63.1765H174.658L174.882 60.4482H117.841L117.617 63.1765Z" fill="#EBEBEB"/>
<path d="M168.781 131.147H156.82V133.507H168.781V131.147Z" fill="#E6E6E6"/>
<path d="M134.262 158.314H136.469V104.051H134.262V158.314Z" fill="#E6E6E6"/>
<path d="M126.615 133.507H156.82V131.147H126.615V133.507Z" fill="#F5F5F5"/>
<path d="M168.781 144.051H156.82V146.411H168.781V144.051Z" fill="#E6E6E6"/>
<path d="M126.615 146.407H156.82V144.047H126.615V146.407Z" fill="#F5F5F5"/>
<path d="M168.781 105.342H156.82V107.702H168.781V105.342Z" fill="#E6E6E6"/>
<path d="M126.615 107.698H156.82V105.338H126.615V107.698Z" fill="#F5F5F5"/>
<path d="M168.781 118.242H156.82V120.602H168.781V118.242Z" fill="#E6E6E6"/>
<path d="M126.615 120.602H156.82V118.242H126.615V120.602Z" fill="#F5F5F5"/>
<path d="M164.473 158.314H166.68V104.051H164.473V158.314Z" fill="#E6E6E6"/>
<path d="M154.614 158.314H156.82V104.051H154.614V158.314Z" fill="#F5F5F5"/>
<path d="M126.614 158.314H128.82V104.051H126.614V158.314Z" fill="#F5F5F5"/>
<path d="M27.0679 158.314H49.6641L49.6641 114.475H27.0679L27.0679 158.314Z" fill="#E6E6E6"/>
<path d="M33.0986 158.314H27.0625V152.261H39.4245L33.0986 158.314Z" fill="#FAFAFA"/>
<path d="M88.6695 158.314H111.266V114.475H88.6695V158.314Z" fill="#E6E6E6"/>
<path d="M27.0641 156.227H93.9375V114.471H27.0641V156.227Z" fill="#FAFAFA"/>
<path d="M87.904 158.314H93.936V152.261H81.5781L87.904 158.314Z" fill="#FAFAFA"/>
<path d="M31.7449 140.483H89.2578V130.033H31.7449V140.483Z" fill="#F0F0F0"/>
<path d="M31.7449 153.163H89.2578V142.714H31.7449V153.163Z" fill="#F0F0F0"/>
<path d="M78.3268 131.151H42.6772C42.1743 131.151 41.6921 130.951 41.3365 130.596C40.9809 130.24 40.7811 129.758 40.7811 129.255V129.127H80.2187V129.255C80.2188 129.757 80.0196 130.239 79.6649 130.594C79.3102 130.95 78.8289 131.15 78.3268 131.151Z" fill="#FAFAFA"/>
<path d="M31.7449 127.798H89.2578V117.348H31.7449V127.798Z" fill="#F0F0F0"/>
<path d="M78.3268 118.466H42.6772C42.1743 118.466 41.6921 118.266 41.3365 117.911C40.9809 117.555 40.7811 117.073 40.7811 116.57V116.442H80.2187V116.57C80.2188 117.072 80.0196 117.554 79.6649 117.909C79.3102 118.265 78.8289 118.465 78.3268 118.466Z" fill="#FAFAFA"/>
<path d="M78.3268 143.836H42.6772C42.1743 143.836 41.6921 143.636 41.3365 143.281C40.9809 142.925 40.7811 142.443 40.7811 141.94V141.811H80.2187V141.94C80.2188 142.442 80.0196 142.924 79.6649 143.279C79.3102 143.635 78.8289 143.835 78.3268 143.836Z" fill="#FAFAFA"/>
<path d="M30.6622 72.0608H87.7031V34.7056L30.6622 34.7056L30.6622 72.0608Z" fill="#E6E6E6"/>
<path d="M28.9302 72.0608H86.8984V34.7056L28.9302 34.7056L28.9302 72.0608Z" fill="#F0F0F0"/>
<path d="M30.6622 79.3887H87.7031V72.0567H30.6622V79.3887Z" fill="#E6E6E6"/>
<path d="M26.0239 79.3887H83.9922V72.0567H26.0239V79.3887Z" fill="#F0F0F0"/>
<path d="M84.4531 69.6265V37.144H31.3576V69.6265H84.4531Z" fill="#FAFAFA"/>
<path d="M72.4803 69.6223L65.699 37.144H55.1172L61.8985 69.6223H72.4803Z" fill="white"/>
<path d="M83.3302 67.2004C83.3534 67.2004 83.3763 67.1957 83.3977 67.1868C83.4191 67.1778 83.4384 67.1646 83.4546 67.148C83.4708 67.1314 83.4835 67.1117 83.492 67.0902C83.5005 67.0686 83.5046 67.0455 83.5041 67.0224V38.7296C83.5046 38.7066 83.5005 38.6837 83.492 38.6624C83.4834 38.641 83.4707 38.6216 83.4544 38.6054C83.4381 38.5891 83.4187 38.5763 83.3974 38.5678C83.376 38.5593 83.3532 38.5551 83.3302 38.5557C83.2841 38.5557 83.2398 38.574 83.2072 38.6066C83.1746 38.6393 83.1563 38.6835 83.1563 38.7296V67.0224C83.1557 67.0455 83.1598 67.0686 83.1683 67.0902C83.1768 67.1117 83.1895 67.1314 83.2057 67.148C83.2219 67.1646 83.2413 67.1778 83.2627 67.1868C83.284 67.1957 83.307 67.2004 83.3302 67.2004Z" fill="#F0F0F0"/>
<path d="M59.6276 69.6223L52.8463 37.144H48.7188L55.5001 69.6223H59.6276Z" fill="white"/>
<path d="M31.6719 69.6265L31.6719 37.144H31.3614L31.3614 69.6265H31.6719Z" fill="#E6E6E6"/>
<path opacity="0.6" d="M28.3438 40.8161H85.3847L85.6082 38.0879H28.5673L28.3438 40.8161Z" fill="#EBEBEB"/>
<path opacity="0.6" d="M28.3438 42.3564H85.3847L85.6082 39.6282H28.5673L28.3438 42.3564Z" fill="#EBEBEB"/>
<path opacity="0.6" d="M28.3438 43.8923H85.3847L85.6082 41.1682H28.5673L28.3438 43.8923Z" fill="#EBEBEB"/>
<path opacity="0.6" d="M28.3438 45.4324H85.3847L85.6082 42.7041H28.5673L28.3438 45.4324Z" fill="#EBEBEB"/>
<path opacity="0.6" d="M28.3438 46.9683H85.3847L85.6082 44.2441H28.5673L28.3438 46.9683Z" fill="#EBEBEB"/>
<path opacity="0.6" d="M28.3438 48.5083H85.3847L85.6082 45.78H28.5673L28.3438 48.5083Z" fill="#EBEBEB"/>
<path d="M39.7559 113.134H41.7266V91.1545H39.7559V113.134Z" fill="#F5F5F5"/>
<path d="M40.0036 113.121H40.5625V91.1421H40.0036V113.121Z" fill="#FAFAFA"/>
<path d="M40.7962 113.121H41.0156V91.1421H40.7962V113.121Z" fill="#FAFAFA"/>
<path d="M48.0391 114.475H33.4497C33.4497 113.988 33.6434 113.52 33.9881 113.175C34.3328 112.831 34.8004 112.637 35.2879 112.637H46.1968C46.6843 112.637 47.1518 112.831 47.4965 113.175C47.8413 113.52 48.0349 113.988 48.0349 114.475H48.0391Z" fill="#F0F0F0"/>
<path d="M37.1963 104.8C37.3464 104.799 37.49 104.739 37.5962 104.633C37.7023 104.526 37.7624 104.383 37.7635 104.233V89.8379C37.7635 89.6875 37.7037 89.5433 37.5974 89.4369C37.491 89.3305 37.3467 89.2708 37.1963 89.2708C37.1215 89.2702 37.0473 89.2845 36.978 89.3127C36.9087 89.341 36.8457 89.3827 36.7926 89.4354C36.7395 89.4881 36.6973 89.5508 36.6686 89.6199C36.6398 89.689 36.625 89.7631 36.625 89.8379V104.249C36.6304 104.397 36.6929 104.537 36.7995 104.64C36.9061 104.743 37.0483 104.8 37.1963 104.8Z" fill="#F0F0F0"/>
<path d="M31.9062 96.3792H49.5634L47.5306 84.042H33.939L31.9062 96.3792Z" fill="#E0E0E0"/>
<path d="M103.505 177.01C147.837 177.01 183.775 174.911 183.775 172.323C183.775 169.735 147.837 167.637 103.505 167.637C59.1727 167.637 23.2344 169.735 23.2344 172.323C23.2344 174.911 59.1727 177.01 103.505 177.01Z" fill="#F5F5F5"/>
<path d="M43.1082 83.7768L42.6953 83.8065L43.2453 91.4416L43.6582 91.4119L43.1082 83.7768Z" fill="#407BFF"/>
<path d="M43.9364 95.3533L43.5234 95.3831L43.7305 98.257L44.1434 98.2273L43.9364 95.3533Z" fill="#407BFF"/>
<path d="M139.813 130.476H51.151C50.1641 130.459 49.2187 130.076 48.497 129.403C47.7754 128.729 47.3286 127.812 47.2428 126.829L42.8876 66.3312C42.8471 65.8646 42.9047 65.3948 43.0569 64.9518C43.209 64.5089 43.4522 64.1027 43.7709 63.7595C44.0895 63.4163 44.4765 63.1437 44.9069 62.9591C45.3373 62.7745 45.8017 62.6822 46.27 62.688H134.932C135.918 62.7056 136.863 63.0876 137.585 63.7602C138.306 64.4328 138.754 65.3486 138.84 66.3312L143.196 126.829C143.236 127.296 143.178 127.766 143.026 128.209C142.874 128.652 142.631 129.059 142.313 129.402C141.994 129.746 141.607 130.019 141.177 130.204C140.746 130.389 140.282 130.482 139.813 130.476Z" fill="#407BFF"/>
<path d="M140.157 130.476H51.4948C50.5078 130.459 49.5624 130.076 48.8408 129.403C48.1191 128.729 47.6724 127.812 47.5866 126.829L43.2313 66.3312C43.1908 65.8646 43.2485 65.3948 43.4006 64.9518C43.5527 64.5089 43.796 64.1027 44.1146 63.7595C44.4332 63.4163 44.8202 63.1437 45.2507 62.9591C45.6811 62.7745 46.1454 62.6822 46.6137 62.688H135.276C136.262 62.7056 137.207 63.0876 137.929 63.7602C138.65 64.4328 139.097 65.3486 139.184 66.3312L143.539 126.829C143.581 127.296 143.523 127.766 143.371 128.21C143.22 128.653 142.976 129.06 142.658 129.403C142.339 129.747 141.952 130.02 141.521 130.205C141.09 130.39 140.626 130.482 140.157 130.476Z" fill="#407BFF"/>
<path opacity="0.5" d="M140.157 130.476H51.4948C50.5078 130.459 49.5624 130.076 48.8408 129.403C48.1191 128.729 47.6724 127.812 47.5866 126.829L43.2313 66.3312C43.1908 65.8646 43.2485 65.3948 43.4006 64.9518C43.5527 64.5089 43.796 64.1027 44.1146 63.7595C44.4332 63.4163 44.8202 63.1437 45.2507 62.9591C45.6811 62.7745 46.1454 62.6822 46.6137 62.688H135.276C136.262 62.7056 137.207 63.0876 137.929 63.7602C138.65 64.4328 139.097 65.3486 139.184 66.3312L143.539 126.829C143.581 127.296 143.523 127.766 143.371 128.21C143.22 128.653 142.976 129.06 142.658 129.403C142.339 129.747 141.952 130.02 141.521 130.205C141.09 130.39 140.626 130.482 140.157 130.476Z" fill="white"/>
<path d="M135.404 64.5095H46.7414H46.4433C44.1788 64.6958 44.6424 68.1444 46.9277 68.1444H135.739C138.028 68.1444 137.995 64.6958 135.702 64.5095H135.404Z" fill="#407BFF"/>
<path d="M49.0501 66.3313C49.0588 66.438 49.045 66.5453 49.0097 66.6464C48.9743 66.7475 48.9181 66.84 48.8448 66.9181C48.7714 66.9961 48.6825 67.0579 48.5838 67.0994C48.4851 67.141 48.3788 67.1613 48.2718 67.1593C48.0468 67.1561 47.8309 67.0697 47.6658 66.9168C47.5006 66.764 47.398 66.5554 47.3775 66.3313C47.3689 66.2249 47.3825 66.1179 47.4176 66.0171C47.4528 65.9163 47.5086 65.8239 47.5814 65.746C47.6543 65.668 47.7427 65.6062 47.8409 65.5644C47.9391 65.5226 48.045 65.5017 48.1517 65.5033C48.3774 65.5054 48.5943 65.5913 48.7603 65.7443C48.9263 65.8973 49.0296 66.1064 49.0501 66.3313Z" fill="#FAFAFA"/>
<path d="M51.8938 66.3313C51.9025 66.438 51.8888 66.5453 51.8534 66.6464C51.818 66.7475 51.7619 66.84 51.6885 66.9181C51.6152 66.9961 51.5263 67.0579 51.4276 67.0994C51.3289 67.141 51.2226 67.1613 51.1155 67.1593C50.8905 67.1561 50.6746 67.0697 50.5095 66.9168C50.3444 66.764 50.2417 66.5554 50.2213 66.3313C50.2126 66.2249 50.2263 66.1179 50.2614 66.0171C50.2965 65.9163 50.3523 65.8239 50.4252 65.746C50.4981 65.668 50.5865 65.6062 50.6847 65.5644C50.7829 65.5226 50.8887 65.5017 50.9955 65.5033C51.2212 65.5054 51.4381 65.5913 51.6041 65.7443C51.7701 65.8973 51.8733 66.1064 51.8938 66.3313Z" fill="#FAFAFA"/>
<path d="M54.7416 66.3313C54.7503 66.4377 54.7366 66.5447 54.7015 66.6455C54.6664 66.7463 54.6106 66.8386 54.5377 66.9166C54.4648 66.9946 54.3764 67.0564 54.2782 67.0982C54.18 67.14 54.0742 67.1608 53.9675 67.1593C53.7422 67.1571 53.5258 67.0711 53.3605 66.918C53.1952 66.7649 53.0927 66.5558 53.0732 66.3313C53.0639 66.2248 53.0771 66.1175 53.112 66.0165C53.1469 65.9154 53.2026 65.8228 53.2757 65.7447C53.3487 65.6666 53.4373 65.6047 53.5358 65.5631C53.6343 65.5216 53.7405 65.5012 53.8474 65.5033C54.0724 65.5065 54.2883 65.5928 54.4534 65.7457C54.6185 65.8986 54.7212 66.1072 54.7416 66.3313Z" fill="#FAFAFA"/>
<path d="M137.802 124.44H52.9944C52.6361 124.434 52.2929 124.295 52.0312 124.051C51.7696 123.806 51.6082 123.472 51.5785 123.115L47.9974 73.365C47.9815 73.1943 48.002 73.0221 48.0577 72.8599C48.1134 72.6978 48.203 72.5493 48.3204 72.4244C48.4379 72.2995 48.5806 72.201 48.739 72.1355C48.8975 72.0699 49.068 72.0389 49.2394 72.0443H134.068C134.426 72.0492 134.769 72.1872 135.031 72.4313C135.293 72.6755 135.454 73.0083 135.484 73.365L139.069 123.115C139.085 123.288 139.063 123.463 139.006 123.626C138.948 123.79 138.857 123.94 138.737 124.065C138.617 124.191 138.471 124.289 138.31 124.354C138.149 124.419 137.976 124.448 137.802 124.44Z" fill="white"/>
<path d="M102.062 105.487L100.679 86.3108L96.4977 83.7937H84.9844L86.5493 105.487H102.062Z" fill="white"/>
<path d="M102.066 105.686H86.5532C86.5019 105.687 86.4521 105.668 86.4143 105.634C86.3765 105.599 86.3536 105.551 86.3504 105.5L84.7896 83.8061C84.7876 83.7789 84.7914 83.7515 84.8006 83.7258C84.8099 83.7002 84.8245 83.6767 84.8434 83.6571C84.8617 83.6366 84.884 83.6202 84.9089 83.6088C84.9339 83.5974 84.9609 83.5913 84.9883 83.5908H96.5016C96.538 83.5921 96.5734 83.602 96.6051 83.6198L100.787 86.1369C100.815 86.153 100.838 86.1758 100.856 86.2032C100.873 86.2307 100.883 86.2619 100.886 86.2942L102.26 105.471C102.263 105.499 102.26 105.527 102.251 105.553C102.241 105.58 102.226 105.604 102.207 105.624C102.189 105.643 102.167 105.659 102.143 105.669C102.118 105.68 102.092 105.686 102.066 105.686ZM86.7478 105.272H101.846L100.488 86.4143L96.4644 83.9924H85.2036L86.7478 105.272Z" fill="#407BFF"/>
<path d="M100.681 86.3108L96.5 83.7937L98.0359 87.1305L100.681 86.3108Z" fill="#EBEBEB"/>
<path d="M98.0415 87.3292C98.0033 87.329 97.966 87.318 97.9337 87.2975C97.9015 87.277 97.8757 87.2478 97.8594 87.2133L96.3234 83.8765C96.3055 83.8373 96.3003 83.7935 96.3084 83.7512C96.3166 83.7089 96.3378 83.6702 96.369 83.6405C96.4018 83.6124 96.4426 83.5953 96.4857 83.5916C96.5288 83.5879 96.5719 83.5977 96.6091 83.6198L100.79 86.1369C100.824 86.1572 100.851 86.1866 100.869 86.2218C100.887 86.257 100.894 86.2965 100.89 86.3356C100.885 86.3737 100.868 86.4095 100.844 86.4389C100.819 86.4682 100.786 86.4898 100.749 86.5012L98.0995 87.3292H98.0415ZM96.961 84.2987L98.1492 86.8862L100.219 86.2528L96.961 84.2987Z" fill="#407BFF"/>
<path d="M91.4937 93.5642C91.4999 93.6767 91.4831 93.7893 91.4443 93.8951C91.4054 94.0009 91.3454 94.0976 91.2679 94.1794C91.1904 94.2611 91.097 94.3262 90.9935 94.3707C90.8899 94.4151 90.7784 94.4379 90.6657 94.4378C90.4294 94.4335 90.203 94.3419 90.0302 94.1806C89.8574 94.0193 89.7505 93.7997 89.7301 93.5642C89.7194 93.4505 89.7331 93.3359 89.7703 93.2279C89.8074 93.1199 89.8672 93.0211 89.9455 92.938C90.0239 92.855 90.119 92.7896 90.2247 92.7462C90.3303 92.7028 90.444 92.6825 90.5581 92.6865C90.7948 92.6918 91.0212 92.7843 91.1939 92.9463C91.3666 93.1083 91.4734 93.3283 91.4937 93.5642Z" fill="#407BFF"/>
<path d="M97.1677 93.5642C97.1778 93.6776 97.1636 93.7918 97.1262 93.8992C97.0887 94.0067 97.0289 94.105 96.9506 94.1876C96.8723 94.2702 96.7774 94.3352 96.672 94.3783C96.5667 94.4215 96.4534 94.4417 96.3397 94.4377C96.1029 94.4336 95.876 94.3421 95.7026 94.1809C95.5291 94.0197 95.4213 93.8001 95.3999 93.5642C95.3931 93.4514 95.4095 93.3383 95.4481 93.2321C95.4867 93.1258 95.5466 93.0286 95.6242 92.9463C95.7017 92.8641 95.7953 92.7986 95.8992 92.7539C96.003 92.7093 96.1149 92.6863 96.2279 92.6865C96.4656 92.6898 96.6936 92.7816 96.8673 92.9438C97.0411 93.1061 97.1482 93.3273 97.1677 93.5642Z" fill="#407BFF"/>
<path d="M98.7777 99.2524C98.7274 99.2515 98.6792 99.232 98.6424 99.1975C98.6057 99.1631 98.5831 99.1162 98.579 99.0661C98.4755 97.6543 96.2647 96.5075 93.6524 96.5075C91.9177 96.5075 90.3611 97.025 89.5911 97.853C89.4329 98.0056 89.309 98.1901 89.2276 98.3942C89.1462 98.5984 89.1092 98.8175 89.1191 99.0371C89.121 99.0643 89.1175 99.0916 89.1089 99.1174C89.1003 99.1432 89.0866 99.1671 89.0687 99.1877C89.0326 99.2292 88.9815 99.2547 88.9266 99.2586C88.8717 99.2624 88.8175 99.2443 88.776 99.2082C88.7344 99.1721 88.709 99.121 88.7051 99.0661C88.6928 98.7916 88.738 98.5176 88.8378 98.2617C88.9376 98.0057 89.0898 97.7734 89.2847 97.5798C90.1127 96.6731 91.7977 96.106 93.64 96.106C96.509 96.106 98.8481 97.3935 98.964 99.0371C98.9657 99.0632 98.9622 99.0894 98.9538 99.1141C98.9453 99.1389 98.932 99.1617 98.9147 99.1813C98.8974 99.201 98.8764 99.217 98.8529 99.2284C98.8294 99.2399 98.8038 99.2466 98.7777 99.2482V99.2524Z" fill="#407BFF"/>
<path d="M88.2579 91.7923C88.2074 91.7913 88.1589 91.7722 88.1213 91.7385C88.0836 91.7005 88.0625 91.6492 88.0625 91.5957C88.0625 91.5422 88.0836 91.4908 88.1213 91.4528L89.0031 90.5048C89.0409 90.4684 89.0914 90.448 89.1439 90.448C89.1964 90.448 89.2468 90.4684 89.2846 90.5048C89.3032 90.5232 89.3179 90.5452 89.3279 90.5693C89.3379 90.5935 89.3431 90.6194 89.3431 90.6455C89.3431 90.6717 89.3379 90.6976 89.3279 90.7218C89.3179 90.7459 89.3032 90.7678 89.2846 90.7863L88.4028 91.7344C88.3838 91.7533 88.3612 91.7682 88.3363 91.7782C88.3114 91.7881 88.2847 91.7929 88.2579 91.7923Z" fill="#407BFF"/>
<path d="M98.3599 91.7923C98.3097 91.79 98.2616 91.771 98.2233 91.7385L97.209 90.7904C97.1898 90.7719 97.1746 90.7497 97.1642 90.7252C97.1538 90.7006 97.1484 90.6743 97.1484 90.6476C97.1484 90.621 97.1538 90.5946 97.1642 90.57C97.1746 90.5455 97.1898 90.5233 97.209 90.5048C97.2468 90.4684 97.2973 90.448 97.3498 90.448C97.4023 90.448 97.4527 90.4684 97.4905 90.5048L98.5048 91.4528C98.5233 91.4713 98.538 91.4932 98.5481 91.5174C98.5581 91.5415 98.5633 91.5675 98.5633 91.5936C98.5633 91.6198 98.5581 91.6457 98.5481 91.6698C98.538 91.694 98.5233 91.7159 98.5048 91.7344C98.4655 91.7711 98.4138 91.7918 98.3599 91.7923Z" fill="#407BFF"/>
<path d="M83.7422 109.772H84.6778L86.0275 111.569L85.8991 109.772H86.843L87.0749 113.018H86.1185L84.7772 111.234L84.9055 113.018H83.9616L83.7422 109.772Z" fill="#407BFF"/>
<path d="M87.4928 111.395C87.4609 111.175 87.4761 110.95 87.5375 110.736C87.5989 110.522 87.705 110.323 87.8489 110.153C88.0062 109.998 88.1946 109.879 88.4016 109.803C88.6085 109.726 88.8294 109.695 89.0495 109.71C89.516 109.685 89.9742 109.841 90.3287 110.145C90.6535 110.468 90.8417 110.904 90.8545 111.362C90.8887 111.678 90.8461 111.997 90.7303 112.293C90.6231 112.532 90.4435 112.73 90.217 112.861C89.9451 113.006 89.6392 113.076 89.331 113.064C89.0143 113.074 88.6992 113.014 88.4078 112.89C88.1525 112.767 87.9372 112.575 87.7868 112.335C87.6092 112.052 87.5079 111.729 87.4928 111.395ZM88.4989 111.395C88.4948 111.649 88.5765 111.897 88.7307 112.099C88.7953 112.17 88.8748 112.226 88.9635 112.263C89.0522 112.301 89.148 112.318 89.2441 112.314C89.3358 112.321 89.4278 112.305 89.5121 112.268C89.5965 112.231 89.6707 112.175 89.7284 112.103C89.8473 111.877 89.8867 111.617 89.8402 111.366C89.842 111.123 89.7601 110.886 89.6084 110.695C89.542 110.626 89.4616 110.571 89.3724 110.534C89.2831 110.498 89.1872 110.481 89.0909 110.484C89.0008 110.48 88.9111 110.498 88.8291 110.535C88.747 110.573 88.675 110.629 88.6189 110.7C88.4977 110.913 88.4552 111.162 88.4989 111.403V111.395Z" fill="#407BFF"/>
<path d="M92.8047 109.772H94.2951C94.5408 109.764 94.7856 109.805 95.0155 109.892C95.1974 109.968 95.359 110.086 95.4874 110.236C95.6178 110.388 95.7176 110.564 95.7813 110.753C95.8485 110.957 95.8902 111.169 95.9055 111.383C95.9373 111.653 95.9162 111.927 95.8435 112.19C95.7864 112.372 95.6855 112.537 95.5495 112.67C95.4361 112.79 95.2934 112.879 95.1355 112.927C94.9429 112.983 94.7439 113.013 94.5435 113.018H93.0572L92.8047 109.772ZM93.8604 110.509L93.9887 112.281H94.233C94.3841 112.291 94.5354 112.267 94.676 112.211C94.7687 112.157 94.8369 112.069 94.8664 111.966C94.9138 111.783 94.9251 111.591 94.8995 111.403C94.9074 111.151 94.8301 110.903 94.6801 110.7C94.6032 110.63 94.5128 110.577 94.4144 110.544C94.3161 110.512 94.212 110.5 94.1088 110.509H93.8604Z" fill="#407BFF"/>
<path d="M98.3046 112.48H97.1661L97.046 113.018H96.0234L97.0088 109.772H98.1183L99.5714 113.018H98.5199L98.3046 112.48ZM98.0438 111.78L97.6049 110.613L97.3317 111.78H98.0438Z" fill="#407BFF"/>
<path d="M99.1016 109.772H102.149L102.207 110.575H101.184L101.358 113.018H100.356L100.182 110.575H99.1595L99.1016 109.772Z" fill="#407BFF"/>
<path d="M104.484 112.48H103.346L103.226 113.018H102.203L103.188 109.772H104.281L105.73 113.018H104.683L104.484 112.48ZM104.223 111.78L103.78 110.613L103.503 111.78H104.223Z" fill="#407BFF"/>
<path d="M146.422 71.6552C146.79 71.4689 147.25 71.2412 147.639 71.0052C148.028 70.7692 148.467 70.5415 148.881 70.2931C149.688 69.7922 150.508 69.2995 151.282 68.753C152.837 67.6891 154.295 66.4893 155.638 65.1678C155.807 65.0105 155.956 64.8366 156.118 64.6668L156.354 64.4143L156.47 64.2901L156.528 64.2239C156.47 64.3356 156.528 64.3025 156.528 64.1949C156.564 64.047 156.585 63.8958 156.59 63.7436C156.58 62.8633 156.479 61.9864 156.287 61.1271C155.919 59.2724 155.36 57.3597 154.81 55.4885L156.416 54.7847C157.43 56.58 158.276 58.4648 158.945 60.4151C159.321 61.469 159.56 62.5668 159.657 63.6815C159.683 64.0281 159.672 64.3764 159.624 64.7207C159.563 65.2075 159.39 65.6736 159.119 66.0827L159.049 66.1779L158.995 66.2442L158.933 66.3228L158.805 66.4802L158.548 66.7907C158.378 66.9935 158.213 67.2047 158.03 67.3992C156.615 68.9703 155.035 70.3859 153.319 71.622C152.491 72.2348 151.613 72.8226 150.715 73.3567C150.272 73.6258 149.821 73.8825 149.361 74.135C148.902 74.3876 148.455 74.6194 147.925 74.8678L146.422 71.6552Z" fill="#FFB573"/>
<path d="M142.734 168.987C143.044 168.979 143.352 168.937 143.653 168.862C143.669 168.858 143.682 168.849 143.693 168.838C143.704 168.826 143.712 168.812 143.715 168.796C143.717 168.78 143.715 168.764 143.709 168.749C143.702 168.735 143.691 168.722 143.678 168.713C143.558 168.635 142.507 167.956 142.101 168.138C142.056 168.159 142.017 168.191 141.989 168.232C141.961 168.273 141.943 168.32 141.939 168.37C141.923 168.448 141.927 168.529 141.951 168.605C141.975 168.681 142.018 168.75 142.076 168.804C142.266 168.943 142.5 169.007 142.734 168.987ZM143.417 168.746C142.817 168.866 142.362 168.846 142.175 168.684C142.138 168.646 142.111 168.599 142.096 168.548C142.082 168.497 142.081 168.442 142.093 168.39C142.094 168.368 142.101 168.347 142.114 168.329C142.126 168.311 142.143 168.296 142.163 168.287C142.382 168.192 142.991 168.498 143.417 168.746Z" fill="#407BFF"/>
<path d="M143.649 168.862H143.69C143.702 168.855 143.712 168.845 143.72 168.832C143.727 168.82 143.731 168.806 143.732 168.792C143.732 168.746 143.732 167.749 143.351 167.417C143.305 167.373 143.25 167.341 143.19 167.321C143.129 167.302 143.066 167.296 143.003 167.306C142.938 167.306 142.874 167.329 142.824 167.371C142.773 167.412 142.739 167.469 142.725 167.533C142.647 167.947 143.276 168.672 143.607 168.862C143.621 168.866 143.635 168.866 143.649 168.862ZM143.057 167.459C143.124 167.459 143.189 167.484 143.239 167.529C143.457 167.851 143.57 168.233 143.562 168.622C143.231 168.357 142.837 167.794 142.887 167.558C142.887 167.521 142.916 167.471 143.019 167.459H143.057Z" fill="#407BFF"/>
<path d="M143.327 61.301C142.913 63.371 142.085 67.511 143.513 68.8979C143.513 68.8979 142.95 70.9679 139.129 70.9679C134.923 70.9679 137.121 68.8979 137.121 68.8979C139.415 68.3514 139.353 66.6499 138.955 65.0477L143.327 61.301Z" fill="#FFB573"/>
<path d="M136.315 69.7259C135.657 69.817 136.22 68.1072 136.485 67.9292C137.106 67.5152 145.121 66.9397 145.067 67.9292C145.034 68.3432 144.836 69.1712 144.488 69.4444C144.14 69.7176 142.078 68.8648 136.315 69.7259Z" fill="#263238"/>
<path d="M137.625 69.1381C137.099 69.3161 137.149 67.5939 137.327 67.3869C137.741 66.9066 144.228 65.2423 144.418 66.1821C144.493 66.5961 144.53 67.4241 144.307 67.7181C144.083 68.012 142.179 67.5276 137.625 69.1381Z" fill="#263238"/>
<path d="M135.212 57.5917C135.186 57.5928 135.16 57.5878 135.136 57.577C135.112 57.5662 135.092 57.5499 135.075 57.5296C134.949 57.3666 134.786 57.2357 134.6 57.1472C134.414 57.0588 134.209 57.0153 134.003 57.0203C133.981 57.0232 133.96 57.0217 133.939 57.0159C133.918 57.0102 133.898 57.0002 133.881 56.9867C133.864 56.9731 133.85 56.9563 133.84 56.9372C133.829 56.9181 133.823 56.8971 133.821 56.8754C133.817 56.8328 133.83 56.7904 133.857 56.7573C133.884 56.7241 133.923 56.7026 133.966 56.6974C134.226 56.6841 134.486 56.734 134.724 56.8429C134.961 56.9517 135.168 57.1163 135.328 57.3226C135.356 57.3562 135.369 57.3993 135.365 57.4427C135.361 57.4861 135.34 57.5262 135.307 57.5544C135.279 57.5746 135.246 57.5874 135.212 57.5917Z" fill="#263238"/>
<path d="M134.406 59.616C134.218 60.2764 133.94 60.9076 133.578 61.4914C133.73 61.5787 133.899 61.6317 134.074 61.6467C134.248 61.6617 134.424 61.6384 134.588 61.5783L134.406 59.616Z" fill="#FF5652"/>
<path d="M134.615 59.115C134.644 59.3924 134.515 59.6325 134.333 59.649C134.151 59.6656 133.981 59.4586 133.956 59.1771C133.931 58.8956 134.056 58.6596 134.234 58.643C134.412 58.6265 134.586 58.8335 134.615 59.115Z" fill="#263238"/>
<path d="M134.312 58.6513L133.625 58.5229C133.625 58.5229 134.018 59.0115 134.312 58.6513Z" fill="#263238"/>
<path d="M147.672 168.784H144.203L144.476 160.752H147.946L147.672 168.784Z" fill="#FFB573"/>
<path d="M143.928 168.382H147.824C147.891 168.381 147.956 168.404 148.007 168.447C148.058 168.491 148.092 168.552 148.101 168.618L148.544 171.698C148.553 171.776 148.545 171.855 148.521 171.93C148.497 172.004 148.458 172.073 148.405 172.131C148.353 172.19 148.289 172.236 148.217 172.268C148.145 172.3 148.068 172.316 147.989 172.315C146.631 172.294 145.977 172.212 144.263 172.212C143.207 172.212 141.667 172.323 140.214 172.323C138.761 172.323 138.678 170.883 139.287 170.754C142.003 170.167 142.433 169.363 143.348 168.593C143.511 168.458 143.716 168.383 143.928 168.382Z" fill="#263238"/>
<g opacity="0.2">
<path d="M147.946 160.752H144.477L144.336 164.892H147.805L147.946 160.752Z" fill="black"/>
</g>
<path d="M133.869 73.6921C131.746 72.8667 129.666 71.934 127.638 70.8976C125.543 69.8739 123.547 68.6585 121.677 67.2668C121.177 66.8752 120.704 66.4506 120.261 65.9958C120.145 65.8716 120.029 65.7557 119.917 65.6108C119.786 65.4627 119.664 65.3064 119.553 65.143C119.247 64.6982 119.057 64.1847 118.998 63.6484C118.952 63.14 119.022 62.6278 119.201 62.1497C119.344 61.7655 119.541 61.4032 119.785 61.0733C120.185 60.5265 120.657 60.0363 121.188 59.6161C122.126 58.8691 123.139 58.2212 124.21 57.6827C124.724 57.4094 125.245 57.1652 125.775 56.9375C126.305 56.7098 126.827 56.4945 127.394 56.2999L128.127 57.8938C126.322 59.0323 124.45 60.2867 123.076 61.6861C122.768 61.9978 122.497 62.3436 122.269 62.7169C122.07 63.044 122.074 63.2882 122.107 63.2675C122.14 63.2468 122.107 63.2675 122.165 63.3089L122.331 63.487C122.393 63.5615 122.48 63.636 122.558 63.7147C122.909 64.0374 123.281 64.3362 123.672 64.6089C124.527 65.214 125.417 65.767 126.338 66.2649C127.27 66.7865 128.23 67.2792 129.207 67.7512C131.161 68.6868 133.182 69.5852 135.165 70.4049L133.869 73.6921Z" fill="#FFB573"/>
<path d="M129.161 56.7802L129.732 55.5382L127.116 54.6481C127.116 54.6481 126.288 57.0948 127.269 58.2209C127.679 58.1563 128.066 57.9909 128.397 57.7394C128.727 57.4879 128.989 57.1583 129.161 56.7802Z" fill="#FFB573"/>
<path d="M129.721 52.8513L127.639 52.2468L127.117 54.6315L129.721 55.5381V52.8513Z" fill="#FFB573"/>
<path d="M156.631 55.6583L156.933 52.7603L154.25 53.4061C154.25 53.4061 154.209 56.1302 155.629 56.5608L156.631 55.6583Z" fill="#FFB573"/>
<path d="M155.642 50.7192L153.891 51.5348L154.251 53.3854L156.934 52.752L155.642 50.7192Z" fill="#FFB573"/>
<path d="M143.876 57.2355C144.005 60.6758 144.129 62.129 142.577 64.0541C140.237 66.9521 135.986 66.3518 134.835 63.0191C133.8 60.0217 133.767 54.9005 136.979 53.2114C137.686 52.8358 138.476 52.647 139.276 52.6628C140.076 52.6786 140.858 52.8984 141.549 53.3016C142.24 53.7047 142.817 54.2777 143.224 54.9662C143.631 55.6546 143.856 56.4358 143.876 57.2355Z" fill="#FFB573"/>
<path d="M142.373 64.0499C145.751 62.5885 147.97 59.4959 147.035 54.7018C146.136 50.1023 143.031 49.6468 141.748 50.599C140.465 51.5512 137.264 50.1312 135.343 51.7458C132.031 54.5486 135.161 57.5418 136.801 59.351C137.778 61.363 139.061 65.4782 142.373 64.0499Z" fill="#263238"/>
<path d="M140.973 53.878C141.385 54.4067 141.943 54.8031 142.578 55.0183C143.212 55.2336 143.896 55.2582 144.545 55.0892C145.194 54.9201 145.779 54.5649 146.228 54.0672C146.677 53.5696 146.97 52.9513 147.072 52.2888C147.174 51.6263 147.079 50.9484 146.8 50.339C146.521 49.7296 146.069 49.2152 145.501 48.8594C144.933 48.5036 144.273 48.3219 143.603 48.3368C142.933 48.3517 142.282 48.5625 141.73 48.9432C140.976 49.4973 140.472 50.3284 140.33 51.2538C140.188 52.1791 140.419 53.1231 140.973 53.878Z" fill="#407BFF"/>
<path d="M141.855 50.922C141.37 48.1482 143.991 46.012 147.502 47.0428C151.012 48.0737 149.158 51.1828 148.433 53.6668C147.709 56.1508 149.605 58.5189 150.391 56.6269C151.178 54.735 149.853 54.1429 149.853 54.1429C149.853 54.1429 153.579 55.1076 150.118 59.3097C146.657 63.5118 143.523 58.8708 144.372 56.1343C145.059 53.9359 142.314 53.5426 141.855 50.922Z" fill="#263238"/>
<path d="M138.343 51.9695C136.741 51.1415 134.029 50.4584 132.485 53.0583C131.756 54.3003 132.038 55.9563 132.038 55.9563L136.753 56.2668L138.343 51.9695Z" fill="#263238"/>
<path d="M131.482 55.1366C131.454 55.1345 131.429 55.1217 131.41 55.1008C131.391 55.08 131.382 55.0527 131.383 55.0248C131.383 54.9545 131.503 53.2902 132.509 52.2469C134.939 49.7215 137.787 51.8329 138.599 52.516C138.616 52.5345 138.626 52.5587 138.627 52.5841C138.628 52.6096 138.619 52.6343 138.603 52.6538C138.587 52.6732 138.564 52.686 138.538 52.6896C138.513 52.6932 138.488 52.6874 138.466 52.6733C137.684 52.0026 134.96 49.9947 132.67 52.3877C131.718 53.3771 131.602 55.0207 131.602 55.0373C131.602 55.052 131.598 55.0665 131.592 55.0798C131.585 55.0931 131.576 55.1048 131.565 55.1142C131.553 55.1236 131.54 55.1305 131.526 55.1343C131.512 55.1382 131.497 55.139 131.482 55.1366Z" fill="#263238"/>
<path d="M137.375 59.2019C137.356 59.8532 137.115 60.4786 136.691 60.9738C136.12 61.6445 135.449 61.3133 135.313 60.5598C135.176 59.8933 135.313 58.7382 136.033 58.3367C136.754 57.9351 137.383 58.4484 137.375 59.2019Z" fill="#FFB573"/>
<path d="M136.633 90.7158C136.633 90.7158 136.856 114.79 138.943 128.204C140.632 139.038 143.749 164.093 143.749 164.093H148.482C148.482 164.093 148.941 139.903 148.068 129.189C145.902 102.072 151.495 97.0003 146.983 90.7158H136.633Z" fill="#263238"/>
<path opacity="0.1" d="M136.633 90.7158C136.633 90.7158 136.856 114.79 138.943 128.204C140.632 139.038 143.749 164.093 143.749 164.093H148.482C148.482 164.093 148.941 139.903 148.068 129.189C145.902 102.072 151.495 97.0003 146.983 90.7158H136.633Z" fill="white"/>
<path opacity="0.3" d="M139.123 101.637C140.779 108.903 139.459 120.346 138.552 125.384C137.592 117.733 137.107 107.818 136.867 100.544C137.724 99.1614 138.536 99.0703 139.123 101.637Z" fill="black"/>
<path d="M143.103 164.184H149.127L149.442 162.073L143.07 161.857L143.103 164.184Z" fill="#407BFF"/>
<path d="M144.823 70.3799C145.391 69.2539 148.438 68.5459 150.102 68.5501L151.344 74.0811C151.344 74.0811 148.032 79.0036 146.649 78.4819C145.022 77.8816 143.61 72.8101 144.823 70.3799Z" fill="#407BFF"/>
<path opacity="0.4" d="M144.823 70.3799C145.391 69.2539 148.438 68.5459 150.102 68.5501L151.344 74.0811C151.344 74.0811 148.032 79.0036 146.649 78.4819C145.022 77.8816 143.61 72.8101 144.823 70.3799Z" fill="black"/>
<path d="M141.315 162.83C141.321 162.818 141.325 162.805 141.325 162.791C141.325 162.777 141.321 162.764 141.315 162.752C141.307 162.736 141.294 162.723 141.279 162.715C141.263 162.706 141.245 162.703 141.228 162.706C141.054 162.735 139.522 162.975 139.315 163.414C139.293 163.454 139.281 163.499 139.281 163.544C139.281 163.59 139.293 163.635 139.315 163.675C139.35 163.74 139.402 163.796 139.464 163.837C139.526 163.878 139.597 163.904 139.671 163.911C140.172 163.96 140.913 163.265 141.286 162.843L141.315 162.83ZM139.476 163.468C139.617 163.236 140.412 163.021 141.017 162.909C140.47 163.464 139.99 163.774 139.708 163.737C139.66 163.732 139.613 163.715 139.572 163.688C139.532 163.66 139.499 163.623 139.476 163.58C139.467 163.564 139.463 163.546 139.463 163.528C139.463 163.51 139.467 163.492 139.476 163.476C139.476 163.476 139.472 163.472 139.476 163.468Z" fill="#407BFF"/>
<path d="M144.93 161.361L141.759 162.772L140.347 159.829L138.501 155.979L138.281 155.532L141.452 154.12L141.697 154.625L143.485 158.355L144.93 161.361Z" fill="#FFB573"/>
<path opacity="0.2" d="M143.485 158.355L140.346 159.829L138.5 155.979L141.696 154.625L143.485 158.355Z" fill="black"/>
<path d="M132.912 90.7158C132.912 90.7158 122.782 115.92 125.526 127.761C128.01 138.479 138.981 158.777 138.981 158.777L143.233 156.649C143.233 156.649 136.448 132.145 135.715 126.821C134.282 116.471 143.486 101.844 143.486 90.7158H132.912Z" fill="#263238"/>
<path opacity="0.1" d="M132.912 90.7158C132.912 90.7158 122.782 115.92 125.526 127.761C128.01 138.479 138.981 158.777 138.981 158.777L143.233 156.649C143.233 156.649 136.448 132.145 135.715 126.821C134.282 116.471 143.486 101.844 143.486 90.7158H132.912Z" fill="white"/>
<path d="M141.194 162.329L144.34 160.04C144.393 159.998 144.46 159.978 144.527 159.983C144.594 159.987 144.657 160.016 144.704 160.065L146.878 162.296C146.931 162.354 146.971 162.423 146.995 162.498C147.019 162.573 147.028 162.652 147.019 162.73C147.011 162.808 146.987 162.883 146.947 162.951C146.908 163.019 146.855 163.078 146.791 163.124C145.677 163.903 145.102 164.225 143.719 165.232C142.866 165.853 141.169 167.223 139.993 168.08C138.817 168.937 137.923 167.819 138.337 167.359C140.192 165.289 140.581 164.006 140.871 162.843C140.916 162.639 141.03 162.458 141.194 162.329Z" fill="#263238"/>
<path d="M138.714 159.676L144.191 157.171L143.491 154.939L137.625 157.614L138.714 159.676Z" fill="#407BFF"/>
<path d="M135.606 70.115C135.155 68.9393 131.197 67.631 129.209 67.217L128.336 73.7251C128.336 73.7251 131.582 78.3868 133.002 78.0017C134.683 77.5463 136.583 72.6363 135.606 70.115Z" fill="#407BFF"/>
<path opacity="0.4" d="M135.606 70.115C135.155 68.9393 131.197 67.631 129.209 67.217L128.336 73.7251C128.336 73.7251 131.582 78.3868 133.002 78.0017C134.683 77.5463 136.583 72.6363 135.606 70.115Z" fill="black"/>
<path d="M131.266 69.7881C131.266 69.7881 129.61 70.3677 132.922 90.7158H146.998C146.762 84.986 146.753 81.4505 149.482 69.6846C147.509 69.2776 145.51 69.0147 143.499 68.898C141.371 68.7446 139.235 68.7446 137.107 68.898C134.379 69.1381 131.266 69.7881 131.266 69.7881Z" fill="#407BFF"/>
<path opacity="0.4" d="M131.266 69.7881C131.266 69.7881 129.61 70.3677 132.922 90.7158H146.998C146.762 84.986 146.753 81.4505 149.482 69.6846C147.509 69.2776 145.51 69.0147 143.499 68.898C141.371 68.7446 139.235 68.7446 137.107 68.898C134.379 69.1381 131.266 69.7881 131.266 69.7881Z" fill="black"/>
<path d="M147.211 89.8917L147.844 91.1337C147.894 91.2331 147.778 91.3325 147.617 91.3325H132.845C132.717 91.3325 132.613 91.2704 132.605 91.1876L132.477 89.9456C132.477 89.8586 132.58 89.7841 132.717 89.7841H146.962C147.01 89.7766 147.058 89.7828 147.102 89.8018C147.146 89.8209 147.184 89.8521 147.211 89.8917Z" fill="#407BFF"/>
<path opacity="0.3" d="M147.211 89.8917L147.844 91.1337C147.894 91.2331 147.778 91.3325 147.617 91.3325H132.845C132.717 91.3325 132.613 91.2704 132.605 91.1876L132.477 89.9456C132.477 89.8586 132.58 89.7841 132.717 89.7841H146.962C147.01 89.7766 147.058 89.7828 147.102 89.8018C147.146 89.8209 147.184 89.8521 147.211 89.8917Z" fill="white"/>
<path d="M145.304 91.4939H145.685C145.763 91.4939 145.821 91.4525 145.813 91.407L145.635 89.751C145.635 89.7013 145.565 89.6641 145.49 89.6641H145.105C145.031 89.6641 144.973 89.7013 144.977 89.751L145.155 91.407C145.151 91.4443 145.217 91.4939 145.304 91.4939Z" fill="#263238"/>
<path d="M136.038 91.4939H136.419C136.494 91.4939 136.552 91.4525 136.547 91.407L136.369 89.751C136.369 89.7013 136.299 89.6641 136.22 89.6641H135.839C135.761 89.6641 135.707 89.7013 135.711 89.751L135.889 91.407C135.893 91.4443 135.96 91.4939 136.038 91.4939Z" fill="#263238"/>
</svg>
