<svg width="54" height="49" viewBox="0 0 54 49" fill="none" xmlns="http://www.w3.org/2000/svg">
<path fill-rule="evenodd" clip-rule="evenodd" d="M35.9741 9.59786C35.9741 4.83778 39.8321 0.979492 44.5925 0.979492C49.3526 0.979492 53.2109 4.83746 53.2109 9.59786C53.2109 14.3579 49.3529 18.2162 44.5925 18.2162C39.8324 18.2162 35.9741 14.3583 35.9741 9.59786ZM42.3367 8.25995C42.0309 7.95421 41.5374 7.95197 41.2239 8.26555L40.1262 9.3632C39.8174 9.67203 39.8129 10.1683 40.1201 10.4755L42.701 13.0563C43.3129 13.6683 44.3051 13.6683 44.917 13.0563L49.8454 8.12798C50.1525 7.82088 50.1558 7.32631 49.8422 7.01273L48.7446 5.91509C48.4358 5.60625 47.9376 5.60372 47.6311 5.91016L43.809 9.73228L42.3367 8.25995ZM39.299 47.1334C34.6002 51.8322 19.5362 45.6554 11.3203 37.4395C3.10361 29.2228 -3.07307 14.1602 1.62637 9.46074L5.76125 5.32586C6.98513 4.10198 8.96945 4.10198 10.1933 5.32586C10.267 5.39951 10.3369 5.47679 10.4029 5.5574L18.3805 15.3081C19.4 16.5542 19.3094 18.3702 18.1709 19.5087L13.779 23.9006C13.5269 24.1527 13.4768 24.5432 13.6571 24.8508C15.0168 27.1708 16.4871 29.118 18.0644 30.6954C19.6417 32.2727 21.589 33.7429 23.909 35.1027C24.2166 35.283 24.6071 35.2329 24.8592 34.9808L29.2511 30.5889C30.3896 29.4504 32.2055 29.3598 33.4517 30.3793L43.2024 38.3569C44.542 39.4529 44.7395 41.4274 43.6435 42.767C43.5775 42.8476 43.5076 42.9249 43.4339 42.9985L39.299 47.1334Z" fill="black"/>
</svg>
