<svg width="20" height="23" viewBox="0 0 20 23" fill="none" xmlns="http://www.w3.org/2000/svg">
<path d="M17.0093 1.83817H15.9502V0H13.9564V1.83817H5.98131V0H3.98754V1.83817H2.99065C1.34156 1.83817 0 3.18313 0 4.83641V20.0018C0 21.655 1.34156 23 2.99065 23H17.0093C18.6584 23 20 21.655 20 20.0018V4.83641C20 3.18313 18.6584 1.83817 17.0093 1.83817ZM18.0062 20.0018C18.0062 20.5527 17.5591 21.0012 17.2586 21.0012H3.23988C2.44087 21.0012 1.99377 20.5527 1.99377 20.0018V7.75895H18.0062V20.0018ZM15.4579 14.9984H11.2087V18.5091H15.4579V14.9984ZM15.4579 9.93267H11.2087V13.4434H15.4579V9.93267ZM8.79128 9.93267H4.54206V13.4434H8.79128V9.93267ZM8.79128 14.9984H4.54206V18.5091H8.79128V14.9984Z" fill="#0174FF"/>
</svg>
