<svg width="17" height="17" viewBox="0 0 17 17" fill="none" xmlns="http://www.w3.org/2000/svg">
<path d="M7.42773 13.611L7.07418 13.2574L6.72063 13.611L7.07418 13.9646L7.42773 13.611ZM9.74085 10.5908L7.07418 13.2574L7.78129 13.9646L10.448 11.2979L9.74085 10.5908ZM7.07418 13.9646L9.74085 16.6312L10.448 15.9241L7.78129 13.2574L7.07418 13.9646Z" fill="#979797"/>
<path d="M4.71962 11.2776C4.1909 10.3618 3.98887 9.29366 4.14662 8.24807C4.30437 7.20248 4.81254 6.24146 5.5879 5.52245C6.36325 4.80344 7.3598 4.36906 8.4143 4.29049C9.4688 4.21192 10.5187 4.4938 11.3921 5.08996C12.2654 5.68612 12.9104 6.56122 13.2214 7.57188C13.5323 8.58255 13.4909 9.66886 13.1037 10.6529C12.7165 11.6369 12.0067 12.4602 11.0904 12.988C10.1741 13.5158 9.10575 13.7168 8.06032 13.558" stroke="#979797" stroke-linecap="round"/>
</svg>
