<svg width="12" height="15" viewBox="0 0 12 15" fill="none" xmlns="http://www.w3.org/2000/svg">
<path fill-rule="evenodd" clip-rule="evenodd" d="M3.22698 2.88012V14.2188C3.22698 14.5396 2.96991 14.7997 2.64783 14.7997C2.32797 14.7997 2.06868 14.5396 2.06868 14.2188V2.87825L1.41455 3.53237C1.19047 3.75646 0.827037 3.75634 0.599289 3.5286C0.373117 3.30242 0.374452 2.93439 0.595512 2.71333L2.24115 1.0677C2.35257 0.956275 2.49845 0.900284 2.64496 0.900146L2.64938 0.901875C2.79646 0.902189 2.94272 0.957783 3.05263 1.0677L4.69827 2.71333C4.92235 2.93742 4.92224 3.30085 4.69449 3.5286C4.46832 3.75477 4.10029 3.75343 3.87923 3.53237L3.22698 2.88012Z" fill="#0174FF"/>
<path fill-rule="evenodd" clip-rule="evenodd" d="M9.01521 12.8198L9.01521 1.48116C9.01521 1.16032 9.27227 0.90023 9.59436 0.90023C9.91421 0.90023 10.1735 1.16034 10.1735 1.48116L10.1735 12.8217L10.8276 12.1676C11.0517 11.9435 11.4152 11.9436 11.6429 12.1714C11.8691 12.3975 11.8677 12.7656 11.6467 12.9866L10.001 14.6323C9.88962 14.7437 9.74374 14.7997 9.59723 14.7998L9.59281 14.7981C9.44572 14.7978 9.29947 14.7422 9.18955 14.6323L7.54392 12.9866C7.31983 12.7625 7.31995 12.3991 7.5477 12.1714C7.77387 11.9452 8.1419 11.9465 8.36296 12.1676L9.01521 12.8198Z" fill="#0174FF"  fill-opacity="0.5"/>
</svg>
