<svg width="20" height="17" viewBox="0 0 20 17" fill="none" xmlns="http://www.w3.org/2000/svg">
<path d="M0.88638 10.4375C0.4029 10.4375 0 10.8404 0 11.3239V15.5946C0 16.0781 0.4029 16.481 0.88638 16.481C1.36986 16.481 1.77276 16.0781 1.77276 15.5946V11.3239C1.77276 10.8404 1.39 10.4375 0.88638 10.4375Z" fill="#0A0A0A"/>
<path d="M4.37076 8.86719C3.88728 8.86719 3.48438 9.27009 3.48438 9.75357V15.5956C3.48438 16.0791 3.88728 16.482 4.37076 16.482C4.85424 16.482 5.25714 16.0791 5.25714 15.5956V9.75357C5.25714 9.27009 4.85424 8.86719 4.37076 8.86719Z" fill="#0A0A0A"/>
<path d="M7.8356 6.86719C7.35212 6.86719 6.94922 7.27009 6.94922 7.75357V15.59C6.94922 16.0735 7.35212 16.4764 7.8356 16.4764C8.31908 16.4764 8.72198 16.0735 8.72198 15.59V7.77371C8.72198 7.27009 8.31908 6.86719 7.8356 6.86719Z" fill="#0A0A0A"/>
<path d="M11.3004 8.98438C10.817 8.98438 10.4141 9.38728 10.4141 9.87076V15.5919C10.4141 16.0754 10.817 16.4783 11.3004 16.4783C11.7839 16.4783 12.1868 16.0754 12.1868 15.5919V9.8909C12.207 9.38727 11.8041 8.98438 11.3004 8.98438Z" fill="#0A0A0A"/>
<path d="M14.7653 7.07031C14.2818 7.07031 13.8789 7.47321 13.8789 7.95669V15.6118C13.8789 16.0953 14.2818 16.4982 14.7653 16.4982C15.2488 16.4982 15.6517 16.0953 15.6517 15.6118V7.95669C15.6718 7.47321 15.2689 7.07031 14.7653 7.07031Z" fill="#0A0A0A"/>
<path d="M18.2497 4.42969C17.7662 4.42969 17.3633 4.83259 17.3633 5.31607V15.59C17.3633 16.0735 17.7662 16.4764 18.2497 16.4764C18.7331 16.4764 19.136 16.0735 19.136 15.59V5.31607C19.136 4.83259 18.7331 4.42969 18.2497 4.42969Z" fill="#0A0A0A"/>
<path d="M0.887992 8.74408C1.04915 8.74408 1.23046 8.70379 1.37147 8.60306L7.75744 4.43305L10.7188 7.07204C11.0411 7.35407 11.5044 7.37422 11.8469 7.11234L18.7969 1.85449C19.1797 1.55232 19.2602 1.0084 18.9782 0.6055C18.6962 0.2026 18.1321 0.142165 17.7292 0.424195L11.3634 5.259L8.42222 2.66029C8.12005 2.39841 7.67686 2.35812 7.33439 2.57971L0.404512 7.11234C0.00161222 7.37422 -0.119258 7.93828 0.142627 8.34118C0.323932 8.60306 0.605962 8.74408 0.887992 8.74408Z" fill="#0A0A0A"/>
</svg>
