<svg width="13" height="7" viewBox="0 0 13 7" fill="none" xmlns="http://www.w3.org/2000/svg">
<path d="M6.52815 6.99934C6.75013 6.9943 6.96228 6.90898 7.12344 6.76001L12.7262 1.50842C12.9565 1.29076 13.0507 0.969936 12.9735 0.666173C12.8961 0.362432 12.6591 0.121867 12.3512 0.0347309C12.0433 -0.052424 11.7113 0.0271001 11.4796 0.243537L6.5 4.9137L1.52036 0.243537C1.28868 0.0271006 0.956638 -0.0524201 0.648848 0.0347309C0.340884 0.121886 0.1039 0.362436 0.0265026 0.666173C-0.050724 0.969913 0.043541 1.29074 0.273811 1.50842L5.87656 6.76001C6.0518 6.92226 6.2866 7.0085 6.5278 6.99934H6.52815Z" fill="#0A0A0A"/>
</svg>
