<svg width="9" height="19" viewBox="0 0 9 19" fill="none" xmlns="http://www.w3.org/2000/svg">
<path d="M0.00080902 9.35238C0.00696796 9.67039 0.111293 9.97432 0.293443 10.2052L6.71468 18.2318C6.98081 18.5616 7.37309 18.6967 7.74451 18.5861C8.1159 18.4752 8.41004 18.1357 8.51659 17.6945C8.62315 17.2535 8.52592 16.7778 8.26127 16.4459L2.55097 9.31205L8.26127 2.17816C8.52592 1.84626 8.62315 1.37058 8.51659 0.929632C8.41002 0.488441 8.11589 0.148935 7.74451 0.0380535C7.37312 -0.0725803 6.98084 0.0624638 6.71468 0.392351L0.293443 8.41891C0.0950588 8.66996 -0.0103899 9.00634 0.00080902 9.35188L0.00080902 9.35238Z" fill="#0174FF"/>
</svg>

