<svg width="42" height="42" viewBox="0 0 42 42" fill="none" xmlns="http://www.w3.org/2000/svg">
<path d="M21 3.9375C11.5771 3.9375 3.9375 11.5771 3.9375 21C3.9375 30.4229 11.5771 38.0625 21 38.0625C30.4229 38.0625 38.0625 30.4229 38.0625 21C38.0625 11.5771 30.4229 3.9375 21 3.9375ZM23.8965 27.9472C24.0235 28.0679 24.1251 28.2128 24.1952 28.3733C24.2654 28.5338 24.3027 28.7068 24.3049 28.882C24.3071 29.0571 24.2743 29.231 24.2083 29.3933C24.1423 29.5555 24.0445 29.703 23.9206 29.8268C23.7967 29.9507 23.6493 30.0485 23.487 30.1145C23.3247 30.1805 23.1509 30.2134 22.9757 30.2112C22.8005 30.2089 22.6276 30.1716 22.467 30.1015C22.3065 30.0313 22.1616 29.9298 22.041 29.8028L14.166 21.9278C13.92 21.6817 13.7819 21.3479 13.7819 21C13.7819 20.6521 13.92 20.3183 14.166 20.0722L22.041 12.1972C22.2891 11.9615 22.6195 11.832 22.9618 11.8364C23.304 11.8408 23.631 11.9787 23.8731 12.2207C24.1151 12.4627 24.253 12.7897 24.2574 13.132C24.2618 13.4742 24.1323 13.8046 23.8965 14.0528L16.9501 21L23.8965 27.9472Z" fill="#DADADA" fill-opacity="0.7"/>
<path d="M24.0943 14.0259C24.6609 13.4215 24.6303 12.4723 24.0259 11.9057C23.4215 11.3391 22.4723 11.3697 21.9057 11.9741L24.0943 14.0259ZM15.5 21L14.4057 19.9741L13.4726 20.9694L14.3752 21.9924L15.5 21ZM21.8752 30.4924C22.4233 31.1136 23.3712 31.1729 23.9924 30.6248C24.6136 30.0767 24.6729 29.1288 24.1248 28.5076L21.8752 30.4924ZM21.9057 11.9741L14.4057 19.9741L16.5943 22.0259L24.0943 14.0259L21.9057 11.9741ZM14.3752 21.9924L21.8752 30.4924L24.1248 28.5076L16.6248 20.0076L14.3752 21.9924Z" fill="#0A0A0A"/>
</svg>
