<svg width="30" height="26" viewBox="0 0 30 26" fill="none" xmlns="http://www.w3.org/2000/svg">
<path d="M12.0805 10.4834H14.5088C14.7622 10.4834 14.9672 10.278 14.9672 10.025V8.09888C14.9672 7.84589 14.762 7.64054 14.5088 7.64054H12.0805C11.8271 7.64054 11.6222 7.84589 11.6222 8.09888V10.025C11.622 10.2784 11.8271 10.4834 12.0805 10.4834ZM12.5388 8.55743H14.0503V9.56687H12.5388V8.55743ZM5.14203 15.4275H2.71415C2.46075 15.4275 2.25581 15.6328 2.25581 15.8858V17.8119C2.25581 18.0649 2.46095 18.2703 2.71415 18.2703H5.14203C5.39544 18.2703 5.60037 18.0649 5.60037 17.8119V15.8858C5.60037 15.6328 5.39544 15.4275 5.14203 15.4275ZM4.68369 17.3538H3.17246V16.3444H4.68369V17.3538ZM9.82531 11.5347H7.397C7.14359 11.5347 6.93866 11.74 6.93866 11.993V13.9189C6.93866 14.1719 7.1438 14.3773 7.397 14.3773H9.82531C10.0787 14.3773 10.2836 14.1719 10.2836 13.9189V11.993C10.2839 11.74 10.0787 11.5347 9.82531 11.5347ZM9.36697 13.4606H7.85552V12.4516H9.36697V13.4606ZM9.82531 7.6409H7.397C7.14359 7.6409 6.93866 7.84625 6.93866 8.09923V10.0254C6.93866 10.2784 7.1438 10.4837 7.397 10.4837H9.82531C10.0787 10.4837 10.2836 10.2784 10.2836 10.0254V8.09923C10.2839 7.84625 10.0787 7.6409 9.82531 7.6409ZM9.36697 9.56682H7.85552V8.55738H9.36697V9.56682ZM5.14205 11.5345H2.71417C2.46077 11.5345 2.25583 11.7399 2.25583 11.9928V13.9188C2.25583 14.1717 2.46098 14.3771 2.71417 14.3771H5.14205C5.39546 14.3771 5.60039 14.1717 5.60039 13.9188V11.9928C5.60039 11.7399 5.39546 11.5345 5.14205 11.5345ZM4.68371 13.4604H3.17248V12.4514H4.68371V13.4604ZM9.82533 15.4275H7.39702C7.14362 15.4275 6.93868 15.6328 6.93868 15.8858V17.8119C6.93868 18.0649 7.14382 18.2703 7.39702 18.2703H9.82533C10.0787 18.2703 10.2837 18.0649 10.2837 17.8119V15.8858C10.2839 15.6328 10.0787 15.4275 9.82533 15.4275ZM9.36699 17.3538H7.85554V16.3444H9.36699V17.3538ZM5.14208 7.64079H2.71419C2.46079 7.64079 2.25585 7.84614 2.25585 8.09913V10.0253C2.25585 10.2782 2.461 10.4836 2.71419 10.4836H5.14208C5.39548 10.4836 5.60041 10.2782 5.60041 10.0253V8.09913C5.60041 7.84614 5.39548 7.64079 5.14208 7.64079ZM4.68374 9.56671H3.1725V8.55727H4.68374V9.56671ZM21.9054 8.64856V2.76416C21.9054 2.1416 21.399 1.63526 20.7764 1.63526H19.856V0.878408C19.856 0.394372 19.462 0.000374358 18.978 0.000374358H18.0993C17.6153 0.000374358 17.2213 0.394372 17.2213 0.878408V1.63488H14.7983V0.878034C14.7983 0.393997 14.4043 0 13.9203 0H13.0416C12.5576 0 12.1636 0.393997 12.1636 0.878034L12.164 1.63488H9.74111V0.878034C9.74111 0.393997 9.34711 0 8.86308 0H7.9844C7.50037 0 7.10637 0.393997 7.10637 0.878034L7.10658 1.63488H4.68367V0.878034C4.68367 0.393997 4.28967 0 3.80563 0H2.92781C2.44378 0 2.04978 0.393997 2.04978 0.878034V1.63488H1.12891C0.506348 1.63488 0 2.14127 0 2.76379V19.3233C0 19.9455 0.506391 20.4519 1.12891 20.4519H14.0951C15.4344 23.1607 18.2258 25.0286 21.4465 25.0286C25.966 25.0286 29.6428 21.3516 29.6428 16.8322C29.643 12.4663 26.2118 8.88778 21.9048 8.64873L21.9054 8.64856ZM18.1382 0.916967H18.9391V3.2703H18.1382V0.916967ZM13.8817 0.916967V3.2703H13.0807V2.0946V2.09313V2.09167V0.916556L13.8817 0.916765V0.916967ZM8.02351 0.916967H8.82447V3.2703H8.02351V0.916967ZM2.96633 0.916967H3.7673V3.2703H2.96633V0.916967ZM1.12882 2.55164H2.04926V3.30913C2.04926 3.79316 2.44326 4.18716 2.92729 4.18716H3.80597C4.29001 4.18716 4.684 3.79316 4.684 3.30913V2.55164H7.10691V3.30913C7.10691 3.79316 7.50091 4.18716 7.98495 4.18716H8.86362C9.34766 4.18716 9.74166 3.79316 9.74166 3.30913L9.74124 2.55164H12.1641V3.30913C12.1641 3.79316 12.5581 4.18716 13.0422 4.18716H13.9209C14.4049 4.18716 14.7989 3.79316 14.7989 3.30913L14.7987 2.55164H17.2216V3.30913C17.2216 3.79316 17.6156 4.18716 18.0996 4.18716H18.9779C19.4619 4.18716 19.8559 3.79316 19.8559 3.30913V2.55164H20.7764C20.8933 2.55164 20.9884 2.64689 20.9884 2.76367V5.4588H0.916826V2.76367C0.916826 2.64919 1.01397 2.55164 1.12886 2.55164H1.12882ZM1.12882 19.5353C1.01183 19.5353 0.916779 19.4402 0.916779 19.3234V6.37594H20.9883V8.64862C20.5313 8.6739 20.0844 8.73845 19.6501 8.83601V8.09922C19.6501 7.84623 19.445 7.64088 19.1918 7.64088H16.7639C16.5105 7.64088 16.3055 7.84623 16.3055 8.09922V10.0254C16.3055 10.152 16.3569 10.2664 16.4397 10.3496C15.8786 10.7841 15.3749 11.2892 14.9429 11.8525C14.8833 11.6684 14.7127 11.5347 14.509 11.5347H12.0807C11.8273 11.5347 11.6223 11.7401 11.6223 11.9931V13.919C11.6223 14.172 11.8275 14.3773 12.0807 14.3773H13.6268C13.5196 14.718 13.4358 15.0694 13.3738 15.4279H12.0808C11.8274 15.4279 11.6225 15.6333 11.6225 15.8863V17.8124C11.6225 18.0654 11.8277 18.2707 12.0808 18.2707H13.3796C13.4569 18.7051 13.5678 19.1277 13.7109 19.5357L1.1287 19.5361L1.12882 19.5353ZM17.6579 9.5666H17.2219V8.55717H18.7331V9.09844C18.3617 9.22942 18.0028 9.38631 17.6579 9.5666L17.6579 9.5666ZM13.2681 17.3538H12.538V16.3444H13.2654C13.256 16.5057 13.2496 16.6684 13.2496 16.8322C13.25 17.0074 13.2575 17.181 13.2682 17.3538H13.2681ZM14.0498 13.3031C14.0252 13.3547 14.0024 13.408 13.9786 13.4604H12.5386V12.4514H14.0501L14.0503 13.3032L14.0498 13.3031ZM21.4467 24.112C17.4325 24.112 14.167 20.846 14.167 16.8323C14.167 12.818 17.4326 9.55259 21.4467 9.55259C25.4608 9.5528 28.7263 12.8184 28.7263 16.8328C28.7263 20.8468 25.4608 24.1125 21.4467 24.1125V24.112ZM21.4467 9.98952C17.6738 9.98952 14.6044 13.059 14.6044 16.8323C14.6044 20.6056 17.6739 23.675 21.4467 23.675C25.2194 23.675 28.2894 20.6056 28.2894 16.8323C28.2894 13.059 25.2198 9.98952 21.4467 9.98952V9.98952ZM24.7927 21.7182C24.6586 21.5239 24.397 21.4602 24.1879 21.5807C23.9806 21.7005 23.9042 21.9566 24.0032 22.1699C23.3587 22.4801 22.6522 22.6771 21.9048 22.735V22.3898C21.9048 22.1369 21.6996 21.9315 21.4464 21.9315C21.193 21.9315 20.9881 22.1369 20.9881 22.3898V22.735C20.2408 22.6775 19.5341 22.4801 18.8896 22.1699C18.9887 21.9568 18.9122 21.7005 18.705 21.5807C18.4969 21.4604 18.2349 21.5239 18.1004 21.7182C17.4971 21.3042 16.9746 20.7812 16.5605 20.1779C16.7548 20.0438 16.8185 19.7818 16.6984 19.5733C16.5789 19.3659 16.3228 19.2896 16.1093 19.3887C15.799 18.7442 15.602 18.0372 15.5442 17.2902H15.8893C16.1427 17.2902 16.3476 17.0849 16.3476 16.8319C16.3476 16.5789 16.1425 16.3735 15.8893 16.3735H15.5442C15.6016 15.6261 15.7993 14.9185 16.1099 14.2738C16.1715 14.3026 16.2361 14.3196 16.3008 14.3196C16.4592 14.3196 16.6132 14.2373 16.6982 14.0906C16.8189 13.8821 16.7554 13.6204 16.5607 13.4858C16.9752 12.8823 17.4981 12.3594 18.1016 11.9453C18.1895 12.0721 18.3299 12.1448 18.4766 12.1448C18.5543 12.1448 18.633 12.1252 18.7055 12.0834C18.9128 11.9637 18.9892 11.7076 18.8902 11.4943C19.5347 11.184 20.2416 10.987 20.9887 10.9292V11.2743C20.9887 11.5273 21.1938 11.7327 21.447 11.7327C21.7004 11.7327 21.9053 11.5273 21.9053 11.2743V10.9292C22.6526 10.9866 23.3593 11.1841 24.0038 11.4943C23.9048 11.7074 23.9812 11.9637 24.1884 12.0834C24.2605 12.1252 24.3395 12.1448 24.4174 12.1448C24.5639 12.1448 24.7044 12.0721 24.7924 11.9449C25.3959 12.3594 25.9188 12.8822 26.3333 13.4858C26.1386 13.6203 26.0753 13.8821 26.1958 14.0906C26.2808 14.2372 26.4348 14.3195 26.5931 14.3195C26.6579 14.3195 26.7225 14.3022 26.7841 14.2738C27.0945 14.9187 27.2919 15.626 27.3498 16.3735H27.0047C26.7513 16.3735 26.5463 16.5789 26.5463 16.8318C26.5463 17.0848 26.7515 17.2902 27.0047 17.2902H27.3498C27.2923 18.0375 27.0949 18.7442 26.7847 19.3886C26.5716 19.2896 26.3153 19.3656 26.1956 19.5733C26.0753 19.7818 26.1388 20.0435 26.3335 20.1781C25.9184 20.7814 25.3959 21.3041 24.7926 21.7182L24.7927 21.7182ZM21.9052 15.7632V12.3764C21.9052 12.1235 21.7 11.9181 21.4469 11.9181C21.1934 11.9181 20.9885 12.1235 20.9885 12.3764V15.763C20.5745 15.9414 20.2832 16.3534 20.2832 16.832C20.2832 16.8781 20.2914 16.9222 20.2966 16.9667L18.4221 18.0488C18.2029 18.1754 18.1277 18.4556 18.2543 18.6749C18.3393 18.822 18.4933 18.9041 18.6517 18.9041C18.7294 18.9041 18.8081 18.8844 18.8806 18.8427L20.7539 17.7611C20.9479 17.9063 21.1863 17.9955 21.4466 17.9955C22.0883 17.9955 22.6104 17.4735 22.6104 16.8317C22.6104 16.3535 22.3192 15.9415 21.9051 15.7632L21.9052 15.7632ZM21.4466 17.0791C21.3104 17.0791 21.1997 16.9684 21.1997 16.8322C21.1997 16.696 21.3104 16.585 21.4466 16.585C21.5829 16.585 21.6936 16.6957 21.6936 16.8322C21.6936 16.9682 21.5831 17.0791 21.4466 17.0791Z" fill="#0174FF"/>
</svg>
