<svg width="26" height="26" viewBox="0 0 26 26" fill="none" xmlns="http://www.w3.org/2000/svg">
<circle cx="13" cy="13" r="13" fill="#DADADA" fill-opacity="0.7"/>
<path d="M18.9455 15.4588L16.8075 13.9494C16.5083 13.685 16.1209 13.5399 15.7132 13.5399C15.2807 13.5399 14.874 13.7016 14.5684 13.9958L13.1985 15.3161C13.0832 15.427 12.9866 15.5538 12.9113 15.6921C12.529 15.5455 11.9335 15.2534 11.3376 14.7907L18.2376 8.14313C18.3875 7.99864 18.3875 7.76475 18.2376 7.62025C18.0876 7.47576 17.8448 7.47576 17.6948 7.62025L10.7707 14.2911C10.3992 13.9193 10.0555 13.4735 9.79773 12.9443C9.96541 12.8146 10.1802 12.6431 10.3013 12.5265L11.6725 11.2058C11.9775 10.9113 12.1455 10.5195 12.1455 10.1028C12.1455 9.70475 11.9914 9.32765 11.7114 9.03878L10.0831 7.0295C10.0633 7.00451 10.0415 6.98072 10.0164 6.95628C9.71068 6.66209 9.30382 6.5 8.87127 6.5C8.43803 6.5 8.03097 6.66209 7.72558 6.95628L6.46782 8.16803C6.11125 8.51164 5.67373 9.70974 5.81694 11.2979C5.93489 12.6065 6.49432 14.5577 8.44063 16.536L6.17767 18.7162C6.0277 18.8606 6.0277 19.0945 6.17767 19.239C6.25266 19.3113 6.35088 19.3474 6.44898 19.3474C6.54708 19.3474 6.6453 19.3113 6.72029 19.239L8.98549 17.0569C10.814 18.6722 12.8165 19.2351 14.2088 19.4179C14.6197 19.4716 15.0596 19.5 15.4804 19.5C16.0013 19.5 17.2622 19.4522 17.7218 19.01L19.0377 17.7422C19.343 17.448 19.5113 17.0559 19.5113 16.6388C19.5113 16.2222 19.3433 15.8304 19.0392 15.537C19.0111 15.5096 18.9795 15.4834 18.9454 15.4591L18.9455 15.4588ZM6.58149 11.2336C6.44911 9.76419 6.88223 8.81414 7.01055 8.69052L8.26831 7.47877C8.42877 7.32439 8.64281 7.23911 8.87138 7.23911C9.09927 7.23911 9.3134 7.32439 9.47624 7.48148L11.1178 9.50717C11.1259 9.51727 11.1344 9.5265 11.1432 9.53563C11.2948 9.68783 11.3781 9.88925 11.3781 10.1026C11.3781 10.3222 11.2898 10.5285 11.1298 10.6833L9.75894 12.0037C9.68824 12.0718 9.5607 12.1766 9.43282 12.2776L8.92008 11.1985C8.83201 11.0129 8.60444 10.931 8.41152 11.0164C8.21892 11.1012 8.13401 11.3205 8.22253 11.5064L8.97984 13.1003C9.00577 13.1547 9.79298 14.3825 10.2272 14.815L8.98321 16.0136C7.20007 14.1936 6.68848 12.4209 6.58147 11.2336L6.58149 11.2336ZM18.4951 17.219L17.1795 18.4868C17.0868 18.576 16.5494 18.7602 15.4807 18.7602C15.0938 18.7602 14.69 18.7343 14.3128 18.6847C13.0372 18.5173 11.2052 18.0042 9.52803 16.5337L10.7921 15.3156C11.7375 16.0658 12.7011 16.4334 13.0503 16.5137H13.0506C13.0506 16.5137 14.6474 16.9191 14.6801 16.9191C14.8497 16.9191 15.005 16.8097 15.0506 16.6445C15.1053 16.4473 14.9835 16.2447 14.7787 16.1921L13.6773 15.9097C13.6971 15.8853 15.1107 14.5189 15.1107 14.5189C15.2713 14.3642 15.4852 14.279 15.7131 14.279C15.9323 14.279 16.1404 14.3586 16.2988 14.503C16.3103 14.5137 18.4947 16.0575 18.4947 16.0575C18.6552 16.2125 18.7437 16.4192 18.7437 16.6385C18.7437 16.8582 18.6556 17.0641 18.4951 17.219H18.4951Z" fill="#DB303F"/>
</svg>
