<svg width="25" height="23" viewBox="0 0 25 23" fill="none" xmlns="http://www.w3.org/2000/svg">
<path d="M21.2879 21.0398H20.0185V19.4124H21.2879C22.0496 19.4124 22.6702 18.7731 22.6702 17.9885V3.05136C22.6702 2.26672 22.0496 1.62738 21.2879 1.62738H12.7121C11.9504 1.62738 11.3298 2.26672 11.3298 3.05136V14.9662H9.75V3.05136C9.75 1.36584 11.0759 0 12.7121 0H21.2879C22.9241 0 24.25 1.36584 24.25 3.05136V17.9885C24.25 19.674 22.9241 21.0398 21.2879 21.0398Z" fill="#0A0A0A"/>
<path d="M20.4406 4.5H13.7266V6.12738H20.4406V4.5Z" fill="#0A0A0A"/>
<path d="M20.4406 8.48438H13.7266V10.1118H20.4406V8.48438Z" fill="#0A0A0A"/>
<path d="M20.4406 12.4688H13.7266V14.0962H20.4406V12.4688Z" fill="#0A0A0A"/>
<path d="M1.55411 8.64398C1.26519 6.74882 2.60693 5.04648 4.65661 4.42279C5.02034 4.31204 5.41279 4.34357 5.75399 4.51095C6.09519 4.67834 6.35948 4.96898 6.49299 5.32367L7.15101 7.07121C7.25693 7.35234 7.27609 7.65858 7.20601 7.95063C7.13593 8.24268 6.97982 8.50721 6.75771 8.71027L4.80031 10.4955C4.70383 10.5836 4.63193 10.6952 4.59164 10.8193C4.55134 10.9434 4.54402 11.0758 4.57038 11.2035L4.58854 11.2819L4.63543 11.4777C4.87886 12.4293 5.24977 13.3439 5.73817 14.1969C6.27019 15.1034 6.93044 15.9289 7.69859 16.648L7.7591 16.7022C7.85682 16.7886 7.97535 16.8483 8.10312 16.8755C8.2309 16.9027 8.36357 16.8964 8.48821 16.8574L11.0189 16.0635C11.3065 15.9735 11.6145 15.9712 11.9035 16.0569C12.1924 16.1425 12.4491 16.3121 12.6405 16.544L13.8385 17.9918C14.3377 18.5944 14.2772 19.4802 13.7039 20.012C12.1353 21.4688 9.9782 21.767 8.47762 20.5664C6.63825 19.0887 5.08765 17.2866 3.9033 15.25C2.70933 13.2149 1.9118 10.9737 1.5526 8.64398H1.55411ZM6.15718 11.3029L7.77877 9.82056C8.22324 9.41461 8.53576 8.88563 8.67618 8.30152C8.81661 7.71741 8.77854 7.10483 8.56687 6.54243L7.91037 4.7949C7.64163 4.08119 7.10976 3.49639 6.42313 3.15966C5.7365 2.82292 4.94679 2.7596 4.21491 2.98259C1.66908 3.75843 -0.374547 6.03173 0.0580777 8.87146C0.360613 10.854 1.05796 13.3759 2.59634 16.0092C3.87412 18.2052 5.54675 20.1483 7.53069 21.7414C9.78155 23.5417 12.7857 22.927 14.7371 21.1162C15.2954 20.5985 15.6343 19.888 15.6847 19.1299C15.735 18.3718 15.4929 17.6231 15.0078 17.0367L13.8098 15.5874C13.4265 15.1241 12.9131 14.7854 12.3352 14.6147C11.7574 14.444 11.1415 14.4491 10.5666 14.6293L8.46552 15.2876C7.92303 14.7306 7.44785 14.1122 7.04966 13.4452C6.66502 12.7708 6.36527 12.0518 6.15718 11.3045V11.3029Z" fill="#0A0A0A"/>
</svg>
