<svg width="83" height="83" viewBox="0 0 83 83" fill="none" xmlns="http://www.w3.org/2000/svg">
<g filter="url(#filter0_dd_0_1)">
<rect x="10" y="2" width="63.0971" height="63.0971" rx="15.7743" fill="white"/>
</g>
<path fill-rule="evenodd" clip-rule="evenodd" d="M28.3662 21.2973H39.8056L38.7156 22.1876L36.1319 22.88C35.4716 23.0569 35.0224 23.4113 34.8803 24.1133L33.2342 24.5541C32.8132 24.6674 32.528 24.9124 32.2976 25.2716C31.7044 25.4349 31.2573 25.5194 30.9143 26.1123C30.716 26.4558 30.6482 26.8746 30.7574 27.2849L31.3261 29.4106C31.4366 29.8225 31.7046 30.1526 32.0481 30.3509C32.3916 30.5497 32.8099 30.6171 33.2207 30.508L33.6666 30.389C34.0181 30.5895 34.4469 30.6461 34.8375 30.5418L36.4852 30.1C36.6964 30.3397 36.9773 30.5118 37.2877 30.5873L37.6983 32.1213C38.481 35.0451 42.8862 33.7918 42.1218 30.9375L41.8793 30.0317L48.3217 31.0817C49.4341 31.2638 50.3346 30.2376 50.073 29.1719L49.5928 27.3758L49.9718 27.5946C51.7428 28.6161 53.2894 25.9383 51.5191 24.913L50.9523 24.5834C52.4618 23.855 51.7645 21.596 50.1632 21.6604L50.3732 21.2965H54.6355C55.386 21.2965 56 21.9104 56 22.6609V39.5483C56 40.2988 55.3861 40.9128 54.6355 40.9128H46.2717L45.1845 46.0578H55.747C55.8861 46.0578 55.9994 46.1711 55.9994 46.3097V49.4318C55.9994 49.5703 55.8861 49.6836 55.747 49.6836H27.2527C27.1142 49.6836 27.0004 49.5703 27.0004 49.4318V46.3097C27.0004 46.1711 27.1139 46.0578 27.2527 46.0578H37.8152L36.7286 40.9128H28.3647C27.6137 40.9128 27 40.2989 27 39.5483V22.6609C27 21.9104 27.6139 21.2965 28.3647 21.2965L28.3662 21.2973ZM36.2596 23.8874L39.1806 23.1047L45.2557 18.1401C45.5575 17.8685 46.0422 18.0106 46.1472 18.4036L49.0972 29.4128C49.1903 29.793 48.8756 30.1557 48.4833 30.0908L40.7136 28.8249L40.5275 28.8749L41.1497 31.1982C41.3375 31.8992 40.9107 32.5731 40.2202 32.7581C39.5491 32.9378 38.8503 32.5341 38.6702 31.8628L38.0475 29.5391L37.7919 29.6076C37.5012 29.6854 37.2022 29.5133 37.1244 29.2222L37.0408 28.9106L34.5768 29.571C34.3212 29.6395 34.0529 29.5145 33.9415 29.2746L32.9646 29.5367C32.6739 29.6145 32.3752 29.4419 32.2976 29.1511L31.7294 27.0306C31.6513 26.7394 31.8237 26.4409 32.1148 26.3631L33.0917 26.101C33.0674 25.8377 33.2376 25.5957 33.4935 25.5271L35.957 24.8668L35.8735 24.5552C35.7956 24.2645 35.9687 23.9655 36.2591 23.8877L36.2596 23.8874ZM36.7585 27.8573L36.2399 25.9199L34.3024 26.439L34.8216 28.3765L36.7588 27.8573H36.7585ZM51.0164 25.7818C51.6379 26.1405 51.0933 27.0848 50.4715 26.7261L48.8564 25.7939C48.2354 25.4352 48.7802 24.4904 49.4017 24.8491L51.0164 25.7818ZM48.6924 22.203C48.3341 22.8241 47.3893 22.2797 47.7483 21.6577L48.6805 20.0426C49.0392 19.4215 49.9835 19.9664 49.6245 20.5874L48.6924 22.203ZM48.5517 24.2233C47.8585 24.4092 47.5771 23.3559 48.2698 23.1704L50.0711 22.6875C50.6974 22.5194 51.1675 23.5137 50.3542 23.7394L48.5517 24.2231L48.5517 24.2233ZM40.0136 23.8291L41.0719 27.7808L47.8257 28.8813L45.3117 19.4998L40.0134 23.8296L40.0136 23.8291ZM39.0054 24.2802L37.068 24.7993L38.0362 28.4135L39.9741 27.8939L39.0054 24.2799V24.2802Z" fill="#0174FF"/>
<defs>
<filter id="filter0_dd_0_1" x="0.141072" y="0.0282142" width="82.8145" height="82.8116" filterUnits="userSpaceOnUse" color-interpolation-filters="sRGB">
<feFlood flood-opacity="0" result="BackgroundImageFix"/>
<feColorMatrix in="SourceAlpha" type="matrix" values="0 0 0 0 0 0 0 0 0 0 0 0 0 0 0 0 0 0 127 0" result="hardAlpha"/>
<feMorphology radius="1.97179" operator="erode" in="SourceAlpha" result="effect1_dropShadow_0_1"/>
<feOffset dy="3.94357"/>
<feGaussianBlur stdDeviation="3.94357"/>
<feColorMatrix type="matrix" values="0 0 0 0 0 0 0 0 0 0 0 0 0 0 0 0 0 0 0.07 0"/>
<feBlend mode="normal" in2="BackgroundImageFix" result="effect1_dropShadow_0_1"/>
<feColorMatrix in="SourceAlpha" type="matrix" values="0 0 0 0 0 0 0 0 0 0 0 0 0 0 0 0 0 0 127 0" result="hardAlpha"/>
<feMorphology radius="1.97179" operator="erode" in="SourceAlpha" result="effect2_dropShadow_0_1"/>
<feOffset dy="7.88714"/>
<feGaussianBlur stdDeviation="5.91536"/>
<feColorMatrix type="matrix" values="0 0 0 0 0 0 0 0 0 0 0 0 0 0 0 0 0 0 0.12 0"/>
<feBlend mode="normal" in2="effect1_dropShadow_0_1" result="effect2_dropShadow_0_1"/>
<feBlend mode="normal" in="SourceGraphic" in2="effect2_dropShadow_0_1" result="shape"/>
</filter>
</defs>
</svg>
