<svg width="21" height="21" viewBox="0 0 21 21" fill="none" xmlns="http://www.w3.org/2000/svg">
<path fill-rule="evenodd" clip-rule="evenodd" d="M10.0349 2.89062C5.03677 2.89062 0.978943 6.94866 0.978943 11.9466C0.978943 16.9447 5.03698 21.0025 10.0349 21.0025C15.0328 21.0025 19.0909 16.9445 19.0909 11.9466C19.0909 6.94845 15.0328 2.89062 10.0349 2.89062ZM10.0349 4.35918C14.2223 4.35918 17.6223 7.7593 17.6223 11.9466C17.6223 16.1338 14.2222 19.534 10.0349 19.534C5.84763 19.534 2.4475 16.1338 2.4475 11.9466C2.4475 7.7593 5.84763 4.35918 10.0349 4.35918Z" fill="#9E9E9E"/>
<path fill-rule="evenodd" clip-rule="evenodd" d="M10.7692 3.62238V0.734277C10.7692 0.328948 10.4402 0 10.0349 0C9.62955 0 9.3006 0.328948 9.3006 0.734277V3.62238C9.3006 4.02771 9.62955 4.35666 10.0349 4.35666C10.4402 4.35666 10.7692 4.02771 10.7692 3.62238Z" fill="#9E9E9E"/>
<path fill-rule="evenodd" clip-rule="evenodd" d="M4.33397 5.6714L2.29176 3.62918C2.00494 3.34236 1.53978 3.34236 1.25296 3.62918C0.967114 3.91601 0.967114 4.38117 1.25296 4.668L3.29516 6.71022C3.58198 6.99606 4.04714 6.99606 4.33397 6.71022C4.62079 6.42339 4.62079 5.95823 4.33397 5.6714Z" fill="#9E9E9E"/>
<path fill-rule="evenodd" clip-rule="evenodd" d="M16.9178 6.6389L18.9601 4.59668C19.2469 4.31083 19.2469 3.84469 18.9601 3.55887C18.6742 3.27204 18.2081 3.27204 17.9222 3.55887L15.88 5.60109C15.5931 5.88693 15.5931 6.35308 15.88 6.6389C16.1658 6.92573 16.632 6.92573 16.9178 6.6389Z" fill="#9E9E9E"/>
<path fill-rule="evenodd" clip-rule="evenodd" d="M8.56631 1.46855H11.5034C11.9087 1.46855 12.2377 1.13961 12.2377 0.734277C12.2377 0.328948 11.9087 0 11.5034 0H8.56631C8.16098 0 7.83203 0.328948 7.83203 0.734277C7.83203 1.13961 8.16098 1.46855 8.56631 1.46855Z" fill="#9E9E9E"/>
<path fill-rule="evenodd" clip-rule="evenodd" d="M1.25293 5.70465L3.3304 3.6282C3.61625 3.34137 3.61625 2.87621 3.3304 2.58938C3.04358 2.30354 2.57841 2.30354 2.29158 2.58938L0.21512 4.66684C-0.0717067 4.95269 -0.0717067 5.41883 0.21512 5.70465C0.500965 5.99147 0.967108 5.99147 1.25293 5.70465Z" fill="#9E9E9E"/>
<path fill-rule="evenodd" clip-rule="evenodd" d="M19.9984 4.59625L17.922 2.51981C17.6351 2.23298 17.17 2.23298 16.8831 2.51981C16.5963 2.80663 16.5963 3.27179 16.8831 3.55862L18.9596 5.63506C19.2464 5.92189 19.7116 5.92189 19.9984 5.63506C20.2852 5.34824 20.2852 4.88308 19.9984 4.59625Z" fill="#9E9E9E"/>
<path fill-rule="evenodd" clip-rule="evenodd" d="M8.81091 7.53888V12.4342C8.81091 12.8395 9.13986 13.1685 9.54519 13.1685H13.4613C13.8666 13.1685 14.1956 12.8395 14.1956 12.4342C14.1956 12.0289 13.8666 11.6999 13.4613 11.6999H10.2795V7.53896C10.2795 7.13364 9.95052 6.80469 9.54519 6.80469C9.13986 6.80469 8.81091 7.13364 8.81091 7.53896V7.53888Z" fill="#9E9E9E"/>
</svg>
