<svg width="18" height="19" viewBox="0 0 18 19" fill="none" xmlns="http://www.w3.org/2000/svg">
<path d="M9.0005 0.912109C4.20976 0.912109 0.3125 4.80937 0.3125 9.60011C0.3125 14.3909 4.20976 18.2881 9.0005 18.2881C13.7912 18.2881 17.6885 14.3909 17.6885 9.60011C17.6885 4.80937 13.7912 0.912109 9.0005 0.912109ZM9.0005 17.0401C4.89787 17.0401 1.5605 13.7026 1.5605 9.60011C1.5605 5.49762 4.89801 2.16011 9.0005 2.16011C13.103 2.16011 16.4405 5.49762 16.4405 9.60011C16.4405 13.7026 13.103 17.0401 9.0005 17.0401ZM9.0005 2.99222C8.65589 2.99222 8.37653 3.2716 8.37653 3.61619V9.33436L5.27206 12.3186C5.02363 12.5572 5.01572 12.9523 5.25465 13.2007C5.3772 13.3282 5.54073 13.3924 5.70452 13.3924C5.86028 13.3924 6.0159 13.3345 6.13682 13.2183L9.43295 10.0501C9.55536 9.93235 9.62446 9.76989 9.62446 9.60021V3.61632C9.62446 3.27171 9.34509 2.99222 9.0005 2.99222Z" fill="#0A0A0A"/>
</svg>
