<svg width="13" height="7" viewBox="0 0 13 7" fill="none" xmlns="http://www.w3.org/2000/svg">
<path d="M6.52815 0.000661655C6.75013 0.00569873 6.96228 0.091021 7.12344 0.239992L12.7262 5.49158C12.9565 5.70924 13.0507 6.03006 12.9735 6.33383C12.8961 6.63757 12.6591 6.87813 12.3512 6.96527C12.0433 7.05242 11.7113 6.9729 11.4796 6.75646L6.5 2.0863L1.52036 6.75646C1.28868 6.9729 0.956638 7.05242 0.648848 6.96527C0.340884 6.87811 0.1039 6.63756 0.0265026 6.33383C-0.050724 6.03009 0.043541 5.70926 0.273811 5.49158L5.87656 0.239992C6.0518 0.0777436 6.2866 -0.00849737 6.5278 0.000661655L6.52815 0.000661655Z" fill="#0A0A0A"/>
</svg>
