<svg width="12" height="12" viewBox="0 0 12 12" fill="none" xmlns="http://www.w3.org/2000/svg">
<path d="M0.962407 11.3242C1.11705 11.4789 1.32673 11.5659 1.54548 11.5659C1.76422 11.5659 1.97403 11.4789 2.12856 11.3242L6.14843 7.30465L10.1683 11.3242C10.3765 11.5326 10.6802 11.6139 10.9648 11.5376C11.2493 11.4614 11.4715 11.2391 11.5478 10.9545C11.624 10.6699 11.5427 10.3664 11.3344 10.158L7.31455 6.13852L11.3344 2.11864C11.5427 1.91039 11.624 1.60672 11.5478 1.32217C11.4715 1.03761 11.2493 0.815288 10.9648 0.739092C10.6802 0.662778 10.3765 0.744122 10.1683 0.952514L6.14843 4.97203L2.12856 0.952514C1.92031 0.744122 1.61664 0.662778 1.33209 0.739092C1.04753 0.815262 0.825357 1.0376 0.749014 1.32217C0.672844 1.60673 0.754188 1.9104 0.962436 2.11864L4.98231 6.13852L0.962436 10.158C0.807653 10.3127 0.720703 10.5224 0.720703 10.7411C0.720703 10.9599 0.807653 11.1697 0.962436 11.3242L0.962407 11.3242Z" fill="#0A0A0A"/>
</svg>
