<svg width="16" height="16" viewBox="0 0 16 16" fill="none" xmlns="http://www.w3.org/2000/svg">
<path d="M5.44922 2.78516H5.32812C5.39473 2.78516 5.44922 2.73066 5.44922 2.66406V2.78516H10.0508V2.66406C10.0508 2.73066 10.1053 2.78516 10.1719 2.78516H10.0508V3.875H11.1406V2.66406C11.1406 2.12974 10.7062 1.69531 10.1719 1.69531H5.32812C4.7938 1.69531 4.35938 2.12974 4.35938 2.66406V3.875H5.44922V2.78516ZM13.0781 3.875H2.42188C2.15396 3.875 1.9375 4.09145 1.9375 4.35938V4.84375C1.9375 4.91035 1.99199 4.96484 2.05859 4.96484H2.97285L3.34673 12.8813C3.37095 13.3975 3.7978 13.8047 4.31396 13.8047H11.186C11.7037 13.8047 12.1291 13.399 12.1533 12.8813L12.5271 4.96484H13.4414C13.508 4.96484 13.5625 4.91035 13.5625 4.84375V4.35938C13.5625 4.09145 13.346 3.875 13.0781 3.875ZM11.0695 12.7148H4.43052L4.06421 4.96484H11.4358L11.0695 12.7148Z" fill="#0A0A0A"/>
</svg>

