<svg width="30" height="30" viewBox="0 0 30 30" fill="none" xmlns="http://www.w3.org/2000/svg">
<path d="M11.25 9.375C11.7473 9.375 12.2242 9.17746 12.5758 8.82582C12.9275 8.47419 13.125 7.99728 13.125 7.5C13.125 7.00272 12.9275 6.52581 12.5758 6.17417C12.2242 5.82254 11.7473 5.625 11.25 5.625C10.7527 5.625 10.2758 5.82254 9.92418 6.17417C9.57254 6.52581 9.375 7.00272 9.375 7.5C9.375 7.99728 9.57254 8.47419 9.92418 8.82582C10.2758 9.17746 10.7527 9.375 11.25 9.375ZM11.25 16.875C11.7473 16.875 12.2242 16.6775 12.5758 16.3258C12.9275 15.9742 13.125 15.4973 13.125 15C13.125 14.5027 12.9275 14.0258 12.5758 13.6742C12.2242 13.3225 11.7473 13.125 11.25 13.125C10.7527 13.125 10.2758 13.3225 9.92418 13.6742C9.57254 14.0258 9.375 14.5027 9.375 15C9.375 15.4973 9.57254 15.9742 9.92418 16.3258C10.2758 16.6775 10.7527 16.875 11.25 16.875ZM13.125 22.5C13.125 22.9973 12.9275 23.4742 12.5758 23.8258C12.2242 24.1775 11.7473 24.375 11.25 24.375C10.7527 24.375 10.2758 24.1775 9.92418 23.8258C9.57254 23.4742 9.375 22.9973 9.375 22.5C9.375 22.0027 9.57254 21.5258 9.92418 21.1742C10.2758 20.8225 10.7527 20.625 11.25 20.625C11.7473 20.625 12.2242 20.8225 12.5758 21.1742C12.9275 21.5258 13.125 22.0027 13.125 22.5ZM18.75 9.375C19.2473 9.375 19.7242 9.17746 20.0758 8.82582C20.4275 8.47419 20.625 7.99728 20.625 7.5C20.625 7.00272 20.4275 6.52581 20.0758 6.17417C19.7242 5.82254 19.2473 5.625 18.75 5.625C18.2527 5.625 17.7758 5.82254 17.4242 6.17417C17.0725 6.52581 16.875 7.00272 16.875 7.5C16.875 7.99728 17.0725 8.47419 17.4242 8.82582C17.7758 9.17746 18.2527 9.375 18.75 9.375ZM20.625 15C20.625 15.4973 20.4275 15.9742 20.0758 16.3258C19.7242 16.6775 19.2473 16.875 18.75 16.875C18.2527 16.875 17.7758 16.6775 17.4242 16.3258C17.0725 15.9742 16.875 15.4973 16.875 15C16.875 14.5027 17.0725 14.0258 17.4242 13.6742C17.7758 13.3225 18.2527 13.125 18.75 13.125C19.2473 13.125 19.7242 13.3225 20.0758 13.6742C20.4275 14.0258 20.625 14.5027 20.625 15ZM18.75 24.375C19.2473 24.375 19.7242 24.1775 20.0758 23.8258C20.4275 23.4742 20.625 22.9973 20.625 22.5C20.625 22.0027 20.4275 21.5258 20.0758 21.1742C19.7242 20.8225 19.2473 20.625 18.75 20.625C18.2527 20.625 17.7758 20.8225 17.4242 21.1742C17.0725 21.5258 16.875 22.0027 16.875 22.5C16.875 22.9973 17.0725 23.4742 17.4242 23.8258C17.7758 24.1775 18.2527 24.375 18.75 24.375Z" fill="#979797"/>
</svg>
