<svg width="30" height="31" viewBox="0 0 30 31" fill="none" xmlns="http://www.w3.org/2000/svg">
<path d="M20.3125 0.25H7.40077C5.62723 0.25 4.19531 1.64932 4.19531 3.42268V12.9774H21.1862C23.28 12.9774 24.9909 14.6671 24.9909 16.7609V23.881C24.9909 25.9745 23.28 27.6967 21.1862 27.6967H4.20519C4.25631 29.4185 5.65995 30.8025 7.40077 30.8025H26.2665C28.0398 30.8025 29.4808 29.3475 29.4808 27.5739V9.4274L20.3125 0.25ZM15.0224 9.33129H8.24124C7.86675 9.33129 7.56319 9.01299 7.56319 8.63848C7.56319 8.45111 7.6389 8.27484 7.76164 8.15234C7.88438 8.0296 8.0539 7.94738 8.24126 7.94738H15.0218C15.3963 7.94738 15.6999 8.26495 15.6999 8.63945C15.7001 9.01369 15.3965 9.33127 15.0221 9.33127L15.0224 9.33129ZM15.053 5.2464H8.27248C7.898 5.2464 7.59443 4.9363 7.59443 4.56181C7.59443 4.37444 7.67015 4.21095 7.79288 4.08845C7.91562 3.96571 8.08514 3.89626 8.2725 3.89626H15.0531C15.4276 3.89626 15.7311 4.19696 15.7311 4.57148C15.7311 4.94572 15.4275 5.24645 15.0531 5.24645L15.053 5.2464ZM19.6911 10.0064V2.52091L27.197 10.0064H19.6911Z" fill="black"/>
<path d="M23.3385 17.0355C23.3385 15.6868 22.2451 14.5938 20.8967 14.5938H2.5199C1.17145 14.5938 0.078125 15.6871 0.078125 17.0355V23.6303C0.078125 24.9787 1.17145 26.0721 2.5199 26.0721H20.8967C22.2454 26.0721 23.3385 24.9787 23.3385 23.6303V17.0355ZM7.11487 22.7946C5.35936 22.7946 4.61667 21.5861 4.60994 20.3572C4.60319 19.1216 5.40664 17.8658 7.11487 17.8658C7.75632 17.8658 8.36394 18.1089 8.85007 18.5883L8.25591 19.1622C7.94533 18.8583 7.52674 18.7165 7.11487 18.7165C5.97383 18.7165 5.48091 19.5673 5.4877 20.3572C5.49445 21.1405 5.94682 21.9574 7.11487 21.9574C7.52674 21.9574 7.99263 21.7886 8.3032 21.4781L8.91087 22.0925C8.42473 22.5718 7.7968 22.7947 7.11486 22.7947L7.11487 22.7946ZM11.2738 22.8081C10.3085 22.8081 9.56579 22.511 9.21472 21.6468L9.95741 21.262C10.1667 21.7819 10.7136 22.0115 11.2875 22.0115C11.8477 22.0115 12.3743 21.8157 12.3743 21.3025C12.3743 20.8569 11.9084 20.6746 11.2805 20.6071C10.3152 20.4923 9.42399 20.2357 9.42399 19.1757C9.42399 18.2034 10.3827 17.805 11.2538 17.7983C11.9895 17.7983 12.7524 18.0076 13.1103 18.7368L12.4013 19.1014C12.2393 18.8313 11.7937 18.5748 11.2806 18.5748C10.6191 18.5748 10.3018 18.8516 10.3018 19.2027C10.3018 19.6146 10.7879 19.7293 11.3551 19.7969C12.3406 19.9184 13.2589 20.175 13.2589 21.3025C13.2589 22.3558 12.3271 22.8082 11.2738 22.8082L11.2738 22.8081ZM16.5132 22.7298H15.5882L13.6237 17.9697H14.6227L16.0474 21.6495L17.4788 17.9697H18.4781L16.5132 22.7298Z" fill="black"/>
</svg>
