<svg width="276" height="276" viewBox="0 0 276 276" fill="none" xmlns="http://www.w3.org/2000/svg">
<path d="M103.337 205.013C112.936 205.007 121.986 200.537 127.826 192.918C133.665 185.298 135.627 175.396 133.137 166.126C130.648 156.854 123.986 149.269 115.117 145.602C106.245 141.933 96.1738 142.599 87.8631 147.404C79.5523 152.208 73.9491 160.605 72.7016 170.121C71.4541 179.64 74.7038 189.196 81.4946 195.981C87.2843 201.777 95.1451 205.028 103.337 205.012V205.013ZM86.3739 157.17C91.6474 151.897 99.0742 149.375 106.47 150.35C113.865 151.324 120.386 155.681 124.115 162.14C127.843 168.6 128.356 176.427 125.502 183.318C122.647 190.208 116.749 195.379 109.544 197.31C102.341 199.24 94.6478 197.709 88.7303 193.168C82.8129 188.626 79.3443 181.593 79.3459 174.133C79.329 167.768 81.8595 161.66 86.3737 157.17H86.3739Z" fill="#979797"/>
<path d="M108.218 166.823L113.096 161.945H113.097C110.467 159.438 106.972 158.039 103.339 158.039C99.7053 158.039 96.2108 159.438 93.5801 161.945L98.4578 166.823C99.7731 165.567 101.521 164.867 103.339 164.867C105.156 164.867 106.904 165.567 108.218 166.823H108.218Z" fill="#979797"/>
<path d="M54.8401 240.3C56.1877 241.646 58.3717 241.646 59.7178 240.3L74.3525 225.665C75.7001 224.318 75.7001 222.134 74.3525 220.786L71.6233 218.054L77.0924 212.595C89.8527 221.346 106.114 223.219 120.531 217.601C134.947 211.98 145.651 199.596 149.123 184.519C152.596 169.443 148.387 153.623 137.881 142.264C127.375 130.904 111.932 125.477 96.6308 127.765C81.329 130.052 68.1484 139.758 61.4223 153.692C54.6978 167.626 55.2987 183.984 63.0287 197.387L56.9867 203.413L54.8412 201.268C53.4935 199.92 51.3096 199.92 49.9635 201.268L35.3241 215.903C33.9779 217.249 33.9779 219.433 35.3241 220.78L54.8401 240.3ZM75.2814 146.089C84.0034 137.367 96.285 133.198 108.514 134.808C120.743 136.417 131.527 143.622 137.696 154.305C143.864 164.986 144.713 177.928 139.992 189.324C135.273 200.719 125.521 209.272 113.607 212.465C101.692 215.659 88.9723 213.128 79.1857 205.62C69.3995 198.112 63.6623 186.479 63.6623 174.145C63.6484 163.62 67.8299 153.522 75.2815 146.089H75.2814ZM66.7428 203.415L71.6205 208.297L66.7428 213.175L64.3616 210.794L61.8635 208.292L66.7428 203.415ZM52.3975 208.59L67.029 223.221L57.2795 232.981L42.6401 218.342L52.3975 208.59Z" fill="#979797"/>
<path d="M240.966 80.2151C240.834 78.9892 240.057 77.928 238.93 77.4305L231.651 74.2192C231.306 72.8778 230.899 71.6071 230.457 70.3826L234.491 63.4243C235.101 62.3708 235.112 61.074 234.517 60.0113C232.615 56.6167 230.345 53.4425 227.745 50.5453C226.907 49.6104 225.629 49.2053 224.406 49.4856L216.743 51.2414C215.756 50.4405 214.718 49.675 213.638 48.9512L212.914 40.8604C212.802 39.636 212.046 38.5625 210.931 38.045C207.445 36.417 203.786 35.1879 200.025 34.3809C198.794 34.1237 197.522 34.5565 196.702 35.5098L191.472 41.5704C190.198 41.5057 188.923 41.5057 187.649 41.5704L182.419 35.5067C181.599 34.5533 180.327 34.1205 179.096 34.3777C175.335 35.1848 171.679 36.4139 168.195 38.0418C167.077 38.5578 166.321 39.6313 166.207 40.8573L165.464 48.948C164.391 49.6719 163.353 50.4389 162.359 51.2352L154.715 49.4855C153.491 49.2006 152.209 49.6088 151.376 50.5483C148.773 53.4422 146.497 56.6151 144.59 60.008C143.997 61.0691 144.008 62.3644 144.618 63.4164L148.651 70.3779C148.209 71.6023 147.814 72.876 147.458 74.2175L140.182 77.4288L140.181 77.4304C139.053 77.9278 138.277 78.989 138.144 80.215C137.699 84.0963 137.699 88.0144 138.144 91.8957C138.277 93.1217 139.053 94.1829 140.181 94.6804L147.456 97.8916C147.801 99.2331 148.208 100.504 148.65 101.728L144.618 108.687C144.006 109.74 143.995 111.037 144.59 112.1C146.492 115.494 148.764 118.668 151.362 121.566C152.195 122.507 153.477 122.915 154.701 122.628L162.364 120.873C163.351 121.673 164.389 122.439 165.469 123.163L166.211 131.254C166.322 132.479 167.078 133.551 168.195 134.069C171.68 135.698 175.338 136.928 179.099 137.733C180.33 137.99 181.604 137.557 182.421 136.604L187.652 130.539V130.54C188.926 130.605 190.201 130.605 191.475 130.54L196.705 136.606V136.604C197.36 137.366 198.315 137.805 199.321 137.805C199.552 137.804 199.784 137.779 200.011 137.733C203.772 136.926 207.428 135.697 210.912 134.069C212.03 133.553 212.786 132.48 212.9 131.254L213.643 123.163C214.716 122.439 215.754 121.672 216.748 120.876L224.405 122.625C225.63 122.91 226.911 122.502 227.744 121.563C230.344 118.665 232.616 115.491 234.521 112.097C235.113 111.034 235.102 109.738 234.494 108.687L230.46 101.725C230.902 100.501 231.298 99.2269 231.654 97.8854L238.93 94.6741C240.057 94.1751 240.833 93.1139 240.966 91.8895C241.412 88.0082 241.412 84.0885 240.966 80.2072L240.966 80.2151ZM234.286 89.1851L227.317 92.2593H227.319C226.319 92.6983 225.587 93.5824 225.344 94.6466C224.888 96.7151 224.258 98.7421 223.457 100.704C223.046 101.697 223.122 102.825 223.661 103.754L227.511 110.412C226.424 112.168 225.222 113.848 223.913 115.442L216.602 113.765V113.767C215.519 113.512 214.381 113.802 213.552 114.543C211.988 115.915 210.31 117.155 208.539 118.247C207.62 118.818 207.022 119.789 206.925 120.867L206.215 128.598L206.213 128.597C204.371 129.365 202.478 130.008 200.549 130.519L195.564 124.72C194.85 123.871 193.766 123.428 192.663 123.533C190.596 123.702 188.52 123.702 186.453 123.533C185.348 123.428 184.264 123.871 183.551 124.72L178.552 130.519C176.622 130.008 174.727 129.365 172.884 128.597L172.194 120.865V120.867C172.097 119.787 171.496 118.815 170.575 118.244C168.804 117.155 167.128 115.917 165.566 114.543C164.736 113.8 163.596 113.509 162.512 113.762L155.206 115.439C153.895 113.845 152.695 112.165 151.611 110.409L155.464 103.762C156.003 102.831 156.079 101.704 155.668 100.712C154.868 98.7483 154.237 96.7199 153.781 94.6499C153.538 93.5872 152.806 92.7015 151.808 92.2626L144.839 89.1884C144.749 88.1257 144.711 87.0706 144.711 86.0557C144.711 85.0407 144.749 84.0026 144.825 82.9229L151.794 79.8487C152.792 79.4098 153.524 78.5242 153.767 77.4615C154.223 75.393 154.854 73.366 155.654 71.404C156.065 70.4106 155.99 69.2832 155.45 68.3545L151.611 61.6993C152.698 59.9435 153.9 58.2632 155.209 56.669L162.52 58.3463V58.3447C163.603 58.5958 164.739 58.3062 165.569 57.5685C167.134 56.1962 168.813 54.9563 170.586 53.8644C171.505 53.293 172.103 52.3226 172.2 51.2445L172.91 43.513L172.912 43.5145C174.754 42.746 176.647 42.1037 178.576 41.5924L183.557 47.3911C184.271 48.2413 185.356 48.6864 186.459 48.5786C188.526 48.4092 190.602 48.4092 192.669 48.5786C193.773 48.6849 194.859 48.2413 195.571 47.3911L200.57 41.5924C202.5 42.1037 204.395 42.746 206.238 43.5145L206.928 51.2461V51.2445C207.025 52.3242 207.626 53.296 208.547 53.8674C210.318 54.9563 211.994 56.1946 213.556 57.5685C214.389 58.3062 215.525 58.5958 216.61 58.3494L223.916 56.6721C225.227 58.2662 226.427 59.9465 227.511 61.7024L223.658 68.3497C223.118 69.2799 223.043 70.4074 223.454 71.3992C224.254 73.363 224.885 75.3914 225.341 77.4614C225.584 78.5241 226.316 79.4097 227.314 79.8487L234.283 82.9229C234.359 84.0025 234.397 85.0406 234.397 86.0556C234.397 87.0706 234.373 88.1256 234.297 89.1883L234.286 89.1851Z" fill="#979797"/>
<path d="M189.564 55.0078C181.328 55.0078 173.43 58.2792 167.608 64.1024C161.785 69.9244 158.514 77.8224 158.514 86.0578C158.514 94.2933 161.785 102.191 167.608 108.013C173.43 113.837 181.328 117.108 189.564 117.108C197.799 117.108 205.697 113.837 211.519 108.013C217.343 102.191 220.614 94.2933 220.614 86.0578C220.604 77.8255 217.33 69.9335 211.51 64.1119C205.688 58.2914 197.796 55.0173 189.564 55.0078ZM189.564 110.208C183.158 110.208 177.016 107.663 172.488 103.134C167.958 98.606 165.414 92.4638 165.414 86.0578C165.414 79.6519 167.958 73.5101 172.488 68.9817C177.016 64.4521 183.158 61.9078 189.564 61.9078C195.97 61.9078 202.111 64.4522 206.64 68.9817C211.169 73.5097 213.714 79.6519 213.714 86.0578C213.706 92.4603 211.16 98.5997 206.632 103.126C202.106 107.654 195.966 110.2 189.564 110.208Z" fill="#979797"/>
<path d="M36.6394 87.0002L42.6601 89.657C42.9327 90.6643 43.23 91.6208 43.5565 92.5479L40.2127 98.3096V98.3081C39.6043 99.3616 39.5951 100.658 40.1896 101.721C41.8361 104.663 43.8029 107.415 46.0546 109.924C46.8879 110.868 48.1724 111.276 49.3968 110.987L55.7314 109.538C56.4692 110.128 57.2423 110.697 58.0432 111.243L58.6578 117.942H58.6562C58.7671 119.168 59.5234 120.243 60.64 120.761C63.6634 122.173 66.8346 123.237 70.0965 123.935C71.3241 124.191 72.5931 123.76 73.4125 122.811L77.7418 117.797C78.689 117.845 79.6378 117.845 80.585 117.797L84.9142 122.817C85.7305 123.772 87.0027 124.203 88.2302 123.941C91.4908 123.245 94.6618 122.179 97.6825 120.768C98.8006 120.251 99.5584 119.176 99.6708 117.95L100.285 111.253C101.086 110.708 101.856 110.138 102.597 109.545L108.932 110.994H108.93C110.153 111.282 111.438 110.874 112.269 109.932C114.523 107.423 116.489 104.67 118.134 101.727C118.729 100.666 118.72 99.369 118.11 98.3156L114.766 92.5539C115.094 91.6251 115.39 90.6703 115.662 89.663L121.683 87.0062H121.685C122.814 86.5087 123.59 85.4475 123.724 84.2215C124.106 80.8609 124.106 77.4678 123.724 74.1073C123.59 72.8813 122.814 71.8201 121.685 71.3227L115.664 68.6659C115.391 67.6586 115.094 66.7021 114.768 65.775L118.111 60.0133H118.11C118.726 58.9613 118.741 57.6614 118.148 56.5941C116.502 53.6523 114.535 50.9002 112.283 48.3909C111.445 47.4545 110.165 47.0464 108.939 47.3282L102.605 48.7775C101.867 48.1877 101.094 47.6178 100.293 47.0726L99.6786 40.3729H99.6801C99.5692 39.1469 98.813 38.0719 97.6964 37.5544C94.6745 36.142 91.5017 35.0778 88.2398 34.3801C87.0123 34.1182 85.7401 34.5495 84.9254 35.5044L80.5851 40.5177C79.6379 40.47 78.6891 40.47 77.7419 40.5177L73.4126 35.5044C72.5979 34.5495 71.3242 34.1182 70.0966 34.3801C66.8361 35.0777 63.665 36.142 60.6444 37.5544C59.5263 38.0719 58.7685 39.1454 58.656 40.3729L58.043 47.0726C57.2422 47.6178 56.4705 48.1877 55.7312 48.7775L49.3966 47.3282C48.1737 47.0479 46.8938 47.4545 46.0575 48.3909C43.7996 50.8984 41.828 53.6507 40.1787 56.5941C39.5842 57.6568 39.5934 58.9536 40.2033 60.0071L43.5471 65.7688C43.2021 66.6975 42.9233 67.6524 42.6507 68.6597L36.63 71.3165L36.6284 71.3149C35.4995 71.8124 34.7232 72.8736 34.5892 74.0996C34.2072 77.4602 34.2072 80.8549 34.5892 84.2154C34.7247 85.4429 35.5071 86.5056 36.6392 87L36.6394 87.0002ZM41.2907 76.8028L46.9941 74.2908L46.9926 74.2892C47.9906 73.8487 48.7206 72.9631 48.9624 71.8989C49.3506 70.1523 49.8835 68.4412 50.5565 66.7822C50.9678 65.7888 50.8923 64.6614 50.3532 63.7327L47.199 58.2911C48.0229 56.982 48.924 55.7237 49.8974 54.5208L55.8625 55.9008C56.9453 56.1488 58.0819 55.8607 58.9152 55.1245C60.2366 53.9663 61.6505 52.919 63.1458 51.9949C64.0638 51.425 64.6629 50.4547 64.76 49.3766L65.3437 43.0463C66.7206 42.4888 68.1299 42.0098 69.5622 41.614L73.6438 46.3407C74.36 47.1862 75.4458 47.6282 76.5486 47.5235C78.289 47.3834 80.0387 47.3834 81.7792 47.5235C82.882 47.6283 83.9678 47.1862 84.684 46.3407L88.7656 41.6002C90.1995 41.9975 91.6088 42.475 92.9888 43.0325L93.5648 49.3671C93.6634 50.4468 94.2656 51.4186 95.1897 51.9885C96.6806 52.9034 98.0945 53.943 99.4129 55.0935C100.245 55.8297 101.381 56.1208 102.466 55.8728L108.431 54.4928C109.406 55.6942 110.307 56.9525 111.129 58.2647L107.976 63.7047H107.975C107.436 64.635 107.36 65.7624 107.772 66.7542C108.445 68.413 108.978 70.1242 109.366 71.8709C109.607 72.9351 110.337 73.8207 111.336 74.2612L117.039 76.7733C117.091 77.5834 117.114 78.3643 117.114 79.1298C117.114 79.8952 117.09 80.6761 117.039 81.4862L111.336 83.9983C110.338 84.4388 109.607 85.3259 109.366 86.3886C108.978 88.1352 108.445 89.8463 107.772 91.5053C107.36 92.4987 107.436 93.6261 107.975 94.5548L111.128 99.9948L111.129 99.9963C110.305 101.305 109.404 102.564 108.431 103.767L102.466 102.387C101.381 102.139 100.245 102.43 99.4129 103.166C98.0945 104.324 96.6806 105.368 95.1866 106.288C94.264 106.859 93.6649 107.831 93.5678 108.911L92.9841 115.241C91.6072 115.799 90.1979 116.278 88.7656 116.674L84.684 111.974C83.9647 111.132 82.882 110.691 81.7792 110.792C80.0388 110.929 78.2891 110.929 76.5486 110.792C75.4458 110.693 74.3631 111.133 73.6438 111.974L69.5622 116.715C68.1283 116.318 66.719 115.84 65.339 115.283L64.763 108.948C64.6644 107.868 64.0622 106.896 63.1381 106.327C61.6472 105.412 60.2333 104.372 58.9149 103.222C58.0832 102.485 56.9465 102.194 55.8622 102.442L49.8971 103.822C48.9221 102.621 48.0212 101.363 47.1987 100.05L50.3514 94.6104H50.353C50.892 93.6801 50.9675 92.5527 50.5563 91.5608C49.8817 89.8897 49.3472 88.1632 48.9622 86.4028C48.7204 85.3385 47.9903 84.4529 46.9923 84.0124L41.2889 81.5004C41.2381 80.7041 41.2135 79.9233 41.2135 79.1578C41.2135 78.3923 41.2381 77.6115 41.2889 76.8013L41.2907 76.8028Z" fill="#979797"/>
<path d="M79.1645 106.755C86.4848 106.755 93.5051 103.847 98.6801 98.6703C103.857 93.4953 106.764 86.475 106.764 79.1547C106.764 71.8344 103.857 64.8141 98.6801 59.6391C93.5051 54.4625 86.4848 51.5547 79.1645 51.5547C71.8442 51.5547 64.8239 54.4625 59.6489 59.6391C54.4723 64.8141 51.5645 71.8344 51.5645 79.1547C51.5722 86.4723 54.4831 93.4878 59.658 98.6612C64.8314 103.836 71.8469 106.747 79.1645 106.755ZM79.1645 58.4547C84.6553 58.4547 89.9194 60.6356 93.8023 64.5168C97.6836 68.3997 99.8645 73.6639 99.8645 79.1547C99.8645 84.6455 97.6836 89.9096 93.8023 93.7926C89.9195 97.6738 84.6553 99.8547 79.1645 99.8547C73.6736 99.8547 68.4095 97.6738 64.5266 93.7926C60.6453 89.9098 58.4645 84.6455 58.4645 79.1547C58.4706 73.667 60.6531 68.4041 64.5329 64.5231C68.4142 60.6435 73.6768 58.461 79.1645 58.4547Z" fill="#979797"/>
<path d="M187.069 91.5742L178.071 83.4776L173.455 88.6049L184.957 98.9549L184.959 98.9533C186.351 100.216 188.5 100.13 189.789 98.7608L209.337 78.0608L204.32 73.3203L187.069 91.5742Z" fill="#979797"/>
<path d="M75.7146 89.5083C76.6295 89.5083 77.5074 89.1449 78.1543 88.498L91.9542 74.698L87.0765 69.8203L75.7148 81.1804L71.2547 76.7203L66.377 81.598L73.2769 88.498H73.2754C73.9223 89.1448 74.8002 89.5083 75.715 89.5083H75.7146Z" fill="#979797"/>
<path d="M239.012 203.908C240.138 203.41 240.914 202.35 241.048 201.128C241.401 198.024 241.401 194.888 241.048 191.785C240.914 190.562 240.138 189.502 239.012 189.005L233.62 186.624C233.389 185.789 233.141 184.988 232.868 184.209L235.867 179.034H235.865C236.474 177.982 236.485 176.687 235.893 175.625C234.371 172.912 232.554 170.373 230.476 168.055C229.643 167.116 228.36 166.708 227.137 166.993L221.465 168.29C220.846 167.804 220.206 167.335 219.547 166.879L218.999 160.872V160.874C218.888 159.646 218.132 158.573 217.015 158.055C214.226 156.746 211.296 155.764 208.283 155.123C207.053 154.859 205.778 155.292 204.963 156.25L201.088 160.735C200.309 160.704 199.519 160.704 198.735 160.735L194.86 156.25H194.863C194.047 155.294 192.773 154.863 191.544 155.126C188.531 155.768 185.602 156.751 182.811 158.058C181.695 158.576 180.938 159.651 180.827 160.877L180.279 166.883C179.622 167.344 178.982 167.814 178.362 168.294L172.689 166.997C171.466 166.717 170.186 167.124 169.35 168.06C167.272 170.377 165.455 172.915 163.933 175.628C163.342 176.69 163.353 177.985 163.961 179.037L166.96 184.212C166.687 184.988 166.436 185.789 166.208 186.627L160.816 189.008H160.814C159.688 189.505 158.912 190.565 158.778 191.788C158.425 194.893 158.425 198.027 158.778 201.131C158.912 202.355 159.688 203.415 160.814 203.912L166.207 206.293C166.438 207.128 166.686 207.929 166.958 208.708L163.959 213.883L163.961 213.882C163.353 214.934 163.342 216.229 163.933 217.29C165.455 220.005 167.271 222.544 169.35 224.86C170.182 225.804 171.465 226.212 172.689 225.923L178.362 224.626C178.981 225.111 179.62 225.581 180.279 226.037L180.827 232.046C180.94 233.271 181.696 234.344 182.811 234.862C185.6 236.169 188.53 237.154 191.544 237.794C192.773 238.056 194.047 237.623 194.863 236.665L198.738 232.18C199.517 232.211 200.307 232.211 201.091 232.18L204.967 236.665H204.963C205.783 237.616 207.055 238.047 208.283 237.79C211.295 237.149 214.224 236.165 217.015 234.857C218.13 234.34 218.886 233.268 218.999 232.043L219.547 226.034C220.205 225.573 220.844 225.103 221.465 224.623L227.137 225.92C228.362 226.208 229.645 225.8 230.476 224.857C232.556 222.541 234.372 220.003 235.893 217.287C236.485 216.226 236.474 214.931 235.865 213.879L232.867 208.704C233.139 207.927 233.39 207.127 233.618 206.289L239.012 203.908ZM229.291 200.655C228.293 201.094 227.559 201.979 227.316 203.042C226.969 204.628 226.486 206.182 225.871 207.686C225.46 208.679 225.536 209.806 226.075 210.735L228.879 215.565C228.186 216.652 227.435 217.701 226.631 218.709L221.334 217.501C220.251 217.242 219.11 217.53 218.281 218.274C217.086 219.328 215.803 220.276 214.445 221.11C213.525 221.681 212.926 222.653 212.83 223.731L212.313 229.358V229.359C211.169 229.82 210.001 230.217 208.814 230.55L205.188 226.343C204.469 225.504 203.388 225.063 202.286 225.161C200.706 225.288 199.12 225.288 197.54 225.161C196.435 225.06 195.353 225.502 194.635 226.346L191.012 230.548V230.55C189.825 230.217 188.657 229.819 187.513 229.359L186.996 223.733V223.731C186.897 222.653 186.298 221.684 185.378 221.113C184.021 220.276 182.738 219.326 181.542 218.274C180.712 217.532 179.572 217.242 178.489 217.501L173.197 218.712H173.195C172.391 217.704 171.64 216.655 170.947 215.57L173.751 210.74C174.291 209.809 174.366 208.682 173.955 207.688C173.342 206.185 172.857 204.631 172.505 203.045C172.264 201.984 171.534 201.098 170.536 200.658L165.471 198.421C165.433 197.731 165.413 197.1 165.413 196.458C165.413 195.815 165.433 195.167 165.471 194.494L170.536 192.258V192.261C171.534 191.822 172.267 190.936 172.51 189.873C172.857 188.287 173.34 186.733 173.955 185.23C174.366 184.236 174.291 183.109 173.751 182.18L170.947 177.35C171.64 176.263 172.391 175.214 173.195 174.207L178.491 175.417H178.492C179.575 175.671 180.713 175.383 181.545 174.646C182.74 173.592 184.023 172.642 185.381 171.809C186.301 171.237 186.9 170.267 186.996 169.187L187.513 163.561C188.657 163.1 189.825 162.703 191.012 162.37L194.638 166.577V166.575C195.357 167.416 196.438 167.858 197.54 167.759C199.12 167.632 200.706 167.632 202.286 167.759C203.391 167.863 204.477 167.419 205.191 166.572L208.814 162.37C210.001 162.702 211.169 163.099 212.313 163.561L212.831 169.187C212.929 170.266 213.528 171.236 214.448 171.806C215.805 172.644 217.088 173.592 218.284 174.646C219.116 175.385 220.254 175.673 221.337 175.417L226.629 174.207H226.631C227.435 175.214 228.186 176.263 228.879 177.35L226.075 182.18C225.536 183.109 225.46 184.236 225.871 185.23C226.484 186.735 226.969 188.287 227.321 189.873C227.562 190.936 228.292 191.82 229.29 192.261L234.355 194.497C234.393 195.187 234.413 195.819 234.413 196.461C234.413 197.103 234.393 197.751 234.355 198.425L229.291 200.655Z" fill="#979797"/>
<path d="M199.914 172.305C193.508 172.305 187.366 174.849 182.838 179.379C178.308 183.907 175.764 190.049 175.764 196.455C175.764 202.861 178.308 209.003 182.838 213.531C187.366 218.061 193.508 220.605 199.914 220.605C206.32 220.605 212.461 218.06 216.99 213.531C221.519 209.003 224.064 202.861 224.064 196.455C224.056 190.052 221.51 183.913 216.982 179.386C212.456 174.858 206.316 172.313 199.914 172.305ZM199.914 213.705C195.339 213.705 190.952 211.887 187.715 208.653C184.481 205.417 182.664 201.029 182.664 196.455C182.664 191.88 184.481 187.493 187.715 184.256C190.951 181.022 195.339 179.205 199.914 179.205C204.488 179.205 208.876 181.022 212.112 184.256C215.346 187.492 217.164 191.88 217.164 196.455C217.158 201.028 215.339 205.413 212.106 208.647C208.871 211.88 204.487 213.699 199.914 213.705Z" fill="#979797"/>
<path d="M204.791 186.703L199.913 191.582L195.036 186.703L190.156 191.582L195.036 196.46L190.156 201.338L195.036 206.217L199.913 201.338L204.791 206.217L209.67 201.338L204.791 196.46L209.67 191.582L204.791 186.703Z" fill="#979797"/>
</svg>

