<svg width="56" height="56" viewBox="0 0 56 56" fill="none" xmlns="http://www.w3.org/2000/svg">
<path d="M32.8506 3.5C33.2211 3.50001 33.582 3.61761 33.8814 3.83587C34.1808 4.05412 34.4032 4.36177 34.5166 4.7145L36.4416 10.696C37.2501 11.0915 38.0236 11.536 38.7621 12.0365L44.9081 10.7135C45.2705 10.6361 45.648 10.6758 45.9864 10.8267C46.3248 10.9777 46.6066 11.2322 46.7911 11.5535L51.6421 19.95C51.8273 20.2711 51.9058 20.6428 51.8661 21.0114C51.8265 21.3801 51.6708 21.7266 51.4216 22.001L47.2041 26.656C47.2655 27.5486 47.2655 28.4444 47.2041 29.337L51.4216 33.999C51.6708 34.2734 51.8265 34.6199 51.8661 34.9886C51.9058 35.3572 51.8273 35.7289 51.6421 36.05L46.7911 44.45C46.6061 44.7707 46.3241 45.0244 45.9857 45.1747C45.6474 45.3251 45.2701 45.3642 44.9081 45.2865L38.7621 43.9635C38.0271 44.4605 37.2501 44.9085 36.4451 45.304L34.5166 51.2855C34.4032 51.6382 34.1808 51.9459 33.8814 52.1641C33.582 52.3824 33.2211 52.5 32.8506 52.5H23.1486C22.7781 52.5 22.4172 52.3824 22.1178 52.1641C21.8184 51.9459 21.596 51.6382 21.4826 51.2855L19.5611 45.3075C18.7548 44.9132 17.9771 44.4629 17.2336 43.96L11.0911 45.2865C10.7288 45.3639 10.3512 45.3242 10.0128 45.1733C9.6744 45.0223 9.39265 44.7678 9.20814 44.4465L4.35715 36.05C4.17191 35.7289 4.09345 35.3572 4.13308 34.9886C4.1727 34.6199 4.32838 34.2734 4.57765 33.999L8.79514 29.337C8.73405 28.4467 8.73405 27.5533 8.79514 26.663L4.57765 22.001C4.32838 21.7266 4.1727 21.3801 4.13308 21.0114C4.09345 20.6428 4.17191 20.2711 4.35715 19.95L9.20814 11.55C9.39316 11.2293 9.67513 10.9756 10.0135 10.8253C10.3518 10.6749 10.7291 10.6358 11.0911 10.7135L17.2336 12.04C17.9756 11.5395 18.7526 11.088 19.5611 10.6925L21.4861 4.7145C21.5991 4.36291 21.8205 4.05607 22.1185 3.83792C22.4164 3.61977 22.7758 3.50149 23.1451 3.5H32.8471H32.8506ZM31.5696 7H24.4296L22.4416 13.1845L21.1011 13.839C20.4421 14.1615 19.806 14.5287 19.1971 14.938L17.9581 15.778L11.6021 14.406L8.03214 20.594L12.3896 25.417L12.2846 26.901C12.2343 27.6328 12.2343 28.3672 12.2846 29.099L12.3896 30.583L8.02514 35.406L11.5986 41.594L17.9546 40.2255L19.1936 41.062C19.8025 41.4713 20.4386 41.8385 21.0976 42.161L22.4381 42.8155L24.4296 49H31.5766L33.5716 42.812L34.9086 42.161C35.5669 41.8393 36.2019 41.472 36.8091 41.062L38.0446 40.2255L44.4041 41.594L47.9741 35.406L43.6131 30.583L43.7181 29.099C43.7685 28.366 43.7685 27.6305 43.7181 26.8975L43.6131 25.4135L47.9776 20.594L44.4041 14.406L38.0446 15.771L36.8091 14.938C36.202 14.5279 35.5669 14.1606 34.9086 13.839L33.5716 13.188L31.5731 7H31.5696ZM27.9996 17.5C30.7844 17.5 33.4551 18.6062 35.4242 20.5754C37.3934 22.5445 38.4996 25.2152 38.4996 28C38.4996 30.7848 37.3934 33.4555 35.4242 35.4246C33.4551 37.3938 30.7844 38.5 27.9996 38.5C25.2148 38.5 22.5441 37.3938 20.575 35.4246C18.6059 33.4555 17.4996 30.7848 17.4996 28C17.4996 25.2152 18.6059 22.5445 20.575 20.5754C22.5441 18.6062 25.2148 17.5 27.9996 17.5ZM27.9996 21C26.1431 21 24.3626 21.7375 23.0499 23.0503C21.7371 24.363 20.9996 26.1435 20.9996 28C20.9996 29.8565 21.7371 31.637 23.0499 32.9497C24.3626 34.2625 26.1431 35 27.9996 35C29.8561 35 31.6366 34.2625 32.9494 32.9497C34.2621 31.637 34.9996 29.8565 34.9996 28C34.9996 26.1435 34.2621 24.363 32.9494 23.0503C31.6366 21.7375 29.8561 21 27.9996 21Z" fill="#0174FF"/>
</svg>
