<svg width="13" height="12" viewBox="0 0 13 12" fill="none" xmlns="http://www.w3.org/2000/svg">
<path d="M5.58105 3.89188C5.58105 4.09346 5.41456 4.2569 5.2092 4.2569C5.00383 4.2569 4.83734 4.09347 4.83734 3.89188C4.83734 3.69029 5.00383 3.52686 5.2092 3.52686C5.41456 3.52686 5.58105 3.69029 5.58105 3.89188Z" fill="#3A416F"/>
<path d="M11.6168 1.68268H3.73516V1.58475C3.73516 0.712238 3.00957 0 2.12069 0C1.23182 0 0.506226 0.712238 0.506226 1.58475V9.92689C0.506226 10.9329 1.34066 11.752 2.36557 11.752H11.6167C12.0929 11.752 12.4783 11.3736 12.4783 10.9062V2.52869C12.4783 2.0613 12.0929 1.68292 11.6167 1.68292L11.6168 1.68268ZM8.85952 3.96184C8.95929 3.8194 9.1543 3.78378 9.2994 3.88172C9.42184 3.96629 9.53522 4.06423 9.63045 4.17106C9.74383 4.30016 9.73022 4.49602 9.59871 4.61176C9.53975 4.66517 9.46266 4.68743 9.3901 4.68743C9.2994 4.68743 9.21324 4.65182 9.14975 4.5806C9.08626 4.50937 9.0137 4.44705 8.9366 4.39363C8.80056 4.30015 8.76428 4.10428 8.85951 3.96185L8.85952 3.96184ZM1.14085 1.58476C1.14085 1.05502 1.58073 0.623237 2.1204 0.623237C2.66008 0.623237 3.09996 1.05502 3.09996 1.58476V8.4312C2.82786 8.22643 2.48772 8.10624 2.1204 8.10624C2.08412 8.10624 2.04785 8.10624 2.01157 8.11069H1.99343C1.95715 8.11514 1.9254 8.11514 1.89366 8.1196C1.88912 8.1196 1.88005 8.1196 1.87552 8.12405C1.84377 8.1285 1.8075 8.13295 1.77575 8.14185C1.77122 8.14185 1.76668 8.14631 1.76215 8.14631C1.7304 8.15521 1.69412 8.15966 1.66238 8.17301H1.65784C1.6261 8.18192 1.59436 8.19527 1.56261 8.20417C1.55807 8.20417 1.55354 8.20863 1.54447 8.20863C1.51272 8.22198 1.48551 8.23088 1.45377 8.24424C1.44923 8.24869 1.44017 8.24869 1.43563 8.25314C1.40389 8.2665 1.37667 8.27985 1.34947 8.29766C1.34493 8.29766 1.3404 8.30211 1.33586 8.30656C1.30865 8.31991 1.28144 8.33772 1.25423 8.35553L1.2497 8.35998L1.16806 8.4134C1.16353 8.41785 1.15899 8.4223 1.15446 8.4223C1.14992 8.42675 1.14539 8.42675 1.14539 8.4312V1.58476L1.14085 1.58476ZM5.2087 4.88332C4.65091 4.88332 4.20195 4.43815 4.20195 3.8951C4.20195 3.35205 4.65547 2.90688 5.2087 2.90688C5.76194 2.90688 6.21545 3.35205 6.21545 3.8951C6.21545 4.43815 5.76194 4.88332 5.2087 4.88332ZM6.78685 3.57903H6.96825C7.14511 3.57903 7.28569 3.71702 7.28569 3.89063C7.28569 4.06424 7.14511 4.20223 6.96825 4.20223H6.78685C6.60999 4.20223 6.4694 4.06424 6.4694 3.89063C6.4694 3.71702 6.60999 3.57903 6.78685 3.57903ZM7.16325 9.13001C7.11337 9.16117 7.05441 9.17453 6.99546 9.17453C6.89115 9.17453 6.78685 9.12111 6.72336 9.02762C6.64626 8.90298 6.58278 8.76944 6.53742 8.62699C6.48754 8.46228 6.58278 8.28868 6.75057 8.23971C6.91836 8.19075 7.09522 8.28423 7.14511 8.44893C7.17232 8.53796 7.21313 8.62254 7.26302 8.70267C7.35825 8.84957 7.3129 9.04098 7.16325 9.13001ZM7.2993 7.50969C7.24488 7.58536 7.19953 7.66994 7.16778 7.75897C7.12243 7.88806 6.99999 7.96374 6.86847 7.96374C6.83219 7.96374 6.79591 7.95928 6.75963 7.94593C6.59638 7.88806 6.51021 7.71 6.56916 7.54529C6.61905 7.4073 6.68707 7.27821 6.77324 7.15356C6.87301 7.01112 7.06801 6.9755 7.21311 7.07343C7.36277 7.17136 7.39905 7.36723 7.29928 7.50969L7.2993 7.50969ZM8.35593 9.57074C8.33326 9.72654 8.19721 9.84228 8.04302 9.84228C8.02941 9.84228 8.01581 9.84228 8.0022 9.83783C7.85255 9.82003 7.70743 9.77996 7.57136 9.72654C7.40811 9.65977 7.33101 9.48171 7.3945 9.32146C7.45799 9.16121 7.64392 9.08553 7.80718 9.14785C7.89335 9.18346 7.98858 9.20572 8.08382 9.21908C8.25614 9.24133 8.37859 9.39713 8.35591 9.57074L8.35593 9.57074ZM8.13825 7.03338C8.04302 7.04228 7.94778 7.06009 7.86162 7.09125C7.82534 7.10461 7.79359 7.10906 7.75731 7.10906C7.6258 7.10906 7.50336 7.02893 7.458 6.89984C7.39905 6.73513 7.48975 6.56153 7.65301 6.50366C7.79359 6.45469 7.94324 6.42353 8.09288 6.41463C8.26521 6.40127 8.4194 6.53037 8.433 6.69952C8.44207 6.86868 8.31056 7.02003 8.13823 7.03338H8.13825ZM8.25616 4.20226H7.88883C7.71197 4.20226 7.57138 4.06426 7.57138 3.89065C7.57138 3.71705 7.71197 3.57905 7.88883 3.57905H8.25616C8.43302 3.57905 8.57361 3.71705 8.57361 3.89065C8.57361 4.06426 8.43302 4.20226 8.25616 4.20226ZM9.14048 9.85132H8.95908C8.78221 9.85132 8.64163 9.71333 8.64163 9.53972C8.64163 9.36611 8.78221 9.22812 8.95908 9.22812H9.14048C9.31734 9.22812 9.45792 9.36611 9.45792 9.53972C9.45792 9.71333 9.3128 9.85132 9.14048 9.85132ZM9.51235 6.5572C9.40351 6.65958 9.28106 6.74416 9.14955 6.81539C9.09966 6.8421 9.04978 6.85545 8.99536 6.85545C8.88198 6.85545 8.77314 6.79758 8.71872 6.6952C8.63256 6.54385 8.69151 6.35688 8.8457 6.27229C8.92733 6.22777 9.00896 6.16991 9.07699 6.10759C9.20396 5.99184 9.4035 5.9963 9.52594 6.12094C9.64838 6.24558 9.63932 6.44145 9.51234 6.5572L9.51235 6.5572ZM9.67107 5.86279C9.49874 5.83163 9.38537 5.67137 9.41711 5.50222C9.43071 5.4399 9.43525 5.37312 9.43525 5.30635C9.43525 5.27964 9.43525 5.24848 9.43071 5.22177C9.41711 5.04817 9.54863 4.90127 9.72095 4.88791C9.89328 4.87456 10.0475 5.00365 10.0611 5.17281C10.0656 5.21733 10.0656 5.26184 10.0656 5.30635C10.0656 5.40873 10.0565 5.51112 10.0384 5.6135C10.0112 5.76486 9.87514 5.87169 9.72549 5.87169C9.70735 5.86724 9.68921 5.86279 9.67107 5.86279L9.67107 5.86279ZM11.3762 9.8068C11.4987 9.92699 11.4987 10.1273 11.3762 10.2475C11.3127 10.3098 11.2311 10.341 11.1495 10.341C11.0678 10.341 10.9862 10.3098 10.9273 10.2475L10.6552 9.9804L10.3831 10.2475C10.3196 10.3098 10.2379 10.341 10.1608 10.341C10.0792 10.341 9.99758 10.3098 9.93409 10.2475C9.81165 10.1273 9.81165 9.92698 9.93409 9.8068L10.2062 9.53971L9.93409 9.27262C9.81165 9.15243 9.81165 8.95211 9.93409 8.83193C10.0565 8.71174 10.2606 8.71174 10.383 8.83193L10.6551 9.09902L10.9272 8.83193C11.0497 8.71174 11.2538 8.71174 11.3762 8.83193C11.4986 8.95212 11.4986 9.15243 11.3762 9.27262L11.1041 9.53971L11.3762 9.8068Z" fill="#3A416F"/>
</svg>
