<svg width="8" height="12" viewBox="0 0 8 12" fill="none" xmlns="http://www.w3.org/2000/svg">
<path d="M7.14 6.75152L1.658 11.5475C1.013 12.1135 3.67706e-07 11.6535 3.67706e-07 10.7945L3.67706e-07 1.20252C-0.000164459 1.01028 0.0550878 0.822062 0.159141 0.660412C0.263194 0.498761 0.411637 0.370531 0.586693 0.291075C0.761749 0.211618 0.955998 0.184306 1.14618 0.212408C1.33636 0.24051 1.51441 0.322835 1.659 0.449524L7.139 5.24552C7.24641 5.33939 7.3325 5.45514 7.39148 5.58501C7.45046 5.71489 7.48098 5.85588 7.48098 5.99852C7.48098 6.14117 7.45046 6.28216 7.39148 6.41203C7.3325 6.54191 7.24641 6.65766 7.139 6.75152H7.14Z" fill="#0174FF"/>
</svg>
