<svg width="18" height="18" viewBox="0 0 18 18" fill="none" xmlns="http://www.w3.org/2000/svg">
<path d="M8.72767 17.2478C8.96954 17.2479 9.20141 17.152 9.37241 16.981C9.54339 16.81 9.63943 16.578 9.63923 16.3363L9.63951 10.052L15.9237 10.0518C16.2494 10.0519 16.5504 9.87809 16.7131 9.59602C16.876 9.31404 16.8759 8.96658 16.7131 8.68446C16.5502 8.40248 16.2494 8.22881 15.9237 8.2287L9.6395 8.22898L9.63949 1.94449C9.63949 1.61892 9.4657 1.31796 9.18374 1.15508C8.90165 0.992292 8.55419 0.992191 8.27218 1.15507C7.99009 1.31786 7.81631 1.61881 7.81643 1.94448L7.81615 8.22869L1.53194 8.22897C1.20626 8.22886 0.905303 8.40265 0.742531 8.68472C0.579635 8.9667 0.579762 9.31416 0.742532 9.59628C0.905428 9.87826 1.20638 10.052 1.53194 10.052L7.81644 10.052L7.81616 16.3363C7.81605 16.5781 7.91199 16.81 8.08298 16.981C8.25398 17.152 8.48594 17.248 8.72772 17.2478L8.72767 17.2478Z" fill="#0174FF"/>
</svg>
