<svg width="59" height="58" viewBox="0 0 59 58" fill="none" xmlns="http://www.w3.org/2000/svg">
<path d="M12.2514 21.2006L15.6608 21.6267C16.0016 23.0758 16.5984 24.4395 17.3654 25.7183L15.3196 28.4457C15.064 28.7866 15.064 29.298 15.4049 29.6392L18.0474 32.2817C18.3882 32.6226 18.8144 32.6226 19.1556 32.367L21.8831 30.2359C23.1615 31.0029 24.5256 31.5997 25.9746 31.9405L26.4007 35.35C26.486 35.7761 26.8269 36.1169 27.253 36.1169H31.0033C31.4294 36.1169 31.7703 35.7761 31.8556 35.35L32.2817 31.9405C33.7307 31.5997 35.0945 31.0029 36.3732 30.2359L39.1007 32.367C39.4415 32.6226 39.953 32.6226 40.2089 32.2817L42.8514 29.6392C43.1922 29.2984 43.1922 28.8723 42.9367 28.531L40.8056 25.8036C41.5726 24.5251 42.1694 23.161 42.5102 21.712L45.9196 21.2859C46.3458 21.2006 46.6866 20.8597 46.6866 20.4336V16.6833C46.6866 16.2572 46.3458 15.9164 45.9196 15.831L42.5102 15.4049C42.1694 13.9559 41.5726 12.5921 40.8056 11.3134L42.9367 8.5859C43.1922 8.24507 43.1922 7.73362 42.8514 7.47771L40.2089 4.8352C39.8681 4.49437 39.4419 4.49437 39.1007 4.74989L36.3732 6.88099C35.0948 6.11403 33.7307 5.51725 32.2817 5.17642L31.8556 1.76697C31.7703 1.34083 31.4294 1 31.0033 1H27.253C26.8269 1 26.486 1.34083 26.4007 1.76697L25.9746 5.17642C24.5256 5.51725 23.1618 6.114 21.8831 6.88099L19.1556 4.83518C18.985 4.74987 18.8147 4.66457 18.6441 4.66457C18.3886 4.66457 18.1327 4.74987 17.9621 4.92009L15.3196 7.5626C14.9787 7.90343 14.9787 8.32957 15.2343 8.67079L17.3654 11.3983C16.5984 12.6767 16.0016 14.0408 15.6608 15.4898L12.2513 15.9159C11.8252 16.0012 11.4844 16.3421 11.4844 16.7682V20.5185C11.4844 20.7744 11.8252 21.1153 12.2513 21.2006L12.2514 21.2006ZM13.1889 17.2796L16.5131 16.8535C16.8539 16.7682 17.1952 16.5127 17.2801 16.1714C17.6209 14.5518 18.2177 13.0178 19.1552 11.6538C19.3258 11.313 19.3258 10.9717 19.1552 10.6309L17.1094 7.9884L18.729 6.36881L21.3715 8.41463C21.627 8.67015 22.0536 8.67015 22.3944 8.41463C23.7581 7.47704 25.2925 6.88031 26.912 6.53948C27.2529 6.45417 27.5088 6.19865 27.5941 5.77251L28.0198 2.53404H30.3211L30.7472 5.77293C30.8325 6.11376 31.0881 6.45498 31.4293 6.5399C33.0489 6.88073 34.5829 7.47748 35.9469 8.41504C36.2878 8.58565 36.629 8.58565 36.9698 8.41504L39.6123 6.36922L41.2319 7.98882L39.2715 10.546C39.016 10.8016 39.016 11.313 39.2715 11.6542C40.2091 13.018 40.8058 14.5523 41.1466 16.1719C41.232 16.5127 41.4875 16.7686 41.9136 16.8539L45.2378 17.2801V19.5809L41.9136 20.0071C41.5728 20.0924 41.2316 20.3479 41.1466 20.6891C40.8058 22.3087 40.2091 23.8427 39.2715 25.2068C39.1009 25.5476 39.1009 25.8888 39.2715 26.2297L41.3173 28.8722L39.6977 30.4918L37.1405 28.5313C36.885 28.3607 36.3735 28.2758 36.0323 28.5313C34.6686 29.4689 33.1343 30.0656 31.5147 30.4065C31.1738 30.4918 30.9179 30.7473 30.8326 31.1734L30.4065 34.4123H28.1052L27.6791 31.1734C27.5938 30.8326 27.3382 30.4914 26.997 30.4065C25.3774 30.0656 23.8434 29.4689 22.4794 28.5313C22.1385 28.3607 21.7973 28.3607 21.4565 28.5313L18.814 30.5771L17.1944 28.9575L19.2402 26.315C19.4957 26.0595 19.4957 25.633 19.2402 25.2922C18.3026 23.9284 17.7059 22.3941 17.365 20.7745C17.2797 20.4337 17.0242 20.1778 16.5981 20.0924L13.1889 19.581L13.1889 17.2796Z" fill="#0174FF" stroke="#0174FF" stroke-width="1.5"/>
<path d="M29.1281 26.8225C33.816 26.8225 37.5667 23.0722 37.5667 18.3839C37.5667 13.696 33.731 9.94531 29.1281 9.94531C24.4402 9.94531 20.6895 13.6956 20.6895 18.3839C20.6895 23.0722 24.4402 26.8225 29.1281 26.8225ZM29.1281 11.7361C32.8783 11.7361 35.8618 14.7194 35.8618 18.4698C35.8618 22.2202 32.7932 25.2036 29.1281 25.2036C25.463 25.2036 22.3943 22.2202 22.3943 18.4698C22.3943 14.7191 25.3777 11.7361 29.1281 11.7361Z" fill="#0174FF" stroke="#0174FF" stroke-width="1.5"/>
<path d="M53.1649 33.5563V18.4699C53.1649 17.9584 52.8241 17.6176 52.3126 17.6176H48.8178C48.3063 17.6176 47.9655 17.9584 47.9655 18.4699C47.9655 18.9813 48.3063 19.3221 48.8178 19.3221H51.4603V33.6416C49.159 34.0678 47.3687 36.0283 47.3687 38.5001C47.3687 40.2047 48.3063 41.739 49.67 42.6766C47.9654 45.3191 45.4935 47.6205 42.4249 49.3249C41.6579 48.3874 40.635 47.7053 39.3562 47.4498V34.1529C39.3562 33.6415 39.0154 33.3006 38.504 33.3006C37.9925 33.3006 37.6517 33.6415 37.6517 34.1529V47.4498C35.3504 47.8759 33.5602 49.9217 33.6455 52.3937C30.6621 52.9051 27.5085 52.9051 24.5252 52.3937C24.6105 49.8364 22.8206 47.876 20.4336 47.4498V34.1529C20.4336 33.6415 20.0928 33.3006 19.5814 33.3006C19.0699 33.3006 18.7291 33.6415 18.7291 34.1529V47.4498C17.4506 47.7053 16.4278 48.3874 15.6605 49.3249C12.8477 47.7053 10.4612 45.6599 8.75618 43.188C9.94966 42.2504 10.7166 40.8867 10.7166 39.267C10.7166 36.8804 8.92675 34.8347 6.62507 34.4086L6.62588 19.3221H9.26839C9.77983 19.3221 10.1207 18.9813 10.1207 18.4699C10.1207 17.9584 9.77983 17.6176 9.26839 17.6176L5.94381 17.6172C5.43236 17.6172 5.09153 17.958 5.09153 18.4695V34.4087C2.79027 34.8353 1 36.7957 1 39.2676C1 41.9951 3.21597 44.1261 5.94387 44.1261C6.45531 44.1261 6.96676 44.0408 7.39289 43.8706C9.26804 46.5981 11.9105 48.9846 15.0641 50.6896C14.8935 51.1157 14.8935 51.6272 14.8935 52.1386C14.8935 54.8661 17.1095 56.9971 19.8374 56.9971C21.8832 56.9971 23.6731 55.7187 24.355 53.9285C27.6792 54.4399 30.8332 54.4399 34.1574 53.9285C34.8394 55.7183 36.6293 56.9971 38.675 56.9971C41.4025 56.9971 43.6189 54.7811 43.6189 52.1386C43.6189 51.6272 43.5336 51.201 43.3634 50.6896C46.7728 48.7292 49.5856 46.1719 51.4607 43.1036C51.8016 43.1889 52.1428 43.1889 52.4836 43.1889C55.2111 43.1889 57.4275 40.973 57.4275 38.3305C57.2565 36.0284 55.4663 33.983 53.1649 33.5564L53.1649 33.5563ZM2.70463 39.2675C2.70463 37.4777 4.15366 36.1139 5.94351 36.1139C7.73337 36.1139 9.1824 37.5629 9.1824 39.2675C9.1824 41.0574 7.73337 42.4211 5.94351 42.4211C4.15366 42.4211 2.70463 40.9721 2.70463 39.2675ZM19.6665 55.3765C17.8767 55.3765 16.4276 53.9275 16.4276 52.2229C16.4276 50.4331 17.8767 49.0693 19.5812 49.0693C21.627 49.0693 23.1614 50.9445 22.7348 52.905C22.4793 54.2688 21.2005 55.3765 19.6665 55.3765ZM38.5887 55.3765C36.7989 55.3765 35.3498 53.9275 35.3498 52.2229C35.3498 50.4331 36.7989 49.0693 38.5887 49.0693C40.3786 49.0693 41.7423 50.5184 41.7423 52.2229C41.7427 53.9275 40.2937 55.3765 38.5887 55.3765ZM52.312 41.5684C50.5222 41.5684 49.0731 40.1193 49.0731 38.4148C49.0731 36.6249 50.5222 35.2612 52.312 35.2612C54.1019 35.2608 55.5509 36.6245 55.5509 38.4144C55.5509 40.2046 54.1019 41.5684 52.312 41.5684Z" fill="#0174FF" stroke="#0174FF" stroke-width="1.5"/>
</svg>
