<svg width="9" height="19" viewBox="0 0 9 19" fill="none" xmlns="http://www.w3.org/2000/svg">
<path d="M8.99919 9.64665C8.99303 9.32863 8.88871 9.0247 8.70656 8.79382L2.28532 0.767265C2.01919 0.43738 1.62691 0.302332 1.25549 0.412967C0.884102 0.523825 0.589957 0.863343 0.483415 1.30455C0.376848 1.74551 0.474084 2.22118 0.738726 2.55308L6.44903 9.68697L0.738726 16.8209C0.474084 17.1528 0.376853 17.6284 0.483415 18.0694C0.589981 18.5106 0.884107 18.8501 1.25549 18.961C1.62688 19.0716 2.01916 18.9366 2.28532 18.6067L8.70656 10.5801C8.90494 10.3291 9.01039 9.99268 8.99919 9.64714V9.64665Z" fill="#0A0A0A"/>
</svg>
