<svg width="26" height="26" viewBox="0 0 26 26" fill="none" xmlns="http://www.w3.org/2000/svg">
<path d="M0 4C0 1.79086 1.79086 0 4 0H22C24.2091 0 26 1.79086 26 4V22C26 24.2091 24.2091 26 22 26H4C1.79086 26 0 24.2091 0 22V4Z" fill="#CCCCCC"/>
<path d="M20.3259 6.77772L19.9101 7.0555L19.9101 7.0555L20.3259 6.77772ZM20.3259 17.2223L19.9101 16.9445H19.9101L20.3259 17.2223ZM19.2223 18.3259L18.9445 17.9101V17.9101L19.2223 18.3259ZM15 18.9986L14.9978 18.4986C14.7225 18.4998 14.5 18.7233 14.5 18.9986H15ZM15 19L15.4472 19.2236C15.4819 19.1542 15.5 19.0776 15.5 19H15ZM11 19H10.5C10.5 19.0776 10.5181 19.1542 10.5528 19.2236L11 19ZM11 18.9986H11.5C11.5 18.7233 11.2775 18.4998 11.0022 18.4986L11 18.9986ZM6.77772 18.3259L7.0555 17.9101L7.0555 17.9101L6.77772 18.3259ZM5.67412 17.2223L6.08986 16.9445H6.08986L5.67412 17.2223ZM5.67412 6.77772L6.08986 7.0555L5.67412 6.77772ZM6.77772 5.67412L7.0555 6.08986L6.77772 5.67412ZM19.2223 5.67412L18.9445 6.08986V6.08986L19.2223 5.67412ZM21.5 12C21.5 10.6059 21.5006 9.52277 21.4132 8.66325C21.3249 7.79537 21.1427 7.10023 20.7416 6.49993L19.9101 7.0555C20.1832 7.4641 20.3381 7.97564 20.4183 8.76445C20.4994 9.56162 20.5 10.5851 20.5 12H21.5ZM20.7416 17.5001C21.1427 16.8998 21.3249 16.2046 21.4132 15.3368C21.5006 14.4772 21.5 13.3941 21.5 12H20.5C20.5 13.4149 20.4994 14.4384 20.4183 15.2355C20.3381 16.0244 20.1832 16.5359 19.9101 16.9445L20.7416 17.5001ZM19.5001 18.7416C19.9914 18.4133 20.4133 17.9914 20.7416 17.5001L19.9101 16.9445C19.6548 17.3267 19.3267 17.6548 18.9445 17.9101L19.5001 18.7416ZM15.0022 19.4986C16.0787 19.4939 16.9452 19.4734 17.6582 19.3749C18.3793 19.2752 18.9757 19.092 19.5001 18.7416L18.9445 17.9101C18.5875 18.1487 18.1516 18.2971 17.5213 18.3843C16.883 18.4725 16.079 18.4939 14.9978 18.4986L15.0022 19.4986ZM15.5 19V18.9986H14.5V19H15.5ZM14.3416 21.4348L15.4472 19.2236L14.5528 18.7764L13.4472 20.9875L14.3416 21.4348ZM11.6584 21.4348C12.2111 22.5403 13.7889 22.5403 14.3416 21.4348L13.4472 20.9875C13.263 21.3561 12.737 21.3561 12.5528 20.9875L11.6584 21.4348ZM10.5528 19.2236L11.6584 21.4348L12.5528 20.9875L11.4472 18.7764L10.5528 19.2236ZM10.5 18.9986V19H11.5V18.9986H10.5ZM6.49993 18.7416C7.02427 19.092 7.62069 19.2752 8.34176 19.3749C9.0548 19.4734 9.92135 19.4939 10.9978 19.4986L11.0022 18.4986C9.92095 18.4939 9.11704 18.4725 8.47869 18.3843C7.84838 18.2971 7.41252 18.1487 7.0555 17.9101L6.49993 18.7416ZM5.25839 17.5001C5.5867 17.9914 6.00858 18.4133 6.49993 18.7416L7.0555 17.9101C6.67334 17.6548 6.34521 17.3267 6.08986 16.9445L5.25839 17.5001ZM4.5 12C4.5 13.3941 4.4994 14.4772 4.58683 15.3368C4.67512 16.2046 4.85728 16.8998 5.25839 17.5001L6.08986 16.9445C5.81684 16.5359 5.66194 16.0244 5.5817 15.2355C5.5006 14.4384 5.5 13.4149 5.5 12H4.5ZM5.25839 6.49993C4.85728 7.10023 4.67512 7.79537 4.58683 8.66325C4.4994 9.52277 4.5 10.6059 4.5 12H5.5C5.5 10.5851 5.5006 9.56162 5.5817 8.76445C5.66194 7.97564 5.81684 7.4641 6.08986 7.0555L5.25839 6.49993ZM6.49993 5.25839C6.00858 5.5867 5.5867 6.00858 5.25839 6.49993L6.08986 7.0555C6.34521 6.67334 6.67334 6.34521 7.0555 6.08986L6.49993 5.25839ZM12 4.5C10.6059 4.5 9.52277 4.4994 8.66325 4.58683C7.79537 4.67512 7.10023 4.85728 6.49993 5.25839L7.0555 6.08986C7.4641 5.81684 7.97564 5.66194 8.76445 5.5817C9.56162 5.5006 10.5851 5.5 12 5.5V4.5ZM14 4.5H12V5.5H14V4.5ZM19.5001 5.25839C18.8998 4.85728 18.2046 4.67512 17.3368 4.58683C16.4772 4.4994 15.3941 4.5 14 4.5V5.5C15.4149 5.5 16.4384 5.5006 17.2355 5.5817C18.0244 5.66194 18.5359 5.81684 18.9445 6.08986L19.5001 5.25839ZM20.7416 6.49993C20.4133 6.00858 19.9914 5.5867 19.5001 5.25839L18.9445 6.08986C19.3267 6.34521 19.6548 6.67334 19.9101 7.0555L20.7416 6.49993Z" fill="white"/>
<circle cx="17" cy="12" r="1" fill="white"/>
<circle cx="13" cy="12" r="1" fill="white"/>
<circle cx="9" cy="12" r="1" fill="white"/>
</svg>


