<svg width="19" height="14" viewBox="0 0 19 14" fill="none" xmlns="http://www.w3.org/2000/svg">
<path d="M0.603863 7.97552C0.178921 7.55058 0.178921 6.86161 0.603863 6.43667C1.02881 6.01172 1.71777 6.01172 2.14272 6.43667L7.03311 11.3271C7.45805 11.752 7.45805 12.441 7.03311 12.8659C6.60817 13.2909 5.9192 13.2909 5.49426 12.8659L0.603863 7.97552Z" fill="#5FC068"/>
<path d="M7.18743 12.9108C6.76249 13.3357 6.07352 13.3357 5.64858 12.9108C5.22364 12.4858 5.22364 11.7969 5.64858 11.3719L16.4206 0.599957C16.8455 0.175014 17.5345 0.175014 17.9594 0.599957C18.3844 1.0249 18.3844 1.71387 17.9594 2.13881L7.18743 12.9108Z" fill="#5FC068"/>
</svg>
