<svg width="56" height="56" viewBox="0 0 56 56" fill="none" xmlns="http://www.w3.org/2000/svg">
<g filter="url(#filter0_dd_0_1)">
<rect x="7" y="2" width="41.5698" height="41.5698" rx="10.3925" fill="white"/>
</g>
<path d="M35.2325 25.1792H38.6088V30.5814C38.6088 31.1187 38.3953 31.634 38.0154 32.014C37.6355 32.3938 37.1202 32.6073 36.5829 32.6073H19.0259C18.4886 32.6073 17.9733 32.3938 17.5934 32.014C17.2135 31.634 17 31.1187 17 30.5814V25.1792H20.3763V29.2308H35.2322L35.2325 25.1792ZM23.0957 18.0821H25.7789V26.5298H29.8305V18.0821H32.5136C32.6447 18.0807 32.7642 18.0069 32.8242 17.8902C32.8842 17.7737 32.8746 17.6335 32.7995 17.5261L28.2009 11.2011C28.1086 11.0747 27.9613 11 27.8048 11C27.6482 11 27.5009 11.0747 27.4086 11.2011L22.81 17.5261C22.7349 17.6335 22.7253 17.7737 22.7853 17.8902C22.8453 18.0069 22.9648 18.0807 23.0959 18.0821H23.0957Z" fill="black"/>
<defs>
<filter id="filter0_dd_0_1" x="0.504719" y="0.700944" width="54.5604" height="54.5609" filterUnits="userSpaceOnUse" color-interpolation-filters="sRGB">
<feFlood flood-opacity="0" result="BackgroundImageFix"/>
<feColorMatrix in="SourceAlpha" type="matrix" values="0 0 0 0 0 0 0 0 0 0 0 0 0 0 0 0 0 0 127 0" result="hardAlpha"/>
<feMorphology radius="1.29906" operator="erode" in="SourceAlpha" result="effect1_dropShadow_0_1"/>
<feOffset dy="2.59811"/>
<feGaussianBlur stdDeviation="2.59811"/>
<feColorMatrix type="matrix" values="0 0 0 0 0 0 0 0 0 0 0 0 0 0 0 0 0 0 0.07 0"/>
<feBlend mode="normal" in2="BackgroundImageFix" result="effect1_dropShadow_0_1"/>
<feColorMatrix in="SourceAlpha" type="matrix" values="0 0 0 0 0 0 0 0 0 0 0 0 0 0 0 0 0 0 127 0" result="hardAlpha"/>
<feMorphology radius="1.29906" operator="erode" in="SourceAlpha" result="effect2_dropShadow_0_1"/>
<feOffset dy="5.19623"/>
<feGaussianBlur stdDeviation="3.89717"/>
<feColorMatrix type="matrix" values="0 0 0 0 0 0 0 0 0 0 0 0 0 0 0 0 0 0 0.12 0"/>
<feBlend mode="normal" in2="effect1_dropShadow_0_1" result="effect2_dropShadow_0_1"/>
<feBlend mode="normal" in="SourceGraphic" in2="effect2_dropShadow_0_1" result="shape"/>
</filter>
</defs>
</svg>
