<svg width="26" height="26" viewBox="0 0 26 26" fill="none" xmlns="http://www.w3.org/2000/svg">
<path d="M0 4C0 1.79086 1.79086 0 4 0H22C24.2091 0 26 1.79086 26 4V22C26 24.2091 24.2091 26 22 26H4C1.79086 26 0 24.2091 0 22V4Z" fill="white"/>
<path fill-rule="evenodd" clip-rule="evenodd" d="M10.9724 8.25644C11.1722 8.31071 11.308 8.48389 11.3921 8.67303L12.1589 10.3982C12.2588 10.6228 12.2161 10.9058 12.0861 11.1145C11.8747 11.4537 11.6349 11.9064 11.804 12.2686C12.2278 13.1766 12.8147 13.7313 13.7001 14.1612C14.0619 14.3369 14.5115 14.079 14.8509 13.8632C15.0463 13.739 15.3219 13.6915 15.5327 13.7874L17.3311 14.6053C17.5168 14.6897 17.6866 14.8241 17.741 15.0207C18.0265 16.0536 16.7794 17.3815 15.816 17.3815C14.8705 17.3815 13.9342 17.1953 13.0607 16.8335C12.1871 16.4717 11.3934 15.9415 10.7248 15.273C10.0562 14.6045 9.52588 13.8108 9.16404 12.9374C8.80221 12.064 8.61597 11.1279 8.61597 10.1825C8.61597 9.22057 9.94008 7.976 10.9724 8.25644ZM11.3272 10.6794L10.6222 9.09335C10.4746 9.10664 10.2438 9.18664 9.97773 9.41585C9.6196 9.72436 9.49026 10.0553 9.49026 10.1825C9.49026 11.0131 9.65388 11.8355 9.97178 12.6029C10.2897 13.3703 10.7556 14.0675 11.343 14.6548C11.9304 15.2421 12.6278 15.708 13.3952 16.0259C14.1627 16.3437 14.9853 16.5073 15.816 16.5073C15.9434 16.5073 16.2752 16.3775 16.5839 16.0185C16.8143 15.7506 16.8932 15.519 16.9055 15.3721L15.2739 14.6301C15.1015 14.7385 14.8499 14.8878 14.5708 14.9848C14.267 15.0903 13.7969 15.18 13.3182 14.9476C12.2691 14.4382 11.5281 13.7445 11.0117 12.6383C10.7948 12.1735 10.8721 11.7169 10.9708 11.4129C11.0657 11.1209 11.2157 10.8599 11.3272 10.6794Z" fill="#0174FF"/>
<path fill-rule="evenodd" clip-rule="evenodd" d="M13.1992 21.7977C18.1698 21.7977 22.1992 17.7688 22.1992 12.7989C22.1992 7.82896 18.1698 3.80005 13.1992 3.80005C8.22866 3.80005 4.19922 7.82896 4.19922 12.7989C4.19922 14.2985 4.56609 15.7124 5.21498 16.9559C5.27646 17.0737 5.29369 17.2101 5.25929 17.3384L4.23726 21.1522C4.13479 21.5346 4.48472 21.8844 4.86713 21.782L8.69502 20.7564C8.82264 20.7222 8.95821 20.7391 9.0756 20.7997C10.311 21.4375 11.713 21.7977 13.1992 21.7977ZM21.1706 12.7989C21.1706 17.2008 17.6017 20.7693 13.1992 20.7693C11.881 20.7693 10.6404 20.4501 9.54753 19.8859C9.21371 19.7135 8.81564 19.6594 8.4288 19.763L5.46133 20.5581L6.25282 17.6046C6.35708 17.2155 6.3017 16.8151 6.12688 16.4801C5.55281 15.3801 5.22779 14.1289 5.22779 12.7989C5.22779 8.39695 8.79672 4.82849 13.1992 4.82849C17.6017 4.82849 21.1706 8.39695 21.1706 12.7989Z" fill="#0174FF"/>
</svg>
