<svg width="56" height="56" viewBox="0 0 56 56" fill="none" xmlns="http://www.w3.org/2000/svg">
<g filter="url(#filter0_dd_0_1)">
<rect x="6.5625" y="2" width="42.3492" height="41.5698" rx="10.3925" fill="white"/>
</g>
<path d="M26.5748 19.533C26.5748 19.9232 26.2525 20.2397 25.8549 20.2397C25.4573 20.2397 25.135 19.9233 25.135 19.533C25.135 19.1427 25.4573 18.8263 25.8549 18.8263C26.2525 18.8263 26.5748 19.1427 26.5748 19.533Z" fill="#3A416F"/>
<path d="M38.2601 15.2577H23.0012V15.0681C23.0012 13.3789 21.5965 12 19.8756 12C18.1548 12 16.75 13.3789 16.75 15.0681V31.2186C16.75 33.1663 18.3655 34.752 20.3497 34.752H38.2599C39.1818 34.752 39.928 34.0195 39.928 33.1146V16.8956C39.928 15.9907 39.1818 15.2581 38.2599 15.2581L38.2601 15.2577ZM32.922 19.6702C33.1152 19.3944 33.4927 19.3254 33.7736 19.515C34.0107 19.6788 34.2302 19.8684 34.4145 20.0752C34.634 20.3251 34.6077 20.7043 34.3531 20.9284C34.2389 21.0318 34.0897 21.0749 33.9492 21.0749C33.7736 21.0749 33.6068 21.006 33.4839 20.8681C33.361 20.7302 33.2205 20.6095 33.0712 20.5061C32.8079 20.3251 32.7376 19.9459 32.922 19.6702L32.922 19.6702ZM17.9786 15.0681C17.9786 14.0425 18.8302 13.2066 19.8751 13.2066C20.9199 13.2066 21.7715 14.0425 21.7715 15.0681V28.3229C21.2447 27.9265 20.5862 27.6938 19.8751 27.6938C19.8048 27.6938 19.7346 27.6938 19.6643 27.7024H19.6292C19.559 27.711 19.4975 27.711 19.4361 27.7196C19.4273 27.7196 19.4097 27.7196 19.401 27.7282C19.3395 27.7369 19.2693 27.7455 19.2078 27.7627C19.199 27.7627 19.1902 27.7713 19.1815 27.7713C19.12 27.7886 19.0498 27.7972 18.9883 27.823H18.9795C18.9181 27.8403 18.8566 27.8661 18.7952 27.8834C18.7864 27.8834 18.7776 27.892 18.76 27.892C18.6986 27.9178 18.6459 27.9351 18.5844 27.9609C18.5757 27.9695 18.5581 27.9695 18.5493 27.9782C18.4879 28.004 18.4352 28.0299 18.3825 28.0643C18.3737 28.0643 18.365 28.073 18.3562 28.0816C18.3035 28.1074 18.2508 28.1419 18.1981 28.1764L18.1894 28.185L18.0313 28.2884C18.0225 28.297 18.0138 28.3057 18.005 28.3057C17.9962 28.3143 17.9874 28.3143 17.9874 28.3229V15.0681L17.9786 15.0681ZM25.854 21.4542C24.7741 21.4542 23.9049 20.5923 23.9049 19.5409C23.9049 18.4896 24.7829 17.6277 25.854 17.6277C26.9251 17.6277 27.8031 18.4896 27.8031 19.5409C27.8031 20.5923 26.9251 21.4542 25.854 21.4542ZM28.9093 18.929H29.2605C29.6029 18.929 29.8751 19.1962 29.8751 19.5323C29.8751 19.8684 29.6029 20.1356 29.2605 20.1356H28.9093C28.5669 20.1356 28.2947 19.8684 28.2947 19.5323C28.2947 19.1962 28.5669 18.929 28.9093 18.929ZM29.638 29.6758C29.5415 29.7361 29.4273 29.762 29.3132 29.762C29.1112 29.762 28.9093 29.6586 28.7864 29.4776C28.6371 29.2363 28.5142 28.9777 28.4264 28.7019C28.3298 28.3831 28.5142 28.047 28.8391 27.9522C29.1639 27.8574 29.5063 28.0383 29.6029 28.3572C29.6556 28.5296 29.7346 28.6933 29.8312 28.8484C30.0156 29.1328 29.9278 29.5034 29.638 29.6758ZM29.9014 26.5388C29.7961 26.6853 29.7083 26.8491 29.6468 27.0214C29.559 27.2714 29.3219 27.4179 29.0673 27.4179C28.9971 27.4179 28.9269 27.4093 28.8566 27.3834C28.5406 27.2714 28.3737 26.9266 28.4879 26.6078C28.5844 26.3406 28.7161 26.0907 28.883 25.8494C29.0761 25.5736 29.4536 25.5046 29.7346 25.6942C30.0243 25.8838 30.0945 26.263 29.9014 26.5388L29.9014 26.5388ZM31.9471 30.529C31.9032 30.8307 31.6398 31.0548 31.3413 31.0548C31.3149 31.0548 31.2886 31.0548 31.2622 31.0461C30.9725 31.0117 30.6916 30.9341 30.4281 30.8307C30.1121 30.7014 29.9628 30.3567 30.0857 30.0464C30.2086 29.7362 30.5686 29.5897 30.8847 29.7103C31.0515 29.7793 31.2359 29.8224 31.4202 29.8482C31.7539 29.8913 31.9909 30.1929 31.947 30.5291L31.9471 30.529ZM31.5256 25.6167C31.3413 25.6339 31.1569 25.6684 30.9901 25.7287C30.9198 25.7546 30.8584 25.7632 30.7881 25.7632C30.5335 25.7632 30.2965 25.6081 30.2087 25.3582C30.0945 25.0393 30.2701 24.7032 30.5862 24.5911C30.8584 24.4963 31.1481 24.436 31.4378 24.4188C31.7714 24.3929 32.0699 24.6429 32.0963 24.9703C32.1138 25.2978 31.8592 25.5908 31.5256 25.6167H31.5256ZM31.7539 20.1356H31.0427C30.7003 20.1356 30.4282 19.8684 30.4282 19.5323C30.4282 19.1962 30.7003 18.9291 31.0427 18.9291H31.7539C32.0963 18.9291 32.3685 19.1962 32.3685 19.5323C32.3685 19.8684 32.0963 20.1356 31.7539 20.1356ZM33.4659 31.0723H33.1147C32.7723 31.0723 32.5002 30.8051 32.5002 30.469C32.5002 30.1329 32.7723 29.8657 33.1147 29.8657H33.4659C33.8083 29.8657 34.0805 30.1329 34.0805 30.469C34.0805 30.8051 33.7996 31.0723 33.4659 31.0723ZM34.1859 24.6948C33.9752 24.893 33.7381 25.0568 33.4835 25.1947C33.3869 25.2464 33.2904 25.2722 33.185 25.2722C32.9655 25.2722 32.7548 25.1602 32.6494 24.962C32.4826 24.6689 32.5967 24.307 32.8953 24.1432C33.0533 24.057 33.2113 23.945 33.343 23.8243C33.5889 23.6003 33.9752 23.6089 34.2122 23.8502C34.4492 24.0915 34.4317 24.4707 34.1859 24.6948L34.1859 24.6948ZM34.4932 23.3504C34.1595 23.2901 33.94 22.9798 34.0015 22.6523C34.0278 22.5317 34.0366 22.4024 34.0366 22.2731C34.0366 22.2214 34.0366 22.1611 34.0278 22.1094C34.0015 21.7733 34.2561 21.4889 34.5897 21.463C34.9234 21.4372 35.2219 21.6871 35.2482 22.0146C35.257 22.1008 35.257 22.187 35.257 22.2731C35.257 22.4714 35.2394 22.6696 35.2043 22.8678C35.1516 23.1608 34.8883 23.3677 34.5985 23.3677C34.5634 23.359 34.5283 23.3504 34.4932 23.3504L34.4932 23.3504ZM37.7943 30.9861C38.0314 31.2187 38.0314 31.6066 37.7943 31.8392C37.6714 31.9599 37.5134 32.0202 37.3554 32.0202C37.1973 32.0202 37.0393 31.9599 36.9251 31.8392L36.3984 31.3222L35.8716 31.8392C35.7487 31.9599 35.5906 32.0202 35.4414 32.0202C35.2833 32.0202 35.1253 31.9599 35.0024 31.8392C34.7653 31.6066 34.7653 31.2187 35.0024 30.9861L35.5292 30.469L35.0024 29.9519C34.7653 29.7192 34.7653 29.3314 35.0024 29.0987C35.2394 28.866 35.6345 28.866 35.8716 29.0987L36.3983 29.6158L36.9251 29.0987C37.1622 28.866 37.5573 28.866 37.7943 29.0987C38.0314 29.3314 38.0314 29.7192 37.7943 29.9519L37.2675 30.469L37.7943 30.9861Z" fill="#3A416F"/>
<defs>
<filter id="filter0_dd_0_1" x="0.0672185" y="0.700944" width="55.3398" height="54.5604" filterUnits="userSpaceOnUse" color-interpolation-filters="sRGB">
<feFlood flood-opacity="0" result="BackgroundImageFix"/>
<feColorMatrix in="SourceAlpha" type="matrix" values="0 0 0 0 0 0 0 0 0 0 0 0 0 0 0 0 0 0 127 0" result="hardAlpha"/>
<feMorphology radius="1.29906" operator="erode" in="SourceAlpha" result="effect1_dropShadow_0_1"/>
<feOffset dy="2.59811"/>
<feGaussianBlur stdDeviation="2.59811"/>
<feColorMatrix type="matrix" values="0 0 0 0 0 0 0 0 0 0 0 0 0 0 0 0 0 0 0.07 0"/>
<feBlend mode="normal" in2="BackgroundImageFix" result="effect1_dropShadow_0_1"/>
<feColorMatrix in="SourceAlpha" type="matrix" values="0 0 0 0 0 0 0 0 0 0 0 0 0 0 0 0 0 0 127 0" result="hardAlpha"/>
<feMorphology radius="1.29906" operator="erode" in="SourceAlpha" result="effect2_dropShadow_0_1"/>
<feOffset dy="5.19623"/>
<feGaussianBlur stdDeviation="3.89717"/>
<feColorMatrix type="matrix" values="0 0 0 0 0 0 0 0 0 0 0 0 0 0 0 0 0 0 0.12 0"/>
<feBlend mode="normal" in2="effect1_dropShadow_0_1" result="effect2_dropShadow_0_1"/>
<feBlend mode="normal" in="SourceGraphic" in2="effect2_dropShadow_0_1" result="shape"/>
</filter>
</defs>
</svg>

