<svg width="17" height="20" viewBox="0 0 13 17" fill="none" xmlns="http://www.w3.org/2000/svg">
<path d="M1.58643 14.7596V14.9096H1.73643H10.4186H10.5686V14.7596V12.155C10.5686 11.4244 10.2783 10.7238 9.76174 10.2072C9.24515 9.69057 8.5445 9.40035 7.81392 9.40035H4.34107C3.61049 9.40035 2.90984 9.69057 2.39324 10.2072C1.87665 10.7238 1.58643 11.4244 1.58643 12.155V14.7596ZM6.07749 6.79571C5.4203 6.79571 4.77786 6.60083 4.23141 6.23571C3.68497 5.87059 3.25908 5.35163 3.00758 4.74446C2.75608 4.13728 2.69027 3.46917 2.81849 2.8246C2.9467 2.18003 3.26317 1.58795 3.72788 1.12324C4.19259 0.658533 4.78467 0.342062 5.42924 0.213849C6.07381 0.0856363 6.74192 0.15144 7.34909 0.402939C7.95627 0.654437 8.47522 1.08034 8.84034 1.62678C9.20546 2.17322 9.40035 2.81566 9.40035 3.47285C9.40035 4.35413 9.05026 5.19931 8.42711 5.82247C7.80395 6.44562 6.95877 6.79571 6.07749 6.79571ZM6.07749 1.58643C5.70439 1.58643 5.33967 1.69707 5.02945 1.90435C4.71923 2.11163 4.47744 2.40625 4.33466 2.75095C4.19188 3.09565 4.15453 3.47495 4.22731 3.84088C4.3001 4.20681 4.47977 4.54294 4.74359 4.80676C5.00741 5.07058 5.34354 5.25025 5.70947 5.32303C6.0754 5.39582 6.4547 5.35846 6.7994 5.21569C7.1441 5.07291 7.43872 4.83112 7.646 4.5209C7.85328 4.21068 7.96392 3.84595 7.96392 3.47285C7.96392 2.97254 7.76517 2.49272 7.4114 2.13895C7.05762 1.78518 6.57781 1.58643 6.07749 1.58643ZM11.2868 16.3461H0.868213C0.677731 16.3461 0.495051 16.2704 0.36036 16.1357C0.225669 16.001 0.15 15.8183 0.15 15.6278V12.155C0.15 11.0434 0.591558 9.97743 1.37753 9.19146C2.16351 8.40548 3.22953 7.96392 4.34107 7.96392H7.81392C8.92546 7.96392 9.99148 8.40548 10.7775 9.19146C11.5634 9.97743 12.005 11.0434 12.005 12.155V15.6278C12.005 15.8183 11.9293 16.001 11.7946 16.1357C11.6599 16.2704 11.4773 16.3461 11.2868 16.3461Z" fill="#979797" stroke="white" stroke-width="0.3"/>
</svg>
